<svg width="1075" height="1512" viewBox="0 0 1075 1512" fill="none" xmlns="http://www.w3.org/2000/svg">
<g clip-path="url(#clip0_3536_6553)">
<path d="M807.034 544.862C803.48 542.124 799.212 540.476 794.771 540.127C790.329 539.779 785.913 540.745 782.082 542.904C778.25 545.063 775.175 548.318 773.245 552.258C771.314 556.197 770.616 560.643 771.237 565.034C771.859 569.425 773.773 573.565 776.737 576.928C779.701 580.292 783.582 582.728 787.889 583.93C792.197 585.132 796.737 585.045 800.936 583.68C805.134 582.315 808.803 579.734 811.478 576.262C815.359 571.238 817.105 564.876 816.353 558.5" stroke="url(#paint0_linear_3536_6553)" stroke-width="1.71429" stroke-linecap="round" stroke-linejoin="round"/>
<path d="M820.842 564.111L816.354 558.5L810.81 562.835" stroke="url(#paint1_linear_3536_6553)" stroke-width="1.71429" stroke-linecap="round" stroke-linejoin="round"/>
<path d="M800.789 552.963L792.466 563.764L782.573 561.736" stroke="url(#paint2_linear_3536_6553)" stroke-width="1.71429" stroke-linecap="round" stroke-linejoin="round"/>
</g>
<g clip-path="url(#clip1_3536_6553)">
<path d="M813.977 438.112L780.994 412.696" stroke="url(#paint3_linear_3536_6553)" stroke-width="1.71429" stroke-linecap="round" stroke-linejoin="round"/>
<path d="M803.035 418.203L797.486 425.404" stroke="url(#paint4_linear_3536_6553)" stroke-width="1.71429" stroke-linecap="round" stroke-linejoin="round"/>
<path d="M786.492 416.932L789.059 459.079" stroke="url(#paint5_linear_3536_6553)" stroke-width="1.71429" stroke-linecap="round" stroke-linejoin="round"/>
<path d="M808.48 433.876L774.833 440.587" stroke="url(#paint6_linear_3536_6553)" stroke-width="1.71429" stroke-linecap="round" stroke-linejoin="round"/>
<path d="M758.935 458.819L769.761 427.157C770.316 425.534 769.759 423.721 768.378 422.657C766.998 421.593 765.103 421.517 763.675 422.467L735.817 441.005M762.853 447.359L745.9 434.295" stroke="url(#paint7_linear_3536_6553)" stroke-width="1.71429" stroke-linecap="round" stroke-linejoin="round"/>
</g>
<g clip-path="url(#clip2_3536_6553)">
<path d="M785.777 339.035L814.846 323.17C816.773 322.118 818.204 320.343 818.823 318.236C819.442 316.13 819.199 313.863 818.147 311.936L805.752 289.226" stroke="url(#paint8_linear_3536_6553)" stroke-width="1.71429" stroke-linecap="round" stroke-linejoin="round"/>
<path d="M798.323 301.534L769.254 317.399C767.327 318.451 765.896 320.225 765.277 322.332C764.658 324.439 764.901 326.705 765.953 328.633" stroke="url(#paint9_linear_3536_6553)" stroke-width="1.71429" stroke-linecap="round" stroke-linejoin="round"/>
<path d="M777.185 331.934L779.002 330.942C779.484 330.679 780.051 330.618 780.577 330.773C781.104 330.928 781.548 331.286 781.811 331.767L790.735 348.119C790.998 348.601 791.059 349.167 790.904 349.694C790.749 350.22 790.392 350.664 789.91 350.927L788.093 351.919C786.166 352.971 783.899 353.214 781.793 352.595C779.686 351.976 777.911 350.545 776.859 348.618L765.952 328.633C767.004 330.56 768.778 331.991 770.885 332.61C772.992 333.229 775.258 332.986 777.185 331.934Z" stroke="url(#paint10_linear_3536_6553)" stroke-width="1.71429" stroke-linecap="round" stroke-linejoin="round"/>
<path d="M805.752 289.225C804.832 287.539 803.279 286.287 801.436 285.745C799.592 285.204 797.609 285.416 795.923 286.337L793.197 287.824C792.716 288.087 792.358 288.531 792.203 289.057C792.048 289.584 792.109 290.151 792.372 290.633L798.322 301.534L802.864 299.055C804.55 298.134 805.802 296.581 806.344 294.738C806.885 292.894 806.672 290.912 805.752 289.225Z" stroke="url(#paint11_linear_3536_6553)" stroke-width="1.71429" stroke-linecap="round" stroke-linejoin="round"/>
<path d="M804.438 317.06L801.463 311.609" stroke="url(#paint12_linear_3536_6553)" stroke-width="1.71429" stroke-linecap="round" stroke-linejoin="round"/>
<path d="M793.535 323.009L790.56 317.558" stroke="url(#paint13_linear_3536_6553)" stroke-width="1.71429" stroke-linecap="round" stroke-linejoin="round"/>
</g>
<g clip-path="url(#clip3_3536_6553)">
<path d="M867.9 230.052L871.141 232.549C871.713 232.991 872.083 233.648 872.167 234.377C872.251 235.105 872.044 235.845 871.59 236.434L868.168 240.875C867.714 241.464 867.051 241.853 866.326 241.957C865.6 242.061 864.87 241.872 864.297 241.43L861.056 238.933L867.9 230.052Z" stroke="url(#paint14_linear_3536_6553)" stroke-width="1.6" stroke-linecap="round" stroke-linejoin="round"/>
<path d="M861.056 238.933L847.802 238.663C847.318 238.644 846.85 238.497 846.447 238.236C846.043 237.974 845.718 237.609 845.505 237.176C845.265 236.717 845.161 236.195 845.205 235.672C845.249 235.148 845.439 234.644 845.753 234.217L859.44 216.455C859.738 216.049 860.137 215.729 860.595 215.528C861.053 215.326 861.554 215.252 862.043 215.311C862.517 215.407 862.953 215.628 863.308 215.952C863.664 216.275 863.925 216.69 864.067 217.154L867.9 230.051" stroke="url(#paint15_linear_3536_6553)" stroke-width="1.6" stroke-linecap="round" stroke-linejoin="round"/>
<path d="M849.086 212.018C846.146 212.726 843.545 214.508 841.793 217.014C839.712 219.781 838.391 223.039 837.965 226.449" stroke="url(#paint16_linear_3536_6553)" stroke-width="1.6" stroke-linecap="round" stroke-linejoin="round"/>
<path d="M850.84 218.677C849.37 219.031 848.07 219.922 847.193 221.175C846.205 222.341 845.675 223.826 845.707 225.338" stroke="url(#paint17_linear_3536_6553)" stroke-width="1.6" stroke-linecap="round" stroke-linejoin="round"/>
</g>
<path fill-rule="evenodd" clip-rule="evenodd" d="M824.324 248.286C824.58 248.16 824.873 248.132 825.149 248.206C825.425 248.279 825.664 248.45 825.824 248.687C825.984 248.923 826.053 249.21 826.018 249.493C825.984 249.776 825.848 250.037 825.636 250.229C820.036 255.283 816.735 257.208 813.173 264.305C812.509 265.627 810.165 264.471 810.806 263.13C813.392 257.874 818.677 250.449 824.324 248.286Z" fill="url(#paint18_linear_3536_6553)"/>
<path fill-rule="evenodd" clip-rule="evenodd" d="M835.17 259.534C833.444 262.988 821.346 276.846 818.722 279.946C817.628 281.243 815.895 279.401 816.899 278.126C819.422 274.931 830.273 260.456 833.281 258.082C833.487 257.874 833.761 257.748 834.053 257.728C834.345 257.709 834.634 257.796 834.866 257.975C835.098 258.153 835.257 258.41 835.313 258.697C835.369 258.984 835.318 259.282 835.17 259.534Z" fill="url(#paint19_linear_3536_6553)"/>
<path fill-rule="evenodd" clip-rule="evenodd" d="M766.574 399.904C766.496 400.195 766.321 400.45 766.077 400.626C765.834 400.803 765.537 400.89 765.236 400.873C764.936 400.855 764.651 400.735 764.429 400.532C764.206 400.329 764.061 400.056 764.017 399.758C764.079 391.181 767.268 373.723 772.961 366.803C773.824 365.751 775.886 366.474 775.167 367.774C775.39 368.834 767.402 379.804 766.574 399.904Z" fill="url(#paint20_linear_3536_6553)"/>
<path fill-rule="evenodd" clip-rule="evenodd" d="M789.645 368.892C785.887 373.081 784.107 385.808 784.093 391.018C784.09 392.646 786.452 392.457 786.502 390.94C786.837 378.794 790.9 374.101 791.692 369.992C792.166 369.467 790.796 367.768 789.645 368.892Z" fill="url(#paint21_linear_3536_6553)"/>
<path fill-rule="evenodd" clip-rule="evenodd" d="M767.689 517.392C767.7 517.743 767.573 518.084 767.336 518.343C767.099 518.602 766.77 518.758 766.42 518.778C766.07 518.798 765.725 518.681 765.46 518.451C765.195 518.221 765.03 517.897 765 517.547C764.636 510.986 764.937 491.884 768.009 485.555C768.533 484.454 770.541 484.828 770.352 486.064C770.949 486.626 767.017 503.107 767.689 517.392Z" fill="url(#paint22_linear_3536_6553)"/>
<path fill-rule="evenodd" clip-rule="evenodd" d="M783.429 506.568C783.038 516.331 780.609 520.293 784.743 530.834C784.827 531.139 784.798 531.464 784.662 531.749C784.525 532.035 784.289 532.261 783.998 532.385C783.707 532.51 783.381 532.525 783.08 532.427C782.779 532.33 782.524 532.127 782.361 531.855C779.645 525.673 778.647 518.873 779.473 512.171C780.698 502.465 783.478 505.205 783.429 506.568Z" fill="url(#paint23_linear_3536_6553)"/>
<path fill-rule="evenodd" clip-rule="evenodd" d="M894.863 191.908C895.944 191.399 897.62 192.909 896.399 193.602C887.553 199.181 879.305 205.658 871.788 212.93C870.58 214.093 869.204 212.02 870.35 210.802C877.697 203.481 885.945 197.124 894.896 191.885L894.863 191.908Z" fill="url(#paint24_linear_3536_6553)"/>
<path d="M1203.45 242.102C1053.79 118.833 844.456 187.455 854.522 392.095C867.105 647.894 1028.09 903.112 689.457 862.443C350.821 821.774 276.335 999.298 336.552 1131.95C384.726 1238.07 534.108 1383.37 602.777 1442.75" stroke="url(#paint25_linear_3536_6553)" stroke-width="2" stroke-dasharray="14 14"/>
<defs>
<linearGradient id="paint0_linear_3536_6553" x1="788.569" y1="586.583" x2="765.052" y2="562.588" gradientUnits="userSpaceOnUse">
<stop stop-color="#4C60E9"/>
<stop offset="1" stop-color="#7485FF"/>
</linearGradient>
<linearGradient id="paint1_linear_3536_6553" x1="815.916" y1="566.771" x2="811.577" y2="562.03" gradientUnits="userSpaceOnUse">
<stop stop-color="#4C60E9"/>
<stop offset="1" stop-color="#7485FF"/>
</linearGradient>
<linearGradient id="paint2_linear_3536_6553" x1="787.884" y1="565.828" x2="782.817" y2="561.34" gradientUnits="userSpaceOnUse">
<stop stop-color="#4C60E9"/>
<stop offset="1" stop-color="#7485FF"/>
</linearGradient>
<linearGradient id="paint3_linear_3536_6553" x1="804.754" y1="432.268" x2="807.256" y2="427.491" gradientUnits="userSpaceOnUse">
<stop stop-color="#4C60E9"/>
<stop offset="1" stop-color="#7485FF"/>
</linearGradient>
<linearGradient id="paint4_linear_3536_6553" x1="797.279" y1="425.245" x2="796.694" y2="424.78" gradientUnits="userSpaceOnUse">
<stop stop-color="#4C60E9"/>
<stop offset="1" stop-color="#7485FF"/>
</linearGradient>
<linearGradient id="paint5_linear_3536_6553" x1="783.318" y1="454.655" x2="768.596" y2="440.232" gradientUnits="userSpaceOnUse">
<stop stop-color="#4C60E9"/>
<stop offset="1" stop-color="#7485FF"/>
</linearGradient>
<linearGradient id="paint6_linear_3536_6553" x1="788.034" y1="450.76" x2="776.072" y2="439.041" gradientUnits="userSpaceOnUse">
<stop stop-color="#4C60E9"/>
<stop offset="1" stop-color="#7485FF"/>
</linearGradient>
<linearGradient id="paint7_linear_3536_6553" x1="752.899" y1="454.168" x2="737.365" y2="439.049" gradientUnits="userSpaceOnUse">
<stop stop-color="#4C60E9"/>
<stop offset="1" stop-color="#7485FF"/>
</linearGradient>
<linearGradient id="paint8_linear_3536_6553" x1="781.505" y1="331.208" x2="771.919" y2="307.714" gradientUnits="userSpaceOnUse">
<stop stop-color="#4C60E9"/>
<stop offset="1" stop-color="#7485FF"/>
</linearGradient>
<linearGradient id="paint9_linear_3536_6553" x1="764.917" y1="326.735" x2="762.102" y2="321.225" gradientUnits="userSpaceOnUse">
<stop stop-color="#4C60E9"/>
<stop offset="1" stop-color="#7485FF"/>
</linearGradient>
<linearGradient id="paint10_linear_3536_6553" x1="776.942" y1="348.769" x2="773.212" y2="327.12" gradientUnits="userSpaceOnUse">
<stop stop-color="#4C60E9"/>
<stop offset="1" stop-color="#7485FF"/>
</linearGradient>
<linearGradient id="paint11_linear_3536_6553" x1="796.509" y1="298.213" x2="792.926" y2="288.133" gradientUnits="userSpaceOnUse">
<stop stop-color="#4C60E9"/>
<stop offset="1" stop-color="#7485FF"/>
</linearGradient>
<linearGradient id="paint12_linear_3536_6553" x1="802.783" y1="316.115" x2="803.499" y2="312.648" gradientUnits="userSpaceOnUse">
<stop stop-color="#4C60E9"/>
<stop offset="1" stop-color="#7485FF"/>
</linearGradient>
<linearGradient id="paint13_linear_3536_6553" x1="791.881" y1="322.065" x2="792.597" y2="318.597" gradientUnits="userSpaceOnUse">
<stop stop-color="#4C60E9"/>
<stop offset="1" stop-color="#7485FF"/>
</linearGradient>
<linearGradient id="paint14_linear_3536_6553" x1="865.047" y1="242.008" x2="861.293" y2="238.585" gradientUnits="userSpaceOnUse">
<stop stop-color="#4C60E9"/>
<stop offset="1" stop-color="#7485FF"/>
</linearGradient>
<linearGradient id="paint15_linear_3536_6553" x1="852.842" y1="243.175" x2="844.505" y2="235.719" gradientUnits="userSpaceOnUse">
<stop stop-color="#4C60E9"/>
<stop offset="1" stop-color="#7485FF"/>
</linearGradient>
<linearGradient id="paint16_linear_3536_6553" x1="837.398" y1="226.013" x2="835.801" y2="224.729" gradientUnits="userSpaceOnUse">
<stop stop-color="#4C60E9"/>
<stop offset="1" stop-color="#7485FF"/>
</linearGradient>
<linearGradient id="paint17_linear_3536_6553" x1="845.424" y1="225.119" x2="844.626" y2="224.476" gradientUnits="userSpaceOnUse">
<stop stop-color="#4C60E9"/>
<stop offset="1" stop-color="#7485FF"/>
</linearGradient>
<linearGradient id="paint18_linear_3536_6553" x1="810.638" y1="263.824" x2="807.732" y2="259.036" gradientUnits="userSpaceOnUse">
<stop stop-color="#4C60E9"/>
<stop offset="1" stop-color="#7485FF"/>
</linearGradient>
<linearGradient id="paint19_linear_3536_6553" x1="816.074" y1="278.637" x2="812.193" y2="272.214" gradientUnits="userSpaceOnUse">
<stop stop-color="#4C60E9"/>
<stop offset="1" stop-color="#7485FF"/>
</linearGradient>
<linearGradient id="paint20_linear_3536_6553" x1="761.417" y1="396.139" x2="753.179" y2="380.146" gradientUnits="userSpaceOnUse">
<stop stop-color="#4C60E9"/>
<stop offset="1" stop-color="#7485FF"/>
</linearGradient>
<linearGradient id="paint21_linear_3536_6553" x1="782.42" y1="388.949" x2="776.689" y2="377.666" gradientUnits="userSpaceOnUse">
<stop stop-color="#4C60E9"/>
<stop offset="1" stop-color="#7485FF"/>
</linearGradient>
<linearGradient id="paint22_linear_3536_6553" x1="762.799" y1="511.492" x2="761.044" y2="489.08" gradientUnits="userSpaceOnUse">
<stop stop-color="#4C60E9"/>
<stop offset="1" stop-color="#7485FF"/>
</linearGradient>
<linearGradient id="paint23_linear_3536_6553" x1="780.32" y1="526.409" x2="780.578" y2="507.983" gradientUnits="userSpaceOnUse">
<stop stop-color="#4C60E9"/>
<stop offset="1" stop-color="#7485FF"/>
</linearGradient>
<linearGradient id="paint24_linear_3536_6553" x1="870.082" y1="212.604" x2="868.139" y2="209.602" gradientUnits="userSpaceOnUse">
<stop stop-color="#4C60E9"/>
<stop offset="1" stop-color="#7485FF"/>
</linearGradient>
<linearGradient id="paint25_linear_3536_6553" x1="493.704" y1="1381.35" x2="202.018" y2="1176.19" gradientUnits="userSpaceOnUse">
<stop stop-color="#4C60E9"/>
<stop offset="1" stop-color="#7485FF"/>
</linearGradient>
<clipPath id="clip0_3536_6553">
<rect width="48.8634" height="47.727" fill="white" transform="matrix(-0.792106 -0.610384 -0.610384 0.792106 827.426 558.425)"/>
</clipPath>
<clipPath id="clip1_3536_6553">
<rect width="64.7724" height="63.636" fill="white" transform="matrix(-0.792106 -0.610384 -0.610384 0.792106 822.746 430.522)"/>
</clipPath>
<clipPath id="clip2_3536_6553">
<rect width="57.9542" height="57.9542" fill="white" transform="matrix(-0.47908 -0.877771 -0.877771 0.47908 830.871 330.929)"/>
</clipPath>
<clipPath id="clip3_3536_6553">
<rect width="40.9089" height="42.0452" fill="white" transform="matrix(-0.792106 -0.610384 -0.610384 0.792106 883.789 222.834)"/>
</clipPath>
</defs>
</svg>
