<svg width="968" height="2003" viewBox="0 0 968 2003" fill="none" xmlns="http://www.w3.org/2000/svg">
<g clip-path="url(#clip0_3536_6599)">
<path d="M32.5336 1209.36C36.9957 1209.83 41.4942 1209 45.4602 1206.97C49.4262 1204.94 52.6818 1201.81 54.8147 1197.96C56.9479 1194.11 57.8628 1189.73 57.4441 1185.36C57.0253 1181 55.2914 1176.84 52.462 1173.43C49.6326 1170.01 45.8343 1167.49 41.5478 1166.18C37.2613 1164.86 32.6789 1164.82 28.3801 1166.05C24.0814 1167.28 20.2594 1169.74 17.3974 1173.1C14.5354 1176.46 12.762 1180.58 12.3014 1184.94C11.6272 1191.25 13.4721 1197.59 17.4519 1202.62" stroke="url(#paint0_linear_3536_6599)" stroke-width="1.71429" stroke-linecap="round" stroke-linejoin="round"/>
<path d="M10.6869 1200.2L17.4496 1202.62L19.9016 1196.03" stroke="url(#paint1_linear_3536_6599)" stroke-width="1.71429" stroke-linecap="round" stroke-linejoin="round"/>
<path d="M33.6094 1199.19L35.0425 1185.63L44.5326 1182.17" stroke="url(#paint2_linear_3536_6599)" stroke-width="1.71429" stroke-linecap="round" stroke-linejoin="round"/>
</g>
<g clip-path="url(#clip1_3536_6599)">
<path d="M82.5312 1303.93L123.94 1308.31" stroke="url(#paint3_linear_3536_6599)" stroke-width="1.71429" stroke-linecap="round" stroke-linejoin="round"/>
<path d="M102.277 1315.16L103.233 1306.12" stroke="url(#paint4_linear_3536_6599)" stroke-width="1.71429" stroke-linecap="round" stroke-linejoin="round"/>
<path d="M117.036 1307.58L92.7735 1273.02" stroke="url(#paint5_linear_3536_6599)" stroke-width="1.71429" stroke-linecap="round" stroke-linejoin="round"/>
<path d="M89.4297 1304.66L114.578 1281.32" stroke="url(#paint6_linear_3536_6599)" stroke-width="1.71429" stroke-linecap="round" stroke-linejoin="round"/>
<path d="M118.573 1257.47L125.935 1290.11C126.312 1291.78 127.736 1293.03 129.469 1293.22C131.202 1293.4 132.856 1292.47 133.575 1290.92L147.597 1260.53M121.238 1269.28L142.522 1271.53" stroke="url(#paint7_linear_3536_6599)" stroke-width="1.71429" stroke-linecap="round" stroke-linejoin="round"/>
</g>
<g clip-path="url(#clip2_3536_6599)">
<path d="M158.445 1373.56L141.992 1402.31C140.901 1404.21 140.612 1406.47 141.188 1408.59C141.764 1410.71 143.158 1412.51 145.064 1413.6L167.517 1426.46" stroke="url(#paint8_linear_3536_6599)" stroke-width="1.71429" stroke-linecap="round" stroke-linejoin="round"/>
<path d="M167.4 1412.08L183.853 1383.34C184.944 1381.44 185.233 1379.17 184.657 1377.06C184.081 1374.94 182.687 1373.13 180.781 1372.04" stroke="url(#paint9_linear_3536_6599)" stroke-width="1.71429" stroke-linecap="round" stroke-linejoin="round"/>
<path d="M169.484 1375.11L168.455 1376.91C168.183 1377.39 167.732 1377.73 167.202 1377.88C166.672 1378.02 166.107 1377.95 165.631 1377.68L149.464 1368.42C148.988 1368.15 148.639 1367.7 148.495 1367.17C148.351 1366.64 148.424 1366.07 148.696 1365.6L149.725 1363.8C150.815 1361.9 152.619 1360.5 154.738 1359.93C156.856 1359.35 159.117 1359.64 161.023 1360.73L180.782 1372.04C178.876 1370.95 176.616 1370.66 174.497 1371.24C172.378 1371.81 170.574 1373.21 169.484 1375.11Z" stroke="url(#paint10_linear_3536_6599)" stroke-width="1.71429" stroke-linecap="round" stroke-linejoin="round"/>
<path d="M167.517 1426.46C169.185 1427.41 171.163 1427.67 173.017 1427.16C174.871 1426.66 176.449 1425.44 177.404 1423.77L178.946 1421.08C179.219 1420.6 179.291 1420.03 179.147 1419.5C179.003 1418.97 178.654 1418.52 178.178 1418.25L167.4 1412.08L164.83 1416.57C163.875 1418.24 163.622 1420.22 164.126 1422.07C164.63 1423.93 165.85 1425.5 167.517 1426.46Z" stroke="url(#paint11_linear_3536_6599)" stroke-width="1.71429" stroke-linecap="round" stroke-linejoin="round"/>
<path d="M154.059 1402.06L159.447 1405.14" stroke="url(#paint12_linear_3536_6599)" stroke-width="1.71429" stroke-linecap="round" stroke-linejoin="round"/>
<path d="M160.23 1391.28L165.619 1394.36" stroke="url(#paint13_linear_3536_6599)" stroke-width="1.71429" stroke-linecap="round" stroke-linejoin="round"/>
</g>
<g clip-path="url(#clip3_3536_6599)">
<path d="M145.566 1509.41L141.497 1508.98C140.778 1508.91 140.119 1508.54 139.666 1507.97C139.212 1507.39 139.002 1506.65 139.08 1505.91L139.669 1500.34C139.747 1499.6 140.108 1498.92 140.672 1498.45C141.235 1497.98 141.956 1497.76 142.676 1497.83L146.744 1498.26L145.566 1509.41Z" stroke="url(#paint14_linear_3536_6599)" stroke-width="1.6" stroke-linecap="round" stroke-linejoin="round"/>
<path d="M146.746 1498.27L158.178 1491.55C158.601 1491.32 159.076 1491.2 159.556 1491.21C160.037 1491.22 160.505 1491.36 160.914 1491.62C161.359 1491.88 161.72 1492.27 161.957 1492.74C162.194 1493.21 162.296 1493.74 162.252 1494.27L159.895 1516.57C159.854 1517.07 159.682 1517.55 159.397 1517.96C159.112 1518.37 158.725 1518.7 158.277 1518.9C157.824 1519.07 157.336 1519.11 156.864 1519.02C156.392 1518.93 155.952 1518.72 155.588 1518.39L145.568 1509.42" stroke="url(#paint15_linear_3536_6599)" stroke-width="1.6" stroke-linecap="round" stroke-linejoin="round"/>
<path d="M171.039 1514.92C173.172 1512.78 174.455 1509.9 174.635 1506.85C174.958 1503.4 174.378 1499.93 172.954 1496.81" stroke="url(#paint16_linear_3536_6599)" stroke-width="1.6" stroke-linecap="round" stroke-linejoin="round"/>
<path d="M166.059 1510.17C167.125 1509.1 167.766 1507.66 167.857 1506.13C168.087 1504.62 167.761 1503.08 166.942 1501.81" stroke="url(#paint17_linear_3536_6599)" stroke-width="1.6" stroke-linecap="round" stroke-linejoin="round"/>
</g>
<path fill-rule="evenodd" clip-rule="evenodd" d="M173.138 1471.06C172.986 1471.3 172.751 1471.48 172.477 1471.56C172.204 1471.64 171.91 1471.62 171.65 1471.5C171.39 1471.39 171.182 1471.18 171.063 1470.92C170.944 1470.66 170.923 1470.37 171.003 1470.09C173.126 1462.85 174.93 1459.48 174.247 1451.57C174.12 1450.1 176.722 1449.86 176.879 1451.33C177.428 1457.17 176.815 1466.26 173.138 1471.06Z" fill="url(#paint18_linear_3536_6599)"/>
<path fill-rule="evenodd" clip-rule="evenodd" d="M158.007 1467.16C157.668 1463.31 160.716 1445.17 161.328 1441.15C161.58 1439.48 164.021 1440.14 163.833 1441.75C163.358 1445.79 161.695 1463.81 160.377 1467.41C160.311 1467.69 160.142 1467.94 159.904 1468.11C159.666 1468.28 159.374 1468.36 159.083 1468.33C158.792 1468.3 158.522 1468.16 158.324 1467.95C158.126 1467.73 158.013 1467.45 158.007 1467.16Z" fill="url(#paint19_linear_3536_6599)"/>
<path fill-rule="evenodd" clip-rule="evenodd" d="M142.922 1311.65C142.836 1311.37 142.852 1311.06 142.967 1310.78C143.082 1310.5 143.289 1310.27 143.554 1310.13C143.819 1309.99 144.125 1309.94 144.42 1309.99C144.716 1310.05 144.983 1310.21 145.176 1310.44C149.616 1317.78 156.043 1334.32 154.818 1343.2C154.633 1344.54 152.498 1345.01 152.43 1343.52C151.685 1342.74 152.744 1329.21 142.922 1311.65Z" fill="url(#paint20_linear_3536_6599)"/>
<path fill-rule="evenodd" clip-rule="evenodd" d="M139.513 1350.16C140.521 1344.62 135.371 1332.85 132.654 1328.4C131.804 1327.01 129.89 1328.41 130.643 1329.73C136.719 1340.25 135.716 1346.38 137.193 1350.29C137.064 1350.99 139.121 1351.72 139.513 1350.16Z" fill="url(#paint21_linear_3536_6599)"/>
<path fill-rule="evenodd" clip-rule="evenodd" d="M80.4358 1212.15C80.2432 1211.86 80.1727 1211.5 80.2391 1211.16C80.3056 1210.81 80.5038 1210.51 80.7917 1210.31C81.0796 1210.11 81.4343 1210.03 81.7806 1210.08C82.1269 1210.14 82.4373 1210.33 82.6458 1210.61C86.3923 1216.01 96.141 1232.44 96.8382 1239.44C96.9692 1240.65 95.0623 1241.39 94.5762 1240.24C93.7736 1240.07 88.4907 1223.97 80.4358 1212.15Z" fill="url(#paint22_linear_3536_6599)"/>
<path fill-rule="evenodd" clip-rule="evenodd" d="M72.6992 1229.62C67.9185 1221.1 67.9127 1216.45 58.87 1209.64C58.6383 1209.42 58.4925 1209.13 58.4597 1208.81C58.427 1208.5 58.5095 1208.18 58.6919 1207.92C58.8743 1207.67 59.1443 1207.48 59.4517 1207.41C59.7592 1207.33 60.0833 1207.37 60.3638 1207.52C65.9154 1211.36 70.3273 1216.63 73.1344 1222.77C77.1746 1231.68 73.3709 1230.8 72.6992 1229.62Z" fill="url(#paint23_linear_3536_6599)"/>
<path fill-rule="evenodd" clip-rule="evenodd" d="M142.578 1556.03C141.923 1557.03 139.705 1556.62 140.382 1555.39C144.996 1546.01 148.629 1536.17 151.224 1526.04C151.644 1524.41 153.902 1525.46 153.564 1527.1C151.139 1537.18 147.442 1546.92 142.562 1556.07L142.578 1556.03Z" fill="url(#paint24_linear_3536_6599)"/>
<path d="M-146.586 1674.9C45.4748 1701.52 187.855 1533.42 72.0976 1364.37C-72.5987 1153.05 -343.411 1019.96 -33.6376 877.242C276.136 734.523 246.608 544.283 125.832 462.819C29.2118 397.648 -174.142 352.115 -263.741 337.495" stroke="url(#paint25_linear_3536_6599)" stroke-width="2" stroke-dasharray="14 14"/>
<g clip-path="url(#clip4_3536_6599)">
<path d="M166.188 591.155L157.523 580.83L154.645 586.605C154.136 587.627 153.235 588.4 152.14 588.756C151.044 589.111 149.844 589.02 148.804 588.501L119.38 573.841C118.34 573.323 117.544 572.42 117.168 571.331C116.792 570.243 116.867 569.057 117.375 568.036L130.805 541.083C131.313 540.062 132.215 539.288 133.31 538.933C134.406 538.577 135.606 538.669 136.646 539.187L166.07 553.847C167.11 554.365 167.906 555.268 168.282 556.357C168.658 557.445 168.583 558.631 168.074 559.652L165.197 565.428L178.658 566.127C179.012 566.162 179.354 566.283 179.653 566.478C179.952 566.673 180.2 566.937 180.373 567.247C180.547 567.556 180.643 567.902 180.652 568.254C180.661 568.605 180.583 568.953 180.424 569.266L169.757 590.674C169.603 590.989 169.373 591.261 169.087 591.466C168.801 591.671 168.467 591.802 168.115 591.85C167.764 591.897 167.404 591.859 167.068 591.738C166.732 591.616 166.43 591.416 166.188 591.155Z" stroke="url(#paint26_linear_3536_6599)" stroke-width="1.71429" stroke-linecap="round" stroke-linejoin="round"/>
</g>
<g clip-path="url(#clip5_3536_6599)">
<path d="M269.867 475.983L294.624 478.6" stroke="url(#paint27_linear_3536_6599)" stroke-width="1.71429" stroke-linecap="round" stroke-linejoin="round"/>
<path d="M236.902 504.35C231.59 507.375 229.194 509.314 228 514.452C226.87 519.321 229.055 524.696 232.875 527.728C238.187 531.943 245.308 529.258 249.595 524.864C254.241 520.102 259.371 505.459 260.323 499.048C261.403 491.768 260.69 484.975 257.72 478.234C255.683 473.611 252.535 468.082 247.807 465.822C243.522 463.775 238.623 463.851 237.163 469.094C235.373 475.518 237.726 482.211 240.462 487.966C244.091 495.597 249.002 502.116 256.305 506.4C260.142 508.651 268.121 512.378 273.512 508.219C278.65 504.255 275.528 492.658 276.99 491.826C278.451 490.995 282.524 504.8 289.218 504.108C291.084 503.916 293.785 502.584 293.785 502.584" stroke="url(#paint28_linear_3536_6599)" stroke-width="1.71429" stroke-linecap="round"/>
</g>
<g clip-path="url(#clip6_3536_6599)">
<path d="M301.587 442.081L288.027 440.648C284.817 440.309 282.49 437.432 282.829 434.222L284.262 420.662C284.601 417.452 287.478 415.125 290.688 415.464L304.249 416.897C307.459 417.236 309.786 420.113 309.446 423.323L308.013 436.884C307.674 440.094 304.797 442.421 301.587 442.081Z" stroke="url(#paint29_linear_3536_6599)" stroke-width="1.71429" stroke-linecap="round" stroke-linejoin="round"/>
<path d="M290.326 428.159L295.421 435.554L301.949 429.387" stroke="url(#paint30_linear_3536_6599)" stroke-width="1.71429" stroke-linecap="round" stroke-linejoin="round"/>
<path d="M295.422 435.553L296.855 421.992" stroke="url(#paint31_linear_3536_6599)" stroke-width="1.71429" stroke-linecap="round" stroke-linejoin="round"/>
</g>
<g clip-path="url(#clip7_3536_6599)">
<path d="M198.301 452.222L209.808 427.239" stroke="url(#paint32_linear_3536_6599)" stroke-width="1.71429" stroke-linecap="round" stroke-linejoin="round"/>
<path d="M205.004 425.027L214.613 429.453" stroke="url(#paint33_linear_3536_6599)" stroke-width="1.71429" stroke-linecap="round" stroke-linejoin="round"/>
<path d="M189.943 442.548L188.616 445.431C188.381 445.94 188.358 446.523 188.553 447.049C188.747 447.575 189.143 448.003 189.652 448.238L206.948 456.204C207.457 456.439 208.04 456.462 208.566 456.267C209.092 456.073 209.52 455.677 209.755 455.168L211.082 452.285" stroke="url(#paint34_linear_3536_6599)" stroke-width="1.71429" stroke-linecap="round" stroke-linejoin="round"/>
</g>
<defs>
<linearGradient id="paint0_linear_3536_6599" x1="26.412" y1="1164.15" x2="59.0128" y2="1172.27" gradientUnits="userSpaceOnUse">
<stop stop-color="#4C60E9"/>
<stop offset="1" stop-color="#7485FF"/>
</linearGradient>
<linearGradient id="paint1_linear_3536_6599" x1="13.4901" y1="1195.35" x2="19.6693" y2="1197.12" gradientUnits="userSpaceOnUse">
<stop stop-color="#4C60E9"/>
<stop offset="1" stop-color="#7485FF"/>
</linearGradient>
<linearGradient id="paint2_linear_3536_6599" x1="37.8646" y1="1181.47" x2="44.5316" y2="1182.64" gradientUnits="userSpaceOnUse">
<stop stop-color="#4C60E9"/>
<stop offset="1" stop-color="#7485FF"/>
</linearGradient>
<linearGradient id="paint3_linear_3536_6599" x1="93.4486" y1="1304.08" x2="93.8193" y2="1309.46" gradientUnits="userSpaceOnUse">
<stop stop-color="#4C60E9"/>
<stop offset="1" stop-color="#7485FF"/>
</linearGradient>
<linearGradient id="paint4_linear_3536_6599" x1="103.492" y1="1306.15" x2="104.235" y2="1306.24" gradientUnits="userSpaceOnUse">
<stop stop-color="#4C60E9"/>
<stop offset="1" stop-color="#7485FF"/>
</linearGradient>
<linearGradient id="paint5_linear_3536_6599" x1="99.9817" y1="1273.78" x2="120.077" y2="1278.36" gradientUnits="userSpaceOnUse">
<stop stop-color="#4C60E9"/>
<stop offset="1" stop-color="#7485FF"/>
</linearGradient>
<linearGradient id="paint6_linear_3536_6599" x1="98.0039" y1="1279.57" x2="114.332" y2="1283.29" gradientUnits="userSpaceOnUse">
<stop stop-color="#4C60E9"/>
<stop offset="1" stop-color="#7485FF"/>
</linearGradient>
<linearGradient id="paint7_linear_3536_6599" x1="126.152" y1="1258.27" x2="147.303" y2="1263.01" gradientUnits="userSpaceOnUse">
<stop stop-color="#4C60E9"/>
<stop offset="1" stop-color="#7485FF"/>
</linearGradient>
<linearGradient id="paint8_linear_3536_6599" x1="166.184" y1="1378" x2="186.655" y2="1392.99" gradientUnits="userSpaceOnUse">
<stop stop-color="#4C60E9"/>
<stop offset="1" stop-color="#7485FF"/>
</linearGradient>
<linearGradient id="paint9_linear_3536_6599" x1="182.657" y1="1373.12" x2="187.942" y2="1376.34" gradientUnits="userSpaceOnUse">
<stop stop-color="#4C60E9"/>
<stop offset="1" stop-color="#7485FF"/>
</linearGradient>
<linearGradient id="paint10_linear_3536_6599" x1="160.873" y1="1360.64" x2="175.389" y2="1377.13" gradientUnits="userSpaceOnUse">
<stop stop-color="#4C60E9"/>
<stop offset="1" stop-color="#7485FF"/>
</linearGradient>
<linearGradient id="paint11_linear_3536_6599" x1="170.684" y1="1413.96" x2="179.016" y2="1420.67" gradientUnits="userSpaceOnUse">
<stop stop-color="#4C60E9"/>
<stop offset="1" stop-color="#7485FF"/>
</linearGradient>
<linearGradient id="paint12_linear_3536_6599" x1="155.962" y1="1402" x2="157.168" y2="1405.32" gradientUnits="userSpaceOnUse">
<stop stop-color="#4C60E9"/>
<stop offset="1" stop-color="#7485FF"/>
</linearGradient>
<linearGradient id="paint13_linear_3536_6599" x1="162.134" y1="1391.22" x2="163.34" y2="1394.55" gradientUnits="userSpaceOnUse">
<stop stop-color="#4C60E9"/>
<stop offset="1" stop-color="#7485FF"/>
</linearGradient>
<linearGradient id="paint14_linear_3536_6599" x1="141.734" y1="1497.74" x2="146.725" y2="1498.69" gradientUnits="userSpaceOnUse">
<stop stop-color="#4C60E9"/>
<stop offset="1" stop-color="#7485FF"/>
</linearGradient>
<linearGradient id="paint15_linear_3536_6599" x1="151.521" y1="1490.35" x2="162.529" y2="1492.33" gradientUnits="userSpaceOnUse">
<stop stop-color="#4C60E9"/>
<stop offset="1" stop-color="#7485FF"/>
</linearGradient>
<linearGradient id="paint16_linear_3536_6599" x1="173.666" y1="1496.88" x2="175.698" y2="1497.14" gradientUnits="userSpaceOnUse">
<stop stop-color="#4C60E9"/>
<stop offset="1" stop-color="#7485FF"/>
</linearGradient>
<linearGradient id="paint17_linear_3536_6599" x1="167.298" y1="1501.85" x2="168.314" y2="1501.98" gradientUnits="userSpaceOnUse">
<stop stop-color="#4C60E9"/>
<stop offset="1" stop-color="#7485FF"/>
</linearGradient>
<linearGradient id="paint18_linear_3536_6599" x1="176.659" y1="1450.65" x2="181.642" y2="1453.21" gradientUnits="userSpaceOnUse">
<stop stop-color="#4C60E9"/>
<stop offset="1" stop-color="#7485FF"/>
</linearGradient>
<linearGradient id="paint19_linear_3536_6599" x1="164.269" y1="1440.88" x2="170.939" y2="1444.32" gradientUnits="userSpaceOnUse">
<stop stop-color="#4C60E9"/>
<stop offset="1" stop-color="#7485FF"/>
</linearGradient>
<linearGradient id="paint20_linear_3536_6599" x1="149.286" y1="1312.16" x2="164.681" y2="1321.47" gradientUnits="userSpaceOnUse">
<stop stop-color="#4C60E9"/>
<stop offset="1" stop-color="#7485FF"/>
</linearGradient>
<linearGradient id="paint21_linear_3536_6599" x1="135.162" y1="1329.29" x2="145.954" y2="1335.9" gradientUnits="userSpaceOnUse">
<stop stop-color="#4C60E9"/>
<stop offset="1" stop-color="#7485FF"/>
</linearGradient>
<linearGradient id="paint22_linear_3536_6599" x1="87.6921" y1="1214.62" x2="100.926" y2="1232.79" gradientUnits="userSpaceOnUse">
<stop stop-color="#4C60E9"/>
<stop offset="1" stop-color="#7485FF"/>
</linearGradient>
<linearGradient id="paint23_linear_3536_6599" x1="64.9548" y1="1211.09" x2="74.3864" y2="1226.92" gradientUnits="userSpaceOnUse">
<stop stop-color="#4C60E9"/>
<stop offset="1" stop-color="#7485FF"/>
</linearGradient>
<linearGradient id="paint24_linear_3536_6599" x1="152.849" y1="1525.42" x2="156.075" y2="1526.96" gradientUnits="userSpaceOnUse">
<stop stop-color="#4C60E9"/>
<stop offset="1" stop-color="#7485FF"/>
</linearGradient>
<linearGradient id="paint25_linear_3536_6599" x1="-138.666" y1="332.673" x2="217.267" y2="354.67" gradientUnits="userSpaceOnUse">
<stop stop-color="#4C60E9"/>
<stop offset="1" stop-color="#7485FF"/>
</linearGradient>
<linearGradient id="paint26_linear_3536_6599" x1="146.04" y1="543.867" x2="179.021" y2="569.495" gradientUnits="userSpaceOnUse">
<stop stop-color="#4C60E9"/>
<stop offset="1" stop-color="#7485FF"/>
</linearGradient>
<linearGradient id="paint27_linear_3536_6599" x1="276.436" y1="475.672" x2="277.381" y2="480.839" gradientUnits="userSpaceOnUse">
<stop stop-color="#4C60E9"/>
<stop offset="1" stop-color="#7485FF"/>
</linearGradient>
<linearGradient id="paint28_linear_3536_6599" x1="249.983" y1="465.278" x2="296.252" y2="476.533" gradientUnits="userSpaceOnUse">
<stop stop-color="#4C60E9"/>
<stop offset="1" stop-color="#7485FF"/>
</linearGradient>
<linearGradient id="paint29_linear_3536_6599" x1="291.452" y1="415.545" x2="309.67" y2="420.023" gradientUnits="userSpaceOnUse">
<stop stop-color="#4C60E9"/>
<stop offset="1" stop-color="#7485FF"/>
</linearGradient>
<linearGradient id="paint30_linear_3536_6599" x1="293.361" y1="428.48" x2="301.396" y2="431.279" gradientUnits="userSpaceOnUse">
<stop stop-color="#4C60E9"/>
<stop offset="1" stop-color="#7485FF"/>
</linearGradient>
<linearGradient id="paint31_linear_3536_6599" x1="297.115" y1="422.019" x2="297.857" y2="422.105" gradientUnits="userSpaceOnUse">
<stop stop-color="#4C60E9"/>
<stop offset="1" stop-color="#7485FF"/>
</linearGradient>
<linearGradient id="paint32_linear_3536_6599" x1="210.045" y1="427.348" x2="210.723" y2="427.665" gradientUnits="userSpaceOnUse">
<stop stop-color="#4C60E9"/>
<stop offset="1" stop-color="#7485FF"/>
</linearGradient>
<linearGradient id="paint33_linear_3536_6599" x1="207.931" y1="425.275" x2="208.71" y2="429.709" gradientUnits="userSpaceOnUse">
<stop stop-color="#4C60E9"/>
<stop offset="1" stop-color="#7485FF"/>
</linearGradient>
<linearGradient id="paint34_linear_3536_6599" x1="195.463" y1="445.091" x2="203.861" y2="457.417" gradientUnits="userSpaceOnUse">
<stop stop-color="#4C60E9"/>
<stop offset="1" stop-color="#7485FF"/>
</linearGradient>
<clipPath id="clip0_3536_6599">
<rect width="48.8634" height="47.727" fill="white" transform="matrix(0.994462 0.105093 0.105093 -0.994462 8.05859 1208.49)"/>
</clipPath>
<clipPath id="clip1_3536_6599">
<rect width="64.7724" height="63.636" fill="white" transform="matrix(0.994462 0.105093 0.105093 -0.994462 79.0352 1314.99)"/>
</clipPath>
<clipPath id="clip2_3536_6599">
<rect width="57.9542" height="57.9542" fill="white" transform="matrix(0.867853 0.496822 0.496822 -0.867853 124.277 1404.09)"/>
</clipPath>
<clipPath id="clip3_3536_6599">
<rect width="40.9089" height="42.0452" fill="white" transform="matrix(0.994462 0.105093 0.105093 -0.994462 135.812 1523.89)"/>
</clipPath>
<clipPath id="clip4_3536_6599">
<rect width="61.3633" height="60.2269" fill="white" transform="matrix(0.895058 0.445949 0.445949 -0.895058 108.699 580.535)"/>
</clipPath>
<clipPath id="clip5_3536_6599">
<rect width="69.3178" height="70.4541" fill="white" transform="matrix(0.994462 0.105093 0.105093 -0.994462 223.641 530.811)"/>
</clipPath>
<clipPath id="clip6_3536_6599">
<rect width="27.2726" height="27.2726" fill="white" transform="matrix(0.994462 0.105093 0.105093 -0.994462 281.145 440.9)"/>
</clipPath>
<clipPath id="clip7_3536_6599">
<rect width="29.6212" height="29.6212" fill="white" transform="matrix(0.908278 0.418368 0.418368 -0.908278 184.406 446.986)"/>
</clipPath>
</defs>
</svg>
