<svg width="40" height="40" viewBox="0 0 40 40" fill="none" xmlns="http://www.w3.org/2000/svg">
<g clip-path="url(#clip0_1272_4092)">
<path d="M20 0C8.97156 0 0 8.97156 0 20C0 31.0284 8.97156 40 20 40C31.0284 40 40 31.0284 40 20C40 8.97156 31.0284 0 20 0Z" fill="#21BA43"/>
<path d="M30.1365 15.7615L19.303 26.5946C18.978 26.9196 18.5514 27.0832 18.1248 27.0832C17.6981 27.0832 17.2715 26.9196 16.9465 26.5946L11.5299 21.178C10.8781 20.5265 10.8781 19.473 11.5299 18.8215C12.1815 18.1696 13.2346 18.1696 13.8865 18.8215L18.1248 23.0598L27.7799 13.4049C28.4315 12.7531 29.4846 12.7531 30.1365 13.4049C30.788 14.0565 30.788 15.1096 30.1365 15.7615Z" fill="#FAFAFA"/>
</g>
<defs>
<clipPath id="clip0_1272_4092">
<rect width="40" height="40" fill="white"/>
</clipPath>
</defs>
</svg>
