<svg width="40" height="40" viewBox="0 0 40 40" fill="none" xmlns="http://www.w3.org/2000/svg">
<g clip-path="url(#clip0_1272_4138)">
<path d="M20 0C8.97156 0 0 8.97156 0 20C0 31.0284 8.97156 40 20 40C31.0284 40 40 31.0284 40 20C40 8.97156 31.0284 0 20 0Z" fill="#F44336"/>
<path d="M27.3654 25.008C28.0169 25.6599 28.0169 26.713 27.3654 27.3649C27.0404 27.6899 26.6137 27.8532 26.1868 27.8532C25.7601 27.8532 25.3335 27.6899 25.0085 27.3649L20.0003 22.3563L14.992 27.3649C14.667 27.6899 14.2404 27.8532 13.8137 27.8532C13.3868 27.8532 12.9602 27.6899 12.6351 27.3649C11.9836 26.713 11.9836 25.6599 12.6351 25.008L17.6437 19.9998L12.6351 14.9915C11.9836 14.3397 11.9836 13.2865 12.6351 12.6347C13.287 11.9831 14.3402 11.9831 14.992 12.6347L20.0003 17.6432L25.0085 12.6347C25.6604 11.9831 26.7135 11.9831 27.3654 12.6347C28.0169 13.2865 28.0169 14.3397 27.3654 14.9915L22.3568 19.9998L27.3654 25.008Z" fill="#FAFAFA"/>
</g>
<defs>
<clipPath id="clip0_1272_4138">
<rect width="40" height="40" fill="white"/>
</clipPath>
</defs>
</svg>
