<svg width="17" height="17" viewBox="0 0 17 17" fill="none" xmlns="http://www.w3.org/2000/svg">
<g clip-path="url(#clip0_1272_3948)">
<path d="M16.8118 8.45267C16.8116 8.45249 16.8115 8.45227 16.8112 8.45208L13.5455 5.2048C13.3008 4.96153 12.9051 4.96244 12.6616 5.20692C12.4181 5.45137 12.419 5.84676 12.6637 6.09005L14.8563 8.27023H1.62012C1.27493 8.27023 0.995117 8.54981 0.995117 8.89471C0.995117 9.23961 1.27493 9.51919 1.62012 9.51919H14.8563L12.6637 11.6994C12.4191 11.9427 12.4181 12.3381 12.6616 12.5825C12.9051 12.827 13.3009 12.8279 13.5455 12.5846L16.8113 9.33734C16.8115 9.33715 16.8116 9.33694 16.8118 9.33675C17.0566 9.09264 17.0558 8.69597 16.8118 8.45267Z" fill="white"/>
</g>
<defs>
<clipPath id="clip0_1272_3948">
<rect width="16" height="15.9866" fill="white" transform="translate(0.995117 0.901367)"/>
</clipPath>
</defs>
</svg>
