<svg width="561" height="1419" viewBox="0 0 561 1419" fill="none" xmlns="http://www.w3.org/2000/svg">
<path d="M494.755 703.135C496.143 695.726 496.987 688.211 497.281 680.648C497.319 680.252 497.198 679.851 496.942 679.527C496.687 679.204 496.316 678.983 495.907 678.909C492.143 678.064 461.36 672.517 460.303 673.824C459.241 674.226 459.545 689.508 454.735 703.809C453.886 702.645 452.665 701.778 451.27 701.348C449.875 700.918 448.389 700.95 447.052 701.44C446.041 701.837 445.155 702.471 444.472 703.285C443.789 704.1 443.328 705.07 443.13 706.113C442.932 707.156 443.003 708.239 443.337 709.269C443.671 710.299 444.257 711.244 445.044 712.023C445.801 712.92 446.776 713.624 447.876 714.07C448.975 714.516 450.164 714.688 451.329 714.57C452.351 714.286 453.275 713.763 454.022 713.046C454.769 712.329 455.316 711.44 455.616 710.456C458.874 702.39 460.997 693.903 461.931 685.215L493.328 690.965C492.527 698.123 491.011 710.631 487.202 716.715C486.308 714.87 484.776 713.367 482.878 712.474C480.98 711.58 478.841 711.356 476.841 711.839C475.647 712.082 474.56 712.647 473.706 713.471C472.852 714.294 472.265 715.342 472.012 716.494C471.759 717.646 471.85 718.856 472.276 719.986C472.701 721.115 473.443 722.118 474.417 722.88C484.078 730.87 491.855 718.348 494.755 703.135ZM446.162 706.644C446.332 705.85 446.794 705.152 447.464 704.678C448.134 704.203 448.967 703.983 449.813 704.057C452.326 704.252 454.327 707.308 451.878 710.669C449.75 713.573 445.752 709.205 446.162 706.644ZM462.306 682.231L462.919 676.931C473.375 677.858 483.784 679.425 494.084 681.623C493.989 683.75 493.888 685.893 493.67 688.009C483.231 686.062 472.776 684.136 462.306 682.231ZM476.217 720.477C471.487 716.216 481.342 710.35 485.17 719.339C481.938 722.486 478.323 722.376 476.217 720.477ZM365.48 789.134C366.868 781.723 367.712 774.207 368.003 766.641C368.04 766.245 367.919 765.845 367.664 765.522C367.408 765.199 367.038 764.977 366.629 764.902C362.771 764.056 332.081 758.514 331.022 759.816C330.028 760.205 330.23 775.541 325.475 789.81C324.626 788.647 323.405 787.781 322.011 787.351C320.617 786.922 319.132 786.954 317.795 787.442C316.784 787.839 315.897 788.472 315.213 789.287C314.529 790.101 314.069 791.072 313.871 792.115C313.673 793.158 313.744 794.242 314.078 795.272C314.412 796.302 314.999 797.247 315.788 798.025C316.544 798.922 317.517 799.627 318.616 800.074C319.715 800.52 320.903 800.692 322.068 800.574C323.089 800.289 324.014 799.765 324.761 799.048C325.509 798.331 326.058 797.443 326.36 796.459C329.616 788.392 331.738 779.904 332.671 771.216L364.072 776.967C363.255 784.178 361.756 796.63 357.942 802.716C350.793 791 336.581 801.78 345.15 808.886C354.783 816.856 362.613 804.239 365.48 789.134ZM316.903 792.672C317.072 791.879 317.533 791.181 318.203 790.707C318.873 790.233 319.707 790.014 320.552 790.089C323.087 790.281 325.061 793.362 322.613 796.699C320.488 799.577 316.489 795.213 316.903 792.672ZM333.05 768.241L333.666 762.943C344.122 763.871 354.531 765.438 364.831 767.636C364.737 769.762 364.618 771.897 364.418 774.021C353.946 772.081 343.494 770.156 333.05 768.241ZM346.964 806.489C342.286 802.262 352.085 796.364 355.918 805.351C352.661 808.507 349.056 808.382 346.964 806.489ZM445.691 796.597C444.751 795.907 432.879 805.486 418.077 810.904C418.403 809.482 418.202 807.977 417.508 806.645C416.814 805.314 415.67 804.239 414.273 803.606C412.703 803.075 411.012 803.071 409.482 803.596C407.952 804.12 406.673 805.142 405.86 806.49C405.046 807.838 404.746 809.432 405.01 811.007C405.273 812.582 406.084 814.043 407.308 815.148C409.591 816.857 412.585 815.942 414.956 815.224C422.948 812.624 430.553 809.098 437.608 804.722C443.155 813.621 448.71 822.524 454.273 831.432C447.922 835.345 437.286 841.755 429.774 842.843C434.155 830.61 416.93 826.922 416.25 836.48C415.591 845.809 426.814 849.768 445.654 839.964C452.475 836.397 459.013 832.369 465.221 827.908C465.493 827.716 465.688 827.441 465.776 827.125C465.864 826.809 465.841 826.47 465.709 826.16C462.452 820.518 447.368 796.777 445.691 796.597ZM409.95 806.419C410.712 806.021 411.612 805.919 412.472 806.134C413.331 806.349 414.089 806.864 414.594 807.578C415.914 809.47 415.143 812.558 410.972 813.085C407.086 813.496 407.52 807.836 409.95 806.419ZM423.166 834.085C427.783 834.868 427.936 839.715 426.272 842.949C417.651 842.06 417.703 833.132 423.166 834.085ZM440.212 803.18C441.756 802.254 443.287 801.302 444.818 800.35C451.154 808.615 456.953 817.242 462.18 826.176C460.434 827.417 458.653 828.636 456.836 829.832C451.327 820.959 445.776 812.078 440.212 803.18ZM301.04 523.986C299.336 525.614 298.373 527.838 298.353 530.195C298.319 530.417 298.339 530.645 298.412 530.863C298.485 531.08 298.609 531.279 298.774 531.446C298.939 531.612 299.141 531.74 299.363 531.82C299.585 531.9 299.821 531.929 300.053 531.906C300.661 532.868 301.517 533.666 302.533 534.22C303.549 534.774 304.689 535.064 305.837 535.06C306.984 535.056 308.099 534.758 309.067 534.198C310.035 533.637 310.821 532.833 311.347 531.867C312.025 530.569 312.204 529.066 311.851 527.617C311.499 526.168 310.637 524.864 309.416 523.93C308.194 522.996 306.689 522.49 305.16 522.5C303.631 522.51 302.174 523.036 301.04 523.986ZM308.569 530.281C308.367 530.691 308.076 531.053 307.716 531.343C307.356 531.633 306.935 531.844 306.479 531.965C306.022 532.085 305.541 532.111 305.066 532.041C304.592 531.971 304.134 531.806 303.721 531.558C303.309 531.31 302.952 530.983 302.673 530.599C302.393 530.215 302.198 529.782 302.099 529.327C302.001 528.873 302 528.407 302.099 527.96C302.198 527.513 302.393 527.094 302.673 526.73C303.17 526.074 303.911 525.631 304.751 525.488C305.59 525.346 306.466 525.514 307.207 525.96C307.947 526.406 308.498 527.097 308.751 527.897C309.003 528.697 308.936 529.547 308.569 530.281ZM335.234 553.444C335.355 554.462 335.711 555.45 336.275 556.334C336.839 557.218 337.597 557.976 338.493 558.551C339.389 559.127 340.4 559.506 341.451 559.661C342.503 559.815 343.568 559.741 344.567 559.443C346.04 559.092 347.298 558.208 348.083 556.969C348.869 555.73 349.123 554.23 348.795 552.776C348.527 551.749 348.038 550.78 347.358 549.936C346.678 549.091 345.824 548.39 344.854 547.879C343.883 547.369 342.818 547.061 341.731 546.975C340.643 546.89 339.559 547.03 338.549 547.386C338.361 547.233 338.139 547.124 337.902 547.067C337.666 547.01 337.421 547.007 337.187 547.058C336.953 547.11 336.737 547.214 336.557 547.363C336.377 547.512 336.237 547.701 336.148 547.915C335.988 548.198 335.846 548.491 335.723 548.793C334.737 549.462 333.865 550.274 333.137 551.2C332.931 551.477 332.832 551.818 332.858 552.164C332.883 552.511 333.031 552.844 333.276 553.107C333.522 553.369 333.85 553.546 334.206 553.607C334.563 553.669 334.925 553.611 335.234 553.444ZM342.474 550.158L342.558 550.175C345.753 551.13 347.197 555.102 344.14 556.346C340.438 557.879 337.527 554.519 338.394 550.799C339.6 550.088 341.059 549.858 342.474 550.158Z" fill="url(#paint0_linear_3536_8653)"/>
<path d="M1116.21 1106.64C964.015 1183.79 671.608 1294.63 719.516 1120.81C779.402 903.539 966.631 715.237 667.996 685.193C369.361 655.148 339.45 488.393 416.618 386.019C478.353 304.12 634.524 207.996 704.893 170.171" stroke="url(#paint1_linear_3536_8653)" stroke-width="2" stroke-dasharray="14 14"/>
<path d="M440.645 426.146C440.386 425.855 440.253 425.48 440.276 425.105C440.299 424.73 440.476 424.385 440.769 424.145L452.203 414.774C452.495 414.534 452.879 414.42 453.269 414.457C453.659 414.494 454.024 414.678 454.283 414.969C454.543 415.26 454.675 415.635 454.652 416.01C454.629 416.385 454.452 416.731 454.16 416.97L442.681 426.377C442.387 426.599 442.01 426.699 441.631 426.656C441.251 426.613 440.898 426.43 440.645 426.146Z" fill="url(#paint2_linear_3536_8653)"/>
<path d="M457.607 412.169C456.443 410.857 455.855 409.18 455.957 407.512C456.06 405.846 456.843 404.326 458.121 403.274L477.209 387.63C478.491 386.584 480.177 386.081 481.907 386.245C483.64 386.409 485.274 387.23 486.44 388.539C487.604 389.846 488.194 391.52 488.091 393.185C487.989 394.848 487.206 396.365 485.928 397.413L466.808 413.083C465.527 414.119 463.846 414.616 462.123 414.451C460.398 414.286 458.771 413.47 457.607 412.169Z" stroke="url(#paint3_linear_3536_8653)" stroke-width="3"/>
<path d="M452.077 416.775C449.569 413.954 448.286 410.331 448.51 406.699C448.734 403.068 450.446 399.726 453.27 397.406L462.281 390.021C462.573 389.781 462.957 389.668 463.347 389.704C463.737 389.741 464.102 389.925 464.361 390.216C464.621 390.507 464.753 390.882 464.73 391.257C464.707 391.632 464.53 391.978 464.238 392.217L455.271 399.566C454.099 400.456 453.133 401.572 452.433 402.847C451.732 404.122 451.311 405.531 451.193 406.988C451.076 408.445 451.265 409.921 451.75 411.328C452.235 412.735 453.005 414.045 454.015 415.178C455.024 416.311 456.252 417.244 457.626 417.923C459 418.602 460.49 419.011 462.009 419.127C463.528 419.243 465.045 419.064 466.467 418.599C467.89 418.134 469.189 417.393 470.289 416.422L479.256 409.073C479.548 408.833 479.931 408.719 480.321 408.756C480.711 408.792 481.076 408.977 481.336 409.268C481.595 409.559 481.728 409.934 481.705 410.309C481.682 410.684 481.505 411.029 481.213 411.269L472.246 418.618C470.847 419.772 469.215 420.639 467.444 421.171C465.673 421.703 463.798 421.889 461.925 421.718C460.052 421.547 458.218 421.022 456.528 420.174C454.839 419.326 453.326 418.171 452.077 416.775Z" fill="url(#paint4_linear_3536_8653)"/>
<path d="M446.594 433.96L433.533 419.301C433.274 419.009 433.141 418.635 433.164 418.26C433.187 417.884 433.364 417.539 433.656 417.3C433.948 417.06 434.332 416.946 434.722 416.983C435.112 417.02 435.477 417.204 435.736 417.495L448.797 432.154C449.057 432.446 449.19 432.82 449.167 433.195C449.143 433.57 448.966 433.916 448.674 434.155C448.382 434.395 447.999 434.509 447.609 434.472C447.219 434.435 446.854 434.251 446.594 433.96Z" fill="url(#paint5_linear_3536_8653)"/>
<defs>
<linearGradient id="paint0_linear_3536_8653" x1="267.714" y1="778.274" x2="462.268" y2="830.212" gradientUnits="userSpaceOnUse">
<stop stop-color="#4C60E9"/>
<stop offset="1" stop-color="#7485FF"/>
</linearGradient>
<linearGradient id="paint1_linear_3536_8653" x1="649.41" y1="186.905" x2="313.873" y2="332.427" gradientUnits="userSpaceOnUse">
<stop stop-color="#4C60E9"/>
<stop offset="1" stop-color="#7485FF"/>
</linearGradient>
<linearGradient id="paint2_linear_3536_8653" x1="440.178" y1="425.621" x2="441.61" y2="427.29" gradientUnits="userSpaceOnUse">
<stop stop-color="#4C60E9"/>
<stop offset="1" stop-color="#7485FF"/>
</linearGradient>
<linearGradient id="paint3_linear_3536_8653" x1="453.883" y1="410.242" x2="462.011" y2="419.123" gradientUnits="userSpaceOnUse">
<stop stop-color="#4C60E9"/>
<stop offset="1" stop-color="#7485FF"/>
</linearGradient>
<linearGradient id="paint4_linear_3536_8653" x1="447.55" y1="411.693" x2="463.182" y2="425.962" gradientUnits="userSpaceOnUse">
<stop stop-color="#4C60E9"/>
<stop offset="1" stop-color="#7485FF"/>
</linearGradient>
<linearGradient id="paint5_linear_3536_8653" x1="436.476" y1="422.604" x2="448.156" y2="423.037" gradientUnits="userSpaceOnUse">
<stop stop-color="#4C60E9"/>
<stop offset="1" stop-color="#7485FF"/>
</linearGradient>
</defs>
</svg>
