<svg width="994" height="1367" viewBox="0 0 994 1367" fill="none" xmlns="http://www.w3.org/2000/svg">
<path d="M-647.265 -234.458C-477.519 -328.171 -149.887 -465.768 -197.331 -266.45C-256.636 -17.3019 -461.72 204.044 -121.371 226.2C218.978 248.357 259.626 436.534 176.091 555.887C109.263 651.369 -64.2423 766.788 -142.642 812.563" stroke="url(#paint0_linear_3536_8663)" stroke-width="2" stroke-dasharray="14 14"/>
<g clip-path="url(#clip0_3536_8663)">
<path d="M167.761 421.617L163.375 434.363L158.617 430.003C157.776 429.232 156.658 428.833 155.507 428.894C154.357 428.955 153.27 429.471 152.484 430.328L130.274 454.563C129.488 455.42 129.069 456.548 129.109 457.699C129.148 458.85 129.643 459.93 130.484 460.701L152.685 481.047C153.526 481.817 154.644 482.216 155.794 482.155C156.945 482.094 158.032 481.579 158.817 480.722L181.028 456.487C181.813 455.63 182.232 454.501 182.193 453.35C182.154 452.2 181.659 451.12 180.818 450.349L176.061 445.989L188.376 440.51C188.694 440.349 188.97 440.114 189.179 439.825C189.388 439.535 189.525 439.2 189.576 438.849C189.628 438.498 189.593 438.141 189.475 437.809C189.357 437.478 189.16 437.181 188.899 436.946L171.266 420.786C171.009 420.547 170.697 420.376 170.356 420.287C170.015 420.199 169.657 420.195 169.311 420.277C168.966 420.359 168.644 420.524 168.374 420.758C168.104 420.991 167.893 421.286 167.761 421.617Z" stroke="url(#paint1_linear_3536_8663)" stroke-width="1.71429" stroke-linecap="round" stroke-linejoin="round"/>
</g>
<g clip-path="url(#clip1_3536_8663)">
<path d="M305.844 491.956L328.016 480.637" stroke="url(#paint2_linear_3536_8663)" stroke-width="1.71429" stroke-linecap="round" stroke-linejoin="round"/>
<path d="M264.903 477.294C258.859 476.375 255.927 475.425 252.971 471.056C250.169 466.916 250.282 461.115 252.761 456.915C256.208 451.075 263.818 451.029 269.396 453.594C275.441 456.373 285.48 468.203 288.667 473.847C292.286 480.255 294.056 486.852 293.7 494.209C293.456 499.255 292.501 505.545 288.897 509.35C285.631 512.798 281.03 514.483 277.788 510.113C273.813 504.757 273.61 497.666 274.101 491.312C274.752 482.888 276.999 475.041 282.281 468.423C285.055 464.947 291.167 458.607 297.691 460.556C303.909 462.414 305.153 474.359 306.815 474.611C308.478 474.864 307.33 460.516 313.827 458.762C315.638 458.272 318.636 458.547 318.636 458.547" stroke="url(#paint3_linear_3536_8663)" stroke-width="1.71429" stroke-linecap="round"/>
</g>
<g clip-path="url(#clip2_3536_8663)">
<path d="M347.608 512.229L335.463 518.429C332.588 519.897 331.447 523.417 332.915 526.291L339.115 538.437C340.583 541.311 344.103 542.452 346.977 540.984L359.123 534.784C361.997 533.317 363.138 529.797 361.671 526.922L355.47 514.777C354.003 511.902 350.483 510.761 347.608 512.229Z" stroke="url(#paint4_linear_3536_8663)" stroke-width="1.71429" stroke-linecap="round" stroke-linejoin="round"/>
<path d="M342.088 529.264L344.193 520.534L352.499 523.949" stroke="url(#paint5_linear_3536_8663)" stroke-width="1.71429" stroke-linecap="round" stroke-linejoin="round"/>
<path d="M344.195 520.534L350.395 532.679" stroke="url(#paint6_linear_3536_8663)" stroke-width="1.71429" stroke-linecap="round" stroke-linejoin="round"/>
</g>
<g clip-path="url(#clip3_3536_8663)">
<path d="M247.555 539.797L267.255 558.992" stroke="url(#paint7_linear_3536_8663)" stroke-width="1.71429" stroke-linecap="round" stroke-linejoin="round"/>
<path d="M263.562 562.781L270.945 555.204" stroke="url(#paint8_linear_3536_8663)" stroke-width="1.71429" stroke-linecap="round" stroke-linejoin="round"/>
<path d="M243.222 551.823L240.949 549.608C240.547 549.217 240.317 548.681 240.31 548.12C240.303 547.559 240.519 547.018 240.91 546.616L254.199 532.978C254.591 532.576 255.126 532.346 255.687 532.339C256.248 532.332 256.789 532.547 257.191 532.939L259.464 535.154" stroke="url(#paint9_linear_3536_8663)" stroke-width="1.71429" stroke-linecap="round" stroke-linejoin="round"/>
</g>
<defs>
<linearGradient id="paint0_linear_3536_8663" x1="-80.3021" y1="791.336" x2="294.921" y2="612.633" gradientUnits="userSpaceOnUse">
<stop stop-color="#4C60E9"/>
<stop offset="1" stop-color="#7485FF"/>
</linearGradient>
<linearGradient id="paint1_linear_3536_8663" x1="165.908" y1="472.985" x2="187.508" y2="437.235" gradientUnits="userSpaceOnUse">
<stop stop-color="#4C60E9"/>
<stop offset="1" stop-color="#7485FF"/>
</linearGradient>
<linearGradient id="paint2_linear_3536_8663" x1="312.088" y1="489.891" x2="311.117" y2="484.729" gradientUnits="userSpaceOnUse">
<stop stop-color="#4C60E9"/>
<stop offset="1" stop-color="#7485FF"/>
</linearGradient>
<linearGradient id="paint3_linear_3536_8663" x1="291.124" y1="509.078" x2="330.28" y2="481.981" gradientUnits="userSpaceOnUse">
<stop stop-color="#4C60E9"/>
<stop offset="1" stop-color="#7485FF"/>
</linearGradient>
<linearGradient id="paint4_linear_3536_8663" x1="347.662" y1="540.635" x2="363.063" y2="529.923" gradientUnits="userSpaceOnUse">
<stop stop-color="#4C60E9"/>
<stop offset="1" stop-color="#7485FF"/>
</linearGradient>
<linearGradient id="paint5_linear_3536_8663" x1="344.807" y1="527.876" x2="351.304" y2="522.382" gradientUnits="userSpaceOnUse">
<stop stop-color="#4C60E9"/>
<stop offset="1" stop-color="#7485FF"/>
</linearGradient>
<linearGradient id="paint6_linear_3536_8663" x1="350.628" y1="532.56" x2="351.29" y2="532.214" gradientUnits="userSpaceOnUse">
<stop stop-color="#4C60E9"/>
<stop offset="1" stop-color="#7485FF"/>
</linearGradient>
<linearGradient id="paint7_linear_3536_8663" x1="267.437" y1="558.805" x2="267.956" y2="558.267" gradientUnits="userSpaceOnUse">
<stop stop-color="#4C60E9"/>
<stop offset="1" stop-color="#7485FF"/>
</linearGradient>
<linearGradient id="paint8_linear_3536_8663" x1="266.206" y1="561.5" x2="265.343" y2="557.082" gradientUnits="userSpaceOnUse">
<stop stop-color="#4C60E9"/>
<stop offset="1" stop-color="#7485FF"/>
</linearGradient>
<linearGradient id="paint9_linear_3536_8663" x1="247.463" y1="547.471" x2="250.883" y2="532.952" gradientUnits="userSpaceOnUse">
<stop stop-color="#4C60E9"/>
<stop offset="1" stop-color="#7485FF"/>
</linearGradient>
<clipPath id="clip0_3536_8663">
<rect width="61.3633" height="60.2269" fill="white" transform="translate(117.902 452.143) rotate(-47.4959)"/>
</clipPath>
<clipPath id="clip1_3536_8663">
<rect width="69.3178" height="70.4541" fill="white" transform="translate(243.035 457.348) rotate(-27.0443)"/>
</clipPath>
<clipPath id="clip2_3536_8663">
<rect width="27.2726" height="27.2726" fill="white" transform="translate(328.949 520.661) rotate(-27.0443)"/>
</clipPath>
<clipPath id="clip3_3536_8663">
<rect width="29.6212" height="29.6212" fill="white" transform="translate(236.461 549.666) rotate(-45.7434)"/>
</clipPath>
</defs>
</svg>
