<svg width="117" height="117" viewBox="0 0 117 117" fill="none" xmlns="http://www.w3.org/2000/svg">
<path d="M53.3604 2.69725C55.7557 2.58994 58.1428 3.04588 60.33 4.02846C69.0839 7.75027 80.7442 16.7621 80.7442 23.5087L65.16 28.0181L53.3604 2.69725Z" fill="url(#paint0_linear_1456_4494)"/>
<path d="M2.18848 114.01V3.51953C2.18848 3.23856 2.30009 2.9691 2.49876 2.77043C2.69744 2.57176 2.9669 2.46014 3.24787 2.46014H53.7292C53.7292 2.46014 59.0053 1.31711 64.6298 9.80618C66.7835 13.068 66.2119 19.9052 65.8077 22.9998C65.7917 23.1256 65.8125 23.2533 65.8676 23.3675C65.9227 23.4817 66.0098 23.5774 66.1183 23.6431C66.2267 23.7087 66.3519 23.7415 66.4787 23.7374C66.6054 23.7334 66.7282 23.6926 66.8322 23.6201C68.728 22.3307 72.5613 20.1701 77.0916 20.1701C77.8494 20.1322 78.6009 20.3251 79.2467 20.7233C79.8925 21.1216 80.4024 21.7063 80.7089 22.4004V113.606C80.7089 113.975 80.562 114.33 80.3006 114.591C80.0392 114.853 79.6846 115 79.3149 115H3.21302C2.94723 115 2.69177 114.897 2.50061 114.712C2.30944 114.527 2.19752 114.275 2.18848 114.01Z" fill="white" stroke="url(#paint1_linear_1456_4494)" stroke-miterlimit="10"/>
<path d="M13.5771 94.7947H51.2204" stroke="url(#paint2_linear_1456_4494)" stroke-width="1.5" stroke-miterlimit="10" stroke-linecap="round"/>
<path d="M13.5771 75.1401H51.2204" stroke="url(#paint3_linear_1456_4494)" stroke-width="1.5" stroke-miterlimit="10" stroke-linecap="round"/>
<path d="M13.5771 84.6677H59.3819" stroke="url(#paint4_linear_1456_4494)" stroke-width="1.5" stroke-miterlimit="10" stroke-linecap="round"/>
<path d="M13.5771 104.148H55.4022" stroke="url(#paint5_linear_1456_4494)" stroke-width="1.5" stroke-miterlimit="10" stroke-linecap="round"/>
<path d="M23.3066 61.87L38.1242 23.5367C38.1469 23.4776 38.1871 23.4267 38.2393 23.3908C38.2916 23.3549 38.3535 23.3357 38.4169 23.3357C38.4803 23.3357 38.5422 23.3549 38.5945 23.3908C38.6467 23.4267 38.6869 23.4776 38.7096 23.5367L55.1999 62.3578" stroke="#FE7624" stroke-width="1.5" stroke-miterlimit="10" stroke-linecap="round"/>
<path d="M30.7646 43.5327H47.1155" stroke="#FE7624" stroke-width="1.5" stroke-miterlimit="10" stroke-linecap="round"/>
<path d="M78.9177 83.5176L58.4756 66.9367L63.668 60.5386L84.0055 76.994L78.9177 83.5176Z" fill="#FFD9C1"/>
<path d="M42.2507 77.426C35.9889 78.0788 29.6741 76.8599 24.105 73.9236C18.536 70.9873 13.9627 66.4654 10.9637 60.9299C7.96464 55.3944 6.67449 49.0938 7.25639 42.825C7.8383 36.5562 10.2661 30.6008 14.2328 25.7118C18.1995 20.8229 23.527 17.2201 29.5413 15.359C35.5557 13.498 41.9869 13.4623 48.0216 15.2564C54.0563 17.0505 59.4234 20.5939 63.4442 25.4385C67.465 30.2831 69.9588 36.2112 70.6103 42.4731C71.4743 50.8669 68.9738 59.2606 63.6573 65.8132C58.3408 72.3657 50.6423 76.5421 42.2507 77.426ZM36.1174 18.5323C30.732 19.0974 25.635 21.2466 21.4709 24.708C17.3067 28.1694 14.2622 32.7877 12.7223 37.9791C11.1824 43.1705 11.2162 48.7019 12.8194 53.8741C14.4226 59.0463 17.5232 63.627 21.7294 67.0373C25.9355 70.4476 31.0583 72.5344 36.4502 73.0337C41.8421 73.5331 47.261 72.4227 52.0219 69.8429C56.7828 67.2631 60.672 63.3297 63.1978 58.5399C65.7236 53.7501 66.7727 48.319 66.2124 42.9331C65.4516 35.7089 61.8551 29.0819 56.2126 24.507C50.5701 19.9321 43.3428 17.7833 36.1174 18.5323Z" fill="url(#paint6_linear_1456_4494)"/>
<path d="M106.12 107.793C105.04 107.906 103.947 107.805 102.905 107.496C101.864 107.186 100.893 106.673 100.05 105.988L72.4848 83.6362C70.7833 82.2498 69.7022 80.2443 69.4793 78.0609C69.2565 75.8774 69.9101 73.6949 71.2965 71.9933C72.6828 70.2918 74.6883 69.2107 76.8718 68.9879C79.0552 68.765 81.2378 69.4187 82.9393 70.805L110.477 93.108C111.741 94.1399 112.673 95.5228 113.153 97.0828C113.634 98.6428 113.642 100.31 113.177 101.875C112.712 103.439 111.795 104.832 110.54 105.876C109.286 106.921 107.75 107.571 106.127 107.744L106.12 107.793Z" fill="#FE7624"/>
<path d="M50.7461 24.3242C55.9037 26.6521 60.19 33.1269 61.7512 37.1972C63.4767 41.602 63.6779 46.4577 62.3227 50.9902" stroke="url(#paint7_linear_1456_4494)" stroke-width="1.5" stroke-miterlimit="10" stroke-linecap="round"/>
<path d="M81.0928 73.0212L102.511 90.3688" stroke="white" stroke-width="1.5" stroke-miterlimit="10" stroke-linecap="round"/>
<defs>
<linearGradient id="paint0_linear_1456_4494" x1="60.5106" y1="28.0181" x2="80.5483" y2="25.0605" gradientUnits="userSpaceOnUse">
<stop stop-color="#4C60E9"/>
<stop offset="1" stop-color="#7485FF"/>
</linearGradient>
<linearGradient id="paint1_linear_1456_4494" x1="22.691" y1="115" x2="80.8712" y2="109.458" gradientUnits="userSpaceOnUse">
<stop stop-color="#4C60E9"/>
<stop offset="1" stop-color="#7485FF"/>
</linearGradient>
<linearGradient id="paint2_linear_1456_4494" x1="23.4062" y1="95.7947" x2="24.4324" y2="90.5194" gradientUnits="userSpaceOnUse">
<stop stop-color="#4C60E9"/>
<stop offset="1" stop-color="#7485FF"/>
</linearGradient>
<linearGradient id="paint3_linear_1456_4494" x1="23.4062" y1="76.1401" x2="24.4324" y2="70.8649" gradientUnits="userSpaceOnUse">
<stop stop-color="#4C60E9"/>
<stop offset="1" stop-color="#7485FF"/>
</linearGradient>
<linearGradient id="paint4_linear_1456_4494" x1="25.5373" y1="85.6677" x2="26.3907" y2="80.3293" gradientUnits="userSpaceOnUse">
<stop stop-color="#4C60E9"/>
<stop offset="1" stop-color="#7485FF"/>
</linearGradient>
<linearGradient id="paint5_linear_1456_4494" x1="24.4981" y1="105.148" x2="25.4281" y2="99.8359" gradientUnits="userSpaceOnUse">
<stop stop-color="#4C60E9"/>
<stop offset="1" stop-color="#7485FF"/>
</linearGradient>
<linearGradient id="paint6_linear_1456_4494" x1="23.7419" y1="77.5976" x2="70.466" y2="71.217" gradientUnits="userSpaceOnUse">
<stop stop-color="#4C60E9"/>
<stop offset="1" stop-color="#7485FF"/>
</linearGradient>
<linearGradient id="paint7_linear_1456_4494" x1="54.0007" y1="50.9902" x2="63.2821" y2="50.3977" gradientUnits="userSpaceOnUse">
<stop stop-color="#4C60E9"/>
<stop offset="1" stop-color="#7485FF"/>
</linearGradient>
</defs>
</svg>
