<svg width="160" height="160" viewBox="0 0 160 160" fill="none" xmlns="http://www.w3.org/2000/svg">
<path d="M93.4053 2.36377C95.81 2.26172 98.2054 2.72188 100.401 3.70767C109.227 7.45343 120.979 16.5462 120.979 23.3514L105.3 27.8978L93.4053 2.36377Z" fill="url(#paint0_linear_1456_4508)"/>
<path d="M42.2843 3.21211V3.21203C42.2843 3.13413 42.2998 3.05701 42.3299 2.98516C42.36 2.91332 42.4041 2.8482 42.4597 2.79359C42.5153 2.73899 42.5811 2.696 42.6535 2.66714C42.7259 2.63827 42.8032 2.62411 42.8811 2.62548L42.8811 2.62555H42.8899H93.7578H93.8118L93.8617 2.61464L93.8622 2.61454L93.8631 2.61434L93.8638 2.6142L93.8646 2.61403L93.8665 2.61371C93.8722 2.61264 93.8828 2.6107 93.8983 2.60823C93.9292 2.60329 93.9794 2.59622 94.0477 2.5896C94.1842 2.57635 94.3928 2.56493 94.6637 2.57599C95.2051 2.59809 95.9979 2.71001 96.9657 3.07886C98.8957 3.8144 101.565 5.58879 104.329 9.80541L104.331 9.80757C105.389 11.4036 105.773 13.9934 105.819 16.6265C105.865 19.2297 105.581 21.765 105.387 23.1747C105.359 23.3607 105.386 23.5509 105.465 23.7215C105.546 23.8937 105.675 24.0383 105.838 24.1367C106 24.2351 106.188 24.2829 106.378 24.274C106.567 24.2652 106.749 24.2007 106.901 24.0888C109.946 21.8849 113.579 20.6405 117.336 20.5154L117.342 20.515C117.991 20.4848 118.635 20.6461 119.193 20.9789C119.721 21.2938 120.15 21.7491 120.434 22.2932L120.431 22.3095V22.3507L120.431 114.594L120.431 114.598C120.432 114.676 120.417 114.753 120.388 114.825C120.358 114.897 120.315 114.963 120.259 115.018C120.204 115.073 120.139 115.117 120.067 115.146C119.995 115.175 119.917 115.19 119.84 115.19H119.835H42.8899V115.189L42.8761 115.19C42.7969 115.192 42.718 115.178 42.6445 115.148C42.571 115.119 42.5043 115.074 42.4487 115.018C42.3932 114.961 42.3498 114.894 42.3214 114.82C42.2931 114.746 42.2802 114.666 42.2838 114.587L41.7844 114.565H42.2843V3.21211Z" fill="white" stroke="url(#paint1_linear_1456_4508)"/>
<path d="M53.2695 45.2161H101.926" stroke="url(#paint2_linear_1456_4508)" stroke-width="1.5" stroke-miterlimit="10" stroke-linecap="round"/>
<path d="M53.2695 77.2026H91.2227" stroke="url(#paint3_linear_1456_4508)" stroke-width="1.5" stroke-miterlimit="10" stroke-linecap="round"/>
<path d="M53.2695 55.7861H107.178" stroke="url(#paint4_linear_1456_4508)" stroke-width="1.5" stroke-miterlimit="10" stroke-linecap="round"/>
<path d="M53.2695 66.3467H99.4577" stroke="url(#paint5_linear_1456_4508)" stroke-width="1.5" stroke-miterlimit="10" stroke-linecap="round"/>
<path d="M93.5 3.00002C93.5 3.00002 98.8858 1.23901 104.557 9.80755C106.854 13.2674 106.082 20.7494 105.691 23.5611C105.68 23.6474 105.695 23.7351 105.733 23.8132C105.772 23.8914 105.832 23.9567 105.907 24.0012C105.981 24.0457 106.068 24.0674 106.155 24.0637C106.242 24.06 106.326 24.0311 106.396 23.9804C109.518 21.6849 113.257 20.38 117.128 20.2347C117.891 20.1995 118.647 20.3942 119.298 20.7936C119.949 21.1929 119.686 21.804 120 22.5" stroke="url(#paint6_linear_1456_4508)" stroke-width="1.5" stroke-miterlimit="10" stroke-linecap="round"/>
<path d="M58.6455 34.3122L68.6247 8.48271C68.64 8.44335 68.6668 8.40955 68.7017 8.38571C68.7366 8.36187 68.7778 8.34912 68.8201 8.34912C68.8623 8.34912 68.9035 8.36187 68.9384 8.38571C68.9733 8.40955 69.0001 8.44335 69.0154 8.48271L80.1383 34.6458" stroke="#FE7624" stroke-width="1.5" stroke-miterlimit="10" stroke-linecap="round"/>
<path d="M63.6777 21.9695H74.6863" stroke="#FE7624" stroke-width="1.5" stroke-miterlimit="10" stroke-linecap="round"/>
<path d="M92.4524 94.578L92.338 122.952H101.431C101.498 122.952 101.564 122.972 101.62 123.009C101.677 123.046 101.721 123.099 101.747 123.161C101.774 123.223 101.781 123.291 101.769 123.358C101.757 123.424 101.725 123.485 101.679 123.534L82.721 143.654C82.5982 143.783 82.4503 143.886 82.2865 143.956C82.1226 144.027 81.9462 144.063 81.7679 144.063C81.5896 144.063 81.4132 144.027 81.2493 143.956C81.0855 143.886 80.9376 143.783 80.8148 143.654L61.8859 123.553C61.834 123.502 61.7989 123.436 61.785 123.364C61.7711 123.293 61.779 123.219 61.8079 123.152C61.8367 123.085 61.885 123.028 61.9465 122.989C62.0081 122.95 62.0799 122.931 62.1527 122.933H71.1883L71.0549 94.5304C71.0536 94.3606 71.0859 94.1923 71.15 94.035C71.2141 93.8778 71.3087 93.7349 71.4283 93.6144C71.5479 93.4939 71.6902 93.3982 71.8469 93.333C72.0037 93.2677 72.1718 93.2341 72.3416 93.2341H91.1657C91.3388 93.2366 91.5097 93.2734 91.6684 93.3426C91.8272 93.4117 91.9706 93.5117 92.0903 93.6367C92.2101 93.7618 92.3037 93.9094 92.3659 94.071C92.428 94.2326 92.4574 94.405 92.4524 94.578V94.578Z" fill="white" stroke="#FE7624" stroke-miterlimit="10"/>
<path d="M69.9971 126.698L81.7681 138.602" stroke="#FE7624" stroke-width="1.5" stroke-miterlimit="10" stroke-linecap="round"/>
<path d="M93.5291 126.698L81.7676 138.602" stroke="#FE7624" stroke-width="1.5" stroke-miterlimit="10" stroke-linecap="round"/>
<path d="M103.937 149.649H59.5887C59.2992 149.649 59.0645 149.884 59.0645 150.173V155.568C59.0645 155.858 59.2992 156.092 59.5887 156.092H103.937C104.227 156.092 104.461 155.858 104.461 155.568V150.173C104.461 149.884 104.227 149.649 103.937 149.649Z" fill="#FFD9C1"/>
<defs>
<linearGradient id="paint0_linear_1456_4508" x1="100.605" y1="27.8978" x2="120.783" y2="24.9237" gradientUnits="userSpaceOnUse">
<stop stop-color="#4C60E9"/>
<stop offset="1" stop-color="#7485FF"/>
</linearGradient>
<linearGradient id="paint1_linear_1456_4508" x1="62.4516" y1="115.69" x2="121.103" y2="110.11" gradientUnits="userSpaceOnUse">
<stop stop-color="#4C60E9"/>
<stop offset="1" stop-color="#7485FF"/>
</linearGradient>
<linearGradient id="paint2_linear_1456_4508" x1="65.9743" y1="46.2161" x2="66.78" y2="40.8625" gradientUnits="userSpaceOnUse">
<stop stop-color="#4C60E9"/>
<stop offset="1" stop-color="#7485FF"/>
</linearGradient>
<linearGradient id="paint3_linear_1456_4508" x1="63.1795" y1="78.2026" x2="64.1979" y2="72.9243" gradientUnits="userSpaceOnUse">
<stop stop-color="#4C60E9"/>
<stop offset="1" stop-color="#7485FF"/>
</linearGradient>
<linearGradient id="paint4_linear_1456_4508" x1="67.3456" y1="56.7861" x2="68.0758" y2="51.4105" gradientUnits="userSpaceOnUse">
<stop stop-color="#4C60E9"/>
<stop offset="1" stop-color="#7485FF"/>
</linearGradient>
<linearGradient id="paint5_linear_1456_4508" x1="65.3298" y1="67.3467" x2="66.1764" y2="62.0061" gradientUnits="userSpaceOnUse">
<stop stop-color="#4C60E9"/>
<stop offset="1" stop-color="#7485FF"/>
</linearGradient>
<linearGradient id="paint6_linear_1456_4508" x1="100.419" y1="24.0641" x2="119.673" y2="20.7796" gradientUnits="userSpaceOnUse">
<stop stop-color="#4C60E9"/>
<stop offset="1" stop-color="#7485FF"/>
</linearGradient>
</defs>
</svg>
