<svg width="186" height="186" viewBox="0 0 186 186" fill="none" xmlns="http://www.w3.org/2000/svg">
<path d="M53.915 43.9988C56.3298 43.8984 58.7347 44.3612 60.9398 45.3506C69.8702 49.151 81.748 58.3474 81.748 65.2281L65.9479 69.8041L53.915 43.9988Z" fill="#FFD9C1"/>
<path d="M3.37896 155.596V44.7632C3.37888 44.7151 3.3972 44.6688 3.43016 44.6338C3.46312 44.5988 3.50823 44.5777 3.55624 44.5749H54.2916C54.2916 44.5749 59.4992 43.4669 65.0613 51.8433C67.51 55.533 66.402 63.8651 66.0807 65.926C66.0742 65.9608 66.0781 65.9967 66.0922 66.0291C66.1062 66.0616 66.1296 66.0891 66.1594 66.1082C66.1891 66.1272 66.2239 66.137 66.2593 66.1361C66.2946 66.1352 66.3289 66.1238 66.3577 66.1033C69.5123 63.6367 73.3594 62.2188 77.3602 62.048C78.1014 62.0245 78.8327 62.2228 79.4605 62.6176C80.0883 63.0124 80.5838 63.5857 80.8836 64.264C80.8836 64.264 80.8836 64.264 80.8836 64.3194V155.63C80.8809 155.679 80.8602 155.725 80.8255 155.76C80.7907 155.795 80.7443 155.815 80.6952 155.818H3.55624C3.52939 155.817 3.50309 155.81 3.47911 155.798C3.45514 155.786 3.43405 155.769 3.41725 155.748C3.40046 155.727 3.38835 155.702 3.38175 155.676C3.37514 155.65 3.3742 155.623 3.37896 155.596Z" fill="white" stroke="#FE7624" stroke-miterlimit="10"/>
<path d="M156.815 87.9973C156.815 87.9973 168.527 90.9446 168.527 102.601C168.527 113.559 156.838 116.65 156.838 116.65L156.815 87.9973Z" fill="white" stroke="url(#paint0_linear_1456_4475)" stroke-width="1.5" stroke-miterlimit="10"/>
<path d="M168.526 87.9641C168.526 87.9641 175.562 93.349 175.562 102.302C175.562 112.839 169.468 118.368 169.468 118.368" stroke="url(#paint1_linear_1456_4475)" stroke-width="1.5" stroke-miterlimit="10" stroke-linecap="round"/>
<path d="M173.369 83.2219C173.369 83.2219 182.665 90.3131 182.665 102.058C182.665 115.919 174.61 123.187 174.61 123.187" stroke="url(#paint2_linear_1456_4475)" stroke-width="1.5" stroke-miterlimit="10" stroke-linecap="round"/>
<path d="M126.079 89.4268H131.209C131.686 89.4252 132.159 89.5188 132.6 89.702C133.04 89.8852 133.44 90.1544 133.775 90.4938C134.11 90.8332 134.374 91.236 134.552 91.6787C134.73 92.1214 134.818 92.5951 134.81 93.0721V114.523H122.035V93.471C122.034 92.9395 122.137 92.4129 122.34 91.9216C122.543 91.4303 122.841 90.9839 123.216 90.608C123.592 90.2322 124.039 89.9344 124.53 89.7316C125.021 89.5289 125.548 89.4253 126.079 89.4268Z" fill="url(#paint3_linear_1456_4475)"/>
<path d="M133.714 90.025L156.982 77.1833C157.089 77.1262 157.21 77.0978 157.332 77.1008C157.453 77.1038 157.572 77.1381 157.677 77.2005C157.782 77.2628 157.869 77.3511 157.929 77.4568C157.99 77.5625 158.022 77.682 158.023 77.8038V126.312C158.022 126.466 157.98 126.616 157.903 126.749C157.825 126.882 157.714 126.992 157.581 127.069C157.448 127.147 157.298 127.188 157.144 127.189C156.99 127.19 156.839 127.152 156.705 127.077L133.592 113.781L133.714 90.025Z" fill="url(#paint4_linear_1456_4475)"/>
<path d="M133.636 90.5569C133.351 91.384 133.205 92.2526 133.204 93.1274C132.994 99.1217 132.905 112.905 133.636 113.337" stroke="white" stroke-width="1.5" stroke-miterlimit="10" stroke-linecap="round"/>
<path d="M14.626 86.7896H62.2921" stroke="#FE7624" stroke-width="1.5" stroke-miterlimit="10" stroke-linecap="round"/>
<path d="M14.626 118.124H51.8105" stroke="#FE7624" stroke-width="1.5" stroke-miterlimit="10" stroke-linecap="round"/>
<path d="M14.626 97.1384H67.4222" stroke="#FE7624" stroke-width="1.5" stroke-miterlimit="10" stroke-linecap="round"/>
<path d="M14.626 107.487H59.8656" stroke="#FE7624" stroke-width="1.5" stroke-miterlimit="10" stroke-linecap="round"/>
<path d="M85.1611 100.629C85.1611 100.629 90.3355 89.8034 107.166 90.856C122.844 91.7978 126.456 102.49 126.456 102.49" stroke="#E5772F" stroke-width="1.5" stroke-miterlimit="10" stroke-linecap="round"/>
<path d="M112.03 108.783C112.03 108.783 107.243 119.786 90.3903 119.387C74.69 118.999 70.7012 108.44 70.7012 108.44" stroke="url(#paint5_linear_1456_4475)" stroke-width="1.5" stroke-miterlimit="10" stroke-linecap="round"/>
<path d="M117.304 101.05L126.456 103.266C126.582 103.299 126.714 103.303 126.842 103.279C126.97 103.255 127.092 103.203 127.197 103.127C127.303 103.051 127.391 102.952 127.454 102.838C127.518 102.725 127.555 102.598 127.564 102.468L128.35 93.2161" stroke="#E5772F" stroke-width="1.5" stroke-miterlimit="10" stroke-linecap="round"/>
<path d="M79.4548 110.8L70.7016 107.299C70.5806 107.251 70.4507 107.229 70.3207 107.236C70.1907 107.242 70.0636 107.277 69.948 107.336C69.8325 107.396 69.7311 107.48 69.6508 107.583C69.5706 107.685 69.5132 107.804 69.4828 107.93L67.4219 116.983" stroke="url(#paint6_linear_1456_4475)" stroke-width="1.5" stroke-miterlimit="10" stroke-linecap="round"/>
<path d="M19.9443 76.1196L29.7169 50.8129C29.733 50.7748 29.76 50.7422 29.7945 50.7194C29.829 50.6965 29.8694 50.6843 29.9108 50.6843C29.9522 50.6843 29.9926 50.6965 30.0271 50.7194C30.0616 50.7422 30.0886 50.7748 30.1047 50.8129L40.9963 76.452" stroke="#FE7624" stroke-width="1.5" stroke-miterlimit="10" stroke-linecap="round"/>
<path d="M24.8193 64.0203H35.6002" stroke="#FE7624" stroke-width="1.5" stroke-miterlimit="10" stroke-linecap="round"/>
<defs>
<linearGradient id="paint0_linear_1456_4475" x1="159.873" y1="116.65" x2="168.603" y2="116.163" gradientUnits="userSpaceOnUse">
<stop stop-color="#4C60E9"/>
<stop offset="1" stop-color="#7485FF"/>
</linearGradient>
<linearGradient id="paint1_linear_1456_4475" x1="170.363" y1="118.368" x2="175.619" y2="118.202" gradientUnits="userSpaceOnUse">
<stop stop-color="#4C60E9"/>
<stop offset="1" stop-color="#7485FF"/>
</linearGradient>
<linearGradient id="paint2_linear_1456_4475" x1="175.796" y1="123.187" x2="182.74" y2="122.967" gradientUnits="userSpaceOnUse">
<stop stop-color="#4C60E9"/>
<stop offset="1" stop-color="#7485FF"/>
</linearGradient>
<linearGradient id="paint3_linear_1456_4475" x1="125.371" y1="114.523" x2="134.877" y2="113.862" gradientUnits="userSpaceOnUse">
<stop stop-color="#4C60E9"/>
<stop offset="1" stop-color="#7485FF"/>
</linearGradient>
<linearGradient id="paint4_linear_1456_4475" x1="139.971" y1="127.189" x2="158.157" y2="125.978" gradientUnits="userSpaceOnUse">
<stop stop-color="#4C60E9"/>
<stop offset="1" stop-color="#7485FF"/>
</linearGradient>
<linearGradient id="paint5_linear_1456_4475" x1="81.4925" y1="119.398" x2="105.914" y2="106.819" gradientUnits="userSpaceOnUse">
<stop stop-color="#4C60E9"/>
<stop offset="1" stop-color="#7485FF"/>
</linearGradient>
<linearGradient id="paint6_linear_1456_4475" x1="70.5638" y1="116.983" x2="79.3119" y2="115.508" gradientUnits="userSpaceOnUse">
<stop stop-color="#4C60E9"/>
<stop offset="1" stop-color="#7485FF"/>
</linearGradient>
</defs>
</svg>
