<svg width="174" height="174" viewBox="0 0 174 174" fill="none" xmlns="http://www.w3.org/2000/svg">
<path d="M3.47237 142.179L155.56 142.718C155.694 142.721 155.824 142.672 155.923 142.581C156.021 142.49 156.081 142.365 156.089 142.231C156.514 137.515 158.587 100.2 118.163 95.6706C118.041 95.6571 117.927 95.6026 117.841 95.5159C117.754 95.4292 117.7 95.3156 117.686 95.1938C117.396 92.0013 114.577 72.0069 89.8349 79.7808C89.7208 79.8193 89.5969 79.8177 89.4838 79.7762C89.3707 79.7348 89.2752 79.6559 89.213 79.5527C87.3887 76.3706 73.5201 53.8989 49.2553 65.1348C27.7579 75.1372 32.8058 95.3596 34.0392 99.288C34.0634 99.3664 34.0689 99.4494 34.0554 99.5304C34.042 99.6114 34.0098 99.6881 33.9615 99.7544C33.9132 99.8208 33.8502 99.8751 33.7773 99.9128C33.7044 99.9506 33.6238 99.9709 33.5417 99.9721C30.7224 100.034 20.1188 101.009 9.60854 111.529C-0.41457 121.542 2.35293 138.841 2.95411 141.754C2.97807 141.874 3.04279 141.982 3.13728 142.059C3.23177 142.137 3.35017 142.179 3.47237 142.179Z" fill="url(#paint0_linear_1456_4461)"/>
<path d="M147.051 30.2247C149.21 30.1336 151.362 30.5489 153.332 31.4375C161.272 34.7958 171.834 42.9739 171.834 49.0582L157.748 53.1421L147.051 30.2247Z" fill="#FFD9C1"/>
<path d="M100.688 131.637V30.3906C100.69 30.2897 100.731 30.1937 100.803 30.1223C100.874 30.0509 100.97 30.0097 101.071 30.0071H147.393C147.393 30.0071 152.161 28.9706 157.261 36.6719C159.334 39.7814 158.618 46.6121 158.297 49.1101C158.287 49.1828 158.298 49.257 158.33 49.3232C158.362 49.3895 158.412 49.4449 158.475 49.4825C158.539 49.5201 158.611 49.5383 158.685 49.5348C158.758 49.5312 158.829 49.5061 158.888 49.4625C161.703 47.3801 165.08 46.1952 168.579 46.0627C169.252 46.0306 169.92 46.1973 170.498 46.542C171.077 46.8866 171.542 47.3941 171.834 48.001C171.844 48.0524 171.844 48.1051 171.834 48.1565V131.637C171.831 131.737 171.79 131.832 171.718 131.902C171.646 131.972 171.55 132.011 171.45 132.011H101.071C100.971 132.011 100.875 131.972 100.803 131.902C100.732 131.832 100.69 131.737 100.688 131.637Z" fill="white" stroke="#FE7624" stroke-miterlimit="10"/>
<path d="M53.8984 102.522C53.8984 102.522 58.6457 92.5816 74.0794 93.5041C88.4559 94.3747 91.7727 104.18 91.7727 104.18" stroke="white" stroke-width="1.5" stroke-miterlimit="10" stroke-linecap="round"/>
<path d="M78.5675 109.995C78.5675 109.995 74.183 120.091 58.7182 119.718C44.321 119.365 40.6621 109.674 40.6621 109.674" stroke="white" stroke-width="1.5" stroke-miterlimit="10" stroke-linecap="round"/>
<path d="M83.4082 102.905L91.804 104.978C91.9205 105.011 92.0428 105.017 92.1621 104.997C92.2813 104.976 92.3946 104.93 92.4937 104.86C92.5928 104.791 92.6753 104.701 92.7353 104.595C92.7952 104.49 92.8312 104.373 92.8405 104.253L93.5557 95.7637" stroke="white" stroke-width="1.5" stroke-miterlimit="10" stroke-linecap="round"/>
<path d="M48.716 111.819L40.683 108.617C40.5734 108.571 40.4551 108.551 40.3367 108.557C40.2183 108.562 40.1025 108.594 39.9977 108.649C39.8928 108.705 39.8015 108.782 39.73 108.877C39.6586 108.972 39.6088 109.081 39.5843 109.197L37.6875 117.489" stroke="white" stroke-width="1.5" stroke-miterlimit="10" stroke-linecap="round"/>
<path d="M112.109 76.4016H155.84" stroke="#FE7624" stroke-width="1.5" stroke-miterlimit="10" stroke-linecap="round"/>
<path d="M112.109 105.144H146.221" stroke="#FE7624" stroke-width="1.5" stroke-miterlimit="10" stroke-linecap="round"/>
<path d="M112.109 85.896H160.546" stroke="#FE7624" stroke-width="1.5" stroke-miterlimit="10" stroke-linecap="round"/>
<path d="M112.109 95.3906H153.611" stroke="#FE7624" stroke-width="1.5" stroke-miterlimit="10" stroke-linecap="round"/>
<path d="M116.95 66.6066L125.916 43.399C125.931 43.3634 125.956 43.333 125.989 43.3116C126.021 43.2902 126.059 43.2788 126.097 43.2788C126.136 43.2788 126.174 43.2902 126.206 43.3116C126.239 43.333 126.264 43.3634 126.279 43.399L136.25 66.9176" stroke="#FE7624" stroke-width="1.5" stroke-miterlimit="10" stroke-linecap="round"/>
<path d="M121.47 55.5159H131.358" stroke="#FE7624" stroke-width="1.5" stroke-miterlimit="10" stroke-linecap="round"/>
<defs>
<linearGradient id="paint0_linear_1456_4461" x1="42.3851" y1="142.718" x2="150.263" y2="114.589" gradientUnits="userSpaceOnUse">
<stop stop-color="#4C60E9"/>
<stop offset="1" stop-color="#7485FF"/>
</linearGradient>
</defs>
</svg>
