<svg width="150" height="150" viewBox="0 0 150 150" fill="none" xmlns="http://www.w3.org/2000/svg">
<circle cx="75" cy="75" r="75" fill="white"/>
<g clip-path="url(#clip0_3612_4965)">
<path d="M75 140C110.899 140 140 110.899 140 75C140 39.1015 110.899 10 75 10C39.1015 10 10 39.1015 10 75C10 110.899 39.1015 140 75 140Z" fill="#F0F0F0"/>
<path d="M99.473 60.8701H83.1562L74.9982 46.7397L66.8405 60.8701H50.5234L58.6825 75.0005L50.5234 89.1309H66.8405L74.9982 103.261L83.1562 89.1309H99.473L91.314 75.0005L99.473 60.8701ZM85.0212 75.0005L80.0101 83.6811H69.9871L64.9753 75.0005L69.9869 66.32H80.0098L85.0212 75.0005ZM74.9982 57.6392L76.8634 60.8699H73.1335L74.9982 57.6392ZM59.9634 66.32H63.6938L61.8286 69.5507L59.9634 66.32ZM59.9634 83.6811L61.8289 80.4504L63.6941 83.6811H59.9634ZM74.9982 92.3616L73.1333 89.1309H76.8634L74.9982 92.3616ZM90.033 83.6811H86.3026L88.1681 80.4504L90.033 83.6811ZM86.3026 66.32H90.033L88.1678 69.5507L86.3026 66.32Z" fill="#0052B4"/>
<path d="M115.461 24.1309H34.537C28.605 28.8555 23.5178 34.5943 19.5391 41.0875H130.459C126.48 34.5946 121.392 28.8555 115.461 24.1309Z" fill="#0052B4"/>
<path d="M34.5371 125.87H115.46C121.392 121.146 126.48 115.407 130.458 108.914H19.5391C23.518 115.406 28.6053 121.146 34.5371 125.87Z" fill="#0052B4"/>
</g>
<defs>
<clipPath id="clip0_3612_4965">
<rect width="130" height="130" fill="white" transform="translate(10 10)"/>
</clipPath>
</defs>
</svg>
