<svg width="150" height="150" viewBox="0 0 150 150" fill="none" xmlns="http://www.w3.org/2000/svg">
<circle cx="75" cy="75" r="75" fill="white"/>
<g clip-path="url(#clip0_3612_4956)">
<path d="M75 140C110.899 140 140 110.899 140 75C140 39.1015 110.899 10 75 10C39.1015 10 10 39.1015 10 75C10 110.899 39.1015 140 75 140Z" fill="#F0F0F0"/>
<path d="M74.9991 103.26C90.6071 103.26 103.26 90.6075 103.26 74.9995C103.26 59.3916 90.6071 46.7388 74.9991 46.7388C59.3911 46.7388 46.7383 59.3916 46.7383 74.9995C46.7383 90.6075 59.3911 103.26 74.9991 103.26Z" fill="#D80027"/>
</g>
<defs>
<clipPath id="clip0_3612_4956">
<rect width="130" height="130" fill="white" transform="translate(10 10)"/>
</clipPath>
</defs>
</svg>
