<svg width="150" height="150" viewBox="0 0 150 150" fill="none" xmlns="http://www.w3.org/2000/svg">
<circle cx="75" cy="75" r="75" fill="white"/>
<g clip-path="url(#clip0_3536_7248)">
<path d="M75 140C110.899 140 140 110.899 140 75C140 39.1015 110.899 10 75 10C39.1015 10 10 39.1015 10 75C10 110.899 39.1015 140 75 140Z" fill="#F0F0F0"/>
<path d="M74.9995 10C49.2295 10 26.963 24.997 16.4492 46.7392H133.55C123.036 24.997 100.769 10 74.9995 10Z" fill="#FF9811"/>
<path d="M74.9995 140C100.769 140 123.036 125.003 133.55 103.261H16.4492C26.963 125.003 49.2295 140 74.9995 140Z" fill="#6DA544"/>
<path d="M74.9992 97.6083C87.4856 97.6083 97.6078 87.4861 97.6078 74.9997C97.6078 62.5133 87.4856 52.3911 74.9992 52.3911C62.5128 52.3911 52.3906 62.5133 52.3906 74.9997C52.3906 87.4861 62.5128 97.6083 74.9992 97.6083Z" fill="#0052B4"/>
<path d="M75.0015 89.1304C82.8055 89.1304 89.1319 82.804 89.1319 75C89.1319 67.196 82.8055 60.8696 75.0015 60.8696C67.1975 60.8696 60.8711 67.196 60.8711 75C60.8711 82.804 67.1975 89.1304 75.0015 89.1304Z" fill="#F0F0F0"/>
<path d="M74.999 57.5635L79.3583 67.4501L90.0996 66.2819L83.7174 75.0002L90.0996 83.7186L79.3583 82.5504L74.999 92.437L70.6397 82.5504L59.8984 83.7184L66.2806 75.0002L59.8984 66.2819L70.6397 67.4501L74.999 57.5635Z" fill="#0052B4"/>
</g>
<defs>
<clipPath id="clip0_3536_7248">
<rect width="130" height="130" fill="white" transform="translate(10 10)"/>
</clipPath>
</defs>
</svg>
