<svg width="989" height="2215" viewBox="0 0 989 2215" fill="none" xmlns="http://www.w3.org/2000/svg">
<path d="M-561.093 1550.33C-680.655 1397.69 -606.922 1190.1 -402.59 1205.18C-147.176 1224.03 104.018 1391.23 71.663 1051.7C39.3084 712.167 218.606 642.055 349.743 705.507" stroke="white" stroke-width="2" stroke-dasharray="14 14"/>
<g clip-path="url(#clip0_3536_9031)">
<path d="M218.508 735.132L231.79 737.432L228.244 742.823C227.617 743.776 227.401 744.944 227.645 746.07C227.888 747.196 228.571 748.187 229.542 748.826L257.006 766.891C257.977 767.53 259.158 767.764 260.288 767.542C261.418 767.319 262.405 766.659 263.032 765.706L279.581 740.547C280.208 739.594 280.423 738.426 280.18 737.3C279.937 736.175 279.254 735.183 278.283 734.544L250.819 716.479C249.848 715.84 248.667 715.606 247.537 715.828C246.407 716.051 245.42 716.711 244.793 717.664L241.247 723.055L233.875 711.77C233.666 711.482 233.39 711.247 233.071 711.087C232.752 710.926 232.399 710.845 232.044 710.85C231.69 710.855 231.343 710.946 231.034 711.116C230.726 711.285 230.464 711.527 230.274 711.821L217.129 731.805C216.935 732.096 216.816 732.432 216.782 732.782C216.749 733.133 216.803 733.487 216.939 733.815C217.074 734.143 217.289 734.435 217.562 734.664C217.836 734.893 218.161 735.054 218.508 735.132Z" stroke="white" stroke-width="1.71429" stroke-linecap="round" stroke-linejoin="round"/>
</g>
<g clip-path="url(#clip1_3536_9031)">
<path d="M265.949 587.604L251.242 567.518" stroke="white" stroke-width="1.71429" stroke-linecap="round" stroke-linejoin="round"/>
<path d="M258 630.36C258.056 636.473 257.585 639.519 253.743 643.133C250.102 646.559 244.357 647.372 239.816 645.594C233.501 643.121 232.243 635.616 233.886 629.7C235.667 623.29 245.746 611.494 250.81 607.449C256.56 602.855 262.79 600.057 270.111 599.235C275.131 598.672 281.493 598.614 285.823 601.565C289.748 604.239 292.144 608.514 288.347 612.411C283.692 617.188 276.724 618.518 270.374 619.046C261.953 619.746 253.848 618.777 246.473 614.618C242.599 612.432 235.367 607.409 236.252 600.658C237.095 594.223 248.69 591.092 248.674 589.41C248.658 587.729 234.676 591.148 231.909 585.014C231.137 583.304 230.931 580.3 230.931 580.3" stroke="white" stroke-width="1.71429" stroke-linecap="round"/>
</g>
<g clip-path="url(#clip2_3536_9031)">
<path d="M279.308 543.141L287.364 554.143C289.271 556.747 292.927 557.313 295.532 555.406L306.534 547.35C309.138 545.443 309.703 541.786 307.796 539.182L299.74 528.18C297.834 525.576 294.177 525.01 291.573 526.917L280.57 534.973C277.966 536.88 277.401 540.537 279.308 543.141Z" stroke="white" stroke-width="1.71429" stroke-linecap="round" stroke-linejoin="round"/>
<path d="M297.005 545.877L288.051 545.19L290.1 536.446" stroke="white" stroke-width="1.71429" stroke-linecap="round" stroke-linejoin="round"/>
<path d="M288.051 545.189L299.053 537.133" stroke="white" stroke-width="1.71429" stroke-linecap="round" stroke-linejoin="round"/>
</g>
<g clip-path="url(#clip3_3536_9031)">
<path d="M322.465 637.526L338.276 615.02" stroke="white" stroke-width="1.71429" stroke-linecap="round" stroke-linejoin="round"/>
<path d="M342.605 618.061L333.949 611.979" stroke="white" stroke-width="1.71429" stroke-linecap="round" stroke-linejoin="round"/>
<path d="M335.029 639.888L333.205 642.485C332.882 642.944 332.39 643.256 331.837 643.353C331.285 643.449 330.716 643.322 330.257 643L314.675 632.053C314.216 631.731 313.904 631.239 313.807 630.686C313.711 630.134 313.838 629.565 314.16 629.106L315.985 626.509" stroke="white" stroke-width="1.71429" stroke-linecap="round" stroke-linejoin="round"/>
</g>
<defs>
<clipPath id="clip0_3536_9031">
<rect width="61.3633" height="60.2269" fill="white" transform="translate(256.59 779.489) rotate(-146.664)"/>
</clipPath>
<clipPath id="clip1_3536_9031">
<rect width="69.3178" height="70.4541" fill="white" transform="translate(241.793 655.125) rotate(-126.212)"/>
</clipPath>
<clipPath id="clip2_3536_9031">
<rect width="27.2726" height="27.2726" fill="white" transform="translate(290.605 560.22) rotate(-126.212)"/>
</clipPath>
<clipPath id="clip3_3536_9031">
<rect width="29.6212" height="29.6212" fill="white" transform="translate(333.977 646.906) rotate(-144.911)"/>
</clipPath>
</defs>
</svg>
