<svg width="899" height="2216" viewBox="0 0 899 2216" fill="none" xmlns="http://www.w3.org/2000/svg">
<g clip-path="url(#clip0_3536_9078)">
<path d="M871.016 1166.48L846.416 1132.89" stroke="white" stroke-width="1.71429" stroke-linecap="round" stroke-linejoin="round"/>
<path d="M851.383 1155.06L858.718 1149.69" stroke="white" stroke-width="1.71429" stroke-linecap="round" stroke-linejoin="round"/>
<path d="M850.518 1138.49L892.59 1142.09" stroke="white" stroke-width="1.71429" stroke-linecap="round" stroke-linejoin="round"/>
<path d="M866.918 1160.88L874.452 1127.41" stroke="white" stroke-width="1.71429" stroke-linecap="round" stroke-linejoin="round"/>
<path d="M893.066 1111.97L861.148 1122.01C859.511 1122.53 857.713 1121.93 856.683 1120.52C855.654 1119.11 855.624 1117.22 856.609 1115.81L875.824 1088.42M881.514 1115.6L868.869 1098.33" stroke="white" stroke-width="1.71429" stroke-linecap="round" stroke-linejoin="round"/>
</g>
<g clip-path="url(#clip1_3536_9078)">
<path d="M772.658 1135.86L756.085 1164.54C754.986 1166.44 753.177 1167.82 751.056 1168.39C748.934 1168.96 746.675 1168.66 744.774 1167.56L722.374 1154.61" stroke="white" stroke-width="1.71429" stroke-linecap="round" stroke-linejoin="round"/>
<path d="M734.86 1147.49L751.433 1118.81C752.532 1116.91 754.341 1115.53 756.462 1114.96C758.583 1114.39 760.843 1114.69 762.744 1115.79" stroke="white" stroke-width="1.71429" stroke-linecap="round" stroke-linejoin="round"/>
<path d="M765.77 1127.1L764.735 1128.89C764.46 1129.37 764.385 1129.93 764.527 1130.46C764.669 1130.99 765.015 1131.45 765.491 1131.72L781.618 1141.04C782.093 1141.32 782.658 1141.39 783.189 1141.25C783.719 1141.11 784.171 1140.76 784.446 1140.29L785.482 1138.5C786.581 1136.59 786.879 1134.34 786.312 1132.21C785.745 1130.09 784.358 1128.28 782.457 1127.18L762.746 1115.79C764.647 1116.89 766.034 1118.7 766.601 1120.82C767.168 1122.94 766.869 1125.2 765.77 1127.1Z" stroke="white" stroke-width="1.71429" stroke-linecap="round" stroke-linejoin="round"/>
<path d="M722.373 1154.61C720.709 1153.65 719.496 1152.07 719 1150.21C718.504 1148.36 718.765 1146.38 719.726 1144.72L721.28 1142.03C721.555 1141.55 722.007 1141.21 722.537 1141.06C723.068 1140.92 723.633 1141 724.108 1141.27L734.86 1147.49L732.27 1151.97C731.308 1153.63 729.725 1154.84 727.869 1155.34C726.013 1155.84 724.036 1155.57 722.373 1154.61Z" stroke="white" stroke-width="1.71429" stroke-linecap="round" stroke-linejoin="round"/>
<path d="M750.234 1153.98L744.859 1150.87" stroke="white" stroke-width="1.71429" stroke-linecap="round" stroke-linejoin="round"/>
<path d="M756.449 1143.23L751.073 1140.12" stroke="white" stroke-width="1.71429" stroke-linecap="round" stroke-linejoin="round"/>
</g>
<g clip-path="url(#clip2_3536_9078)">
<path d="M661.695 1215.29L664.111 1218.59C664.539 1219.17 665.187 1219.56 665.913 1219.66C666.639 1219.76 667.384 1219.57 667.984 1219.13L672.507 1215.82C673.107 1215.38 673.513 1214.73 673.635 1214C673.757 1213.28 673.585 1212.55 673.158 1211.96L670.741 1208.66L661.695 1215.29Z" stroke="white" stroke-width="1.6" stroke-linecap="round" stroke-linejoin="round"/>
<path d="M670.741 1208.66L670.796 1195.41C670.789 1194.92 670.653 1194.45 670.402 1194.04C670.151 1193.63 669.793 1193.3 669.365 1193.07C668.913 1192.82 668.394 1192.7 667.869 1192.74C667.345 1192.77 666.836 1192.94 666.402 1193.25L648.309 1206.5C647.896 1206.78 647.566 1207.17 647.354 1207.63C647.142 1208.08 647.055 1208.58 647.102 1209.07C647.187 1209.55 647.397 1209.99 647.712 1210.35C648.026 1210.71 648.434 1210.99 648.894 1211.14L661.694 1215.29" stroke="white" stroke-width="1.6" stroke-linecap="round" stroke-linejoin="round"/>
<path d="M644.125 1196.04C644.906 1193.12 646.751 1190.56 649.298 1188.87C652.116 1186.86 655.405 1185.62 658.825 1185.27" stroke="white" stroke-width="1.6" stroke-linecap="round" stroke-linejoin="round"/>
<path d="M650.742 1197.96C651.133 1196.49 652.055 1195.22 653.329 1194.37C654.519 1193.41 656.016 1192.92 657.527 1192.99" stroke="white" stroke-width="1.6" stroke-linecap="round" stroke-linejoin="round"/>
</g>
<path fill-rule="evenodd" clip-rule="evenodd" d="M680.993 1172.17C680.861 1172.43 680.825 1172.72 680.892 1173C680.959 1173.27 681.124 1173.52 681.357 1173.68C681.589 1173.85 681.874 1173.93 682.158 1173.9C682.442 1173.87 682.706 1173.74 682.903 1173.53C688.093 1168.06 690.098 1164.81 697.28 1161.42C698.618 1160.79 697.52 1158.42 696.164 1159.02C690.846 1161.48 683.294 1166.58 680.993 1172.17Z" fill="white"/>
<path fill-rule="evenodd" clip-rule="evenodd" d="M691.972 1183.29C695.467 1181.65 709.617 1169.9 712.781 1167.35C714.104 1166.29 712.305 1164.51 711.006 1165.48C707.751 1167.93 693.014 1178.42 690.566 1181.37C690.353 1181.57 690.221 1181.84 690.194 1182.13C690.167 1182.42 690.248 1182.71 690.42 1182.95C690.593 1183.19 690.846 1183.35 691.131 1183.41C691.417 1183.48 691.716 1183.43 691.972 1183.29Z" fill="white"/>
<path fill-rule="evenodd" clip-rule="evenodd" d="M833.98 1118.16C834.273 1118.09 834.532 1117.92 834.714 1117.68C834.897 1117.44 834.991 1117.14 834.981 1116.84C834.971 1116.54 834.858 1116.25 834.661 1116.03C834.463 1115.8 834.194 1115.65 833.897 1115.6C825.321 1115.45 807.79 1118.21 800.732 1123.73C799.66 1124.57 800.332 1126.65 801.65 1125.96C802.703 1126.21 813.866 1118.49 833.98 1118.16Z" fill="white"/>
<path fill-rule="evenodd" clip-rule="evenodd" d="M802.412 1140.46C806.692 1136.81 819.459 1135.34 824.667 1135.45C826.295 1135.49 826.049 1137.85 824.531 1137.86C812.38 1137.9 807.589 1141.84 803.462 1142.53C802.925 1143 801.26 1141.58 802.412 1140.46Z" fill="white"/>
<path fill-rule="evenodd" clip-rule="evenodd" d="M622.9 1241.31C622.365 1242.38 623.833 1244.09 624.556 1242.89C630.35 1234.18 637.027 1226.09 644.481 1218.76C645.673 1217.58 643.635 1216.15 642.389 1217.27C634.89 1224.43 628.333 1232.52 622.876 1241.34L622.9 1241.31Z" fill="white"/>
<path d="M665.524 1551.04C545.962 1398.39 619.696 1190.81 824.027 1205.89C1079.44 1224.74 1330.63 1391.94 1298.28 1052.4C1265.93 712.873 1445.22 642.761 1576.36 706.213" stroke="white" stroke-width="2" stroke-dasharray="14 14"/>
<defs>
<clipPath id="clip0_3536_9078">
<rect width="64.7724" height="63.636" fill="white" transform="translate(863.215 1175.06) rotate(-126.212)"/>
</clipPath>
<clipPath id="clip1_3536_9078">
<rect width="57.9542" height="57.9542" fill="white" transform="translate(763.449 1180.75) rotate(-149.97)"/>
</clipPath>
<clipPath id="clip2_3536_9078">
<rect width="40.9089" height="42.0452" fill="white" transform="translate(654.09 1231) rotate(-126.212)"/>
</clipPath>
</defs>
</svg>
