<svg width="150" height="150" viewBox="0 0 150 150" fill="none" xmlns="http://www.w3.org/2000/svg">
<circle cx="75" cy="75" r="75" fill="white"/>
<g clip-path="url(#clip0_3612_4952)">
<path d="M11 75C11 82.9509 12.4303 90.567 15.0429 97.6086L76 103.261L136.957 97.6086C139.57 90.567 141 82.9509 141 75C141 67.0492 139.57 59.433 136.957 52.3915L76 46.7393L15.0429 52.3915C12.4303 59.433 11 67.0492 11 75V75Z" fill="#FFDA44"/>
<path d="M136.957 52.3914C127.773 27.6396 103.948 10 76 10C48.0523 10 24.227 27.6396 15.043 52.3914H136.957Z" fill="#D80027"/>
<path d="M15.043 97.6084C24.227 122.36 48.0523 140 76 140C103.948 140 127.773 122.36 136.957 97.6084H15.043Z" fill="#D80027"/>
</g>
<defs>
<clipPath id="clip0_3612_4952">
<rect width="130" height="130" fill="white" transform="translate(11 10)"/>
</clipPath>
</defs>
</svg>
