<svg width="150" height="150" viewBox="0 0 150 150" fill="none" xmlns="http://www.w3.org/2000/svg">
<circle cx="75" cy="75" r="75" fill="white"/>
<g clip-path="url(#clip0_3612_4959)">
<path d="M75 139.999C110.899 139.999 140 110.898 140 74.9995C140 39.101 110.899 9.99951 75 9.99951C39.1015 9.99951 10 39.101 10 74.9995C10 110.898 39.1015 139.999 75 139.999Z" fill="#F0F0F0"/>
<path d="M72.1719 75.0001H139.998C139.998 69.1333 139.216 63.4499 137.759 58.0435H72.1719V75.0001Z" fill="#D80027"/>
<path d="M72.1719 41.087H130.458C126.479 34.5941 121.391 28.8551 115.459 24.1304H72.1719V41.087Z" fill="#D80027"/>
<path d="M75.0005 140C90.2981 140 104.359 134.713 115.462 125.87H34.5391C45.6424 134.713 59.7029 140 75.0005 140Z" fill="#D80027"/>
<path d="M19.5394 108.913H130.459C133.653 103.7 136.131 98.0026 137.76 91.9561H12.2383C13.8676 98.0026 16.345 103.7 19.5394 108.913Z" fill="#D80027"/>
<path d="M40.1092 20.1502H46.0326L40.5228 24.153L42.6275 30.6299L37.118 26.6271L31.6084 30.6299L33.4264 25.0346C28.5753 29.0755 24.3234 33.8098 20.8195 39.085H22.7174L19.2102 41.6329C18.6638 42.5445 18.1397 43.4704 17.6375 44.4102L19.3123 49.5647L16.1877 47.2945C15.411 48.9401 14.7006 50.6227 14.062 52.3404L15.9071 58.0198H22.7174L17.2076 62.0226L19.3123 68.4995L13.8028 64.4967L10.5025 66.8946C10.1721 69.5499 10 72.2545 10 74.9995H75C75 39.1012 75 34.8691 75 9.99951C62.1595 9.99951 50.1896 13.7243 40.1092 20.1502ZM42.6275 68.4995L37.118 64.4967L31.6084 68.4995L33.7131 62.0226L28.2033 58.0198H35.0136L37.118 51.5429L39.2223 58.0198H46.0326L40.5228 62.0226L42.6275 68.4995ZM40.5228 43.0878L42.6275 49.5647L37.118 45.5619L31.6084 49.5647L33.7131 43.0878L28.2033 39.085H35.0136L37.118 32.6081L39.2223 39.085H46.0326L40.5228 43.0878ZM65.9427 68.4995L60.4331 64.4967L54.9236 68.4995L57.0283 62.0226L51.5185 58.0198H58.3288L60.4331 51.5429L62.5375 58.0198H69.3478L63.838 62.0226L65.9427 68.4995ZM63.838 43.0878L65.9427 49.5647L60.4331 45.5619L54.9236 49.5647L57.0283 43.0878L51.5185 39.085H58.3288L60.4331 32.6081L62.5375 39.085H69.3478L63.838 43.0878ZM63.838 24.153L65.9427 30.6299L60.4331 26.6271L54.9236 30.6299L57.0283 24.153L51.5185 20.1502H58.3288L60.4331 13.6733L62.5375 20.1502H69.3478L63.838 24.153Z" fill="#0052B4"/>
</g>
<defs>
<clipPath id="clip0_3612_4959">
<rect width="130" height="130" fill="white" transform="translate(10 10)"/>
</clipPath>
</defs>
</svg>
