<svg width="150" height="150" viewBox="0 0 150 150" fill="none" xmlns="http://www.w3.org/2000/svg">
<circle cx="75" cy="75" r="75" fill="white"/>
<g clip-path="url(#clip0_3612_4958)">
<path d="M140 75.0005C140 110.899 110.898 140 75 140C39.1017 140 10 110.899 10 75.0005C10 75.0157 75 10.0079 75 10.0005C110.898 10.0005 140 39.1022 140 75.0005Z" fill="#0052B4"/>
<path d="M74.8242 75.0001H74.9981C74.9981 74.9412 74.9981 74.8848 74.9981 74.8262C74.9403 74.8843 74.8824 74.9422 74.8242 75.0001Z" fill="#F0F0F0"/>
<path d="M75 43.9135C75 32.4763 75 24.9817 75 10.0005H74.9891C39.0956 10.0063 10 39.1053 10 75.0002H43.913V55.9034L63.0098 75.0002H74.8263C74.8845 74.9423 74.9424 74.8845 75.0003 74.8263C75.0003 70.4472 75.0003 66.5398 75.0003 63.0105L55.9032 43.9135H75Z" fill="#F0F0F0"/>
<path d="M42.883 18.4785C32.7169 24.2673 24.2654 32.7188 18.4766 42.885V75.0003H35.4332V35.4354V35.4351H74.9984C74.9984 30.0871 74.9984 24.9922 74.9984 18.4785H42.883Z" fill="#D80027"/>
<path d="M74.9969 67.007L51.9034 43.9137H43.9102C43.9102 43.9134 43.9102 43.9137 43.9102 43.9137L74.9967 75.0002H74.9969C74.9969 75.0002 74.9969 69.4892 74.9969 67.007Z" fill="#D80027"/>
<path d="M49.2008 86.3042L52.7681 93.7635L60.8238 91.9016L57.2163 99.3415L63.6945 104.479L55.6287 106.297L55.6512 114.565L49.2008 109.392L42.7505 114.565L42.7731 106.297L34.707 104.479L41.1855 99.3415L37.5774 91.9016L45.6336 93.7635L49.2008 86.3042Z" fill="#F0F0F0"/>
<path d="M107.317 100.435L109.101 104.164L113.129 103.233L111.325 106.953L114.564 109.522L110.531 110.431L110.542 114.565L107.317 111.978L104.092 114.565L104.103 110.431L100.07 109.522L103.309 106.953L101.506 103.233L105.533 104.164L107.317 100.435Z" fill="#F0F0F0"/>
<path d="M90.7236 60.8696L92.507 64.5995L96.535 63.6682L94.7312 67.3882L97.9703 69.9569L93.9375 70.8659L93.9484 75L90.7236 72.4135L87.4984 75L87.5094 70.8659L83.4766 69.9569L86.7157 67.3882L84.9119 63.6682L88.9399 64.5995L90.7236 60.8696Z" fill="#F0F0F0"/>
<path d="M107.317 38.2607L109.101 41.9906L113.129 41.0596L111.325 44.7795L114.564 47.348L110.531 48.2573L110.542 52.3914L107.317 49.8048L104.092 52.3914L104.103 48.2573L100.07 47.348L103.309 44.7795L101.506 41.0596L105.533 41.9906L107.317 38.2607Z" fill="#F0F0F0"/>
<path d="M121.809 55.2173L123.593 58.9472L127.621 58.0158L125.817 61.7358L129.056 64.3046L125.023 65.2138L125.034 69.3477L121.809 66.7614L118.584 69.3477L118.595 65.2138L114.562 64.3046L117.802 61.7358L115.998 58.0158L120.026 58.9472L121.809 55.2173Z" fill="#F0F0F0"/>
<path d="M111.447 75L112.85 79.3179H117.39L113.717 81.9867L115.12 86.3044L111.447 83.6359L107.774 86.3044L109.177 81.9867L105.504 79.3179H110.044L111.447 75Z" fill="#F0F0F0"/>
</g>
<defs>
<clipPath id="clip0_3612_4958">
<rect width="130" height="130" fill="white" transform="translate(10 10)"/>
</clipPath>
</defs>
</svg>
