<svg width="150" height="150" viewBox="0 0 150 150" fill="none" xmlns="http://www.w3.org/2000/svg">
<circle cx="75" cy="75" r="75" fill="white"/>
<g clip-path="url(#clip0_3612_4954)">
<path d="M75 140C110.899 140 140 110.899 140 75C140 39.1015 110.899 10 75 10C39.1015 10 10 39.1015 10 75C10 110.899 39.1015 140 75 140Z" fill="#F0F0F0"/>
<path d="M60.8713 66.5218H139.451C135.297 34.6294 108.026 10 75.0015 10C70.1481 10 65.4211 10.5365 60.8711 11.545V66.5218H60.8713Z" fill="#D80027"/>
<path d="M43.9136 66.5215V17.9033C26.0657 27.6416 13.2887 45.5042 10.5508 66.5218H43.9136V66.5215Z" fill="#D80027"/>
<path d="M43.9133 83.4785H10.5508C13.2887 104.496 26.0657 122.359 43.9136 132.097L43.9133 83.4785Z" fill="#D80027"/>
<path d="M60.8711 83.4788V138.455C65.4211 139.464 70.1481 140 75.0015 140C108.026 140 135.297 115.371 139.451 83.4785H60.8711V83.4788Z" fill="#D80027"/>
</g>
<defs>
<clipPath id="clip0_3612_4954">
<rect width="130" height="130" fill="white" transform="translate(10 10)"/>
</clipPath>
</defs>
</svg>
