<svg width="150" height="150" viewBox="0 0 150 150" fill="none" xmlns="http://www.w3.org/2000/svg">
<circle cx="75" cy="75" r="75" fill="white"/>
<g clip-path="url(#clip0_3536_7297)">
<path d="M75 140C110.899 140 140 110.899 140 75.0005C140 39.102 110.899 10.0005 75 10.0005C39.1015 10.0005 10 39.102 10 75.0005C10 110.899 39.1015 140 75 140Z" fill="#F0F0F0"/>
<path d="M135.957 52.3916H14.0429C11.43 59.4332 10 67.0494 10 75.0002C10 82.951 11.43 90.5672 14.0429 97.6088H135.957C138.57 90.5672 140 82.951 140 75.0002C140 67.0494 138.57 59.4332 135.957 52.3916Z" fill="#0052B4"/>
<path d="M74.9998 10.0005C55.299 10.0005 37.6467 18.7663 25.7266 32.6091H124.273C112.353 18.7663 94.7007 10.0005 74.9998 10.0005Z" fill="#D80027"/>
<path d="M124.273 117.392H25.7266C37.6467 131.235 55.299 140.001 74.9999 140.001C94.7007 140.001 112.353 131.235 124.273 117.392Z" fill="#D80027"/>
</g>
<defs>
<clipPath id="clip0_3536_7297">
<rect width="130" height="130" fill="white" transform="translate(10 10)"/>
</clipPath>
</defs>
</svg>
