<svg width="150" height="150" viewBox="0 0 150 150" fill="none" xmlns="http://www.w3.org/2000/svg">
<circle cx="75" cy="75" r="75" fill="white"/>
<g clip-path="url(#clip0_3612_4962)">
<path d="M75 140.001C110.899 140.001 140 110.899 140 75.0005C140 39.102 110.899 10.0005 75 10.0005C39.1015 10.0005 10 39.102 10 75.0005C10 110.899 39.1015 140.001 75 140.001Z" fill="#D80027"/>
<path d="M72.3383 63.1143L77.6716 70.4636L86.3087 67.663L80.967 75.006L86.2996 82.355L77.6655 79.5438L72.3241 86.8867L72.3296 77.8068L63.6953 74.9955L72.3327 72.195L72.3383 63.1143Z" fill="#F0F0F0"/>
<path d="M57.7832 93.37C47.6381 93.37 39.4135 85.1455 39.4135 75.0004C39.4135 64.8554 47.6381 56.6308 57.7832 56.6308C60.9463 56.6308 63.9226 57.4309 66.5211 58.8388C62.4446 54.852 56.8696 52.3916 50.718 52.3916C38.2313 52.3916 28.1094 62.5138 28.1094 75.0002C28.1094 87.4865 38.2316 97.6087 50.718 97.6087C56.8701 97.6087 62.4449 95.1481 66.5211 91.1616C63.9226 92.57 60.9463 93.37 57.7832 93.37Z" fill="#F0F0F0"/>
</g>
<defs>
<clipPath id="clip0_3612_4962">
<rect width="130" height="130" fill="white" transform="translate(10 10)"/>
</clipPath>
</defs>
</svg>
