<svg width="150" height="150" viewBox="0 0 150 150" fill="none" xmlns="http://www.w3.org/2000/svg">
<circle cx="75" cy="75" r="75" fill="white"/>
<g clip-path="url(#clip0_3612_4963)">
<path d="M10 75C10 102.947 27.6394 126.773 52.3909 135.957L58.0434 74.9998L52.3909 14.043C27.6394 23.2273 10 47.0523 10 75Z" fill="#6DA544"/>
<path d="M140 75C140 39.1017 110.898 10 74.9997 10C67.0489 10 59.4325 11.4303 52.3906 14.0429V135.957C59.4325 138.57 67.0489 140 74.9997 140C110.898 140 140 110.898 140 75Z" fill="#D80027"/>
<path d="M52.3898 97.6087C64.8762 97.6087 74.9984 87.4865 74.9984 75.0002C74.9984 62.5138 64.8762 52.3916 52.3898 52.3916C39.9035 52.3916 29.7812 62.5138 29.7812 75.0002C29.7812 87.4865 39.9035 97.6087 52.3898 97.6087Z" fill="#FFDA44"/>
<path d="M39.6719 63.6953V77.8257C39.6719 84.8493 45.3655 90.5431 52.3893 90.5431C59.4131 90.5431 65.1067 84.8495 65.1067 77.8257V63.6953H39.6719Z" fill="#D80027"/>
<path d="M52.3916 82.0655C50.0541 82.0655 48.1523 80.1637 48.1523 77.8263V72.1743H56.6305V77.8265C56.6305 80.1637 54.7288 82.0655 52.3916 82.0655Z" fill="#F0F0F0"/>
</g>
<defs>
<clipPath id="clip0_3612_4963">
<rect width="130" height="130" fill="white" transform="translate(10 10)"/>
</clipPath>
</defs>
</svg>
