<svg width="150" height="150" viewBox="0 0 150 150" fill="none" xmlns="http://www.w3.org/2000/svg">
<circle cx="75" cy="75" r="75" fill="white"/>
<g clip-path="url(#clip0_3612_4957)">
<path d="M76 140C111.899 140 141 110.899 141 75C141 39.1015 111.899 10 76 10C40.1015 10 11 39.1015 11 75C11 110.899 40.1015 140 76 140Z" fill="#F0F0F0"/>
<path d="M24.4358 35.4272C19.33 42.0702 15.48 49.7267 13.2383 58.0444H47.053L24.4358 35.4272Z" fill="#0052B4"/>
<path d="M138.76 58.0447C136.518 49.7272 132.668 42.0707 127.562 35.4277L104.945 58.0447H138.76Z" fill="#0052B4"/>
<path d="M13.2383 91.9575C15.4803 100.275 19.3303 107.932 24.4358 114.574L47.0523 91.9575H13.2383Z" fill="#0052B4"/>
<path d="M115.574 23.4375C108.931 18.3317 101.275 14.4817 92.957 12.2397V46.0542L115.574 23.4375Z" fill="#0052B4"/>
<path d="M36.4258 126.564C43.0687 131.67 50.7253 135.519 59.0427 137.761V103.947L36.4258 126.564Z" fill="#0052B4"/>
<path d="M59.0425 12.2397C50.725 14.4817 43.0685 18.3317 36.4258 23.4373L59.0425 46.054V12.2397Z" fill="#0052B4"/>
<path d="M92.957 137.761C101.274 135.519 108.931 131.67 115.574 126.564L92.957 103.947V137.761Z" fill="#0052B4"/>
<path d="M104.945 91.9575L127.562 114.574C132.668 107.932 136.518 100.275 138.76 91.9575H104.945Z" fill="#0052B4"/>
<path d="M140.45 66.5218H84.4787H84.4784V10.5502C81.703 10.1889 78.8735 10 76 10C73.126 10 70.297 10.1889 67.5218 10.5502V66.5213V66.5216H11.5502C11.1889 69.297 11 72.1265 11 75C11 77.874 11.1889 80.703 11.5502 83.4782H67.5213H67.5216V139.45C70.297 139.811 73.126 140 76 140C78.8735 140 81.703 139.811 84.4782 139.45V83.4787V83.4784H140.45C140.811 80.703 141 77.874 141 75C141 72.1265 140.811 69.297 140.45 66.5218Z" fill="#D80027"/>
<path d="M92.957 91.9568L121.962 120.962C123.296 119.629 124.569 118.234 125.783 116.789L100.951 91.9565H92.957V91.9568Z" fill="#D80027"/>
<path d="M59.0445 91.9565H59.044L30.0391 120.962C31.3726 122.296 32.7668 123.568 34.212 124.782L59.0445 99.9493V91.9565Z" fill="#D80027"/>
<path d="M59.0408 58.0441V58.0436L30.0356 29.0381C28.7016 30.3716 27.429 31.7658 26.2148 33.211L51.0476 58.0438H59.0408V58.0441Z" fill="#D80027"/>
<path d="M92.957 58.044L121.963 29.0383C120.629 27.7043 119.235 26.4317 117.79 25.2178L92.957 50.0506V58.044Z" fill="#D80027"/>
</g>
<defs>
<clipPath id="clip0_3612_4957">
<rect width="130" height="130" fill="white" transform="translate(11 10)"/>
</clipPath>
</defs>
</svg>
