<svg width="150" height="150" viewBox="0 0 150 150" fill="none" xmlns="http://www.w3.org/2000/svg">
<circle cx="75" cy="75" r="75" fill="white"/>
<g clip-path="url(#clip0_3612_4964)">
<path d="M76 140C111.899 140 141 110.899 141 75C141 39.1015 111.899 10 76 10C40.1015 10 11 39.1015 11 75C11 110.899 40.1015 140 76 140Z" fill="#F0F0F0"/>
<path d="M98.6078 74.9997C98.6078 80.6519 88.4855 94.7823 75.9992 94.7823C63.5128 94.7823 53.3906 80.6519 53.3906 74.9997C53.3906 62.5131 63.5128 52.3911 75.9992 52.3911C88.4855 52.3911 98.6078 62.5131 98.6078 74.9997Z" fill="#D80027"/>
<path d="M98.6078 75C98.6078 87.4866 88.4855 97.6086 75.9992 97.6086C63.5128 97.6086 53.3906 87.4866 53.3906 75" fill="#0052B4"/>
<path d="M99.9609 94.9844L105.955 88.9903L109.951 92.9864L103.957 98.9805L99.9609 94.9844Z" fill="black"/>
<path d="M89.9688 104.975L95.9628 98.9805L99.959 102.977L93.9649 108.971L89.9688 104.975Z" fill="black"/>
<path d="M111.953 106.972L117.947 100.978L121.943 104.974L115.949 110.968L111.953 106.972Z" fill="black"/>
<path d="M101.961 116.964L107.955 110.97L111.951 114.966L105.957 120.96L101.961 116.964Z" fill="black"/>
<path d="M105.957 100.979L111.951 94.9844L115.947 98.9805L109.953 104.975L105.957 100.979Z" fill="black"/>
<path d="M95.9648 110.969L101.959 104.975L105.955 108.971L99.961 114.965L95.9648 110.969Z" fill="black"/>
<path d="M111.98 55.0264L95.9962 39.0421L99.9923 35.046L115.977 51.0303L111.98 55.0264Z" fill="black"/>
<path d="M95.9922 51.0317L89.9981 45.0377L93.994 41.0417L99.9881 47.0358L95.9922 51.0317Z" fill="black"/>
<path d="M105.98 61.0244L99.9864 55.0303L103.982 51.0344L109.976 57.0285L105.98 61.0244Z" fill="black"/>
<path d="M107.977 39.0415L101.982 33.0474L105.979 29.0513L111.973 35.0454L107.977 39.0415Z" fill="black"/>
<path d="M117.973 49.0352L111.979 43.0411L115.975 39.045L121.969 45.039L117.973 49.0352Z" fill="black"/>
<path d="M34.043 100.967L50.0272 116.952L46.0311 120.948L30.0469 104.963L34.043 100.967Z" fill="black"/>
<path d="M50.0273 104.96L56.0214 110.954L52.0255 114.95L46.0314 108.956L50.0273 104.96Z" fill="black"/>
<path d="M40.0352 94.9722L46.0292 100.966L42.0331 104.962L36.039 98.9683L40.0352 94.9722Z" fill="black"/>
<path d="M46.0312 88.9761L62.0155 104.96L58.0194 108.956L42.0351 92.9722L46.0312 88.9761Z" fill="black"/>
<path d="M50.0273 33.0352L34.0431 49.0194L30.047 45.0233L46.0312 29.039L50.0273 33.0352Z" fill="black"/>
<path d="M56.0195 39.0288L40.0353 55.0131L36.0392 51.017L52.0234 35.0327L56.0195 39.0288Z" fill="black"/>
<path d="M62.0195 45.0259L46.0353 61.0101L42.0393 57.0142L58.0236 41.0299L62.0195 45.0259Z" fill="black"/>
</g>
<defs>
<clipPath id="clip0_3612_4964">
<rect width="130" height="130" fill="white" transform="translate(11 10)"/>
</clipPath>
</defs>
</svg>
