<svg width="150" height="150" viewBox="0 0 150 150" fill="none" xmlns="http://www.w3.org/2000/svg">
<circle cx="75" cy="75" r="75" fill="white"/>
<g clip-path="url(#clip0_3536_7186)">
<path d="M75 140C110.898 140 140 110.898 140 75C140 39.1015 110.898 10 75 10C39.1015 10 10 39.1015 10 75C10 110.898 39.1015 140 75 140Z" fill="#D80027"/>
<path d="M45.5742 49.5586L51.1855 66.8242H69.3398L54.6641 77.5137L60.2754 94.7793L45.5742 84.1152L30.873 94.7793L36.5098 77.5137L21.8086 66.8242H39.9629L45.5742 49.5586Z" fill="#FFDA44"/>
<path d="M87.0644 110.674L82.7734 105.393L76.4258 107.855L80.1074 102.143L75.8164 96.8359L82.3926 98.5879L86.0996 92.875L86.4551 99.6797L93.0566 101.432L86.6836 103.869L87.0644 110.674Z" fill="#FFDA44"/>
<path d="M95.5918 95.1855L97.623 88.6855L92.0625 84.75L98.8672 84.6484L100.873 78.1484L103.082 84.5977L109.887 84.5215L104.428 88.584L106.611 95.0332L101.051 91.0977L95.5918 95.1855Z" fill="#FFDA44"/>
<path d="M107.096 57.709L104.1 63.8281L108.975 68.5762L102.246 67.6113L99.25 73.7051L98.082 67.0019L91.3281 66.0371L97.3711 62.8633L96.2031 56.1348L101.078 60.8828L107.096 57.709Z" fill="#FFDA44"/>
<path d="M87.2402 39.1738L86.7324 45.9531L93.0547 48.5176L86.4277 50.1426L85.9453 56.9473L82.3652 51.1582L75.7383 52.7832L80.1309 47.5781L76.5254 41.8145L82.8477 44.3789L87.2402 39.1738Z" fill="#FFDA44"/>
</g>
<defs>
<clipPath id="clip0_3536_7186">
<rect width="130" height="130" fill="white" transform="translate(10 10)"/>
</clipPath>
</defs>
</svg>
