<svg width="150" height="150" viewBox="0 0 150 150" fill="none" xmlns="http://www.w3.org/2000/svg">
<circle cx="75" cy="75" r="75" fill="white"/>
<g clip-path="url(#clip0_3612_4961)">
<path d="M75 140.001C110.898 140.001 140 110.899 140 75.0005C140 39.102 110.898 10.0005 75 10.0005C39.1015 10.0005 10 39.102 10 75.0005C10 110.899 39.1015 140.001 75 140.001Z" fill="#F0F0F0"/>
<path d="M72.1719 75.0001H139.998C139.998 69.1331 139.216 63.4501 137.759 58.0435H72.1719V75.0001Z" fill="#D80027"/>
<path d="M72.1719 41.087H130.458C126.479 34.5941 121.392 28.8551 115.46 24.1304H72.1719V41.087Z" fill="#D80027"/>
<path d="M75.0008 140C90.2984 140 104.359 134.713 115.463 125.87H34.5391C45.6426 134.713 59.7032 140 75.0008 140Z" fill="#D80027"/>
<path d="M19.5394 108.913H130.459C133.653 103.7 136.13 98.0026 137.76 91.9561H12.2383C13.8676 98.0026 16.345 103.7 19.5394 108.913Z" fill="#D80027"/>
<path d="M75 75.0005C75 39.1022 75 34.8701 75 10.0005C39.1017 10.0005 10 39.1022 10 75.0005H75Z" fill="#0052B4"/>
<path d="M53.2225 65.6383C44.3454 65.6383 37.1492 58.4419 37.1492 49.5651C37.1492 40.6882 44.3457 33.4918 53.2225 33.4918C55.9904 33.4918 58.5947 34.1918 60.8684 35.4237C57.3015 31.9358 52.4235 29.7827 47.0404 29.7827C36.1151 29.7827 27.2578 38.6397 27.2578 49.5653C27.2578 60.4909 36.1151 69.3479 47.0404 69.3479C52.4235 69.3479 57.3015 67.1948 60.8684 63.7069C58.5947 64.9383 55.9906 65.6383 53.2225 65.6383Z" fill="#FFDA44"/>
<path d="M57.7516 38.2607L60.6053 44.228L67.0497 42.7391L64.1638 48.6904L69.3465 52.8004L62.8937 54.2551L62.9118 60.8696L57.7516 56.7314L52.5912 60.8696L52.609 54.2551L46.1562 52.8004L51.339 48.6904L48.4528 42.7391L54.8977 44.228L57.7516 38.2607Z" fill="#FFDA44"/>
</g>
<defs>
<clipPath id="clip0_3612_4961">
<rect width="130" height="130" fill="white" transform="translate(10 10)"/>
</clipPath>
</defs>
</svg>
