<svg width="150" height="150" viewBox="0 0 150 150" fill="none" xmlns="http://www.w3.org/2000/svg">
<circle cx="75" cy="75" r="75" fill="white"/>
<g clip-path="url(#clip0_3612_4953)">
<path d="M14.043 97.6085C23.227 122.36 47.0523 140 75 140C102.948 140 126.773 122.36 135.957 97.6085L75 91.9565L14.043 97.6085Z" fill="#FFDA44"/>
<path d="M75 10C47.0523 10 23.227 27.6394 14.043 52.3914L75 58.0434L135.957 52.3912C126.773 27.6394 102.948 10 75 10Z" fill="black"/>
<path d="M14.0429 52.3916C11.4303 59.4332 10 67.0494 10 75.0002C10 82.951 11.4303 90.5672 14.0429 97.6087H135.957C138.57 90.5672 140 82.951 140 75.0002C140 67.0494 138.57 59.4332 135.957 52.3916H14.0429Z" fill="#D80027"/>
</g>
<defs>
<clipPath id="clip0_3612_4953">
<rect width="130" height="130" fill="white" transform="translate(10 10)"/>
</clipPath>
</defs>
</svg>
