<svg width="76" height="47" viewBox="0 0 76 47" fill="none" xmlns="http://www.w3.org/2000/svg">
<g clip-path="url(#clip0_1280_4115)">
<path d="M76 31.9553H72.5455C71.4126 31.9542 70.3264 31.5045 69.5253 30.7048C68.7242 29.9051 68.2737 28.8208 68.2726 27.6899V20.5781C68.2824 20.2263 68.2215 19.876 68.0935 19.548C67.9654 19.22 67.7727 18.921 67.5269 18.6686C67.2811 18.4162 66.987 18.2156 66.6622 18.0786C66.3373 17.9416 65.9883 17.8711 65.6356 17.8711C65.283 17.8711 64.9339 17.9416 64.609 18.0786C64.2842 18.2156 63.9902 18.4162 63.7443 18.6686C63.4985 18.921 63.3058 19.22 63.1777 19.548C63.0497 19.876 62.9888 20.2263 62.9987 20.5781V27.6899C63.0112 28.2578 62.91 28.8225 62.7009 29.3508C62.4919 29.8791 62.1792 30.3605 61.7813 30.7665C61.3833 31.1726 60.9082 31.4952 60.3836 31.7155C59.8591 31.9358 59.2958 32.0492 58.7267 32.0492C58.1576 32.0492 57.5943 31.9358 57.0698 31.7155C56.5453 31.4952 56.0701 31.1726 55.6722 30.7665C55.2742 30.3605 54.9616 29.8791 54.7525 29.3508C54.5435 28.8225 54.4422 28.2578 54.4548 27.6899V13.2844C54.4646 12.9325 54.4037 12.5822 54.2757 12.2542C54.1476 11.9262 53.9549 11.6272 53.7091 11.3748C53.4633 11.1224 53.1692 10.9218 52.8444 10.7848C52.5195 10.6479 52.1705 10.5773 51.8178 10.5773C51.4652 10.5773 51.1161 10.6479 50.7912 10.7848C50.4664 10.9218 50.1724 11.1224 49.9265 11.3748C49.6807 11.6272 49.488 11.9262 49.3599 12.2542C49.2319 12.5822 49.171 12.9325 49.1809 13.2844V27.6899C49.1934 28.2578 49.0922 28.8225 48.8831 29.3508C48.674 29.8791 48.3614 30.3605 47.9635 30.7665C47.5655 31.1726 47.0903 31.4952 46.5658 31.7155C46.0413 31.9358 45.478 32.0492 44.9089 32.0492C44.3398 32.0492 43.7765 31.9358 43.252 31.7155C42.7275 31.4952 42.2523 31.1726 41.8544 30.7665C41.4564 30.3605 41.1438 29.8791 40.9347 29.3508C40.7257 28.8225 40.6244 28.2578 40.6369 27.6899V4.26333C40.6177 3.57798 40.3314 2.92716 39.839 2.4492C39.3466 1.97124 38.6868 1.70384 38 1.70384C37.3132 1.70384 36.6534 1.97124 36.161 2.4492C35.6686 2.92716 35.3823 3.57798 35.3631 4.26333V27.6899C35.3756 28.2578 35.2744 28.8225 35.0653 29.3508C34.8562 29.8791 34.5436 30.3605 34.1456 30.7665C33.7477 31.1726 33.2725 31.4952 32.748 31.7155C32.2235 31.9358 31.6602 32.0492 31.0911 32.0492C30.522 32.0492 29.9587 31.9358 29.4342 31.7155C28.9097 31.4952 28.4345 31.1726 28.0366 30.7665C27.6386 30.3605 27.326 29.8791 27.1169 29.3508C26.9078 28.8225 26.8066 28.2578 26.8191 27.6899V13.2844C26.8191 12.586 26.5412 11.9162 26.0465 11.4223C25.5518 10.9285 24.8808 10.6511 24.1812 10.6511C23.4815 10.6511 22.8105 10.9285 22.3158 11.4223C21.8211 11.9162 21.5432 12.586 21.5432 13.2844V27.6899C21.5432 28.2498 21.4327 28.8041 21.2181 29.3214C21.0034 29.8386 20.6888 30.3086 20.2923 30.7045C19.8957 31.1004 19.4248 31.4144 18.9067 31.6287C18.3885 31.8429 17.8331 31.9532 17.2723 31.9532C16.7114 31.9532 16.156 31.8429 15.6378 31.6287C15.1197 31.4144 14.6489 31.1004 14.2523 30.7045C13.8557 30.3086 13.5411 29.8386 13.3264 29.3214C13.1118 28.8041 13.0013 28.2498 13.0013 27.6899V20.5781C13.0013 19.8798 12.7234 19.21 12.2287 18.7161C11.734 18.2223 11.063 17.9449 10.3634 17.9449C9.66372 17.9449 8.99274 18.2223 8.49802 18.7161C8.0033 19.21 7.72537 19.8798 7.72537 20.5781V27.6899C7.72482 28.8206 7.27474 29.9049 6.47397 30.7046C5.67319 31.5044 4.58719 31.9542 3.45445 31.9553H0V30.3232H3.45445C4.15392 30.3226 4.82458 30.045 5.31918 29.5513C5.81378 29.0576 6.09188 28.3881 6.09243 27.6899V20.5781C6.09243 19.4474 6.5424 18.3631 7.34336 17.5635C8.14431 16.764 9.23064 16.3148 10.3634 16.3148C11.4961 16.3148 12.5824 16.764 13.3834 17.5635C14.1843 18.3631 14.6343 19.4474 14.6343 20.5781V27.6899C14.6343 28.3883 14.9122 29.0581 15.4069 29.5519C15.9016 30.0458 16.5726 30.3232 17.2723 30.3232C17.9719 30.3232 18.6429 30.0458 19.1376 29.5519C19.6323 29.0581 19.9102 28.3883 19.9102 27.6899V13.2844C19.9348 12.1697 20.3957 11.1089 21.1942 10.3292C21.9927 9.54949 23.0652 9.1129 24.1822 9.1129C25.2992 9.1129 26.3717 9.54949 27.1702 10.3292C27.9687 11.1089 28.4296 12.1697 28.4542 13.2844V27.6899C28.4443 28.0418 28.5052 28.3921 28.6332 28.72C28.7613 29.048 28.954 29.3471 29.1998 29.5994C29.4456 29.8518 29.7397 30.0524 30.0645 30.1894C30.3894 30.3264 30.7385 30.397 31.0911 30.397C31.4437 30.397 31.7928 30.3264 32.1177 30.1894C32.4425 30.0524 32.7365 29.8518 32.9824 29.5994C33.2282 29.3471 33.4209 29.048 33.549 28.72C33.677 28.3921 33.7379 28.0418 33.728 27.6899V4.26333C33.7526 3.14861 34.2135 2.08782 35.012 1.30814C35.8105 0.528454 36.883 0.0918617 38 0.0918617C39.117 0.0918617 40.1895 0.528454 40.988 1.30814C41.7865 2.08782 42.2474 3.14861 42.272 4.26333V27.6899C42.2621 28.0418 42.323 28.3921 42.451 28.72C42.5791 29.048 42.7718 29.3471 43.0176 29.5994C43.2635 29.8518 43.5575 30.0524 43.8823 30.1894C44.2072 30.3264 44.5563 30.397 44.9089 30.397C45.2616 30.397 45.6106 30.3264 45.9355 30.1894C46.2603 30.0524 46.5544 29.8518 46.8002 29.5994C47.046 29.3471 47.2387 29.048 47.3668 28.72C47.4948 28.3921 47.5557 28.0418 47.5458 27.6899V13.2844C47.5704 12.1697 48.0313 11.1089 48.8298 10.3292C49.6283 9.54949 50.7008 9.1129 51.8178 9.1129C52.9348 9.1129 54.0074 9.54949 54.8058 10.3292C55.6043 11.1089 56.0652 12.1697 56.0898 13.2844V27.6899C56.0799 28.0418 56.1408 28.3921 56.2688 28.72C56.3969 29.048 56.5896 29.3471 56.8354 29.5994C57.0813 29.8518 57.3753 30.0524 57.7001 30.1894C58.025 30.3264 58.3741 30.397 58.7267 30.397C59.0794 30.397 59.4284 30.3264 59.7533 30.1894C60.0781 30.0524 60.3722 29.8518 60.618 29.5994C60.8638 29.3471 61.0565 29.048 61.1846 28.72C61.3126 28.3921 61.3735 28.0418 61.3637 27.6899V20.5781C61.3511 20.0102 61.4524 19.4456 61.6614 18.9172C61.8705 18.3889 62.1831 17.9076 62.5811 17.5015C62.979 17.0955 63.4542 16.7728 63.9787 16.5526C64.5032 16.3323 65.0666 16.2188 65.6356 16.2188C66.2047 16.2188 66.768 16.3323 67.2925 16.5526C67.8171 16.7728 68.2922 17.0955 68.6902 17.5015C69.0881 17.9076 69.4008 18.3889 69.6098 18.9172C69.8189 19.4456 69.9201 20.0102 69.9076 20.5781V27.6899C69.9081 28.3881 70.1862 29.0576 70.6808 29.5513C71.1754 30.045 71.8461 30.3226 72.5455 30.3232H76V31.9553Z" fill="url(#paint0_linear_1280_4115)"/>
<path d="M6.05928 45.0245C6.05565 44.8846 6.03477 44.7456 5.99711 44.6108C5.89021 44.2578 5.72643 43.9245 5.5122 43.6241C5.49487 43.6048 5.48529 43.5797 5.48529 43.5538C5.48529 43.5278 5.49487 43.5028 5.5122 43.4834C5.6096 43.3407 5.70492 43.198 5.79196 43.049C6.02644 42.6721 6.10797 42.22 6.01991 41.7851C5.92973 41.3325 5.68329 40.9257 5.32355 40.6358C4.96381 40.3459 4.51356 40.1911 4.05126 40.1985H0V41.2701C0.930443 41.2701 3.10839 41.2701 4.03468 41.2701C4.11886 41.2682 4.20297 41.2758 4.28543 41.2928C4.45587 41.3298 4.61178 41.4156 4.73401 41.5399C4.85623 41.6641 4.93944 41.8212 4.97342 41.992C5.0134 42.1507 5.00342 42.3179 4.94483 42.4708C4.88625 42.6236 4.7819 42.7548 4.646 42.8463C4.4696 42.9861 4.24947 43.0594 4.02432 43.0532H0V44.1123H0.884854C1.92098 44.1123 2.97576 44.1123 4.02018 44.1123C4.27736 44.1205 4.52183 44.2259 4.70417 44.4071C4.88651 44.5884 4.99311 44.832 5.00243 45.0886C4.98171 45.6927 5.00243 46.2967 5.00243 46.9028V47.0083H6.06135C6.06135 46.9814 6.06135 46.9628 6.06135 46.9421C6.06135 46.2926 6.0655 45.6596 6.05928 45.0245Z" fill="#2F3A5C"/>
<path d="M49.6452 46.9979H48.6194V46.8676C48.6194 45.4127 48.6194 43.9578 48.6194 42.5029C48.6331 42.2764 48.5818 42.0507 48.4718 41.8522C48.3617 41.6537 48.1973 41.4905 47.9977 41.3818C47.8106 41.2739 47.5986 41.2165 47.3825 41.2153C47.1665 41.2142 46.9538 41.2692 46.7655 41.3751C46.5773 41.481 46.4199 41.634 46.3089 41.8191C46.198 42.0041 46.1372 42.2149 46.1327 42.4305C46.1203 43.9054 46.1327 45.3803 46.1327 46.8552V46.9938H45.1111C45.1111 46.9566 45.1111 46.9235 45.1111 46.8904C45.1111 45.4286 45.1111 43.9668 45.1111 42.505C45.0986 42.0203 45.2431 41.5446 45.5231 41.1484C45.8031 40.7523 46.2037 40.4569 46.6653 40.3061C46.969 40.2031 47.2926 40.1719 47.6105 40.215C47.9284 40.2581 48.2319 40.3742 48.4972 40.5543C48.7044 40.6888 48.9116 40.8398 49.1043 40.9805C49.3116 40.8398 49.5188 40.6888 49.726 40.5543C50.1276 40.2863 50.6085 40.1626 51.0898 40.2036C51.5711 40.2446 52.0241 40.4478 52.3744 40.7798C52.6071 40.9787 52.7939 41.2255 52.9219 41.5033C53.05 41.7812 53.1163 42.0833 53.1162 42.3892C53.1287 43.9075 53.1162 45.4258 53.1162 46.94C53.1162 46.9524 53.1162 46.9648 53.1162 46.9855H52.0801V46.8531C52.0801 45.4106 52.0801 43.9689 52.0801 42.5278C52.0981 42.2372 52.0257 41.9482 51.8729 41.7003C51.7319 41.5064 51.5369 41.3581 51.3121 41.2739C51.0874 41.1897 50.8428 41.1732 50.6088 41.2266C50.376 41.27 50.1621 41.3834 49.9958 41.5517C49.8295 41.7199 49.7187 41.9349 49.6783 42.1678C49.6589 42.2875 49.6499 42.4086 49.6514 42.5298C49.6514 43.9682 49.6514 45.4058 49.6514 46.8428L49.6452 46.9979Z" fill="#2F3A5C"/>
<path d="M64.5488 45.9678V47.0021H60.1639C59.5896 47.0144 59.0311 46.8131 58.5972 46.4373C58.1633 46.0615 57.8849 45.538 57.8161 44.9687C57.8008 44.8583 57.7939 44.747 57.7953 44.6356C57.7953 43.9461 57.7953 43.2511 57.7953 42.5505C57.7854 42.0301 57.9525 41.5218 58.2695 41.1085C58.5864 40.6952 59.0344 40.4014 59.5402 40.2751C59.7202 40.2283 59.9054 40.204 60.0914 40.2027C61.542 40.2027 63.0112 40.2027 64.4722 40.2027H64.5488V41.237H64.4224C62.9884 41.237 61.5544 41.237 60.1204 41.237C59.8133 41.232 59.5147 41.3376 59.2792 41.5343C59.0436 41.7311 58.8869 42.0059 58.8377 42.3085C58.82 42.5571 58.82 42.8066 58.8377 43.0552H61.6705V44.1102H58.819C58.819 44.2922 58.819 44.466 58.819 44.6398C58.8108 44.8949 58.8785 45.1468 59.0135 45.3636C59.1484 45.5804 59.3447 45.7525 59.5775 45.8582C59.7508 45.945 59.9432 45.987 60.137 45.9802H64.5509L64.5488 45.9678Z" fill="#2F3A5C"/>
<path d="M74.9725 40.1965H75.9962V40.3164C75.9962 40.7488 75.9858 41.1811 75.9962 41.6134C76.0049 42.0885 75.8746 42.5558 75.6211 42.958C75.4968 43.1649 75.3559 43.3717 75.2067 43.5786L75.3123 43.7192C75.607 44.0925 75.8189 44.524 75.934 44.9852C75.9603 45.1111 75.9742 45.2393 75.9755 45.3679C75.9755 45.8871 75.9755 46.4022 75.9755 46.9255C75.9755 46.9462 75.9755 46.9669 75.9755 46.9938H74.9559V45.3514C74.9593 45.1813 74.9282 45.0123 74.8645 44.8545C74.8008 44.6967 74.7058 44.5535 74.5852 44.4333C74.4646 44.3131 74.3209 44.2185 74.1628 44.1551C74.0046 44.0918 73.8353 44.061 73.6649 44.0647C72.9382 44.0647 72.2115 44.0647 71.4849 44.0647C71.3153 44.061 71.1468 44.0917 70.9895 44.1549C70.8322 44.2181 70.6893 44.3125 70.5696 44.4324C70.4499 44.5523 70.3558 44.6952 70.293 44.8524C70.2302 45.0097 70.2 45.178 70.2042 45.3472V47.0021H69.2302C69.2255 46.9922 69.2221 46.9818 69.2199 46.971C69.2199 46.396 69.2199 45.823 69.2199 45.2479C69.2551 44.7879 69.4164 44.3463 69.6861 43.9716C69.7732 43.8351 69.8706 43.7068 69.9514 43.5951C69.7815 43.3117 69.6074 43.0428 69.4582 42.7677C69.2868 42.4399 69.2013 42.0741 69.2095 41.7045C69.2095 41.2452 69.2095 40.786 69.2095 40.3268V40.2151H70.1959V40.3247C70.1959 40.8295 70.1959 41.3321 70.1959 41.8348C70.1945 42.1213 70.2946 42.399 70.4785 42.619C70.6624 42.8389 70.9183 42.9868 71.201 43.0366C71.2948 43.0525 71.3897 43.0601 71.4849 43.0594C72.2039 43.0594 72.9355 43.0594 73.6442 43.0594C73.9108 43.0714 74.1743 42.9975 74.3956 42.8484C74.6169 42.6994 74.7843 42.4833 74.873 42.2319C74.9186 42.0838 74.9416 41.9297 74.9414 41.7748C74.9414 41.2949 74.9414 40.815 74.9414 40.3371L74.9725 40.1965Z" fill="#2F3A5C"/>
<path d="M17.496 40.2027C17.4972 40.2185 17.4972 40.2344 17.496 40.2502C17.496 40.8336 17.5085 41.419 17.496 42.0023C17.4626 42.5108 17.2555 42.9925 16.9093 43.3671C16.5631 43.7417 16.0988 43.9864 15.5937 44.0606C15.3533 44.0916 15.1088 44.0833 14.8663 44.0916C14.8021 44.0916 14.7378 44.0916 14.6591 44.0916V46.9876H13.6396V44.0916H13.453C13.1152 44.1103 12.7764 44.0831 12.4459 44.0109C11.9647 43.8903 11.5369 43.614 11.2295 43.2252C10.9221 42.8364 10.7523 42.3569 10.7467 41.8617C10.7322 41.3259 10.7467 40.7881 10.7467 40.2523C10.7467 40.2358 10.7467 40.2192 10.7467 40.1985H11.7662V40.3061C11.7662 40.8419 11.7662 41.3797 11.7662 41.9154C11.766 42.0831 11.8031 42.2488 11.8748 42.4005C11.9464 42.5521 12.0509 42.686 12.1807 42.7925C12.3959 42.9712 12.6675 43.0679 12.9474 43.0656C13.7349 43.0656 14.5244 43.0656 15.3119 43.0656C15.6251 43.0629 15.925 42.9385 16.1479 42.7188C16.3707 42.499 16.499 42.2012 16.5055 41.8886C16.5055 41.3673 16.5055 40.8543 16.5055 40.3289V40.2006L17.496 40.2027Z" fill="#2F3A5C"/>
<path d="M28.9906 40.2006V41.2142H26.1102V46.9917H25.0906V41.2183H22.1895V40.2006H28.9906Z" fill="#2F3A5C"/>
<path d="M34.6875 47H33.668V40.2006H34.6792V43.0366H39.3936V40.2027H40.409V46.9959H39.3957V44.1123H34.6875V47Z" fill="#2F3A5C"/>
</g>
<defs>
<linearGradient id="paint0_linear_1280_4115" x1="19.8444" y1="32.0492" x2="71.2461" y2="15.3552" gradientUnits="userSpaceOnUse">
<stop stop-color="#4C60E9"/>
<stop offset="1" stop-color="#7485FF"/>
</linearGradient>
<clipPath id="clip0_1280_4115">
<rect width="76" height="47" fill="white"/>
</clipPath>
</defs>
</svg>
