<svg width="1209" height="2024" viewBox="0 0 1209 2024" fill="none" xmlns="http://www.w3.org/2000/svg">
<path d="M251.479 1009.84C257.248 1004.99 262.663 999.711 267.683 994.046C267.964 993.764 268.124 993.377 268.131 992.965C268.138 992.553 267.992 992.147 267.722 991.83C265.346 988.792 245.048 964.994 243.403 965.335C242.326 964.973 232.876 976.987 220.094 985.001C220.174 983.563 219.779 982.119 218.973 980.902C218.166 979.686 216.996 978.768 215.651 978.3C214.617 977.967 213.531 977.895 212.486 978.092C211.441 978.289 210.47 978.748 209.656 979.43C208.842 980.111 208.211 980.994 207.816 982.002C207.422 983.01 207.276 984.113 207.392 985.214C207.409 986.388 207.716 987.55 208.285 988.592C208.853 989.634 209.663 990.52 210.64 991.168C211.61 991.595 212.656 991.776 213.688 991.695C214.721 991.614 215.707 991.273 216.563 990.702C224.195 986.527 231.216 981.307 237.443 975.178L258.088 999.522C252.931 1004.55 243.833 1013.27 237.03 1015.56C237.508 1013.57 237.275 1011.43 236.373 1009.54C235.471 1007.64 233.958 1006.12 232.105 1005.22C231.027 1004.65 229.829 1004.4 228.646 1004.5C227.464 1004.59 226.345 1005.03 225.42 1005.76C224.494 1006.49 223.797 1007.49 223.411 1008.63C223.024 1009.77 222.963 1011.02 223.233 1012.23C225.643 1024.53 239.595 1019.77 251.479 1009.84ZM211.666 981.761C212.3 981.255 213.099 981.008 213.918 981.065C214.737 981.123 215.522 981.481 216.128 982.074C217.95 983.817 217.561 987.45 213.536 988.497C210.05 989.395 209.725 983.483 211.666 981.761ZM239.625 973.107L243.457 969.395C250.958 976.739 258.018 984.548 264.592 992.775C263.171 994.36 261.735 995.954 260.225 997.452C253.384 989.331 246.517 981.216 239.625 973.107ZM226.149 1011.51C225.19 1005.21 236.531 1006.92 233.796 1016.3C229.301 1016.69 226.574 1014.31 226.149 1011.51ZM96.977 994.443C102.748 989.59 108.163 984.311 113.183 978.643C113.463 978.36 113.622 977.974 113.63 977.562C113.637 977.15 113.491 976.744 113.222 976.427C110.774 973.328 90.545 949.592 88.9012 949.928C87.8857 949.599 78.3229 961.59 65.6024 969.615C65.6822 968.178 65.2869 966.734 64.4809 965.518C63.6748 964.302 62.5051 963.385 61.1616 962.917C60.1276 962.583 59.0408 962.511 57.9957 962.707C56.9506 962.904 55.9788 963.363 55.1647 964.044C54.3507 964.726 53.7191 965.609 53.3249 966.618C52.9306 967.626 52.7856 968.729 52.9024 969.831C52.9186 971.004 53.2248 972.166 53.7922 973.208C54.3596 974.249 55.1694 975.136 56.145 975.783C57.1159 976.209 58.1629 976.39 59.1957 976.309C60.2285 976.228 61.216 975.888 62.0728 975.319C69.7042 971.142 76.7244 965.921 82.9518 959.792L103.598 984.139C98.3971 989.2 89.3461 997.883 82.539 1000.17C84.4332 986.58 66.6079 985.913 68.7336 996.84C71.1344 1009.11 85.187 1004.31 96.977 994.443ZM57.1571 966.397C57.7905 965.89 58.5896 965.643 59.4083 965.7C60.227 965.758 61.0108 966.117 61.6166 966.711C63.4561 968.466 63.0314 972.1 59.0226 973.131C55.555 974.011 55.2268 968.1 57.1571 966.397ZM85.1303 957.73L88.9647 954.022C96.4649 961.366 103.524 969.175 110.099 977.402C108.679 978.987 107.233 980.564 105.733 982.079C98.8613 973.942 91.9962 965.831 85.1303 957.73ZM71.6559 996.135C70.7155 989.9 82.0335 991.548 79.303 1000.93C74.7833 1001.31 72.0746 998.925 71.6559 996.135ZM154.297 1051.05C154.006 1049.92 138.752 1049.81 123.868 1044.62C125.022 1043.72 125.82 1042.43 126.127 1040.96C126.434 1039.49 126.23 1037.93 125.55 1036.56C124.673 1035.15 123.367 1034.08 121.851 1033.52C120.335 1032.95 118.699 1032.93 117.215 1033.46C115.731 1033.99 114.489 1035.03 113.695 1036.41C112.9 1037.8 112.602 1039.44 112.849 1041.07C113.532 1043.84 116.427 1045.03 118.716 1045.98C126.547 1049.03 134.664 1051.12 142.894 1052.21C141.546 1062.61 140.202 1073.02 138.86 1083.43C131.466 1082.44 119.177 1080.65 112.677 1076.74C123.818 1070.05 112.83 1056.28 106.247 1063.24C99.8256 1070.04 105.998 1080.22 126.785 1084.57C134.322 1086.13 141.932 1087.16 149.562 1087.65C149.893 1087.67 150.219 1087.58 150.487 1087.39C150.756 1087.2 150.953 1086.93 151.047 1086.6C152.103 1080.17 155.479 1052.25 154.297 1051.05ZM120.424 1036C121.265 1036.17 122.026 1036.66 122.555 1037.37C123.084 1038.08 123.343 1038.96 123.281 1039.84C123.104 1042.14 120.551 1044.04 116.99 1041.8C113.724 1039.66 117.646 1035.55 120.424 1036ZM113.115 1065.77C116.19 1069.3 113.237 1073.15 109.9 1074.6C103.795 1068.45 109.493 1061.57 113.115 1065.77ZM145.886 1052.67C147.668 1052.93 149.455 1053.16 151.243 1053.4C150.906 1063.81 149.925 1074.15 148.306 1084.38C146.17 1084.23 144.02 1084.05 141.856 1083.82C143.218 1073.46 144.551 1063.08 145.886 1052.67ZM215.157 748.497C212.807 748.677 210.653 749.787 209.144 751.597C208.976 751.747 208.847 751.937 208.766 752.151C208.685 752.366 208.654 752.599 208.676 752.832C208.699 753.065 208.774 753.292 208.895 753.495C209.016 753.697 209.18 753.87 209.374 753.999C209.235 755.128 209.392 756.288 209.826 757.36C210.261 758.433 210.959 759.379 211.85 760.104C212.74 760.828 213.791 761.304 214.895 761.483C215.999 761.663 217.117 761.54 218.135 761.126C219.483 760.552 220.573 759.502 221.219 758.158C221.864 756.813 222.024 755.259 221.671 753.762C221.318 752.265 220.475 750.92 219.285 749.959C218.096 748.998 216.636 748.481 215.157 748.497ZM216.991 758.138C216.575 758.327 216.121 758.423 215.659 758.419C215.197 758.415 214.737 758.312 214.308 758.116C213.878 757.92 213.49 757.635 213.167 757.28C212.844 756.925 212.594 756.507 212.432 756.054C212.271 755.601 212.201 755.122 212.229 754.648C212.256 754.173 212.38 753.715 212.591 753.3C212.803 752.886 213.098 752.526 213.458 752.243C213.818 751.959 214.234 751.759 214.681 751.655C215.481 751.462 216.336 751.59 217.075 752.011C217.815 752.433 218.386 753.118 218.676 753.932C218.966 754.746 218.954 755.63 218.643 756.409C218.331 757.188 217.741 757.803 216.991 758.138ZM222.94 792.954C222.388 793.819 222.038 794.808 221.914 795.849C221.79 796.891 221.896 797.957 222.224 798.971C222.553 799.984 223.094 800.918 223.81 801.703C224.525 802.489 225.396 803.106 226.358 803.51C227.72 804.172 229.253 804.284 230.646 803.824C232.039 803.363 233.186 802.364 233.854 801.031C234.298 800.067 234.533 799.008 234.542 797.924C234.551 796.84 234.335 795.756 233.908 794.746C233.481 793.736 232.852 792.823 232.065 792.068C231.278 791.313 230.35 790.734 229.344 790.369C229.295 790.131 229.193 789.906 229.046 789.712C228.899 789.518 228.711 789.361 228.497 789.252C228.284 789.144 228.051 789.088 227.817 789.089C227.583 789.089 227.355 789.147 227.152 789.257C226.848 789.375 226.552 789.511 226.266 789.666C225.079 789.559 223.89 789.634 222.74 789.89C222.405 789.973 222.113 790.174 221.913 790.459C221.713 790.743 221.616 791.094 221.64 791.453C221.663 791.812 221.805 792.156 222.042 792.43C222.278 792.703 222.595 792.888 222.94 792.954ZM230.623 795.001L230.677 795.067C232.543 797.831 231.144 801.819 227.99 800.843C224.155 799.683 224.033 795.239 227.061 792.91C228.444 793.125 229.718 793.872 230.623 795.001Z" fill="url(#paint0_linear_3536_6646)"/>
<path d="M476.512 1715.8C309.89 1679.04 13.4484 1579.48 160.661 1475.38C344.677 1345.26 608.841 1318.24 396.866 1105.75C184.892 893.259 300.143 805.282 392 715.018C501.635 607.283 520.415 475.454 366.806 476.578C106.706 544.851 101.389 537.941 -72.4527 358.887" stroke="url(#paint1_linear_3536_6646)" stroke-width="2" stroke-dasharray="14 14"/>
<path d="M245.877 1382.43C245.642 1382.13 245.536 1381.76 245.582 1381.4C245.627 1381.03 245.82 1380.71 246.118 1380.5L257.786 1372.1C258.084 1371.88 258.463 1371.8 258.839 1371.85C259.216 1371.91 259.559 1372.11 259.793 1372.41C260.027 1372.71 260.133 1373.08 260.088 1373.45C260.042 1373.81 259.849 1374.13 259.551 1374.35L247.838 1382.78C247.539 1382.98 247.167 1383.05 246.802 1382.98C246.436 1382.92 246.104 1382.72 245.877 1382.43Z" fill="url(#paint2_linear_3536_6646)"/>
<path d="M263.222 1369.87C262.179 1368.54 261.713 1366.89 261.913 1365.28C262.113 1363.68 262.959 1362.27 264.255 1361.33L283.733 1347.31C285.031 1346.38 286.687 1346 288.345 1346.26C290.005 1346.52 291.531 1347.41 292.576 1348.75C293.621 1350.08 294.088 1351.73 293.888 1353.33C293.689 1354.92 292.842 1356.34 291.547 1357.27L272.037 1371.31C270.74 1372.23 269.09 1372.61 267.439 1372.35C265.785 1372.09 264.266 1371.2 263.222 1369.87Z" stroke="url(#paint3_linear_3536_6646)" stroke-width="3"/>
<path d="M257.543 1374.03C255.28 1371.14 254.256 1367.55 254.694 1364.04C255.132 1360.53 256.997 1357.39 259.88 1355.31L269.075 1348.69C269.373 1348.47 269.752 1348.39 270.128 1348.45C270.505 1348.51 270.848 1348.71 271.082 1349.01C271.316 1349.3 271.422 1349.68 271.377 1350.04C271.331 1350.4 271.139 1350.72 270.84 1350.94L261.69 1357.53C260.498 1358.32 259.493 1359.34 258.736 1360.54C257.978 1361.73 257.483 1363.07 257.281 1364.48C257.078 1365.89 257.172 1367.33 257.557 1368.73C257.941 1370.12 258.609 1371.44 259.52 1372.6C260.431 1373.76 261.566 1374.74 262.858 1375.48C264.149 1376.23 265.571 1376.72 267.038 1376.92C268.506 1377.13 269.988 1377.04 271.397 1376.68C272.806 1376.31 274.112 1375.67 275.239 1374.8L284.389 1368.21C284.687 1368 285.066 1367.91 285.442 1367.97C285.818 1368.03 286.161 1368.23 286.395 1368.53C286.629 1368.83 286.736 1369.2 286.69 1369.56C286.645 1369.92 286.452 1370.25 286.154 1370.46L277.004 1377.05C275.576 1378.08 273.94 1378.83 272.189 1379.24C270.437 1379.64 268.606 1379.71 266.798 1379.43C264.991 1379.15 263.243 1378.53 261.655 1377.6C260.067 1376.68 258.669 1375.46 257.543 1374.03Z" fill="url(#paint4_linear_3536_6646)"/>
<path d="M251.175 1390.38L239.392 1375.35C239.158 1375.06 239.052 1374.68 239.097 1374.32C239.143 1373.96 239.336 1373.63 239.634 1373.42C239.932 1373.2 240.311 1373.12 240.687 1373.18C241.063 1373.24 241.406 1373.44 241.64 1373.74L253.423 1388.76C253.658 1389.06 253.764 1389.43 253.718 1389.79C253.673 1390.15 253.48 1390.48 253.182 1390.69C252.884 1390.91 252.505 1390.99 252.129 1390.94C251.752 1390.88 251.409 1390.67 251.175 1390.38Z" fill="url(#paint5_linear_3536_6646)"/>
<defs>
<linearGradient id="paint0_linear_3536_6646" x1="28.2306" y1="924.087" x2="145.817" y2="1087.56" gradientUnits="userSpaceOnUse">
<stop stop-color="#4C60E9"/>
<stop offset="1" stop-color="#7485FF"/>
</linearGradient>
<linearGradient id="paint1_linear_3536_6646" x1="616.65" y1="563.978" x2="-82.4328" y2="402.96" gradientUnits="userSpaceOnUse">
<stop stop-color="#4C60E9"/>
<stop offset="1" stop-color="#7485FF"/>
</linearGradient>
<linearGradient id="paint2_linear_3536_6646" x1="245.455" y1="1381.89" x2="246.743" y2="1383.6" gradientUnits="userSpaceOnUse">
<stop stop-color="#4C60E9"/>
<stop offset="1" stop-color="#7485FF"/>
</linearGradient>
<linearGradient id="paint3_linear_3536_6646" x1="259.691" y1="1367.8" x2="267.039" y2="1376.92" gradientUnits="userSpaceOnUse">
<stop stop-color="#4C60E9"/>
<stop offset="1" stop-color="#7485FF"/>
</linearGradient>
<linearGradient id="paint4_linear_3536_6646" x1="253.458" y1="1368.82" x2="267.76" y2="1383.62" gradientUnits="userSpaceOnUse">
<stop stop-color="#4C60E9"/>
<stop offset="1" stop-color="#7485FF"/>
</linearGradient>
<linearGradient id="paint5_linear_3536_6646" x1="242.047" y1="1378.74" x2="253.356" y2="1379.87" gradientUnits="userSpaceOnUse">
<stop stop-color="#4C60E9"/>
<stop offset="1" stop-color="#7485FF"/>
</linearGradient>
</defs>
</svg>
