<svg width="1411" height="2555" viewBox="0 0 1411 2555" fill="none" xmlns="http://www.w3.org/2000/svg">
<g clip-path="url(#clip0_3536_8983)">
<path d="M1224.38 1066.35C1227.94 1063.62 1232.21 1061.97 1236.65 1061.62C1241.09 1061.27 1245.5 1062.24 1249.34 1064.4C1253.17 1066.56 1256.24 1069.81 1258.17 1073.75C1260.1 1077.69 1260.8 1082.14 1260.18 1086.53C1259.56 1090.92 1257.65 1095.06 1254.68 1098.42C1251.72 1101.78 1247.84 1104.22 1243.53 1105.42C1239.22 1106.62 1234.68 1106.54 1230.48 1105.17C1226.28 1103.81 1222.61 1101.23 1219.94 1097.75C1216.06 1092.73 1214.31 1086.37 1215.06 1079.99" stroke="url(#paint0_linear_3536_8983)" stroke-width="1.71429" stroke-linecap="round" stroke-linejoin="round"/>
<path d="M1210.58 1085.6L1215.06 1079.99L1220.61 1084.33" stroke="url(#paint1_linear_3536_8983)" stroke-width="1.71429" stroke-linecap="round" stroke-linejoin="round"/>
<path d="M1230.63 1074.46L1238.95 1085.26L1248.85 1083.23" stroke="url(#paint2_linear_3536_8983)" stroke-width="1.71429" stroke-linecap="round" stroke-linejoin="round"/>
</g>
<g clip-path="url(#clip1_3536_8983)">
<path d="M1217.44 959.604L1250.42 934.188" stroke="url(#paint3_linear_3536_8983)" stroke-width="1.71429" stroke-linecap="round" stroke-linejoin="round"/>
<path d="M1228.38 939.696L1233.93 946.897" stroke="url(#paint4_linear_3536_8983)" stroke-width="1.71429" stroke-linecap="round" stroke-linejoin="round"/>
<path d="M1244.93 938.425L1242.36 980.572" stroke="url(#paint5_linear_3536_8983)" stroke-width="1.71429" stroke-linecap="round" stroke-linejoin="round"/>
<path d="M1222.94 955.369L1256.59 962.08" stroke="url(#paint6_linear_3536_8983)" stroke-width="1.71429" stroke-linecap="round" stroke-linejoin="round"/>
<path d="M1272.48 980.312L1261.66 948.65C1261.1 947.027 1261.66 945.214 1263.04 944.15C1264.42 943.087 1266.31 943.01 1267.74 943.96L1295.6 962.498M1268.56 968.853L1285.52 955.789" stroke="url(#paint7_linear_3536_8983)" stroke-width="1.71429" stroke-linecap="round" stroke-linejoin="round"/>
</g>
<g clip-path="url(#clip2_3536_8983)">
<path d="M1245.64 860.528L1216.57 844.663C1214.64 843.611 1213.21 841.836 1212.59 839.729C1211.98 837.623 1212.22 835.356 1213.27 833.429L1225.67 810.719" stroke="url(#paint8_linear_3536_8983)" stroke-width="1.71429" stroke-linecap="round" stroke-linejoin="round"/>
<path d="M1233.1 823.027L1262.16 838.892C1264.09 839.944 1265.52 841.719 1266.14 843.825C1266.76 845.932 1266.52 848.199 1265.47 850.126" stroke="url(#paint9_linear_3536_8983)" stroke-width="1.71429" stroke-linecap="round" stroke-linejoin="round"/>
<path d="M1254.23 853.427L1252.42 852.435C1251.93 852.172 1251.37 852.112 1250.84 852.266C1250.31 852.421 1249.87 852.779 1249.61 853.261L1240.68 869.612C1240.42 870.094 1240.36 870.66 1240.51 871.187C1240.67 871.714 1241.03 872.157 1241.51 872.42L1243.33 873.412C1245.25 874.464 1247.52 874.707 1249.63 874.088C1251.73 873.469 1253.51 872.038 1254.56 870.111L1265.47 850.126C1264.41 852.054 1262.64 853.484 1260.53 854.103C1258.43 854.722 1256.16 854.479 1254.23 853.427Z" stroke="url(#paint10_linear_3536_8983)" stroke-width="1.71429" stroke-linecap="round" stroke-linejoin="round"/>
<path d="M1225.67 810.718C1226.59 809.032 1228.14 807.78 1229.98 807.239C1231.83 806.697 1233.81 806.91 1235.5 807.83L1238.22 809.317C1238.7 809.58 1239.06 810.024 1239.21 810.551C1239.37 811.077 1239.31 811.644 1239.05 812.126L1233.1 823.027L1228.55 820.548C1226.87 819.627 1225.62 818.074 1225.07 816.231C1224.53 814.388 1224.75 812.405 1225.67 810.718Z" stroke="url(#paint11_linear_3536_8983)" stroke-width="1.71429" stroke-linecap="round" stroke-linejoin="round"/>
<path d="M1226.98 838.553L1229.96 833.102" stroke="url(#paint12_linear_3536_8983)" stroke-width="1.71429" stroke-linecap="round" stroke-linejoin="round"/>
<path d="M1237.88 844.503L1240.86 839.053" stroke="url(#paint13_linear_3536_8983)" stroke-width="1.71429" stroke-linecap="round" stroke-linejoin="round"/>
</g>
<g clip-path="url(#clip3_3536_8983)">
<path d="M1163.52 751.544L1160.28 754.041C1159.7 754.483 1159.34 755.14 1159.25 755.869C1159.17 756.597 1159.37 757.337 1159.83 757.926L1163.25 762.367C1163.7 762.956 1164.37 763.345 1165.09 763.449C1165.82 763.554 1166.55 763.364 1167.12 762.923L1170.36 760.426L1163.52 751.544Z" stroke="url(#paint14_linear_3536_8983)" stroke-width="1.6" stroke-linecap="round" stroke-linejoin="round"/>
<path d="M1170.36 760.426L1183.62 760.156C1184.1 760.137 1184.57 759.99 1184.97 759.729C1185.37 759.468 1185.7 759.102 1185.91 758.669C1186.15 758.21 1186.26 757.689 1186.21 757.165C1186.17 756.641 1185.98 756.137 1185.66 755.711L1171.98 737.948C1171.68 737.542 1171.28 737.222 1170.82 737.021C1170.36 736.82 1169.86 736.745 1169.37 736.805C1168.9 736.901 1168.47 737.122 1168.11 737.445C1167.75 737.769 1167.49 738.183 1167.35 738.647L1163.52 751.545" stroke="url(#paint15_linear_3536_8983)" stroke-width="1.6" stroke-linecap="round" stroke-linejoin="round"/>
<path d="M1182.33 733.51C1185.27 734.219 1187.87 736 1189.63 738.506C1191.71 741.273 1193.03 744.531 1193.45 747.942" stroke="url(#paint16_linear_3536_8983)" stroke-width="1.6" stroke-linecap="round" stroke-linejoin="round"/>
<path d="M1180.58 740.17C1182.05 740.524 1183.35 741.415 1184.22 742.668C1185.21 743.835 1185.74 745.319 1185.71 746.831" stroke="url(#paint17_linear_3536_8983)" stroke-width="1.6" stroke-linecap="round" stroke-linejoin="round"/>
</g>
<path fill-rule="evenodd" clip-rule="evenodd" d="M1207.09 769.779C1206.84 769.654 1206.54 769.625 1206.27 769.699C1205.99 769.773 1205.75 769.943 1205.59 770.18C1205.43 770.416 1205.37 770.703 1205.4 770.986C1205.43 771.269 1205.57 771.531 1205.78 771.722C1211.38 776.777 1214.68 778.701 1218.24 785.798C1218.91 787.12 1221.25 785.964 1220.61 784.623C1218.03 779.368 1212.74 771.942 1207.09 769.779Z" fill="url(#paint18_linear_3536_8983)"/>
<path fill-rule="evenodd" clip-rule="evenodd" d="M1196.25 781.027C1197.97 784.482 1210.07 798.339 1212.7 801.439C1213.79 802.736 1215.52 800.894 1214.52 799.619C1212 796.425 1201.14 781.949 1198.14 779.575C1197.93 779.367 1197.66 779.241 1197.36 779.222C1197.07 779.202 1196.78 779.289 1196.55 779.468C1196.32 779.646 1196.16 779.903 1196.11 780.19C1196.05 780.477 1196.1 780.775 1196.25 781.027Z" fill="url(#paint19_linear_3536_8983)"/>
<path fill-rule="evenodd" clip-rule="evenodd" d="M1264.84 921.397C1264.92 921.688 1265.1 921.943 1265.34 922.119C1265.58 922.296 1265.88 922.383 1266.18 922.366C1266.48 922.349 1266.77 922.228 1266.99 922.026C1267.21 921.823 1267.36 921.549 1267.4 921.252C1267.34 912.674 1264.15 895.216 1258.46 888.296C1257.59 887.245 1255.53 887.967 1256.25 889.268C1256.03 890.327 1264.02 901.297 1264.84 921.397Z" fill="url(#paint20_linear_3536_8983)"/>
<path fill-rule="evenodd" clip-rule="evenodd" d="M1241.77 890.384C1245.53 894.573 1247.31 907.3 1247.33 912.51C1247.33 914.138 1244.97 913.95 1244.92 912.432C1244.58 900.286 1240.52 895.593 1239.73 891.484C1239.25 890.959 1240.62 889.26 1241.77 890.384Z" fill="url(#paint21_linear_3536_8983)"/>
<path fill-rule="evenodd" clip-rule="evenodd" d="M1263.73 1038.88C1263.72 1039.24 1263.84 1039.58 1264.08 1039.83C1264.32 1040.09 1264.65 1040.25 1265 1040.27C1265.35 1040.29 1265.69 1040.17 1265.96 1039.94C1266.22 1039.71 1266.39 1039.39 1266.42 1039.04C1266.78 1032.48 1266.48 1013.38 1263.41 1007.05C1262.89 1005.95 1260.88 1006.32 1261.07 1007.56C1260.47 1008.12 1264.4 1024.6 1263.73 1038.88Z" fill="url(#paint22_linear_3536_8983)"/>
<path fill-rule="evenodd" clip-rule="evenodd" d="M1247.99 1028.06C1248.38 1037.82 1250.81 1041.79 1246.68 1052.33C1246.59 1052.63 1246.62 1052.96 1246.76 1053.24C1246.89 1053.53 1247.13 1053.75 1247.42 1053.88C1247.71 1054 1248.04 1054.02 1248.34 1053.92C1248.64 1053.82 1248.89 1053.62 1249.06 1053.35C1251.77 1047.17 1252.77 1040.37 1251.95 1033.66C1250.72 1023.96 1247.94 1026.7 1247.99 1028.06Z" fill="url(#paint23_linear_3536_8983)"/>
<path fill-rule="evenodd" clip-rule="evenodd" d="M1136.56 713.4C1135.47 712.891 1133.8 714.402 1135.02 715.094C1143.87 720.674 1152.11 727.15 1159.63 734.422C1160.84 735.585 1162.21 733.512 1161.07 732.294C1153.72 724.973 1145.47 718.617 1136.52 713.377L1136.56 713.4Z" fill="url(#paint24_linear_3536_8983)"/>
<path d="M827.963 763.594C977.632 640.325 1186.96 708.947 1176.9 913.587C1164.31 1169.39 1003.33 1424.6 1341.96 1383.94C1680.6 1343.27 1755.08 1520.79 1694.87 1653.44C1646.69 1759.57 1497.31 1904.86 1428.64 1964.25" stroke="url(#paint25_linear_3536_8983)" stroke-width="2" stroke-dasharray="14 14"/>
<defs>
<linearGradient id="paint0_linear_3536_8983" x1="1242.85" y1="1108.08" x2="1266.37" y2="1084.08" gradientUnits="userSpaceOnUse">
<stop stop-color="#4C60E9"/>
<stop offset="1" stop-color="#7485FF"/>
</linearGradient>
<linearGradient id="paint1_linear_3536_8983" x1="1215.5" y1="1088.26" x2="1219.84" y2="1083.52" gradientUnits="userSpaceOnUse">
<stop stop-color="#4C60E9"/>
<stop offset="1" stop-color="#7485FF"/>
</linearGradient>
<linearGradient id="paint2_linear_3536_8983" x1="1243.53" y1="1087.32" x2="1248.6" y2="1082.83" gradientUnits="userSpaceOnUse">
<stop stop-color="#4C60E9"/>
<stop offset="1" stop-color="#7485FF"/>
</linearGradient>
<linearGradient id="paint3_linear_3536_8983" x1="1226.66" y1="953.76" x2="1224.16" y2="948.984" gradientUnits="userSpaceOnUse">
<stop stop-color="#4C60E9"/>
<stop offset="1" stop-color="#7485FF"/>
</linearGradient>
<linearGradient id="paint4_linear_3536_8983" x1="1234.14" y1="946.738" x2="1234.72" y2="946.273" gradientUnits="userSpaceOnUse">
<stop stop-color="#4C60E9"/>
<stop offset="1" stop-color="#7485FF"/>
</linearGradient>
<linearGradient id="paint5_linear_3536_8983" x1="1248.1" y1="976.148" x2="1262.82" y2="961.725" gradientUnits="userSpaceOnUse">
<stop stop-color="#4C60E9"/>
<stop offset="1" stop-color="#7485FF"/>
</linearGradient>
<linearGradient id="paint6_linear_3536_8983" x1="1243.38" y1="972.253" x2="1255.35" y2="960.534" gradientUnits="userSpaceOnUse">
<stop stop-color="#4C60E9"/>
<stop offset="1" stop-color="#7485FF"/>
</linearGradient>
<linearGradient id="paint7_linear_3536_8983" x1="1278.52" y1="975.661" x2="1294.05" y2="960.542" gradientUnits="userSpaceOnUse">
<stop stop-color="#4C60E9"/>
<stop offset="1" stop-color="#7485FF"/>
</linearGradient>
<linearGradient id="paint8_linear_3536_8983" x1="1249.91" y1="852.701" x2="1259.5" y2="829.207" gradientUnits="userSpaceOnUse">
<stop stop-color="#4C60E9"/>
<stop offset="1" stop-color="#7485FF"/>
</linearGradient>
<linearGradient id="paint9_linear_3536_8983" x1="1266.5" y1="848.228" x2="1269.32" y2="842.718" gradientUnits="userSpaceOnUse">
<stop stop-color="#4C60E9"/>
<stop offset="1" stop-color="#7485FF"/>
</linearGradient>
<linearGradient id="paint10_linear_3536_8983" x1="1254.48" y1="870.262" x2="1258.21" y2="848.613" gradientUnits="userSpaceOnUse">
<stop stop-color="#4C60E9"/>
<stop offset="1" stop-color="#7485FF"/>
</linearGradient>
<linearGradient id="paint11_linear_3536_8983" x1="1234.91" y1="819.706" x2="1238.49" y2="809.626" gradientUnits="userSpaceOnUse">
<stop stop-color="#4C60E9"/>
<stop offset="1" stop-color="#7485FF"/>
</linearGradient>
<linearGradient id="paint12_linear_3536_8983" x1="1228.63" y1="837.609" x2="1227.92" y2="834.141" gradientUnits="userSpaceOnUse">
<stop stop-color="#4C60E9"/>
<stop offset="1" stop-color="#7485FF"/>
</linearGradient>
<linearGradient id="paint13_linear_3536_8983" x1="1239.54" y1="843.559" x2="1238.82" y2="840.091" gradientUnits="userSpaceOnUse">
<stop stop-color="#4C60E9"/>
<stop offset="1" stop-color="#7485FF"/>
</linearGradient>
<linearGradient id="paint14_linear_3536_8983" x1="1166.37" y1="763.501" x2="1170.12" y2="760.077" gradientUnits="userSpaceOnUse">
<stop stop-color="#4C60E9"/>
<stop offset="1" stop-color="#7485FF"/>
</linearGradient>
<linearGradient id="paint15_linear_3536_8983" x1="1178.58" y1="764.668" x2="1186.91" y2="757.212" gradientUnits="userSpaceOnUse">
<stop stop-color="#4C60E9"/>
<stop offset="1" stop-color="#7485FF"/>
</linearGradient>
<linearGradient id="paint16_linear_3536_8983" x1="1194.02" y1="747.505" x2="1195.62" y2="746.221" gradientUnits="userSpaceOnUse">
<stop stop-color="#4C60E9"/>
<stop offset="1" stop-color="#7485FF"/>
</linearGradient>
<linearGradient id="paint17_linear_3536_8983" x1="1185.99" y1="746.612" x2="1186.79" y2="745.969" gradientUnits="userSpaceOnUse">
<stop stop-color="#4C60E9"/>
<stop offset="1" stop-color="#7485FF"/>
</linearGradient>
<linearGradient id="paint18_linear_3536_8983" x1="1220.78" y1="785.317" x2="1223.69" y2="780.529" gradientUnits="userSpaceOnUse">
<stop stop-color="#4C60E9"/>
<stop offset="1" stop-color="#7485FF"/>
</linearGradient>
<linearGradient id="paint19_linear_3536_8983" x1="1215.34" y1="800.13" x2="1219.23" y2="793.707" gradientUnits="userSpaceOnUse">
<stop stop-color="#4C60E9"/>
<stop offset="1" stop-color="#7485FF"/>
</linearGradient>
<linearGradient id="paint20_linear_3536_8983" x1="1270" y1="917.632" x2="1278.24" y2="901.639" gradientUnits="userSpaceOnUse">
<stop stop-color="#4C60E9"/>
<stop offset="1" stop-color="#7485FF"/>
</linearGradient>
<linearGradient id="paint21_linear_3536_8983" x1="1249" y1="910.442" x2="1254.73" y2="899.158" gradientUnits="userSpaceOnUse">
<stop stop-color="#4C60E9"/>
<stop offset="1" stop-color="#7485FF"/>
</linearGradient>
<linearGradient id="paint22_linear_3536_8983" x1="1268.62" y1="1032.98" x2="1270.37" y2="1010.57" gradientUnits="userSpaceOnUse">
<stop stop-color="#4C60E9"/>
<stop offset="1" stop-color="#7485FF"/>
</linearGradient>
<linearGradient id="paint23_linear_3536_8983" x1="1251.1" y1="1047.9" x2="1250.84" y2="1029.48" gradientUnits="userSpaceOnUse">
<stop stop-color="#4C60E9"/>
<stop offset="1" stop-color="#7485FF"/>
</linearGradient>
<linearGradient id="paint24_linear_3536_8983" x1="1161.34" y1="734.096" x2="1163.28" y2="731.095" gradientUnits="userSpaceOnUse">
<stop stop-color="#4C60E9"/>
<stop offset="1" stop-color="#7485FF"/>
</linearGradient>
<linearGradient id="paint25_linear_3536_8983" x1="1537.71" y1="1902.84" x2="1829.4" y2="1697.68" gradientUnits="userSpaceOnUse">
<stop stop-color="#4C60E9"/>
<stop offset="1" stop-color="#7485FF"/>
</linearGradient>
<clipPath id="clip0_3536_8983">
<rect width="48.8634" height="47.727" fill="white" transform="translate(1203.99 1079.92) rotate(-37.6172)"/>
</clipPath>
<clipPath id="clip1_3536_8983">
<rect width="64.7724" height="63.636" fill="white" transform="translate(1208.67 952.016) rotate(-37.6172)"/>
</clipPath>
<clipPath id="clip2_3536_8983">
<rect width="57.9542" height="57.9542" fill="white" transform="translate(1200.55 852.422) rotate(-61.3747)"/>
</clipPath>
<clipPath id="clip3_3536_8983">
<rect width="40.9089" height="42.0452" fill="white" transform="translate(1147.63 744.327) rotate(-37.6172)"/>
</clipPath>
</defs>
</svg>
