<svg width="390" height="210" viewBox="0 0 390 210" fill="none" xmlns="http://www.w3.org/2000/svg">
<g clip-path="url(#clip0_3536_7476)">
<path fill-rule="evenodd" clip-rule="evenodd" d="M243.996 112.847H288.095C295.671 112.847 296.811 122.149 288.691 122.262C280.571 122.375 245.256 122.659 243.996 122.659C243.21 122.659 243.503 112.847 243.996 112.847Z" fill="#FEB186"/>
<path fill-rule="evenodd" clip-rule="evenodd" d="M202.316 89.6667C202.324 87.6192 203.1 85.6493 204.49 84.1457C205.879 82.6422 207.783 81.7144 209.823 81.5455C214.444 81.1138 315.298 81.3558 320.632 81.5455C325.966 81.7352 328.47 85.3519 328.693 88.5795C328.85 90.8488 329.03 97.1313 328.046 97.1313C325.103 97.1313 204.042 97.4377 202.609 97.4596C201.765 97.4718 202.316 90.5229 202.316 89.6667ZM226.376 93.1217C231.191 93.1217 231.632 85.6061 226.643 85.6061C226.128 85.5505 225.607 85.6015 225.113 85.7561C224.619 85.9107 224.162 86.1655 223.77 86.5046C223.379 86.8437 223.061 87.2598 222.838 87.7271C222.614 88.1943 222.489 88.7025 222.471 89.2201C222.452 89.7378 222.541 90.2536 222.73 90.7356C222.92 91.2175 223.207 91.6551 223.574 92.0212C223.94 92.3873 224.378 92.674 224.86 92.8633C225.342 93.0526 225.858 93.1406 226.376 93.1217ZM213.586 93.1217C214.1 93.1776 214.621 93.1269 215.115 92.9727C215.61 92.8186 216.067 92.5642 216.459 92.2256C216.85 91.8869 217.168 91.4712 217.392 91.0044C217.616 90.5376 217.741 90.0296 217.76 89.5122C217.779 88.9948 217.691 88.479 217.502 87.997C217.313 87.515 217.027 87.0771 216.661 86.7106C216.295 86.3442 215.858 86.057 215.376 85.8669C214.895 85.6769 214.379 85.5881 213.862 85.6061C208.901 85.6025 208.468 93.1217 213.586 93.1217Z" fill="#FEB186"/>
<path fill-rule="evenodd" clip-rule="evenodd" d="M202.712 125.128C201.912 116.807 201.843 108.433 202.505 100.1C202.589 99.0383 204.229 99.2378 204.144 100.299C203.587 107.202 203.414 121.477 204.791 128.513C206.168 135.55 211.212 134.65 216.778 134.716L312.329 135.837C329.404 136.036 327.237 134.986 327.44 100.403C327.44 99.6427 328.733 99.6257 328.778 100.403C329.047 105.124 329.251 124.437 328.477 129.261C326.913 138.99 317.167 137.494 309.24 137.409L219.652 136.382C209.373 136.269 203.934 137.85 202.712 125.128Z" fill="#29175F"/>
<path fill-rule="evenodd" clip-rule="evenodd" d="M241.056 112.967C241.139 112.971 241.22 112.991 241.295 113.025C241.37 113.06 241.438 113.11 241.494 113.17C241.607 113.294 241.667 113.456 241.66 113.624C241.653 113.791 241.58 113.948 241.457 114.061C241.334 114.175 241.171 114.234 241.004 114.227C232.624 114.676 224.141 114.136 215.821 114.615C212.861 114.787 211.459 116.058 211.322 117.403C210.928 121.392 217.734 120.937 220.078 120.998H240.703C241.748 120.998 241.676 122.711 240.634 122.7C233.489 122.642 226.349 122.55 219.214 122.519C215.809 122.503 209.51 122.397 209.843 117.411C210.113 113.355 214.908 113.123 217.92 113.096C225.229 113.032 234.1 112.687 241.056 112.967Z" fill="#FEB186"/>
<path fill-rule="evenodd" clip-rule="evenodd" d="M309.308 106.219C309.497 105.657 310.31 105.822 310.498 106.279C310.873 107.192 310.964 114.339 311.008 115.668C312.102 114.805 313.186 113.948 314.291 113.132C314.499 112.977 316.26 112.977 314.205 115.004C313.003 116.193 311.665 117.236 310.219 118.11C309.502 118.292 306.692 115.094 306.058 114.503C304.522 113.07 305.815 112.536 306.283 112.631C307.39 113.373 308.406 114.242 309.313 115.22C309.313 113.572 308.881 107.452 309.313 106.175L309.308 106.219Z" fill="#29175F"/>
<path fill-rule="evenodd" clip-rule="evenodd" d="M319.035 123.237C320.008 123.197 319.972 120.075 320.028 119.293C320.214 116.704 318.639 117.982 318.639 117.982C318.19 118.468 318.224 121.244 318.241 121.84C312.744 121.43 307.221 121.482 301.732 121.995C301.88 120.268 302.371 117.921 301.146 117.835C299.922 117.748 300.153 119.474 300.136 120.89C300.12 122.167 299.826 123.752 300.679 123.738C306.884 123.632 312.909 123.49 319.035 123.237Z" fill="#29175F"/>
<path fill-rule="evenodd" clip-rule="evenodd" d="M277.833 58.6593C278.187 58.1498 280.976 54.5245 281.777 54.6036C284.005 54.8067 294.317 58.0987 293.247 59.6432C291.651 66.046 288.821 77.6028 288.302 79.0172C288.087 79.6046 287.188 79.3017 287.275 78.7071C287.894 74.5017 290.632 64.5794 292.005 59.5398C288.728 57.9968 285.293 56.8143 281.76 56.0131C280.734 57.1526 279.723 58.2738 278.705 59.4656C277.117 60.6477 247.816 51.6983 244.858 50.9041C239.264 68.8285 239.174 72.3468 236.867 77.1918C236.575 77.7998 235.78 77.3292 235.858 76.7686C237.973 69.5363 240.871 56.2453 243.952 49.8923C244.531 48.6859 277.833 58.8138 277.833 58.6593Z" fill="#FEB186"/>
<path fill-rule="evenodd" clip-rule="evenodd" d="M268.575 28.6003C265.517 31.3062 254.997 44.3758 252.903 47.9926C252.577 48.5544 253.472 48.9922 253.826 48.5362C258.129 43.0029 260.481 38.9398 268.877 29.7143C280.614 37.7577 291.177 48.1483 292.868 47.5438C294.56 46.9394 296.787 46.543 298.384 46.0419C300.963 48.17 303.354 50.5173 305.528 53.0577C304.363 54.2738 295.389 64.5756 294.535 66.0812C294.184 66.6953 295.014 67.4505 295.466 66.8838C302.605 57.9283 307.491 53.7193 306.798 52.5579C305.703 50.7252 300.903 46.0079 299.136 45.2223C298.886 44.0743 293.674 46.0857 292.837 46.4299C292.834 46.3083 269.743 27.5727 268.575 28.6003Z" fill="#FEB186"/>
<path fill-rule="evenodd" clip-rule="evenodd" d="M297.166 76.9802C299.584 74.4446 303.416 70.7148 306.426 69.0232C306.989 68.7082 307.454 69.5339 307.021 69.9474C304.103 72.7275 300.971 74.9007 297.977 77.9215C297.414 78.4894 296.622 77.5555 297.166 76.9802Z" fill="#29175F"/>
<path fill-rule="evenodd" clip-rule="evenodd" d="M228.618 54.0417C228.711 53.3777 229.619 53.6282 229.688 54.1803C230.469 60.3947 230.186 66.9058 231.112 73.468C231.203 74.1161 230.078 74.2791 229.972 73.6321C229.126 68.4515 227.909 59.0703 228.618 54.0417Z" fill="#29175F"/>
<path d="M108.309 68.0441H108.317C108.449 68.0566 108.58 68.0516 108.711 68.0578V67.9482C108.579 67.9892 108.445 68.0213 108.309 68.0441Z" fill="#D1A9FF"/>
<path d="M140.444 57.3766C140.254 54.6325 139.739 51.9204 138.91 49.2966C138.327 47.2196 137.474 45.2271 136.375 43.3692C136.191 43.0751 135.988 42.7931 135.767 42.525C135.272 41.8461 134.588 41.3266 133.8 41.031C132.929 40.8357 132.036 40.7557 131.144 40.7932C129.181 40.7285 127.219 40.6343 125.257 40.5106C121.31 40.2616 117.372 39.8939 113.445 39.4076C111.212 39.1303 108.984 38.8141 106.761 38.4589C106.693 38.4501 106.624 38.4565 106.559 38.4775C107.409 38.4998 108.217 38.8534 108.809 39.4623L108.825 39.4823C109.562 40.4976 110.047 41.672 110.241 42.9097C110.92 45.8464 111.401 48.8248 111.682 51.8252C111.837 53.3192 111.962 54.8232 112.08 56.3246C112.184 57.6505 112.306 58.979 112.314 60.3086C112.327 62.6642 111.939 65.2886 110.189 67.0316C109.776 67.4503 109.269 67.7642 108.71 67.9467V68.0563C108.915 68.065 109.119 68.0812 109.322 68.0774C110.421 68.0523 111.509 67.8561 112.546 67.496C115.291 66.5397 117.558 64.5635 118.874 61.9807C120.14 59.343 120.782 56.4508 120.749 53.5271C120.606 52.3451 120.888 51.1509 121.544 50.1557C121.71 49.9542 121.924 49.7964 122.166 49.6962C122.407 49.5959 122.67 49.5562 122.931 49.5805C123.272 49.6419 123.595 49.7757 123.88 49.9727C124.164 50.1696 124.402 50.4253 124.579 50.7221C125.879 52.7398 126.615 55.0667 126.711 57.4626C126.896 56.2067 126.935 54.9338 126.827 53.669C126.709 52.3468 125.984 50.4532 127.057 49.3377C128.131 48.2222 129.699 49.0887 130.565 49.9913C131.089 50.5829 131.528 51.244 131.869 51.9559C132.266 52.7111 132.611 53.4923 132.902 54.294C132.931 54.375 132.952 54.4571 132.981 54.543L132.845 52.0393C132.7 51.2467 132.867 50.4288 133.312 49.756C133.937 49.0576 134.8 49.4398 135.38 49.9726C135.891 50.4595 136.363 50.9852 136.792 51.5451C138.598 53.9208 139.611 56.8006 139.689 59.7795C139.696 60.1244 139.689 60.4692 139.674 60.8141C139.629 61.7827 139.501 62.7526 139.371 63.7087C139.279 64.3748 139.173 65.039 139.054 65.7007C139.179 65.4729 139.291 65.2413 139.394 65.0048C140.337 62.5787 140.697 59.9661 140.444 57.3766Z" fill="#FEB186"/>
<path d="M103.977 53.191L103.997 53.2346C104.014 53.2682 104.023 53.3048 104.026 53.3422C104.028 53.3796 104.023 53.4171 104.01 53.4526C103.998 53.488 103.979 53.5206 103.954 53.5486C103.929 53.5766 103.898 53.5993 103.865 53.6155C103.849 53.623 103.833 53.6293 103.817 53.6342C103.766 53.6675 103.708 53.6877 103.647 53.6927C103.032 53.7413 102.416 53.7724 101.801 53.7961C101.827 54.4509 101.875 55.1054 101.947 55.7594C102.055 56.7554 102.206 57.7589 102.398 58.7474C102.582 58.4113 102.765 58.0751 102.942 57.7402C103.489 56.7036 104.04 55.6681 104.595 54.6339C104.595 54.6265 104.605 54.624 104.608 54.6178L104.621 54.6028C104.657 54.5444 104.713 54.4999 104.778 54.4762C104.843 54.4525 104.914 54.4511 104.98 54.4721C105.029 54.4798 105.077 54.4983 105.119 54.5262C105.161 54.5542 105.196 54.591 105.222 54.6339C106.637 56.7853 108.037 58.9466 109.483 61.0768C109.514 61.132 109.531 61.1944 109.53 61.2577C109.53 61.321 109.513 61.3832 109.482 61.4382C109.45 61.4931 109.405 61.5389 109.35 61.5712C109.295 61.6034 109.233 61.621 109.17 61.6221L108.2 61.6645L103.177 61.8886C103.514 63.2383 104.108 64.5109 104.927 65.6373C105.577 66.5316 106.542 67.1484 107.63 67.3641C108.206 67.3559 108.769 67.1887 109.256 66.881C109.743 66.5733 110.134 66.1372 110.387 65.6211C111.447 63.5695 111.847 61.2426 111.533 58.9566C111.408 56.738 111.216 54.5182 110.986 52.3046C110.951 52.3505 110.907 52.3885 110.856 52.4158C110.806 52.4431 110.75 52.4591 110.692 52.4627C109.222 52.4751 107.755 52.6382 106.286 52.5199C106.189 52.5161 106.097 52.475 106.03 52.4054C105.963 52.3358 105.926 52.243 105.926 52.1464C105.927 52.0863 105.943 52.0274 105.972 51.9746C107.201 49.8581 108.43 47.7566 109.501 45.5591C109.529 45.4912 109.582 45.4362 109.648 45.4044C109.715 45.3727 109.791 45.3667 109.862 45.3873C109.92 45.3887 109.976 45.406 110.025 45.4371C109.849 44.5071 109.647 43.5821 109.42 42.6633C109.281 41.5455 108.776 40.5046 107.982 39.7027C107.632 39.4258 107.21 39.2529 106.765 39.2036C106.321 39.1542 105.871 39.2306 105.468 39.4238C105.156 39.6924 104.875 39.9942 104.63 40.3239C103.598 41.8976 102.92 43.6744 102.641 45.533C102.37 46.8739 102.197 48.2284 102.042 49.5855C102.785 50.7067 103.422 51.8942 103.945 53.1325C103.958 53.1506 103.969 53.1702 103.977 53.191Z" fill="#29175F"/>
<path d="M101.945 55.7534C101.874 55.1002 101.826 54.4457 101.799 53.79C101.557 53.8 101.313 53.8087 101.07 53.8149C101.092 54.2955 101.124 54.7752 101.168 55.2542C101.306 56.7639 101.537 58.2637 101.862 59.7449C102.037 59.4087 102.215 59.0767 102.397 58.7489C102.204 57.7529 102.053 56.7544 101.945 55.7534Z" fill="white"/>
<path d="M103.997 53.2286L103.977 53.185C103.97 53.1636 103.961 53.1431 103.949 53.124C103.426 51.887 102.789 50.7008 102.047 49.5808C101.847 49.277 101.638 48.9773 101.422 48.6819C101.21 48.393 101 48.1017 100.773 47.8216C100.704 47.7532 100.611 47.7148 100.513 47.7148C100.416 47.7148 100.323 47.7532 100.254 47.8216C100.234 47.8415 100.217 47.8641 100.203 47.8888C99.1226 49.6349 98.1548 51.4475 97.3053 53.3158C97.2816 53.3577 97.2665 53.404 97.2609 53.4518C97.2553 53.4996 97.2592 53.548 97.2724 53.5943C97.2857 53.6406 97.308 53.6838 97.3381 53.7215C97.3682 53.7592 97.4055 53.7905 97.4478 53.8138C97.5004 53.8425 97.5591 53.8583 97.619 53.8598C98.7703 53.8598 99.9215 53.8536 101.072 53.8212C101.314 53.8138 101.558 53.8063 101.8 53.7963C102.415 53.7727 103.032 53.7416 103.647 53.693C103.707 53.6879 103.766 53.6678 103.817 53.6345C103.89 53.6139 103.952 53.5652 103.989 53.4992C104.026 53.4332 104.036 53.3551 104.015 53.2821C104.011 53.2638 104.004 53.2458 103.997 53.2286ZM101.808 46.6376C101.788 46.584 101.76 46.5342 101.739 46.4807C101.016 44.8879 100.194 43.3419 99.2765 41.8518C99.2267 41.7694 99.1461 41.71 99.0524 41.6866C98.9587 41.6633 98.8595 41.6779 98.7765 41.7273C98.7255 41.7583 98.6826 41.801 98.6515 41.8518C97.907 43.5208 97.1294 45.1749 96.319 46.8131C96.2886 46.8684 96.2729 46.9305 96.2735 46.9935C96.274 47.0565 96.2909 47.1183 96.3224 47.173C96.3539 47.2276 96.399 47.2733 96.4534 47.3055C96.5078 47.3378 96.5695 47.3556 96.6328 47.3572C98.2753 47.2327 99.924 47.3286 101.557 47.0833C101.587 47.077 101.616 47.0661 101.643 47.0509C101.708 47.0265 101.761 46.9779 101.792 46.9152C101.817 46.8737 101.831 46.8267 101.834 46.7784C101.837 46.73 101.828 46.6817 101.808 46.6376ZM109.483 61.0721C108.037 58.9419 106.637 56.7806 105.222 54.6292C105.195 54.5862 105.16 54.5495 105.118 54.5215C105.076 54.4935 105.029 54.4751 104.979 54.4674C104.913 54.4464 104.842 54.4478 104.777 54.4715C104.712 54.4952 104.657 54.5397 104.62 54.5981L104.608 54.613C104.608 54.613 104.598 54.6218 104.594 54.6292C104.039 55.6626 103.488 56.698 102.942 57.7355C102.764 58.0704 102.582 58.4066 102.398 58.7427C102.214 59.0789 102.039 59.4088 101.863 59.7387C101.558 60.3102 101.283 60.8975 101.04 61.4979C101.028 61.544 101.024 61.5922 101.03 61.6396C101.036 61.687 101.052 61.7327 101.076 61.7741C101.1 61.8156 101.132 61.8519 101.17 61.881C101.208 61.91 101.251 61.9313 101.298 61.9436C101.328 61.9521 101.359 61.9563 101.39 61.9561L102.422 61.9112L103.172 61.8776L108.194 61.6535L109.164 61.6112C109.212 61.6104 109.26 61.6001 109.304 61.5808C109.349 61.5616 109.389 61.5338 109.422 61.4991C109.456 61.4644 109.482 61.4234 109.499 61.3785C109.517 61.3337 109.525 61.2858 109.524 61.2377C109.524 61.18 109.51 61.1232 109.483 61.0721ZM110.169 45.6378C110.163 45.5956 110.147 45.5552 110.124 45.5192C110.101 45.4832 110.071 45.4524 110.035 45.4287C109.986 45.3973 109.93 45.3801 109.872 45.3789C109.801 45.3583 109.725 45.3644 109.659 45.3961C109.592 45.4278 109.54 45.4829 109.512 45.5507C108.44 47.7481 107.212 49.8547 105.983 51.9662C105.937 52.0514 105.927 52.1509 105.953 52.2438C105.98 52.3366 106.042 52.4156 106.125 52.4642C106.178 52.493 106.237 52.5088 106.297 52.5102C107.765 52.6285 109.233 52.4654 110.703 52.453C110.76 52.4494 110.816 52.4334 110.867 52.4061C110.918 52.3788 110.962 52.3409 110.997 52.2949C111.021 52.2673 111.04 52.2349 111.052 52.1998C111.064 52.1647 111.068 52.1276 111.065 52.0907C110.785 49.9356 110.6 47.7705 110.169 45.6378Z" fill="#FE6B21"/>
<path d="M91.0944 22.1607C90.7765 21.131 90.0703 20.2642 89.1242 19.7422C88.178 19.2203 87.0656 19.084 86.0207 19.3619C86.7058 17.5781 86.9163 15.6482 86.6319 13.7594C86.4494 12.9789 86.111 12.2429 85.6371 11.5953C85.1632 10.9477 84.5633 10.4016 83.8732 9.98956C82.4993 9.1669 80.9236 8.73901 79.3207 8.75327C77.5124 8.80414 75.7428 9.28661 74.1607 10.1601C72.2852 11.2043 70.5255 12.4425 68.9107 13.854C68.5834 13.185 68.1223 12.5897 67.5557 12.1045C66.9891 11.6194 66.3289 11.2547 65.6157 11.0329C63.8132 10.4688 61.8641 10.5972 60.1519 11.3927C58.2584 12.2961 56.531 13.5104 55.0419 14.9845C53.6961 16.2195 52.4123 17.5185 51.1907 18.8813C45.9244 24.7465 41.5269 31.9538 40.4482 39.8696C40.1068 42.3784 40.1532 44.9244 40.5857 47.4192C40.8168 47.3739 41.0506 47.3436 41.2857 47.3284C41.608 47.303 41.932 47.3088 42.2532 47.3458C43.2169 47.5087 44.14 47.8554 44.9719 48.3667C44.9932 47.9459 45.0232 47.5276 45.0719 47.1092C45.7363 42.1283 47.9131 37.4685 51.3107 33.7541C54.5629 29.976 58.6352 26.9839 63.2194 25.0043C65.0884 24.2533 67.0359 23.7133 69.0257 23.3945C71.0993 23.0261 73.205 22.8676 75.3107 22.9214C77.1829 22.8957 79.0352 23.3067 80.7194 24.1216C82.745 25.3751 84.4483 27.0831 85.6932 29.109C86.1932 29.8498 86.6407 30.6205 87.0682 31.4023C87.2194 31.6762 87.3707 31.9501 87.5144 32.2277C87.8069 31.492 88.1394 30.7723 88.4944 30.0627C89.4494 28.3578 90.2533 26.5732 90.8969 24.7291C91.1811 23.9037 91.2491 23.0196 91.0944 22.1607Z" fill="#29175F"/>
<path d="M54.8071 65.2077C51.3574 63.6735 48.5616 60.9762 46.9121 57.5908C46.8409 57.7427 46.7546 57.8871 46.6709 58.0328C46.2974 60.1131 46.0055 62.2071 45.7959 64.3101C45.6709 65.5476 45.5621 66.7864 45.4534 68.0252C45.2647 69.2614 45.3609 70.5241 45.7346 71.7178C46.2239 72.8709 46.9979 73.882 47.9846 74.6573C48.947 75.5244 49.976 76.3153 51.0621 77.0228C53.2398 78.4533 55.7171 79.3685 58.3046 79.6983C61.097 80.0157 63.9218 79.9027 66.6796 79.3634C68.0215 79.1082 69.3522 78.7979 70.6684 78.4334C71.8784 78.1899 73.0431 77.7606 74.1209 77.161C74.8286 76.6895 75.4345 76.0818 75.9029 75.3737C76.3713 74.6655 76.6927 73.8713 76.8484 73.0375L77.4734 70.0184L78.5859 64.6749C74.9516 66.2009 71.0687 67.0548 67.1271 67.1948C62.9238 67.4424 58.7172 66.764 54.8071 65.2077Z" fill="white"/>
<path d="M44.6941 70.4967C44.8439 71.6398 45.2845 72.7257 45.9741 73.6516C46.818 74.6625 47.787 75.5632 48.8578 76.332C50.8876 77.9816 53.2287 79.2093 55.7428 79.9425C61.2978 81.4365 67.2153 80.2252 72.5966 78.6266C73.7785 78.2742 74.8489 77.6236 75.7041 76.7379C76.3997 76.0231 76.9341 75.1687 77.2716 74.2317C77.5389 73.3445 77.7477 72.4408 77.8966 71.5263L79.3966 64.3053C79.1603 64.4137 78.9253 64.527 78.6878 64.629L78.5791 64.6714C78.2091 66.4534 77.8382 68.2346 77.4666 70.0149L76.8416 73.034C76.6859 73.8678 76.3644 74.662 75.896 75.3702C75.4276 76.0783 74.8218 76.686 74.1141 77.1575C73.0363 77.7571 71.8716 78.1864 70.6616 78.4299C69.3454 78.7944 68.0147 79.1047 66.6728 79.3599C63.915 79.8992 61.0902 80.0122 58.2978 79.6948C55.7107 79.3652 53.2336 78.4499 51.0566 77.0193C49.9695 76.3126 48.9401 75.5216 47.9778 74.6538C46.9911 73.8785 46.2171 72.8674 45.7278 71.7143C45.354 70.5206 45.2579 69.2579 45.4466 68.0217C45.5553 66.7767 45.6641 65.5441 45.7891 64.3066C46.0028 62.2025 46.2891 60.1097 46.6641 58.0293C46.3937 58.4994 46.0735 58.9394 45.7091 59.3415C45.5296 60.4311 45.3745 61.5244 45.2441 62.6209C45.0978 63.8659 44.9778 65.1109 44.8691 66.3496C44.7167 67.4855 44.6377 68.6299 44.6328 69.7759C44.6403 69.9415 44.6328 70.1083 44.6553 70.2739C44.6616 70.3511 44.6828 70.4245 44.6941 70.4967Z" fill="#29175F"/>
<path d="M89.3091 52.678L89.2766 52.6681C89.2474 52.6612 89.2193 52.6508 89.1928 52.637C89.1122 52.6003 89.0495 52.5334 89.0183 52.4508C88.9872 52.3682 88.9901 52.2767 89.0266 52.1962C89.0377 52.1458 89.0608 52.0989 89.0941 52.0593C89.6842 51.0744 90.2551 50.0782 90.8065 49.0713C90.8616 48.0017 90.8415 46.9297 90.7466 45.8629H86.534C86.4856 45.8623 86.4377 45.8521 86.3932 45.8329C86.3487 45.8138 86.3084 45.786 86.2747 45.7513C86.2411 45.7166 86.2146 45.6756 86.1969 45.6306C86.1792 45.5857 86.1706 45.5377 86.1716 45.4894C86.1719 45.4591 86.1761 45.429 86.1841 45.3998C86.8553 43.663 87.6641 41.9835 88.3366 40.248C88.3575 40.181 88.3972 40.1214 88.4511 40.0762C88.5049 40.031 88.5706 40.0022 88.6404 39.993C88.7103 39.9838 88.7812 39.9948 88.845 40.0245C88.9088 40.0542 88.9627 40.1015 89.0003 40.1608C89.4253 40.924 89.8391 41.6934 90.2578 42.4591C90.2466 42.4006 90.2391 42.3408 90.2266 42.281C89.7156 39.7011 88.9333 37.1818 87.8928 34.765C86.9406 32.4549 85.7 30.2735 84.2003 28.2723C82.9819 26.5085 81.2845 25.1267 79.3066 24.2883C77.4827 23.7383 75.5744 23.5198 73.6728 23.6434C69.5626 23.7131 65.5157 24.6643 61.8078 26.4322C57.4916 28.6245 53.7143 31.7384 50.7453 35.5518C47.6561 39.3705 45.8766 44.0746 45.6678 48.9742C45.6668 49.0222 45.6564 49.0696 45.637 49.1137C45.6176 49.1577 45.5897 49.1975 45.5549 49.2308C45.5201 49.2641 45.479 49.2903 45.434 49.3077C45.3891 49.3252 45.3411 49.3337 45.2928 49.3327C45.232 49.3313 45.1725 49.3155 45.1191 49.2867C44.1627 48.6241 43.0629 48.1954 41.9091 48.0354C40.9361 47.9873 39.9706 48.2268 39.1341 48.7239C35.6166 50.7558 35.6103 55.4718 37.7328 58.5258C38.7653 60.0111 40.5903 61.332 42.4828 60.778C43.3975 60.4546 44.2162 59.908 44.8641 59.1881C45.6284 58.4806 46.1967 57.5887 46.5141 56.5985C46.5916 56.3209 47.0466 56.2176 47.1791 56.5126C48.0401 58.4707 49.2741 60.244 50.8128 61.7342C52.4954 63.301 54.5107 64.4704 56.7091 65.1554C60.5136 66.3274 64.5117 66.7461 68.4778 66.388C72.2977 66.1015 76.0314 65.1133 79.4903 63.4734C81.2357 62.6408 82.8878 61.6267 84.4191 60.4481C86.0222 59.2598 87.4287 57.829 88.5878 56.2076C89.3041 55.1454 89.8491 53.9779 90.2028 52.7478C89.9216 52.7303 89.6403 52.7191 89.3603 52.693C89.3428 52.6897 89.3256 52.6847 89.3091 52.678ZM42.6091 54.685C41.8689 54.7577 41.1542 54.9933 40.5166 55.3747C40.4343 55.4142 40.3402 55.4215 40.2528 55.395C40.1655 55.3686 40.0913 55.3104 40.045 55.232C39.9987 55.1536 39.9838 55.0608 40.003 54.9719C40.0223 54.883 40.0744 54.8046 40.1491 54.7522C40.8999 54.3104 41.7404 54.0412 42.6091 53.9641C43.0753 53.9193 43.0703 54.6439 42.6091 54.6875V54.685ZM56.3416 39.3292C54.6354 39.9146 53.225 41.1385 52.4091 42.7417C52.1953 43.1575 51.5691 42.7903 51.7841 42.3769C52.6991 40.6101 54.2679 39.2667 56.1591 38.6307C56.5928 38.4801 56.7841 39.1798 56.3416 39.3292ZM57.8666 48.0193C57.8666 48.1153 57.8282 48.2075 57.76 48.2754C57.6918 48.3434 57.5993 48.3815 57.5028 48.3815C57.4063 48.3815 57.3138 48.3434 57.2456 48.2754C57.1774 48.2075 57.1391 48.1153 57.1391 48.0193V45.5056C57.1391 45.4095 57.1774 45.3174 57.2456 45.2494C57.3138 45.1815 57.4063 45.1433 57.5028 45.1433C57.5993 45.1433 57.6918 45.1815 57.76 45.2494C57.8282 45.3174 57.8666 45.4095 57.8666 45.5056V48.0193ZM78.5591 47.1079V47.1166C78.1766 48.8321 77.5556 50.4861 76.7141 52.0306C75.9982 53.4068 74.9084 54.5549 73.5691 55.3441C72.2298 56.1333 70.6947 56.5317 69.1391 56.494C65.9091 56.2549 63.2216 53.9704 61.2841 51.5501C61.2342 51.4987 61.2004 51.4339 61.187 51.3637C61.1735 51.2935 61.1809 51.2209 61.2082 51.1549C61.2355 51.0888 61.2816 51.0321 61.3408 50.9917C61.4001 50.9513 61.4698 50.929 61.5416 50.9276C67.298 50.9467 72.9634 49.4971 77.9978 46.717C78.0354 46.6916 78.078 46.6746 78.1228 46.6672C78.1859 46.6521 78.252 46.6559 78.3129 46.678C78.3738 46.7002 78.4268 46.7397 78.4653 46.7917C78.5327 46.8818 78.5643 46.9935 78.5541 47.1054L78.5591 47.1079ZM77.1116 33.2212C76.6991 33.4416 76.3328 32.8166 76.7453 32.5987C77.3295 32.2814 77.9734 32.0884 78.6363 32.0319C79.2992 31.9753 79.9667 32.0564 80.5965 32.27C81.0378 32.4207 80.8465 33.1191 80.4041 32.9672C79.8675 32.7798 79.2976 32.7058 78.7307 32.75C78.1638 32.7941 77.6124 32.9555 77.1116 33.2237V33.2212ZM81.3103 42.6471C81.4003 43.1027 80.6991 43.297 80.6091 42.8401C80.4282 41.9204 80.2466 41.0012 80.0641 40.0824C79.9741 39.6255 80.6753 39.4325 80.7653 39.8894L81.3103 42.6471ZM80.1941 52.7702C79.8841 53.1213 79.3716 52.6071 79.6803 52.2585C80.3383 51.4938 80.7439 50.5458 80.8421 49.5435C80.9403 48.5411 80.7262 47.5329 80.2291 46.656C80.1894 46.5741 80.1821 46.4803 80.2087 46.3933C80.2352 46.3063 80.2936 46.2324 80.3723 46.1863C80.451 46.1402 80.5443 46.1253 80.6335 46.1445C80.7227 46.1637 80.8015 46.2156 80.8541 46.2899C81.4295 47.3061 81.6747 48.4748 81.5561 49.6355C81.4374 50.7961 80.9608 51.8916 80.1916 52.7714L80.1941 52.7702ZM83.1466 54.0276C82.9403 54.4459 82.3128 54.0787 82.5216 53.6628C83.1466 52.3804 83.4615 50.97 83.4409 49.5446C83.4202 48.1193 83.0647 46.7185 82.4028 45.4546C82.1841 45.0425 82.8128 44.6777 83.0278 45.0898C83.7507 46.4657 84.1382 47.9918 84.1588 49.5446C84.1794 51.0974 83.8326 52.6331 83.1466 54.0276Z" fill="white"/>
<path d="M46.9108 57.5911C48.5609 60.9769 51.3576 63.6742 54.8083 65.208C58.7176 66.7624 62.9227 67.4396 67.1246 67.1913C71.0661 67.0513 74.9491 66.1974 78.5833 64.6714L78.6921 64.6291C78.9296 64.527 79.1646 64.4137 79.4008 64.3054C82.8771 62.7881 85.9627 60.5057 88.4258 57.6297C89.587 56.203 90.446 54.5568 90.9508 52.7904C90.7008 52.7829 90.4508 52.763 90.2008 52.748C89.8471 53.9782 89.3022 55.1456 88.5858 56.2079C87.4268 57.8292 86.0202 59.26 84.4171 60.4484C82.8858 61.627 81.2337 62.641 79.4883 63.4737C76.0295 65.1136 72.2958 66.1017 68.4758 66.3883C64.5097 66.7464 60.5116 66.3276 56.7071 65.1557C54.5087 64.4706 52.4934 63.3013 50.8108 61.7344C49.2721 60.2442 48.0381 58.471 47.1771 56.5129C47.0446 56.2178 46.5896 56.3212 46.5121 56.5988C46.1948 57.589 45.6265 58.4809 44.8621 59.1884C44.2142 59.9082 43.3955 60.4548 42.4808 60.7783C40.5871 61.3323 38.7621 60.0114 37.7308 58.5261C35.6058 55.4721 35.6146 50.756 39.1321 48.7242C39.9686 48.2271 40.9341 47.9875 41.9071 48.0357C43.0627 48.1949 44.1643 48.6236 45.1221 49.2869C45.2074 49.3324 45.307 49.3433 45.4002 49.3173C45.4934 49.2914 45.5729 49.2305 45.6221 49.1475C45.6521 49.0947 45.668 49.0351 45.6683 48.9744C45.8782 44.0748 47.6581 39.371 50.7471 35.5521C53.7161 31.7386 57.4934 28.6247 61.8096 26.4325C65.5175 24.6646 69.5643 23.7134 73.6746 23.6437C75.5761 23.5201 77.4845 23.7386 79.3083 24.2886C81.2862 25.1269 82.9837 26.5088 84.2021 28.2726C85.7018 30.2738 86.9424 32.4552 87.8946 34.7652C88.9369 37.1854 89.7196 39.7085 90.2296 42.2925C90.2421 42.3523 90.2496 42.417 90.2608 42.4706C90.5992 43.0922 90.9454 43.7089 91.2996 44.3206L91.2621 44.033C90.6718 39.9209 89.4075 35.9332 87.5196 32.2292C87.3758 31.9516 87.2246 31.6777 87.0733 31.4038C86.6454 30.6216 86.1868 29.8566 85.6983 29.1105C84.4535 27.0845 82.7502 25.3765 80.7246 24.123C79.0404 23.3081 77.1881 22.8971 75.3158 22.9228C73.2102 22.8691 71.1045 23.0276 69.0308 23.3959C67.0411 23.7147 65.0935 24.2547 63.2246 25.0057C58.6401 26.985 54.5678 29.9771 51.3158 33.7556C47.9174 37.4696 45.7397 42.1294 45.0746 47.1107C45.0258 47.529 44.9958 47.9473 44.9746 48.3681C44.1427 47.8568 43.2196 47.5102 42.2558 47.3472C41.9339 47.3097 41.609 47.3034 41.2858 47.3285C41.0516 47.3439 40.8186 47.3742 40.5883 47.4194C40.191 47.4964 39.8027 47.614 39.4296 47.7705C38.4958 48.1764 37.6716 48.7965 37.0245 49.5802C36.3773 50.3639 35.9254 51.289 35.7058 52.2799C35.276 54.4557 35.7044 56.7128 36.9021 58.5821C37.9571 60.2691 39.8458 61.8378 41.9646 61.6124C43.1621 61.4218 44.2637 60.8454 45.1008 59.9715C45.3133 59.7723 45.5171 59.5619 45.7146 59.349C46.0791 58.9468 46.3992 58.5069 46.6696 58.0368C46.7508 57.8874 46.8371 57.743 46.9108 57.5911Z" fill="#29175F"/>
<path d="M90.8078 49.0823C91.0578 48.6366 91.3078 48.1934 91.5578 47.7527C91.552 47.1252 91.5216 46.499 91.4666 45.874H90.7478C90.8428 46.9407 90.8628 48.0128 90.8078 49.0823ZM57.1403 45.5054V48.0191C57.1403 48.1152 57.1786 48.2073 57.2469 48.2753C57.3151 48.3432 57.4076 48.3814 57.5041 48.3814C57.6005 48.3814 57.6931 48.3432 57.7613 48.2753C57.8295 48.2073 57.8678 48.1152 57.8678 48.0191V45.5054C57.8678 45.4094 57.8295 45.3172 57.7613 45.2493C57.6931 45.1813 57.6005 45.1431 57.5041 45.1431C57.4076 45.1431 57.3151 45.1813 57.2469 45.2493C57.1786 45.3172 57.1403 45.4094 57.1403 45.5054ZM80.0653 40.0822L80.6103 42.8399C80.7003 43.2968 81.4016 43.1026 81.3116 42.6469C81.1291 41.7281 80.9474 40.8089 80.7666 39.8892C80.6766 39.4323 79.9753 39.6203 80.0653 40.0822ZM56.1491 38.6306C54.2579 39.2665 52.6891 40.6099 51.7741 42.3768C51.5628 42.7901 52.1891 43.1574 52.3991 42.7415C53.2156 41.1379 54.6269 39.9139 56.3341 39.329C56.7853 39.1796 56.5941 38.4799 56.1491 38.6306ZM80.5978 32.2674C79.968 32.0537 79.3005 31.9726 78.6376 32.0292C77.9746 32.0858 77.3307 32.2788 76.7466 32.596C76.3341 32.8164 76.7003 33.4414 77.1128 33.2185C77.6136 32.9503 78.1651 32.789 78.7319 32.7448C79.2988 32.7007 79.8687 32.7747 80.4053 32.9621C80.8478 33.1164 81.0353 32.418 80.5978 32.2674ZM78.4716 46.794C78.4331 46.742 78.3801 46.7025 78.3192 46.6804C78.2582 46.6582 78.1921 46.6545 78.1291 46.6695C78.0843 46.6769 78.0416 46.6939 78.0041 46.7193C72.9662 49.5023 67.2962 50.9529 61.5353 50.9324C61.4633 50.9333 61.3932 50.9553 61.3336 50.9955C61.274 51.0358 61.2276 51.0927 61.2002 51.159C61.1728 51.2253 61.1655 51.2982 61.1793 51.3685C61.1931 51.4389 61.2274 51.5037 61.2778 51.5549C63.2216 53.9752 65.9028 56.2598 69.1391 56.4988C70.6948 56.5365 72.2298 56.1381 73.5691 55.3489C74.9084 54.5598 75.9982 53.4116 76.7141 52.0355C77.5556 50.4909 78.1766 48.837 78.5591 47.1215V47.1127C78.5693 47.0008 78.5377 46.8891 78.4703 46.799L78.4716 46.794ZM42.6103 53.9553C41.7417 54.0323 40.9012 54.3016 40.1503 54.7433C40.0757 54.7957 40.0236 54.8741 40.0043 54.963C39.985 55.0519 40 55.1447 40.0463 55.2231C40.0926 55.3015 40.1667 55.3597 40.2541 55.3861C40.3414 55.4126 40.4356 55.4053 40.5178 55.3658C41.1562 54.9875 41.8708 54.7549 42.6103 54.6848C43.0716 54.635 43.0766 53.9104 42.6103 53.9553ZM80.2303 46.6546C80.7275 47.5315 80.9416 48.5397 80.8434 49.5421C80.7452 50.5444 80.3396 51.4924 79.6816 52.2571C79.3728 52.6057 79.8853 53.1199 80.1953 52.7688C80.9645 51.889 81.4412 50.7934 81.5598 49.6328C81.6785 48.4722 81.4332 47.3035 80.8578 46.2873C80.8052 46.213 80.7265 46.1611 80.6373 46.1419C80.548 46.1227 80.4548 46.1376 80.3761 46.1837C80.2974 46.2298 80.239 46.3037 80.2124 46.3907C80.1859 46.4777 80.1932 46.5714 80.2328 46.6533L80.2303 46.6546ZM82.4016 45.4544C83.0635 46.7183 83.419 48.1191 83.4396 49.5445C83.4602 50.9699 83.1454 52.3803 82.5203 53.6627C82.3141 54.0785 82.9416 54.4458 83.1453 54.0275C83.8314 52.633 84.1782 51.0972 84.1576 49.5444C84.1369 47.9916 83.7495 46.4655 83.0266 45.0896C82.8116 44.6775 82.1828 45.0423 82.4016 45.4544Z" fill="#29175F"/>
<path d="M91.8945 45.3226C91.6907 44.9914 91.4945 44.6552 91.2995 44.3191C90.9453 43.7065 90.5995 43.0899 90.262 42.469C89.8432 41.7033 89.4295 40.9339 89.0045 40.1707C88.9672 40.111 88.9134 40.0632 88.8495 40.0332C88.7857 40.0031 88.7144 39.992 88.6444 40.0012C88.5744 40.0104 88.5085 40.0395 88.4546 40.085C88.4008 40.1305 88.3612 40.1906 88.3407 40.2579C87.6682 41.9934 86.8595 43.6729 86.1882 45.4085C86.1758 45.4548 86.1726 45.5032 86.179 45.5507C86.1853 45.5983 86.201 45.6441 86.2251 45.6857C86.2493 45.7272 86.2814 45.7636 86.3197 45.7927C86.358 45.8218 86.4017 45.8431 86.4482 45.8554C86.4777 45.8627 86.5079 45.8669 86.5382 45.8679H91.5795C91.6779 45.8637 91.7706 45.8211 91.8377 45.7493C91.9049 45.6776 91.941 45.5824 91.9382 45.4844C91.9359 45.4279 91.9209 45.3726 91.8945 45.3226ZM95.662 52.1452C94.7344 50.4407 93.6573 48.8213 92.4432 47.3058C92.3915 47.2234 92.3096 47.1643 92.2149 47.141C92.1201 47.1178 92.02 47.1322 91.9357 47.1813C91.8843 47.2118 91.8413 47.2546 91.8107 47.3058C91.7245 47.4503 91.6445 47.5997 91.5607 47.7466C91.3049 48.1873 91.0549 48.6305 90.8107 49.0762C90.252 50.0722 89.6932 51.0794 89.0982 52.0642C89.065 52.1038 89.0419 52.1508 89.0307 52.2012C88.9943 52.2816 88.9914 52.3731 89.0225 52.4557C89.0537 52.5383 89.1164 52.6053 89.197 52.6419C89.2235 52.6557 89.2516 52.6662 89.2807 52.673C89.2912 52.6775 89.3021 52.6808 89.3132 52.683C89.329 52.6895 89.3453 52.6945 89.362 52.6979C89.642 52.7241 89.9232 52.7353 90.2045 52.7527C90.4545 52.7677 90.7045 52.7876 90.9545 52.795C92.4207 52.8436 93.8932 52.7838 95.3532 52.6954C95.4501 52.6916 95.5416 52.6505 95.6088 52.5809C95.6759 52.5113 95.7133 52.4185 95.7132 52.3219C95.7112 52.2597 95.6936 52.1989 95.662 52.1452ZM94.752 62.1549C93.8675 59.9781 92.7476 57.9037 91.412 55.9685C91.3849 55.9221 91.3469 55.8829 91.3011 55.8545C91.2554 55.826 91.2033 55.8092 91.1495 55.8055C91.0781 55.781 91.0001 55.785 90.9316 55.8165C90.8631 55.8481 90.8095 55.9048 90.782 55.9748C89.802 58.0738 88.4407 59.9712 87.4607 62.0753C87.4373 62.1173 87.4223 62.1635 87.4168 62.2113C87.4112 62.259 87.4152 62.3074 87.4284 62.3537C87.4416 62.3999 87.4639 62.4431 87.4939 62.4808C87.5239 62.5185 87.561 62.5499 87.6032 62.5733C87.6556 62.6027 87.7144 62.6185 87.7745 62.6193H94.3995C94.448 62.6189 94.496 62.6088 94.5405 62.5897C94.5851 62.5706 94.6254 62.5429 94.6592 62.5081C94.6929 62.4733 94.7194 62.4323 94.737 62.3872C94.7547 62.3422 94.7632 62.2942 94.762 62.2458C94.7618 62.2153 94.7585 62.1848 94.752 62.1549Z" fill="#FE6B21"/>
<path d="M118.383 99.4728C116.123 100.673 113.927 101.992 111.807 103.424C111.418 103.681 111.782 104.308 112.173 104.047C115.362 101.824 118.782 99.9479 122.373 98.4519C122.543 98.386 122.711 98.3138 122.883 98.2503C123.141 98.1556 123.401 98.0697 123.661 97.9826C126.682 97.0314 129.792 96.3915 132.944 96.0728C135.502 95.764 138.069 95.5212 140.629 95.2523C141.089 95.2037 141.094 94.4792 140.629 94.5277C136.454 94.9659 132.238 95.2747 128.111 96.0715C126.855 96.3129 125.613 96.623 124.392 97.0003C123.982 97.1256 123.574 97.2592 123.169 97.4012C121.526 97.977 119.927 98.6693 118.383 99.4728ZM158.961 92.8868C162.551 92.8783 165.996 91.4722 168.559 88.9688C169.66 87.7397 170.492 86.2967 171.005 84.7308C171.517 83.165 171.697 81.5104 171.534 79.8716C171.335 77.6583 170.742 75.498 169.784 73.4909C169.589 73.0676 168.963 73.4349 169.159 73.8557C170.76 77.0138 171.216 80.6251 170.452 84.0797C170.055 85.5409 169.344 86.8988 168.368 88.0595C167.392 89.2203 166.175 90.1562 164.801 90.8027C162.966 91.6444 160.979 92.1052 158.961 92.1572C158.494 92.1821 158.492 92.9067 158.961 92.8868Z" fill="#29175F"/>
<path d="M124.39 115.839C122.545 116.014 120.703 116.211 118.863 116.432C118.844 116.436 118.825 116.442 118.807 116.451C118.754 116.456 118.704 116.474 118.659 116.501C118.615 116.529 118.577 116.567 118.549 116.611C116.753 119.322 116.203 122.821 115.939 125.995C115.843 127.151 115.794 128.311 115.793 129.472V129.997C115.805 132.037 116.032 134.069 116.468 136.062C116.598 136.662 116.773 137.251 116.99 137.825C117.059 138.085 117.175 138.33 117.333 138.548C117.528 138.671 117.748 138.747 117.977 138.771C118.215 138.836 118.455 138.895 118.694 138.968C120.364 139.431 122.025 139.924 123.694 140.417C123.772 140.266 123.844 140.114 123.923 139.965C123.952 139.919 123.991 139.881 124.038 139.854C124.084 139.827 124.137 139.811 124.19 139.808C124.237 139.796 124.285 139.793 124.333 139.799L125.887 140.2L135.865 142.774C134.733 140.857 134.372 138.584 134.857 136.413C135.083 135.356 135.572 134.041 136.817 133.91C137.217 133.885 137.617 133.966 137.976 134.143C138.335 134.321 138.641 134.59 138.863 134.923C138.735 130.389 139.218 125.858 140.299 121.452C140.729 119.821 141.549 117.094 143.11 115.79C143.507 115.447 143.985 115.213 144.499 115.11C137.787 114.889 131.068 115.133 124.39 115.839Z" fill="#FEB186"/>
<path d="M160.589 62.5074C158.61 60.5426 156.324 58.9104 153.82 57.6743C151.469 56.6046 149.022 55.7568 146.511 55.142C144.902 54.7112 143.286 54.3016 141.679 53.8609C141.587 53.8386 141.49 53.8528 141.408 53.9007C141.327 53.9485 141.267 54.0261 141.242 54.117C141.217 54.2079 141.228 54.3049 141.274 54.3875C141.32 54.4701 141.396 54.5317 141.486 54.5593C146.565 55.95 151.87 56.9609 156.316 59.934C157.661 60.8462 158.919 61.8789 160.075 63.0191C160.409 63.3453 160.924 62.8336 160.589 62.5074ZM173.584 66.967L178.911 60.1967C179.196 59.8344 178.685 59.3252 178.396 59.685L173.07 66.454C172.784 66.8176 173.295 67.333 173.584 66.967ZM185.021 67.5173L175.946 68.7473C175.485 68.8108 175.681 69.508 176.14 69.4458L185.215 68.2157C185.676 68.1522 185.48 67.455 185.021 67.5173ZM243.754 159.807C243.4 156.93 242.501 154.147 241.105 151.605C239.514 148.419 237.425 145.514 235.785 142.357C235.137 141.032 234.581 139.665 234.12 138.266C232.711 134.31 231.506 130.28 230.341 126.246C230.202 126.572 230.046 126.889 229.874 127.199C227.941 130.685 224.032 133.075 219.99 131.95C219.835 132.374 219.669 132.795 219.484 133.207C219.464 133.87 219.442 134.532 219.432 135.199C219.389 138.134 219.476 141.068 219.456 144.001C219.449 146.83 219.236 149.655 218.821 152.454C218.781 152.715 218.741 152.974 218.696 153.229C221.869 154.679 224.612 156.922 226.659 159.739C229.248 163.174 231.406 166.911 233.084 170.867C233.899 172.715 234.656 174.587 235.354 176.482C235.454 176.75 235.56 177.014 235.657 177.281C236.539 176.094 237.532 174.988 238.414 173.795C239.772 171.989 240.92 170.035 241.835 167.97C242.391 166.699 242.854 165.39 243.219 164.052C243.641 162.678 243.822 161.242 243.754 159.807ZM226.715 112.951C226.283 110.874 225.628 108.849 224.762 106.91C223.336 104.098 221.379 101.587 218.996 99.5138C217.895 98.505 216.688 97.6161 215.397 96.8619C214.1 96.1434 212.726 95.5698 211.302 95.1513C208.375 94.2718 205.31 93.9404 202.261 94.174C201.619 94.225 200.979 94.3097 200.344 94.423C195.941 91.3017 189.857 91.0204 184.807 92.5816C182.201 93.5267 179.818 94.997 177.807 96.9005C174.929 99.4751 172.333 102.347 170.064 105.469C167.259 109.255 164.771 113.263 162.624 117.454C161.302 120.023 160.094 122.648 159.005 125.323C159.089 125.356 159.176 125.384 159.255 125.425C159.899 125.766 160.394 126.332 160.643 127.015C160.893 127.698 160.88 128.448 160.607 129.122C160.357 129.837 159.933 130.479 159.374 130.992C158.815 131.504 158.138 131.872 157.402 132.062C157.362 132.069 157.322 132.062 157.277 132.073C157.022 132.107 156.763 132.11 156.506 132.082C156.213 132.99 155.933 133.903 155.667 134.821C155.891 134.941 156.101 135.085 156.292 135.25C156.529 135.452 156.735 135.685 156.906 135.944C157.329 136.689 157.439 137.571 157.21 138.397C156.982 139.222 156.434 139.924 155.687 140.349C155.443 140.486 155.182 140.592 154.91 140.663C154.658 140.727 154.401 140.763 154.141 140.771C153.575 143.324 153.123 145.902 152.786 148.496C152.414 151.363 152.198 154.249 152.139 157.14C152.11 158.589 152.123 160.038 152.177 161.487C152.195 162.799 152.315 164.107 152.537 165.399C152.94 167.295 153.759 169.08 154.934 170.625C156.109 172.17 157.611 173.438 159.335 174.338C159.604 174.489 159.879 174.626 160.152 174.763C160.306 174.566 160.461 174.373 160.612 174.176C161.871 172.532 163.066 170.836 164.296 169.173C168.015 164.144 172.061 159.153 177.352 155.684C178.97 154.62 180.703 153.74 182.517 153.06C182.275 151.921 182.134 150.742 182 149.604C181.816 147.997 181.715 146.382 181.697 144.765C181.684 143.752 181.697 142.741 181.72 141.729C181.379 141.506 181.036 141.286 180.711 141.038C177.491 138.5 175.157 135.015 174.041 131.078C172.867 127.089 172.752 122.864 173.707 118.817C174.185 116.744 175.043 114.775 176.239 113.012C177.461 111.262 178.935 109.7 180.614 108.377C182.317 106.977 184.204 105.817 186.224 104.927C188.175 104.094 190.229 103.526 192.332 103.239C196.26 102.716 200.254 103.003 204.066 104.083C205.715 104.536 207.314 105.151 208.841 105.918C210.337 106.691 211.724 107.657 212.966 108.792C216.495 111.863 219.064 115.879 220.367 120.363C221.735 118.661 223.449 116.966 225.742 116.877C226.174 116.861 226.605 116.909 227.022 117.018C227.31 117.094 227.59 117.197 227.857 117.326C227.47 115.861 227.08 114.408 226.715 112.951ZM164.007 136.731C163.73 137.104 163.099 136.738 163.382 136.365C164.474 134.74 164.928 132.773 164.659 130.837C164.4 128.74 163.62 126.741 162.389 125.021C162.125 124.634 162.755 124.274 163.014 124.655C164.311 126.486 165.127 128.611 165.389 130.837C165.665 132.902 165.176 134.998 164.014 136.731H164.007ZM167.645 137.994C167.395 138.388 166.77 138.024 167.02 137.628C167.635 136.668 168.095 135.618 168.384 134.516C168.859 132.567 168.814 130.529 168.255 128.603C167.696 126.677 166.641 124.93 165.195 123.535C164.861 123.207 165.376 122.696 165.71 123.023C166.596 123.887 167.351 124.876 167.95 125.958C168.976 127.809 169.489 129.9 169.436 132.014C169.383 134.128 168.766 136.191 167.649 137.989L167.645 137.994ZM171.467 139.262C171.241 139.67 170.614 139.304 170.842 138.896C171.517 137.687 172.01 136.387 172.307 135.036C172.795 132.635 172.687 130.152 171.995 127.802C171.302 125.452 170.045 123.305 168.332 121.548C168.009 121.21 168.522 120.699 168.846 121.036C169.885 122.112 170.772 123.324 171.482 124.638C172.7 126.884 173.337 129.398 173.335 131.951C173.333 134.504 172.692 137.016 171.47 139.26L171.467 139.262ZM178.749 73.3227C178.294 73.2144 178.1 73.9128 178.555 74.0199L184.632 75.4541C185.087 75.5625 185.281 74.864 184.825 74.7569L178.749 73.3227ZM147.732 122.681C147.278 122.206 146.996 121.593 146.932 120.94C146.868 120.287 147.025 119.631 147.379 119.078C147.426 118.992 147.484 118.915 147.536 118.829C147.355 118.283 147.129 117.753 146.861 117.244C146.677 116.881 146.442 116.546 146.165 116.248C146.069 116.141 145.958 116.048 145.836 115.973C145.743 115.902 145.634 115.854 145.519 115.834C144.181 115.537 143.162 116.611 142.507 117.723C141.64 119.338 141.03 121.077 140.699 122.879C140.244 125.009 139.937 127.169 139.781 129.341C139.853 129.321 139.93 129.325 140 129.353H140.014C140.028 129.356 140.042 129.36 140.055 129.365C140.731 129.767 141.3 130.324 141.714 130.99C142.129 131.656 142.376 132.412 142.436 133.194C142.527 134.009 142.321 134.83 141.855 135.507C141.39 136.183 140.696 136.672 139.9 136.882C139.855 136.892 139.81 136.892 139.765 136.882C139.985 137.723 140.306 138.534 140.721 139.298C140.97 139.795 141.334 140.226 141.784 140.555C142.235 140.883 142.757 141.099 143.309 141.184C143.936 141.172 144.551 141.003 145.097 140.694C145.642 140.386 146.102 139.946 146.434 139.415C147.108 138.436 147.595 137.341 147.872 136.186C148.335 133.738 148.579 131.254 148.601 128.763C148.607 128.682 148.638 128.606 148.69 128.544C148.742 128.483 148.813 128.439 148.891 128.42C148.885 126.69 148.763 124.961 148.525 123.247C148.235 123.096 147.969 122.906 147.732 122.681ZM146.574 130.367C146.202 130.699 145.752 130.932 145.265 131.045C144.779 131.158 144.272 131.148 143.791 131.015C143.337 130.874 142.916 130.645 142.552 130.339C142.189 130.034 141.891 129.659 141.675 129.237C141.245 128.198 141.144 127.053 141.385 125.955C141.474 125.356 141.718 124.791 142.093 124.314C142.467 123.837 142.959 123.465 143.521 123.235C144.284 122.95 145.116 122.897 145.909 123.084C146.351 123.217 146.761 123.437 147.115 123.732C147.469 124.027 147.76 124.39 147.969 124.8C148.399 125.749 148.495 126.815 148.242 127.825C147.989 128.835 147.401 129.731 146.574 130.367ZM170.396 70.1579C170.15 68.9435 169.455 67.8653 168.449 67.1363C167.466 66.3962 166.39 65.788 165.247 65.3273C164.05 64.8708 162.951 64.1918 162.009 63.3266C161.938 63.2603 161.844 63.2246 161.747 63.2274C161.65 63.2302 161.558 63.2713 161.491 63.3415C161.45 63.3862 161.42 63.4403 161.404 63.4991C161.389 63.5579 161.388 63.6197 161.401 63.6789C161.762 65.7999 162.392 67.8666 163.276 69.8292C163.945 71.2722 165.004 73.2131 166.72 73.5804C167.15 73.63 167.586 73.5948 168.002 73.4768C168.418 73.3587 168.807 73.1602 169.146 72.8924C169.486 72.6247 169.769 72.293 169.979 71.9163C170.19 71.5396 170.324 71.1253 170.374 70.697C170.394 70.5181 170.4 70.3378 170.391 70.1579H170.396ZM167.396 68.6303L168.366 69.3537C168.741 69.63 168.374 70.2575 168 69.9762L167.034 69.2516C166.659 68.9789 167.02 68.3502 167.394 68.6291L167.396 68.6303ZM157.132 92.2081C156.413 92.2523 155.693 92.1534 155.012 91.9172C154.332 91.681 153.706 91.3122 153.17 90.8324C152.142 90.0141 150.973 89.39 149.72 88.991C149.174 88.8196 148.592 88.7895 148.031 88.9036C147.469 89.0177 146.947 89.2723 146.511 89.6434C145.805 90.3914 145.177 91.209 144.636 92.0836C144.283 92.6046 143.892 93.1001 143.469 93.5664C143.168 93.9291 142.776 94.2051 142.332 94.3657C142.278 94.3738 142.227 94.3966 142.185 94.4317C142.134 94.465 142.094 94.5119 142.069 94.5669C142.044 94.622 142.035 94.683 142.042 94.7429V94.789C142.042 94.8052 142.042 94.8164 142.052 94.8301C142.072 94.9083 142.12 94.9768 142.186 95.0231L142.234 95.048C142.251 95.0596 142.27 95.0696 142.289 95.0778C143.668 95.3104 144.992 95.799 146.19 96.5183C146.728 96.9461 147.242 97.4033 147.73 97.8878C148.096 98.3157 148.56 98.6497 149.082 98.8614C151.629 99.6918 153.405 97.0138 154.756 95.3492C155.156 94.8512 155.566 94.3682 156.006 93.9138C156.362 93.4901 156.807 93.1499 157.31 92.9178C157.403 92.8922 157.482 92.8308 157.53 92.7472C157.577 92.6637 157.589 92.5647 157.564 92.472C157.538 92.3794 157.476 92.3008 157.393 92.2534C157.309 92.206 157.209 92.1937 157.116 92.2193L157.132 92.2081ZM150.159 90.805C149.229 90.8867 148.364 91.3159 147.739 92.0064C147.422 92.3513 146.909 91.8371 147.225 91.4947C147.988 90.6705 149.036 90.1654 150.159 90.0816C150.626 90.0418 150.622 90.7664 150.159 90.805ZM110.449 104.531C108.145 105.24 105.895 106.114 103.717 107.146C102.661 107.642 101.672 108.269 100.774 109.013C100.076 109.554 99.5785 110.309 99.3575 111.161C99.301 111.691 99.3806 112.226 99.5887 112.717C99.7969 113.208 100.127 113.638 100.547 113.967C101.176 114.588 101.997 114.979 102.876 115.075C103.707 115.101 104.522 114.85 105.192 114.36C106.946 112.966 108.319 111.154 109.184 109.092C109.839 107.759 110.411 106.387 110.895 104.983C110.919 104.89 110.906 104.79 110.857 104.707C110.808 104.623 110.729 104.562 110.635 104.537C110.575 104.519 110.51 104.517 110.449 104.531ZM103.784 108.916C102.664 109.5 101.755 110.419 101.185 111.543C100.974 111.959 100.346 111.592 100.56 111.178C101.19 109.944 102.189 108.935 103.42 108.291C103.835 108.073 104.201 108.698 103.784 108.916Z" fill="#29175F"/>
<path d="M142.437 133.197C142.377 132.416 142.129 131.66 141.715 130.994C141.3 130.328 140.731 129.77 140.055 129.369C140.042 129.364 140.028 129.359 140.014 129.356H140C139.931 129.329 139.854 129.325 139.782 129.345L139.75 129.356C139.69 129.375 139.636 129.411 139.595 129.46C139.554 129.508 139.528 129.567 139.52 129.63V129.659C139.52 129.668 139.52 129.677 139.52 129.686L139.457 135.979C139.575 136.284 139.68 136.59 139.777 136.897C139.821 136.907 139.867 136.907 139.912 136.897C140.708 136.684 141.4 136.193 141.864 135.514C142.327 134.835 142.53 134.013 142.437 133.197ZM147.969 124.8C147.76 124.39 147.469 124.027 147.115 123.732C146.761 123.437 146.351 123.217 145.909 123.084C145.116 122.897 144.285 122.95 143.522 123.235C142.96 123.465 142.467 123.837 142.093 124.314C141.719 124.791 141.475 125.356 141.385 125.955C141.144 127.053 141.245 128.198 141.675 129.237C141.891 129.659 142.189 130.034 142.553 130.339C142.916 130.645 143.337 130.874 143.792 131.015C144.273 131.148 144.78 131.158 145.266 131.045C145.752 130.932 146.202 130.699 146.574 130.367C147.401 129.731 147.989 128.835 148.242 127.825C148.495 126.815 148.399 125.749 147.969 124.8ZM238.034 184.474C237.307 182.054 236.515 179.655 235.659 177.276C235.562 177.009 235.455 176.745 235.355 176.477C234.658 174.582 233.901 172.71 233.085 170.862C231.408 166.906 229.25 163.169 226.66 159.734C224.614 156.917 221.871 154.674 218.698 153.224C218.655 153.467 218.605 153.707 218.548 153.944C218.424 154.515 218.206 155.062 217.903 155.562C217.361 156.387 216.675 157.109 215.879 157.694C213.847 159.145 211.57 160.222 209.157 160.874C206.399 161.695 203.561 162.22 200.692 162.44C197.78 162.755 194.835 162.534 192.003 161.789C189.677 161.132 187.527 159.968 185.709 158.38C184.397 157.298 183.404 155.883 182.834 154.284C182.782 154.112 182.744 153.934 182.699 153.76C182.639 153.526 182.574 153.294 182.524 153.056C180.709 153.736 178.977 154.616 177.359 155.681C172.068 159.149 168.022 164.14 164.303 169.169C163.073 170.832 161.878 172.53 160.619 174.173C160.468 174.369 160.313 174.562 160.159 174.759C159.95 175.024 159.747 175.294 159.534 175.557C157.916 177.79 155.674 179.498 153.088 180.47C148.463 181.964 144.557 178.591 143.088 174.423C142.4 172.255 141.988 170.009 141.862 167.738C141.644 165.421 141.585 163.092 141.687 160.766C141.751 159.435 141.891 158.109 142.107 156.794V156.745C142.08 156.812 142.033 156.869 141.974 156.91C141.914 156.951 141.844 156.973 141.772 156.974C140.006 156.909 138.239 156.901 136.473 156.948C130.24 157.106 124.04 157.82 117.833 158.356C117.794 158.362 117.755 158.36 117.718 158.35C117.68 158.341 117.645 158.324 117.614 158.301C117.583 158.278 117.557 158.249 117.537 158.215C117.517 158.182 117.504 158.145 117.499 158.107C117.482 158.059 117.475 158.007 117.48 157.957C117.48 157.968 117.463 157.973 117.46 157.985C115.068 167.648 113.322 178.051 116.17 187.803C117.38 192.083 119.466 196.067 122.295 199.506C125.336 203.091 129.269 205.819 133.7 207.417C139.132 209.239 144.846 210.089 150.575 209.927H243.425C243.523 209.923 243.615 209.883 243.682 209.813C243.75 209.743 243.788 209.65 243.788 209.553C243.787 209.525 243.783 209.497 243.777 209.47C242.376 201.029 240.459 192.681 238.034 184.474ZM217.685 202.927L217.935 184.75C217.941 184.658 217.981 184.571 218.049 184.508C218.116 184.444 218.206 184.409 218.298 184.409C218.391 184.409 218.48 184.444 218.548 184.508C218.615 184.571 218.656 184.658 218.662 184.75L218.589 189.956L218.339 208.133C218.339 208.229 218.301 208.321 218.233 208.389C218.164 208.457 218.072 208.495 217.975 208.495C217.879 208.495 217.786 208.457 217.718 208.389C217.65 208.321 217.612 208.229 217.612 208.133L217.685 202.927ZM159.637 125.659C159.518 125.569 159.393 125.489 159.262 125.418C159.18 125.377 159.093 125.35 159.012 125.316C158.378 125.083 157.695 125.015 157.027 125.118C156.359 125.22 155.729 125.491 155.195 125.904C154.586 126.414 154.141 127.092 153.916 127.852C153.691 128.613 153.695 129.422 153.928 130.181C154.208 130.815 154.687 131.342 155.294 131.682C155.9 132.023 156.601 132.157 157.292 132.067C157.332 132.061 157.372 132.067 157.417 132.056C158.152 131.866 158.829 131.498 159.388 130.985C159.947 130.473 160.371 129.831 160.622 129.116C160.869 128.513 160.906 127.845 160.727 127.218C160.549 126.592 160.165 126.043 159.637 125.659ZM151.05 117.195C150.511 117.102 149.957 117.141 149.436 117.309C148.915 117.477 148.444 117.77 148.063 118.161C147.864 118.366 147.688 118.591 147.537 118.832C147.484 118.915 147.427 118.992 147.379 119.081C147.025 119.635 146.868 120.291 146.932 120.944C146.996 121.597 147.278 122.21 147.733 122.684C147.967 122.913 148.233 123.107 148.522 123.261C148.765 123.389 149.022 123.49 149.288 123.563C149.817 123.732 150.38 123.767 150.926 123.666C151.473 123.565 151.985 123.331 152.419 122.984C152.852 122.638 153.192 122.19 153.409 121.68C153.626 121.171 153.714 120.616 153.663 120.065C153.631 119.358 153.353 118.685 152.876 118.161C152.399 117.637 151.753 117.296 151.05 117.195Z" fill="#FE6B21"/>
<path d="M152.086 135.097C152.096 134.813 152.109 134.528 152.114 134.247C152.046 133.279 151.756 132.34 151.265 131.503C150.774 130.665 150.096 129.952 149.284 129.417C149.294 131.923 149.01 134.422 148.435 136.861C147.796 138.955 146.447 141.487 144.049 141.875C141.681 142.258 140.131 140.162 139.397 138.206C138.981 137.099 138.879 135.525 137.762 134.857C137.513 134.673 137.201 134.596 136.894 134.641C136.587 134.686 136.311 134.851 136.126 135.098C135.814 135.59 135.612 136.141 135.532 136.717C135.283 137.83 135.288 138.985 135.548 140.096C135.808 141.206 136.315 142.245 137.032 143.134C137.058 143.161 137.079 143.193 137.095 143.227C137.464 143.69 137.921 144.076 138.44 144.362C138.959 144.648 139.53 144.83 140.12 144.895C140.581 144.945 140.584 145.67 140.12 145.62C138.728 145.477 137.449 144.789 136.565 143.709L135.126 143.335L124.422 140.574C123.89 141.592 123.394 142.63 122.934 143.686C121.015 148.187 119.468 152.836 118.309 157.587C119.899 157.448 121.488 157.304 123.077 157.154C129.184 156.461 135.328 156.157 141.474 156.242C141.861 153.983 142.576 151.792 143.599 149.738C144.587 147.79 145.945 146.052 147.599 144.619C148.457 144.017 149.275 143.361 150.049 142.654C150.658 141.938 151.106 141.099 151.362 140.195C151.422 140 151.46 139.796 151.511 139.597C151.162 139.166 150.908 138.667 150.767 138.132C150.67 137.554 150.743 136.959 150.977 136.421C151.21 135.882 151.596 135.423 152.086 135.097Z" fill="white"/>
<path d="M117.83 158.346C124.038 157.812 130.238 157.101 136.47 156.938C138.237 156.891 140.004 156.9 141.77 156.964C141.842 156.963 141.913 156.941 141.972 156.9C142.031 156.86 142.077 156.802 142.104 156.735C142.111 156.724 142.116 156.712 142.12 156.699C142.711 152.22 144.868 148.092 148.213 145.04C149.1 144.435 149.933 143.753 150.7 143.002C151.302 142.255 151.754 141.4 152.033 140.483C152.068 140.377 152.094 140.27 152.125 140.163C151.897 139.999 151.692 139.805 151.514 139.588C151.463 139.787 151.425 139.991 151.365 140.187C151.109 141.091 150.661 141.929 150.052 142.646C149.278 143.352 148.46 144.009 147.602 144.61C145.949 146.043 144.59 147.782 143.602 149.73C142.579 151.783 141.864 153.974 141.477 156.234C135.331 156.148 129.187 156.452 123.08 157.145C121.492 157.293 119.902 157.437 118.312 157.578C119.471 152.827 121.018 148.178 122.937 143.678C123.397 142.626 123.894 141.589 124.425 140.565L135.129 143.327L136.568 143.7C136.518 143.64 136.465 143.583 136.417 143.521C136.134 143.147 136.765 142.789 137.042 143.156L137.094 143.218C137.078 143.184 137.057 143.153 137.032 143.125C136.314 142.236 135.807 141.198 135.547 140.087C135.288 138.976 135.282 137.821 135.532 136.708C135.611 136.133 135.814 135.581 136.125 135.09C136.31 134.842 136.587 134.677 136.893 134.632C137.2 134.587 137.512 134.665 137.762 134.848C138.878 135.517 138.98 137.089 139.397 138.197C140.13 140.153 141.68 142.25 144.048 141.866C146.447 141.478 147.798 138.947 148.434 136.853C149.009 134.413 149.294 131.915 149.283 129.409C150.095 129.943 150.773 130.657 151.264 131.494C151.755 132.332 152.045 133.271 152.113 134.238C152.113 134.52 152.095 134.805 152.085 135.089C152.313 134.917 152.56 134.771 152.822 134.655L152.834 134.406C152.793 133.275 152.478 132.171 151.915 131.187C151.352 130.204 150.558 129.371 149.602 128.76C149.45 128.657 149.299 128.547 149.143 128.458C149.067 128.416 148.977 128.405 148.893 128.428C148.814 128.447 148.744 128.491 148.692 128.552C148.64 128.614 148.609 128.69 148.603 128.77C148.58 131.261 148.337 133.746 147.874 136.194C147.598 137.349 147.11 138.443 146.435 139.422C146.104 139.953 145.644 140.393 145.098 140.702C144.553 141.011 143.938 141.179 143.31 141.192C142.759 141.106 142.236 140.89 141.786 140.562C141.336 140.234 140.971 139.803 140.723 139.305C140.308 138.541 139.987 137.731 139.767 136.89C139.67 136.58 139.564 136.274 139.447 135.971C139.435 135.943 139.428 135.913 139.417 135.884C139.277 135.539 139.09 135.215 138.862 134.92C138.64 134.588 138.334 134.319 137.975 134.141C137.615 133.964 137.216 133.883 136.815 133.908C135.565 134.039 135.082 135.354 134.855 136.411C134.371 138.582 134.731 140.855 135.864 142.771L125.885 140.197L124.332 139.797C124.284 139.791 124.236 139.794 124.189 139.806C124.135 139.809 124.083 139.825 124.036 139.852C123.99 139.879 123.95 139.917 123.922 139.963C123.843 140.112 123.77 140.264 123.693 140.415C121.606 144.603 119.925 148.98 118.673 153.487C118.245 154.946 117.847 156.413 117.479 157.888C117.473 157.96 117.478 158.032 117.495 158.101C117.501 158.139 117.514 158.176 117.534 158.209C117.554 158.242 117.581 158.27 117.612 158.293C117.643 158.316 117.678 158.332 117.716 158.341C117.753 158.351 117.792 158.352 117.83 158.346Z" fill="#29175F"/>
<path d="M182.493 146.661C182.572 148.312 182.749 149.957 183.023 151.587C183.139 152.687 183.405 153.766 183.812 154.794C184.637 156.388 185.85 157.75 187.341 158.756C189.397 160.192 191.751 161.149 194.23 161.555C197.075 161.964 199.966 161.941 202.805 161.487C205.536 161.144 208.219 160.495 210.805 159.554C212.957 158.861 214.923 157.689 216.555 156.128C217.152 155.523 217.591 154.78 217.83 153.965C217.985 153.292 218.102 152.611 218.181 151.926C218.29 151.179 218.382 150.432 218.457 149.685C218.963 144.705 218.68 139.689 218.736 134.69C218.697 134.76 218.661 134.831 218.62 134.899C216.287 138.65 212.827 141.573 208.731 143.254C203.975 145.155 198.83 145.886 193.731 145.386C189.775 145.183 185.918 144.084 182.452 142.174C182.412 143.669 182.426 145.166 182.493 146.661Z" fill="white"/>
<path d="M219.456 143.996C219.476 141.063 219.389 138.129 219.432 135.194C219.442 134.532 219.464 133.869 219.484 133.202C219.256 133.709 219.002 134.204 218.725 134.685C218.669 139.684 218.952 144.702 218.446 149.68C218.371 150.427 218.279 151.174 218.17 151.921C218.091 152.606 217.974 153.287 217.819 153.96C217.58 154.775 217.142 155.518 216.544 156.123C214.912 157.684 212.946 158.856 210.794 159.549C208.208 160.49 205.525 161.139 202.794 161.482C199.955 161.936 197.064 161.959 194.219 161.55C191.74 161.144 189.386 160.187 187.33 158.751C185.84 157.745 184.626 156.383 183.801 154.789C183.394 153.761 183.128 152.682 183.012 151.582C182.738 149.952 182.561 148.307 182.482 146.656C182.407 145.162 182.409 143.668 182.436 142.174C182.193 142.028 181.954 141.877 181.719 141.72C181.693 142.732 181.685 143.744 181.696 144.756C181.714 146.373 181.815 147.988 181.999 149.595C182.132 150.733 182.274 151.912 182.516 153.051C182.567 153.289 182.631 153.521 182.691 153.755C182.736 153.929 182.774 154.107 182.826 154.279C183.396 155.878 184.389 157.293 185.701 158.375C187.519 159.963 189.669 161.127 191.995 161.784C194.827 162.529 197.772 162.75 200.684 162.435C203.553 162.215 206.391 161.69 209.149 160.869C211.562 160.217 213.839 159.14 215.871 157.689C216.668 157.104 217.353 156.382 217.895 155.557C218.198 155.057 218.416 154.51 218.54 153.939C218.597 153.702 218.647 153.462 218.69 153.219C218.734 152.97 218.774 152.705 218.815 152.444C219.232 149.647 219.446 146.824 219.456 143.996Z" fill="#29175F"/>
<path d="M156.912 135.935C156.741 135.676 156.535 135.443 156.299 135.241C156.107 135.076 155.897 134.932 155.674 134.812C154.968 134.418 154.139 134.3 153.351 134.482C153.17 134.528 152.993 134.589 152.822 134.664C152.561 134.78 152.314 134.925 152.086 135.097C151.597 135.422 151.213 135.88 150.979 136.417C150.745 136.954 150.672 137.546 150.767 138.124C150.908 138.658 151.162 139.158 151.511 139.588C151.689 139.805 151.894 139.998 152.122 140.163C152.452 140.403 152.825 140.576 153.222 140.672C153.526 140.742 153.837 140.772 154.149 140.762C154.408 140.754 154.666 140.718 154.917 140.655C155.398 140.528 155.842 140.294 156.217 139.97C156.592 139.645 156.888 139.24 157.081 138.784C157.274 138.328 157.36 137.834 157.331 137.34C157.303 136.847 157.161 136.366 156.917 135.935H156.912Z" fill="#FEB186"/>
<path d="M220.527 121.315C220.474 121.396 220.391 121.453 220.297 121.475C220.202 121.496 220.103 121.481 220.02 121.431C219.944 121.384 219.889 121.312 219.863 121.228C219.599 120.078 219.236 118.954 218.778 117.866C217.816 115.685 216.528 113.661 214.958 111.863C213.621 110.246 212.068 108.817 210.343 107.617C207.618 105.887 204.571 104.721 201.383 104.19C197.534 103.435 193.566 103.532 189.758 104.474C185.652 105.574 181.925 107.77 178.978 110.823C177.525 112.285 176.337 113.985 175.465 115.849C174.645 117.724 174.131 119.717 173.941 121.753C173.488 125.705 174.08 129.706 175.658 133.36C177.283 137.132 180.167 140.228 183.822 142.124C188.031 144.076 192.65 144.988 197.288 144.783C202.103 144.827 206.845 143.618 211.046 141.275C214.92 139.085 217.886 135.594 219.412 131.426C219.441 131.335 219.503 131.26 219.586 131.213C219.669 131.167 219.766 131.154 219.858 131.177C221.254 131.594 222.742 131.602 224.142 131.2C225.543 130.798 226.797 130.002 227.756 128.908C228.79 127.897 229.55 126.641 229.963 125.257C230.376 123.874 230.43 122.409 230.12 120.999C229.846 120.02 229.257 119.159 228.444 118.545C227.631 117.932 226.639 117.601 225.62 117.604C223.411 117.74 221.773 119.69 220.527 121.315ZM179.217 114.176C179.953 113.401 180.889 112.842 181.923 112.563C182.957 112.284 184.049 112.295 185.077 112.594C185.168 112.621 185.244 112.683 185.289 112.765C185.335 112.848 185.346 112.945 185.321 113.036C185.296 113.127 185.237 113.204 185.155 113.252C185.074 113.3 184.976 113.314 184.885 113.292C183.98 113.026 183.02 113.016 182.11 113.263C181.2 113.509 180.377 114.002 179.732 114.688C179.411 115.029 178.9 114.516 179.217 114.176ZM185.017 124.695C184.834 125.027 184.575 125.312 184.261 125.527C183.948 125.742 183.588 125.881 183.211 125.933C182.834 125.985 182.45 125.949 182.089 125.827C181.729 125.705 181.402 125.502 181.135 125.232C180.782 124.84 180.513 124.381 180.342 123.882C180.172 123.384 180.104 122.857 180.143 122.332C180.149 122.24 180.189 122.153 180.257 122.09C180.324 122.026 180.414 121.991 180.506 121.991C180.599 121.991 180.688 122.026 180.756 122.09C180.823 122.153 180.864 122.24 180.87 122.332C180.87 123.375 181.12 124.664 182.23 125.071C182.583 125.249 182.991 125.291 183.373 125.188C183.756 125.085 184.087 124.845 184.303 124.515C184.577 123.821 184.684 123.073 184.617 122.331C184.617 122.235 184.655 122.143 184.724 122.075C184.792 122.007 184.884 121.968 184.981 121.968C185.077 121.968 185.17 122.007 185.238 122.075C185.306 122.143 185.345 122.235 185.345 122.331C185.397 123.133 185.285 123.937 185.017 124.695ZM205.228 130.076C204.862 131.133 204.336 132.128 203.667 133.027C202.748 134.219 201.551 135.169 200.18 135.796C198.809 136.423 197.305 136.706 195.798 136.622C191.896 136.469 188.812 133.269 186.893 130.162C186.869 130.12 186.854 130.074 186.848 130.027C186.842 129.979 186.845 129.931 186.858 129.884C186.871 129.838 186.892 129.795 186.922 129.757C186.952 129.719 186.989 129.687 187.031 129.664C187.084 129.633 187.145 129.617 187.207 129.617C193.097 129.715 198.987 129.518 204.878 129.617C204.953 129.618 205.026 129.644 205.085 129.69C205.153 129.724 205.206 129.783 205.233 129.855C205.26 129.926 205.258 130.005 205.228 130.076ZM206.846 112.859C207.86 112.54 208.948 112.539 209.963 112.857C210.978 113.175 211.869 113.796 212.517 114.637C212.802 115.01 212.171 115.366 211.892 115.001C211.327 114.298 210.56 113.782 209.693 113.524C208.826 113.266 207.901 113.277 207.041 113.556C206.592 113.698 206.403 113.003 206.846 112.859ZM212.802 124.562C212.618 124.894 212.359 125.179 212.046 125.393C211.732 125.608 211.373 125.747 210.996 125.799C210.619 125.851 210.235 125.815 209.874 125.693C209.514 125.572 209.187 125.368 208.92 125.098C208.567 124.706 208.297 124.247 208.127 123.749C207.956 123.251 207.888 122.724 207.927 122.199C207.927 122.103 207.965 122.011 208.034 121.943C208.102 121.875 208.194 121.837 208.291 121.837C208.387 121.837 208.48 121.875 208.548 121.943C208.616 122.011 208.655 122.103 208.655 122.199C208.655 123.242 208.905 124.531 210.013 124.938C210.367 125.116 210.775 125.157 211.158 125.054C211.54 124.952 211.872 124.712 212.088 124.381C212.361 123.687 212.468 122.94 212.402 122.198C212.407 122.105 212.448 122.019 212.516 121.955C212.583 121.892 212.672 121.857 212.765 121.857C212.858 121.857 212.947 121.892 213.015 121.955C213.082 122.019 213.123 122.105 213.128 122.198C213.181 122.999 213.07 123.804 212.802 124.562ZM225.482 124.707L220.953 127.664C220.561 127.921 220.197 127.291 220.587 127.042L225.115 124.085C225.507 123.825 225.871 124.454 225.482 124.707Z" fill="white"/>
<path d="M225.746 116.864C223.453 116.952 221.739 118.647 220.371 120.35C219.067 115.867 216.498 111.851 212.969 108.779C211.727 107.645 210.34 106.679 208.844 105.906C207.317 105.139 205.718 104.524 204.069 104.07C200.258 102.991 196.264 102.703 192.336 103.226C190.233 103.514 188.178 104.082 186.227 104.915C184.208 105.804 182.32 106.965 180.617 108.364C178.938 109.688 177.464 111.249 176.242 113C175.047 114.763 174.189 116.731 173.711 118.805C172.756 122.852 172.871 127.076 174.044 131.066C175.16 135.002 177.494 138.488 180.714 141.026C181.039 141.275 181.383 141.493 181.723 141.717C181.961 141.872 182.197 142.027 182.441 142.17C185.906 144.08 189.764 145.178 193.719 145.382C198.819 145.881 203.964 145.15 208.719 143.251C212.815 141.57 216.275 138.646 218.608 134.895C218.649 134.827 218.686 134.756 218.724 134.686C219.002 134.205 219.255 133.71 219.483 133.203C219.668 132.791 219.834 132.371 219.989 131.946C224.032 133.066 227.941 130.679 229.873 127.195C230.045 126.885 230.201 126.567 230.341 126.241C230.514 125.845 230.662 125.438 230.782 125.023C231.192 123.643 231.206 122.176 230.822 120.79C230.586 120.041 230.202 119.347 229.693 118.748C229.184 118.149 228.56 117.658 227.857 117.304C227.589 117.174 227.309 117.071 227.022 116.996C226.605 116.89 226.175 116.845 225.746 116.864ZM230.121 120.99C230.431 122.4 230.378 123.865 229.964 125.249C229.551 126.632 228.791 127.888 227.757 128.899C226.799 129.993 225.544 130.789 224.144 131.191C222.744 131.593 221.256 131.585 219.861 131.168C219.768 131.145 219.671 131.158 219.587 131.204C219.504 131.251 219.442 131.327 219.413 131.417C217.887 135.585 214.921 139.076 211.047 141.266C206.846 143.609 202.104 144.818 197.289 144.774C192.651 144.979 188.032 144.067 183.823 142.115C180.169 140.219 177.284 137.123 175.659 133.352C174.082 129.698 173.49 125.696 173.942 121.744C174.132 119.708 174.647 117.716 175.466 115.841C176.338 113.976 177.527 112.276 178.981 110.815C181.927 107.761 185.653 105.566 189.759 104.465C193.567 103.523 197.535 103.426 201.384 104.181C204.572 104.713 207.619 105.878 210.344 107.609C212.069 108.809 213.622 110.237 214.959 111.854C216.529 113.652 217.817 115.676 218.779 117.858C219.237 118.945 219.6 120.07 219.864 121.219C219.885 121.286 219.925 121.346 219.979 121.391C220.033 121.436 220.098 121.465 220.168 121.474C220.238 121.483 220.309 121.472 220.373 121.443C220.437 121.413 220.49 121.365 220.528 121.306C221.778 119.688 223.413 117.732 225.624 117.586C226.645 117.584 227.638 117.917 228.451 118.531C229.264 119.146 229.852 120.01 230.124 120.99H230.121Z" fill="#29175F"/>
<path d="M225.115 124.081L220.587 127.038C220.197 127.287 220.561 127.919 220.954 127.661L225.482 124.704C225.871 124.452 225.507 123.825 225.115 124.081ZM212.402 122.197C212.468 122.94 212.361 123.687 212.089 124.381C211.872 124.712 211.541 124.952 211.158 125.054C210.775 125.157 210.368 125.115 210.014 124.938C208.905 124.528 208.655 123.241 208.655 122.199C208.655 122.103 208.617 122.01 208.548 121.943C208.48 121.875 208.388 121.836 208.291 121.836C208.195 121.836 208.102 121.875 208.034 121.943C207.966 122.01 207.927 122.103 207.927 122.199C207.889 122.724 207.957 123.251 208.127 123.749C208.298 124.247 208.567 124.706 208.92 125.098C209.187 125.368 209.514 125.572 209.875 125.693C210.235 125.815 210.619 125.851 210.996 125.799C211.373 125.747 211.733 125.608 212.046 125.393C212.36 125.178 212.619 124.894 212.802 124.562C213.07 123.803 213.181 122.999 213.129 122.196C213.123 122.104 213.083 122.017 213.015 121.954C212.948 121.89 212.858 121.855 212.765 121.855C212.673 121.855 212.583 121.89 212.516 121.954C212.448 122.017 212.408 122.104 212.402 122.196V122.197ZM184.885 113.292C184.977 113.314 185.074 113.3 185.155 113.252C185.237 113.204 185.297 113.127 185.322 113.036C185.347 112.945 185.335 112.848 185.29 112.765C185.244 112.683 185.168 112.621 185.077 112.594C184.049 112.294 182.958 112.284 181.924 112.563C180.89 112.842 179.953 113.4 179.217 114.176C178.9 114.516 179.412 115.029 179.732 114.688C180.377 114.002 181.2 113.509 182.11 113.262C183.02 113.016 183.98 113.026 184.885 113.292ZM205.085 129.691C205.026 129.645 204.954 129.619 204.879 129.618C198.987 129.519 193.097 129.716 187.207 129.618C187.159 129.618 187.111 129.628 187.066 129.647C187.022 129.666 186.982 129.694 186.948 129.729C186.914 129.764 186.888 129.805 186.871 129.85C186.853 129.895 186.845 129.943 186.846 129.991C186.846 130.052 186.863 130.113 186.894 130.165C188.812 133.278 191.894 136.473 195.799 136.626C197.305 136.71 198.809 136.426 200.18 135.8C201.552 135.173 202.749 134.222 203.667 133.03C204.336 132.132 204.863 131.137 205.229 130.08C205.259 130.009 205.261 129.929 205.234 129.857C205.208 129.785 205.154 129.725 205.085 129.691ZM211.89 115.001C212.171 115.366 212.802 115.001 212.515 114.637C211.867 113.796 210.975 113.175 209.961 112.857C208.946 112.539 207.858 112.539 206.844 112.859C206.401 113.003 206.594 113.703 207.036 113.556C207.897 113.276 208.822 113.265 209.69 113.523C210.557 113.782 211.325 114.297 211.89 115.001ZM184.617 122.332C184.685 123.074 184.577 123.822 184.304 124.516C184.087 124.847 183.756 125.086 183.374 125.189C182.991 125.292 182.584 125.25 182.23 125.072C181.121 124.664 180.87 123.375 180.87 122.333C180.864 122.241 180.824 122.154 180.756 122.091C180.689 122.027 180.599 121.992 180.507 121.992C180.414 121.992 180.325 122.027 180.257 122.091C180.19 122.154 180.149 122.241 180.144 122.333C180.105 122.858 180.172 123.385 180.343 123.884C180.513 124.382 180.782 124.841 181.135 125.233C181.402 125.503 181.729 125.707 182.09 125.828C182.45 125.95 182.834 125.986 183.211 125.934C183.588 125.882 183.948 125.743 184.261 125.528C184.575 125.313 184.834 125.028 185.017 124.696C185.285 123.938 185.397 123.133 185.345 122.331C185.345 122.235 185.307 122.142 185.238 122.074C185.17 122.007 185.078 121.968 184.981 121.968C184.885 121.968 184.792 122.007 184.724 122.074C184.656 122.142 184.617 122.236 184.617 122.332ZM53.7548 106.512C51.2048 106.81 48.6469 107.017 46.0811 107.134C45.6148 107.155 45.6123 107.881 46.0811 107.858C50.713 107.641 55.3269 107.139 59.8961 106.352C64.8713 105.482 69.7993 104.362 74.6611 102.997C77.6524 102.165 80.6267 101.274 83.5823 100.324L83.8511 100.241C84.2948 100.097 84.1011 99.399 83.6573 99.5422H83.6448C78.4623 101.204 73.2311 102.727 67.9298 103.971C63.2573 105.086 58.5246 105.934 53.7548 106.512Z" fill="#29175F"/>
<path d="M98.9848 121.021L98.6723 121.235C98.6324 121.468 98.6048 121.702 98.5898 121.937V122.152C103.16 118.984 107.474 115.463 111.491 111.623C115.908 107.409 119.977 102.849 123.659 97.9849C123.399 98.072 123.139 98.1567 122.881 98.2525C122.709 98.316 122.541 98.3882 122.371 98.4542C119.341 102.382 116.055 106.108 112.534 109.606C108.343 113.779 103.811 117.597 98.9848 121.021Z" fill="#29175F"/>
<path d="M98.6734 121.235C99.1536 119.123 100.14 117.158 101.548 115.508C101.828 115.135 101.197 114.774 100.923 115.144C99.4322 116.889 98.4042 118.979 97.9334 121.223C97.9072 121.408 97.8996 121.596 97.8871 121.778C97.8686 122.068 97.8661 122.359 97.8797 122.65C98.0322 124.477 98.6081 126.244 99.5622 127.812C100.499 129.543 102.038 130.874 103.891 131.555C105.71 132.157 107.647 132.315 109.54 132.016C111.707 131.721 113.806 131.051 115.742 130.038C115.761 130.025 115.779 130.01 115.795 129.994V129.469C115.741 129.415 115.671 129.381 115.596 129.371C115.521 129.361 115.444 129.375 115.378 129.413C112.206 131.209 108.491 131.812 104.91 131.111C103.191 130.697 101.684 129.672 100.671 128.229C99.3785 126.457 98.6547 124.337 98.5947 122.148V121.934C98.6085 121.7 98.6348 121.467 98.6734 121.235Z" fill="#29175F"/>
<path d="M95.7004 124.003C93.3446 125.393 90.928 126.673 88.4505 127.845C86.0539 128.977 83.6026 129.99 81.1055 130.881C73.3582 133.654 65.1843 135.06 56.9517 135.034C53.943 135.034 50.9392 134.836 47.9517 134.536C45.7305 134.315 43.5155 134.017 41.2892 133.85C40.8255 133.815 40.823 133.09 41.2892 133.125C41.518 133.143 41.748 133.161 41.9767 133.183C44.2892 133.388 46.593 133.69 48.9042 133.903C51.9547 134.196 55.0185 134.328 58.083 134.299C61.8705 134.253 65.6479 133.9 69.378 133.244C73.8415 132.445 78.2195 131.23 82.4542 129.614C87.4718 127.683 92.2956 125.286 96.8617 122.453L96.9317 122.411C95.9659 120.874 95.0209 119.323 94.0967 117.758C93.8467 117.339 93.6042 116.917 93.3567 116.496C91.8404 113.91 90.3404 111.313 88.7642 108.762C87.033 105.958 85.168 103.217 83.5917 100.321C80.6357 101.271 77.661 102.162 74.6692 102.994C69.8046 104.361 64.8737 105.482 59.8955 106.353C55.3263 107.14 50.7124 107.644 46.0805 107.86C45.6117 107.883 45.6142 107.158 46.0805 107.137C48.6446 107.02 51.2025 106.813 53.7542 106.515C58.5252 105.938 63.2591 105.09 67.933 103.975C73.2342 102.73 78.4655 101.208 83.648 99.5464C86.1906 98.4894 88.6525 97.2495 91.0142 95.8363C91.2804 95.6757 91.5379 95.5051 91.7992 95.3383C92.0092 95.205 92.2217 95.0756 92.4242 94.9399C91.7621 92.8603 90.8792 90.8569 89.7905 88.9639C88.1788 86.2043 86.208 83.6691 83.9292 81.4241C81.6817 79.2357 79.0597 77.4649 76.1867 76.1951C76.0343 76.3896 75.8716 76.5758 75.6992 76.7529C74.844 77.6386 73.7736 78.2892 72.5917 78.6416C67.2167 80.2402 61.293 81.4553 55.738 79.9575C53.2238 79.2243 50.8827 77.9966 48.853 76.347C47.7821 75.5782 46.8132 74.6775 45.9692 73.6666C45.2786 72.7361 44.8392 71.6447 44.693 70.4968C44.6817 70.4208 44.6617 70.3474 44.6542 70.2714C44.6355 70.1083 44.638 69.9415 44.6317 69.7734C44.583 69.7734 44.533 69.7734 44.483 69.7834C38.8886 70.3761 33.5119 72.2682 28.7855 75.3075C24.0154 78.4036 19.8428 82.3284 16.4667 86.8947C14.7239 89.2117 13.159 91.6563 11.7855 94.2078C10.7567 96.1127 9.87671 98.0748 9.01796 100.059C8.78671 100.596 8.56171 101.132 8.35921 101.678C7.33791 104.479 6.68295 107.4 6.41046 110.368C6.22329 112.371 6.25263 114.389 6.49796 116.386C6.77027 118.604 7.35563 120.773 8.23671 122.828C9.24026 125.126 10.6217 127.24 12.3242 129.085C14.3747 131.275 16.7605 133.126 19.393 134.572C22.799 136.432 26.4279 137.854 30.193 138.805C35.1743 140.072 40.2626 140.879 45.393 141.214C51.8627 141.802 58.3769 141.702 64.8255 140.916C70.0401 140.287 75.096 138.717 79.7455 136.283C83.373 134.324 86.531 131.606 89.0017 128.315C89.1231 128.127 89.2541 127.945 89.3942 127.771C89.7004 127.526 90.0423 127.33 90.4079 127.189C91.1954 126.767 91.9759 126.333 92.7492 125.884C94.3817 124.938 95.9809 123.939 97.5467 122.886L97.5604 122.874C96.9429 123.258 96.3229 123.635 95.7004 124.003Z" fill="#8B80AB" stroke="#29175F"/>
<path d="M133.17 81.1201C135.505 76.3101 137.217 71.2243 138.266 65.9846C138.886 63.4269 139.075 60.7843 138.826 58.1648C138.393 55.2365 137.001 52.5326 134.867 50.4732C134.617 50.2416 134.211 49.898 133.883 50.1955C133.706 50.4065 133.599 50.6678 133.578 50.9425C133.517 51.7786 133.54 52.6187 133.65 53.45L133.973 59.3923C133.998 59.8605 133.278 59.8542 133.246 59.3923C133.125 57.6435 132.749 55.9214 132.13 54.2804C131.842 53.519 131.501 52.7785 131.11 52.0643C130.803 51.4416 130.403 50.8687 129.925 50.3648C129.505 49.8829 128.915 49.581 128.277 49.522C127.971 49.5583 127.691 49.7112 127.496 49.9486C127.3 50.186 127.204 50.4895 127.228 50.7956C127.243 51.4919 127.322 52.1854 127.465 52.8673C127.575 53.6763 127.628 54.4922 127.621 55.3087C127.604 56.9442 127.356 58.5693 126.883 60.1356C126.858 60.2179 126.804 60.2886 126.731 60.335C126.658 60.3815 126.571 60.4007 126.486 60.3891C126.4 60.3776 126.321 60.3362 126.263 60.2722C126.205 60.2082 126.172 60.1258 126.17 60.0397C126.121 58.2207 125.902 56.4101 125.516 54.6315C125.311 53.7682 125.003 52.9323 124.6 52.1415C124.258 51.4866 123.725 50.3985 122.897 50.2964C121.703 50.1445 121.482 52.0692 121.473 52.8748C121.482 54.184 121.396 55.4921 121.216 56.789C120.89 59.5668 119.832 62.2092 118.15 64.4483C116.425 66.5332 114.048 67.982 111.4 68.563C110.498 68.7637 109.573 68.8437 108.65 68.8008C109.548 70.1029 110.365 71.4592 111.095 72.862C111.332 73.2906 111.541 73.7344 111.72 74.1904C111.86 74.605 111.4 75.0395 111.178 75.3707C110.629 76.1924 110.075 77.0099 109.516 77.8233C106.277 82.792 102.462 87.3632 98.1484 91.4424C94.0304 95.055 89.3426 97.9667 84.2734 100.06C85.1247 101.608 86.0709 103.102 87.0109 104.597C88.8757 107.545 90.6922 110.523 92.4597 113.53C94.1247 116.377 95.7872 119.226 97.5409 122.021L97.8959 121.772C97.9084 121.586 97.9159 121.398 97.9422 121.217C98.413 118.973 99.441 116.883 100.932 115.137C101.208 114.764 101.84 115.128 101.557 115.502C100.149 117.152 99.1624 119.117 98.6822 121.229L98.9947 121.015C103.818 117.592 108.348 113.776 112.536 109.606C116.06 106.108 119.349 102.383 122.381 98.4542C118.79 99.9502 115.37 101.826 112.181 104.049C111.79 104.308 111.431 103.676 111.815 103.427C113.935 101.995 116.13 100.676 118.391 99.4751C119.935 98.6724 121.534 97.9809 123.177 97.4059C123.552 96.9179 123.927 96.4385 124.288 95.9443C127.702 91.2867 130.675 86.3241 133.17 81.1201ZM133.392 67.6517C133.736 67.1356 133.957 66.5478 134.037 65.9336C134.095 65.4767 134.822 65.4717 134.765 65.9336C134.679 66.6765 134.422 67.3898 134.015 68.0177C133.765 68.4074 133.131 68.0438 133.39 67.6517H133.392ZM125.415 68.014C125.706 67.4299 125.822 66.7747 125.75 66.1265C125.705 65.6622 126.432 65.6671 126.477 66.1265C126.55 66.9036 126.399 67.6851 126.042 68.38C125.833 68.7971 125.207 68.4298 125.411 68.014H125.415ZM110.897 104.983C110.413 106.387 109.842 107.759 109.186 109.091C108.321 111.153 106.948 112.964 105.195 114.358C104.524 114.847 103.709 115.099 102.878 115.072C101.999 114.976 101.178 114.585 100.55 113.964C100.129 113.635 99.7991 113.205 99.5909 112.714C99.3828 112.223 99.3032 111.688 99.3597 111.158C99.5807 110.306 100.079 109.551 100.776 109.011C101.674 108.267 102.663 107.639 103.72 107.143C105.897 106.111 108.147 105.237 110.451 104.529C110.513 104.513 110.578 104.513 110.639 104.53C110.701 104.546 110.757 104.579 110.802 104.624C110.847 104.669 110.88 104.725 110.897 104.787C110.913 104.848 110.913 104.913 110.897 104.974V104.983Z" fill="white"/>
<path d="M136.791 51.5341C136.362 50.974 135.89 50.4482 135.379 49.9616C134.799 49.4288 133.935 49.0465 133.311 49.745C132.866 50.4178 132.699 51.2356 132.844 52.0283L132.98 54.532C132.951 54.4523 132.93 54.3689 132.901 54.283C132.61 53.4813 132.265 52.7001 131.867 51.9449C131.526 51.233 131.087 50.5718 130.564 49.9803C129.697 49.0727 128.125 48.2161 127.056 49.3267C125.987 50.4372 126.707 52.3358 126.826 53.658C126.934 54.9228 126.895 56.1957 126.71 57.4515C126.614 55.0557 125.878 52.7288 124.577 50.7111C124.4 50.4166 124.161 50.1633 123.876 49.9684C123.592 49.7734 123.269 49.6412 122.93 49.5806C122.669 49.5585 122.407 49.6002 122.166 49.7019C121.925 49.8037 121.713 49.9625 121.547 50.1646C120.891 51.1597 120.61 52.354 120.752 53.536C120.785 56.4597 120.144 59.3519 118.877 61.9896C117.562 64.5724 115.295 66.5487 112.55 67.5049C111.512 67.865 110.425 68.0612 109.326 68.0863C109.122 68.0863 108.919 68.0739 108.714 68.0652C108.589 68.0652 108.451 68.0652 108.32 68.0515H108.309L108.164 68.0353H108.124C108.09 68.0353 108.056 68.0253 108.024 68.0191C107.916 68.001 107.805 68.0261 107.716 68.0888C107.642 68.1333 107.588 68.2053 107.567 68.2891C107.546 68.3729 107.559 68.4616 107.604 68.5358L107.612 68.5507C108.886 70.3976 110.014 72.3398 110.987 74.3599C108.122 78.8492 104.927 83.1209 101.429 87.1398C98.7714 90.1119 95.7474 92.7373 92.4286 94.9534C92.2223 95.0891 92.0098 95.2186 91.8036 95.3518C91.5423 95.5174 91.2848 95.688 91.0186 95.8498C88.6569 97.263 86.1949 98.503 83.6523 99.5599H83.6661C84.1123 99.4167 84.3023 100.115 83.8586 100.258L83.5898 100.342C85.1661 103.238 87.0311 105.979 88.7623 108.783C90.3386 111.334 91.8386 113.93 93.3561 116.517C93.6061 116.938 93.8473 117.358 94.0948 117.779C95.019 119.343 95.964 120.894 96.9298 122.432L97.2461 122.24C97.6448 121.991 98.0086 122.62 97.6123 122.863C97.7061 122.8 97.7948 122.732 97.8873 122.668C97.8738 122.378 97.8763 122.087 97.8948 121.797C97.7698 121.878 97.6586 121.961 97.5398 122.046C95.7898 119.252 94.1236 116.404 92.4586 113.556C90.6961 110.545 88.8698 107.58 87.0111 104.623C86.0698 103.129 85.1236 101.635 84.2723 100.087C89.3415 97.993 94.0293 95.0813 98.1473 91.4687C102.46 87.3903 106.276 82.8199 109.515 77.8521C110.075 77.0395 110.629 76.222 111.177 75.3995C111.399 75.067 111.859 74.6338 111.719 74.2192C111.54 73.7632 111.331 73.3194 111.094 72.8908C110.368 71.4789 109.555 70.1134 108.659 68.8022C109.582 68.8451 110.507 68.7652 111.409 68.5644C114.057 67.9834 116.434 66.5346 118.159 64.4497C119.841 62.2106 120.899 59.5682 121.225 56.7904C121.405 55.4935 121.491 54.1854 121.482 52.8762C121.491 52.0706 121.712 50.1459 122.906 50.2978C123.737 50.4036 124.267 51.488 124.609 52.1429C125.012 52.9337 125.32 53.7696 125.525 54.6329C125.911 56.4115 126.13 58.2221 126.179 60.0411C126.181 60.1272 126.214 60.2096 126.272 60.2736C126.33 60.3376 126.409 60.379 126.495 60.3905C126.58 60.4021 126.667 60.3829 126.74 60.3364C126.813 60.29 126.867 60.2193 126.892 60.137C127.365 58.5706 127.614 56.9457 127.631 55.3101C127.637 54.4936 127.585 53.6777 127.474 52.8687C127.331 52.1868 127.252 51.4933 127.237 50.797C127.214 50.491 127.309 50.1876 127.505 49.9503C127.7 49.713 127.98 49.56 128.286 49.5234C128.924 49.5818 129.514 49.8838 129.934 50.3662C130.409 50.8721 130.805 51.4468 131.107 52.0706C131.498 52.7846 131.839 53.5246 132.127 54.2855C132.746 55.9271 133.122 57.6495 133.244 59.3987C133.276 59.8606 133.994 59.8668 133.971 59.3987L133.649 53.4563C133.539 52.6252 133.515 51.785 133.576 50.9489C133.597 50.6742 133.703 50.4128 133.881 50.2019C134.209 49.9043 134.612 50.248 134.865 50.4795C137 52.5387 138.391 55.2427 138.824 58.1711C139.073 60.7907 138.884 63.4333 138.264 65.991C137.215 71.2307 135.503 76.3165 133.167 81.1264C130.672 86.3275 127.698 91.2872 124.284 95.942C123.924 96.44 123.541 96.9155 123.174 97.4036C123.577 97.2633 123.984 97.1297 124.395 97.0027C127.714 92.5514 130.636 87.8204 133.13 82.8632C135.616 77.9835 137.488 72.8167 138.702 67.48C138.832 66.8866 138.95 66.2902 139.056 65.6909C139.175 65.0286 139.282 64.3638 139.374 63.6989C139.499 62.7428 139.631 61.7729 139.676 60.8043C139.692 60.4595 139.7 60.1146 139.691 59.7697C139.613 56.79 138.599 53.9096 136.791 51.5341Z" fill="#29175F"/>
<path d="M97.2407 122.222L96.9244 122.414L96.8544 122.456C92.2884 125.289 87.4645 127.686 82.4469 129.618C78.2122 131.233 73.8341 132.447 69.3707 133.244C65.6406 133.901 61.8632 134.254 58.0757 134.3C55.0112 134.329 51.9474 134.197 48.8969 133.904C46.5857 133.691 44.2819 133.389 41.9694 133.183C41.7404 133.162 41.5112 133.143 41.2819 133.126C40.8157 133.091 40.8182 133.816 41.2819 133.851C43.5082 134.017 45.7232 134.316 47.9444 134.537C50.9382 134.833 53.9444 135.026 56.9444 135.035C65.1792 135.061 73.3554 133.654 81.1044 130.879C83.6044 129.991 86.0519 128.973 88.4494 127.844C90.9244 126.677 93.3411 125.397 95.6994 124.001C96.3219 123.634 96.9407 123.26 97.5557 122.881L97.6069 122.849C98.0032 122.602 97.6382 121.976 97.2407 122.222ZM126.041 68.3798C126.397 67.6849 126.548 66.9034 126.476 66.1264C126.431 65.667 125.703 65.662 125.748 66.1264C125.821 66.7745 125.704 67.4297 125.413 68.0138C125.206 68.4296 125.832 68.7969 126.041 68.3798ZM134.018 68.0175C134.426 67.3896 134.683 66.6764 134.768 65.9334C134.826 65.4715 134.098 65.4765 134.041 65.9334C133.96 66.5477 133.74 67.1354 133.396 67.6515C133.134 68.0437 133.763 68.4072 134.018 68.0175ZM140.124 145.615C140.588 145.664 140.586 144.94 140.124 144.89C139.535 144.824 138.964 144.643 138.445 144.357C137.925 144.071 137.468 143.685 137.099 143.222L137.047 143.16C136.767 142.786 136.136 143.152 136.422 143.524C136.471 143.588 136.523 143.649 136.573 143.704C137.457 144.783 138.734 145.47 140.124 145.615ZM217.613 208.132C217.619 208.225 217.659 208.311 217.727 208.375C217.794 208.438 217.884 208.473 217.976 208.473C218.069 208.473 218.158 208.438 218.226 208.375C218.293 208.311 218.334 208.225 218.339 208.132L218.589 189.955L218.662 184.75C218.656 184.658 218.616 184.571 218.548 184.508C218.481 184.444 218.392 184.409 218.299 184.409C218.206 184.409 218.117 184.444 218.049 184.508C217.982 184.571 217.941 184.658 217.936 184.75L217.686 202.927L217.613 208.132ZM31.1119 36.2227C32.3395 31.0917 34.4905 26.2248 37.4607 21.8579C38.3084 20.6129 39.2214 19.4131 40.1957 18.2636C40.4957 17.9088 39.9844 17.3921 39.6819 17.7519C35.1926 23.0346 32.016 29.2963 30.4094 36.0297C30.3032 36.4829 31.0032 36.6759 31.1119 36.2227ZM22.5857 40.8554C23.6 32.2649 26.9375 24.1101 32.2419 17.2614C33.7191 15.3551 35.3418 13.5653 37.0957 11.9079C37.4357 11.5854 36.9207 11.075 36.5819 11.3949C33.4044 14.4069 30.6549 17.8371 28.4094 21.5902C26.1626 25.3421 24.4317 29.3776 23.2632 33.5883C22.6068 35.9708 22.1371 38.4004 21.8582 40.8554C21.8057 41.3173 22.5344 41.3135 22.5857 40.8554Z" fill="#29175F"/>
<path fill-rule="evenodd" clip-rule="evenodd" d="M284.217 179.136C283.85 176.433 283.492 172.606 283.125 169.912C282.458 168.272 271.822 170.066 257.657 170.06C256.007 170.06 258.542 201.194 258.71 204.475C260.918 206.716 281.763 205.618 281.742 202.913L279.921 182.625C281.771 181.393 283.562 180.408 284.217 179.136ZM278.582 182.436C279.092 189.16 279.602 195.88 280.113 202.595C273.448 203.764 266.672 204.184 259.914 203.847C259.734 193.261 258.383 182.516 258.74 171.432C266.385 171.373 273.909 171.204 281.783 170.657C281.931 171.662 282.916 178.709 282.557 179.087C282.557 179.408 279.765 180.506 278.582 182.436Z" fill="#29175F"/>
<path fill-rule="evenodd" clip-rule="evenodd" d="M333.272 157.136C334.265 155.337 334.768 154.532 334.714 153.806C334.648 152.932 329.424 145.614 328.62 146.063C325.041 148.05 316.483 156.371 314.332 159.332C314.253 161.201 326.539 182.504 327.99 182.99C328.69 185.595 341.387 172.463 341.331 171.688C341.252 170.723 334.137 158.66 333.272 157.136ZM328.739 181.708C323.893 174.626 319.573 167.198 315.816 159.482C320.28 155.217 323.947 151.848 328.65 147.912L333.064 154.064L331.88 156.866C331.582 157.581 338.839 169.132 339.982 171.548C336.692 175.41 332.912 178.826 328.739 181.711V181.708Z" fill="#29175F"/>
<path fill-rule="evenodd" clip-rule="evenodd" d="M375.153 126.631C373.942 125.356 365.322 121.185 363.732 120.617C363.851 119.982 364.249 116.975 363.89 116.642C361.753 115.417 359.527 114.353 357.231 113.461C356.078 113.461 348.658 129.022 349.279 129.545C351.52 131.43 366.473 141.22 369.268 142.292C370.176 142.633 375.84 127.355 375.153 126.631ZM368.981 140.249C367.45 139.256 352.092 129.365 350.74 128.903C350.88 128.774 356.704 116.657 357.629 114.988C359.182 116.03 360.849 116.89 362.599 117.551C362.41 118.748 362.386 119.966 362.529 121.169C362.529 121.577 371.843 126.338 373.643 127.025C372.082 131.413 370.52 135.876 368.981 140.249Z" fill="#29175F"/>
<path fill-rule="evenodd" clip-rule="evenodd" d="M382.278 85.8778C382.278 84.8832 374.983 82.8955 373.873 82.4977C373.872 81.6085 373.741 80.7242 373.485 79.8727C373.097 79.0882 367.134 76.8904 366.637 77.1888C365.474 77.8051 362.975 90.5648 364.053 91.1559C365.886 92.1602 378.441 97.5392 380.215 97.119C381.218 96.8837 382.447 86.186 382.278 85.8778ZM379.535 95.4297C374.694 93.7599 369.883 91.8213 365.082 90.2006L367.259 78.6904L372.229 80.5983C372.318 81.2244 372.467 83.3718 373.034 83.5805L380.778 86.4143C380.318 89.1598 379.535 94.9226 379.535 95.4297Z" fill="#29175F"/>
<path fill-rule="evenodd" clip-rule="evenodd" d="M378.552 102.606C378.533 102.468 378.465 102.342 378.359 102.251C378.254 102.16 378.12 102.109 377.981 102.109C377.842 102.109 377.707 102.16 377.602 102.251C377.497 102.342 377.429 102.468 377.409 102.606C376.895 106.248 377.019 108.107 375.123 111.483C374.77 112.112 375.877 112.744 376.244 112.119C377.661 109.64 379.219 105.478 378.552 102.606Z" fill="#29175F"/>
<path fill-rule="evenodd" clip-rule="evenodd" d="M371.048 101.295C370.123 102.935 367.826 111.604 367.289 113.511C367.064 114.306 368.281 114.504 368.522 113.75C369.124 111.859 372.011 103.525 372.15 101.662C372.178 101.522 372.154 101.376 372.082 101.253C372.01 101.13 371.896 101.037 371.761 100.992C371.625 100.947 371.478 100.953 371.347 101.008C371.216 101.064 371.109 101.166 371.048 101.295Z" fill="#29175F"/>
<path fill-rule="evenodd" clip-rule="evenodd" d="M339.543 157.527C339.447 157.638 339.392 157.778 339.387 157.925C339.382 158.072 339.428 158.215 339.517 158.332C339.606 158.449 339.732 158.531 339.875 158.566C340.017 158.6 340.168 158.584 340.3 158.52C343.749 156.155 349.932 150.102 351.174 145.914C351.363 145.278 350.509 144.642 350.179 145.287C349.691 145.486 347.438 151.707 339.543 157.527Z" fill="#29175F"/>
<path fill-rule="evenodd" clip-rule="evenodd" d="M345.78 139.742C345.113 142.404 340.457 146.596 338.356 148.024C337.699 148.469 337.13 147.464 337.73 147.029C342.546 143.579 343.333 140.657 344.777 139.216C344.86 138.881 345.92 138.971 345.78 139.742Z" fill="#29175F"/>
<path fill-rule="evenodd" clip-rule="evenodd" d="M302.877 190.195C302.714 190.247 302.578 190.361 302.498 190.512C302.418 190.663 302.4 190.84 302.448 191.004C302.496 191.168 302.606 191.307 302.755 191.392C302.904 191.476 303.08 191.499 303.246 191.455C306.319 190.55 315.044 187.291 317.449 184.845C317.87 184.425 317.37 183.563 316.833 183.852C316.477 183.67 309.549 188.169 302.877 190.195Z" fill="#29175F"/>
<path fill-rule="evenodd" clip-rule="evenodd" d="M297.844 182.735C293.424 184.51 292 186.273 286.483 186.097C286.329 186.108 286.184 186.174 286.076 186.284C285.967 186.393 285.902 186.538 285.892 186.692C285.882 186.846 285.929 186.998 286.023 187.121C286.116 187.243 286.252 187.327 286.403 187.358C289.686 187.595 292.973 186.942 295.917 185.468C300.175 183.319 298.462 182.49 297.844 182.735Z" fill="#29175F"/>
<path fill-rule="evenodd" clip-rule="evenodd" d="M307.785 167.457C301.933 169.811 295.718 171.133 289.415 171.364C288.67 171.382 288.758 172.526 289.505 172.517C294.407 172.449 303.933 171.086 308.302 168.54C308.91 168.185 308.361 167.307 307.785 167.547V167.457Z" fill="#29175F"/>
<path fill-rule="evenodd" clip-rule="evenodd" d="M380.063 64.265C379.973 63.6893 378.906 63.4245 378.959 64.1067C379.119 69.2035 378.753 74.3031 377.867 79.3247C377.727 80.1302 378.94 80.1204 379.119 79.3247C380.072 74.3586 380.389 69.2915 380.063 64.2454V64.265Z" fill="#29175F"/>
</g>
<defs>
<clipPath id="clip0_3536_7476">
<rect width="390" height="210" fill="white"/>
</clipPath>
</defs>
</svg>
