<svg width="871" height="1990" viewBox="0 0 871 1990" fill="none" xmlns="http://www.w3.org/2000/svg">
<g clip-path="url(#clip0_3536_9125)">
<path d="M83.1356 1062.55C83.568 1067.02 82.6972 1071.51 80.6332 1075.46C78.5692 1079.41 75.4048 1082.63 71.5401 1084.73C67.6754 1086.83 63.284 1087.71 58.9212 1087.25C54.5585 1086.8 50.4201 1085.03 47.0299 1082.17C43.6397 1079.31 41.1494 1075.49 39.8743 1071.19C38.5992 1066.89 38.5963 1062.31 39.8662 1058.02C41.1362 1053.73 43.6216 1049.93 47.0083 1047.1C50.3951 1044.27 54.5312 1042.53 58.8934 1042.11C65.211 1041.49 71.5293 1043.39 76.5321 1047.41" stroke="url(#paint0_linear_3536_9125)" stroke-width="1.71429" stroke-linecap="round" stroke-linejoin="round"/>
<path d="M74.1628 1040.63L76.5321 1047.41L69.9139 1049.81" stroke="url(#paint1_linear_3536_9125)" stroke-width="1.71429" stroke-linecap="round" stroke-linejoin="round"/>
<path d="M72.9531 1063.54L59.3803 1064.85L55.8437 1074.31" stroke="url(#paint2_linear_3536_9125)" stroke-width="1.71429" stroke-linecap="round" stroke-linejoin="round"/>
</g>
<g clip-path="url(#clip1_3536_9125)">
<path d="M177.27 1113.38L181.282 1154.82" stroke="url(#paint3_linear_3536_9125)" stroke-width="1.71429" stroke-linecap="round" stroke-linejoin="round"/>
<path d="M188.324 1133.22L179.276 1134.1" stroke="url(#paint4_linear_3536_9125)" stroke-width="1.71429" stroke-linecap="round" stroke-linejoin="round"/>
<path d="M180.613 1147.91L146.268 1123.35" stroke="url(#paint5_linear_3536_9125)" stroke-width="1.71429" stroke-linecap="round" stroke-linejoin="round"/>
<path d="M177.938 1120.28L154.378 1145.23" stroke="url(#paint6_linear_3536_9125)" stroke-width="1.71429" stroke-linecap="round" stroke-linejoin="round"/>
<path d="M130.483 1149.01L163.059 1156.66C164.729 1157.05 165.969 1158.49 166.137 1160.22C166.305 1161.95 165.363 1163.6 163.799 1164.31L133.295 1178.06M142.273 1151.78L144.336 1173.08" stroke="url(#paint7_linear_3536_9125)" stroke-width="1.71429" stroke-linecap="round" stroke-linejoin="round"/>
</g>
<g clip-path="url(#clip2_3536_9125)">
<path d="M246.232 1189.9L275.115 1173.7C277.03 1172.62 279.294 1172.35 281.407 1172.95C283.521 1173.54 285.312 1174.95 286.386 1176.87L299.043 1199.43" stroke="url(#paint8_linear_3536_9125)" stroke-width="1.71429" stroke-linecap="round" stroke-linejoin="round"/>
<path d="M284.667 1199.19L255.784 1215.39C253.869 1216.46 251.605 1216.73 249.492 1216.14C247.378 1215.54 245.587 1214.13 244.513 1212.22" stroke="url(#paint9_linear_3536_9125)" stroke-width="1.71429" stroke-linecap="round" stroke-linejoin="round"/>
<path d="M247.684 1200.95L249.489 1199.94C249.968 1199.67 250.32 1199.22 250.469 1198.69C250.617 1198.16 250.55 1197.6 250.282 1197.12L241.169 1180.87C240.9 1180.39 240.452 1180.04 239.924 1179.89C239.396 1179.74 238.83 1179.81 238.351 1180.08L236.546 1181.09C234.631 1182.17 233.221 1183.96 232.626 1186.07C232.031 1188.18 232.301 1190.45 233.375 1192.36L244.513 1212.22C243.439 1210.3 243.169 1208.04 243.764 1205.93C244.359 1203.81 245.769 1202.02 247.684 1200.95Z" stroke="url(#paint10_linear_3536_9125)" stroke-width="1.71429" stroke-linecap="round" stroke-linejoin="round"/>
<path d="M299.044 1199.43C299.984 1201.11 300.219 1203.09 299.699 1204.94C299.179 1206.79 297.945 1208.36 296.269 1209.3L293.562 1210.81C293.083 1211.08 292.517 1211.15 291.989 1211C291.46 1210.85 291.012 1210.5 290.744 1210.02L284.669 1199.19L289.182 1196.66C290.857 1195.72 292.838 1195.48 294.687 1196C296.537 1196.52 298.104 1197.76 299.044 1199.43Z" stroke="url(#paint11_linear_3536_9125)" stroke-width="1.71429" stroke-linecap="round" stroke-linejoin="round"/>
<path d="M274.762 1185.76L277.799 1191.18" stroke="url(#paint12_linear_3536_9125)" stroke-width="1.71429" stroke-linecap="round" stroke-linejoin="round"/>
<path d="M263.934 1191.84L266.971 1197.25" stroke="url(#paint13_linear_3536_9125)" stroke-width="1.71429" stroke-linecap="round" stroke-linejoin="round"/>
</g>
<g clip-path="url(#clip3_3536_9125)">
<path d="M382.184 1178.22L381.79 1174.14C381.72 1173.42 381.36 1172.76 380.787 1172.3C380.215 1171.85 379.477 1171.63 378.737 1171.7L373.157 1172.24C372.417 1172.31 371.736 1172.67 371.262 1173.23C370.788 1173.79 370.561 1174.5 370.63 1175.22L371.025 1179.3L382.184 1178.22Z" stroke="url(#paint14_linear_3536_9125)" stroke-width="1.6" stroke-linecap="round" stroke-linejoin="round"/>
<path d="M371.024 1179.3L364.212 1190.67C363.971 1191.09 363.847 1191.56 363.854 1192.04C363.861 1192.53 363.998 1192.99 364.252 1193.41C364.513 1193.85 364.899 1194.22 365.367 1194.46C365.833 1194.7 366.362 1194.81 366.89 1194.77L389.21 1192.61C389.712 1192.57 390.195 1192.4 390.609 1192.12C391.023 1191.84 391.352 1191.45 391.561 1191.01C391.731 1190.56 391.776 1190.07 391.691 1189.6C391.605 1189.12 391.393 1188.68 391.075 1188.32L382.184 1178.22" stroke="url(#paint15_linear_3536_9125)" stroke-width="1.6" stroke-linecap="round" stroke-linejoin="round"/>
<path d="M387.473 1203.73C385.31 1205.85 382.419 1207.11 379.366 1207.26C375.916 1207.55 372.454 1206.94 369.338 1205.49" stroke="url(#paint16_linear_3536_9125)" stroke-width="1.6" stroke-linecap="round" stroke-linejoin="round"/>
<path d="M382.762 1198.71C381.68 1199.77 380.235 1200.4 378.708 1200.47C377.195 1200.69 375.656 1200.35 374.392 1199.52" stroke="url(#paint17_linear_3536_9125)" stroke-width="1.6" stroke-linecap="round" stroke-linejoin="round"/>
</g>
<path fill-rule="evenodd" clip-rule="evenodd" d="M343.593 1205.45C343.835 1205.3 344.015 1205.06 344.099 1204.79C344.183 1204.52 344.166 1204.22 344.05 1203.96C343.935 1203.7 343.729 1203.49 343.47 1203.37C343.212 1203.25 342.918 1203.22 342.644 1203.3C335.386 1205.36 332.003 1207.14 324.098 1206.38C322.625 1206.24 322.359 1208.84 323.835 1209.01C329.662 1209.61 338.761 1209.08 343.593 1205.45Z" fill="url(#paint18_linear_3536_9125)"/>
<path fill-rule="evenodd" clip-rule="evenodd" d="M339.824 1190.28C335.98 1189.91 317.813 1192.8 313.792 1193.38C312.113 1193.61 312.753 1196.06 314.366 1195.89C318.413 1195.45 336.441 1193.94 340.051 1192.66C340.336 1192.59 340.588 1192.43 340.76 1192.19C340.932 1191.95 341.011 1191.66 340.983 1191.37C340.956 1191.08 340.822 1190.81 340.609 1190.61C340.395 1190.41 340.116 1190.29 339.824 1190.28Z" fill="url(#paint19_linear_3536_9125)"/>
<path fill-rule="evenodd" clip-rule="evenodd" d="M184.457 1173.84C184.169 1173.75 183.86 1173.76 183.581 1173.87C183.302 1173.99 183.071 1174.19 182.926 1174.45C182.781 1174.72 182.731 1175.02 182.785 1175.32C182.839 1175.62 182.993 1175.88 183.222 1176.08C190.522 1180.58 207.007 1187.15 215.894 1186.01C217.244 1185.83 217.727 1183.7 216.243 1183.62C215.464 1182.87 201.927 1183.81 184.457 1173.84Z" fill="url(#paint20_linear_3536_9125)"/>
<path fill-rule="evenodd" clip-rule="evenodd" d="M222.989 1170.76C217.444 1171.72 205.715 1166.47 201.294 1163.71C199.913 1162.85 201.327 1160.95 202.639 1161.71C213.108 1167.88 219.242 1166.93 223.144 1168.44C223.841 1168.32 224.553 1170.38 222.989 1170.76Z" fill="url(#paint21_linear_3536_9125)"/>
<path fill-rule="evenodd" clip-rule="evenodd" d="M85.5114 1110.48C85.2198 1110.28 84.8635 1110.21 84.5184 1110.27C84.1733 1110.34 83.8665 1110.53 83.6633 1110.82C83.4601 1111.11 83.3766 1111.46 83.4304 1111.81C83.4843 1112.15 83.6713 1112.47 83.9516 1112.68C89.3169 1116.47 105.661 1126.36 112.655 1127.12C113.866 1127.26 114.616 1125.36 113.469 1124.87C113.309 1124.06 97.2572 1118.64 85.5114 1110.48Z" fill="url(#paint22_linear_3536_9125)"/>
<path fill-rule="evenodd" clip-rule="evenodd" d="M103.041 1102.89C94.5621 1098.04 89.9143 1097.99 83.1796 1088.89C82.9662 1088.66 82.6754 1088.51 82.361 1088.47C82.0467 1088.44 81.7301 1088.52 81.47 1088.7C81.2099 1088.88 81.024 1089.14 80.9467 1089.45C80.8694 1089.76 80.9059 1090.08 81.0496 1090.36C84.8446 1095.95 90.0759 1100.41 96.1922 1103.27C105.066 1107.39 104.221 1103.58 103.041 1102.89Z" fill="url(#paint23_linear_3536_9125)"/>
<path fill-rule="evenodd" clip-rule="evenodd" d="M428.83 1175.63C429.835 1174.98 429.446 1172.76 428.21 1173.43C418.784 1177.96 408.916 1181.51 398.762 1184.01C397.135 1184.42 398.16 1186.69 399.801 1186.36C409.906 1184.03 419.673 1180.41 428.867 1175.61L428.83 1175.63Z" fill="url(#paint24_linear_3536_9125)"/>
<path d="M550.229 887.515C575.162 1079.8 405.826 1220.7 237.793 1103.47C27.7533 956.926 -102.96 684.957 -248.389 993.468C-393.818 1301.98 -583.792 1270.78 -664.194 1149.3C-728.515 1052.11 -772.264 848.367 -786.098 758.643" stroke="url(#paint25_linear_3536_9125)" stroke-width="2" stroke-dasharray="14 14"/>
<defs>
<linearGradient id="paint0_linear_3536_9125" x1="37.9793" y1="1056.04" x2="45.8166" y2="1088.71" gradientUnits="userSpaceOnUse">
<stop stop-color="#4C60E9"/>
<stop offset="1" stop-color="#7485FF"/>
</linearGradient>
<linearGradient id="paint1_linear_3536_9125" x1="69.2925" y1="1043.39" x2="71.0039" y2="1049.58" gradientUnits="userSpaceOnUse">
<stop stop-color="#4C60E9"/>
<stop offset="1" stop-color="#7485FF"/>
</linearGradient>
<linearGradient id="paint2_linear_3536_9125" x1="55.1975" y1="1067.64" x2="56.3094" y2="1074.32" gradientUnits="userSpaceOnUse">
<stop stop-color="#4C60E9"/>
<stop offset="1" stop-color="#7485FF"/>
</linearGradient>
<linearGradient id="paint3_linear_3536_9125" x1="177.322" y1="1124.29" x2="182.698" y2="1124.71" gradientUnits="userSpaceOnUse">
<stop stop-color="#4C60E9"/>
<stop offset="1" stop-color="#7485FF"/>
</linearGradient>
<linearGradient id="paint4_linear_3536_9125" x1="179.301" y1="1134.36" x2="179.384" y2="1135.1" gradientUnits="userSpaceOnUse">
<stop stop-color="#4C60E9"/>
<stop offset="1" stop-color="#7485FF"/>
</linearGradient>
<linearGradient id="paint5_linear_3536_9125" x1="146.966" y1="1130.57" x2="151.365" y2="1150.7" gradientUnits="userSpaceOnUse">
<stop stop-color="#4C60E9"/>
<stop offset="1" stop-color="#7485FF"/>
</linearGradient>
<linearGradient id="paint6_linear_3536_9125" x1="152.771" y1="1128.64" x2="156.346" y2="1145" gradientUnits="userSpaceOnUse">
<stop stop-color="#4C60E9"/>
<stop offset="1" stop-color="#7485FF"/>
</linearGradient>
<linearGradient id="paint7_linear_3536_9125" x1="131.217" y1="1156.6" x2="135.775" y2="1177.79" gradientUnits="userSpaceOnUse">
<stop stop-color="#4C60E9"/>
<stop offset="1" stop-color="#7485FF"/>
</linearGradient>
<linearGradient id="paint8_linear_3536_9125" x1="250.594" y1="1197.68" x2="265.406" y2="1218.28" gradientUnits="userSpaceOnUse">
<stop stop-color="#4C60E9"/>
<stop offset="1" stop-color="#7485FF"/>
</linearGradient>
<linearGradient id="paint9_linear_3536_9125" x1="245.57" y1="1214.11" x2="248.744" y2="1219.42" gradientUnits="userSpaceOnUse">
<stop stop-color="#4C60E9"/>
<stop offset="1" stop-color="#7485FF"/>
</linearGradient>
<linearGradient id="paint10_linear_3536_9125" x1="233.291" y1="1192.21" x2="249.652" y2="1206.87" gradientUnits="userSpaceOnUse">
<stop stop-color="#4C60E9"/>
<stop offset="1" stop-color="#7485FF"/>
</linearGradient>
<linearGradient id="paint11_linear_3536_9125" x1="286.519" y1="1202.49" x2="293.156" y2="1210.88" gradientUnits="userSpaceOnUse">
<stop stop-color="#4C60E9"/>
<stop offset="1" stop-color="#7485FF"/>
</linearGradient>
<linearGradient id="paint12_linear_3536_9125" x1="274.683" y1="1187.66" x2="278.001" y2="1188.9" gradientUnits="userSpaceOnUse">
<stop stop-color="#4C60E9"/>
<stop offset="1" stop-color="#7485FF"/>
</linearGradient>
<linearGradient id="paint13_linear_3536_9125" x1="263.855" y1="1193.74" x2="267.173" y2="1194.97" gradientUnits="userSpaceOnUse">
<stop stop-color="#4C60E9"/>
<stop offset="1" stop-color="#7485FF"/>
</linearGradient>
<linearGradient id="paint14_linear_3536_9125" x1="370.539" y1="1174.28" x2="371.445" y2="1179.28" gradientUnits="userSpaceOnUse">
<stop stop-color="#4C60E9"/>
<stop offset="1" stop-color="#7485FF"/>
</linearGradient>
<linearGradient id="paint15_linear_3536_9125" x1="363.066" y1="1184" x2="364.955" y2="1195.03" gradientUnits="userSpaceOnUse">
<stop stop-color="#4C60E9"/>
<stop offset="1" stop-color="#7485FF"/>
</linearGradient>
<linearGradient id="paint16_linear_3536_9125" x1="369.407" y1="1206.2" x2="369.646" y2="1208.24" gradientUnits="userSpaceOnUse">
<stop stop-color="#4C60E9"/>
<stop offset="1" stop-color="#7485FF"/>
</linearGradient>
<linearGradient id="paint17_linear_3536_9125" x1="374.426" y1="1199.88" x2="374.548" y2="1200.89" gradientUnits="userSpaceOnUse">
<stop stop-color="#4C60E9"/>
<stop offset="1" stop-color="#7485FF"/>
</linearGradient>
<linearGradient id="paint18_linear_3536_9125" x1="323.158" y1="1208.79" x2="325.671" y2="1213.79" gradientUnits="userSpaceOnUse">
<stop stop-color="#4C60E9"/>
<stop offset="1" stop-color="#7485FF"/>
</linearGradient>
<linearGradient id="paint19_linear_3536_9125" x1="313.495" y1="1196.31" x2="316.875" y2="1203.01" gradientUnits="userSpaceOnUse">
<stop stop-color="#4C60E9"/>
<stop offset="1" stop-color="#7485FF"/>
</linearGradient>
<linearGradient id="paint20_linear_3536_9125" x1="184.907" y1="1180.2" x2="194.081" y2="1195.68" gradientUnits="userSpaceOnUse">
<stop stop-color="#4C60E9"/>
<stop offset="1" stop-color="#7485FF"/>
</linearGradient>
<linearGradient id="paint21_linear_3536_9125" x1="202.158" y1="1166.23" x2="208.673" y2="1177.08" gradientUnits="userSpaceOnUse">
<stop stop-color="#4C60E9"/>
<stop offset="1" stop-color="#7485FF"/>
</linearGradient>
<linearGradient id="paint22_linear_3536_9125" x1="87.9126" y1="1117.76" x2="105.969" y2="1131.15" gradientUnits="userSpaceOnUse">
<stop stop-color="#4C60E9"/>
<stop offset="1" stop-color="#7485FF"/>
</linearGradient>
<linearGradient id="paint23_linear_3536_9125" x1="84.5793" y1="1094.99" x2="100.327" y2="1104.56" gradientUnits="userSpaceOnUse">
<stop stop-color="#4C60E9"/>
<stop offset="1" stop-color="#7485FF"/>
</linearGradient>
<linearGradient id="paint24_linear_3536_9125" x1="398.132" y1="1185.63" x2="399.643" y2="1188.87" gradientUnits="userSpaceOnUse">
<stop stop-color="#4C60E9"/>
<stop offset="1" stop-color="#7485FF"/>
</linearGradient>
<linearGradient id="paint25_linear_3536_9125" x1="-792.017" y1="883.671" x2="-773.14" y2="1239.78" gradientUnits="userSpaceOnUse">
<stop stop-color="#4C60E9"/>
<stop offset="1" stop-color="#7485FF"/>
</linearGradient>
<clipPath id="clip0_3536_9125">
<rect width="48.8634" height="47.727" fill="white" transform="translate(82.4766 1038.07) rotate(84.4697)"/>
</clipPath>
<clipPath id="clip1_3536_9125">
<rect width="64.7724" height="63.636" fill="white" transform="translate(188.355 1109.98) rotate(84.4697)"/>
</clipPath>
<clipPath id="clip2_3536_9125">
<rect width="57.9542" height="57.9542" fill="white" transform="translate(277.055 1156) rotate(60.7123)"/>
</clipPath>
<clipPath id="clip3_3536_9125">
<rect width="40.9089" height="42.0452" fill="white" transform="translate(396.742 1168.59) rotate(84.4697)"/>
</clipPath>
</defs>
</svg>
