<svg width="186" height="186" viewBox="0 0 186 186" fill="none" xmlns="http://www.w3.org/2000/svg">
<path d="M163.72 56.4674L135.446 54.3149C142.224 59.0536 154.19 70.9468 156.217 96.599C156.278 96.6212 156.333 96.6576 156.378 96.7052C156.422 96.7529 156.455 96.8104 156.473 96.8731C156.645 97.7531 156.767 98.6421 156.84 99.5358C156.84 99.6474 156.796 99.7545 156.718 99.8345C156.64 99.9145 156.534 99.9612 156.423 99.9647C156.445 100.436 156.464 100.912 156.475 101.395C156.541 101.371 156.611 101.363 156.681 101.371C156.75 101.379 156.817 101.402 156.876 101.439C156.936 101.477 156.986 101.527 157.023 101.586C157.06 101.646 157.083 101.713 157.09 101.782C157.206 103.088 157.267 104.396 157.271 105.708C157.249 109.627 156.745 113.53 155.771 117.327C155.683 118.151 155.583 118.98 155.473 119.826C162.816 116.521 170.843 112.691 178.002 109.143C179.6 108.042 180.961 106.631 182.003 104.994C183.045 103.357 183.748 101.526 184.069 99.6123C186.281 86.0788 186.193 63.6548 163.72 56.4674ZM59 107.492C61.043 111.543 64.2141 114.532 68.2353 112.43C70.6688 111.037 72.5523 108.854 73.5724 106.242C70.1902 105.006 64.4465 103.907 59 107.492Z" fill="#FEB186"/>
<path d="M179.101 108.59C179.595 108.343 180.028 109.082 179.535 109.329C171.265 113.448 162.918 117.407 154.496 121.204C153.994 121.427 153.571 120.673 154.062 120.464L155.474 119.827C155.584 118.981 155.679 118.151 155.772 117.327C155.612 117.944 155.438 118.558 155.251 119.167C155.087 119.693 154.255 119.469 154.421 118.937C156.116 113.386 156.729 107.561 156.226 101.778C156.215 101.696 156.233 101.611 156.277 101.541C156.321 101.47 156.388 101.417 156.468 101.391C156.457 100.907 156.438 100.43 156.421 99.9588C156.246 100.014 155.998 99.8145 155.977 99.5356C155.909 98.7191 155.794 97.907 155.634 97.1034C155.613 97.026 155.614 96.9442 155.637 96.8674C155.661 96.7907 155.706 96.7222 155.766 96.6699C155.827 96.6176 155.902 96.5836 155.981 96.5719C156.06 96.5602 156.141 96.5712 156.215 96.6037C154.19 70.9564 142.221 59.0583 135.445 54.3196L88.0742 50.709C98.0725 59.3469 103.941 73.6714 106.542 86.4505C110.137 104.143 107.825 126.384 97.4935 141.279C96.5059 142.692 96.197 142.958 96.0769 143.199L152.592 121.406C152.219 127.111 151.555 140.179 153.07 142.078C155.024 144.515 161.656 145.981 169.662 142.756C177.074 139.775 181.802 108.764 182.466 104.184C180.136 108.423 176.03 110.127 179.101 108.59Z" fill="#4355E6"/>
<path d="M164.932 134.215C162.251 133.861 159.572 133.518 156.887 133.172C156.213 132.991 155.5 133.008 154.835 133.221C154.597 133.328 154.398 133.505 154.262 133.727C154.127 133.95 154.062 134.208 154.076 134.468L153.895 136.45C153.77 137.854 153.644 138.628 155.076 139.258C158.007 140.511 161.157 141.169 164.344 141.195C164.438 141.194 164.53 141.162 164.605 141.105C164.68 141.048 164.735 140.968 164.761 140.877C166.05 135.054 166.001 135.35 165.979 135.095C165.936 134.518 165.442 134.282 164.932 134.215ZM165.096 135.377C165.03 135.788 165.21 134.832 164.003 140.316C161.227 140.253 158.485 139.695 155.905 138.67C155.466 138.494 154.829 138.33 154.708 137.798C154.654 137.252 154.68 136.7 154.785 136.162C154.964 134.077 154.68 133.727 156.334 133.949C157.036 134.037 164.037 134.938 164.74 135.042C165.257 135.12 165.135 135.12 165.096 135.379V135.377ZM166.277 125.71C165.183 124.893 162.829 124.822 161.599 124.765C160.275 124.706 158.952 124.706 157.629 124.765C155.08 124.874 155.299 125.249 155.06 127.791C155.005 128.362 154.896 128.944 154.896 129.521C154.901 130.683 156.087 130.844 156.987 131.036C159.248 131.442 161.543 131.63 163.839 131.596C165.055 131.611 165.571 131.562 166.014 130.338C166.395 129.267 166.627 128.149 166.705 127.015C166.758 126.779 166.746 126.534 166.671 126.304C166.595 126.074 166.459 125.869 166.277 125.71ZM165.349 129.598C165.252 129.906 165.155 130.455 164.865 130.641C164.465 130.9 159.802 130.65 158.078 130.371C157.327 130.265 156.587 130.085 155.871 129.834C155.65 129.646 155.754 129.426 156.074 126.199C156.24 125.938 155.962 125.789 156.705 125.682C157.658 125.552 163.181 125.458 165.032 126.069C166.329 126.502 165.914 127.741 165.349 129.601V129.598Z" fill="#FCAFB7"/>
<path d="M148.418 30.5029C148.072 31.8211 147.322 32.998 146.273 33.8686C146.985 34.3513 147.589 34.9757 148.047 35.7025C147.98 34.9525 147.955 34.1993 147.973 33.4465C147.984 32.9846 147.94 32.2439 148.588 32.2381C148.66 32.2388 148.73 32.2596 148.791 32.2981H148.845C148.729 32.208 148.782 32.3175 148.418 30.5029Z" fill="#FDE992"/>
<path d="M168.824 32.2765C167.677 31.862 166.672 31.1261 165.932 30.1566C165.191 29.1871 164.745 28.025 164.646 26.8088C164.548 25.5927 164.801 24.3739 165.377 23.2979C165.952 22.2219 166.825 21.3342 167.891 20.7406C166.397 20.8029 164.905 20.567 163.504 20.0467C162.102 19.5263 160.818 18.7319 159.726 17.7099C158.38 16.548 157.128 14.8545 157.607 13.1465C156.643 14.6789 155.216 15.8638 153.532 16.5286C152.108 17.3641 150.465 17.7527 148.817 17.6441C147.976 17.5087 147.189 17.1475 146.538 16.599C145.887 16.0505 145.397 15.3354 145.121 14.5301C146.056 18.0779 144.164 21.0766 141.465 21.6081C142.169 21.8796 142.829 22.2531 143.424 22.7168C145.36 23.2329 146.457 24.6737 147.2 26.5279C147.488 27.1132 147.807 27.683 148.156 28.2349C148.266 28.0369 148.449 27.8902 148.667 27.8266C148.884 27.763 149.118 27.7876 149.317 27.8951C149.317 27.3141 149.353 26.4233 149.927 26.3846C150.381 26.3497 150.814 26.9559 151.062 27.3345C151.405 26.5598 151.916 26.493 152.298 26.8184C153.01 27.7145 153.404 28.8217 153.419 29.9662C153.864 31.1078 153.811 31.0584 153.875 30.9935C153.922 30.9469 153.979 30.9117 154.041 30.8905C154.104 30.8693 154.17 30.8626 154.236 30.8712C154.301 30.8797 154.364 30.9031 154.419 30.9395C154.474 30.976 154.52 31.0246 154.553 31.0816C155.768 34.2796 156.477 37.6472 156.656 41.0635C158.573 39.8973 160.809 39.365 163.046 39.5423C163.479 39.5291 163.909 39.6204 164.299 39.8087C164.689 39.997 165.028 40.2766 165.287 40.6239C164.821 39.8685 164.542 39.0124 164.474 38.1273C164.407 37.2421 164.552 36.3536 164.899 35.5362C165.245 34.7188 165.782 33.9963 166.465 33.4291C167.148 32.862 167.957 32.4667 168.824 32.2765Z" fill="#FEB186"/>
<path d="M152.472 50.1367C151.573 50.8093 150.619 51.4052 149.621 51.9183C152.775 54.0485 154.315 58.7223 154.69 62.5266C154.813 63.8994 154.835 65.2793 154.756 66.6553C155.292 68.722 156.206 70.6719 157.45 72.4068C158.903 74.1913 160.724 74.2465 161.124 71.8965C161.819 67.8247 161.379 63.6402 159.853 59.8019C158.327 55.9635 155.773 52.6196 152.472 50.1367Z" fill="#FE6B21"/>
<path d="M153.644 61.1376C153.107 57.9375 151.541 53.9512 148.691 52.369C144.699 54.1225 140.269 54.6245 135.985 53.8088C135.866 54.3058 135.847 54.8215 135.928 55.3261C136.28 57.099 137.839 57.8794 139.448 58.2464C142.721 58.9881 144.986 58.7702 146.63 62.0081C146.664 61.794 146.715 61.583 146.783 61.3768C146.814 61.268 146.887 61.1758 146.986 61.1195C147.084 61.0631 147.2 61.0471 147.31 61.0747C147.42 61.1046 147.514 61.1769 147.57 61.2756C147.627 61.3743 147.642 61.4915 147.612 61.6014C147.454 62.0576 147.399 62.5437 147.453 63.0238C147.659 62.726 147.906 62.4596 148.189 62.2327C148.271 62.1562 148.38 62.1138 148.493 62.1138C148.606 62.1138 148.715 62.1562 148.798 62.2327C148.878 62.3137 148.924 62.4234 148.924 62.5377C148.924 62.6521 148.878 62.7618 148.798 62.8427C148.201 63.3243 147.777 63.987 147.59 64.7309C148.665 69.3785 147.541 74.0543 148.776 75.9104C148.997 76.242 149.324 76.4881 149.703 76.6079C150.083 76.7277 150.492 76.7139 150.863 76.5688C152.799 75.9288 153.09 73.5566 153.366 71.6307C153.992 68.1675 154.086 64.6291 153.644 61.1376Z" fill="#FE6B21"/>
<path d="M150.471 45.7826C149.328 43.8676 148.648 41.7127 148.483 39.4889C148.398 38.8856 148.048 36.2578 148.048 35.7058C147.589 34.9792 146.985 34.3549 146.274 33.8719C146.274 33.8719 146.02 34.0792 145.958 34.1247C146.135 35.0798 145.966 36.0669 145.481 36.9084C144.512 38.295 141.824 38.4857 140.977 36.8862C141.003 39.4501 140.591 41.9997 139.759 44.4251C139.089 46.6705 138.436 49.5481 136.036 50.5639C135.35 50.8491 134.59 50.9085 133.867 50.7333C133.817 50.8301 133.873 50.7013 133.203 53.0949C136.657 54.2378 140.345 54.4819 143.92 53.8043C147.494 53.1266 150.837 51.5496 153.634 49.2218C153.634 49.2218 153.496 48.7377 153.246 47.9321C152.085 47.588 151.095 46.821 150.471 45.7826Z" fill="#4355E6"/>
<path d="M155.462 38.0554C155.209 35.9827 154.715 33.9465 153.99 31.9883C152.433 32.8939 150.636 33.3045 148.84 33.1657C148.805 34.5783 148.884 35.9914 149.076 37.3912C149.423 40.3715 149.82 43.8253 151.634 45.8848C151.915 46.2688 152.281 46.5825 152.703 46.8009C153.125 47.0194 153.592 47.1367 154.068 47.1436C155.204 47.0332 155.511 45.9352 155.692 44.9746C155.986 42.6708 155.909 40.3346 155.462 38.0554ZM136.505 49.2815C137.326 48.5099 137.918 47.5279 138.218 46.4425C138.616 45.2684 138.975 44.0816 139.295 42.8842C140.056 40.5099 140.276 37.9957 139.94 35.5254C138.166 35.5254 135.776 35.1603 134.641 33.796C133.167 35.7647 132.162 38.0447 131.704 40.4616C131.212 42.6886 130.735 45.543 131.528 47.5551C132.391 49.7453 134.733 50.7658 136.505 49.2815Z" fill="#4355E6"/>
<path d="M150.581 78.2874C150.306 78.2169 150.019 78.2063 149.74 78.2564C149.46 78.3065 149.195 78.4162 148.961 78.5778C148.78 78.6673 148.631 78.8097 148.533 78.9861C148.435 79.1625 148.393 79.3646 148.412 79.5655C148.555 80.1822 149.032 80.2287 155.577 84.4804C156.441 85.1678 157.34 84.5995 156.632 83.6399C155.033 81.3626 152.817 78.9603 150.581 78.2874ZM166.246 80.3682C164.625 78.116 162.424 75.7127 160.194 75.0146C159.919 74.946 159.633 74.9364 159.354 74.9865C159.075 75.0366 158.809 75.1452 158.575 75.3051C158.394 75.395 158.245 75.5377 158.147 75.7142C158.049 75.8907 158.007 76.0927 158.026 76.2937C158.168 76.9056 158.59 76.9192 165.191 81.2076C166.053 81.8932 166.946 81.3413 166.246 80.3682ZM147.962 76.2288C149.016 78.023 151.3 77.901 152.651 76.3934C153.91 75.004 154.11 72.7363 154.447 70.0184C154.799 67.5374 154.88 65.0255 154.689 62.5269C154.324 58.74 152.772 54.044 149.62 51.9186C149.284 52.0939 149.22 52.1326 148.692 52.3689C151.535 53.9471 153.108 57.919 153.645 61.1375C154.162 65.6638 153.844 70.2464 152.709 74.6583C151.82 76.8853 149.645 77.2223 148.777 75.9103C147.525 74.0318 148.681 69.3784 147.591 64.7307C147.773 63.9848 148.198 63.3205 148.799 62.8426C148.879 62.7616 148.925 62.6519 148.925 62.5376C148.925 62.4232 148.879 62.3135 148.799 62.2326C148.716 62.1561 148.607 62.1136 148.494 62.1136C148.381 62.1136 148.273 62.1561 148.19 62.2326C147.91 62.4625 147.663 62.7285 147.454 63.0236C147.398 62.5435 147.452 62.057 147.614 61.6013C147.643 61.4914 147.628 61.3742 147.571 61.2754C147.515 61.1767 147.421 61.1044 147.311 61.0745C146.827 60.9612 146.706 61.5093 146.634 62.0079C144.974 58.7739 142.702 58.9831 139.452 58.2462C136.397 57.5481 135.546 55.6629 135.982 53.92C135.989 53.8834 135.992 53.846 135.989 53.8087C135.92 53.7932 135.177 53.6218 135.155 53.6896C134.925 54.6118 135.017 55.5848 135.416 56.4475C135.815 57.3101 136.497 58.0107 137.348 58.4331C138.908 59.2339 140.709 59.2784 142.378 59.6918C144.393 60.1953 145.445 61.0387 146.32 63.4303C148.061 68.2532 146.546 73.8333 147.962 76.2288ZM150.807 31.985C151.054 32.0392 151.155 31.8785 151.235 31.678C151.262 31.2764 151.208 30.8735 151.076 30.4933C150.944 30.113 150.737 29.7632 150.467 29.4646C150.4 29.4234 150.326 29.3968 150.248 29.3864C150.17 29.3761 150.091 29.3823 150.016 29.4046C149.941 29.4269 149.871 29.4648 149.811 29.5158C149.752 29.5669 149.704 29.6299 149.67 29.7008C149.454 30.2288 149.345 30.794 149.347 31.3643C149.347 31.4502 149.381 31.5325 149.441 31.5933C149.502 31.6541 149.584 31.6884 149.67 31.6887C149.755 31.6865 149.837 31.6516 149.897 31.5912C149.957 31.5309 149.992 31.4496 149.994 31.3643C150.019 30.4832 150.114 30.0271 150.198 30.0794C150.267 30.1635 150.323 30.2584 150.362 30.3602C150.768 31.1716 150.376 31.8901 150.807 31.985ZM145.76 28.1913C143.542 29.7725 141.962 28.657 140.846 28.8226C138.555 29.1683 139.68 33.1062 143.624 32.8303C144.036 32.8031 144.042 32.1525 143.624 32.1883C143.165 32.2505 142.697 32.2193 142.25 32.0967C141.803 31.9741 141.385 31.7625 141.022 31.4747C140.516 31.0186 139.798 29.7783 140.818 29.4868C141.307 29.4282 141.802 29.4751 142.271 29.6243C142.933 29.7383 143.611 29.72 144.266 29.5704C144.921 29.4208 145.54 29.143 146.087 28.7529C146.419 28.5137 146.1 27.9492 145.76 28.1913ZM139.831 28.0703C139.891 28.0841 139.955 28.0803 140.014 28.0593C140.073 28.0383 140.124 28.001 140.163 27.9517C140.201 27.9024 140.224 27.8431 140.23 27.781C140.236 27.7188 140.224 27.6563 140.196 27.6007C140.062 27.254 140.45 26.7747 140.791 27.3237C140.943 27.5687 141.076 27.774 141.264 27.6423C141.718 27.3131 141.232 26.615 140.664 26.5385C139.542 26.3506 139.227 27.8921 139.831 28.0703ZM144.319 26.8512C144.382 26.9109 144.464 26.9443 144.55 26.9443C144.637 26.9443 144.719 26.9109 144.781 26.8512C144.969 26.6421 144.781 26.3497 144.902 26.2306C145.076 26.1734 145.202 26.4 145.269 26.6479C145.292 26.7302 145.346 26.8002 145.42 26.8425C145.494 26.8848 145.582 26.896 145.664 26.8735C145.747 26.851 145.817 26.7968 145.859 26.7227C145.901 26.6486 145.912 26.5607 145.89 26.4784C145.583 25.3659 144.513 25.3378 144.254 26.0776C144.211 26.2041 144.194 26.3381 144.206 26.4713C144.217 26.6044 144.256 26.7338 144.319 26.8512ZM139.05 24.6765C138.725 24.8524 138.452 25.1102 138.258 25.4242C138.063 25.7383 137.954 26.0977 137.942 26.4668C137.929 26.8541 138.595 26.9829 138.595 26.3574C138.627 26.1221 138.713 25.8975 138.848 25.7018C138.982 25.5062 139.161 25.345 139.37 25.2313C139.406 25.2103 139.438 25.1824 139.464 25.1491C139.489 25.1157 139.508 25.0777 139.519 25.0371C139.53 24.9965 139.533 24.9542 139.527 24.9125C139.522 24.8708 139.508 24.8306 139.487 24.7941C139.466 24.7577 139.438 24.7258 139.405 24.7002C139.372 24.6745 139.334 24.6557 139.293 24.6448C139.253 24.6339 139.21 24.631 139.169 24.6365C139.127 24.6419 139.087 24.6555 139.05 24.6765Z" fill="#29175F"/>
<path d="M156.652 41.0723C156.471 37.6563 155.761 34.289 154.549 31.0904C154.433 30.8203 154.041 30.8319 153.828 31.0352C152.495 31.9877 150.866 32.434 149.233 32.294C149.287 32.2585 149.329 32.2076 149.353 32.1481C149.378 32.0885 149.384 32.023 149.37 31.9599C149.195 31.0975 149.02 30.2354 148.843 29.3737C148.805 29.1868 148.552 28.511 148.843 28.4451C149.166 28.3744 149.387 28.8324 149.507 29.0493C149.547 29.1151 149.61 29.1642 149.683 29.1879C149.756 29.2116 149.836 29.2082 149.907 29.1783C149.978 29.1485 150.036 29.0941 150.07 29.0252C150.105 28.9562 150.113 28.8772 150.095 28.8024C149.932 28.2604 149.911 27.6856 150.034 27.1331C150.483 27.508 150.801 28.017 150.94 28.5855C150.967 28.6632 151.022 28.7277 151.094 28.7661C151.167 28.8045 151.251 28.8137 151.33 28.792C151.41 28.7703 151.477 28.7192 151.52 28.6492C151.563 28.5791 151.577 28.4954 151.561 28.4151C151.522 28.2187 151.525 28.0163 151.57 27.8212C151.616 27.6262 151.702 27.4431 151.824 27.2842C152.419 27.9932 152.766 28.8772 152.813 29.8017C152.852 30.2141 153.49 30.2045 153.456 29.8017C153.379 28.7146 152.977 27.6757 152.301 26.8204C152.217 26.7461 152.117 26.693 152.008 26.6657C151.899 26.6384 151.785 26.6376 151.676 26.6634C151.567 26.6892 151.466 26.7409 151.381 26.814C151.296 26.8872 151.23 26.9797 151.188 27.0837C151.143 27.1658 151.102 27.2502 151.066 27.3365C150.816 26.9492 150.388 26.3508 149.93 26.3866C149.446 26.4244 149.381 27.045 149.338 27.4188C149.321 27.5773 149.315 27.7368 149.321 27.8961C149.121 27.7887 148.888 27.7643 148.67 27.8281C148.453 27.8919 148.269 28.0388 148.159 28.2369C147.811 27.6848 147.492 27.1147 147.203 26.5289C146.451 24.6776 145.347 23.2126 143.427 22.7188C142.833 22.2536 142.172 21.8796 141.467 21.6092C139.781 20.9663 137.929 20.9026 136.202 21.4281C135.092 21.7626 134.071 22.3403 133.212 23.1192C132.353 23.898 131.679 24.8584 131.238 25.9305C130.676 27.7547 131.558 30.1735 130.085 31.6026C129.757 31.8873 129.4 32.1356 129.019 32.3434C128.163 32.8875 127.335 33.8422 127.647 34.8086C127.95 35.7536 129.251 36.2968 129.163 37.2854C129.066 38.3321 126.882 39.3546 126.258 41.2001C125.874 42.1633 125.762 43.2136 125.934 44.2361C126.107 45.2587 126.557 46.2141 127.236 46.998C128.04 47.7917 129.101 48.2724 130.228 48.3536C130.705 48.3536 130.815 48.2432 130.793 47.9799C131.858 50.4712 134.238 51.3262 136.022 50.5661C138.421 49.5504 139.074 46.6727 139.745 44.4273C140.577 42.0018 140.989 39.4524 140.964 36.8884C141.807 38.487 144.497 38.2982 145.466 36.9107C145.951 36.0689 146.12 35.0821 145.944 34.1269C147.151 33.2345 148.02 31.9588 148.408 30.5085C148.754 32.2194 148.728 32.2223 148.842 32.2988H148.788C148.727 32.2596 148.656 32.2385 148.584 32.2378C147.936 32.2494 147.981 32.9853 147.969 33.4462C147.957 34.2721 147.994 35.1804 148.041 35.7032C148.422 39.1803 148.664 43.2053 150.462 45.7838C151.045 46.7134 151.905 47.4357 152.922 47.8482C153.426 48.039 153.978 48.0659 154.499 47.9249C155.019 47.7839 155.482 47.4822 155.821 47.0629C156.839 45.7006 156.793 42.7725 156.652 41.0723ZM136.352 30.6789C136.361 30.6692 136.369 30.6581 136.374 30.646C136.462 30.5492 136.59 30.4039 136.72 30.4039C136.807 30.4262 136.817 30.7283 136.829 30.8212C136.847 31.0553 136.827 31.2907 136.769 31.5184C136.753 31.5987 136.767 31.6824 136.81 31.7524C136.853 31.8225 136.921 31.8736 137 31.8953C137.079 31.917 137.163 31.9077 137.236 31.8694C137.308 31.831 137.364 31.7664 137.39 31.6888C137.741 30.7002 138.306 30.6121 138.268 30.4862C138.545 31.0163 138.6 31.6341 138.422 32.2049C138.405 32.2852 138.42 32.3689 138.463 32.4389C138.506 32.509 138.573 32.5601 138.653 32.5818C138.732 32.6035 138.816 32.5942 138.889 32.5559C138.961 32.5175 139.016 32.4529 139.043 32.3753C139.103 32.1613 139.339 31.7111 139.624 31.8805C139.872 32.0238 139.933 32.4847 139.987 32.7316C140.135 33.4384 140.152 34.1664 140.036 34.8792C138.595 34.8792 136.306 34.6042 135.315 33.5614C135.448 33.4278 135.637 31.5155 136.352 30.6789ZM139.293 42.879C138.971 44.076 138.612 45.2627 138.216 46.4374C137.911 47.5207 137.319 48.5016 136.503 49.2764C134.826 50.6823 132.459 49.8825 131.537 47.5461C131.139 46.4145 131.007 45.2067 131.15 44.0158C131.44 40.5223 132.474 36.5524 134.653 33.787C135.759 35.1281 138.272 35.5541 139.951 35.5164C140.283 37.9906 140.058 40.5076 139.293 42.8839V42.879ZM142.623 37.3086C142.344 37.3054 142.075 37.2095 141.857 37.0361C141.639 36.8627 141.485 36.6216 141.42 36.351C141.301 35.9972 141.242 35.6262 141.244 35.253C142.651 35.4857 144.095 35.228 145.335 34.5229C145.508 36.687 144.317 37.5913 142.623 37.3135V37.3086ZM147.816 30.2238C147.643 30.9745 147.32 31.6826 146.867 32.3059C146.414 32.9292 145.84 33.4549 145.18 33.8519C144.52 34.2489 143.786 34.5089 143.023 34.6166C142.26 34.7242 141.484 34.6772 140.739 34.4784C140.849 33.2196 140.597 30.9762 139.35 31.2173C139.085 31.2579 139.175 31.4167 139.131 30.9975C139.119 30.782 139.06 30.5719 138.957 30.382C138.855 30.1922 138.711 30.0274 138.538 29.8995C138.142 29.7058 137.709 30.1192 137.456 30.3768C137.447 30.3847 137.44 30.3942 137.435 30.4049C137.307 29.9508 137.04 29.6835 136.577 29.7842C136.009 25.2392 140.627 22.043 143.957 23.5961C143.897 23.5726 143.831 23.5669 143.768 23.5796C143.704 23.5923 143.646 23.6229 143.6 23.6677C143.406 23.8614 143.464 24.0298 143.825 24.2225C143.847 24.2341 144.362 24.7338 144.418 24.7657C144.473 24.797 144.536 24.8113 144.6 24.8069C144.663 24.8025 144.723 24.7796 144.774 24.741C144.824 24.7024 144.862 24.6498 144.883 24.5898C144.904 24.5298 144.906 24.465 144.89 24.4036C144.838 24.2589 144.756 24.1269 144.649 24.0163C145.523 24.7225 146.185 25.6549 146.565 26.7119C147.119 28.0898 148.108 28.753 147.816 30.2287V30.2238ZM155.69 44.9744C155.509 45.9349 155.206 47.0329 154.066 47.1433C153.59 47.1373 153.122 47.0204 152.7 46.8018C152.278 46.5833 151.912 46.2692 151.632 45.8845C150.444 44.3221 149.709 42.4625 149.508 40.5097C149.045 38.0894 148.821 35.6295 148.838 33.1654C148.838 33.0599 151.898 33.4414 153.988 31.988C154.713 33.9463 155.207 35.9824 155.46 38.0551C155.906 40.3344 155.984 42.6705 155.69 44.9744Z" fill="#29175F"/>
<path d="M159.049 162.02C154.566 164.38 150.055 167.258 147.404 171.601C151.208 171.376 155.022 169.761 158.983 168.295C160.145 167.868 161.598 167.384 162.141 166.276C163.662 163.176 159.147 162.092 159.049 162.02ZM139.146 155.066C138.527 155.019 137.907 155.131 137.344 155.393C136.782 155.654 136.296 156.056 135.934 156.559C135.982 156.618 136.013 156.69 136.022 156.766C136.031 156.842 136.019 156.919 135.986 156.988C135.953 157.057 135.902 157.115 135.837 157.156C135.772 157.197 135.698 157.219 135.621 157.219C135.88 162.238 136.549 167.324 139.305 171.532C140.328 168.633 140.904 165.595 141.013 162.523C141.214 160.941 141.327 159.35 141.354 157.756C141.407 157.109 141.206 156.466 140.794 155.964C140.382 155.462 139.791 155.14 139.146 155.066Z" fill="url(#paint0_linear_3536_7000)"/>
<path d="M160.035 161.411C159.998 161.269 159.926 161.139 159.826 161.031C159.463 159.898 159.411 146.971 159.409 146.871C158.993 125.717 159.074 137.134 159.074 120.714C159.074 120.599 159.029 120.49 158.948 120.409C158.867 120.328 158.758 120.283 158.643 120.283C158.529 120.283 158.419 120.328 158.339 120.409C158.258 120.49 158.212 120.599 158.212 120.714C158.212 126.391 158.169 132.068 158.289 137.74C158.35 140.548 158.799 157.341 158.806 158.731C158.766 159.521 158.818 160.314 158.959 161.092C153.933 163.726 148.981 166.854 146.275 171.84C146.238 171.906 146.219 171.98 146.22 172.055C146.221 172.13 146.241 172.204 146.278 172.269C146.316 172.334 146.369 172.388 146.434 172.426C146.499 172.465 146.572 172.485 146.647 172.487C150.299 172.46 153.742 171.148 157.118 169.901C158.674 169.423 160.184 168.804 161.626 168.05C164.277 166.298 163.556 162.496 160.035 161.411ZM162.141 166.275C161.596 167.385 160.125 167.876 158.983 168.295C155.041 169.756 151.173 171.377 147.404 171.601C150.049 167.266 154.558 164.38 159.049 162.02C159.146 162.092 163.656 163.186 162.141 166.275ZM135.245 156.068C135.15 156.04 135.048 156.046 134.957 156.087C134.867 156.127 134.793 156.198 134.75 156.288C129.113 155.61 127.519 152.576 128.47 147.299C129.792 140.002 134.806 133.876 140.653 129.268C141.087 128.927 140.478 128.318 140.044 128.658C136.01 131.715 132.649 135.569 130.168 139.98C128.037 143.939 125.942 150.702 128.586 154.223C130.039 156.16 132.435 156.87 134.758 157.144C135.025 162.636 135.805 168.216 139.029 172.644C139.2 172.875 139.623 172.968 139.771 172.644C141.548 168.797 141.715 164.326 142.131 159.527C142.233 158.73 142.239 157.925 142.149 157.127C141.688 154.001 137.782 152.955 135.245 156.068ZM141.233 160.016C140.869 164.216 140.7 168.099 139.305 171.538C136.549 167.333 135.874 162.221 135.621 157.224C135.697 157.223 135.771 157.201 135.835 157.16C135.899 157.118 135.95 157.06 135.982 156.992C136.015 156.923 136.028 156.847 136.019 156.771C136.01 156.696 135.981 156.624 135.934 156.565C137.494 154.64 139.693 154.701 140.733 155.895C141.613 156.905 141.349 158.67 141.233 160.016Z" fill="#29175F"/>
<path d="M41.0328 113.395C40.0276 114.429 38.7223 115.12 37.3022 115.37C35.8821 115.621 34.4192 115.417 33.1211 114.789C34.7878 122.681 37.9849 130.17 42.5317 136.832C44.8097 135.421 47.0883 134.008 49.3676 132.593C45.351 126.805 42.5185 120.281 41.0328 113.395Z" fill="#FE6B21"/>
<path d="M103.794 79.0174C98.0811 60.0016 85.8006 42.753 65.9628 43.5596C49.0918 44.2509 38.4641 57.3486 33.8542 73.4557C34.6073 74.0874 35.3466 74.7353 36.0715 75.399C36.4782 75.7727 35.8692 76.3818 35.4625 76.009C34.8502 75.4491 34.2298 74.8981 33.6015 74.3562C31.9222 80.7777 31.0351 87.3807 30.9601 94.0177C31.1618 94.0426 31.3504 94.1312 31.4984 94.2705C31.8857 94.7343 31.2903 95.2755 30.9494 95.2755C30.9358 101.448 31.5798 107.605 32.8705 113.642C34.1156 114.459 35.6233 114.778 37.0928 114.534C38.5623 114.289 39.8858 113.5 40.7996 112.324C38.1979 100.424 38.5242 87.4181 41.1123 77.4362C44.7152 63.6162 52.8583 51.6194 67.1925 51.5584C80.5091 51.601 89.1266 62.9297 94.026 75.2567C100.707 92.1045 100.696 110.457 95.9258 124.453C100.496 124.852 103.628 120.46 102.58 116.107C102.552 115.998 102.569 115.882 102.626 115.785C102.683 115.688 102.776 115.617 102.884 115.587C102.993 115.558 103.109 115.572 103.207 115.627C103.305 115.682 103.378 115.774 103.409 115.882C104.594 120.79 101.013 125.91 95.6401 125.282C92.8322 133.319 88.3288 141.03 80.3977 144.214C69.5076 148.591 57.1042 142.778 49.8809 133.272L43.0285 137.522C55.3613 154.212 77.6924 159.598 92.2357 146.066C104.005 135.114 112.349 107.499 103.794 79.0174Z" fill="#FE6B21"/>
<path d="M57.4321 85.4477C59.0104 84.7486 59.9089 82.3551 60.0464 80.6064C60.091 80.0516 59.2282 80.0574 59.1847 80.6064C59.1122 81.5513 58.835 82.4691 58.3723 83.2962C57.0332 85.6898 55.2196 84.95 55.4617 82.8024C55.6225 81.7415 55.9152 80.7048 56.3331 79.7165C56.362 79.6067 56.3465 79.4898 56.29 79.3913C56.2334 79.2928 56.1404 79.2204 56.031 79.1898C55.9212 79.1622 55.805 79.1783 55.7068 79.2346C55.6085 79.291 55.536 79.3832 55.5043 79.4919C55.1264 80.4252 54.8448 81.3946 54.6638 82.3851C54.2349 84.8774 55.8509 86.1477 57.4321 85.4477ZM80.5039 83.1084C80.4518 84.2297 80.2231 85.3359 79.8261 86.3859C79.5298 87.177 79.0689 88.368 78.0755 88.4193C77.1072 88.4803 77.0588 87.2119 77.0646 86.536C77.0727 85.3662 77.2388 84.2028 77.5585 83.0774C77.5816 82.97 77.5629 82.8577 77.5061 82.7637C77.4492 82.6696 77.3586 82.6008 77.2527 82.5714C77.1468 82.5419 77.0337 82.554 76.9364 82.6053C76.8392 82.6565 76.7652 82.743 76.7296 82.8469C76.3259 84.2887 75.7836 87.4065 76.7025 88.6284C76.9885 88.9758 77.3949 89.2026 77.8407 89.2636C78.2865 89.3247 78.7389 89.2154 79.1077 88.9577C80.5852 88.0252 81.2776 84.8696 81.3589 83.0987C81.3879 82.5594 80.5281 82.5594 80.5039 83.1084ZM179.099 108.589C173.892 111.175 163.25 116.3 154.061 120.463C153.567 120.692 154.002 121.423 154.495 121.204C162.918 117.409 171.265 113.45 179.533 109.328C180.033 109.093 179.594 108.345 179.099 108.589ZM155.975 99.5311C155.977 99.6439 156.023 99.7515 156.103 99.8313C156.183 99.911 156.29 99.9568 156.403 99.9591H156.42C156.531 99.9546 156.637 99.9078 156.715 99.828C156.793 99.7483 156.838 99.6417 156.84 99.5301C156.764 98.6367 156.641 97.7479 156.472 96.8674C156.437 96.7597 156.363 96.669 156.264 96.6131C156.166 96.5572 156.05 96.5402 155.939 96.5653C155.831 96.5978 155.74 96.6705 155.683 96.7685C155.627 96.8665 155.611 96.9823 155.637 97.092C155.797 97.8978 155.91 98.7122 155.975 99.5311ZM155.25 119.166C156.984 113.546 157.609 107.643 157.09 101.785C157.046 101.243 156.18 101.228 156.236 101.785C156.736 107.568 156.123 113.392 154.43 118.944C154.259 119.468 155.087 119.692 155.25 119.166Z" fill="#29175F"/>
<path d="M101.613 70.4254C96.0381 57.2241 86.309 45.2418 72.1588 43.0545C55.9888 40.5545 39.8875 49.843 33.131 72.8635C30.4944 70.6801 28.5211 69.2219 17.3231 60.674C16.8845 60.339 16.4516 61.0856 16.8893 61.4157C27.3533 69.4126 29.6559 71.0984 32.8841 73.7688C31.1052 80.3009 30.1732 87.0345 30.1109 93.8042C29.9957 93.7713 20.7933 91.2567 18.2352 90.5595C18.1278 90.5363 18.0155 90.5551 17.9215 90.6119C17.8274 90.6688 17.7586 90.7594 17.7292 90.8653C17.6997 90.9712 17.7119 91.0843 17.7631 91.1815C17.8143 91.2788 17.9008 91.3528 18.0047 91.3884C20.1785 91.9809 29.864 94.6224 30.0945 94.6882C30.084 98.2746 30.2803 101.859 30.6822 105.422C30.6286 105.472 30.592 105.538 30.5776 105.609C29.7759 108.861 29.4031 112.209 32.0988 114.186C33.7423 122.433 37.0247 130.265 41.7514 137.219C41.8366 137.331 42.5851 136.759 31.4016 143.72C30.9291 144.011 31.3629 144.758 31.8354 144.461L42.3062 137.973C56.2667 156.913 81.8734 161.044 96.1301 143.094C107.681 128.592 113.461 98.4848 101.613 70.4254ZM30.9901 107.882C31.1499 108.966 31.3397 110.426 31.8025 112.741C30.7539 111.419 30.7529 109.552 30.9901 107.882ZM33.1203 114.789C34.419 115.415 35.8812 115.617 37.3007 115.366C38.7202 115.116 40.0253 114.427 41.032 113.395C42.5167 120.281 45.3494 126.806 49.3668 132.593C47.0888 134.004 44.8102 135.417 42.5309 136.832C37.9791 130.171 34.7815 122.681 33.1203 114.786V114.789ZM90.8928 95.1113C90.3118 95.1559 90.4203 95.458 90.5907 94.754C90.7495 94.1227 90.8976 93.3878 90.1733 93.0576C89.5362 92.7672 88.9814 93.2881 88.5428 93.7006C88.4702 93.809 88.7122 93.0635 88.3995 92.5909C88.2905 92.4304 88.1365 92.3057 87.9568 92.2324C87.7771 92.1592 87.5797 92.1408 87.3896 92.1794C86.95 92.2763 86.6702 92.6781 86.401 93.0083C85.4059 94.2179 84.6832 95.6279 84.2822 97.142C83.8811 98.6562 83.8112 100.239 84.0771 101.783C84.174 102.326 84.9989 102.095 84.906 101.551C84.6646 100.051 84.7657 98.5157 85.2017 97.0601C85.6377 95.6045 86.3972 94.2663 87.4235 93.1458C87.8108 92.7507 87.6868 93.4537 87.6646 93.6783C87.5876 94.3087 87.4364 94.9278 87.2143 95.5228C87.1892 95.6227 87.2007 95.7283 87.2467 95.8204C87.2928 95.9126 87.3703 95.9852 87.4652 96.0251C87.5601 96.065 87.6662 96.0696 87.7643 96.038C87.8623 96.0065 87.9458 95.9408 87.9996 95.853C88.323 95.2031 88.773 94.6244 89.3232 94.1508C89.3997 94.085 89.6853 93.7829 89.8006 93.8264C90.0426 93.9136 89.696 94.7879 89.6418 94.9738C89.4795 95.5375 89.2796 96.0897 89.0434 96.6267C88.8236 97.1214 89.4936 97.5436 89.7841 97.0604C89.9456 96.7497 90.155 96.4664 90.4048 96.221C90.6517 96.006 91.13 95.7872 91.3817 96.1164C91.6548 96.4688 91.2849 97.2648 90.8821 98.3066C89.1334 102.845 86.9587 106.756 88.2465 114.554C89.0056 119.154 90.4387 124.026 94.792 125.108C92.8554 130.619 89.7802 136.642 85.2604 140.351C74.6598 149.048 59.5471 144.232 50.8395 133.135C50.7572 133.031 50.6856 132.927 50.6033 132.822C50.9906 132.586 55.4785 129.803 57.3405 128.644C57.812 128.354 57.3782 127.606 56.9067 127.903C54.6332 129.313 52.3581 130.722 50.0814 132.13C45.8888 126.402 43.2474 119.411 41.7088 112.54C44.479 108.653 46.3565 100.593 41.4774 87.6838C41.2782 87.3028 41.1746 86.8791 41.1753 86.4492C41.2528 85.9825 41.763 86.0203 42.0758 86.2178C42.4062 86.4743 42.6732 86.8032 42.8562 87.1793C43.1467 87.6634 43.8167 87.2393 43.5969 86.7455C43.4652 86.4434 42.4883 84.0499 42.8397 83.9376C42.9714 83.8988 43.2348 84.1903 43.3171 84.2619C43.8675 84.7353 44.3176 85.3141 44.6407 85.9641C44.8595 86.3921 45.5906 86.0958 45.426 85.634C45.2045 85.0388 45.0534 84.4197 44.9757 83.7894C44.9477 83.5696 44.8266 82.856 45.2168 83.2569C46.2451 84.3764 47.0059 85.7146 47.4419 87.1707C47.878 88.6269 47.978 90.163 47.7343 91.6633C47.6375 92.2065 48.4702 92.438 48.5632 91.8938C48.8158 90.4157 48.7609 88.9014 48.4018 87.4455C48.0428 85.9895 47.3874 84.6233 46.4765 83.4321C46.0157 82.8289 45.3146 81.8403 44.4616 82.4639C44.0055 82.8047 44.0607 83.3353 44.1217 83.8417C43.6821 83.4253 43.1109 82.8734 42.4631 83.1726C41.6488 83.5444 41.9112 84.4459 42.1668 85.3251C41.9927 85.2504 41.8048 85.2138 41.6154 85.2175C41.4261 85.2213 41.2397 85.2653 41.0687 85.3468C40.8977 85.4282 40.7461 85.5452 40.6239 85.6899C40.5017 85.8346 40.4117 86.0037 40.36 86.1859C41.9238 72.667 48.1497 56.9288 61.1457 53.261C66.4719 51.7393 72.1794 52.3252 77.0853 54.8974C83.319 58.2001 87.8611 64.3399 91.0186 70.6394C99.5229 87.5937 100.428 108.247 95.065 124.332C93.781 124.019 92.6422 123.277 91.8368 122.229C90.0939 120.008 89.1605 115.651 88.8613 112.851C88.3903 109.208 88.883 105.505 90.2905 102.112C91.7139 98.3444 92.2164 97.4642 92.3055 96.6431C92.3379 96.4449 92.3247 96.242 92.267 96.0496C92.2094 95.8572 92.1086 95.6805 91.9725 95.5329C91.8363 95.3853 91.6683 95.2706 91.4812 95.1976C91.2942 95.1245 91.0929 95.095 90.8928 95.1113ZM40.8945 88.5387C41.6585 90.5266 47.0856 101.651 41.46 111.347C39.8196 103.208 39.4346 94.8657 40.3184 86.61C40.3997 87.2809 40.5945 87.9331 40.8945 88.5387ZM107.133 107.8C105.914 126.598 98.3116 147.975 80.1692 152.79C68.1289 155.985 52.961 151.018 43.0411 137.537L49.8936 133.288C60.864 147.679 80.2002 150.69 90.2392 136.175C92.5235 132.807 94.3443 129.147 95.6527 125.293C100.887 125.929 104.638 120.936 103.422 115.893C103.301 115.364 102.464 115.581 102.593 116.118C103.648 120.5 100.488 124.861 95.9384 124.464C99.8107 112.137 100.337 99.0017 97.4644 86.4037C94.2952 72.3842 86.3952 55.5907 72.3863 52.1853C66.8246 50.8611 60.9677 51.695 55.9965 54.5188C50.3496 57.8041 46.4204 63.4878 43.8216 69.5414C38.2202 82.6207 37.9064 99.0405 40.8122 112.339C39.8981 113.514 38.5747 114.303 37.1055 114.547C35.6364 114.791 34.1292 114.473 32.8841 113.656C31.5927 107.619 30.9484 101.462 30.962 95.2895H31.0066C31.4346 95.1801 31.8683 94.7085 31.5111 94.2844C31.3644 94.1431 31.1751 94.0542 30.9727 94.0317C31.0479 87.3947 31.935 80.7917 33.6141 74.3701C34.2454 74.9085 34.8658 75.4594 35.4751 76.023C35.8818 76.3967 36.4908 75.7925 36.0851 75.4139C35.3586 74.7516 34.619 74.1037 33.8668 73.4706C36.9391 62.7151 42.9753 52.3673 52.9155 47.0573C56.795 45.0281 61.0622 43.8482 65.4332 43.5963C69.8041 43.3444 74.1786 44.0261 78.2656 45.5962C99.0862 53.7858 108.615 84.9639 107.138 107.8H107.133Z" fill="#29175F"/>
<path d="M75.9518 92.7719C60.874 92.9201 55.7518 89.6977 55.7518 89.6977C54.4563 97.1533 56.8402 111.543 64.0092 113.746C67.0292 114.674 70.0599 112.742 71.9596 110.517C77.1389 104.483 75.9682 92.6751 75.9518 92.7719ZM68.2347 112.434C64.2232 114.546 61.0541 111.533 58.9994 107.496C64.4517 103.914 70.1896 105.015 73.5718 106.25C72.5471 108.858 70.6647 111.039 68.2347 112.434ZM11.2795 68.3174C11.7404 68.6244 12.1741 67.8779 11.7133 67.5758L6.54466 64.1336C6.08376 63.8257 5.64998 64.5722 6.11087 64.8743C7.83503 66.022 9.55789 67.1697 11.2795 68.3174ZM15.1525 70.5077C19.9468 73.3929 24.5758 76.544 29.0181 79.9463C29.4567 80.2813 29.8895 79.5338 29.4519 79.2046C25.0111 75.7995 20.3823 72.647 15.5873 69.7621C15.1157 69.4716 14.681 70.223 15.1525 70.5077ZM20.3424 97.0933C20.8914 97.1417 20.8914 96.2809 20.3424 96.2315L1.42738 94.6C0.878374 94.5506 0.878374 95.4134 1.42738 95.4627C6.34132 95.8849 18.9433 96.9703 20.3424 97.0933ZM36.4902 133.727C36.9849 133.48 36.5512 132.739 36.0564 132.985C35.427 133.299 17.4241 142.197 16.7879 142.341C16.731 142.259 16.6472 142.199 16.5508 142.171C16.4544 142.144 16.3515 142.151 16.2598 142.192C16.1681 142.232 16.0934 142.303 16.0484 142.393C16.0034 142.482 15.991 142.584 16.0133 142.682C16.0555 142.794 16.1212 142.895 16.2059 142.979C16.2906 143.063 16.3924 143.127 16.5044 143.169C16.6163 143.21 16.7358 143.226 16.8547 143.217C16.9737 143.208 17.0892 143.174 17.1936 143.116C18.1541 142.762 35.977 133.983 36.4902 133.727ZM45.5831 154.224C39.6661 161.688 39.8704 161.64 39.1868 162.179C38.753 162.519 39.362 163.129 39.7958 162.789C40.3264 162.372 39.8791 162.844 46.1922 154.832C46.533 154.399 45.9278 153.789 45.5831 154.224Z" fill="#29175F"/>
<path d="M142.625 37.313C142.347 37.3099 142.077 37.214 141.859 37.0405C141.642 36.8671 141.488 36.626 141.422 36.3554C141.304 36.0016 141.244 35.6306 141.246 35.2574C142.653 35.4902 144.097 35.2324 145.337 34.5273C145.51 36.6866 144.319 37.5909 142.625 37.313Z" fill="#4355E6"/>
<defs>
<linearGradient id="paint0_linear_3536_7000" x1="142.627" y1="171.601" x2="161.751" y2="167.366" gradientUnits="userSpaceOnUse">
<stop stop-color="#4C60E9"/>
<stop offset="1" stop-color="#7485FF"/>
</linearGradient>
</defs>
</svg>
