<svg width="186" height="186" viewBox="0 0 186 186" fill="none" xmlns="http://www.w3.org/2000/svg">
<path d="M25.8016 154.491C25.6975 153.984 25.4922 153.504 25.198 153.078C24.9038 152.653 24.5267 152.291 24.0894 152.015C24.0369 151.978 23.9741 151.958 23.9098 151.958C23.8454 151.958 23.7827 151.978 23.7301 152.015H23.7233L20.5319 153.881L20.0767 154.147C19.9944 154.197 19.9348 154.276 19.9105 154.369C19.8861 154.462 19.899 154.56 19.9465 154.644C20.641 155.84 21.7488 156.742 23.0615 157.178C23.4503 157.317 23.8702 157.343 24.2735 157.255C24.6767 157.167 25.0471 156.967 25.3425 156.679C25.5782 156.372 25.7418 156.016 25.8213 155.637C25.9007 155.259 25.894 154.867 25.8016 154.491Z" fill="url(#paint0_linear_3536_6959)"/>
<path d="M177.582 127.151C177.598 127.151 177.614 127.146 177.628 127.138H177.604C177.597 127.143 177.59 127.147 177.582 127.151Z" fill="#6D458F"/>
<path d="M185.65 154.265L182.798 154.054L176.012 153.551L167.747 152.938L160.651 152.412L158.292 152.237C158.132 152.225 157.965 152.205 157.803 152.186C158.544 151.131 159.291 150.08 160.043 149.033C162.028 146.262 164.041 143.509 166.082 140.776C168.283 137.839 170.516 134.918 172.868 132.098C173.802 130.977 174.753 129.869 175.766 128.817C176.147 128.42 176.539 128.034 176.951 127.664C177.105 127.528 177.262 127.395 177.424 127.273L177.498 127.216C177.526 127.196 177.556 127.177 177.584 127.155C177.556 127.157 177.529 127.148 177.507 127.132H177.542C177.564 127.135 177.585 127.137 177.607 127.137C177.668 127.08 177.666 127.117 177.63 127.137C177.746 127.137 177.871 127.129 177.983 127.129H185.652C185.745 127.124 185.833 127.083 185.897 127.016C185.961 126.948 185.996 126.859 185.996 126.766C185.996 126.673 185.961 126.583 185.897 126.516C185.833 126.448 185.745 126.408 185.652 126.403H177.924C177.792 126.403 177.655 126.392 177.523 126.403C177.338 126.439 177.168 126.527 177.033 126.658C176.645 126.958 176.274 127.282 175.923 127.626C174.964 128.553 174.078 129.555 173.21 130.563C170.828 133.34 168.592 136.241 166.387 139.161C164.24 142.003 162.129 144.872 160.055 147.766C159.332 148.77 158.612 149.778 157.897 150.788C157.551 151.277 157.18 151.755 156.858 152.256L156.845 152.274C156.82 152.303 156.8 152.336 156.787 152.372C156.759 152.428 156.751 152.491 156.763 152.552V158.802C156.766 158.897 156.805 158.988 156.872 159.055C156.939 159.122 157.03 159.161 157.125 159.164L159.878 159.422L166.455 160.041L174.441 160.791L181.32 161.437L183.591 161.65C183.951 161.685 184.317 161.743 184.678 161.753H184.725C185.19 161.797 185.187 161.068 184.725 161.028L181.973 160.769L175.396 160.152L167.41 159.401L160.53 158.755L158.26 158.541C158.009 158.518 157.747 158.473 157.489 158.451V152.903L159.978 153.088L166.763 153.591L175.029 154.204L182.125 154.729L184.484 154.905C184.854 154.932 185.231 154.983 185.603 154.987H185.651C186.116 155.025 186.114 154.3 185.65 154.265Z" fill="#4355E6"/>
<path d="M181.14 158.597L175.228 158.067L168.047 157.424L161.861 156.871L159.811 156.687C159.489 156.659 159.16 156.606 158.832 156.6H158.789C158.324 156.558 158.327 157.285 158.789 157.325L161.264 157.546L167.176 158.076L174.356 158.719L180.542 159.273L182.592 159.456C182.914 159.486 183.243 159.538 183.571 159.545C183.586 159.544 183.6 159.544 183.614 159.545C184.079 159.586 184.076 158.859 183.614 158.818L181.14 158.597ZM185.467 156.593L182.921 156.372L176.806 155.84L169.44 155.2L163.069 154.646L160.951 154.462C160.621 154.432 160.284 154.381 159.952 154.375H159.908C159.443 154.335 159.445 155.06 159.908 155.1L162.453 155.321L168.57 155.854L175.935 156.494L182.306 157.048L184.424 157.232C184.754 157.261 185.092 157.313 185.423 157.319C185.437 157.318 185.453 157.318 185.468 157.319C185.932 157.359 185.929 156.632 185.467 156.593Z" fill="#4355E6"/>
<path d="M133.216 157.807C132.365 155.935 131.577 154.032 130.778 152.136C129.89 150.032 129.007 147.925 128.129 145.815L127.571 144.475C127.548 144.4 127.501 144.334 127.439 144.286C127.376 144.239 127.3 144.212 127.222 144.209C124.528 144.124 121.837 144.101 119.137 144.084C115.627 144.06 112.117 144.054 108.607 144.065C105.07 144.072 101.533 144.087 97.9958 144.109C95.1895 144.127 92.3857 144.147 89.5846 144.172C88.2865 144.182 86.9796 144.15 85.6825 144.208H85.6267C85.5479 144.21 85.4716 144.237 85.4089 144.284C85.3461 144.332 85.3001 144.399 85.2772 144.474L84.3257 147.086C80.9659 147.043 77.6048 147.01 74.2424 146.988C71.3004 146.97 68.3589 146.961 65.4182 146.959C64.1279 146.959 62.8249 146.91 61.5356 146.959H61.4837C61.4204 146.958 61.3581 146.975 61.3031 147.006C61.2481 147.038 61.2024 147.083 61.1705 147.138C59.9957 149.332 59.0109 151.641 57.9987 153.916C56.8813 156.423 55.7813 158.938 54.6986 161.46C54.4676 161.995 54.2391 162.531 54.0133 163.068C53.8312 163.492 54.4568 163.862 54.6399 163.434C55.2788 161.933 55.9246 160.438 56.5772 158.948C57.7696 156.207 58.9698 153.476 60.2209 150.765C60.6986 149.73 61.1763 148.691 61.7089 147.684C62.6931 147.68 63.6776 147.68 64.6624 147.684C67.4257 147.684 70.1893 147.691 72.9532 147.706C76.8324 147.726 80.7117 147.76 84.591 147.809C89.01 147.866 93.4293 147.947 97.849 148.051C102.186 148.157 106.523 148.291 110.857 148.484L112.099 148.541C113.348 152.25 114.473 156 115.473 159.784C115.887 161.333 116.257 162.894 116.584 164.463C116.677 164.921 117.377 164.728 117.284 164.268C116.18 159.217 114.792 154.233 113.127 149.34C112.992 148.922 112.855 148.506 112.714 148.091C112.692 148.016 112.645 147.949 112.583 147.902C112.52 147.854 112.444 147.827 112.365 147.825C108.064 147.619 103.761 147.477 99.4574 147.364C95.0306 147.248 90.6031 147.161 86.1749 147.103L85.0981 147.09L85.8871 144.925L88.824 144.898C91.4959 144.873 94.1678 144.853 96.8397 144.836C100.329 144.814 103.819 144.798 107.31 144.787C110.853 144.779 114.398 144.782 117.943 144.796C120.771 144.811 123.6 144.831 126.429 144.905L126.987 144.921C127.48 146.107 127.974 147.292 128.47 148.476C129.437 150.788 130.411 153.098 131.393 155.406C131.784 156.329 132.176 157.253 132.596 158.168C132.782 158.596 133.407 158.227 133.216 157.807Z" fill="#FE6B21"/>
<path d="M76.9473 155.793C78.3077 156.133 79.7093 156.28 81.1108 156.229C84.028 156.18 86.9541 156.038 89.8695 155.901C91.281 155.86 92.6864 155.698 94.0702 155.416C95.4143 155.117 96.6644 154.53 97.9938 154.183C101.029 153.39 104.027 154.814 107.066 154.855C107.159 154.85 107.246 154.81 107.31 154.743C107.374 154.675 107.41 154.586 107.41 154.492C107.41 154.399 107.374 154.31 107.31 154.242C107.246 154.175 107.159 154.135 107.066 154.13C104.486 154.095 102.004 153.068 99.4123 153.224C98.1573 153.363 96.928 153.677 95.7608 154.159C94.5063 154.604 93.2033 154.897 91.8793 155.033C90.5508 155.17 89.2145 155.204 87.8812 155.255L83.6903 155.415C82.3335 155.467 80.9708 155.554 79.613 155.484C78.3212 155.373 77.0466 155.114 75.8146 154.71C75.1397 154.502 74.4464 154.359 73.7441 154.282C73.0344 154.238 72.322 154.296 71.6286 154.454C70.9293 154.629 70.2174 154.749 69.4994 154.813C69.2209 154.866 68.9326 154.826 68.679 154.7C68.617 154.649 68.5637 154.589 68.5214 154.521C68.8582 154.37 68.6614 153.777 68.2375 153.85C68.1358 153.872 68.0411 153.919 67.9619 153.986C67.8828 154.054 67.8218 154.14 67.7843 154.237C67.7468 154.334 67.7341 154.439 67.7472 154.542C67.7604 154.646 67.799 154.744 67.8596 154.829C67.9672 155.029 68.1242 155.198 68.3156 155.32C68.507 155.442 68.7265 155.513 68.9531 155.526C70.3237 155.642 71.6247 155.053 72.9815 154.988C74.3372 155.049 75.6752 155.32 76.9473 155.793ZM107.762 158.613C102.8 158.38 97.8362 158.073 92.8709 157.959C90.4017 157.885 87.9303 157.942 85.4671 158.13C83.0305 158.333 80.6144 158.717 78.1984 159.08C75.4878 159.538 72.7523 159.832 70.0065 159.961C69.5405 159.975 69.5385 160.701 70.0065 160.687C74.8934 160.541 79.6766 159.438 84.5293 158.946C89.475 158.58 94.4411 158.58 99.3869 158.946L107.762 159.338C108.229 159.361 108.228 158.636 107.762 158.613ZM118.322 151.15C119.758 150.548 121.316 150.293 122.869 150.403C123.335 150.436 123.333 149.711 122.869 149.677C121.25 149.563 119.627 149.827 118.129 150.45C118.038 150.478 117.961 150.54 117.914 150.623C117.867 150.706 117.853 150.804 117.875 150.896C117.901 150.989 117.963 151.068 118.046 151.115C118.13 151.163 118.229 151.175 118.322 151.15ZM127.296 153.388L118.417 154.043C117.954 154.077 117.95 154.803 118.417 154.769L127.296 154.113C127.755 154.079 127.763 153.353 127.296 153.388ZM124.095 158.448H120.884C120.791 158.453 120.703 158.493 120.639 158.561C120.575 158.628 120.539 158.718 120.539 158.811C120.539 158.904 120.575 158.993 120.639 159.061C120.703 159.128 120.791 159.168 120.884 159.173H124.095C124.188 159.168 124.275 159.128 124.339 159.061C124.403 158.993 124.439 158.904 124.439 158.811C124.439 158.718 124.403 158.628 124.339 158.561C124.275 158.493 124.188 158.453 124.095 158.448Z" fill="#FE6B21"/>
<path d="M71.3765 81.9297L70.4543 79.5577L70.0157 78.4319L69.7044 78.6276L69.3931 78.8234L67.9462 79.728C67.898 79.7553 67.8443 79.7714 67.7891 79.7749C67.7338 79.7785 67.6785 79.7695 67.6272 79.7485C67.5759 79.7276 67.5301 79.6953 67.4931 79.6541C67.4561 79.6129 67.4289 79.5639 67.4136 79.5107C67.4009 79.4696 67.3911 79.4284 67.3804 79.3873L67.3657 79.3315C67.3334 79.216 67.303 79.0995 67.2727 78.983L67.2306 78.8274C67.1425 78.9448 67.0544 79.0633 66.9633 79.1788C66.0482 80.3434 65.0019 81.3988 63.8454 82.3242C63.8521 82.3584 63.8639 82.3914 63.8806 82.4221L64.6001 83.6751C64.8644 84.1333 65.0974 84.6414 65.4039 85.0721C65.5918 85.3374 66.0617 85.4373 66.3456 85.5616L68.2653 86.3829L69.584 86.9458C69.6323 86.9722 69.6858 86.9875 69.7407 86.9907C69.7957 86.9938 69.8506 86.9847 69.9016 86.964C69.9526 86.9433 69.9983 86.9115 70.0355 86.8709C70.0727 86.8304 70.1003 86.7821 70.1165 86.7295L71.631 83.0329C71.7768 82.6707 71.5057 82.2615 71.3765 81.9297ZM66.1107 70.1333C66.1185 70.0667 66.1273 70.0001 66.1371 69.9375L66.1694 69.7476L62.3994 63.0114C62.6298 62.6348 62.791 62.22 62.8752 61.7867C62.9904 61.3216 63.0787 60.8503 63.1395 60.375C62.9052 60.2876 62.6744 60.1913 62.4474 60.0862C61.6382 59.7113 60.8442 59.304 60.0676 58.8655L59.8786 58.7578L59.5722 59.2375L58.4053 61.0574L58.1987 61.3804L57.9922 61.7035L58.188 61.958L58.7499 62.6971C58.8623 62.8507 59.0202 62.9651 59.2012 63.0241C59.5233 63.1406 59.8737 63.263 60.233 63.356L61.3794 72.1998L61.4968 72.1675L61.6153 72.1362C63.0687 71.7537 64.5464 71.4701 66.0382 71.2874C66.0402 70.9016 66.0644 70.5163 66.1107 70.1333Z" fill="#4355E6"/>
<path d="M76.7182 77.7682C76.7051 77.7063 76.6739 77.6496 76.6286 77.6053C76.5833 77.561 76.5259 77.5312 76.4636 77.5196L76.17 77.5636C76.1083 77.6077 76.0608 77.6688 76.0332 77.7393C76.0056 77.8098 75.999 77.8869 76.0143 77.9611C76.43 81.0533 76.8288 84.1481 77.2106 87.2455C77.2664 87.7027 77.9938 87.7086 77.936 87.2455C77.5496 84.0835 77.1437 80.9244 76.7182 77.7682ZM70.1846 56.5612C70.1895 56.6541 70.2298 56.7416 70.2973 56.8057C70.3648 56.8698 70.4543 56.9055 70.5473 56.9055C70.6404 56.9055 70.7299 56.8698 70.7974 56.8057C70.8649 56.7416 70.9052 56.6541 70.91 56.5612C70.7417 48.8529 70.6934 41.1433 70.7652 33.4324C70.7847 31.2637 70.8144 29.0953 70.8542 26.9272C70.8494 26.8343 70.8091 26.7468 70.7416 26.6827C70.6741 26.6186 70.5846 26.5829 70.4915 26.5829C70.3985 26.5829 70.309 26.6186 70.2415 26.6827C70.174 26.7468 70.1337 26.8343 70.1288 26.9272C69.9898 34.6368 69.9706 42.3467 70.0711 50.057C70.0998 52.225 70.1376 54.3931 70.1846 56.5612Z" fill="url(#paint1_linear_3536_6959)"/>
<path d="M88.9436 49.0455L88.879 49.0004L88.4023 48.6676L82.4385 44.5031L82.0528 44.2349L81.5868 43.9089L81.5075 43.8541C81.4479 43.8068 81.3726 43.7839 81.2968 43.7901C81.221 43.7962 81.1504 43.831 81.0993 43.8874C81.0385 43.9262 80.993 43.9848 80.9702 44.0532C80.9474 44.1216 80.9487 44.1957 80.974 44.2633C81.0435 44.4845 81.1267 44.7019 81.2148 44.9162C79.4936 46.9581 77.9231 49.1224 76.5158 51.392C74.924 53.8512 73.4063 56.3566 71.9627 58.9084C71.1906 60.2738 70.4401 61.6518 69.7111 63.0426C68.4674 60.4579 66.5503 58.2561 64.1614 56.6686C64.1366 56.6521 64.11 56.6387 64.0821 56.6285C63.9083 56.1684 63.5907 55.7767 63.1766 55.5115C62.5671 55.1308 61.8699 54.9133 61.1521 54.88V54.9016C61.2766 55.6103 61.2617 56.3366 61.108 57.0396C60.9814 57.4596 60.7061 57.8191 60.3337 58.0509C60.2062 58.1348 60.0731 58.2097 59.9353 58.2751C59.7263 58.3712 59.5126 58.4568 59.295 58.5315C58.0398 58.9209 56.7325 59.116 55.4184 59.1101C54.9329 59.1857 54.4361 59.1372 53.9744 58.9691C53.5074 58.6852 53.3645 57.9726 53.2617 57.4831C53.2549 57.4508 53.251 57.4175 53.2441 57.3852C52.2257 58.0498 51.4857 59.0642 51.1638 60.2369C51.1328 60.3555 51.1263 60.4791 51.1446 60.6003C51.163 60.7215 51.2058 60.8376 51.2705 60.9417C50.5086 61.6059 49.8398 62.3698 49.2823 63.2129C48.3985 64.628 47.7322 66.1677 47.3058 67.7807C46.3896 70.9844 46.1857 74.3499 46.7086 77.6407C47.1051 80.1459 47.8833 83.2022 50.1222 84.6696V87.0025C50.1197 87.0517 50.1271 87.1009 50.1442 87.1471C50.1613 87.1934 50.1876 87.2356 50.2215 87.2714C50.2555 87.3071 50.2963 87.3356 50.3416 87.355C50.3869 87.3745 50.4356 87.3845 50.4849 87.3845C50.5342 87.3845 50.583 87.3745 50.6282 87.355C50.6735 87.3356 50.7144 87.3071 50.7483 87.2714C50.7822 87.2356 50.8085 87.1934 50.8256 87.1471C50.8427 87.1009 50.8502 87.0517 50.8476 87.0025V85.071H50.8535C52.2823 85.6031 53.8164 85.7906 55.3312 85.6182C57.0665 85.5777 58.7771 85.1986 60.367 84.5022C61.6038 83.9104 62.768 83.1775 63.8364 82.3182C64.9945 81.3943 66.0423 80.3402 66.9593 79.1767C67.0503 79.0612 67.1384 78.9427 67.2265 78.8253L67.2686 78.9809C67.299 79.0974 67.3293 79.2139 67.3616 79.3294L67.3763 79.3852C67.3871 79.4263 67.3968 79.4675 67.4096 79.5086C67.4249 79.5618 67.452 79.6108 67.489 79.652C67.526 79.6932 67.5719 79.7255 67.6231 79.7464C67.6744 79.7674 67.7297 79.7764 67.785 79.7728C67.8402 79.7693 67.894 79.7532 67.9421 79.7259L69.389 78.8213L69.7003 78.6256L70.0116 78.4298L70.6871 78.0078C70.768 77.9573 70.8266 77.8778 70.8508 77.7855C70.875 77.6933 70.863 77.5952 70.8173 77.5115L67.3743 70.3651L66.8848 69.3421C66.8578 69.2727 66.8052 69.2161 66.738 69.1839C66.6707 69.1518 66.5937 69.1464 66.5226 69.1689C66.4499 69.1692 66.3796 69.1955 66.3245 69.2431C66.2694 69.2906 66.2331 69.3563 66.2221 69.4283C66.1996 69.533 66.1859 69.6378 66.1683 69.7425C66.1575 69.8062 66.1448 69.8688 66.136 69.9324L66.1095 70.1282C66.0643 70.5113 66.0411 70.8967 66.04 71.2824C64.5482 71.4651 63.0705 71.7486 61.6171 72.1312L61.4986 72.1625L61.3812 72.1948C59.4815 72.703 57.6637 73.4786 55.9822 74.4983C55.8726 74.5658 55.7669 74.6393 55.6592 74.7097C55.0213 71.7213 54.1181 68.7956 52.9602 65.9677C52.7859 65.5418 52.0791 65.7278 52.2612 66.1635C53.4501 69.0721 54.37 72.0835 55.0092 75.1601C54.4602 75.5547 53.937 75.984 53.4428 76.4454C53.1012 76.7655 53.6151 77.2775 53.9558 76.9584C54.3411 76.598 54.7461 76.2591 55.1687 75.9432C55.2549 76.389 55.3351 76.8354 55.4095 77.2824C55.4849 77.7416 56.1839 77.5468 56.1085 77.0866C56.0204 76.5492 55.9206 76.0098 55.8148 75.4792C58.2269 73.9326 60.9223 72.8807 63.7444 72.3847C64.512 72.2338 65.2845 72.1088 66.0606 72.0098C66.0988 72.7792 66.1947 73.5477 66.3024 74.2956C66.4766 75.5086 66.7184 76.7127 67.0033 77.905C65.4888 80.0563 63.5348 81.8615 61.2705 83.2012C59.864 84.0619 58.2863 84.6045 56.6479 84.791C55.1597 85.0199 53.644 85.0027 52.1614 84.7401C51.5031 84.5958 50.8819 84.3167 50.3368 83.9205C49.7918 83.5242 49.3347 83.0193 48.9945 82.4376C48.3011 81.1861 47.8266 79.8254 47.5916 78.4141C46.9701 75.3472 47.0122 72.1829 47.715 69.1336C48.0865 67.3915 48.7108 65.7131 49.5681 64.1517C50.1514 63.1363 50.9009 62.226 51.7855 61.4586C52.9945 62.3015 55.5828 62.6784 56.7076 62.8076C56.8683 62.8262 57.031 62.7993 57.1772 62.7301C57.3235 62.6609 57.4474 62.5521 57.5349 62.416L57.9891 61.7043L58.1956 61.3813L58.4022 61.0582L59.5691 59.2335L59.8755 58.7538L60.0645 58.8614C60.4786 59.0935 61.5035 59.6583 62.4443 60.0822C62.5608 60.1351 62.6763 60.1801 62.7889 60.233C62.9015 60.2858 63.0239 60.3309 63.1364 60.371C63.6739 60.5736 64.1076 60.6735 64.2593 60.5472C64.5579 60.3015 64.6656 58.9858 64.4198 57.7386C66.5782 59.3449 68.2749 61.4917 69.3391 63.9628C69.4899 64.3113 69.9323 64.1312 69.9921 63.8218C70.0402 63.8116 70.0853 63.7904 70.1239 63.7598C70.1624 63.7293 70.1934 63.6902 70.2143 63.6456C72.8664 58.5102 75.8418 53.5483 79.1228 48.79C79.8763 47.6984 80.685 46.646 81.5457 45.6368C82.083 46.6278 82.7085 47.5684 83.4145 48.4473C84.3194 49.6145 85.2847 50.7337 86.3063 51.8003C85.9745 52.789 85.6671 53.7865 85.3009 54.7635C84.8679 55.9099 84.3878 57.038 83.8619 58.1448C82.8164 60.3563 81.6191 62.4914 80.3719 64.5942C79.672 65.7748 78.9554 66.9437 78.2378 68.1184C77.994 68.5179 78.6206 68.883 78.8643 68.4846C81.5575 64.3628 83.8793 60.0099 85.8022 55.4772C86.1996 54.4591 86.5295 53.4214 86.8731 52.3847L86.9485 52.461C86.9881 52.4997 87.0358 52.5288 87.0882 52.5464C87.1406 52.5639 87.1964 52.5693 87.2512 52.5623C87.306 52.5552 87.3585 52.5358 87.4048 52.5056C87.451 52.4753 87.4898 52.435 87.5183 52.3876L89.0689 49.5487C89.1176 49.465 89.1318 49.3656 89.1084 49.2716C89.085 49.1777 89.0259 49.0965 88.9436 49.0455Z" fill="#FE6B21"/>
<path d="M69.3188 69.5133C69.5067 69.5338 69.6937 69.5485 69.8817 69.5524C70.4402 69.5629 70.9982 69.5126 71.5459 69.4027C72.0936 69.2919 72.6327 69.1424 73.1592 68.9553C73.6176 68.7378 74.1071 68.5932 74.61 68.5265C74.838 68.5169 75.0633 68.58 75.2531 68.7066C75.443 68.8333 75.5877 69.0171 75.6663 69.2313C75.7341 69.4496 75.7523 69.6802 75.7198 69.9065C75.6873 70.1327 75.6048 70.3489 75.4783 70.5392C75.3004 70.8397 75.0845 71.1161 74.8361 71.3615L75.1406 71.2989C75.427 71.2051 75.7382 71.2219 76.0129 71.3459C76.1247 71.4151 76.2211 71.5064 76.2962 71.6144C76.3713 71.7223 76.4235 71.8445 76.4495 71.9734C76.4923 72.2984 76.4372 72.6287 76.2912 72.9222C76.1452 73.2157 75.9151 73.459 75.6301 73.621C75.7707 73.6282 75.9076 73.669 76.0292 73.7401C76.1508 73.8111 76.2537 73.9102 76.3291 74.0292C76.7412 74.7389 75.6869 75.3704 75.1984 75.6934C74.0018 76.4765 72.5911 76.8675 71.1621 76.8124L71.5537 78.269L76.1803 77.5662L76.4739 77.5221L77.8572 77.3116L77.5782 63.7786C74.8714 65.0669 69.3188 65.8872 69.3188 65.8872V69.5133ZM162.017 133.934L153.082 96.9729C153.048 96.9957 153.01 97.0123 152.969 97.0219C152.942 97.0294 152.913 97.0331 152.884 97.0327H152.847C152.187 97.017 151.527 97.0026 150.866 96.9896C147.362 96.9211 143.857 96.8829 140.353 96.8525C135.891 96.8134 131.428 96.7876 126.964 96.7752C121.856 96.7576 116.748 96.7484 111.64 96.7478C106.199 96.7478 100.758 96.7514 95.3159 96.7586C89.854 96.767 84.3924 96.7801 78.9311 96.7977C73.7616 96.8134 68.5917 96.832 63.4215 96.8535C58.8564 96.8731 54.2915 96.894 49.7269 96.9162L38.7832 96.9739L31.5223 97.0141L28.9085 97.0307H28.8958C28.8586 97.0305 28.8217 97.0249 28.7861 97.0141C28.7465 97.0033 28.7092 96.9851 28.6765 96.9602L16.8027 134.542L16.7969 139.021H16.9173C17.8365 139.027 78.6795 139.403 121.316 139.403C142.82 139.403 159.691 139.305 161.907 139.02L161.999 139.008L162.011 138.916C162.036 138.765 162.506 135.168 162.017 133.934Z" fill="#4355E6"/>
<path d="M68.7601 68.6024C68.6849 67.6306 68.6611 66.6555 68.6887 65.6812C68.6887 65.5647 68.6955 65.4472 68.7004 65.3307C68.7004 65.2827 68.7004 65.2328 68.7073 65.1878C68.8737 65.1574 69.2036 65.0625 69.2623 65.0497C69.7479 64.944 70.2322 64.835 70.7151 64.7228C72.6313 64.2809 74.5363 63.798 76.4303 63.2739C76.5231 63.2479 76.6018 63.1862 76.6491 63.1022C76.6963 63.0182 76.7083 62.9188 76.6823 62.826C76.6564 62.7332 76.5946 62.6545 76.5106 62.6072C76.4266 62.56 76.3273 62.548 76.2345 62.574C74.1676 63.1457 72.0883 63.6678 69.9966 64.1403C69.4963 64.2538 68.9785 64.3361 68.4851 64.4731C67.9917 64.6102 67.9848 64.9969 67.9682 65.4442C67.9292 66.4963 67.9504 67.5498 68.0318 68.5994C68.07 69.0654 68.7954 69.0693 68.7601 68.6024ZM85.7479 30.5103C85.4131 30.1852 84.9002 30.6972 85.235 31.0232L88.1474 33.8553C88.4822 34.1813 88.9961 33.6684 88.6603 33.3424L85.7479 30.5103ZM92.0553 27.6693C92.0046 27.5908 91.9255 27.5348 91.8346 27.5131C91.7436 27.4914 91.6477 27.5056 91.567 27.5528C91.4862 27.5999 91.4268 27.6765 91.4011 27.7664C91.3753 27.8563 91.3853 27.9527 91.4288 28.0355C91.942 28.8449 92.5206 29.611 93.1586 30.3262C93.227 30.3936 93.3191 30.4315 93.4151 30.4315C93.5111 30.4315 93.6033 30.3936 93.6716 30.3262C93.7377 30.2572 93.7745 30.1653 93.7745 30.0697C93.7745 29.9742 93.7377 29.8823 93.6716 29.8132C93.0737 29.1452 92.533 28.428 92.0553 27.6693ZM101.891 25.6605C101.798 25.636 101.7 25.6487 101.616 25.6959C101.533 25.7431 101.471 25.821 101.444 25.9131L101.053 28.3184C101.03 28.4111 101.043 28.5092 101.09 28.5923C101.138 28.6754 101.215 28.7372 101.306 28.7648C101.399 28.7892 101.498 28.7764 101.581 28.729C101.665 28.6816 101.726 28.6034 101.753 28.5112L102.144 26.1059C102.168 26.0133 102.154 25.9154 102.107 25.8324C102.06 25.7495 101.982 25.6879 101.891 25.6605Z" fill="url(#paint2_linear_3536_6959)"/>
<path d="M106.989 121.841C106.781 121.092 106.527 120.356 106.228 119.639C106.078 119.295 105.859 118.728 105.431 118.685C104.876 118.63 104.29 118.677 103.733 118.672C100.6 118.647 97.469 118.626 94.3396 118.61C90.3527 118.588 86.3654 118.577 82.3778 118.577C79.7072 118.577 77.0258 118.541 74.3572 118.662C74.2231 118.669 74.0899 118.676 73.9558 118.685C73.893 118.689 73.8322 118.709 73.7794 118.743C73.7267 118.778 73.6839 118.825 73.6553 118.881C73.6215 118.931 73.6003 118.988 73.5936 119.048L73.0943 123L72.2936 129.332L72.1115 130.778C72.086 130.974 72.2975 131.14 72.4737 131.142C73.5296 131.154 74.5859 131.165 75.6426 131.176C78.2342 131.202 80.8251 131.225 83.4155 131.245C86.6649 131.27 89.9138 131.287 93.1619 131.299C96.2163 131.309 99.2716 131.312 102.327 131.29C104.329 131.276 106.341 131.278 108.338 131.167C108.471 131.16 108.605 131.151 108.739 131.142C108.794 131.14 108.849 131.127 108.898 131.101C108.948 131.076 108.991 131.04 109.024 130.996C109.058 130.952 109.081 130.901 109.092 130.847C109.103 130.792 109.102 130.736 109.089 130.682C108.492 127.717 107.841 124.744 106.989 121.841Z" fill="#FFE497"/>
<path d="M144.781 111.881L146.445 111.904C146.538 111.899 146.626 111.859 146.69 111.792C146.754 111.724 146.79 111.635 146.79 111.542C146.79 111.449 146.754 111.359 146.69 111.292C146.626 111.224 146.538 111.184 146.445 111.179C143.728 111.138 141.009 111.107 138.291 111.088C134.571 111.056 130.851 111.03 127.13 111.01C124.61 110.994 122.09 110.981 119.569 110.971C119.63 110.161 119.708 109.352 119.78 108.547C119.821 108.082 119.094 108.085 119.054 108.547C118.983 109.35 118.904 110.159 118.844 110.967L113.753 110.942C108.868 110.92 103.983 110.901 99.0971 110.884C94.1064 110.868 89.1138 110.853 84.1191 110.838C79.2759 110.824 74.433 110.812 69.5905 110.801L63.2684 110.787C63.4916 109.743 63.7177 108.699 63.9468 107.655L64.1886 106.558L67.102 106.565C71.6874 106.575 76.2731 106.586 80.8592 106.599L95.3761 106.643C100.14 106.66 104.905 106.678 109.669 106.698C114.113 106.717 118.558 106.739 123.003 106.763C126.817 106.784 130.632 106.81 134.446 106.839C137.332 106.863 140.218 106.892 143.103 106.927C143.641 106.934 144.178 106.942 144.714 106.951C144.811 106.951 144.903 106.913 144.971 106.844C145.039 106.776 145.078 106.684 145.078 106.588C145.078 106.491 145.039 106.399 144.971 106.331C144.903 106.263 144.811 106.224 144.714 106.224C142.083 106.183 139.452 106.153 136.82 106.133C133.218 106.101 129.615 106.075 126.012 106.055C121.694 106.028 117.377 106.006 113.06 105.987C108.33 105.966 103.601 105.947 98.872 105.931C94.0425 105.913 89.2103 105.897 84.3756 105.884C79.6871 105.87 74.9989 105.858 70.311 105.847L57.6541 105.819L52.4304 105.809L52.4999 105.605C52.6467 105.179 52.7945 104.754 52.9433 104.332C53.098 103.89 52.3971 103.701 52.2434 104.136C52.0476 104.692 51.8596 105.25 51.6668 105.807L47.1636 105.799L39.7588 105.787C38.6124 105.787 37.4612 105.755 36.3138 105.787H36.165C36.0721 105.792 35.9846 105.832 35.9205 105.899C35.8564 105.967 35.8207 106.056 35.8207 106.149C35.8207 106.243 35.8564 106.332 35.9205 106.4C35.9846 106.467 36.0721 106.507 36.165 106.512H38.5351L45.0324 106.523C47.1613 106.523 49.2902 106.527 51.4191 106.535C51.286 106.926 51.1499 107.311 51.0177 107.7C50.6692 108.72 50.324 109.741 49.982 110.765L45.6746 110.757L38.026 110.745C36.8415 110.745 35.6521 110.713 34.4675 110.745H34.3138C34.2209 110.75 34.1334 110.79 34.0693 110.858C34.0052 110.925 33.9695 111.015 33.9695 111.108C33.9695 111.201 34.0052 111.29 34.0693 111.358C34.1334 111.425 34.2209 111.466 34.3138 111.471H36.7612L43.4729 111.481L49.7382 111.492C49.4034 112.504 49.0742 113.517 48.7505 114.533L48.588 115.051L44.0045 115.028L38.7289 115.007L35.0206 114.993C34.4401 114.993 33.8586 114.972 33.2791 114.987H33.2076C33.1147 114.992 33.0271 115.032 32.9631 115.1C32.899 115.167 32.8633 115.257 32.8633 115.35C32.8633 115.443 32.899 115.532 32.9631 115.6C33.0271 115.667 33.1147 115.708 33.2076 115.712H34.401L37.6677 115.724L42.6056 115.744C44.5263 115.752 46.4463 115.761 48.3658 115.771C48.17 116.417 47.9742 117.066 47.7999 117.719C47.774 117.812 47.7859 117.911 47.8332 117.995C47.8805 118.079 47.9592 118.141 48.052 118.167C48.1448 118.193 48.2442 118.181 48.3281 118.134C48.4121 118.087 48.4739 118.008 48.4999 117.915C48.6957 117.198 48.9022 116.488 49.1195 115.778C51.3072 115.788 53.4958 115.801 55.6854 115.814C57.6192 115.826 59.5526 115.839 61.4857 115.853C61.4328 116.123 61.378 116.391 61.3261 116.66C61.1157 117.718 60.9297 118.78 60.7681 119.847C60.7016 120.304 61.4005 120.5 61.4671 120.042C61.6707 118.642 61.936 117.25 62.216 115.861L62.9874 115.867C65.3839 115.885 67.7797 115.905 70.1749 115.927C72.4108 115.948 74.6461 115.972 76.8807 115.999C78.7917 116.024 80.7019 116.052 82.6115 116.084C84.0692 116.11 85.5269 116.139 86.9845 116.182C87.2528 116.19 87.521 116.199 87.7892 116.209C88.2562 116.225 88.2552 115.5 87.7892 115.483C86.4657 115.436 85.146 115.408 83.8176 115.385C82.0065 115.349 80.1952 115.32 78.3834 115.297C76.2121 115.268 74.0405 115.243 71.8685 115.222C69.5014 115.198 67.1339 115.178 64.7662 115.159L62.3619 115.142L62.6311 113.827C62.7897 113.059 62.9509 112.292 63.1147 111.524L66.2689 111.53C71.0064 111.541 75.7435 111.553 80.4804 111.566C85.4789 111.579 90.4774 111.594 95.476 111.61C97.8503 111.617 100.224 111.626 102.596 111.636C102.457 113.178 102.302 114.734 102.302 116.282C102.307 116.375 102.347 116.463 102.415 116.527C102.482 116.591 102.572 116.627 102.665 116.627C102.758 116.627 102.847 116.591 102.915 116.527C102.982 116.463 103.023 116.375 103.028 116.282C103.028 114.735 103.178 113.18 103.321 111.638L110.244 111.663C113.093 111.675 115.941 111.689 118.79 111.705C118.754 112.307 118.731 112.909 118.732 113.509C118.737 113.602 118.777 113.689 118.845 113.753C118.912 113.817 119.002 113.853 119.095 113.853C119.188 113.853 119.277 113.817 119.345 113.753C119.412 113.689 119.453 113.602 119.457 113.509C119.457 112.91 119.479 112.309 119.515 111.708L124.018 111.729C127.959 111.751 131.899 111.776 135.838 111.805C138.82 111.82 141.8 111.846 144.781 111.881ZM61.6286 115.125L57.4436 115.095C55.0863 115.08 52.7283 115.067 50.3697 115.054H49.3428C49.6952 113.935 50.0652 112.821 50.4333 111.708L50.5057 111.492L53.6149 111.498C56.5322 111.503 59.4495 111.508 62.3668 111.516C62.1135 112.716 61.8675 113.919 61.6286 115.125ZM62.5224 110.786L56.5136 110.773L50.7485 110.763C51.2204 109.35 51.6988 107.94 52.1837 106.532H54.8494L63.4446 106.55C63.1313 107.959 62.8239 109.371 62.5224 110.786Z" fill="#FFE497"/>
<path d="M111.678 115.176C110.03 115.17 108.362 115.138 106.719 115.281C106.257 115.321 106.253 116.047 106.719 116.006C108.362 115.863 110.03 115.896 111.678 115.901C111.77 115.897 111.858 115.856 111.922 115.789C111.986 115.721 112.022 115.632 112.022 115.539C112.022 115.446 111.986 115.356 111.922 115.289C111.858 115.221 111.77 115.181 111.678 115.176ZM123.291 115.176C121.193 115.144 119.094 115.151 116.996 115.197C116.369 115.212 115.74 115.231 115.115 115.281C114.653 115.318 114.649 116.044 115.115 116.006C117.57 115.81 120.061 115.875 122.522 115.895L123.291 115.901C123.384 115.897 123.471 115.856 123.535 115.789C123.599 115.721 123.635 115.632 123.635 115.539C123.635 115.446 123.599 115.356 123.535 115.289C123.471 115.221 123.384 115.181 123.291 115.176ZM148.05 115.161C146.159 115.125 144.268 115.098 142.378 115.081C138.755 115.045 135.133 115.029 131.518 115.093C129.878 115.121 128.236 115.157 126.6 115.281C126.137 115.316 126.133 116.041 126.6 116.006C129.83 115.762 133.084 115.782 136.32 115.778C139.555 115.774 142.803 115.803 146.045 115.852C146.713 115.862 147.381 115.874 148.05 115.887C148.143 115.882 148.23 115.842 148.294 115.774C148.358 115.707 148.394 115.617 148.394 115.524C148.394 115.431 148.358 115.341 148.294 115.274C148.23 115.206 148.143 115.166 148.05 115.161Z" fill="#FFE497"/>
<path d="M22.221 149.911L19.8519 147.333L14.5176 141.528L8.89054 135.404L5.57874 131.795C5.21337 131.493 4.78794 131.271 4.33057 131.145L2.1524 130.23L2.30903 130.328L2.00164 130.558L1.66879 130.809L1.24295 131.128L0.935558 131.358L0.66243 131.562C0.66243 131.562 0.608587 131.453 0.53125 131.283L1.04912 132.913L1.5474 134.48C1.58332 134.626 1.65007 134.763 1.7432 134.881C2.65754 135.92 3.61496 136.922 4.54986 137.942L9.94096 143.823L15.3056 149.676C16.2337 150.687 17.1265 151.753 18.0996 152.722L18.1397 152.766C18.1805 152.812 18.2329 152.846 18.2914 152.864L18.3218 152.873H18.3375C18.3793 152.881 18.4223 152.88 18.4638 152.871C18.5053 152.862 18.5446 152.844 18.5793 152.819L22.1456 150.47C22.1909 150.441 22.2293 150.403 22.2583 150.357C22.2872 150.312 22.3059 150.261 22.3131 150.208C22.3203 150.155 22.3158 150.101 22.2998 150.049C22.2839 149.998 22.257 149.951 22.221 149.911Z" fill="#FEB186"/>
<path d="M55.049 38.9468H55.0216C54.912 38.9624 54.7896 38.9801 54.6614 39.0006C54.5331 39.0212 54.4108 39.0408 54.2698 39.0662C51.4504 39.5792 45.8772 41.402 47.9369 49.1553C47.9369 49.1553 45.7147 48.5376 45.467 49.9385C45.2193 51.3394 46.167 53.3139 49.4191 52.2429C50.1084 52.8937 50.8786 53.4531 51.7108 53.9072C51.8263 53.9679 51.9438 54.0266 52.0632 54.0824C52.1827 54.1382 52.3148 54.196 52.4431 54.2459C52.6046 54.3085 52.7671 54.3643 52.9325 54.4113C52.958 55.4102 53.0657 56.4052 53.2546 57.3864C53.2615 57.4187 53.2654 57.452 53.2722 57.4843C53.3701 57.9737 53.5179 58.6864 53.9849 58.9703C54.4466 59.1384 54.9434 59.1869 55.4289 59.1113C56.743 59.1172 58.0504 58.9221 59.3055 58.5327C59.5231 58.458 59.7368 58.3724 59.9458 58.2762C60.0836 58.2108 60.2167 58.1359 60.3442 58.0521C60.7166 57.8203 60.9919 57.4608 61.1186 57.0408C61.2722 56.3378 61.2871 55.6115 61.1626 54.9028V54.8812C61.0424 53.922 60.8579 52.9719 60.6105 52.0374C61.3475 51.5322 61.867 50.7677 62.0652 49.8964C62.4294 47.354 57.4475 38.6854 55.049 38.9468ZM76.449 71.9728C76.423 71.8439 76.3708 71.7217 76.2957 71.6138C76.2206 71.5058 76.1242 71.4145 76.0124 71.3453C75.7377 71.2213 75.4265 71.2045 75.1401 71.2983L74.8357 71.3609C75.0841 71.1155 75.2999 70.8391 75.4779 70.5386C75.6043 70.3483 75.6868 70.1321 75.7193 69.9059C75.7519 69.6796 75.7336 69.449 75.6658 69.2307C75.587 69.0167 75.4422 68.8331 75.2524 68.7066C75.0626 68.5801 74.8374 68.5172 74.6095 68.5269C74.1065 68.5939 73.617 68.7389 73.1587 68.9566C72.6322 69.1438 72.0931 69.2933 71.5454 69.404C70.9977 69.514 70.4397 69.5642 69.8812 69.5538C69.693 69.551 69.5051 69.5379 69.3183 69.5146C69.2263 69.5048 69.1342 69.496 69.0422 69.4804C68.8222 69.473 68.6128 69.384 68.4548 69.2307C68.1876 68.8529 67.5581 69.2151 67.8283 69.5978C67.9701 69.7923 68.161 69.9457 68.3814 70.0423C68.7125 70.1837 69.0671 70.2624 69.4269 70.2743C69.7206 70.2919 70.0143 70.2851 70.2718 70.2743C71.2881 70.2273 72.2917 70.0294 73.2498 69.6869C73.6697 69.4879 74.1121 69.3404 74.5674 69.2474C75.0481 69.2112 75.0892 69.6908 74.9267 70.0374C74.4901 70.8192 73.7992 71.4282 72.9688 71.7633C72.5772 71.9395 72.8709 72.5053 73.2488 72.426L74.6604 72.1324C74.9042 72.0815 75.1499 72.0208 75.3937 71.9806C75.6218 71.9424 75.7676 71.9806 75.7559 72.2459C75.7392 72.6248 75.38 72.892 75.097 73.0878C74.7186 73.3457 74.3214 73.5748 73.9086 73.7731C73.5102 73.9689 73.8107 74.4956 74.1876 74.4358C74.5119 74.3841 74.8386 74.3495 75.1665 74.3321C75.3254 74.3057 75.4879 74.3096 75.6453 74.3438C75.6623 74.3509 75.6777 74.3616 75.6903 74.3751C75.6401 74.4263 75.5868 74.4744 75.5307 74.5191C75.108 74.8998 74.6338 75.2191 74.122 75.4677C73.1433 75.9413 72.0571 76.149 70.9727 76.0697C70.9198 76.0697 70.867 76.0697 70.8151 76.0599C70.7703 76.0554 70.7251 76.0597 70.682 76.0727C70.3569 76.1705 70.403 76.7471 70.8151 76.7853C70.9326 76.7961 71.05 76.7981 71.1675 76.803C72.5965 76.8581 74.0072 76.467 75.2037 75.684C75.6932 75.3619 76.7466 74.7305 76.3344 74.0198C76.259 73.9008 76.1562 73.8017 76.0346 73.7306C75.913 73.6596 75.7761 73.6188 75.6355 73.6116C75.9178 73.4494 76.1458 73.2071 76.2906 72.9155C76.4354 72.6238 76.4905 72.2958 76.449 71.9728ZM90.9277 43.6614C90.8422 43.1938 90.7137 42.735 90.544 42.2909C90.2755 41.5469 89.7272 40.9371 89.0158 40.5914C89.0945 39.7341 89.084 38.8709 88.9845 38.0158C88.9774 37.6965 88.844 37.393 88.6135 37.1719C88.4574 37.0647 88.2747 37.0025 88.0856 36.9923C87.8965 36.9821 87.7082 37.0243 87.5415 37.1142C86.8789 37.4485 86.3115 37.9449 85.892 38.5572C85.4216 39.1693 84.9739 39.7985 84.5498 40.4436C84.4495 40.3215 84.3153 40.2319 84.1641 40.1861C84.0066 40.1549 83.8437 40.1656 83.6917 40.2171C83.5396 40.2687 83.4038 40.3593 83.2977 40.4798C82.8785 40.8948 82.5405 41.3846 82.3012 41.9238C82.1647 42.2185 82.0549 42.5248 81.9732 42.8391C81.9367 43.1224 81.8396 43.3946 81.6883 43.637C81.6232 43.7148 81.5884 43.8135 81.5905 43.915L82.0564 44.241C82.1139 44.2266 82.1656 44.1948 82.2043 44.1499C82.5209 43.594 82.7535 42.9943 82.8944 42.3702C83.1241 41.8086 83.4782 41.3065 83.9301 40.9017C83.9414 40.8927 83.955 40.8869 83.9693 40.8851C84.0011 40.9076 84.028 40.9363 84.0486 40.9693C84.1399 41.0982 84.2167 41.2367 84.2777 41.3824C84.4002 41.6642 84.4871 41.9602 84.5361 42.2635C84.6276 42.8967 84.6571 43.5374 84.6242 44.1764C84.6291 44.2693 84.6694 44.3568 84.7369 44.4209C84.8044 44.485 84.8939 44.5207 84.9869 44.5207C85.08 44.5207 85.1695 44.485 85.237 44.4209C85.3045 44.3568 85.3448 44.2693 85.3496 44.1764C85.4335 43.1466 85.3001 42.1107 84.9581 41.1357C84.9706 41.122 84.9823 41.1076 84.9933 41.0926C85.3764 40.5053 85.7748 39.9297 86.1886 39.3658C86.5244 38.8577 86.9373 38.4049 87.4123 38.0236C87.5621 37.9159 87.9683 37.6066 88.1641 37.7299C88.3286 37.8366 88.3002 38.3604 88.3119 38.5131C88.3581 39.1647 88.3545 39.8189 88.3012 40.47C87.7193 40.6902 87.2039 41.0563 86.8044 41.5332C86.3242 42.0738 86.0325 42.7557 85.9732 43.4764C85.9789 43.6553 86.0304 43.8297 86.1228 43.9829C86.2152 44.1361 86.3454 44.2631 86.501 44.3515C86.6566 44.44 86.8322 44.487 87.0112 44.488C87.1901 44.489 87.3663 44.4441 87.5229 44.3575C87.5493 44.3467 87.5748 44.333 87.6012 44.3212C87.5273 44.473 87.4781 44.6356 87.4554 44.8029C87.4444 44.9886 87.4707 45.1746 87.5327 45.35C87.5947 45.5254 87.6912 45.6866 87.8164 45.8241C87.9417 45.9617 88.0932 46.0728 88.262 46.151C88.4308 46.2291 88.6136 46.2727 88.7995 46.2791C89.0321 46.2926 89.2651 46.2593 89.4847 46.1813C89.1963 46.9674 88.8508 47.7314 88.451 48.4671C88.4176 48.5268 88.402 48.5947 88.4059 48.6629L88.8827 48.9957C88.9248 48.983 88.9638 48.9619 88.9975 48.9336C89.0311 48.9054 89.0587 48.8705 89.0785 48.8313C89.5912 47.8881 90.0203 46.9017 90.3609 45.8836C90.3836 45.8121 90.3805 45.7348 90.3521 45.6653C90.5523 45.4865 90.7217 45.2758 90.8533 45.0417C91.049 44.6069 91.0756 44.1148 90.9277 43.6614ZM83.9556 40.8792C83.9468 40.8773 83.9419 40.8763 83.9556 40.8763V40.8792ZM90.2209 44.6844C90.1219 44.8567 89.9934 45.0101 89.8411 45.1377C89.7058 45.2764 89.5429 45.3854 89.3631 45.4575C89.1832 45.5297 88.9902 45.5635 88.7965 45.5567C88.6468 45.5434 88.505 45.4831 88.3918 45.3842C88.2785 45.2853 88.1995 45.1531 88.1661 45.0065C88.1259 44.6208 88.5068 44.2233 88.7133 43.9297L89.5738 42.7177C89.8117 42.3829 89.2801 41.9698 89.005 42.2782C88.6047 42.7371 88.1436 43.1393 87.6345 43.4735C87.427 43.6086 87.1509 43.8063 86.8886 43.7437C86.5949 43.6732 86.7006 43.3521 86.7574 43.1357C86.8765 42.6979 87.0949 42.2935 87.3958 41.954C87.6967 41.6144 88.0718 41.3488 88.4921 41.1778C88.8419 41.3002 89.1564 41.5062 89.4083 41.778C89.6601 42.0499 89.8417 42.3792 89.937 42.7373C90.0735 43.1534 90.1801 43.5787 90.2562 44.0099C90.3247 44.2307 90.3129 44.4686 90.2229 44.6815L90.2209 44.6844Z" fill="#FEB186"/>
<path d="M161.155 134.214C159.577 134.116 157.98 134.164 156.4 134.155C152.77 134.134 149.139 134.123 145.508 134.121C140.293 134.111 135.078 134.106 129.863 134.105H111.203C104.403 134.105 97.604 134.109 90.8048 134.118C84.0265 134.122 77.2486 134.129 70.4709 134.137L51.4538 134.161L35.5399 134.184L24.0411 134.203C22.2418 134.203 20.4395 134.179 18.6402 134.212H18.4043C18.3113 134.217 18.2238 134.257 18.1597 134.324C18.0957 134.392 18.0599 134.481 18.0599 134.575C18.0599 134.668 18.0957 134.757 18.1597 134.825C18.2238 134.892 18.3113 134.932 18.4043 134.937L22.1449 134.931L32.2467 134.915L47.3167 134.892L65.6232 134.869L85.8875 134.847C92.6932 134.841 99.4986 134.836 106.304 134.832C112.743 134.829 119.183 134.829 125.623 134.832C131.101 134.832 136.578 134.836 142.056 134.843C146.136 134.849 150.215 134.859 154.293 134.874C156.41 134.882 158.531 134.874 160.648 134.925C160.817 134.925 160.985 134.932 161.153 134.942C161.626 134.971 161.619 134.246 161.155 134.214ZM22.559 150.66L19.2109 152.685L18.7303 152.978C18.6497 153.028 18.5919 153.108 18.5691 153.2C18.5463 153.292 18.5603 153.389 18.6082 153.471C18.6561 153.552 18.7341 153.612 18.8255 153.637C18.9169 153.662 19.0145 153.651 19.0974 153.605C20.2121 152.929 21.3278 152.255 22.4444 151.58L22.9251 151.287C23.0037 151.236 23.0596 151.157 23.0814 151.066C23.1031 150.975 23.0889 150.879 23.0417 150.798C22.9945 150.718 22.918 150.658 22.828 150.632C22.7381 150.607 22.6417 150.617 22.559 150.66ZM5.77675 131.179C5.67396 130.723 4.97498 130.916 5.0768 131.375L5.34405 132.561H3.65339C3.55731 132.562 3.46537 132.601 3.39743 132.669C3.32948 132.736 3.29097 132.828 3.2902 132.925L3.41747 134.454L1.73269 134.116C1.27649 134.028 1.0807 134.727 1.5369 134.816L3.71801 135.242C3.77187 135.256 3.82819 135.257 3.88273 135.246C3.93726 135.235 3.98858 135.212 4.03281 135.178C4.07703 135.144 4.113 135.101 4.13801 135.051C4.16301 135.002 4.17639 134.947 4.17714 134.891L4.04302 133.278H5.79045C5.846 133.277 5.90062 133.264 5.9502 133.238C5.99978 133.213 6.04302 133.177 6.07667 133.133C6.11032 133.089 6.1335 133.038 6.14446 132.983C6.15542 132.929 6.15387 132.873 6.13994 132.819L5.77675 131.179ZM52.4298 45.4099C52.4298 45.4099 52.4357 45.3962 52.4298 45.3766C52.4308 45.3877 52.4308 45.3988 52.4298 45.4099ZM52.7039 44.7207C52.7206 44.7099 52.7294 44.6943 52.7225 44.6992L52.7098 44.7138L52.7039 44.7207ZM47.7377 50.0286C47.5863 50.033 47.4348 50.0261 47.2844 50.008C47.1793 49.9932 47.0751 49.9729 46.9721 49.9473C46.8775 49.9236 46.7773 49.9369 46.6922 49.9845C46.6113 50.033 46.5518 50.1103 46.5257 50.2009C46.5005 50.2937 46.513 50.3927 46.5605 50.4764C46.608 50.56 46.6866 50.6215 46.7793 50.6473C47.0922 50.7272 47.4148 50.7631 47.7377 50.754C47.8337 50.7526 47.9255 50.7144 47.9942 50.6473C48.028 50.6137 48.0549 50.5738 48.0732 50.5297C48.0916 50.4857 48.101 50.4385 48.101 50.3908C48.101 50.3431 48.0916 50.2959 48.0732 50.2519C48.0549 50.2079 48.028 50.1679 47.9942 50.1343C47.9259 50.0667 47.8337 50.0287 47.7377 50.0286Z" fill="#29175F"/>
<path d="M52.5692 43.8567C52.241 44.0982 51.9888 44.4286 51.8422 44.8088C51.6956 45.189 51.6609 45.6032 51.742 46.0026C51.7681 46.0951 51.8296 46.1736 51.9131 46.221C51.9967 46.2685 52.0956 46.2811 52.1884 46.2561C52.2799 46.2285 52.3573 46.1668 52.4045 46.0837C52.4517 46.0005 52.4651 45.9024 52.442 45.8097C52.442 45.7892 52.4332 45.7686 52.4302 45.7471V45.655C52.4248 45.5791 52.4248 45.5029 52.4302 45.4269V45.4132C52.4285 45.4035 52.4285 45.3936 52.4302 45.3839C52.4361 45.3477 52.4439 45.3114 52.4518 45.2762C52.4692 45.2014 52.4914 45.1278 52.5183 45.0559L52.5291 45.0324C52.5222 45.0461 52.5164 45.054 52.5291 45.0256V45.0089V45.0158C52.5438 44.9845 52.5585 44.9531 52.5751 44.9228C52.611 44.855 52.6512 44.7896 52.6955 44.727L52.7043 44.7182L52.7171 44.7035L52.7278 44.6878C52.7779 44.6304 52.8312 44.5758 52.8874 44.5243L52.9256 44.4911L52.9354 44.4823C53.0147 44.432 53.072 44.3535 53.0957 44.2627C53.1193 44.1718 53.1075 44.0753 53.0626 43.9928C53.0145 43.9101 52.9359 43.8496 52.8437 43.8242C52.7514 43.7988 52.6529 43.8104 52.5692 43.8567ZM59.0822 47.4084C58.7309 47.8222 58.2728 48.1317 57.7577 48.3031C57.1303 48.4756 56.4757 48.5264 55.8291 48.4529C55.683 48.4244 55.5318 48.4355 55.3913 48.485C55.2509 48.5346 55.1262 48.6209 55.0303 48.7348C54.8745 48.9658 54.7942 49.2394 54.8003 49.518C54.8046 49.7853 54.8675 50.0485 54.9843 50.2889C55.1012 50.5294 55.2692 50.7414 55.4767 50.9101C55.743 51.1136 56.0475 51.2614 56.3721 51.3447C56.6967 51.428 57.0348 51.4449 57.3661 51.3947C57.4614 51.3915 57.552 51.3522 57.6194 51.2848C57.6868 51.2173 57.7261 51.1268 57.7293 51.0315C57.7285 50.9355 57.69 50.8436 57.622 50.7758C57.554 50.7081 57.4621 50.6698 57.3661 50.6692C57.0793 50.7325 56.781 50.7206 56.5001 50.6349C56.2192 50.5492 55.9652 50.3924 55.7626 50.1798C55.6166 49.993 55.5351 49.7638 55.5306 49.5268C55.534 49.4173 55.5555 49.3092 55.5942 49.2067L55.6059 49.1675C55.6057 49.1687 55.6058 49.1699 55.6062 49.171C55.6066 49.1722 55.6072 49.1732 55.6081 49.174C55.609 49.1747 55.6101 49.1753 55.6113 49.1755C55.6124 49.1758 55.6136 49.1757 55.6148 49.1754C55.7007 49.1677 55.7872 49.1713 55.8722 49.1861C56.5847 49.2587 57.3045 49.1922 57.9917 48.9903C58.6121 48.7831 59.166 48.4141 59.5962 47.9213C59.9006 47.5709 59.3896 47.0559 59.0822 47.4084ZM57.4728 42.0182L57.5599 42.0544C57.5954 42.0637 57.632 42.0676 57.6686 42.0662C57.7259 42.0608 57.7836 42.0608 57.8409 42.0662C57.879 42.0734 57.9166 42.0829 57.9535 42.0946C58.0036 42.1179 58.0514 42.1458 58.0964 42.1778C58.1651 42.2401 58.2543 42.2749 58.347 42.2757C58.4431 42.2747 58.5351 42.2364 58.6035 42.169C58.6715 42.1009 58.7098 42.0087 58.7102 41.9125C58.7094 41.8164 58.6711 41.7243 58.6035 41.656C58.3962 41.463 58.1276 41.349 57.8448 41.3339C57.7465 41.3285 57.6479 41.3347 57.5511 41.3525C57.4601 41.3777 57.3824 41.4374 57.3348 41.519C57.3106 41.56 57.2948 41.6054 57.2882 41.6526C57.2816 41.6998 57.2844 41.7478 57.2964 41.7939C57.3084 41.84 57.3294 41.8833 57.3582 41.9213C57.3869 41.9593 57.4229 41.9912 57.464 42.0153L57.4728 42.0182Z" fill="#29175F"/>
<path d="M54.6458 46.5619C54.9269 46.5619 55.1548 46.334 55.1548 46.0529C55.1548 45.7717 54.9269 45.5438 54.6458 45.5438C54.3646 45.5438 54.1367 45.7717 54.1367 46.0529C54.1367 46.334 54.3646 46.5619 54.6458 46.5619Z" fill="#29175F"/>
<path d="M58.8606 44.2466C59.1418 44.2466 59.3697 44.0187 59.3697 43.7376C59.3697 43.4564 59.1418 43.2285 58.8606 43.2285C58.5795 43.2285 58.3516 43.4564 58.3516 43.7376C58.3516 44.0187 58.5795 44.2466 58.8606 44.2466Z" fill="#29175F"/>
<path d="M58.1703 53.3175C57.2903 53.7121 56.3573 53.976 55.4009 54.1007C55.3086 54.1267 55.2304 54.1881 55.1831 54.2715C55.1358 54.3549 55.1233 54.4535 55.1483 54.5461C55.1757 54.6375 55.2372 54.7149 55.3202 54.7621C55.4032 54.8093 55.5011 54.8228 55.5937 54.7996C56.6115 54.6642 57.6034 54.3775 58.5365 53.9489C58.6189 53.8998 58.6787 53.8202 58.7031 53.7274C58.7274 53.6346 58.7143 53.5359 58.6667 53.4526C58.6174 53.3703 58.5382 53.3103 58.4457 53.2851C58.3532 53.2599 58.2545 53.2715 58.1703 53.3175ZM50.6588 35.201C48.6627 34.4354 45.6123 34.2572 44.1977 36.2024C43.8796 36.6262 43.6912 37.1332 43.6552 37.6619C43.6192 38.1906 43.7373 38.7184 43.9951 39.1814C42.7009 40.0027 41.254 41.0727 40.8791 42.6028C40.7688 42.9881 40.7515 43.3941 40.8286 43.7874C40.9057 44.1807 41.0749 44.5501 41.3225 44.8652C41.58 45.1695 41.92 45.3929 42.3015 45.5084C41.7856 46.2186 41.4237 47.0288 41.2391 47.8871C41.0545 48.7453 41.0513 49.6327 41.2295 50.4922C41.3818 51.5659 41.8414 52.5726 42.5531 53.3909C43.3513 54.2116 44.3169 54.8506 45.3842 55.2646C46.4526 55.7587 47.6358 55.951 48.8057 55.8207C49.9708 55.6471 51.0805 55.208 52.0489 54.5373C52.185 54.4452 52.3162 54.3415 52.4454 54.2436C52.1949 54.1452 51.9504 54.0321 51.7132 53.9049C50.881 53.4508 50.1108 52.8914 49.4214 52.2406C46.1693 53.3116 45.2227 51.3351 45.4694 49.9362C45.7161 48.5373 47.9393 49.153 47.9393 49.153C45.8835 41.3997 51.4528 39.5769 54.2721 39.0639C54.4082 39.0385 54.5365 39.0179 54.6637 38.9983L55.024 38.9445H55.0514C54.0645 37.2259 52.5121 35.9029 50.6588 35.201Z" fill="#29175F"/>
<path d="M153.621 39.0522C153.579 33.9371 153.523 28.8182 153.306 23.7071C153.287 23.2372 153.266 22.7669 153.243 22.2964C153.241 22.2008 153.202 22.1097 153.134 22.0421C153.066 21.9746 152.975 21.9359 152.88 21.9342C152.049 21.9205 151.219 21.9077 150.388 21.896C148.072 21.8608 145.755 21.8281 143.438 21.7981C139.943 21.7511 136.447 21.7067 132.951 21.665C128.552 21.6134 124.154 21.5658 119.755 21.522C114.737 21.4718 109.718 21.4287 104.7 21.3928C99.3214 21.3537 93.9423 21.3236 88.5633 21.3027C83.1575 21.2819 77.7517 21.2734 72.3459 21.2773C67.1731 21.2825 62.0003 21.3037 56.8275 21.3409C52.1716 21.3768 47.5157 21.4356 42.8598 21.5171C38.9881 21.5906 35.1163 21.6836 31.2465 21.8343C30.4633 21.8643 29.6802 21.897 28.897 21.9322C28.8014 21.9337 28.7101 21.9724 28.6425 22.04C28.5749 22.1076 28.5363 22.1988 28.5348 22.2944V93.6602C28.5348 94.6147 28.4829 95.5848 28.5348 96.5374V96.6685C28.5334 96.7128 28.5409 96.7568 28.5567 96.7982C28.5725 96.8395 28.5963 96.8773 28.6268 96.9094C28.6669 96.9616 28.7235 96.9988 28.7874 97.0151C28.8229 97.0259 28.8598 97.0315 28.897 97.0317H28.9097L31.5235 97.0151L38.7766 96.972C42.4242 96.9511 46.0721 96.9319 49.7203 96.9143C54.2849 96.8921 58.8497 96.8712 63.4149 96.8516C68.5845 96.8301 73.7543 96.8115 78.9245 96.7958C84.3864 96.7795 89.848 96.7664 95.3093 96.7566C100.751 96.7482 106.192 96.7446 111.633 96.7459C116.742 96.7459 121.85 96.755 126.958 96.7733C131.421 96.7889 135.884 96.8147 140.346 96.8506C143.851 96.881 147.355 96.9191 150.859 96.9877C151.52 97.0007 152.181 97.0151 152.84 97.0307H152.878C152.906 97.0311 152.935 97.0275 152.963 97.02C153.003 97.0104 153.041 96.9938 153.075 96.971C153.125 96.9371 153.166 96.892 153.195 96.8392C153.223 96.7864 153.239 96.7276 153.241 96.6676C153.272 94.7867 153.301 92.9058 153.327 91.0249C153.392 86.2704 153.451 81.515 153.503 76.7586C153.568 70.5337 153.615 64.3085 153.642 58.083C153.67 51.7404 153.673 45.3958 153.621 39.0522ZM152.623 89.625C152.602 91.203 152.578 92.7811 152.554 94.3592L152.531 95.8208C152.531 95.9617 152.506 96.135 152.501 96.2995C149.404 96.2313 146.306 96.1827 143.209 96.1536C138.95 96.1086 134.692 96.0782 130.434 96.0626C125.454 96.0404 120.474 96.0273 115.494 96.0234C110.105 96.0188 104.717 96.0188 99.3279 96.0234C93.8418 96.0306 88.3561 96.0417 82.8707 96.0567C77.6006 96.0717 72.3309 96.0893 67.0615 96.1096C62.3201 96.1278 57.5794 96.1484 52.8393 96.1712L41.1388 96.2319L32.9009 96.2789C31.689 96.2867 30.4741 96.2691 29.2621 96.2995V88.2329L31.6341 88.2446C34.1585 88.2583 36.6833 88.2707 39.2083 88.2818C42.9871 88.2995 46.7662 88.3161 50.5456 88.3318C55.272 88.3513 59.998 88.3693 64.7238 88.3856C70.0199 88.4045 75.3164 88.4208 80.6132 88.4345C86.1606 88.4483 91.708 88.4594 97.2554 88.4678C102.72 88.4757 108.185 88.4789 113.65 88.4776C118.714 88.4776 123.779 88.4695 128.842 88.4532C133.128 88.4401 137.412 88.4179 141.697 88.3866C144.888 88.3611 148.08 88.3308 151.27 88.2691C151.727 88.2606 152.184 88.2505 152.641 88.2388L152.623 89.625ZM152.927 55.6973C152.908 62.0103 152.866 68.3232 152.801 74.6362C152.76 78.9292 152.709 83.2216 152.651 87.5134C149.9 87.578 147.149 87.6113 144.398 87.6377C140.331 87.6775 136.265 87.7036 132.199 87.716C127.309 87.7356 122.419 87.7467 117.53 87.7493C112.113 87.7545 106.696 87.7545 101.279 87.7493C95.7191 87.7434 90.1596 87.7339 84.6005 87.7209C79.2123 87.7078 73.8241 87.6925 68.436 87.6749C63.5549 87.6592 58.6739 87.6416 53.7928 87.622L41.6351 87.5701L33.0761 87.529C31.8035 87.5222 30.5309 87.4879 29.2582 87.5065V23.4212C29.2582 23.1804 29.2915 22.8994 29.2798 22.638C32.7639 22.4795 36.2499 22.3796 39.736 22.3013C44.2392 22.1995 48.7453 22.1296 53.2544 22.0918C58.328 22.0422 63.4012 22.0128 68.4742 22.0037C73.8499 21.9913 79.225 21.9932 84.5995 22.0096C89.9935 22.0246 95.3873 22.05 100.781 22.0859C105.931 22.1192 111.081 22.1597 116.231 22.2073C120.807 22.2504 125.382 22.298 129.957 22.3502C133.699 22.3926 137.441 22.4383 141.182 22.4873C143.804 22.5225 146.428 22.5591 149.052 22.5969L151.48 22.6331C151.814 22.6331 152.186 22.6831 152.53 22.6655C152.755 27.383 152.824 32.1084 152.87 36.8299C152.94 43.1217 152.945 49.4105 152.927 55.7022V55.6973Z" fill="#29175F"/>
<path d="M92.8805 90.5967C92.5669 90.4174 92.2061 90.338 91.8462 90.3693C91.4864 90.4006 91.1446 90.5411 90.8667 90.7718C90.5888 91.0026 90.388 91.3126 90.2911 91.6606C90.1942 92.0086 90.2058 92.3778 90.3244 92.719C90.4267 93.1007 90.6494 93.4393 90.9595 93.6842C91.2696 93.9292 91.6504 94.0676 92.0454 94.0788C92.5374 94.0717 93.0071 93.8728 93.3545 93.5244C93.702 93.1761 93.8996 92.7058 93.9054 92.2139C93.9002 91.8761 93.8017 91.5463 93.6208 91.2609C93.4399 90.9755 93.1837 90.7456 92.8805 90.5967ZM93.0988 92.6525C93.088 92.6848 93.0929 92.6671 93.0988 92.6525V92.6525ZM93.1791 92.3294V92.3637L93.1722 92.4019C93.1564 92.4806 93.1351 92.5581 93.1086 92.6339L93.1027 92.6505C93.0791 92.6997 93.0543 92.7484 93.0283 92.7964C93.0097 92.8297 92.9833 92.8669 92.9588 92.9021L92.9431 92.9227L92.9147 92.9559C92.8643 93.0113 92.8104 93.0633 92.7532 93.1116L92.7043 93.1478C92.669 93.1713 92.6328 93.1938 92.5966 93.2144C92.5604 93.2349 92.529 93.2496 92.4938 93.2663L92.4331 93.2888C92.3551 93.3157 92.2748 93.3354 92.1933 93.3475L92.1247 93.3524H91.9015L91.8359 93.3387C91.803 93.3315 91.7703 93.323 91.738 93.3133L91.6754 93.2917L91.6607 93.2858L91.599 93.2555C91.5418 93.2243 91.4865 93.1897 91.4336 93.1517L91.3837 93.1087C91.3299 93.0585 91.2796 93.0049 91.2329 92.9481L91.2094 92.9148C91.1888 92.8835 91.1683 92.8522 91.1487 92.8169L91.1027 92.7318L91.0812 92.6877L91.0675 92.6554L91.04 92.5771C91.0303 92.5467 91.0205 92.5154 91.0126 92.4792C91.0048 92.443 90.997 92.4156 90.9911 92.3813L90.9803 92.3245V92.3147C90.9747 92.2496 90.9724 92.1843 90.9735 92.1189C90.9735 92.0808 90.9735 92.0426 90.9803 92.0034L90.9891 91.9525C91.0042 91.8815 91.0238 91.8115 91.0479 91.743L91.0616 91.7068C91.0943 91.6381 91.1316 91.5717 91.1732 91.5081C91.1732 91.5002 91.1996 91.4718 91.2084 91.4581L91.2554 91.4053C91.2789 91.3808 91.3024 91.3573 91.3279 91.3348L91.367 91.3005L91.4209 91.2633C91.4698 91.232 91.5188 91.2065 91.5736 91.1801L91.6029 91.1693C91.6284 91.1605 91.6538 91.1517 91.6803 91.1449C91.7067 91.138 91.7322 91.1302 91.7586 91.1243L91.8213 91.1135C91.9191 91.1067 92.017 91.1135 92.1218 91.1135L92.1727 91.1194C92.1991 91.1243 92.2265 91.1302 92.253 91.137C92.3153 91.1518 92.3768 91.1701 92.437 91.1919C92.4674 91.2026 92.5349 91.234 92.4654 91.2026C92.4948 91.2163 92.5241 91.2291 92.5525 91.2447C92.6138 91.2765 92.673 91.3122 92.7297 91.3514L92.763 91.3749L92.8354 91.4386C92.8807 91.4822 92.9235 91.5283 92.9637 91.5766L92.994 91.6177C93.0143 91.6484 93.0339 91.681 93.0528 91.7156C93.0694 91.745 93.0831 91.7743 93.0978 91.8027L93.1037 91.8135L93.1105 91.8341C93.1344 91.9023 93.154 91.9719 93.1693 92.0426L93.1761 92.0857V92.0945C93.1761 92.1356 93.181 92.1767 93.182 92.2178C93.183 92.2589 93.181 92.2912 93.1791 92.3294ZM0.0707062 129.4C-0.178927 129.619 0.293908 130.749 0.536688 131.282C0.614026 131.451 0.667869 131.561 0.667869 131.561L0.940997 131.356L1.24839 131.126L1.67423 130.807L2.00708 130.557L2.31447 130.327L2.15784 130.229C1.69577 129.949 0.342856 129.163 0.0707062 129.4Z" fill="#29175F"/>
<path d="M101.297 42.5688C99.2476 43.9521 97.6426 45.8998 96.6766 48.1763C95.7106 50.4527 95.4251 52.9603 95.8546 55.3957C96.2841 57.831 97.4102 60.0897 99.0966 61.8983C100.783 63.707 102.958 64.9881 105.357 65.5867H137.724C138.866 65.2594 139.941 64.7299 140.897 64.0233" stroke="#29175F" stroke-width="0.484959" stroke-linecap="round" stroke-linejoin="round"/>
<path d="M134.457 37.8836C133.377 35.3717 131.52 33.2719 129.16 31.8921C126.799 30.5123 124.059 29.925 121.34 30.2164C118.622 30.5078 116.068 31.6625 114.053 33.5113C112.039 35.36 110.67 37.8055 110.147 40.4892C109.583 40.4139 109.016 40.3757 108.448 40.3745C106.888 40.373 105.34 40.6574 103.883 41.2135" stroke="#29175F" stroke-width="0.484959" stroke-linecap="round" stroke-linejoin="round"/>
<path d="M142.591 62.4441C143.827 60.9973 144.627 59.2292 144.898 57.3456C145.168 55.462 144.898 53.5403 144.119 51.8042C143.34 50.068 142.084 48.5889 140.497 47.5388C138.91 46.4886 137.058 45.9108 135.155 45.8725C135.62 43.8809 135.606 41.8072 135.113 39.8223" stroke="#29175F" stroke-width="0.484959" stroke-linecap="round" stroke-linejoin="round"/>
<path d="M129.866 43.2407H111.074V61.9802H129.866V43.2407Z" fill="#4355E6"/>
<path d="M109.564 78.0004L114.742 58.3617L95.1035 53.1839L89.9257 72.8227L109.564 78.0004Z" fill="#FEB186"/>
<path fill-rule="evenodd" clip-rule="evenodd" d="M101.346 62.2773L106.3 61.2324L106.011 62.2426L101.062 63.287L101.346 62.2773ZM100.741 64.4296L99.4836 68.8995C99.5099 68.9391 99.5347 68.9797 99.5578 69.0214C99.6705 69.2246 99.7421 69.448 99.7683 69.6788C99.7946 69.9096 99.7751 70.1434 99.7109 70.3666C99.6148 70.7035 99.4209 71.0042 99.1538 71.2308C98.8867 71.4574 98.5584 71.5997 98.2105 71.6397C97.8625 71.6796 97.5105 71.6155 97.199 71.4553C96.8875 71.2951 96.6305 71.0461 96.4606 70.7398C96.2906 70.4335 96.2154 70.0837 96.2443 69.7346C96.2733 69.3856 96.4052 69.0529 96.6232 68.7788C96.8413 68.5047 97.1358 68.3015 97.4694 68.1948C97.7386 68.1088 98.0235 68.0887 98.3003 68.135L100.41 60.6332L101.706 60.9976L101.667 61.1354L108.115 59.7748L107.799 60.8883L107.802 60.8891L105.361 69.4355L105.352 69.4331L105.344 69.4631C105.248 69.7991 105.055 70.0991 104.789 70.3252C104.522 70.5513 104.195 70.6933 103.848 70.7333C103.5 70.7733 103.149 70.7094 102.838 70.5498C102.528 70.3901 102.271 70.1419 102.101 69.8365C101.932 69.5311 101.856 69.1822 101.885 68.8339C101.913 68.4857 102.045 68.1537 102.262 67.88C102.479 67.6063 102.773 67.4032 103.105 67.2964C103.438 67.1896 103.795 67.1838 104.131 67.2798C104.27 67.3198 104.402 67.3762 104.525 67.4472L105.685 63.3863L100.741 64.4296Z" fill="white"/>
<path d="M125.958 52.6129L116.914 47.3881V57.8327L125.958 52.6129Z" fill="white" stroke="#29175F" stroke-width="0.484959" stroke-linecap="round" stroke-linejoin="round"/>
<path d="M114.742 75.4476L121.434 84.9769L128.13 75.4476H124.84V68.6404H118.033V75.4476H114.742Z" fill="#FE6B21" stroke="#29175F" stroke-width="0.484959" stroke-linecap="round" stroke-linejoin="round"/>
<defs>
<linearGradient id="paint0_linear_3536_6959" x1="21.4593" y1="157.306" x2="25.827" y2="156.639" gradientUnits="userSpaceOnUse">
<stop stop-color="#4C60E9"/>
<stop offset="1" stop-color="#7485FF"/>
</linearGradient>
<linearGradient id="paint1_linear_3536_6959" x1="72.0788" y1="87.5906" x2="78.0071" y2="87.4853" gradientUnits="userSpaceOnUse">
<stop stop-color="#4C60E9"/>
<stop offset="1" stop-color="#7485FF"/>
</linearGradient>
<linearGradient id="paint2_linear_3536_6959" x1="76.8809" y1="68.9507" x2="102.162" y2="66.2235" gradientUnits="userSpaceOnUse">
<stop stop-color="#4C60E9"/>
<stop offset="1" stop-color="#7485FF"/>
</linearGradient>
</defs>
</svg>
