<svg width="186" height="186" viewBox="0 0 186 186" fill="none" xmlns="http://www.w3.org/2000/svg">
<g clip-path="url(#clip0_3536_7021)">
<path d="M120.594 149.84C120.586 149.421 120.619 149.483 120.492 149.483C120.519 149.604 120.553 149.723 120.594 149.84Z" fill="#FE6B21"/>
<path d="M109.208 133.45C109.269 133.498 109.314 133.563 109.339 133.636C109.364 133.71 109.368 133.789 109.349 133.864C109.091 134.87 108.824 136.442 109.899 137.081C110.839 137.643 112.588 137.034 113.416 136.264C113.473 136.213 113.544 136.179 113.619 136.169C114.124 134.546 114.938 133.036 116.016 131.722C116.034 131.012 116.109 130.429 116.109 130.429C115.417 130.741 114.655 130.866 113.899 130.793C112.084 130.335 110.826 127.814 112.104 125.089C112.41 124.29 112.876 123.562 113.473 122.948C114.07 122.335 114.785 121.85 115.576 121.523C115.915 121.411 116.275 121.373 116.63 121.412C116.986 121.451 117.328 121.567 117.635 121.752C119.352 122.8 118.303 125.662 118.303 125.662C119.304 125.115 119.868 125.028 120.13 125.209L120.021 119.357C119.974 119.324 119.936 119.28 119.909 119.229C119.883 119.177 119.868 119.121 119.868 119.063C119.37 106.226 119.525 105.92 118.805 104.732C118.474 104.193 118.02 103.739 117.481 103.408C116.942 103.077 116.332 102.878 115.701 102.827C115.589 102.852 97.9325 106.251 95.1149 107.623L94.1303 108.174C92.6394 109.106 91.4196 110.413 90.5935 111.965C89.7674 113.517 89.364 115.259 89.4238 117.016V167.556C100.277 166.088 110.842 162.965 120.749 158.295L120.622 151.5C120.142 150.921 119.819 150.228 119.686 149.488L113.423 149.525C113.04 149.525 113.005 149.029 113.029 149.13C112.848 147.493 112.696 145.852 112.641 144.206C107.87 145.646 101.013 140.372 103.062 133.384C103.22 132.849 103.628 131.61 104.133 131.354C104.655 131.081 105.091 131.462 109.208 133.45Z" fill="white"/>
<path d="M118.68 127.759C120.116 131.598 119.498 130.89 120.242 131.144L120.153 126.408C120.048 126.743 119.857 127.044 119.598 127.282C119.339 127.519 119.022 127.683 118.68 127.759Z" fill="#FE6B21"/>
<path d="M120.132 125.209C119.865 125.029 119.301 125.115 118.305 125.662C120.036 120.942 114.814 119.31 112.106 125.09C110.83 127.814 112.084 130.335 113.901 130.794C114.657 130.867 115.419 130.741 116.111 130.429C116.111 130.429 116.036 131.013 116.018 131.723C115.998 132.487 116.018 134.117 116.779 134.245C117.923 134.436 120.116 133.291 120.116 132.432C119.77 130.839 119.292 129.277 118.686 127.763C119.884 127.639 120.72 125.606 120.132 125.209Z" fill="#FE6B21"/>
<path d="M91.5776 5.80163C90.1343 4.86721 88.4419 4.39164 86.7232 4.43748C85.0044 4.48331 83.3398 5.04841 81.9483 6.05842C69.9216 14.8047 61.219 30.0429 56.1328 44.2579C59.9786 45.5998 83.2414 52.7657 118.176 43.6236C112.902 29.0228 104.719 13.8039 91.5776 5.80163Z" fill="#4355E6"/>
<path d="M46.6494 115.026C46.4636 124.311 46.0901 149.143 50.4201 157.37C55.0617 166.19 75.7291 171.001 88.6379 168.129V122.61C85.2448 122.951 64.1053 124.598 46.6494 115.026Z" fill="#FE6B21"/>
<path d="M96.7131 55.0118C96.7417 55.064 96.7588 55.1217 96.7633 55.181C96.7679 55.2403 96.7597 55.3 96.7393 55.3559C96.7189 55.4118 96.6868 55.4627 96.6452 55.5053C96.6036 55.5478 96.5534 55.5809 96.4979 55.6025C83.716 60.3811 83.9982 79.321 96.775 83.7962C96.84 83.8172 96.898 83.8555 96.9429 83.907C96.9878 83.9585 97.0178 84.0212 97.0298 84.0885C106.504 87.2096 116.147 79.8255 116.147 69.4948C116.147 58.9977 106.223 51.6247 96.7131 55.0118ZM108.502 59.7518C108.383 59.9791 108.195 60.1629 107.966 60.2772C107.736 60.3914 107.476 60.4302 107.223 60.388C106.97 60.3458 106.737 60.2249 106.557 60.0423C106.376 59.8598 106.258 59.625 106.22 59.3714C106.181 59.1179 106.223 58.8585 106.34 58.6303C106.457 58.4021 106.643 58.2167 106.872 58.1005C107.101 57.9844 107.36 57.9435 107.614 57.9835C107.867 58.0236 108.101 58.1427 108.283 58.3237C108.496 58.4879 108.638 58.7279 108.679 58.9939C108.72 59.2598 108.656 59.5312 108.502 59.7518ZM111.361 78.1619C110.873 78.7942 110.244 77.693 110.393 77.5052C113.283 73.7578 113.699 66.0357 110.104 61.1353C109.799 60.7242 110.907 60.1101 111.205 60.5161C114.775 65.3851 115.188 73.1864 111.361 78.1619Z" fill="#FEB186"/>
<path d="M185.545 124.291C183.384 122.536 180.626 121.689 177.852 121.928C176.75 119.239 174.947 116.896 172.631 115.142C170.314 113.388 167.569 112.288 164.682 111.958C164.392 110.038 163.563 108.24 162.291 106.773C161.019 105.307 159.357 104.231 157.497 103.672C157.745 88.8705 137.562 84.6014 131.588 97.8522C131.385 98.312 132.061 98.7139 132.27 98.2511C138.073 85.3728 157.239 90.0225 156.707 103.964C156.707 104.05 156.736 104.133 156.788 104.202C156.84 104.271 156.913 104.32 156.996 104.344C158.81 104.84 160.437 105.86 161.674 107.277C162.91 108.695 163.701 110.445 163.947 112.31C163.951 112.413 163.994 112.511 164.067 112.585C164.141 112.658 164.239 112.701 164.342 112.705C167.178 112.984 169.881 114.041 172.153 115.759C174.425 117.478 176.179 119.791 177.22 122.443C177.244 122.525 177.294 122.598 177.363 122.65C177.432 122.702 177.515 122.731 177.601 122.733C188.01 121.59 192.741 134.928 184.396 140.657C182.38 142.033 179.93 142.626 177.508 142.322C177 142.26 177.01 143.05 177.508 143.111C188.113 144.401 193.718 130.946 185.545 124.291Z" fill="#29175F"/>
<path d="M168.799 145.129C169.498 144.036 169.875 142.769 169.887 141.472C169.898 140.175 169.544 138.901 168.864 137.797C168.184 136.692 167.207 135.802 166.044 135.228C164.88 134.654 163.579 134.42 162.289 134.552C163.998 125.716 156.612 120.859 151.464 123.51C151.012 123.743 151.412 124.424 151.863 124.192C156.562 121.77 163.391 126.557 161.418 134.894C161.403 134.961 161.405 135.031 161.424 135.097C161.443 135.163 161.478 135.223 161.527 135.271C161.575 135.32 161.635 135.355 161.701 135.374C161.767 135.393 161.836 135.396 161.903 135.381C163.147 135.168 164.427 135.344 165.567 135.883C166.708 136.423 167.655 137.3 168.281 138.396C168.906 139.493 169.179 140.755 169.062 142.011C168.946 143.268 168.446 144.458 167.63 145.421C167.389 145.701 167.612 146.208 168.014 146.081C168.811 145.821 169.666 145.798 170.476 146.015C171.286 146.232 172.016 146.679 172.578 147.302C173.139 147.925 173.507 148.697 173.639 149.525C173.77 150.353 173.658 151.202 173.317 151.968C173.114 152.427 173.79 152.83 173.998 152.368C174.386 151.545 174.547 150.634 174.465 149.729C174.382 148.824 174.059 147.957 173.529 147.218C172.998 146.48 172.28 145.897 171.449 145.529C170.617 145.162 169.702 145.023 168.799 145.129Z" fill="#29175F"/>
<path d="M163.464 137.959C163.359 137.959 163.259 138 163.185 138.074C163.111 138.148 163.069 138.249 163.069 138.353C163.069 138.458 163.111 138.559 163.185 138.633C163.259 138.707 163.359 138.748 163.464 138.748C165.088 138.618 165.566 140.451 165.768 142.056C165.773 142.158 165.817 142.253 165.891 142.323C165.964 142.393 166.062 142.432 166.163 142.432C166.265 142.432 166.362 142.393 166.436 142.323C166.51 142.253 166.553 142.158 166.559 142.056C166.515 141.049 166.231 140.068 165.731 139.193C165.493 138.808 165.158 138.492 164.761 138.276C164.363 138.059 163.916 137.95 163.464 137.959ZM185.121 133.835C185.523 132.276 185.317 130.622 184.546 129.209C183.774 127.795 182.495 126.728 180.966 126.222C180.867 126.199 180.763 126.216 180.675 126.268C180.587 126.32 180.523 126.404 180.496 126.502C180.469 126.601 180.48 126.706 180.529 126.795C180.577 126.885 180.658 126.953 180.755 126.984C182.084 127.43 183.195 128.363 183.863 129.595C184.532 130.827 184.709 132.266 184.36 133.624C184.332 133.724 184.345 133.832 184.396 133.924C184.448 134.015 184.534 134.082 184.635 134.11C184.736 134.138 184.844 134.124 184.935 134.073C185.026 134.021 185.093 133.936 185.121 133.835ZM145.137 94.5146C144.629 94.5389 144.629 95.3266 145.137 95.3043C146.379 95.2757 147.588 95.7084 148.529 96.5188C149.471 97.3291 150.079 98.4597 150.236 99.6921C150.282 100.194 151.072 100.2 151.025 99.6921C150.865 98.2505 150.173 96.9206 149.084 95.9628C147.995 95.0051 146.587 94.4886 145.137 94.5146ZM134.259 84.6833C136.22 81.7064 138.958 79.3225 142.176 77.7894C142.635 77.5712 142.235 76.8901 141.778 77.1084C138.44 78.7074 135.602 81.1889 133.572 84.2844C133.294 84.7107 133.981 85.1066 134.259 84.6833ZM140.162 84.4265C141.764 83.0336 143.635 81.9841 145.659 81.3429C146.142 81.1907 145.936 80.4294 145.45 80.5817C143.297 81.2636 141.307 82.3813 139.604 83.8652C139.221 84.2022 139.78 84.7594 140.162 84.4265ZM43.5182 107.171C41.0286 106.417 38.386 106.322 35.8487 106.896C33.3114 107.469 30.9663 108.69 29.0424 110.441C27.1185 112.192 25.6817 114.412 24.8724 116.884C24.0631 119.356 23.909 121.996 24.4251 124.545C22.5815 125.484 21.0247 126.901 19.9185 128.649C2.13568 123.174 -11.1182 144.942 1.57134 158.28C0.583067 160.049 0.0592577 162.039 0.0488362 164.065C0.0488362 164.17 0.0904348 164.271 0.164481 164.345C0.238527 164.419 0.338954 164.46 0.443671 164.46C0.548388 164.46 0.648816 164.419 0.722862 164.345C0.796907 164.271 0.838506 164.17 0.838506 164.065C0.845991 162.079 1.38311 160.13 2.3945 158.42C2.43661 158.344 2.45332 158.257 2.44217 158.171C2.43103 158.085 2.39263 158.005 2.33259 157.942C-10.226 145.167 2.73859 123.87 19.9855 129.488C20.0694 129.511 20.1583 129.505 20.2386 129.472C20.319 129.439 20.3866 129.381 20.4311 129.307C21.5252 127.477 23.1368 126.013 25.0625 125.099C25.1363 125.053 25.1938 124.986 25.2265 124.906C25.2592 124.825 25.2654 124.737 25.2442 124.653C24.7077 122.223 24.8166 119.694 25.5599 117.319C26.3033 114.944 27.6552 112.805 29.4814 111.114C31.3076 109.423 33.5445 108.24 35.9698 107.681C38.395 107.122 40.9243 107.208 43.3061 107.93C43.4045 107.951 43.5074 107.934 43.5936 107.882C43.6798 107.83 43.743 107.747 43.7701 107.65C43.7971 107.553 43.7862 107.45 43.7394 107.36C43.6926 107.271 43.6135 107.203 43.5182 107.171ZM39.643 132.809C31.6163 131.128 26.5414 135.715 26.7657 141.348C25.4046 141.244 24.0379 141.453 22.7699 141.958C21.5019 142.463 20.3661 143.252 19.4494 144.263C18.5326 145.274 17.8592 146.482 17.4805 147.793C17.1018 149.105 17.0278 150.485 17.2643 151.83C17.3475 152.329 18.1087 152.118 18.0255 151.62C17.8213 150.389 17.9014 149.128 18.2599 147.933C18.6184 146.738 19.2456 145.641 20.0936 144.726C20.9416 143.811 21.9877 143.102 23.152 142.653C24.3162 142.205 25.5676 142.029 26.8103 142.139C26.9118 142.127 26.7758 142.466 27.1869 143.698C27.3462 144.179 28.1095 143.972 27.9481 143.488C27.4654 142.047 27.4208 140.495 27.8201 139.029C28.2194 137.562 29.0446 136.247 30.1913 135.25C33.7347 132.19 40.9767 132.963 42.2525 135.338C42.4931 135.786 43.1752 135.388 42.9346 134.94C42.5753 134.366 42.0943 133.877 41.5256 133.509C40.9568 133.14 40.3142 132.901 39.643 132.809Z" fill="#29175F"/>
<path d="M6.38368 135.105C5.02012 135.714 3.8722 136.72 3.09019 137.993C2.30819 139.265 1.92852 140.744 2.00091 142.235C2.03339 142.743 2.82204 142.743 2.79058 142.235C2.72057 140.882 3.06527 139.539 3.77861 138.387C4.49194 137.235 5.53994 136.328 6.78257 135.787C7.24846 135.589 6.84652 134.908 6.38368 135.105ZM30.5021 129.627C30.6036 130.124 31.3669 129.914 31.2634 129.417C31.1529 128.906 31.1838 128.375 31.3527 127.88C31.5217 127.386 31.8224 126.946 32.2223 126.61C32.6223 126.274 33.1064 126.053 33.6226 125.971C34.1388 125.889 34.6675 125.95 35.1518 126.146C35.5061 126.278 35.7283 125.842 35.5974 125.567C32.8934 119.8 37.6558 114.613 42.2091 116.042C42.6943 116.195 42.9034 115.433 42.4192 115.281C37.6487 113.784 32.254 118.786 34.6037 125.202C34.0154 125.113 33.4142 125.168 32.8524 125.365C32.2906 125.561 31.7854 125.892 31.3808 126.328C30.9763 126.764 30.6847 127.293 30.5315 127.868C30.3784 128.443 30.3683 129.047 30.5021 129.627ZM28.3199 99.2844C32.2344 98.3532 36.3199 98.417 40.2035 99.4701C40.3035 99.495 40.4093 99.4798 40.4983 99.4278C40.5872 99.3758 40.6523 99.291 40.6796 99.1916C40.7069 99.0922 40.6943 98.9861 40.6444 98.8959C40.5945 98.8057 40.5113 98.7386 40.4126 98.7089C36.3915 97.6207 32.1619 97.5569 28.1097 98.5231C27.6154 98.6409 27.8256 99.4021 28.3199 99.2844ZM23.9513 105.236C26.5342 103.763 29.4811 103.05 32.4519 103.179C32.9594 103.201 32.9594 102.412 32.4519 102.389C29.3408 102.26 26.2563 103.01 23.5524 104.554C23.462 104.607 23.3962 104.694 23.3697 104.795C23.3431 104.897 23.3579 105.004 23.4108 105.095C23.4637 105.185 23.5504 105.251 23.6517 105.277C23.7531 105.304 23.8608 105.289 23.9513 105.236ZM67.5811 169.399C61.6454 166.624 54.8773 170.22 53.7395 175.622C50.6042 174.499 46.5665 176.559 45.4256 181.89C45.3242 182.385 46.0803 182.601 46.1869 182.1C47.2405 177.18 50.8112 175.348 53.6106 176.406C53.4363 177.652 53.7319 178.919 54.4399 179.959C54.7352 180.365 55.4204 179.973 55.1219 179.561C51.8222 175.014 59.3027 166.387 67.1832 170.076C67.641 170.294 68.0419 169.614 67.5811 169.399ZM74.678 170.513C73.8287 170.3 72.9314 170.391 72.1429 170.772C71.3544 171.153 70.7247 171.799 70.364 172.597C70.0032 173.395 69.9342 174.294 70.1692 175.138C70.4041 175.981 70.9279 176.715 71.6492 177.212C72.0653 177.505 72.4612 176.822 72.0471 176.53C71.486 176.133 71.0814 175.552 70.9036 174.888C70.7258 174.225 70.7859 173.519 71.0734 172.895C71.361 172.271 71.858 171.767 72.4781 171.471C73.0983 171.175 73.8026 171.105 74.4689 171.273C74.9622 171.395 75.1723 170.634 74.678 170.513Z" fill="#29175F"/>
<path d="M59.7961 172.029C59.1248 172.49 58.5652 173.095 58.1585 173.8C57.7517 174.505 57.508 175.292 57.4453 176.104C57.4453 176.209 57.4869 176.309 57.561 176.383C57.635 176.457 57.7354 176.499 57.8401 176.499C57.9449 176.499 58.0453 176.457 58.1193 176.383C58.1934 176.309 58.235 176.209 58.235 176.104C58.2918 175.429 58.4969 174.775 58.8355 174.188C59.1741 173.602 59.6379 173.097 60.1939 172.71C60.2822 172.655 60.3461 172.569 60.3725 172.468C60.399 172.368 60.3859 172.261 60.336 172.17C60.2827 172.08 60.1961 172.015 60.095 171.988C59.9939 171.962 59.8865 171.977 59.7961 172.029Z" fill="#29175F"/>
<path d="M58.5906 144.733L40.7712 145.157L45.0576 147.135C45.7346 147.202 43.664 147.279 63.2078 146.166L58.5906 144.733ZM39.2964 145.344C38.5859 147.348 30.474 170.434 30.4375 170.535L36.2717 174.91C36.7254 173.578 34.8253 179.537 44.7795 147.88C44.7145 147.855 45.3022 148.115 39.2964 145.344Z" fill="#4355E6"/>
<path d="M148.446 103.058C147.179 102.278 147.485 102.486 130.041 101.84C128.861 71.5117 118.251 19.6858 91.3253 4.7338C89.8669 3.93757 88.2192 3.55328 86.559 3.62212C84.8988 3.69096 83.2886 4.21034 81.9011 5.12458C80.0242 6.43391 78.2604 7.89827 76.6281 9.50227C60.2125 24.9952 51.9636 49.2882 48.5786 71.6964C45.8696 89.6314 45.2017 125.613 46.2918 140.74C46.3283 141.247 47.118 141.247 47.0815 140.74C46.036 126.437 46.8277 96.1011 47.9767 83.3222C50.4604 55.6797 59.8837 22.1035 81.9447 6.05838C83.3363 5.04793 85.0014 4.48257 86.7206 4.43673C88.4397 4.3909 90.1325 4.86672 91.576 5.80158C118.226 22.0294 127.531 70.7707 129.255 101.813L124.927 101.653C124.419 101.635 124.419 102.424 124.927 102.443C147.55 103.272 147.013 103.119 148.013 103.718C148.521 104.026 148.94 104.461 149.228 104.98C149.516 105.5 149.664 106.085 149.657 106.679C149.657 106.925 149.058 154.53 149.056 154.587C149.051 155.076 148.94 155.559 148.731 156.001C148.522 156.443 148.22 156.835 147.845 157.15C147.471 157.464 147.033 157.695 146.562 157.825C146.09 157.955 145.596 157.982 145.113 157.903L128.655 156.425C128.147 156.379 128.147 157.17 128.655 157.214L145.199 158.701C145.78 158.767 146.368 158.71 146.926 158.535C147.484 158.359 147.998 158.069 148.437 157.682C148.875 157.296 149.227 156.821 149.471 156.29C149.715 155.759 149.844 155.182 149.851 154.598C149.851 154.496 150.452 106.769 150.453 106.666C150.455 105.943 150.272 105.232 149.92 104.6C149.569 103.969 149.062 103.438 148.446 103.058Z" fill="#29175F"/>
<path d="M119.442 104.26C119.035 103.619 118.483 103.083 117.83 102.695C117.178 102.308 116.444 102.078 115.687 102.027C115.083 102.009 114.479 102.08 113.896 102.238C96.5711 106.208 95.5084 106.1 93.0338 107.951C91.7755 108.891 90.7337 110.09 89.9787 111.467C89.2236 112.845 88.7729 114.368 88.6571 115.934C88.6053 116.677 88.6317 168.707 88.6317 168.707C88.6317 168.812 88.6733 168.912 88.7474 168.986C88.8214 169.06 88.9218 169.102 89.0266 169.102C89.1313 169.102 89.2317 169.06 89.3058 168.986C89.3798 168.912 89.4214 168.812 89.4214 168.707V117.013C89.3641 115.256 89.7686 113.515 90.5945 111.964C91.4204 110.413 92.6387 109.105 94.128 108.171C96.1397 106.898 95.8535 107.187 113.932 103.04C114.315 102.935 114.707 102.861 115.102 102.817C115.834 102.769 116.566 102.922 117.218 103.259C117.87 103.596 118.418 104.104 118.803 104.73C119.926 106.586 119.498 118.973 120.021 119.355C120.077 119.403 120.145 119.434 120.219 119.444C120.292 119.454 120.366 119.443 120.433 119.412C120.5 119.381 120.557 119.331 120.597 119.269C120.636 119.207 120.657 119.134 120.657 119.06C120.135 105.874 120.326 105.656 119.442 104.26ZM122.755 103.447C122.724 102.939 121.935 102.939 121.966 103.447L122.898 118.596C122.929 119.104 123.719 119.104 123.688 118.596C123.627 117.612 122.838 104.774 122.755 103.447Z" fill="#29175F"/>
<path d="M154.178 152.606L149.291 146.263C149.088 146.052 148.814 145.924 148.522 145.902C148.23 145.881 147.941 145.968 147.709 146.146L145.299 148.005C143.99 146.57 142.334 145.496 140.489 144.887C140.956 145.199 141.452 145.634 141.463 146.074C142.651 146.708 143.733 147.523 144.669 148.491L139.938 152.139C139.156 151.03 137.375 148.407 137.366 147.05C137.082 146.884 136.89 146.76 136.89 146.76C136.89 146.76 137.462 148.181 136.904 148.486C137.538 149.956 138.344 151.345 139.306 152.625L137.33 154.148C137.101 154.324 136.944 154.579 136.889 154.863C136.834 155.147 136.885 155.442 137.032 155.691L141.779 161.691C141.859 161.827 141.966 161.946 142.093 162.04C142.22 162.134 142.364 162.202 142.517 162.24C142.67 162.278 142.83 162.284 142.986 162.26C143.142 162.235 143.291 162.18 143.425 162.097L153.946 154.437C154.096 154.344 154.224 154.218 154.319 154.069C154.415 153.92 154.476 153.752 154.498 153.577C154.521 153.401 154.503 153.223 154.448 153.055C154.393 152.887 154.301 152.734 154.178 152.606Z" fill="#FEB186"/>
<path d="M141.629 144.741C141.893 144.25 141.195 142.921 137.163 142.812C136.813 144.377 135.888 145.753 134.573 146.669C136.469 149.588 137.691 148.765 136.885 146.771C139.165 148.243 139.792 147.928 139.915 147.742C140.382 147.043 139.449 145.993 139.449 145.993C139.449 145.993 140.807 146.963 141.197 146.615C142.026 145.876 140.706 144.937 139.711 144.453C139.93 144.546 141.377 145.207 141.629 144.741ZM109.374 130.239C110.179 130.826 109.577 132.287 108.959 133.12C108.824 133.305 108.678 133.187 109.171 133.418C109.186 133.427 109.199 133.438 109.211 133.45C109.634 132.86 111.585 130.077 110.914 129.707C110.408 129.427 109.747 129.901 109.374 130.239ZM108.769 130.869C108.303 131.044 107.875 131.307 107.508 131.644C107.102 131.969 106.612 131.396 106.973 131.071C107.519 130.573 108.505 129.864 109.191 130.134C109.936 127.292 108.44 127.432 107.03 129.728C107.442 127.698 106.319 126.296 104.391 131.23L104.481 131.274C105.041 131.401 105.573 131.626 106.055 131.938L108.236 132.97C108.226 132.927 108.225 132.882 108.233 132.839C108.24 132.795 108.256 132.754 108.28 132.717C108.759 132.059 109.291 130.787 108.769 130.869Z" fill="#FE6B21"/>
<path d="M125.751 149.13H125.539C124.836 149.568 124.307 149.464 120.49 149.482C120.637 150.207 121.013 150.865 121.564 151.359C122.115 151.853 122.811 152.156 123.548 152.222C123.649 152.25 123.735 152.317 123.786 152.408C123.838 152.499 123.851 152.607 123.823 152.708C123.796 152.809 123.729 152.895 123.638 152.947C123.547 152.998 123.439 153.012 123.338 152.984C122.434 152.87 121.59 152.469 120.932 151.839C120.274 151.209 119.836 150.383 119.684 149.485L113.421 149.523C113.32 149.519 113.223 149.478 113.151 149.407C113.078 149.336 113.035 149.24 113.029 149.139C111.534 149.218 106.127 149.849 103.996 154.823C101.509 160.625 110.936 168.393 110.936 168.393C110.936 168.393 115.597 168.292 116.944 167.357C116.944 167.357 110.625 159.174 112.489 156.066C113.968 153.603 115.934 153.196 118.078 154.265C117.292 153.409 116.491 152.564 115.63 151.787C115.251 151.446 115.812 150.89 116.187 151.229C122.881 157.266 131.586 170.92 131.525 171.433C132.608 171.519 135.669 171.63 136.938 170.362L125.751 149.13Z" fill="#4355E6"/>
<path d="M112.642 144.206C112.729 146.822 113.057 149.244 113.033 149.142C113.038 149.243 113.081 149.339 113.154 149.41C113.226 149.481 113.323 149.522 113.424 149.525L119.687 149.488C119.837 150.387 120.274 151.214 120.933 151.844C121.591 152.475 122.436 152.875 123.341 152.986C123.442 153.014 123.55 153.001 123.641 152.949C123.732 152.898 123.799 152.812 123.827 152.711C123.855 152.61 123.841 152.502 123.789 152.411C123.738 152.32 123.652 152.253 123.551 152.225C122.814 152.158 122.119 151.855 121.568 151.361C121.017 150.868 120.64 150.21 120.493 149.485L124.272 149.461C124.666 149.492 125.06 149.405 125.405 149.211C125.75 149.017 126.029 148.725 126.207 148.372C126.564 147.579 126.429 147.55 124.523 140.584C127.544 142.77 130.673 144.802 133.897 146.674C133.998 146.742 134.118 146.777 134.24 146.775C134.362 146.773 134.48 146.733 134.579 146.662C135.922 145.725 136.857 144.312 137.194 142.71C137.212 142.642 137.213 142.571 137.195 142.504C137.177 142.436 137.142 142.374 137.092 142.325C133.761 139.565 123.972 132.034 119.795 131.012C119.974 131.615 120.06 132.027 120.038 131.925C120.172 131.994 125.37 133.714 136.366 142.747C136.053 144.034 135.294 145.169 134.224 145.95C130.958 144.271 122.45 138.19 119.532 136.046C119.121 135.742 118.727 136.431 119.133 136.728C119.234 136.802 122.571 139.203 123.508 139.866C123.6 140.197 125.478 147.004 125.554 147.338C125.617 147.599 125.581 147.874 125.453 148.109C125.325 148.345 125.114 148.524 124.86 148.613C124.615 148.697 125.102 148.659 113.78 148.733C113.204 143.403 112.932 138.004 115.745 133.433C116.263 132.595 115.967 133.444 116.015 131.721C115.94 131.781 115.872 131.849 115.812 131.924C114.849 133.206 114.106 134.639 113.613 136.164C113.046 136.597 112.41 136.932 111.731 137.154C109.867 137.662 108.592 136.809 109.348 133.859C109.368 133.775 109.362 133.687 109.329 133.607C109.297 133.527 109.24 133.459 109.167 133.413C108.672 133.181 108.815 133.312 108.955 133.115C110.642 130.834 109.473 128.79 106.969 131.065C106.9 131.138 106.861 131.234 106.861 131.334C106.86 131.434 106.898 131.531 106.966 131.604C107.035 131.677 107.128 131.722 107.228 131.728C107.328 131.735 107.427 131.703 107.504 131.639C107.831 131.359 108.189 131.118 108.572 130.92C108.845 130.827 109.073 130.736 108.907 131.497C108.783 131.895 108.594 132.271 108.347 132.607C108.246 132.745 108.202 132.81 108.23 132.97C104.975 131.431 104.631 131.085 104.132 131.346C103.633 131.606 103.219 132.854 103.061 133.376C101.009 140.385 107.91 145.633 112.642 144.206ZM104.897 140.333C104.064 139.128 103.584 137.713 103.512 136.249C103.44 134.785 103.779 133.33 104.491 132.049C104.452 132.072 104.522 132.066 104.593 132.094C104.917 132.222 105.223 132.422 105.539 132.571L108.515 133.978C108.224 135.315 108.186 136.985 109.502 137.763C110.111 138.03 110.779 138.132 111.44 138.061C112.1 137.99 112.731 137.747 113.269 137.357C112.794 139.332 112.576 141.359 112.623 143.39C109.94 144.301 106.528 142.633 104.897 140.333ZM96.7733 83.7959C83.9529 79.3066 83.7468 60.3697 96.4962 55.6023C96.9662 55.4277 96.752 54.6674 96.2871 54.841C82.6861 59.9231 83.0658 79.8293 96.5642 84.5572C97.0494 84.7267 97.2331 83.9563 96.7733 83.7959ZM65.5032 146.054C59.2193 144.103 58.8133 143.971 58.6844 143.95C58.5555 143.929 49.1719 144.169 39.0594 144.408C38.9756 144.417 38.8958 144.449 38.8288 144.5C38.7617 144.551 38.7098 144.62 38.6788 144.698C38.6433 144.799 29.7163 170.201 29.5895 170.57C29.4626 170.94 29.4057 170.746 36.2966 175.911C36.4468 176.023 35.7292 176.096 44.5252 174.552C44.5913 174.534 44.6515 174.499 44.7 174.451C44.7484 174.402 44.7833 174.342 44.8013 174.276C45.0043 173.641 51.4252 153.097 51.485 152.899L65.6311 153.356C65.7355 153.355 65.8353 153.313 65.9091 153.239C65.9829 153.165 66.0249 153.065 66.0259 152.961C65.7773 146.043 65.9031 146.178 65.5032 146.054ZM58.584 144.734L63.2012 146.168C41.6517 147.397 46.7582 147.137 45.051 147.137L40.7646 145.159L58.584 144.734ZM36.2702 174.91L30.436 170.536C30.4735 170.429 38.5854 147.333 39.2949 145.344C47.0627 148.929 44.0755 147.601 44.7759 147.882C36.2265 175.074 36.801 173.354 36.2702 174.91ZM44.0958 173.83L37.071 175.07C46.409 145.33 45.2925 148.872 45.5666 148.077L50.7309 152.621C43.5214 175.788 44.4003 172.811 44.0958 173.829V173.83ZM51.3338 152.109L46.5684 147.911C46.6699 147.905 64.6547 146.879 65.018 146.853C65.081 148.616 65.221 152.416 65.221 152.553L51.3338 152.109ZM131.527 171.438C131.59 170.908 122.899 157.292 116.189 151.234C115.814 150.895 115.252 151.451 115.632 151.792C118.839 154.685 125.122 162.053 130.798 171.602C130.842 171.67 130.906 171.723 130.982 171.754C131.057 171.785 131.14 171.792 131.22 171.774C131.299 171.756 131.371 171.714 131.426 171.654C131.481 171.594 131.516 171.519 131.527 171.438ZM136.177 171.937C134.529 172.349 132.837 172.553 131.139 172.547C131.139 172.547 127.202 172.132 126.788 172.648C126.374 173.164 127.202 175.651 136.422 174.616C139.12 174.311 138.008 171.466 136.177 171.937ZM115.976 168.516C114.329 168.928 112.637 169.132 110.939 169.125C110.939 169.125 107.001 168.712 106.587 169.226C106.173 169.741 107.001 172.231 116.222 171.193C118.92 170.891 117.805 168.047 115.976 168.516ZM117.631 121.752C119.348 122.8 118.298 125.662 118.298 125.662C120.396 124.518 120.587 125.375 120.11 126.519C120.001 126.833 119.812 127.113 119.561 127.33C119.31 127.548 119.006 127.696 118.68 127.759C118.68 127.759 118.771 128.002 118.907 128.379C124.147 128.869 124.623 126.052 124.715 125.304C124.817 124.475 122.437 124.423 122.437 124.423C125.685 122.659 125.167 120.63 122.335 121.575C122.335 121.575 124.822 120.332 124.149 119.451C123.476 118.57 119.642 118.83 117.621 119.552C117.152 119.702 116.724 119.958 116.369 120.299C116.014 120.64 115.742 121.059 115.574 121.521C115.913 121.409 116.273 121.372 116.628 121.412C116.982 121.452 117.325 121.568 117.631 121.752ZM115.301 123.678C115.758 123.907 115.517 124.21 115.83 124.389C115.92 124.441 116.028 124.456 116.129 124.429C116.23 124.403 116.317 124.338 116.37 124.248C116.568 123.869 116.09 123.022 115.51 122.914C115.409 122.886 115.301 122.9 115.209 122.952C115.118 123.004 115.051 123.09 115.024 123.192C114.996 123.293 115.009 123.401 115.062 123.492C115.114 123.584 115.2 123.651 115.301 123.678ZM114.182 125.865C114.773 125.865 114.773 124.773 114.182 124.773C113.59 124.773 113.591 125.865 114.182 125.865ZM111.921 128.417C113.315 128.915 115.72 127.674 115.068 127.02C114.621 126.571 113.867 127.992 112.429 127.73C112.166 127.681 111.765 127.516 111.649 127.933C111.625 128.033 111.639 128.139 111.689 128.229C111.74 128.319 111.823 128.386 111.921 128.417ZM148.047 147.498L147.623 154.981L138.407 154.809C138.305 154.814 138.21 154.858 138.14 154.932C138.071 155.005 138.032 155.102 138.032 155.204C138.032 155.305 138.071 155.402 138.14 155.476C138.21 155.549 138.305 155.593 138.407 155.598L147.994 155.778C148.098 155.775 148.197 155.732 148.27 155.659C148.344 155.585 148.386 155.487 148.389 155.383L148.837 147.498C148.865 146.997 148.077 146.992 148.047 147.498Z" fill="#29175F"/>
</g>
<defs>
<clipPath id="clip0_3536_7021">
<rect width="186" height="186" fill="white"/>
</clipPath>
</defs>
</svg>
