<svg width="667" height="1729" viewBox="0 0 667 1729" fill="none" xmlns="http://www.w3.org/2000/svg">
<g clip-path="url(#clip0_3536_6701)">
<path d="M648.521 858.324C646.841 854.163 646.404 849.61 647.265 845.239C648.126 840.868 650.246 836.875 653.358 833.767C656.469 830.659 660.433 828.574 664.746 827.777C669.06 826.979 673.53 827.504 677.591 829.286C681.653 831.067 685.123 834.025 687.564 837.786C690.004 841.547 691.305 845.941 691.302 850.412C691.299 854.884 689.992 859.233 687.547 862.909C685.101 866.585 681.627 869.423 677.563 871.064C671.679 873.447 665.082 873.415 659.144 870.973" stroke="url(#paint0_linear_3536_6701)" stroke-width="1.71429" stroke-linecap="round" stroke-linejoin="round"/>
<path d="M663.338 876.808L659.144 870.973L664.813 866.802" stroke="url(#paint1_linear_3536_6701)" stroke-width="1.71429" stroke-linecap="round" stroke-linejoin="round"/>
<path d="M658.008 854.495L670.652 849.389L671.364 839.315" stroke="url(#paint2_linear_3536_6701)" stroke-width="1.71429" stroke-linecap="round" stroke-linejoin="round"/>
</g>
<g clip-path="url(#clip1_3536_6701)">
<path d="M543.852 836.251L528.261 797.641" stroke="url(#paint3_linear_3536_6701)" stroke-width="1.71429" stroke-linecap="round" stroke-linejoin="round"/>
<path d="M527.625 820.35L536.055 816.946" stroke="url(#paint4_linear_3536_6701)" stroke-width="1.71429" stroke-linecap="round" stroke-linejoin="round"/>
<path d="M530.86 804.076L570.757 817.903" stroke="url(#paint5_linear_3536_6701)" stroke-width="1.71429" stroke-linecap="round" stroke-linejoin="round"/>
<path d="M541.254 829.816L556.782 799.221" stroke="url(#paint6_linear_3536_6701)" stroke-width="1.71429" stroke-linecap="round" stroke-linejoin="round"/>
<path d="M578.62 788.823L545.212 790.718C543.499 790.815 541.904 789.79 541.251 788.174C540.598 786.558 541.035 784.713 542.335 783.594L567.692 761.76M566.528 789.508L558.515 769.662" stroke="url(#paint7_linear_3536_6701)" stroke-width="1.71429" stroke-linecap="round" stroke-linejoin="round"/>
</g>
<g clip-path="url(#clip2_3536_6701)">
<path d="M456.032 782.403L432.922 806.123C431.39 807.696 429.296 808.596 427.1 808.624C424.904 808.653 422.787 807.808 421.215 806.276L402.683 788.221" stroke="url(#paint8_linear_3536_6701)" stroke-width="1.71429" stroke-linecap="round" stroke-linejoin="round"/>
<path d="M416.539 784.381L439.649 760.661C441.181 759.089 443.276 758.189 445.471 758.16C447.667 758.132 449.784 758.977 451.357 760.509" stroke="url(#paint9_linear_3536_6701)" stroke-width="1.71429" stroke-linecap="round" stroke-linejoin="round"/>
<path d="M451.511 772.217L450.067 773.699C449.684 774.092 449.472 774.621 449.479 775.17C449.487 775.719 449.712 776.243 450.105 776.626L463.447 789.625C463.84 790.009 464.37 790.22 464.918 790.213C465.467 790.205 465.991 789.98 466.374 789.587L467.818 788.105C469.351 786.532 470.195 784.415 470.167 782.22C470.138 780.024 469.239 777.93 467.666 776.397L451.359 760.509C452.931 762.041 453.831 764.136 453.86 766.331C453.888 768.527 453.043 770.644 451.511 772.217Z" stroke="url(#paint10_linear_3536_6701)" stroke-width="1.71429" stroke-linecap="round" stroke-linejoin="round"/>
<path d="M402.682 788.221C401.306 786.88 400.519 785.048 400.494 783.127C400.469 781.206 401.208 779.353 402.549 777.977L404.716 775.753C405.099 775.36 405.622 775.135 406.171 775.128C406.72 775.121 407.249 775.332 407.643 775.715L416.537 784.381L412.926 788.088C411.586 789.464 409.753 790.251 407.832 790.276C405.911 790.301 404.058 789.562 402.682 788.221Z" stroke="url(#paint11_linear_3536_6701)" stroke-width="1.71429" stroke-linecap="round" stroke-linejoin="round"/>
<path d="M429.844 794.454L425.396 790.12" stroke="url(#paint12_linear_3536_6701)" stroke-width="1.71429" stroke-linecap="round" stroke-linejoin="round"/>
<path d="M438.512 785.559L434.064 781.226" stroke="url(#paint13_linear_3536_6701)" stroke-width="1.71429" stroke-linecap="round" stroke-linejoin="round"/>
</g>
<g clip-path="url(#clip3_3536_6701)">
<path d="M328.959 832.125L330.491 835.918C330.761 836.589 331.295 837.121 331.974 837.399C332.653 837.676 333.422 837.676 334.111 837.397L339.309 835.298C339.998 835.02 340.552 834.487 340.848 833.815C341.144 833.144 341.158 832.391 340.887 831.72L339.355 827.927L328.959 832.125Z" stroke="url(#paint14_linear_3536_6701)" stroke-width="1.6" stroke-linecap="round" stroke-linejoin="round"/>
<path d="M339.353 827.927L342.664 815.09C342.777 814.618 342.761 814.128 342.618 813.669C342.475 813.211 342.21 812.799 341.851 812.477C341.474 812.122 341 811.882 340.483 811.783C339.967 811.684 339.43 811.731 338.935 811.919L318.142 820.315C317.671 820.493 317.255 820.79 316.938 821.177C316.621 821.564 316.414 822.026 316.34 822.513C316.305 822.995 316.4 823.475 316.616 823.904C316.831 824.333 317.16 824.697 317.569 824.958L328.957 832.125" stroke="url(#paint15_linear_3536_6701)" stroke-width="1.6" stroke-linecap="round" stroke-linejoin="round"/>
<path d="M316.66 809.15C318.135 806.509 320.551 804.485 323.436 803.473C326.662 802.214 330.155 801.819 333.554 802.328" stroke="url(#paint16_linear_3536_6701)" stroke-width="1.6" stroke-linecap="round" stroke-linejoin="round"/>
<path d="M322.598 812.633C323.335 811.313 324.543 810.301 325.986 809.795C327.375 809.157 328.948 809.047 330.395 809.485" stroke="url(#paint17_linear_3536_6701)" stroke-width="1.6" stroke-linecap="round" stroke-linejoin="round"/>
</g>
<path fill-rule="evenodd" clip-rule="evenodd" d="M358.255 795.076C358.065 795.289 357.959 795.564 357.955 795.849C357.952 796.135 358.052 796.412 358.237 796.629C358.421 796.847 358.678 796.99 358.961 797.033C359.243 797.076 359.531 797.016 359.772 796.863C366.149 792.832 368.891 790.172 376.686 788.653C378.137 788.37 377.656 785.801 376.192 786.057C370.434 787.132 361.859 790.221 358.255 795.076Z" fill="url(#paint18_linear_3536_6701)"/>
<path fill-rule="evenodd" clip-rule="evenodd" d="M366.166 808.55C369.958 807.818 386.562 799.901 390.255 798.209C391.798 797.505 390.491 795.34 388.993 795.963C385.237 797.532 368.373 804.082 365.276 806.339C365.021 806.481 364.826 806.712 364.728 806.988C364.631 807.263 364.637 807.565 364.746 807.837C364.855 808.108 365.06 808.33 365.321 808.462C365.583 808.593 365.883 808.624 366.166 808.55Z" fill="url(#paint19_linear_3536_6701)"/>
<path fill-rule="evenodd" clip-rule="evenodd" d="M519.827 780.306C520.128 780.31 520.421 780.21 520.657 780.022C520.892 779.835 521.056 779.573 521.121 779.279C521.185 778.985 521.146 778.678 521.01 778.409C520.875 778.141 520.651 777.927 520.376 777.805C512.099 775.554 494.427 773.922 486.23 777.539C484.984 778.088 485.124 780.268 486.571 779.925C487.531 780.426 500.247 775.689 519.827 780.306Z" fill="url(#paint20_linear_3536_6701)"/>
<path fill-rule="evenodd" clip-rule="evenodd" d="M483.745 794.169C488.791 791.678 501.528 793.393 506.549 794.783C508.117 795.219 507.3 797.443 505.825 797.082C494.037 794.133 488.424 796.781 484.253 796.436C483.62 796.752 482.352 794.975 483.745 794.169Z" fill="url(#paint21_linear_3536_6701)"/>
<path fill-rule="evenodd" clip-rule="evenodd" d="M632.67 813.033C633.005 813.138 633.367 813.108 633.68 812.949C633.993 812.791 634.232 812.516 634.346 812.184C634.46 811.852 634.44 811.489 634.29 811.172C634.14 810.854 633.872 810.608 633.543 810.485C627.323 808.367 608.847 803.51 601.924 804.764C600.723 804.972 600.542 807.007 601.782 807.158C602.163 807.884 619.094 808.537 632.67 813.033Z" fill="url(#paint22_linear_3536_6701)"/>
<path fill-rule="evenodd" clip-rule="evenodd" d="M618.006 825.276C627.513 827.53 631.984 826.258 641.021 833.079C641.292 833.242 641.613 833.302 641.924 833.247C642.236 833.192 642.517 833.026 642.715 832.78C642.914 832.533 643.016 832.223 643.003 831.907C642.99 831.591 642.863 831.29 642.646 831.061C637.424 826.78 631.144 823.986 624.468 822.976C614.791 821.54 616.681 824.956 618.006 825.276Z" fill="url(#paint23_linear_3536_6701)"/>
<path fill-rule="evenodd" clip-rule="evenodd" d="M284.959 847.818C284.178 848.723 285.181 850.743 286.177 849.754C293.933 842.738 302.392 836.541 311.42 831.261C312.865 830.41 311.24 828.527 309.758 829.303C300.728 834.405 292.385 840.636 284.928 847.844L284.959 847.818Z" fill="url(#paint24_linear_3536_6701)"/>
<path d="M250.156 1158.52C171.767 981.178 294.247 798.075 488.608 862.9C731.56 943.932 933.97 1167.72 986.035 830.653C1038.1 493.581 1229.13 469.675 1340.65 563.404C1429.88 638.387 1529.55 821.389 1568.24 903.518" stroke="url(#paint25_linear_3536_6701)" stroke-width="2" stroke-dasharray="14 14"/>
<defs>
<linearGradient id="paint0_linear_3536_6701" x1="693.674" y1="851.781" x2="676.902" y2="822.67" gradientUnits="userSpaceOnUse">
<stop stop-color="#4C60E9"/>
<stop offset="1" stop-color="#7485FF"/>
</linearGradient>
<linearGradient id="paint1_linear_3536_6701" x1="667.227" y1="872.78" x2="663.831" y2="867.325" gradientUnits="userSpaceOnUse">
<stop stop-color="#4C60E9"/>
<stop offset="1" stop-color="#7485FF"/>
</linearGradient>
<linearGradient id="paint2_linear_3536_6701" x1="673.874" y1="845.533" x2="670.916" y2="839.444" gradientUnits="userSpaceOnUse">
<stop stop-color="#4C60E9"/>
<stop offset="1" stop-color="#7485FF"/>
</linearGradient>
<linearGradient id="paint3_linear_3536_6701" x1="540.708" y1="825.795" x2="535.434" y2="826.918" gradientUnits="userSpaceOnUse">
<stop stop-color="#4C60E9"/>
<stop offset="1" stop-color="#7485FF"/>
</linearGradient>
<linearGradient id="paint4_linear_3536_6701" x1="535.957" y1="816.704" x2="535.667" y2="816.015" gradientUnits="userSpaceOnUse">
<stop stop-color="#4C60E9"/>
<stop offset="1" stop-color="#7485FF"/>
</linearGradient>
<linearGradient id="paint5_linear_3536_6701" x1="568.044" y1="811.182" x2="558.12" y2="793.119" gradientUnits="userSpaceOnUse">
<stop stop-color="#4C60E9"/>
<stop offset="1" stop-color="#7485FF"/>
</linearGradient>
<linearGradient id="paint6_linear_3536_6701" x1="563.022" y1="814.675" x2="554.959" y2="799.997" gradientUnits="userSpaceOnUse">
<stop stop-color="#4C60E9"/>
<stop offset="1" stop-color="#7485FF"/>
</linearGradient>
<linearGradient id="paint7_linear_3536_6701" x1="575.767" y1="781.756" x2="565.392" y2="762.724" gradientUnits="userSpaceOnUse">
<stop stop-color="#4C60E9"/>
<stop offset="1" stop-color="#7485FF"/>
</linearGradient>
<linearGradient id="paint8_linear_3536_6701" x1="449.645" y1="776.181" x2="429.603" y2="760.62" gradientUnits="userSpaceOnUse">
<stop stop-color="#4C60E9"/>
<stop offset="1" stop-color="#7485FF"/>
</linearGradient>
<linearGradient id="paint9_linear_3536_6701" x1="449.808" y1="759" x2="445.26" y2="754.805" gradientUnits="userSpaceOnUse">
<stop stop-color="#4C60E9"/>
<stop offset="1" stop-color="#7485FF"/>
</linearGradient>
<linearGradient id="paint10_linear_3536_6701" x1="467.79" y1="776.518" x2="447.946" y2="767.094" gradientUnits="userSpaceOnUse">
<stop stop-color="#4C60E9"/>
<stop offset="1" stop-color="#7485FF"/>
</linearGradient>
<linearGradient id="paint11_linear_3536_6701" x1="413.828" y1="781.741" x2="405.086" y2="775.575" gradientUnits="userSpaceOnUse">
<stop stop-color="#4C60E9"/>
<stop offset="1" stop-color="#7485FF"/>
</linearGradient>
<linearGradient id="paint12_linear_3536_6701" x1="429.38" y1="792.606" x2="425.848" y2="792.362" gradientUnits="userSpaceOnUse">
<stop stop-color="#4C60E9"/>
<stop offset="1" stop-color="#7485FF"/>
</linearGradient>
<linearGradient id="paint13_linear_3536_6701" x1="438.048" y1="783.711" x2="434.516" y2="783.467" gradientUnits="userSpaceOnUse">
<stop stop-color="#4C60E9"/>
<stop offset="1" stop-color="#7485FF"/>
</linearGradient>
<linearGradient id="paint14_linear_3536_6701" x1="341.242" y1="832.598" x2="338.956" y2="828.061" gradientUnits="userSpaceOnUse">
<stop stop-color="#4C60E9"/>
<stop offset="1" stop-color="#7485FF"/>
</linearGradient>
<linearGradient id="paint15_linear_3536_6701" x1="345.652" y1="821.159" x2="340.717" y2="811.121" gradientUnits="userSpaceOnUse">
<stop stop-color="#4C60E9"/>
<stop offset="1" stop-color="#7485FF"/>
</linearGradient>
<linearGradient id="paint16_linear_3536_6701" x1="333.287" y1="801.665" x2="332.481" y2="799.781" gradientUnits="userSpaceOnUse">
<stop stop-color="#4C60E9"/>
<stop offset="1" stop-color="#7485FF"/>
</linearGradient>
<linearGradient id="paint17_linear_3536_6701" x1="330.261" y1="809.153" x2="329.856" y2="808.212" gradientUnits="userSpaceOnUse">
<stop stop-color="#4C60E9"/>
<stop offset="1" stop-color="#7485FF"/>
</linearGradient>
<linearGradient id="paint18_linear_3536_6701" x1="376.906" y1="786.082" x2="373.077" y2="781.994" gradientUnits="userSpaceOnUse">
<stop stop-color="#4C60E9"/>
<stop offset="1" stop-color="#7485FF"/>
</linearGradient>
<linearGradient id="paint19_linear_3536_6701" x1="389.707" y1="795.306" x2="384.568" y2="789.838" gradientUnits="userSpaceOnUse">
<stop stop-color="#4C60E9"/>
<stop offset="1" stop-color="#7485FF"/>
</linearGradient>
<linearGradient id="paint20_linear_3536_6701" x1="517.591" y1="774.326" x2="504.409" y2="762.083" gradientUnits="userSpaceOnUse">
<stop stop-color="#4C60E9"/>
<stop offset="1" stop-color="#7485FF"/>
</linearGradient>
<linearGradient id="paint21_linear_3536_6701" x1="505.008" y1="792.615" x2="495.685" y2="784.056" gradientUnits="userSpaceOnUse">
<stop stop-color="#4C60E9"/>
<stop offset="1" stop-color="#7485FF"/>
</linearGradient>
<linearGradient id="paint22_linear_3536_6701" x1="628.305" y1="806.734" x2="607.195" y2="799.006" gradientUnits="userSpaceOnUse">
<stop stop-color="#4C60E9"/>
<stop offset="1" stop-color="#7485FF"/>
</linearGradient>
<linearGradient id="paint23_linear_3536_6701" x1="637.951" y1="827.628" x2="620.137" y2="822.912" gradientUnits="userSpaceOnUse">
<stop stop-color="#4C60E9"/>
<stop offset="1" stop-color="#7485FF"/>
</linearGradient>
<linearGradient id="paint24_linear_3536_6701" x1="311.565" y1="829.529" x2="309.199" y2="826.85" gradientUnits="userSpaceOnUse">
<stop stop-color="#4C60E9"/>
<stop offset="1" stop-color="#7485FF"/>
</linearGradient>
<linearGradient id="paint25_linear_3536_6701" x1="1538.5" y1="781.935" x2="1419.5" y2="445.762" gradientUnits="userSpaceOnUse">
<stop stop-color="#4C60E9"/>
<stop offset="1" stop-color="#7485FF"/>
</linearGradient>
<clipPath id="clip0_3536_6701">
<rect width="48.8634" height="47.727" fill="white" transform="translate(656.09 881.617) rotate(-111.988)"/>
</clipPath>
<clipPath id="clip1_3536_6701">
<rect width="64.7724" height="63.636" fill="white" transform="translate(534.18 842.651) rotate(-111.988)"/>
</clipPath>
<clipPath id="clip2_3536_6701">
<rect width="57.9542" height="57.9542" fill="white" transform="translate(436.078 823.646) rotate(-135.746)"/>
</clipPath>
<clipPath id="clip3_3536_6701">
<rect width="40.9089" height="42.0452" fill="white" transform="translate(317.727 845.483) rotate(-111.988)"/>
</clipPath>
</defs>
</svg>
