<svg width="1133" height="2546" viewBox="0 0 1133 2546" fill="none" xmlns="http://www.w3.org/2000/svg">
<path d="M-664.816 1709.04C-784.377 1556.39 -710.644 1348.81 -506.313 1363.89C-250.899 1382.74 0.295328 1549.94 -32.0593 1210.41C-64.4139 870.874 114.883 800.763 246.021 864.214C350.931 914.975 492.521 1067.87 550.202 1137.98" stroke="url(#paint0_linear_3536_6826)" stroke-width="2" stroke-dasharray="14 14"/>
<g clip-path="url(#clip0_3536_6826)">
<path d="M114.794 893.838L128.075 896.138L124.529 901.529C123.902 902.482 123.687 903.65 123.93 904.776C124.173 905.902 124.856 906.893 125.827 907.532L153.291 925.597C154.262 926.236 155.443 926.47 156.573 926.248C157.703 926.025 158.69 925.365 159.317 924.412L175.866 899.253C176.493 898.3 176.709 897.132 176.465 896.006C176.222 894.881 175.539 893.889 174.568 893.25L147.104 875.185C146.133 874.546 144.952 874.312 143.822 874.534C142.692 874.757 141.705 875.417 141.078 876.37L137.532 881.761L130.16 870.476C129.951 870.188 129.675 869.953 129.356 869.793C129.037 869.632 128.685 869.551 128.33 869.556C127.975 869.561 127.628 869.652 127.319 869.822C127.011 869.991 126.75 870.233 126.559 870.527L113.415 890.511C113.22 890.802 113.101 891.138 113.067 891.488C113.034 891.839 113.088 892.193 113.224 892.521C113.36 892.849 113.574 893.141 113.847 893.37C114.121 893.599 114.446 893.76 114.794 893.838Z" stroke="url(#paint1_linear_3536_6826)" stroke-width="1.71429" stroke-linecap="round" stroke-linejoin="round"/>
</g>
<g clip-path="url(#clip1_3536_6826)">
<path d="M162.234 746.31L147.527 726.224" stroke="url(#paint2_linear_3536_6826)" stroke-width="1.71429" stroke-linecap="round" stroke-linejoin="round"/>
<path d="M154.285 789.066C154.341 795.179 153.87 798.225 150.028 801.839C146.387 805.265 140.642 806.078 136.101 804.3C129.786 801.827 128.528 794.322 130.171 788.406C131.952 781.996 142.031 770.201 147.095 766.155C152.845 761.561 159.076 758.763 166.396 757.941C171.416 757.378 177.778 757.32 182.108 760.271C186.033 762.945 188.43 767.22 184.632 771.117C179.977 775.894 173.01 777.225 166.659 777.752C158.238 778.452 150.134 777.483 142.759 773.324C138.884 771.138 131.652 766.115 132.537 759.364C133.38 752.929 144.975 749.798 144.959 748.116C144.943 746.435 130.962 749.854 128.194 743.72C127.423 742.01 127.216 739.006 127.216 739.006" stroke="url(#paint3_linear_3536_6826)" stroke-width="1.71429" stroke-linecap="round"/>
</g>
<g clip-path="url(#clip2_3536_6826)">
<path d="M175.593 701.848L183.649 712.85C185.556 715.454 189.213 716.019 191.817 714.112L202.819 706.056C205.423 704.149 205.988 700.493 204.082 697.888L196.026 686.886C194.119 684.282 190.462 683.717 187.858 685.624L176.856 693.68C174.251 695.587 173.686 699.243 175.593 701.848Z" stroke="url(#paint4_linear_3536_6826)" stroke-width="1.71429" stroke-linecap="round" stroke-linejoin="round"/>
<path d="M193.29 704.583L184.336 703.896L186.385 695.153" stroke="url(#paint5_linear_3536_6826)" stroke-width="1.71429" stroke-linecap="round" stroke-linejoin="round"/>
<path d="M184.336 703.896L195.338 695.84" stroke="url(#paint6_linear_3536_6826)" stroke-width="1.71429" stroke-linecap="round" stroke-linejoin="round"/>
</g>
<g clip-path="url(#clip3_3536_6826)">
<path d="M218.75 796.233L234.561 773.726" stroke="url(#paint7_linear_3536_6826)" stroke-width="1.71429" stroke-linecap="round" stroke-linejoin="round"/>
<path d="M238.891 776.767L230.234 770.686" stroke="url(#paint8_linear_3536_6826)" stroke-width="1.71429" stroke-linecap="round" stroke-linejoin="round"/>
<path d="M231.314 798.594L229.49 801.191C229.167 801.65 228.675 801.962 228.123 802.059C227.57 802.156 227.001 802.029 226.542 801.706L210.961 790.76C210.501 790.437 210.189 789.946 210.093 789.393C209.996 788.84 210.123 788.272 210.446 787.812L212.27 785.215" stroke="url(#paint9_linear_3536_6826)" stroke-width="1.71429" stroke-linecap="round" stroke-linejoin="round"/>
</g>
<defs>
<linearGradient id="paint0_linear_3536_6826" x1="491.493" y1="1027.43" x2="293.544" y2="730.805" gradientUnits="userSpaceOnUse">
<stop stop-color="#4C60E9"/>
<stop offset="1" stop-color="#7485FF"/>
</linearGradient>
<linearGradient id="paint1_linear_3536_6826" x1="165.8" y1="887.483" x2="127.066" y2="871.855" gradientUnits="userSpaceOnUse">
<stop stop-color="#4C60E9"/>
<stop offset="1" stop-color="#7485FF"/>
</linearGradient>
<linearGradient id="paint2_linear_3536_6826" x1="159.201" y1="740.474" x2="154.26" y2="742.255" gradientUnits="userSpaceOnUse">
<stop stop-color="#4C60E9"/>
<stop offset="1" stop-color="#7485FF"/>
</linearGradient>
<linearGradient id="paint3_linear_3536_6826" x1="181.485" y1="758.116" x2="148.495" y2="723.778" gradientUnits="userSpaceOnUse">
<stop stop-color="#4C60E9"/>
<stop offset="1" stop-color="#7485FF"/>
</linearGradient>
<linearGradient id="paint4_linear_3536_6826" x1="203.628" y1="697.269" x2="190.598" y2="683.771" gradientUnits="userSpaceOnUse">
<stop stop-color="#4C60E9"/>
<stop offset="1" stop-color="#7485FF"/>
</linearGradient>
<linearGradient id="paint5_linear_3536_6826" x1="191.487" y1="702.121" x2="185.028" y2="696.582" gradientUnits="userSpaceOnUse">
<stop stop-color="#4C60E9"/>
<stop offset="1" stop-color="#7485FF"/>
</linearGradient>
<linearGradient id="paint6_linear_3536_6826" x1="195.184" y1="695.629" x2="194.736" y2="695.031" gradientUnits="userSpaceOnUse">
<stop stop-color="#4C60E9"/>
<stop offset="1" stop-color="#7485FF"/>
</linearGradient>
<linearGradient id="paint7_linear_3536_6826" x1="234.348" y1="773.576" x2="233.734" y2="773.149" gradientUnits="userSpaceOnUse">
<stop stop-color="#4C60E9"/>
<stop offset="1" stop-color="#7485FF"/>
</linearGradient>
<linearGradient id="paint8_linear_3536_6826" x1="237.205" y1="774.361" x2="232.981" y2="775.917" gradientUnits="userSpaceOnUse">
<stop stop-color="#4C60E9"/>
<stop offset="1" stop-color="#7485FF"/>
</linearGradient>
<linearGradient id="paint9_linear_3536_6826" x1="226.341" y1="795.101" x2="211.464" y2="794.038" gradientUnits="userSpaceOnUse">
<stop stop-color="#4C60E9"/>
<stop offset="1" stop-color="#7485FF"/>
</linearGradient>
<clipPath id="clip0_3536_6826">
<rect width="61.3633" height="60.2269" fill="white" transform="translate(152.875 938.196) rotate(-146.664)"/>
</clipPath>
<clipPath id="clip1_3536_6826">
<rect width="69.3178" height="70.4541" fill="white" transform="translate(138.078 813.831) rotate(-126.212)"/>
</clipPath>
<clipPath id="clip2_3536_6826">
<rect width="27.2726" height="27.2726" fill="white" transform="translate(186.891 718.926) rotate(-126.212)"/>
</clipPath>
<clipPath id="clip3_3536_6826">
<rect width="29.6212" height="29.6212" fill="white" transform="translate(230.262 805.612) rotate(-144.911)"/>
</clipPath>
</defs>
</svg>
