<svg width="150" height="150" viewBox="0 0 150 150" fill="none" xmlns="http://www.w3.org/2000/svg">
<path d="M84.2168 2.07292C86.5018 1.97842 88.7776 2.41583 90.8648 3.35069C99.2642 6.92489 110.434 15.5655 110.434 22.0259L95.5291 26.3417L84.2168 2.07292Z" fill="url(#paint0_linear_1456_4997)"/>
<path d="M35.17 108.727V2.88607C35.17 2.61117 35.2792 2.34752 35.4735 2.15314C35.6679 1.95876 35.9316 1.84955 36.2065 1.84955H84.5743C84.5743 1.84955 89.6317 0.750487 95.0198 8.93539C97.1912 12.2147 96.4763 19.2737 96.101 21.9723C96.0885 22.0573 96.1012 22.1441 96.1377 22.222C96.1741 22.2998 96.2327 22.3652 96.3061 22.41C96.3794 22.4547 96.4643 22.4769 96.5502 22.4738C96.6361 22.4706 96.7192 22.4423 96.7891 22.3922C99.7459 20.2063 103.292 18.9609 106.967 18.818C107.677 18.7787 108.383 18.9524 108.995 19.317C109.606 19.6816 110.095 20.2203 110.398 20.8643C110.41 20.9232 110.41 20.9841 110.398 21.043V108.718C110.398 108.995 110.288 109.261 110.092 109.457C109.896 109.653 109.63 109.763 109.352 109.763H36.1975C36.0618 109.763 35.9275 109.737 35.8022 109.684C35.677 109.632 35.5633 109.556 35.4678 109.459C35.3722 109.363 35.2967 109.249 35.2456 109.123C35.1945 108.997 35.1688 108.863 35.17 108.727Z" fill="url(#paint1_linear_1456_4997)"/>
<path d="M84.3955 2.09992C84.3955 2.09992 89.453 1.00979 94.8411 9.15002C97.0213 12.4472 96.2886 19.5509 95.9133 22.2226C95.9023 22.306 95.916 22.3908 95.9527 22.4664C95.9895 22.5421 96.0476 22.6053 96.12 22.6481C96.1924 22.691 96.2757 22.7116 96.3597 22.7074C96.4437 22.7033 96.5247 22.6745 96.5924 22.6247C99.5548 20.4364 103.108 19.1909 106.788 19.0505C107.514 19.0113 108.236 19.1947 108.855 19.5763C109.475 19.958 109.963 20.5196 110.255 21.1861" stroke="white" stroke-width="1.5" stroke-miterlimit="10" stroke-linecap="round"/>
<path d="M83.3505 89.7301L83.2254 116.706H91.875C91.9382 116.708 91.9994 116.729 92.0515 116.765C92.1035 116.8 92.1442 116.851 92.1686 116.909C92.1931 116.967 92.2003 117.031 92.1894 117.094C92.1786 117.156 92.1501 117.214 92.1073 117.26L74.0844 136.373C73.968 136.492 73.8289 136.587 73.6755 136.651C73.5221 136.716 73.3573 136.749 73.1909 136.749C73.0245 136.749 72.8597 136.716 72.7063 136.651C72.5528 136.587 72.4138 136.492 72.2973 136.373L54.2745 117.269C54.2307 117.218 54.2022 117.156 54.1923 117.089C54.1825 117.023 54.1916 116.955 54.2187 116.893C54.2457 116.831 54.2897 116.779 54.3454 116.741C54.4011 116.703 54.4663 116.682 54.5336 116.68H63.1295L62.9955 89.7122C62.9919 89.5492 63.021 89.3871 63.0809 89.2355C63.1408 89.0839 63.2304 88.9457 63.3444 88.8292C63.4585 88.7127 63.5946 88.6201 63.7449 88.5569C63.8952 88.4937 64.0566 88.4612 64.2197 88.4612H82.0906C82.2579 88.4575 82.4241 88.4879 82.5792 88.5505C82.7343 88.613 82.8751 88.7065 82.993 88.8252C83.1108 88.9439 83.2033 89.0853 83.2648 89.2409C83.3262 89.3964 83.3554 89.5629 83.3505 89.7301Z" fill="white" stroke="#FE7624" stroke-miterlimit="10"/>
<path d="M61.9854 120.263L73.1726 131.575" stroke="#FE7624" stroke-width="1.5" stroke-miterlimit="10" stroke-linecap="round"/>
<path d="M84.3601 120.263L73.1729 131.575" stroke="#FE7624" stroke-width="1.5" stroke-miterlimit="10" stroke-linecap="round"/>
<path d="M94.2518 142.083H52.0852C51.8138 142.083 51.5938 142.303 51.5938 142.575V147.713C51.5938 147.984 51.8138 148.204 52.0852 148.204H94.2518C94.5232 148.204 94.7432 147.984 94.7432 147.713V142.575C94.7432 142.303 94.5232 142.083 94.2518 142.083Z" fill="#FFD9C1"/>
<path d="M61.1367 74.9331V40.2991C61.1378 40.163 61.1769 40.0298 61.2495 39.9146C61.3221 39.7994 61.4254 39.7066 61.5478 39.6469L88.1666 26.4223C88.2772 26.3674 88.4001 26.3418 88.5234 26.3478C88.6468 26.3538 88.7666 26.3913 88.8714 26.4566C88.9762 26.522 89.0625 26.6131 89.1221 26.7213C89.1817 26.8295 89.2127 26.9511 89.212 27.0746V61.923" stroke="white" stroke-width="1.5" stroke-miterlimit="10" stroke-linecap="round"/>
<path d="M61.4492 48.9485L88.354 35.9563" stroke="white" stroke-width="1.5" stroke-miterlimit="10" stroke-linecap="round"/>
<path d="M53.9707 82.0814C57.9186 82.0814 61.119 78.881 61.119 74.9331C61.119 70.9851 57.9186 67.7847 53.9707 67.7847C50.0227 67.7847 46.8223 70.9851 46.8223 74.9331C46.8223 78.881 50.0227 82.0814 53.9707 82.0814Z" stroke="white" stroke-width="1.5" stroke-miterlimit="10" stroke-linecap="round"/>
<path d="M82.0546 68.7228C86.0026 68.7228 89.203 65.5224 89.203 61.5744C89.203 57.6265 86.0026 54.426 82.0546 54.426C78.1067 54.426 74.9062 57.6265 74.9062 61.5744C74.9062 65.5224 78.1067 68.7228 82.0546 68.7228Z" stroke="white" stroke-width="1.5" stroke-miterlimit="10" stroke-linecap="round"/>
<defs>
<linearGradient id="paint0_linear_1456_4997" x1="91.0623" y1="26.3417" x2="110.247" y2="23.5129" gradientUnits="userSpaceOnUse">
<stop stop-color="#4C60E9"/>
<stop offset="1" stop-color="#7485FF"/>
</linearGradient>
<linearGradient id="paint1_linear_1456_4997" x1="54.8152" y1="109.763" x2="110.563" y2="104.458" gradientUnits="userSpaceOnUse">
<stop stop-color="#4C60E9"/>
<stop offset="1" stop-color="#7485FF"/>
</linearGradient>
</defs>
</svg>
