<svg width="150" height="150" viewBox="0 0 150 150" fill="none" xmlns="http://www.w3.org/2000/svg">
<g clip-path="url(#clip0_1456_4966)">
<path d="M90.9974 109.673C120.507 101.066 137.453 70.1659 128.846 40.6557C120.238 11.1456 89.3384 -5.79958 59.8283 2.80753C30.3182 11.4146 13.373 42.3148 21.9801 71.8249C30.5872 101.335 61.4873 118.28 90.9974 109.673Z" stroke="url(#paint0_linear_1456_4966)" stroke-miterlimit="10"/>
<path d="M96.0597 101.019C120.576 89.5349 131.141 60.3505 119.656 35.834C108.172 11.3175 78.9876 0.752837 54.4711 12.2372C29.9546 23.7216 19.39 52.906 30.8744 77.4225C42.3587 101.939 71.5432 112.504 96.0597 101.019Z" stroke="url(#paint1_linear_1456_4966)" stroke-miterlimit="10"/>
<path d="M75.2636 96.9144C97.5103 96.9144 115.545 78.8799 115.545 56.6332C115.545 34.3865 97.5103 16.3521 75.2636 16.3521C53.0169 16.3521 34.9824 34.3865 34.9824 56.6332C34.9824 78.8799 53.0169 96.9144 75.2636 96.9144Z" stroke="url(#paint2_linear_1456_4966)" stroke-miterlimit="10"/>
<path d="M70.1166 76.0587C71.1442 76.4162 72.2164 76.6306 73.2619 76.9076V91.669H77.2292V76.8451C77.7207 76.7468 78.1228 76.6842 78.5338 76.5859C84.7886 75.0043 88.8722 71.1621 90.561 64.8804C91.383 61.7888 90.9809 58.6256 91.0435 55.4892C91.0612 55.2337 91.0262 54.9773 90.9405 54.7359C90.8549 54.4945 90.7206 54.2733 90.5459 54.0861C90.3711 53.8988 90.1597 53.7495 89.9248 53.6474C89.6899 53.5453 89.4366 53.4926 89.1804 53.4926C88.9243 53.4926 88.6709 53.5453 88.436 53.6474C88.2011 53.7495 87.9898 53.8988 87.815 54.0861C87.6403 54.2733 87.5059 54.4945 87.4203 54.7359C87.3347 54.9773 87.2997 55.2337 87.3174 55.4892C87.3174 56.8206 87.3174 58.1699 87.3174 59.4834C87.3978 62.7359 86.8527 65.7919 84.7976 68.4189C83.3245 70.3571 81.2972 71.8019 78.9843 72.5617C76.6715 73.3215 74.1823 73.3605 71.8468 72.6734C69.5113 71.9863 67.4397 70.6057 65.9068 68.7144C64.3738 66.8232 63.4518 64.5108 63.2631 62.0836C63.138 60.0731 63.2094 58.0448 63.1737 56.0343C63.1945 55.5311 63.1372 55.0277 63.0039 54.5421C62.8523 54.1507 62.5677 53.8252 62.2001 53.6226C61.8325 53.42 61.4053 53.3533 60.9934 53.4341C60.5494 53.5077 60.1475 53.7407 59.8629 54.0894C59.5783 54.4381 59.4307 54.8786 59.4476 55.3284C59.4476 57.2942 59.4476 59.2511 59.4476 61.208C59.4626 64.485 60.4981 67.6759 62.4101 70.3374C64.3221 72.9988 67.0157 74.9986 70.1166 76.0587Z" fill="#FFD9C1"/>
<path d="M16.6377 125.838H13.5371V141.797H16.6377V125.838Z" fill="url(#paint3_linear_1456_4966)"/>
<path d="M22.2315 127.831H19.1309V139.805H22.2315V127.831Z" fill="url(#paint4_linear_1456_4966)"/>
<path d="M27.8252 125.838H24.7246V141.797H27.8252V125.838Z" fill="url(#paint5_linear_1456_4966)"/>
<path d="M33.419 118.485H30.3184V148.651H33.419V118.485Z" fill="url(#paint6_linear_1456_4966)"/>
<path d="M39.0127 122.792H35.9121V144.835H39.0127V122.792Z" fill="url(#paint7_linear_1456_4966)"/>
<path d="M89.5518 118.485H86.4512V148.651H89.5518V118.485Z" fill="url(#paint8_linear_1456_4966)"/>
<path d="M95.1455 124.364H92.0449V143.263H95.1455V124.364Z" fill="url(#paint9_linear_1456_4966)"/>
<path d="M100.346 129.404H97.2451V138.223H100.346V129.404Z" fill="url(#paint10_linear_1456_4966)"/>
<path d="M105.385 126.777H102.284V140.841H105.385V126.777Z" fill="url(#paint11_linear_1456_4966)"/>
<path d="M110.532 119.369H107.432V148.267H110.532V119.369Z" fill="url(#paint12_linear_1456_4966)"/>
<path d="M115.84 127.831H112.739V139.805H115.84V127.831Z" fill="url(#paint13_linear_1456_4966)"/>
<path d="M121.335 124.364H118.234V143.263H121.335V124.364Z" fill="url(#paint14_linear_1456_4966)"/>
<path d="M126.446 118.485H123.346V149.142H126.446V118.485Z" fill="url(#paint15_linear_1456_4966)"/>
<path d="M131.477 124.364H128.376V142.315H131.477V124.364Z" fill="url(#paint16_linear_1456_4966)"/>
<path d="M136.73 128.751H133.63V137.928H136.73V128.751Z" fill="url(#paint17_linear_1456_4966)"/>
<path d="M141.797 130.628H138.696V136.052H141.797V130.628Z" fill="url(#paint18_linear_1456_4966)"/>
<path d="M11.295 129.404H8.19434V137.276H11.295V129.404Z" fill="url(#paint19_linear_1456_4966)"/>
<path d="M66.6494 118.485H63.5488V148.651H66.6494V118.485Z" fill="url(#paint20_linear_1456_4966)"/>
<path d="M72.2432 122.792H69.1426V144.835H72.2432V122.792Z" fill="url(#paint21_linear_1456_4966)"/>
<path d="M44.6055 127.831H41.5049V139.805H44.6055V127.831Z" fill="url(#paint22_linear_1456_4966)"/>
<path d="M50.1992 129.404H47.0986V138.223H50.1992V129.404Z" fill="url(#paint23_linear_1456_4966)"/>
<path d="M78.293 127.831H75.1924V139.805H78.293V127.831Z" fill="url(#paint24_linear_1456_4966)"/>
<path d="M83.8867 124.364H80.7861V143.263H83.8867V124.364Z" fill="url(#paint25_linear_1456_4966)"/>
<path d="M55.7842 126.777H52.6836V140.841H55.7842V126.777Z" fill="url(#paint26_linear_1456_4966)"/>
<path d="M61.378 124.364H58.2773V143.263H61.378V124.364Z" fill="url(#paint27_linear_1456_4966)"/>
<path d="M77.5063 30.8186H73.0207C69.3293 30.8186 66.3369 33.811 66.3369 37.5023V62.2536C66.3369 65.945 69.3293 68.9374 73.0207 68.9374H77.5063C81.1976 68.9374 84.19 65.945 84.19 62.2536V37.5023C84.19 33.811 81.1976 30.8186 77.5063 30.8186Z" fill="#FE7624"/>
</g>
<defs>
<linearGradient id="paint0_linear_1456_4966" x1="65.4684" y1="117.119" x2="140.782" y2="83.5294" gradientUnits="userSpaceOnUse">
<stop stop-color="#4C60E9"/>
<stop offset="1" stop-color="#7485FF"/>
</linearGradient>
<linearGradient id="paint1_linear_1456_4966" x1="74.8506" y1="110.954" x2="135.847" y2="71.5296" gradientUnits="userSpaceOnUse">
<stop stop-color="#4C60E9"/>
<stop offset="1" stop-color="#7485FF"/>
</linearGradient>
<linearGradient id="paint2_linear_1456_4966" x1="56.0181" y1="96.9144" x2="115.15" y2="88.839" gradientUnits="userSpaceOnUse">
<stop stop-color="#4C60E9"/>
<stop offset="1" stop-color="#7485FF"/>
</linearGradient>
<linearGradient id="paint3_linear_1456_4966" x1="14.3467" y1="141.797" x2="16.6633" y2="141.736" gradientUnits="userSpaceOnUse">
<stop stop-color="#4C60E9"/>
<stop offset="1" stop-color="#7485FF"/>
</linearGradient>
<linearGradient id="paint4_linear_1456_4966" x1="19.9405" y1="139.805" x2="22.2558" y2="139.723" gradientUnits="userSpaceOnUse">
<stop stop-color="#4C60E9"/>
<stop offset="1" stop-color="#7485FF"/>
</linearGradient>
<linearGradient id="paint5_linear_1456_4966" x1="25.5342" y1="141.797" x2="27.8508" y2="141.736" gradientUnits="userSpaceOnUse">
<stop stop-color="#4C60E9"/>
<stop offset="1" stop-color="#7485FF"/>
</linearGradient>
<linearGradient id="paint6_linear_1456_4966" x1="31.128" y1="148.651" x2="33.4458" y2="148.618" gradientUnits="userSpaceOnUse">
<stop stop-color="#4C60E9"/>
<stop offset="1" stop-color="#7485FF"/>
</linearGradient>
<linearGradient id="paint7_linear_1456_4966" x1="36.7217" y1="144.835" x2="39.0391" y2="144.791" gradientUnits="userSpaceOnUse">
<stop stop-color="#4C60E9"/>
<stop offset="1" stop-color="#7485FF"/>
</linearGradient>
<linearGradient id="paint8_linear_1456_4966" x1="87.2608" y1="148.651" x2="89.5786" y2="148.618" gradientUnits="userSpaceOnUse">
<stop stop-color="#4C60E9"/>
<stop offset="1" stop-color="#7485FF"/>
</linearGradient>
<linearGradient id="paint9_linear_1456_4966" x1="92.8545" y1="143.263" x2="95.1716" y2="143.211" gradientUnits="userSpaceOnUse">
<stop stop-color="#4C60E9"/>
<stop offset="1" stop-color="#7485FF"/>
</linearGradient>
<linearGradient id="paint10_linear_1456_4966" x1="98.0547" y1="138.223" x2="100.368" y2="138.112" gradientUnits="userSpaceOnUse">
<stop stop-color="#4C60E9"/>
<stop offset="1" stop-color="#7485FF"/>
</linearGradient>
<linearGradient id="paint11_linear_1456_4966" x1="103.094" y1="140.841" x2="105.41" y2="140.771" gradientUnits="userSpaceOnUse">
<stop stop-color="#4C60E9"/>
<stop offset="1" stop-color="#7485FF"/>
</linearGradient>
<linearGradient id="paint12_linear_1456_4966" x1="108.241" y1="148.267" x2="110.559" y2="148.233" gradientUnits="userSpaceOnUse">
<stop stop-color="#4C60E9"/>
<stop offset="1" stop-color="#7485FF"/>
</linearGradient>
<linearGradient id="paint13_linear_1456_4966" x1="113.549" y1="139.805" x2="115.864" y2="139.723" gradientUnits="userSpaceOnUse">
<stop stop-color="#4C60E9"/>
<stop offset="1" stop-color="#7485FF"/>
</linearGradient>
<linearGradient id="paint14_linear_1456_4966" x1="119.044" y1="143.263" x2="121.361" y2="143.211" gradientUnits="userSpaceOnUse">
<stop stop-color="#4C60E9"/>
<stop offset="1" stop-color="#7485FF"/>
</linearGradient>
<linearGradient id="paint15_linear_1456_4966" x1="124.155" y1="149.142" x2="126.473" y2="149.11" gradientUnits="userSpaceOnUse">
<stop stop-color="#4C60E9"/>
<stop offset="1" stop-color="#7485FF"/>
</linearGradient>
<linearGradient id="paint16_linear_1456_4966" x1="129.186" y1="142.315" x2="131.503" y2="142.261" gradientUnits="userSpaceOnUse">
<stop stop-color="#4C60E9"/>
<stop offset="1" stop-color="#7485FF"/>
</linearGradient>
<linearGradient id="paint17_linear_1456_4966" x1="134.439" y1="137.928" x2="136.753" y2="137.821" gradientUnits="userSpaceOnUse">
<stop stop-color="#4C60E9"/>
<stop offset="1" stop-color="#7485FF"/>
</linearGradient>
<linearGradient id="paint18_linear_1456_4966" x1="139.506" y1="136.052" x2="141.81" y2="135.872" gradientUnits="userSpaceOnUse">
<stop stop-color="#4C60E9"/>
<stop offset="1" stop-color="#7485FF"/>
</linearGradient>
<linearGradient id="paint19_linear_1456_4966" x1="9.00394" y1="137.276" x2="11.3155" y2="137.152" gradientUnits="userSpaceOnUse">
<stop stop-color="#4C60E9"/>
<stop offset="1" stop-color="#7485FF"/>
</linearGradient>
<linearGradient id="paint20_linear_1456_4966" x1="64.3584" y1="148.651" x2="66.6762" y2="148.618" gradientUnits="userSpaceOnUse">
<stop stop-color="#4C60E9"/>
<stop offset="1" stop-color="#7485FF"/>
</linearGradient>
<linearGradient id="paint21_linear_1456_4966" x1="69.9522" y1="144.835" x2="72.2696" y2="144.791" gradientUnits="userSpaceOnUse">
<stop stop-color="#4C60E9"/>
<stop offset="1" stop-color="#7485FF"/>
</linearGradient>
<linearGradient id="paint22_linear_1456_4966" x1="42.3145" y1="139.805" x2="44.6298" y2="139.723" gradientUnits="userSpaceOnUse">
<stop stop-color="#4C60E9"/>
<stop offset="1" stop-color="#7485FF"/>
</linearGradient>
<linearGradient id="paint23_linear_1456_4966" x1="47.9082" y1="138.223" x2="50.2212" y2="138.112" gradientUnits="userSpaceOnUse">
<stop stop-color="#4C60E9"/>
<stop offset="1" stop-color="#7485FF"/>
</linearGradient>
<linearGradient id="paint24_linear_1456_4966" x1="76.002" y1="139.805" x2="78.3174" y2="139.723" gradientUnits="userSpaceOnUse">
<stop stop-color="#4C60E9"/>
<stop offset="1" stop-color="#7485FF"/>
</linearGradient>
<linearGradient id="paint25_linear_1456_4966" x1="81.5957" y1="143.263" x2="83.9128" y2="143.211" gradientUnits="userSpaceOnUse">
<stop stop-color="#4C60E9"/>
<stop offset="1" stop-color="#7485FF"/>
</linearGradient>
<linearGradient id="paint26_linear_1456_4966" x1="53.4932" y1="140.841" x2="55.8094" y2="140.771" gradientUnits="userSpaceOnUse">
<stop stop-color="#4C60E9"/>
<stop offset="1" stop-color="#7485FF"/>
</linearGradient>
<linearGradient id="paint27_linear_1456_4966" x1="59.0869" y1="143.263" x2="61.404" y2="143.211" gradientUnits="userSpaceOnUse">
<stop stop-color="#4C60E9"/>
<stop offset="1" stop-color="#7485FF"/>
</linearGradient>
<clipPath id="clip0_1456_4966">
<rect width="150" height="150" fill="white"/>
</clipPath>
</defs>
</svg>
