<svg width="150" height="150" viewBox="0 0 150 150" fill="none" xmlns="http://www.w3.org/2000/svg">
<path d="M125.695 31.5513C127.621 31.4692 129.539 31.8363 131.298 32.6236C138.366 35.6259 147.775 42.9083 147.775 48.3411L135.265 51.9868L125.695 31.5513Z" fill="url(#paint0_linear_1456_4943)"/>
<path d="M84.4043 121.344V32.2303C84.4043 31.9934 84.4984 31.7661 84.666 31.5985C84.8336 31.4309 85.0609 31.3368 85.2978 31.3368H125.99C125.99 31.3368 130.243 30.4433 134.783 37.27C136.614 40.031 136.007 45.9821 135.676 48.2517C135.667 48.3229 135.679 48.3952 135.711 48.4599C135.742 48.5245 135.791 48.5789 135.852 48.6165C135.913 48.6541 135.984 48.6734 136.056 48.6721C136.127 48.6708 136.197 48.6489 136.257 48.6091C138.748 46.7733 141.734 45.7302 144.826 45.6157C145.43 45.5821 146.03 45.73 146.55 46.0406C147.069 46.3511 147.483 46.81 147.739 47.3581C147.752 47.4048 147.752 47.4544 147.739 47.5011V121.326C147.739 121.563 147.645 121.79 147.477 121.958C147.31 122.125 147.082 122.22 146.845 122.22H85.1906C84.9757 122.194 84.7775 122.091 84.6329 121.93C84.4883 121.768 84.4071 121.56 84.4043 121.344Z" fill="url(#paint1_linear_1456_4943)"/>
<path d="M93.5898 65.8457H132.54" stroke="white" stroke-width="1.5" stroke-miterlimit="10" stroke-linecap="round"/>
<path d="M93.5898 91.4458H123.971" stroke="white" stroke-width="1.5" stroke-miterlimit="10" stroke-linecap="round"/>
<path d="M93.5898 74.2986H136.73" stroke="white" stroke-width="1.5" stroke-miterlimit="10" stroke-linecap="round"/>
<path d="M93.5898 82.7605H130.556" stroke="white" stroke-width="1.5" stroke-miterlimit="10" stroke-linecap="round"/>
<path d="M125.848 31.569C125.848 31.569 130.101 30.6754 134.64 37.5021C136.481 40.2811 135.864 46.2589 135.534 48.5107C135.522 48.5815 135.532 48.6541 135.563 48.7191C135.593 48.7841 135.642 48.8385 135.704 48.8751C135.766 48.9117 135.837 48.929 135.909 48.9245C135.98 48.9201 136.049 48.8942 136.106 48.8502C138.602 47.0103 141.594 45.9642 144.693 45.8479C145.303 45.8174 145.908 45.9716 146.429 46.2904C146.951 46.6092 147.364 47.0778 147.615 47.635" stroke="white" stroke-width="1.5" stroke-miterlimit="10" stroke-linecap="round"/>
<path d="M37.1445 39.1999C38.8612 39.126 40.5714 39.4534 42.1395 40.156C48.4479 42.8367 56.8473 49.3417 56.8473 54.2026L45.6422 57.4551L37.1445 39.1999Z" fill="#FFD9C1"/>
<path d="M1.41211 118.082V39.7362C1.41438 39.7022 1.4295 39.6703 1.45439 39.6471C1.47928 39.6239 1.51209 39.611 1.54614 39.6111H37.4042C37.4042 39.6111 41.0857 38.8158 45.0083 44.74C46.7418 47.3492 45.9555 53.2466 45.7321 54.7031C45.7294 54.7271 45.7337 54.7513 45.7445 54.7729C45.7552 54.7945 45.772 54.8126 45.7928 54.8249C45.8136 54.8371 45.8374 54.8431 45.8616 54.8421C45.8857 54.8412 45.909 54.8332 45.9287 54.8193C48.1612 53.0777 50.8825 52.0779 53.7115 51.9599C54.2358 51.9414 54.7541 52.0771 55.202 52.3503C55.6499 52.6235 56.0078 53.0222 56.2313 53.4968C56.2355 53.5114 56.2355 53.5269 56.2313 53.5415V118.082C56.229 118.116 56.2139 118.148 56.189 118.172C56.1641 118.195 56.1313 118.208 56.0973 118.208H1.54614C1.51209 118.208 1.47928 118.195 1.45439 118.172C1.4295 118.148 1.41438 118.116 1.41211 118.082Z" fill="white" stroke="#FE7624" stroke-miterlimit="10"/>
<path d="M9.36426 69.4465H43.06" stroke="#FE7624" stroke-width="1.5" stroke-miterlimit="10" stroke-linecap="round"/>
<path d="M9.36426 91.5977H35.6525" stroke="#FE7624" stroke-width="1.5" stroke-miterlimit="10" stroke-linecap="round"/>
<path d="M9.36426 76.7646H46.6878" stroke="#FE7624" stroke-width="1.5" stroke-miterlimit="10" stroke-linecap="round"/>
<path d="M9.36426 84.083H41.3444" stroke="#FE7624" stroke-width="1.5" stroke-miterlimit="10" stroke-linecap="round"/>
<path d="M61.8965 79.0879C61.8965 79.0879 65.56 71.4302 77.4532 72.145C88.5332 72.8152 91.0887 80.3746 91.0887 80.3746" stroke="#FE7624" stroke-width="1.5" stroke-miterlimit="10" stroke-linecap="round"/>
<path d="M80.8929 84.8871C80.8929 84.8871 77.5063 92.6699 65.5953 92.375C54.5064 92.0355 51.6738 84.6101 51.6738 84.6101" stroke="url(#paint2_linear_1456_4943)" stroke-width="1.5" stroke-miterlimit="10" stroke-linecap="round"/>
<path d="M84.6191 79.3919L91.0884 80.9824C91.1776 81.0032 91.2701 81.0047 91.3599 80.9869C91.4497 80.969 91.5346 80.9322 91.6091 80.8789C91.6835 80.8257 91.7457 80.7571 91.7915 80.6779C91.8373 80.5986 91.8657 80.5105 91.8748 80.4194L92.4288 73.8787" stroke="#FE7624" stroke-width="1.5" stroke-miterlimit="10" stroke-linecap="round"/>
<path d="M57.8665 86.2631L51.6743 83.788C51.5873 83.7468 51.4921 83.7258 51.3958 83.7268C51.2995 83.7278 51.2048 83.7507 51.1187 83.7938C51.0326 83.8368 50.9574 83.8989 50.8988 83.9753C50.8403 84.0517 50.7999 84.1404 50.7807 84.2348L49.3242 90.6326" stroke="url(#paint3_linear_1456_4943)" stroke-width="1.5" stroke-miterlimit="10" stroke-linecap="round"/>
<path d="M13.0908 61.9051L20.0069 44.0341C20.017 44.0068 20.0353 43.9832 20.0593 43.9665C20.0832 43.9498 20.1117 43.9409 20.1409 43.9409C20.1701 43.9409 20.1986 43.9498 20.2225 43.9665C20.2465 43.9832 20.2648 44.0068 20.275 44.0341L27.9684 62.1285" stroke="#FE7624" stroke-width="1.5" stroke-miterlimit="10" stroke-linecap="round"/>
<path d="M16.5752 53.3538H24.1972" stroke="#FE7624" stroke-width="1.5" stroke-miterlimit="10" stroke-linecap="round"/>
<path d="M102.4 44.1145C102.4 44.1145 113.391 44.4452 117.189 42.8457" stroke="white" stroke-width="1.5" stroke-miterlimit="10" stroke-linecap="round"/>
<path d="M110.049 36.698C110.049 36.698 110.817 47.6976 110.817 51.8883C110.817 56.0791 112.292 60.8685 105.787 59.7426C104.93 59.6193 104.146 59.1889 103.583 58.5315C103.019 57.8741 102.713 57.0344 102.722 56.1684C102.722 54.4617 104.402 53.1661 107.306 53.3091C109.147 53.3274 110.963 53.7349 112.636 54.5049C114.308 55.2749 115.799 56.3899 117.01 57.7768" stroke="white" stroke-width="1.5" stroke-miterlimit="10" stroke-linecap="round"/>
<path d="M96.5569 37.2073C96.5569 37.2073 92.3304 48.6536 95.6633 59.0724C95.6633 59.0937 95.6718 59.1142 95.6869 59.1293C95.702 59.1444 95.7224 59.1528 95.7438 59.1528C95.7651 59.1528 95.7855 59.1444 95.8006 59.1293C95.8157 59.1142 95.8242 59.0937 95.8242 59.0724C96.0297 57.75 96.8428 53.0856 98.5852 50.7713" stroke="white" stroke-width="1.5" stroke-miterlimit="10" stroke-linecap="round"/>
<defs>
<linearGradient id="paint0_linear_1456_4943" x1="131.461" y1="51.9868" x2="147.618" y2="49.6041" gradientUnits="userSpaceOnUse">
<stop stop-color="#4C60E9"/>
<stop offset="1" stop-color="#7485FF"/>
</linearGradient>
<linearGradient id="paint1_linear_1456_4943" x1="100.944" y1="122.22" x2="147.881" y2="117.754" gradientUnits="userSpaceOnUse">
<stop stop-color="#4C60E9"/>
<stop offset="1" stop-color="#7485FF"/>
</linearGradient>
<linearGradient id="paint2_linear_1456_4943" x1="59.3032" y1="92.3832" x2="76.5933" y2="83.5074" gradientUnits="userSpaceOnUse">
<stop stop-color="#4C60E9"/>
<stop offset="1" stop-color="#7485FF"/>
</linearGradient>
<linearGradient id="paint3_linear_1456_4943" x1="51.5547" y1="90.6326" x2="57.7644" y2="89.5836" gradientUnits="userSpaceOnUse">
<stop stop-color="#4C60E9"/>
<stop offset="1" stop-color="#7485FF"/>
</linearGradient>
</defs>
</svg>
