<svg width="997" height="2554" viewBox="0 0 997 2554" fill="none" xmlns="http://www.w3.org/2000/svg">
<path d="M-729.486 762.963C-579.817 639.695 -370.487 708.317 -380.553 912.956C-393.136 1168.76 -554.124 1423.97 -215.488 1383.3C123.148 1342.64 197.634 1520.16 137.417 1652.81C89.2428 1758.94 -60.1389 1904.23 -128.808 1963.61" stroke="url(#paint0_linear_3536_9182)" stroke-width="2" stroke-dasharray="14 14"/>
<g clip-path="url(#clip0_3536_9182)">
<path d="M104.573 1522.35L102.6 1535.69L97.1233 1532.27C96.155 1531.67 94.9821 1531.48 93.8627 1531.75C92.7432 1532.03 91.7689 1532.73 91.1541 1533.72L73.7674 1561.62C73.1526 1562.6 72.9476 1563.79 73.1975 1564.91C73.4475 1566.04 74.1319 1567.01 75.1002 1567.61L100.657 1583.54C101.625 1584.14 102.798 1584.33 103.918 1584.06C105.037 1583.79 106.011 1583.08 106.626 1582.09L124.013 1554.2C124.628 1553.21 124.833 1552.02 124.583 1550.9C124.333 1549.77 123.648 1548.8 122.68 1548.2L117.204 1544.79L128.305 1537.14C128.588 1536.93 128.816 1536.64 128.968 1536.32C129.121 1536 129.194 1535.64 129.18 1535.29C129.166 1534.93 129.066 1534.59 128.889 1534.29C128.713 1533.98 128.464 1533.73 128.165 1533.54L107.866 1520.89C107.57 1520.7 107.231 1520.59 106.88 1520.57C106.529 1520.54 106.176 1520.61 105.851 1520.75C105.527 1520.89 105.24 1521.12 105.018 1521.39C104.795 1521.67 104.642 1522 104.573 1522.35Z" stroke="url(#paint1_linear_3536_9182)" stroke-width="1.71429" stroke-linecap="round" stroke-linejoin="round"/>
</g>
<g clip-path="url(#clip1_3536_9182)">
<path d="M253.219 1566.16L272.938 1550.97" stroke="url(#paint2_linear_3536_9182)" stroke-width="1.71429" stroke-linecap="round" stroke-linejoin="round"/>
<path d="M210.28 1559.26C204.17 1559.47 201.113 1559.07 197.406 1555.32C193.892 1551.76 192.938 1546.04 194.605 1541.46C196.922 1535.08 204.394 1533.64 210.348 1535.14C216.8 1536.76 228.839 1546.55 233.008 1551.51C237.741 1557.15 240.691 1563.31 241.692 1570.6C242.378 1575.61 242.592 1581.97 239.748 1586.37C237.171 1590.36 232.957 1592.86 228.967 1589.16C224.078 1584.62 222.577 1577.69 221.893 1571.35C220.988 1562.95 221.757 1554.83 225.735 1547.35C227.824 1543.43 232.669 1536.07 239.44 1536.79C245.893 1537.48 249.308 1548.99 250.988 1548.93C252.669 1548.88 248.908 1534.98 254.972 1532.07C256.663 1531.25 259.661 1530.97 259.661 1530.97" stroke="url(#paint3_linear_3536_9182)" stroke-width="1.71429" stroke-linecap="round"/>
</g>
<g clip-path="url(#clip2_3536_9182)">
<path d="M297.997 1578.43L287.196 1586.75C284.639 1588.72 284.163 1592.39 286.134 1594.95L294.457 1605.75C296.427 1608.3 300.097 1608.78 302.653 1606.81L313.455 1598.49C316.011 1596.52 316.487 1592.85 314.517 1590.29L306.193 1579.49C304.223 1576.93 300.554 1576.46 297.997 1578.43Z" stroke="url(#paint4_linear_3536_9182)" stroke-width="1.71429" stroke-linecap="round" stroke-linejoin="round"/>
<path d="M295.693 1596.18L296.16 1587.22L304.951 1589.05" stroke="url(#paint5_linear_3536_9182)" stroke-width="1.71429" stroke-linecap="round" stroke-linejoin="round"/>
<path d="M296.164 1587.22L304.487 1598.02" stroke="url(#paint6_linear_3536_9182)" stroke-width="1.71429" stroke-linecap="round" stroke-linejoin="round"/>
</g>
<g clip-path="url(#clip3_3536_9182)">
<path d="M204.699 1623.88L227.587 1639.14" stroke="url(#paint7_linear_3536_9182)" stroke-width="1.71429" stroke-linecap="round" stroke-linejoin="round"/>
<path d="M224.652 1643.54L230.52 1634.74" stroke="url(#paint8_linear_3536_9182)" stroke-width="1.71429" stroke-linecap="round" stroke-linejoin="round"/>
<path d="M202.648 1636.5L200.007 1634.74C199.54 1634.43 199.216 1633.95 199.105 1633.4C198.995 1632.85 199.108 1632.27 199.42 1631.81L209.98 1615.96C210.292 1615.5 210.776 1615.17 211.326 1615.06C211.876 1614.95 212.448 1615.06 212.914 1615.38L215.555 1617.14" stroke="url(#paint9_linear_3536_9182)" stroke-width="1.71429" stroke-linecap="round" stroke-linejoin="round"/>
</g>
<defs>
<linearGradient id="paint0_linear_3536_9182" x1="-19.7348" y1="1902.21" x2="271.951" y2="1697.05" gradientUnits="userSpaceOnUse">
<stop stop-color="#4C60E9"/>
<stop offset="1" stop-color="#7485FF"/>
</linearGradient>
<linearGradient id="paint1_linear_3536_9182" x1="112.177" y1="1573.19" x2="126.85" y2="1534.08" gradientUnits="userSpaceOnUse">
<stop stop-color="#4C60E9"/>
<stop offset="1" stop-color="#7485FF"/>
</linearGradient>
<linearGradient id="paint2_linear_3536_9182" x1="258.978" y1="1562.98" x2="257.076" y2="1558.09" gradientUnits="userSpaceOnUse">
<stop stop-color="#4C60E9"/>
<stop offset="1" stop-color="#7485FF"/>
</linearGradient>
<linearGradient id="paint3_linear_3536_9182" x1="241.887" y1="1585.69" x2="275.407" y2="1551.87" gradientUnits="userSpaceOnUse">
<stop stop-color="#4C60E9"/>
<stop offset="1" stop-color="#7485FF"/>
</linearGradient>
<linearGradient id="paint4_linear_3536_9182" x1="303.262" y1="1606.34" x2="316.436" y2="1592.98" gradientUnits="userSpaceOnUse">
<stop stop-color="#4C60E9"/>
<stop offset="1" stop-color="#7485FF"/>
</linearGradient>
<linearGradient id="paint5_linear_3536_9182" x1="298.11" y1="1594.32" x2="303.489" y2="1587.73" gradientUnits="userSpaceOnUse">
<stop stop-color="#4C60E9"/>
<stop offset="1" stop-color="#7485FF"/>
</linearGradient>
<linearGradient id="paint6_linear_3536_9182" x1="304.694" y1="1597.86" x2="305.282" y2="1597.4" gradientUnits="userSpaceOnUse">
<stop stop-color="#4C60E9"/>
<stop offset="1" stop-color="#7485FF"/>
</linearGradient>
<linearGradient id="paint7_linear_3536_9182" x1="227.732" y1="1638.92" x2="228.143" y2="1638.3" gradientUnits="userSpaceOnUse">
<stop stop-color="#4C60E9"/>
<stop offset="1" stop-color="#7485FF"/>
</linearGradient>
<linearGradient id="paint8_linear_3536_9182" x1="227.016" y1="1641.8" x2="225.357" y2="1637.61" gradientUnits="userSpaceOnUse">
<stop stop-color="#4C60E9"/>
<stop offset="1" stop-color="#7485FF"/>
</linearGradient>
<linearGradient id="paint9_linear_3536_9182" x1="206.018" y1="1631.45" x2="206.716" y2="1616.55" gradientUnits="userSpaceOnUse">
<stop stop-color="#4C60E9"/>
<stop offset="1" stop-color="#7485FF"/>
</linearGradient>
<clipPath id="clip0_3536_9182">
<rect width="61.3633" height="60.2269" fill="white" transform="translate(61.1641 1561.51) rotate(-58.0688)"/>
</clipPath>
<clipPath id="clip1_3536_9182">
<rect width="69.3178" height="70.4541" fill="white" transform="translate(185.125 1543.67) rotate(-37.6172)"/>
</clipPath>
<clipPath id="clip2_3536_9182">
<rect width="27.2726" height="27.2726" fill="white" transform="translate(281.199 1590.14) rotate(-37.6172)"/>
</clipPath>
<clipPath id="clip3_3536_9182">
<rect width="29.6212" height="29.6212" fill="white" transform="translate(195.605 1635.62) rotate(-56.3163)"/>
</clipPath>
</defs>
</svg>
