<svg width="345" height="253" viewBox="0 0 345 253" fill="none" xmlns="http://www.w3.org/2000/svg">
<path d="M323.197 44.4711H259.454C236.22 -2.38468 181.343 0.452036 181.343 0.452036C181.343 0.452036 126.466 -2.38468 103.252 44.4711H39.4263C39.4263 44.4711 39.9662 66.398 17.625 66.398V115.242C39.9662 115.242 39.4263 137.168 39.4263 137.168H103.252C126.466 184.045 181.343 181.188 181.343 181.188C181.343 181.188 236.22 184.045 259.454 137.168H323.197C323.197 137.168 322.657 115.242 344.998 115.242V66.398C322.719 66.398 323.197 44.4711 323.197 44.4711Z" fill="#4355E6"/>
<path d="M321.12 46.2104H257.605C234.932 0.431281 181.342 3.22646 181.342 3.22646C181.342 3.22646 127.773 0.431281 105.183 46.2104H41.5022C41.5022 46.2104 41.8345 66.191 20.1992 67.6197V114.02C41.8345 115.138 41.5022 135.429 41.5022 135.429H105.183C127.877 181.208 181.446 178.413 181.446 178.413C181.446 178.413 235.036 181.208 257.709 135.429H321.12C321.12 135.429 321.12 115.034 342.402 114.02V67.6197C321.286 65.9839 321.12 46.2104 321.12 46.2104Z" fill="#F5F8FF"/>
<path d="M255.113 90.8301C255.113 105.38 250.787 119.603 242.681 131.701C234.575 143.799 223.053 153.228 209.573 158.796C196.093 164.364 181.26 165.821 166.95 162.982C152.64 160.144 139.495 153.137 129.178 142.849C118.86 132.561 111.834 119.452 108.988 105.182C106.141 90.9117 107.602 76.1201 113.186 62.6778C118.769 49.2355 128.225 37.7461 140.357 29.6626C152.488 21.5791 166.751 17.2647 181.342 17.2647C191.031 17.2619 200.625 19.1628 209.576 22.8589C218.528 26.5549 226.662 31.9737 233.512 38.8054C240.363 45.6372 245.797 53.748 249.504 62.6746C253.21 71.6012 255.116 81.1686 255.113 90.8301Z" fill="#29175F"/>
<path d="M181.343 161.435H180.699V160.793H182.007V161.435H181.343ZM179.412 161.435H178.145V160.793H179.412V161.435ZM183.274 161.435V160.793H184.561V161.435H183.274ZM185.848 161.311V160.69H187.115V161.332L185.848 161.311ZM176.858 161.311H175.57V160.669H176.858V161.311ZM174.283 161.104L173.016 160.98V160.338L174.283 160.483V161.104ZM188.402 161.104V160.483L189.669 160.338V160.98L188.402 161.104ZM190.956 160.814V160.172C191.392 160.172 191.807 160.172 192.222 159.986L192.326 160.628L190.956 160.814ZM171.729 160.814L170.463 160.628V159.986L171.729 160.172V160.814ZM169.196 160.421L167.93 160.193L168.054 159.572L169.3 159.799L169.196 160.421ZM193.51 160.421L193.385 159.799L194.652 159.572L194.776 160.193L193.51 160.421ZM196.022 159.944L195.898 159.323L197.143 159.033L197.289 159.654L196.022 159.944ZM166.663 159.944L165.396 159.572L165.521 158.951L166.767 159.24L166.663 159.944ZM164.151 159.365L162.926 159.033L163.071 158.433L164.317 158.743L164.151 159.365ZM198.534 159.365L198.389 158.743L199.614 158.433L199.78 159.033L198.534 159.365ZM201.026 158.702L200.839 158.081L202.064 157.729L202.251 158.329L201.026 158.702ZM161.576 158.702L160.33 158.329L160.538 157.729L161.742 158.081L161.576 158.702ZM203.372 157.936L203.165 157.335L204.39 156.921L204.597 157.522L203.372 157.936ZM159.167 157.915L157.942 157.501L158.15 156.901L159.375 157.315L159.167 157.915ZM205.864 157.066L205.635 156.466L206.84 156.031L207.068 156.611L205.864 157.066ZM156.738 157.066L155.534 156.611L155.762 156.01L156.946 156.466L156.738 157.066ZM208.252 156.135L208.023 155.555L209.186 155.058L209.435 155.638L208.252 156.135ZM154.267 156.135L153.084 155.638L153.333 155.037L154.517 155.534L154.267 156.135ZM210.556 155.12L210.286 154.54L211.428 154.002L211.719 154.582L210.556 155.12ZM151.9 155.12L150.738 154.582L151.008 154.002L152.17 154.54L151.9 155.12ZM212.861 154.043L212.57 153.464L213.712 152.905L214.003 153.464L212.861 154.043ZM149.575 154.043L148.433 153.443L148.724 152.884L149.866 153.464L149.575 154.043ZM215.145 152.884L214.834 152.325L215.934 151.704L216.245 152.263L215.145 152.884ZM147.291 152.884L146.17 152.263L146.481 151.704L147.602 152.325L147.291 152.884ZM217.367 151.662L217.034 151.103L218.135 150.441L218.467 150.979L217.367 151.662ZM145.048 151.662L143.948 150.979L144.301 150.441C144.654 150.668 145.007 150.896 145.381 151.103L145.048 151.662ZM219.547 150.337L219.194 149.799C219.568 149.592 219.921 149.343 220.274 149.116L220.626 149.633L219.547 150.337ZM142.868 150.337L141.789 149.633L142.142 149.116L143.221 149.799L142.868 150.337ZM221.768 148.95L221.395 148.432L222.433 147.708L222.807 148.225L221.768 148.95ZM140.792 148.95L139.733 148.205L140.128 147.687L141.166 148.432L140.792 148.95ZM223.845 147.501L223.471 146.983L224.468 146.217L224.862 146.714L223.845 147.501ZM138.716 147.501L137.678 146.714L138.093 146.217L139.089 146.983L138.716 147.501ZM225.921 145.989L225.506 145.492L226.482 144.685L226.897 145.182L225.921 145.989ZM136.743 145.989L135.747 145.161L136.162 144.685L137.158 145.492L136.743 145.989ZM227.873 144.395L227.458 143.919L228.413 143.07L228.849 143.546L227.873 144.395ZM134.771 144.395L133.816 143.546L134.252 143.07L135.207 143.919L134.771 144.395ZM229.783 142.738L229.347 142.283L230.261 141.392L230.717 141.869L229.783 142.738ZM132.861 142.738L131.947 141.848L132.383 141.392L133.317 142.262L132.861 142.738ZM231.631 141.02L231.174 140.564L232.067 139.653L232.524 140.109L231.631 141.02ZM131.033 141.02L130.141 140.109L130.597 139.653L131.49 140.585L131.033 141.02ZM233.396 139.26L232.939 138.825L233.79 137.873L234.268 138.307L233.396 139.26ZM129.248 139.26L128.396 138.328L128.874 137.893L129.725 138.846L129.248 139.26ZM235.14 137.438L234.642 137.024L235.472 136.051L235.97 136.465L235.14 137.438ZM127.566 137.438C127.296 137.107 127.026 136.775 126.735 136.465L127.234 136.051L128.064 137.024L127.566 137.438ZM236.78 135.554L236.282 135.14C236.552 134.829 236.801 134.477 237.071 134.146L237.569 134.539L236.78 135.554ZM125.946 134.725L125.157 133.711L125.676 133.317L126.465 134.311L125.946 134.725ZM238.358 132.655L237.86 132.282L238.607 131.247L239.126 131.62C238.815 132.096 238.566 132.448 238.296 132.779L238.358 132.655ZM124.389 132.655L123.642 131.62L124.161 131.268L124.908 132.282L124.389 132.655ZM239.853 130.584L239.334 130.232L240.04 129.176L240.58 129.528L239.853 130.584ZM122.832 130.584L122.126 129.528L122.666 129.176L123.372 130.232L122.832 130.584ZM241.182 128.514L240.642 128.162L241.307 127.085L241.846 127.416L241.182 128.514ZM121.399 128.514L120.714 127.437L121.254 127.106L121.939 128.183L121.399 128.514ZM242.511 126.443L241.95 126.133L242.594 125.035L243.155 125.346L242.511 126.443ZM120.008 126.443C119.78 126.071 119.572 125.698 119.364 125.325L119.925 125.015L120.548 126.112L120.008 126.443ZM243.715 124.249L243.134 123.959C243.341 123.586 243.549 123.213 243.736 122.82L244.317 123.11L243.715 124.249ZM118.742 124.249C118.555 123.855 118.347 123.483 118.16 123.11L118.721 122.82C118.908 123.193 119.115 123.565 119.323 123.938L118.742 124.249ZM244.878 122.012L244.317 121.723C244.504 121.35 244.67 120.956 244.857 120.584L245.438 120.853L244.878 122.012ZM117.579 122.012L117.039 120.853L117.62 120.584C117.786 120.956 117.973 121.35 118.16 121.723L117.579 122.012ZM245.978 119.714L245.397 119.466L245.895 118.286L246.497 118.534C246.373 118.7 246.248 119.093 246.082 119.486L245.978 119.714ZM116.499 119.714L115.98 118.534L116.582 118.286L117.08 119.445L116.499 119.714ZM246.975 117.374L246.394 117.126L246.85 115.946L247.452 116.174C247.39 116.339 247.245 116.733 247.079 117.126L246.975 117.374ZM115.502 117.374L115.025 116.194L115.627 115.946C115.772 116.36 115.939 116.753 116.105 117.147L115.502 117.374ZM247.889 114.993L247.286 114.766L247.722 113.565L248.325 113.772L247.889 114.993ZM114.589 114.993C114.444 114.6 114.298 114.186 114.174 113.793L114.776 113.585C114.9 113.979 115.046 114.393 115.191 114.786L114.589 114.993ZM248.719 112.571L248.117 112.385L248.491 111.163L249.114 111.349C249.093 111.474 248.968 111.95 248.823 112.281L248.719 112.571ZM113.758 112.571L113.385 111.349L113.987 111.163C114.111 111.577 114.236 111.97 114.381 112.385L113.758 112.571ZM249.57 109.879L248.947 109.714C249.072 109.299 249.176 108.906 249.28 108.492L249.903 108.637C249.799 109.01 249.674 109.403 249.57 109.879ZM113.135 109.879C113.011 109.465 112.907 109.072 112.803 108.637L113.426 108.492L113.738 109.714L113.135 109.879ZM250.172 107.395L249.55 107.25C249.55 106.836 249.736 106.421 249.84 106.028L250.463 106.152C250.401 106.504 250.318 106.918 250.214 107.333L250.172 107.395ZM112.45 107.395C112.346 106.98 112.243 106.566 112.16 106.152L112.783 106.007C112.783 106.421 112.969 106.836 113.073 107.25L112.45 107.395ZM111.89 104.889L111.641 103.626L112.284 103.523C112.284 103.937 112.43 104.351 112.513 104.765L111.89 104.889ZM250.733 104.889L250.089 104.765L250.339 103.523L250.961 103.626C250.92 103.999 250.858 104.413 250.775 104.827L250.733 104.889ZM251.19 102.384L250.546 102.26C250.546 101.846 250.692 101.431 250.754 101.017H251.377L251.19 102.384ZM111.433 102.384C111.433 101.949 111.288 101.535 111.225 101.1H111.869L112.056 102.342L111.433 102.384ZM111.059 99.8373C111.059 99.4025 110.955 98.9883 110.914 98.5535H111.537C111.537 98.9677 111.641 99.4024 111.682 99.8165L111.059 99.8373ZM251.564 99.8373H250.92C250.92 99.4231 251.024 98.9883 251.065 98.5741H251.709C251.709 98.9261 251.647 99.3403 251.605 99.7751L251.564 99.8373ZM251.834 97.2904H251.19C251.19 96.8763 251.19 96.4416 251.19 96.0274H251.834C251.937 96.3794 251.917 96.7936 251.875 97.2284L251.834 97.2904ZM110.789 97.2904C110.789 96.8556 110.789 96.4415 110.789 96.0067H111.433C111.433 96.4208 111.433 96.8556 111.433 97.2697L110.789 97.2904ZM251.979 94.723H251.335V93.4393H251.958C252.103 93.812 252.083 94.2469 252.062 94.661L251.979 94.723ZM110.561 94.723V93.4393H111.205C111.205 93.8741 111.205 94.2882 111.205 94.723H110.561ZM110.457 92.1763V90.8926H111.101V92.1556L110.457 92.1763ZM252.062 92.1763H251.439V90.9133H252.083C252.166 91.2446 252.166 91.6793 252.145 92.1141L252.062 92.1763ZM111.101 89.6089H110.457C110.457 89.1741 110.457 88.7393 110.457 88.3252H111.101C111.205 88.6979 111.205 89.174 111.184 89.5467L111.101 89.6089ZM251.439 89.6089C251.439 89.1741 251.439 88.7599 251.439 88.3458H252.062C252.062 88.7599 252.062 89.1948 252.062 89.6089H251.439ZM111.267 87.1035H110.644C110.644 86.6687 110.644 86.2546 110.644 85.8198H111.288C111.412 86.1718 111.412 86.5859 111.267 87.1035ZM251.418 87.1035C251.418 86.6894 251.418 86.2546 251.418 85.8405H252.062C252.062 86.2753 252.062 86.6894 252.062 87.1242L251.418 87.1035ZM111.412 84.4739H110.789C110.789 84.0598 110.789 83.625 110.914 83.2109H111.537L111.412 84.4739ZM251.19 84.4739L251.065 83.2109H251.709L251.834 84.4739H251.19ZM111.682 81.9479H111.059C111.059 81.5338 111.059 81.0991 111.225 80.685H111.869L111.682 81.9479ZM250.92 81.9479C250.92 81.5131 250.92 81.1198 250.754 80.685H251.377L251.564 81.9479H250.92ZM112.056 79.4218H111.433C111.433 78.987 111.578 78.573 111.641 78.1589L112.284 78.2624C112.243 78.5936 112.16 79.0285 112.097 79.4218H112.056ZM250.546 79.4218C250.546 79.0077 250.422 78.5937 250.339 78.1796L250.961 78.0554C250.961 78.4902 251.107 78.9042 251.19 79.3183L250.546 79.4218ZM112.513 76.9373L111.89 76.8131C111.89 76.399 112.056 75.9641 112.16 75.55L112.783 75.6949C112.72 76.109 112.637 76.5232 112.554 76.9373H112.513ZM250.089 76.9373L249.84 75.6949L250.463 75.55C250.463 75.9641 250.629 76.3783 250.733 76.8131L250.089 76.9373ZM113.052 74.4527L112.43 74.3077C112.43 73.8936 112.616 73.4794 112.741 73.0653L113.364 73.2103C113.281 73.6244 113.198 74.0386 113.115 74.4527H113.052ZM249.529 74.4527L249.217 73.2103L249.84 73.0447L250.152 74.3077L249.529 74.4527ZM113.738 71.9888L113.135 71.8231C113.239 71.409 113.364 70.9949 113.488 70.5808L114.091 70.7671L113.738 71.9888ZM248.947 71.9888C248.947 71.5747 248.719 71.1605 248.594 70.7671L249.217 70.5808C249.217 70.9949 249.446 71.409 249.57 71.8231L248.947 71.9888ZM114.485 69.5663L113.862 69.3592C113.987 68.9451 114.132 68.5517 114.277 68.1376L114.88 68.3446C114.734 68.738 114.61 69.1522 114.485 69.5663ZM248.221 69.5663C248.096 69.1522 247.951 68.7587 247.826 68.3446L248.428 68.1376C248.574 68.5517 248.698 68.9451 248.823 69.3592L248.221 69.5663ZM247.39 67.1437C247.266 66.7503 247.1 66.3569 246.954 65.9635L247.556 65.7358C247.702 66.1292 247.868 66.5226 248.013 66.9367L247.39 67.1437ZM115.295 67.1437L114.693 66.916C114.838 66.5226 114.983 66.1291 115.15 65.715L115.731 65.9429L115.295 67.1437ZM246.497 64.7627C246.331 64.39 246.165 63.9966 246.02 63.6032L246.601 63.3547L247.1 64.5348L246.497 64.7627ZM116.208 64.7627L115.606 64.5142L116.105 63.334L116.686 63.5825C116.541 63.9759 116.375 64.3279 116.208 64.7627ZM245.501 62.4437C245.335 62.0503 245.169 61.6776 244.982 61.2842L245.563 61.015C245.75 61.4084 245.916 61.8018 246.082 62.1745L245.501 62.4437ZM117.205 62.4437L116.624 62.1951L117.143 61.015L117.745 61.2842L117.205 62.4437ZM244.442 60.1868L243.86 59.048L244.442 58.7581L245.002 59.9176L244.442 60.1868ZM118.285 60.1868L117.703 59.8969L118.285 58.7581L118.845 59.048L118.285 60.1868ZM243.279 57.9713L242.677 56.8533L243.217 56.5426C243.445 56.9153 243.632 57.288 243.84 57.6814L243.279 57.9713ZM119.447 57.9713L118.887 57.6814C119.095 57.3087 119.281 56.9153 119.51 56.5426L120.05 56.874L119.447 57.9713ZM241.95 55.9008L241.307 54.8035L241.846 54.4721L242.511 55.5903L241.95 55.9008ZM120.61 55.9008L120.05 55.5696L120.714 54.4721L121.275 54.8035C121.129 54.8863 120.901 55.2382 120.693 55.6109L120.61 55.9008ZM240.642 53.8303L239.957 52.7743L240.476 52.4223C240.725 52.7743 240.954 53.1264 241.182 53.499L240.642 53.8303ZM121.939 53.8303L121.399 53.499L122.084 52.4016L122.624 52.7536L121.939 53.8303ZM239.23 51.7598C239.002 51.4078 238.753 51.0558 238.504 50.7245L239.023 50.3518L239.77 51.3871L239.23 51.7598ZM123.351 51.7598L122.811 51.4078L123.559 50.3518L124.078 50.7245C123.87 50.621 123.662 50.9523 123.434 51.3043L123.351 51.7598ZM237.777 49.6892C237.507 49.358 237.258 49.006 237.009 48.6747L237.507 48.2813C237.777 48.6126 238.026 48.9646 238.275 49.3166L237.777 49.6892ZM124.825 49.6892L124.306 49.3166C124.555 48.9646 124.825 48.6333 125.074 48.302L125.593 48.6747C125.407 48.5505 125.157 48.9025 124.908 49.2338L124.825 49.6892ZM236.22 47.7637L235.41 46.7699L235.908 46.3557L236.718 47.3703L236.22 47.7637ZM126.382 47.7637L125.884 47.3703C126.133 47.0183 126.403 46.7077 126.694 46.3557L127.171 46.7699L126.382 47.7637ZM234.6 45.8796C234.309 45.569 234.039 45.2376 233.77 44.9271L234.247 44.4922L235.078 45.4654L234.6 45.8796ZM128.002 45.8796L127.524 45.4654L128.355 44.4922L128.832 44.9271L128.002 45.8796ZM232.918 44.0575L232.046 43.1465L232.503 42.6909L233.375 43.6226L232.918 44.0575ZM129.704 44.0575L129.227 43.6226L130.099 42.6702L130.577 43.1257C130.311 43.1997 130.048 43.2825 129.788 43.3742L129.704 44.0575ZM231.153 42.2975L230.24 41.3864L230.697 40.931L231.61 41.842L231.153 42.2975ZM131.49 42.2975L131.033 41.842C131.324 41.5314 131.635 41.2416 131.947 40.9517L132.383 41.4072L131.49 42.2975ZM229.347 40.5996L228.413 39.7301L228.828 39.2746C229.16 39.5438 229.472 39.8336 229.783 40.1235L229.347 40.5996ZM133.297 40.5996L132.881 40.1442L133.816 39.2746L134.252 39.7508L133.297 40.5996ZM227.458 38.964L226.482 38.1564L226.897 37.6595C227.229 37.9287 227.561 38.1979 227.873 38.4878L227.458 38.964ZM135.186 38.964L134.771 38.4878L135.747 37.6595L136.162 38.1357L135.186 38.964ZM225.506 37.3904L224.509 36.6035L224.904 36.1066L225.9 36.8934L225.506 37.3904ZM137.138 37.3904L136.743 36.8934C137.075 36.6243 137.408 36.3551 137.761 36.1066L138.134 36.6035L137.138 37.3904ZM223.492 35.8789L222.474 35.1336L222.848 34.6159L223.886 35.382L223.492 35.8789ZM139.152 35.8789L138.778 35.3613L139.795 34.5952L140.169 35.1128L139.152 35.8789ZM221.436 34.4295L220.377 33.7255L220.73 33.1873C221.083 33.4357 221.457 33.6634 221.789 33.9119L221.436 34.4295ZM141.207 34.4295L140.854 33.8912L141.913 33.1873L142.266 33.7049L141.207 34.4295ZM219.318 33.063L218.239 32.3797L218.571 31.8414L219.651 32.5247L219.318 33.063ZM143.325 33.063L142.972 32.5247C143.346 32.2762 143.699 32.0484 144.073 31.8414L144.405 32.3797L143.325 33.063ZM217.138 31.7586C216.785 31.5308 216.412 31.3238 216.038 31.1167L216.349 30.5577L217.47 31.1995L217.138 31.7586ZM145.485 31.7586L145.173 31.1995L146.274 30.5784L146.585 31.1167L145.485 31.7586ZM214.937 30.5369C214.564 30.3299 214.19 30.1229 213.795 29.9365L214.086 29.3775C214.481 29.5638 214.854 29.7708 215.228 29.9779L214.937 30.5369ZM147.685 30.5369L147.395 29.9573L148.516 29.3567L148.827 29.9365L147.685 30.5369ZM212.674 29.3775L211.511 28.8184L211.802 28.2387L212.944 28.7978L212.674 29.3775ZM149.949 29.3775L149.658 28.7978L150.862 27.0585L151.132 27.6383L149.949 29.3775ZM210.369 28.3007L209.186 27.7831L209.456 27.1827L210.619 27.7211L210.369 28.3007ZM152.233 28.3007L151.983 27.7211L153.146 27.2034L153.395 27.7831L152.233 28.3007ZM208.023 27.3069L206.84 26.8308L207.068 26.2302L208.252 26.7065L208.023 27.3069ZM154.579 27.3069L154.33 26.7065L155.513 26.2302L155.762 26.81L154.579 27.3069ZM205.635 26.3752L204.431 25.9405L204.639 25.3399L205.864 25.7748L205.635 26.3752ZM156.946 26.3752L156.717 25.7748L157.942 25.3399L158.15 25.9405L156.946 26.3752ZM159.354 25.5263L159.147 24.9258L160.372 24.5325L160.579 25.1536L159.354 25.5263ZM203.227 25.5263L202.002 25.1536L202.189 24.5325L203.414 24.9258L203.227 25.5263ZM161.701 24.781L161.534 24.1804L162.759 23.8285L162.926 24.4496L161.701 24.781ZM200.694 24.781L199.469 24.4496L199.635 23.8285L200.86 24.1804L200.694 24.781ZM164.317 22.9175L164.151 22.2963L165.396 22.0064L165.542 22.6275L164.317 22.9175ZM198.389 22.9175L197.143 22.6275L197.289 22.0064L198.534 22.2963L198.389 22.9175ZM166.788 22.3584L166.663 21.7372L167.93 21.4681L168.054 22.1099C167.618 22.172 167.203 22.2756 166.788 22.3584ZM195.856 22.3584L194.61 22.1099L194.735 21.4681L195.981 21.7165L195.856 22.3584ZM169.258 21.8822V21.2403L170.525 21.0333V21.6752L169.258 21.8822ZM193.344 21.8822L192.098 21.6752L192.202 21.0333L193.468 21.2403L193.344 21.8822ZM171.771 21.4888V20.8469L173.058 20.702V21.3231L171.771 21.4888ZM190.831 21.4888L189.565 21.3231V20.702L190.831 20.8469V21.4888ZM174.221 21.1989V20.557L175.508 20.4328V21.0747L174.221 21.1989ZM188.215 21.1989L186.949 21.0747V20.4328L188.215 20.557V21.1989ZM185.682 20.9919H184.415V20.35C184.852 20.35 185.267 20.35 185.703 20.35L185.682 20.9919ZM176.775 20.9919V20.35H178.083V20.8469C177.686 20.8766 177.291 20.925 176.899 20.9919H176.775ZM183.253 20.8469H182.007V20.2051H183.294L183.253 20.8469ZM179.432 20.8469V20.2051H180.72V20.8469H179.432Z" fill="white"/>
<path d="M183.085 176.715C182.089 176.715 181.487 176.715 181.341 176.715C181.196 176.715 180.594 176.715 179.597 176.715C170.856 176.715 126.34 174.645 106.199 134.539H42.3318V133.897C42.3318 133.11 42.3318 114.6 22.067 113.565H21.4648V68.1166H22.067C42.4149 66.7708 42.3318 48.5709 42.3318 47.7841V47.1423H106.199C126.34 7.01562 170.856 4.96582 179.597 4.96582C180.594 4.96582 181.196 4.96582 181.341 4.96582C181.487 4.96582 182.089 4.96582 183.085 4.96582C191.827 4.96582 236.343 7.03633 256.483 47.1423H320.33V47.7634C320.389 53.1163 322.539 58.2354 326.323 62.0323C330.107 65.8292 335.228 68.0046 340.595 68.0959H341.197V113.502H340.574C320.558 114.455 320.33 133.048 320.33 133.856V134.477H256.483C236.343 174.665 191.827 176.715 183.085 176.715ZM181.341 175.411H183.085C191.723 175.411 235.803 173.34 255.528 133.607L255.694 133.255H319.043C319.271 129.797 321.348 113.523 339.806 112.301V69.2968C321.389 67.5576 319.23 51.7595 319.043 48.3638H255.694L255.528 48.0118C235.803 8.21649 191.723 6.20808 183.085 6.20808C182.006 6.20808 181.383 6.20808 181.383 6.20808C181.383 6.20808 180.76 6.20808 179.66 6.20808C171.022 6.20808 126.963 8.2786 107.238 48.0118L107.051 48.3638H43.6192C43.4323 51.8009 41.5428 67.7438 22.856 69.3174V112.322C41.5428 113.627 43.6192 129.797 43.6192 133.276H106.988L107.175 133.628C126.9 173.423 170.96 175.432 179.597 175.432H181.341V175.411Z" fill="#4355E6"/>
<path d="M155.016 49.8237C155.016 49.522 155.282 49.2918 155.584 49.2823C156.285 49.2601 156.968 49.0297 157.543 48.6141C158.16 48.1681 158.613 47.5374 158.839 46.8194C158.911 46.5903 159.114 46.418 159.354 46.418H160.745C161.021 46.418 161.245 46.6418 161.245 46.918V68.4867C161.245 68.7628 161.021 68.9867 160.745 68.9867H158.277C158.001 68.9867 157.777 68.7628 157.777 68.4867V52.2599C157.777 51.9838 157.553 51.7599 157.277 51.7599H155.516C155.239 51.7599 155.016 51.5361 155.016 51.2599V49.8237Z" fill="white"/>
<path d="M165.398 51.9048C165.398 51.1978 165.538 50.4978 165.809 49.8446C166.081 49.1915 166.478 48.598 166.98 48.0981C167.481 47.5982 168.076 47.2017 168.731 46.9312C169.386 46.6607 170.088 46.5215 170.797 46.5215C171.506 46.5215 172.208 46.6607 172.863 46.9312C173.518 47.2017 174.113 47.5982 174.614 48.0981C175.115 48.598 175.513 49.1915 175.784 49.8446C176.056 50.4978 176.195 51.1978 176.195 51.9048V63.6446C176.195 64.3515 176.056 65.0516 175.784 65.7047C175.513 66.3579 175.115 66.9513 174.614 67.4512C174.113 67.9511 173.518 68.3476 172.863 68.6182C172.208 68.8887 171.506 69.028 170.797 69.028C170.088 69.028 169.386 68.8887 168.731 68.6182C168.076 68.3476 167.481 67.9511 166.98 67.4512C166.478 66.9513 166.081 66.3579 165.809 65.7047C165.538 65.0516 165.398 64.3515 165.398 63.6446V51.9048ZM168.97 63.8724C168.97 65.4874 169.676 66.1085 170.797 66.1085C171.918 66.1085 172.645 65.4874 172.645 63.8724V51.6978C172.645 50.0828 171.939 49.4616 170.797 49.4616C169.655 49.4616 168.97 50.0828 168.97 51.6978V63.8724Z" fill="white"/>
<path d="M178.148 51.9048C178.148 50.477 178.717 49.1077 179.73 48.0981C180.742 47.0886 182.115 46.5215 183.547 46.5215C184.979 46.5215 186.352 47.0886 187.364 48.0981C188.377 49.1077 188.945 50.477 188.945 51.9048V63.6446C188.945 65.0723 188.377 66.4417 187.364 67.4512C186.352 68.4608 184.979 69.028 183.547 69.028C182.115 69.028 180.742 68.4608 179.73 67.4512C178.717 66.4417 178.148 65.0723 178.148 63.6446V51.9048ZM181.699 63.8724C181.699 65.4874 182.405 66.1085 183.547 66.1085C184.689 66.1085 185.395 65.4874 185.395 63.8724V51.6978C185.395 50.0828 184.689 49.4616 183.547 49.4616C182.405 49.4616 181.699 50.0828 181.699 51.6978V63.8724Z" fill="white"/>
<path d="M191.062 49.8345C191.062 48.9284 191.423 48.0594 192.066 47.4187C192.708 46.778 193.58 46.4181 194.488 46.4181C195.397 46.4181 196.268 46.778 196.911 47.4187C197.553 48.0594 197.914 48.9284 197.914 49.8345V57.2677C197.914 58.1738 197.553 59.0426 196.911 59.6833C196.268 60.324 195.397 60.684 194.488 60.684C193.58 60.684 192.708 60.324 192.066 59.6833C191.423 59.0426 191.062 58.1738 191.062 57.2677V49.8345ZM193.305 57.4332C193.305 58.4271 193.741 58.8412 194.468 58.8412C195.194 58.8412 195.651 58.4271 195.651 57.4332V49.6895C195.651 48.675 195.194 48.2609 194.468 48.2609C193.741 48.2609 193.305 48.675 193.305 49.6895V57.4332ZM203.271 46.7137C203.346 46.5228 203.531 46.3975 203.736 46.3975H204.737C205.09 46.3975 205.332 46.7531 205.202 47.0812L196.669 68.6705C196.594 68.8614 196.409 68.9868 196.204 68.9868H195.203C194.85 68.9868 194.608 68.6311 194.738 68.303L203.271 46.7137ZM202.275 58.1165C202.275 57.6679 202.363 57.2237 202.535 56.8092C202.708 56.3947 202.96 56.018 203.278 55.7008C203.596 55.3835 203.974 55.1319 204.389 54.9602C204.805 54.7885 205.251 54.7001 205.701 54.7001C206.15 54.7001 206.596 54.7885 207.012 54.9602C207.427 55.1319 207.805 55.3835 208.123 55.7008C208.441 56.018 208.694 56.3947 208.866 56.8092C209.038 57.2237 209.126 57.6679 209.126 58.1165V65.529C209.126 65.9777 209.038 66.4219 208.866 66.8364C208.694 67.2509 208.441 67.6274 208.123 67.9447C207.805 68.2619 207.427 68.5137 207.012 68.6854C206.596 68.857 206.15 68.9453 205.701 68.9453C205.251 68.9453 204.805 68.857 204.389 68.6854C203.974 68.5137 203.596 68.2619 203.278 67.9447C202.96 67.6274 202.708 67.2509 202.535 66.8364C202.363 66.4219 202.275 65.9777 202.275 65.529V58.1165ZM204.538 65.6946C204.538 66.6884 204.953 67.1232 205.701 67.1232C206.448 67.1232 206.863 66.6884 206.863 65.6946V57.9509C206.863 56.957 206.406 56.5429 205.701 56.5429C204.995 56.5429 204.538 56.957 204.538 57.9509V65.6946Z" fill="white"/>
<path d="M126.245 94.3216C126.337 94.884 127.148 94.8794 127.233 94.3159L129.122 81.8557C129.159 81.6113 129.369 81.4307 129.616 81.4307H133.628C133.904 81.4307 134.128 81.6545 134.128 81.9307V103.499C134.128 103.775 133.904 103.999 133.628 103.999H131.264C130.988 103.999 130.764 103.775 130.764 103.499V94.4663C130.764 93.848 129.863 93.78 129.77 94.3914L128.379 103.574C128.342 103.819 128.132 103.999 127.884 103.999H125.374C125.13 103.999 124.921 103.823 124.881 103.581L123.286 94.0143C123.185 93.4089 122.293 93.4828 122.293 94.0965V103.499C122.293 103.775 122.069 103.999 121.793 103.999H119.699C119.423 103.999 119.199 103.775 119.199 103.499V81.9307C119.199 81.6545 119.423 81.4307 119.699 81.4307H123.716C123.961 81.4307 124.17 81.6083 124.209 81.8501L126.245 94.3216Z" fill="white"/>
<path d="M136.328 86.814C136.328 85.3862 136.897 84.017 137.909 83.0074C138.922 81.9979 140.295 81.4307 141.727 81.4307C143.158 81.4307 144.531 81.9979 145.544 83.0074C146.556 84.017 147.125 85.3862 147.125 86.814V98.5539C147.125 99.9816 146.556 101.351 145.544 102.36C144.531 103.37 143.158 103.937 141.727 103.937C140.295 103.937 138.922 103.37 137.909 102.36C136.897 101.351 136.328 99.9816 136.328 98.5539V86.814ZM139.879 98.7816C139.879 100.397 140.605 100.997 141.727 100.997C142.848 100.997 143.574 100.397 143.574 98.7816V86.5862C143.574 84.9712 142.869 84.3708 141.727 84.3708C140.585 84.3708 139.879 84.9712 139.879 86.5862V98.7816Z" fill="white"/>
<path d="M153.653 91.2507C153.5 90.6871 152.67 90.7974 152.67 91.3813V103.457C152.67 103.734 152.446 103.957 152.17 103.957H149.973C149.697 103.957 149.473 103.734 149.473 103.457V81.8887C149.473 81.6125 149.697 81.3887 149.973 81.3887H153.554C153.78 81.3887 153.978 81.5401 154.037 81.7582L156.608 91.2734C156.761 91.8372 157.591 91.727 157.591 91.1429V81.8887C157.591 81.6125 157.815 81.3887 158.091 81.3887H160.268C160.544 81.3887 160.768 81.6125 160.768 81.8887V103.457C160.768 103.734 160.544 103.957 160.268 103.957H157.475C157.25 103.957 157.052 103.806 156.993 103.588L153.653 91.2507Z" fill="white"/>
<path d="M166.864 90.4197C166.868 90.6933 167.091 90.9131 167.364 90.9131H171.25C171.526 90.9131 171.75 91.137 171.75 91.4131V93.6224C171.75 93.8986 171.526 94.1224 171.25 94.1224H167.371C167.095 94.1224 166.871 94.3463 166.871 94.6224V100.248C166.871 100.524 167.095 100.748 167.371 100.748H172.6C172.876 100.748 173.1 100.972 173.1 101.248V103.457C173.1 103.734 172.876 103.957 172.6 103.957H163.82C163.544 103.957 163.32 103.734 163.32 103.457V81.8887C163.32 81.6125 163.544 81.3887 163.82 81.3887H172.517C172.793 81.3887 173.017 81.6125 173.017 81.8887V84.1187C173.017 84.3948 172.793 84.6187 172.517 84.6187H167.294C167.016 84.6187 166.791 84.8466 166.794 85.1253L166.864 90.4197Z" fill="white"/>
<path d="M178.541 96.5559C178.541 96.5074 178.534 96.4593 178.52 96.4128L174.227 82.0317C174.131 81.711 174.372 81.3887 174.706 81.3887H177.469C177.697 81.3887 177.896 81.5423 177.953 81.7625L180.073 89.8927C180.203 90.3907 180.909 90.3914 181.04 89.8936L183.177 81.7616C183.235 81.5419 183.433 81.3887 183.66 81.3887H186.002C186.339 81.3887 186.579 81.7148 186.479 82.0365L182.031 96.4106C182.016 96.4585 182.008 96.5083 182.008 96.5584V103.457C182.008 103.734 181.784 103.957 181.508 103.957H179.041C178.765 103.957 178.541 103.734 178.541 103.457V96.5559Z" fill="white"/>
<path d="M203.642 86.5857V87.3567C203.642 87.381 203.644 87.4053 203.648 87.4294C203.771 88.3189 203.621 89.225 203.218 90.0286C202.963 90.5379 202.613 90.9907 202.191 91.3649C201.88 91.6405 201.904 92.2122 202.237 92.46C202.756 92.8457 203.19 93.3399 203.505 93.9124C203.98 94.7731 204.161 95.7638 204.022 96.7353C204.018 96.7602 204.016 96.7852 204.016 96.8102V98.6154C204.104 99.3417 204.025 100.078 203.784 100.769C203.544 101.461 203.148 102.088 202.627 102.603C202.106 103.118 201.474 103.508 200.78 103.743C200.085 103.978 199.345 104.051 198.618 103.957H193.512C193.236 103.957 193.012 103.734 193.012 103.457V81.8887C193.012 81.6125 193.236 81.3887 193.512 81.3887H198.389C202.064 81.3887 203.642 83.1072 203.642 86.5857ZM197.062 84.5152C196.786 84.5152 196.562 84.739 196.562 85.0152V89.9783C196.562 90.2544 196.786 90.4783 197.062 90.4783H197.953C199.282 90.4783 200.03 89.8985 200.03 88.0971V86.8341C200.03 85.2191 199.49 84.5152 198.223 84.5152H197.062ZM197.031 93.6787C196.767 93.6953 196.562 93.9138 196.562 94.1777V100.144C196.562 100.421 196.786 100.644 197.062 100.644H198.639C199.843 100.644 200.486 100.086 200.486 98.4084V96.3379C200.486 94.2674 199.822 93.6048 198.203 93.6048L197.031 93.6787Z" fill="white"/>
<path d="M217.542 103.377C217.592 103.681 217.357 103.957 217.049 103.957H214.497C214.249 103.957 214.039 103.776 214.002 103.532L213.507 100.242C213.47 99.9973 213.26 99.8163 213.013 99.8163H209.43C209.183 99.8163 208.973 99.9973 208.936 100.242L208.441 103.532C208.404 103.776 208.194 103.957 207.947 103.957H205.704C205.396 103.957 205.161 103.682 205.21 103.378L208.663 81.8096C208.701 81.5671 208.911 81.3887 209.156 81.3887H213.517C213.762 81.3887 213.971 81.5661 214.01 81.8079L217.542 103.377ZM209.625 96.2404C209.58 96.5425 209.814 96.8141 210.12 96.8141H212.385C212.69 96.8141 212.925 96.5419 212.879 96.2395L211.74 88.6836C211.654 88.1158 210.835 88.1165 210.751 88.6845L209.625 96.2404Z" fill="white"/>
<path d="M229.079 95.5515C229.355 95.5515 229.579 95.7753 229.579 96.0515V98.5538C229.579 102.156 227.772 104.227 224.284 104.227C220.796 104.227 218.969 102.156 218.969 98.5538V86.8138C218.969 83.2111 220.775 81.1406 224.284 81.1406C227.793 81.1406 229.579 83.2111 229.579 86.8138V88.5086C229.579 88.7847 229.355 89.0086 229.079 89.0086H226.715C226.439 89.0086 226.215 88.7847 226.215 88.5086V86.5861C226.215 84.9711 225.509 84.3706 224.367 84.3706C223.225 84.3706 222.54 84.9711 222.54 86.5861V98.7815C222.54 100.396 223.246 100.976 224.367 100.976C225.488 100.976 226.215 100.396 226.215 98.7815V96.0515C226.215 95.7753 226.439 95.5515 226.715 95.5515H229.079Z" fill="white"/>
<path d="M236.787 95.9721C236.629 95.577 236.081 95.5474 235.881 95.9232L235.345 96.9325C235.307 97.0048 235.287 97.0853 235.287 97.1672V103.479C235.287 103.755 235.063 103.979 234.787 103.979H232.34C232.064 103.979 231.84 103.755 231.84 103.479V81.9102C231.84 81.634 232.064 81.4102 232.34 81.4102H234.89C235.166 81.4102 235.39 81.634 235.39 81.9102V89.0272C235.39 89.5603 236.113 89.7233 236.342 89.2417L239.926 81.6956C240.009 81.5213 240.185 81.4102 240.378 81.4102H242.81C243.18 81.4102 243.422 81.7983 243.259 82.1306L238.769 91.2737C238.706 91.4005 238.701 91.5477 238.753 91.6789L243.34 103.211C243.471 103.539 243.229 103.896 242.876 103.896H240.297C240.092 103.896 239.908 103.772 239.833 103.582L236.787 95.9721Z" fill="white"/>
<path d="M143.846 127.606C143.846 127.329 144.069 127.106 144.346 127.106H146.585C146.861 127.106 147.085 127.329 147.085 127.606V131.785C147.122 132.26 147.06 132.738 146.903 133.188C146.746 133.638 146.497 134.051 146.173 134.401C145.848 134.751 145.454 135.03 145.016 135.221C144.578 135.412 144.106 135.51 143.628 135.51C143.15 135.51 142.677 135.412 142.239 135.221C141.801 135.03 141.407 134.751 141.083 134.401C140.758 134.051 140.509 133.638 140.353 133.188C140.196 132.738 140.134 132.26 140.171 131.785V124.145C140.171 121.784 141.354 120.438 143.638 120.438C145.922 120.438 147.085 121.784 147.085 124.145V125.073C147.085 125.35 146.861 125.573 146.585 125.573H145.384C145.108 125.573 144.884 125.35 144.884 125.073V123.979C144.884 122.944 144.427 122.55 143.7 122.55C142.974 122.55 142.496 122.944 142.496 123.979V131.909C142.496 132.965 142.953 133.359 143.7 133.359C144.448 133.359 144.884 132.965 144.884 131.909V129.718C144.884 129.441 144.66 129.218 144.384 129.218H144.346C144.069 129.218 143.846 128.994 143.846 128.718V127.606Z" fill="white"/>
<path d="M150.366 120.604C150.642 120.604 150.866 120.828 150.866 121.104V131.951C150.866 132.986 151.322 133.38 152.07 133.38C152.817 133.38 153.274 132.986 153.274 131.951V121.104C153.274 120.828 153.498 120.604 153.774 120.604H154.85C155.127 120.604 155.35 120.828 155.35 121.104V131.785C155.35 134.146 154.167 135.492 151.904 135.492C149.641 135.492 148.457 134.146 148.457 131.785V121.104C148.457 120.828 148.681 120.604 148.957 120.604H150.366Z" fill="white"/>
<path d="M164.349 134.724C164.398 135.028 164.164 135.304 163.856 135.304H162.528C162.28 135.304 162.07 135.123 162.033 134.878L161.766 133.08C161.729 132.835 161.519 132.654 161.271 132.654H159.289C159.041 132.654 158.831 132.835 158.794 133.081L158.526 134.898C158.49 135.143 158.279 135.325 158.031 135.325H156.973C156.665 135.325 156.431 135.05 156.479 134.746L158.666 121.045C158.704 120.803 158.914 120.624 159.159 120.624H161.65C161.895 120.624 162.105 120.802 162.144 121.044L164.349 134.724ZM159.256 130.009C159.21 130.311 159.444 130.583 159.75 130.583H160.83C161.136 130.583 161.37 130.311 161.325 130.009L160.785 126.428C160.699 125.86 159.881 125.86 159.796 126.428L159.256 130.009Z" fill="white"/>
<path d="M170.712 135.305C170.501 135.305 170.311 135.174 170.256 134.971C170.128 134.494 170.086 133.997 170.133 133.504V131.185C170.133 129.818 169.676 129.321 168.638 129.321H168.328C168.052 129.321 167.828 129.545 167.828 129.821V134.805C167.828 135.081 167.604 135.305 167.328 135.305H166.023C165.747 135.305 165.523 135.081 165.523 134.805V121.104C165.523 120.828 165.747 120.604 166.023 120.604H169.012C171.399 120.604 172.438 121.723 172.438 123.979V125.139C172.518 125.731 172.417 126.333 172.146 126.865C172.036 127.082 171.9 127.283 171.742 127.464C171.465 127.782 171.501 128.405 171.775 128.726C172.277 129.314 172.458 130.18 172.458 131.247V133.525C172.434 133.892 172.456 134.26 172.523 134.62C172.586 134.961 172.343 135.305 171.997 135.305H170.712ZM168.328 122.716C168.052 122.716 167.828 122.94 167.828 123.216V126.709C167.828 126.986 168.052 127.209 168.328 127.209H168.721C169.593 127.209 170.112 126.837 170.112 125.677V124.228C170.112 123.172 169.759 122.716 168.949 122.716H168.328Z" fill="white"/>
<path d="M181.373 134.724C181.422 135.028 181.187 135.304 180.879 135.304H179.551C179.303 135.304 179.093 135.123 179.057 134.878L178.789 133.08C178.753 132.835 178.542 132.654 178.294 132.654H176.313C176.065 132.654 175.854 132.835 175.818 133.081L175.55 134.898C175.513 135.143 175.303 135.325 175.055 135.325H173.997C173.689 135.325 173.455 135.049 173.503 134.745L175.709 121.045C175.748 120.802 175.958 120.624 176.203 120.624H178.673C178.919 120.624 179.128 120.802 179.167 121.044L181.373 134.724ZM176.258 130.009C176.213 130.311 176.447 130.583 176.753 130.583H177.833C178.139 130.583 178.373 130.311 178.327 130.009L177.787 126.428C177.702 125.861 176.884 125.861 176.798 126.428L176.258 130.009Z" fill="white"/>
<path d="M185.586 128.313C185.435 127.749 184.604 127.859 184.604 128.443V134.805C184.604 135.081 184.38 135.305 184.104 135.305H183.027C182.751 135.305 182.527 135.081 182.527 134.805V121.104C182.527 120.828 182.751 120.604 183.027 120.604H185.052C185.277 120.604 185.475 120.756 185.534 120.974L186.839 125.783C186.992 126.347 187.822 126.236 187.822 125.652V121.104C187.822 120.828 188.046 120.604 188.322 120.604H189.398C189.674 120.604 189.898 120.828 189.898 121.104V134.805C189.898 135.081 189.674 135.305 189.398 135.305H187.852C187.626 135.305 187.428 135.154 187.369 134.935L185.586 128.313Z" fill="white"/>
<path d="M190.836 121.104C190.836 120.828 191.06 120.604 191.336 120.604H197.499C197.775 120.604 197.999 120.828 197.999 121.104V122.175C197.999 122.451 197.775 122.675 197.499 122.675H196.07C195.794 122.675 195.57 122.899 195.57 123.175V134.764C195.57 135.04 195.346 135.264 195.07 135.264H193.765C193.489 135.264 193.265 135.04 193.265 134.764V123.216C193.265 122.94 193.041 122.716 192.765 122.716H191.336C191.06 122.716 190.836 122.493 190.836 122.216V121.104Z" fill="white"/>
<path d="M201.319 126.295C201.319 126.571 201.543 126.795 201.819 126.795H203.996C204.272 126.795 204.496 127.019 204.496 127.295V128.365C204.496 128.642 204.272 128.865 203.996 128.865H201.819C201.543 128.865 201.319 129.089 201.319 129.365V132.672C201.319 132.948 201.543 133.172 201.819 133.172H204.827C205.103 133.172 205.327 133.396 205.327 133.672V134.743C205.327 135.019 205.103 135.243 204.827 135.243H199.598C199.322 135.243 199.098 135.019 199.098 134.743V121.042C199.098 120.766 199.322 120.542 199.598 120.542H204.827C205.103 120.542 205.327 120.766 205.327 121.042V122.113C205.327 122.389 205.103 122.613 204.827 122.613H201.819C201.543 122.613 201.319 122.836 201.319 123.113V126.295Z" fill="white"/>
<path d="M209.002 126.295C209.002 126.571 209.226 126.795 209.502 126.795H211.679C211.955 126.795 212.179 127.019 212.179 127.295V128.365C212.179 128.642 211.955 128.865 211.679 128.865H209.502C209.226 128.865 209.002 129.089 209.002 129.365V132.672C209.002 132.948 209.226 133.172 209.502 133.172H212.655C212.931 133.172 213.155 133.396 213.155 133.672V134.743C213.155 135.019 212.931 135.243 212.655 135.243H207.426C207.15 135.243 206.926 135.019 206.926 134.743V121.042C206.926 120.766 207.15 120.542 207.426 120.542H212.655C212.931 120.542 213.155 120.766 213.155 121.042V122.113C213.155 122.389 212.931 122.613 212.655 122.613H209.502C209.226 122.613 209.002 122.836 209.002 123.113V126.295Z" fill="white"/>
<path d="M214.504 121.104C214.504 120.828 214.728 120.604 215.004 120.604H218.158C220.463 120.604 221.605 121.888 221.605 124.249V131.682C221.605 134.022 220.463 135.305 218.158 135.305H215.004C214.728 135.305 214.504 135.081 214.504 134.805V121.104ZM217.309 122.675C217.032 122.675 216.809 122.899 216.809 123.175V132.673C216.809 132.949 217.032 133.173 217.309 133.173H218.117C218.843 133.173 219.279 132.779 219.279 131.744V124.104C219.279 123.048 218.843 122.675 218.117 122.675H217.309Z" fill="white"/>
<path d="M88.823 78.4072L92.8511 86.5858L101.904 87.8902L95.3634 94.2467L96.8999 103.233L88.823 98.9882L80.7254 103.233L82.2826 94.2467L75.7422 87.8902L84.7742 86.5858L88.823 78.4072Z" fill="#29175F"/>
<path d="M61.9341 81.4512L64.9862 87.6213L71.8173 88.6152L66.8757 93.4188L68.0384 100.21L61.9341 97.0008L55.8089 100.21L56.9924 93.4188L52.0508 88.6152L58.8611 87.6213L61.9341 81.4512Z" fill="#29175F"/>
<path d="M38.6602 83.5215L41.0479 88.3251L46.3841 89.1119L42.5221 92.8388L43.4357 98.1393L38.6602 95.634L33.9054 98.1393L34.819 92.8388L30.957 89.1119L36.2932 88.3251L38.6602 83.5215Z" fill="#29175F"/>
<path d="M273.887 78.4072L269.838 86.5858L260.785 87.8902L267.326 94.2467L265.789 103.233L273.887 98.9882L281.964 103.233L280.427 94.2467L286.968 87.8902L277.915 86.5858L273.887 78.4072Z" fill="#29175F"/>
<path d="M300.775 81.4512L297.702 87.6213L290.871 88.6152L295.833 93.4188L294.65 100.21L300.775 97.0008L306.879 100.21L305.717 93.4188L310.658 88.6152L303.827 87.6213L300.775 81.4512Z" fill="#29175F"/>
<path d="M324.029 83.5215L321.641 88.3251L316.305 89.1119L320.167 92.8388L319.253 98.1393L324.029 95.634L328.804 98.1393L327.891 92.8388L331.732 89.1119L326.416 88.3251L324.029 83.5215Z" fill="#29175F"/>
<path d="M184.479 27.9074C184.483 28.5234 184.303 29.1267 183.963 29.6406C183.622 30.1545 183.136 30.5559 182.566 30.7935C181.996 31.0312 181.368 31.0943 180.762 30.9751C180.156 30.8559 179.599 30.5598 179.162 30.1242C178.725 29.6887 178.428 29.1333 178.309 28.5289C178.189 27.9245 178.253 27.2984 178.491 26.7301C178.729 26.1617 179.132 25.6769 179.647 25.3372C180.162 24.9975 180.767 24.8182 181.385 24.8223C182.204 24.8278 182.988 25.1546 183.567 25.732C184.146 26.3094 184.473 27.0908 184.479 27.9074Z" fill="white"/>
<path d="M174.946 29.7718C174.946 30.124 174.842 30.4683 174.645 30.7611C174.449 31.0539 174.17 31.2822 173.844 31.417C173.518 31.5517 173.159 31.587 172.812 31.5183C172.466 31.4496 172.148 31.2799 171.898 31.0309C171.648 30.7819 171.478 30.4646 171.409 30.1192C171.34 29.7738 171.376 29.4158 171.511 29.0904C171.646 28.765 171.875 28.4869 172.169 28.2912C172.462 28.0956 172.807 27.9912 173.161 27.9912C173.634 27.9912 174.088 28.1788 174.423 28.5128C174.758 28.8467 174.946 29.2996 174.946 29.7718Z" fill="white"/>
<path d="M191.329 29.7718C191.329 30.124 191.224 30.4683 191.028 30.7611C190.832 31.0539 190.553 31.2822 190.227 31.417C189.9 31.5517 189.541 31.587 189.195 31.5183C188.849 31.4496 188.531 31.2799 188.281 31.0309C188.031 30.7819 187.861 30.4646 187.792 30.1192C187.723 29.7738 187.759 29.4158 187.894 29.0904C188.029 28.765 188.258 28.4869 188.551 28.2912C188.845 28.0956 189.19 27.9912 189.543 27.9912C190.017 27.9912 190.471 28.1788 190.806 28.5128C191.141 28.8467 191.329 29.2996 191.329 29.7718Z" fill="white"/>
<path d="M178.227 153.733C178.227 153.122 178.408 152.526 178.748 152.019C179.088 151.511 179.571 151.116 180.136 150.882C180.702 150.649 181.324 150.588 181.924 150.707C182.524 150.826 183.075 151.12 183.508 151.551C183.941 151.983 184.235 152.532 184.355 153.131C184.474 153.729 184.413 154.349 184.178 154.913C183.944 155.477 183.548 155.959 183.039 156.298C182.53 156.637 181.932 156.818 181.32 156.818C180.5 156.818 179.713 156.493 179.133 155.914C178.553 155.335 178.227 154.551 178.227 153.733Z" fill="white"/>
<path d="M187.758 151.87C187.758 151.397 187.946 150.944 188.281 150.61C188.616 150.276 189.07 150.089 189.543 150.089C190.017 150.089 190.471 150.276 190.806 150.61C191.141 150.944 191.329 151.397 191.329 151.87C191.329 152.342 191.141 152.795 190.806 153.129C190.471 153.463 190.017 153.65 189.543 153.65C189.07 153.65 188.616 153.463 188.281 153.129C187.946 152.795 187.758 152.342 187.758 151.87Z" fill="white"/>
<path d="M171.375 151.87C171.375 151.397 171.563 150.944 171.898 150.61C172.233 150.276 172.687 150.089 173.161 150.089C173.634 150.089 174.088 150.276 174.423 150.61C174.758 150.944 174.946 151.397 174.946 151.87C174.946 152.342 174.758 152.795 174.423 153.129C174.088 153.463 173.634 153.65 173.161 153.65C172.687 153.65 172.233 153.463 171.898 153.129C171.563 152.795 171.375 152.342 171.375 151.87Z" fill="white"/>
<path d="M70.1454 193.31C69.9625 193.284 69.7538 193.181 69.4833 193.007C69.4788 193.003 69.4698 192.996 69.4551 192.983C69.4243 192.957 69.3807 192.919 69.3237 192.869C69.2102 192.769 69.0509 192.626 68.8509 192.445C68.4512 192.083 67.894 191.574 67.2265 190.962C65.8917 189.737 64.1191 188.102 62.2917 186.412C58.6361 183.032 54.7653 179.436 53.7445 178.474C53.5446 178.286 53.3536 178.12 53.1709 178C52.9927 177.884 52.7679 177.774 52.5096 177.776C52.2265 177.779 52.0042 177.914 51.8389 178.085C51.6844 178.244 51.5579 178.456 51.4438 178.684C51.2463 179.079 51.0262 179.648 50.7455 180.374C50.7022 180.487 50.6574 180.602 50.611 180.722C50.2589 181.629 49.8015 182.787 49.1626 184.226C48.8577 184.912 48.5535 185.097 48.3565 185.122C48.146 185.149 47.7855 185.032 47.2862 184.477C40.6884 177.005 38.0017 173.893 36.637 170.056L36.637 170.056L36.6353 170.052C36.5808 169.903 36.5291 169.783 36.491 169.694C36.4818 169.673 36.4734 169.653 36.4659 169.635C36.424 169.536 36.4182 169.51 36.4165 169.497L36.4164 169.496C36.4143 169.482 36.4051 169.414 36.5843 168.988C36.7392 168.62 37.0225 168.04 37.5292 167.002C38.1422 165.746 39.0821 163.821 40.517 160.791C40.8149 160.235 41.0747 160 41.4647 159.981C41.6808 159.995 41.8888 160.069 42.0644 160.196C42.2452 160.327 42.3838 160.508 42.4631 160.716L42.4672 160.727L42.4719 160.738C42.9183 161.765 43.375 162.783 43.8304 163.799L43.831 163.8C44.2842 164.811 44.7361 165.818 45.1775 166.833C45.334 167.287 45.5767 167.798 46.0661 167.998C46.5925 168.213 47.1468 167.975 47.6636 167.611C48.9706 166.704 50.2807 165.865 51.597 165.021C52.3792 164.52 53.1636 164.018 53.9508 163.499C54.8132 162.94 55.2562 162.827 55.5407 162.896C55.8146 162.962 56.1411 163.249 56.605 164.153L56.6049 164.153L56.6075 164.158C58.5129 167.769 62.9264 176.402 66.3916 183.179C68.4438 187.194 70.1635 190.557 70.8324 191.842L70.8531 191.881L70.8805 191.917C70.948 192.004 70.9975 192.104 71.026 192.21C71.0545 192.317 71.0614 192.428 71.0464 192.538C71.0313 192.647 70.9946 192.752 70.9384 192.847C70.8822 192.942 70.8076 193.025 70.719 193.091L70.7047 193.101L70.6913 193.113C70.4647 193.308 70.2944 193.331 70.1454 193.31Z" stroke="#4355E6"/>
<path d="M262.007 20.7244C262.688 20.8588 263.376 20.9492 264.067 20.995C264.879 20.995 265.375 21.1303 265.345 22.1377C265.315 23.1451 264.849 23.1151 264.127 23.2053C263.406 23.2955 261.962 23.2053 262.053 24.5434C262.143 25.8816 263.346 25.4606 264.188 25.5358C265.03 25.611 265.691 25.2201 266.278 26.2575C268.623 30.1217 274.216 31.8508 278.712 30.663C279.554 30.4374 280.501 30.1818 280.216 29.0542C279.629 26.4079 275.885 30.4675 269.946 26.3928C269.646 26.1823 269.164 25.9568 269.345 25.4907C269.525 25.0246 269.976 25.2802 270.307 25.2802H274.502C275.374 25.2802 276.201 24.9945 276.246 24.0322C276.291 23.0699 275.404 22.679 274.607 22.6489C272.863 22.6489 271.119 22.6489 269.375 22.6489C268.894 22.6489 268.172 23.1902 268.067 22.3031C267.796 19.9275 271.254 21.5964 274.337 21.3258H276.442C277.344 21.3258 278.111 21.0852 278.111 20.0478C278.111 19.0103 277.374 18.6946 276.502 18.5442C275.254 18.4389 274.021 18.3938 272.773 18.2585C271.525 18.1232 269.916 18.6946 269.766 17.9578C269.57 16.9504 271.059 16.1535 272.006 15.4468C277.329 11.5526 280.035 14.2139 280.261 12.1841C280.351 11.3571 279.735 11.0714 279.103 10.8459C278.412 10.5492 277.652 10.4503 276.908 10.5602C273.538 10.9234 270.443 12.5844 268.277 15.1912C266.608 17.4316 264.939 18.9351 261.977 18.3187C260.639 18.1232 260.143 20.4237 262.007 20.7244Z" fill="#29175F"/>
<path d="M317.844 164.561L317.843 164.558C317.538 163.114 316.958 161.742 316.136 160.516C315.326 159.326 314.272 158.321 313.044 157.567L313.042 157.566C312.212 157.052 311.318 156.65 310.384 156.37L309.963 156.243L310.034 155.809L310.644 152.106C310.672 151.937 310.666 151.764 310.628 151.596C310.589 151.429 310.517 151.272 310.418 151.133L310.417 151.132C310.318 150.994 310.192 150.875 310.046 150.785C309.9 150.694 309.738 150.633 309.569 150.605L309.569 150.605C309.4 150.577 309.227 150.583 309.06 150.622C308.893 150.661 308.735 150.732 308.596 150.832L308.596 150.832C308.315 151.034 308.125 151.339 308.069 151.681L307.456 155.393L307.385 155.825L306.948 155.812C306.004 155.782 305.06 155.865 304.135 156.058L304.134 156.058C302.696 156.354 301.336 156.949 300.142 157.803L300.133 157.81L300.133 157.809C298.879 158.666 297.81 159.767 296.991 161.045C296.13 162.389 295.557 163.897 295.311 165.474L295.31 165.484L295.308 165.493C294.842 167.868 295.198 170.331 296.319 172.475C297.523 174.627 299.31 176.394 301.474 177.574L301.482 177.578L301.482 177.578L303.295 178.608L303.599 178.78L303.542 179.124L301.901 189.069L301.795 189.709L301.203 189.444C300.409 189.088 299.777 188.449 299.429 187.652L299.428 187.65C299.162 187.035 298.97 186.39 298.857 185.729L298.857 185.728C298.799 185.381 298.634 185.062 298.386 184.813C298.138 184.565 297.819 184.4 297.473 184.341C297.472 184.341 297.472 184.341 297.472 184.341L295.958 184.092L295.957 184.092L293.823 183.737C293.822 183.737 293.822 183.737 293.821 183.737C293.578 183.697 293.328 183.712 293.09 183.78L293.089 183.78C292.851 183.847 292.63 183.967 292.444 184.129L292.443 184.13C292.256 184.292 292.108 184.494 292.007 184.721L317.844 164.561ZM317.844 164.561C318.072 165.606 318.16 166.677 318.107 167.745C318.099 167.869 318.066 167.989 318.008 168.1L318.008 168.101C317.951 168.211 317.871 168.308 317.772 168.386C317.675 168.464 317.562 168.521 317.441 168.552C317.319 168.583 317.193 168.588 317.07 168.568L317.069 168.567L312.012 167.733L312.01 167.732C311.812 167.701 311.631 167.603 311.498 167.455L311.497 167.454C311.364 167.308 311.285 167.121 311.271 166.925C311.246 165.984 310.905 165.079 310.303 164.355L310.303 164.355L310.298 164.348C310.057 164.069 309.787 163.816 309.492 163.594L308.832 163.098L308.698 163.912L307.243 172.728L307.188 173.062L307.478 173.237L309.555 174.494L309.555 174.494L309.56 174.497C312.358 176.146 314.093 178.023 314.855 180.103L314.855 180.103C315.639 182.243 315.848 184.552 315.458 186.797L315.458 186.797L315.457 186.805C315.211 188.382 314.652 189.892 313.812 191.248M317.844 164.561L313.812 191.248M313.812 191.248C313.01 192.542 311.977 193.675 310.763 194.593C309.539 195.509 308.14 196.164 306.653 196.52L306.65 196.52C305.684 196.757 304.691 196.867 303.696 196.846L303.263 196.837L303.192 197.264L302.496 201.486L302.496 201.486C302.469 201.654 302.408 201.816 302.317 201.962C302.226 202.108 302.108 202.234 301.969 202.333C301.829 202.433 301.671 202.505 301.505 202.543L313.812 191.248ZM300.996 202.56C300.827 202.532 300.665 202.471 300.52 202.381L300.519 202.38C300.373 202.29 300.247 202.172 300.148 202.033L299.741 202.324L300.148 202.033C300.048 201.894 299.977 201.736 299.938 201.569C299.899 201.402 299.894 201.228 299.921 201.059C299.921 201.059 299.921 201.059 299.921 201.059L300.61 196.89L300.684 196.442L300.245 196.325C297.868 195.694 295.766 194.294 294.268 192.344L294.268 192.344L294.263 192.338C293.535 191.419 292.965 190.385 292.576 189.279L292.574 189.275C292.454 188.943 292.346 188.604 292.253 188.252L292.252 188.251C292.008 187.336 291.878 186.393 291.864 185.445L291.864 185.442C291.858 185.193 291.907 184.947 292.007 184.721L300.996 202.56ZM308.249 182.512L308.244 182.502L308.239 182.492C307.849 181.784 307.313 181.167 306.667 180.682L306.008 180.187L305.874 181.001L304.512 189.247L304.384 190.023L305.141 189.81C305.623 189.675 306.086 189.477 306.519 189.223L306.521 189.221C307.122 188.862 307.632 188.368 308.011 187.779L308.012 187.779C308.386 187.195 308.623 186.534 308.703 185.845C308.916 184.714 308.757 183.545 308.249 182.512ZM304.158 171.198L304.786 171.569L304.905 170.849L306.162 163.234L306.277 162.541L305.584 162.66C304.901 162.778 304.262 163.079 303.737 163.531C302.831 164.288 302.231 165.349 302.05 166.516C301.915 167.368 301.989 168.24 302.269 169.057L302.276 169.078L302.285 169.099C302.676 169.976 303.33 170.71 304.158 171.198Z" stroke="#4355E6"/>
<path d="M46.474 206.541L46.4739 206.541L46.4699 206.549C46.3436 206.822 46.2194 206.942 46.1282 206.997C46.0416 207.049 45.9376 207.073 45.7898 207.058C45.6329 207.043 45.4477 206.988 45.2248 206.898C45.0829 206.841 44.9533 206.783 44.8151 206.72C44.7248 206.679 44.6308 206.637 44.5274 206.592L44.515 206.587L44.5024 206.582C37.1356 203.854 29.7644 201.136 22.3887 198.427C22.0744 198.309 21.798 198.205 21.5813 198.15C21.4715 198.122 21.3458 198.099 21.2187 198.101C21.087 198.103 20.9186 198.135 20.7687 198.255C20.6186 198.374 20.55 198.532 20.5184 198.661C20.4879 198.785 20.4836 198.915 20.4871 199.03C20.4939 199.259 20.5369 199.558 20.589 199.905L20.5903 199.913L20.5917 199.921C20.6218 200.085 20.6517 200.246 20.6811 200.404C20.8202 201.154 20.9484 201.845 21.0329 202.466C21.1362 203.226 21.1648 203.822 21.0882 204.25C21.0147 204.661 20.8668 204.82 20.6768 204.891C20.4288 204.984 19.9586 204.986 19.1148 204.699C16.0866 203.662 7.0443 200.373 3.49993 199.047C3.384 199.002 3.26407 198.961 3.15278 198.922L3.15241 198.922L3.15187 198.922C3.03656 198.882 2.9292 198.845 2.82502 198.805C2.61354 198.724 2.44993 198.643 2.32861 198.547C2.21609 198.459 2.14284 198.36 2.10379 198.227C2.06243 198.086 2.04739 197.866 2.12927 197.519L2.15508 197.41L2.13173 197.3C1.85485 195.999 1.46361 193 1.13856 190.267C0.976723 188.907 0.832283 187.622 0.727848 186.66C0.675627 186.18 0.633456 185.781 0.604141 185.494C0.589472 185.351 0.578095 185.236 0.570306 185.154C0.564432 185.092 0.561524 185.058 0.560278 185.043C0.559656 185.035 0.559448 185.033 0.559492 185.034L0.558538 185.002L0.553482 184.971C0.481007 184.516 0.669526 184.224 0.954695 184.077C1.26263 183.919 1.76025 183.896 2.31077 184.196C4.83269 185.616 6.56168 186.711 7.78165 187.488C7.81588 187.51 7.84974 187.531 7.88324 187.552C8.44451 187.91 8.90422 188.202 9.28078 188.423C9.67297 188.652 10.0156 188.829 10.3187 188.914C10.6418 189.005 10.9739 189.007 11.2832 188.819C11.5557 188.654 11.7393 188.38 11.888 188.115C12.0054 187.906 12.1307 187.646 12.2706 187.355C12.3124 187.268 12.3556 187.179 12.4002 187.087C12.5987 186.679 12.841 186.197 13.1626 185.638C13.6653 184.769 13.9856 184.484 14.2527 184.417C14.5137 184.352 14.9179 184.448 15.748 184.992C15.7486 184.992 15.7493 184.993 15.7499 184.993L45.3488 204.817C45.4485 204.891 45.5514 204.964 45.6491 205.033L45.6554 205.038C45.7604 205.112 45.8599 205.182 45.9555 205.254C46.1491 205.399 46.3029 205.532 46.4131 205.666C46.5197 205.796 46.573 205.912 46.5885 206.027C46.6038 206.141 46.5888 206.305 46.474 206.541Z" stroke="#29175F"/>
<path d="M141.861 236.261L140.148 229.207C140.749 228.984 141.275 228.595 141.664 228.086C141.855 227.81 141.988 227.499 142.056 227.17C142.124 226.842 142.125 226.503 142.059 226.174L139.62 216.154C139.422 215.297 138.434 214.573 136.653 214.77L135.005 207.981C134.083 204.224 133.687 204.16 129.863 204.555H129.665C130.687 203.389 131.531 202.079 132.169 200.666C133.625 197.368 133.743 193.633 132.499 190.25C131.89 188.579 130.952 187.047 129.74 185.745C128.528 184.443 127.068 183.397 125.445 182.669C124.288 182.158 123.069 181.804 121.819 181.615C120.244 181.237 118.627 181.06 117.007 181.088C116.931 179.917 116.686 178.763 116.282 177.662C115.69 176.053 114.785 174.578 113.62 173.321C112.455 172.064 111.053 171.05 109.494 170.338C108.383 169.828 107.207 169.473 106 169.284C102.463 168.433 98.7559 168.616 95.3198 169.811C91.7965 171.132 88.9323 173.783 87.343 177.194C86.5902 178.819 86.173 180.578 86.1163 182.368C86.0597 184.158 86.3647 185.94 87.0131 187.609C88.0673 190.245 90.2438 192.554 93.1442 194.136C90.1008 195.661 87.6618 198.17 86.2225 201.256C85.7125 202.366 85.3578 203.542 85.1683 204.749C79.6961 206.664 78.2458 209.826 78.7728 212.198L87.0795 246.808C87.3231 247.703 87.7469 248.539 88.3251 249.264C88.9032 249.99 89.6234 250.589 90.4415 251.027C91.9858 251.835 93.7085 252.244 95.4515 252.214C97.3672 252.198 99.2646 251.841 101.055 251.159C109.625 248.193 127.951 243.776 136.719 242.589C139.553 242.194 140.936 241.667 141.597 240.678C142.586 239.557 142.257 237.974 141.861 236.261ZM141.07 226.438C141.11 226.633 141.106 226.834 141.061 227.027C141.015 227.221 140.929 227.402 140.807 227.559L140.609 227.756C140.112 228.199 139.49 228.475 138.829 228.547C138.631 228.547 138.434 228.613 138.236 228.613C135.242 229.12 132.289 229.847 129.402 230.788C128.743 231.052 128.611 230.986 128.545 230.986C128.338 230.779 126.173 221.535 126.173 221.493C127.012 220.655 134.493 219.192 135.6 218.99L136.589 218.792C136.847 218.721 137.112 218.677 137.38 218.66C137.742 218.59 138.096 218.479 138.434 218.33C138.678 218.215 138.901 218.059 139.093 217.869L141.07 226.438ZM88.2659 177.655C88.969 176.073 89.9858 174.649 91.2549 173.471C92.524 172.292 94.0189 171.383 95.6492 170.799C96.9449 170.322 98.2963 170.012 99.6705 169.877C99.5387 169.943 99.4729 169.943 99.3411 170.009C95.8179 171.33 92.9538 173.981 91.3643 177.392C90.6115 179.017 90.1942 180.777 90.1376 182.566C90.0809 184.356 90.3859 186.139 91.0345 187.808C91.8952 190.03 93.3559 191.97 95.2539 193.411C94.9612 193.502 94.675 193.612 94.3969 193.741C91.3661 192.225 89.057 189.919 88.0023 187.346C87.3914 185.796 87.0998 184.139 87.1451 182.474C87.1904 180.809 87.5716 179.17 88.2659 177.655ZM128.15 204.683C127.886 204.683 127.556 204.749 127.293 204.749C124.326 205.145 120.898 205.738 117.272 206.529C117.296 205.148 117.118 203.771 116.745 202.442C116.679 202.178 116.547 201.849 116.481 201.585C116.343 201.311 116.233 201.024 116.152 200.728C114.813 197.72 112.422 195.306 109.427 193.938C108.536 193.542 107.61 193.233 106.66 193.016C106.65 192.923 106.673 192.829 106.726 192.752C106.922 191.89 107.21 191.05 107.583 190.248C108.323 188.596 109.387 187.109 110.712 185.874C112.037 184.64 113.595 183.684 115.296 183.063C116.732 182.54 118.248 182.272 119.776 182.272C122.356 182.245 124.88 183.016 127.004 184.479C129.129 185.943 130.749 188.027 131.643 190.446C132.49 192.904 132.611 195.554 131.991 198.079C131.372 200.604 130.038 202.897 128.149 204.683H128.15ZM115.36 207.055C113.911 207.385 112.461 207.714 111.01 208.11C110.351 208.241 109.692 208.439 109.098 208.571C107.714 208.901 106.395 209.296 105.077 209.625C104.22 209.889 103.364 210.087 102.505 210.351C98.4204 211.472 94.6609 212.591 91.8919 213.381C91.7601 213.184 91.6942 212.92 91.5624 212.723L91.1671 211.932C90.5398 210.317 90.24 208.594 90.2853 206.862C90.3305 205.131 90.7199 203.425 91.4307 201.846C92.1711 200.194 93.2351 198.707 94.5597 197.474C95.8844 196.24 97.4428 195.285 99.143 194.663C100.58 194.14 102.097 193.873 103.626 193.873C106.205 193.846 108.73 194.617 110.854 196.08C112.978 197.543 114.598 199.627 115.492 202.047C116.042 203.591 116.31 205.221 116.282 206.859C115.953 206.927 115.624 206.991 115.36 207.059L115.36 207.055ZM114.897 182.27C113.065 182.932 111.385 183.956 109.958 185.281C108.531 186.606 107.386 188.205 106.59 189.983C106.173 190.94 105.842 191.933 105.602 192.949C104.586 192.694 103.549 192.54 102.503 192.488C102.708 191.721 102.972 190.972 103.294 190.248C104.034 188.595 105.098 187.108 106.423 185.874C107.748 184.639 109.306 183.683 111.007 183.062C112.447 182.524 113.955 182.192 115.487 182.073L114.897 182.27ZM114.831 181.216C113.417 181.405 112.025 181.736 110.678 182.204C110.045 182.45 109.429 182.736 108.833 183.061C108.277 183.343 107.748 183.674 107.252 184.05C105.98 184.96 104.867 186.073 103.957 187.345C103.455 188.053 103.015 188.802 102.639 189.585C102.573 189.716 102.507 189.848 102.441 189.98C102.068 190.805 101.78 191.667 101.584 192.551C99.9211 192.527 98.261 192.704 96.6401 193.078C94.5688 191.756 92.9934 189.786 92.1598 187.475C91.2195 185.057 91.0581 182.407 91.6982 179.894C91.8705 179.19 92.1135 178.505 92.4234 177.85C93.1263 176.268 94.1427 174.846 95.4109 173.668C96.6792 172.49 98.173 171.581 99.8023 170.997C102.801 169.857 106.13 169.952 109.058 171.262C111.987 172.572 114.277 174.99 115.426 177.985C115.802 179 116.024 180.066 116.085 181.148C115.666 181.102 115.244 181.125 114.832 181.215L114.831 181.216ZM99.407 193.543L98.8135 193.74C96.9818 194.402 95.3022 195.426 93.8751 196.751C92.448 198.076 91.3026 199.675 90.5074 201.453C89.7219 203.15 89.2878 204.989 89.2311 206.858C89.1744 208.728 89.4963 210.589 90.1775 212.331C90.3703 212.804 90.5902 213.267 90.8364 213.715C90.0457 213.912 89.3868 214.11 88.793 214.308C88.6612 214.374 88.5294 214.374 88.3977 214.44C87.7822 213.653 87.2724 212.789 86.8814 211.869C86.2542 210.254 85.9545 208.531 85.9997 206.8C86.0449 205.068 86.4342 203.363 87.1449 201.783C87.885 200.131 88.9489 198.643 90.2737 197.409C91.5986 196.175 93.1574 195.219 94.8581 194.597C96.3135 194.021 97.8467 193.666 99.407 193.543ZM85.1015 205.87C85.0356 206.726 85.0356 207.585 85.1015 208.441C84.0337 208.912 83.0871 209.62 82.3333 210.51C81.5795 211.401 81.0383 212.452 80.7508 213.583C80.2891 213.12 78.3775 208.045 85.1015 205.87ZM141.004 240.084C140.543 240.809 139.224 241.27 136.787 241.6C128.019 242.786 109.561 247.269 100.925 250.236C97.104 251.554 93.608 251.554 91.0367 250.17C89.5208 249.313 88.4657 248.061 88.1376 246.612L80.4213 214.638C80.5531 215.099 82.0026 215.428 82.333 215.56C83.2353 215.8 84.1669 215.911 85.1002 215.89C86.4237 215.88 87.737 215.658 88.9898 215.231C89.7804 215.033 90.7696 214.704 91.8242 214.374C100.46 211.87 118.391 206.595 128.809 205.606C129.863 205.474 131.972 204.881 132.962 205.54C133.357 205.804 133.621 206.529 134.016 208.176L136.324 217.8C132.895 218.459 129.467 218.986 126.237 220.304C125.117 220.766 124.985 221.029 125.248 222.281L127.225 230.455C127.253 230.728 127.337 230.992 127.474 231.231C127.61 231.469 127.794 231.676 128.016 231.839C128.205 231.914 128.406 231.959 128.609 231.971C129.466 231.971 130.322 231.51 131.18 231.246C132.102 230.982 133.025 230.719 133.947 230.521C135.595 230.126 137.309 229.73 139.023 229.467H139.221L140.934 236.455C141.334 238.304 141.465 239.425 141.004 240.084Z" fill="#4355E6"/>
<path d="M135.005 224.13C134.93 223.807 134.785 223.503 134.58 223.241C134.375 222.979 134.115 222.765 133.819 222.614C133.189 222.28 132.458 222.189 131.765 222.359C131.072 222.529 130.466 222.948 130.062 223.537C129.869 223.798 129.739 224.1 129.681 224.42C129.624 224.74 129.642 225.069 129.732 225.381C130.062 226.766 131.644 227.49 132.962 227.162C134.214 226.833 135.335 225.514 135.005 224.13Z" fill="#4355E6"/>
<path d="M131.644 215.759C131.684 215.879 131.766 215.979 131.876 216.04C131.986 216.101 132.115 216.118 132.237 216.089C132.298 216.072 132.356 216.044 132.406 216.005C132.456 215.966 132.497 215.917 132.528 215.862C132.559 215.807 132.578 215.746 132.585 215.683C132.591 215.62 132.585 215.556 132.567 215.495C132.271 213.74 131.739 212.032 130.986 210.419C130.656 209.826 129.8 210.353 130.129 210.946C130.86 212.471 131.37 214.091 131.644 215.759Z" fill="#4355E6"/>
<path d="M126.503 208.903C124.328 209.035 122.284 209.694 120.174 210.221C119.581 210.353 119.845 211.342 120.438 211.143C122.415 210.616 124.459 209.958 126.503 209.826C126.573 209.827 126.642 209.814 126.706 209.788C126.77 209.762 126.829 209.723 126.878 209.674C126.927 209.624 126.966 209.566 126.992 209.502C127.018 209.437 127.031 209.368 127.03 209.299C126.992 209.188 126.921 209.091 126.827 209.02C126.733 208.95 126.62 208.909 126.503 208.903Z" fill="#4355E6"/>
<path d="M109.099 214.506C111.207 213.913 113.252 213.32 115.362 212.726C115.955 212.529 115.691 211.606 115.098 211.804C113.054 212.397 110.945 212.99 108.835 213.584C108.241 213.715 108.505 214.638 109.099 214.506Z" fill="#4355E6"/>
<path d="M97.2339 218.065C99.2105 217.406 101.189 216.879 103.167 216.285C103.76 216.087 103.497 215.165 102.903 215.363C100.927 215.956 98.9478 216.484 96.9703 217.142C96.9063 217.157 96.8459 217.184 96.7928 217.222C96.7397 217.261 96.695 217.309 96.6614 217.366C96.6279 217.422 96.6062 217.485 96.5978 217.55C96.5893 217.615 96.5942 217.681 96.6122 217.744C96.6302 217.807 96.661 217.865 96.7025 217.916C96.744 217.967 96.7954 218.008 96.8537 218.039C96.9119 218.069 96.9757 218.086 97.041 218.091C97.1064 218.096 97.1721 218.087 97.2339 218.065Z" fill="#4355E6"/>
<path d="M91.0368 218.725C89.9772 218.98 88.8958 219.135 87.8071 219.187C86.6357 219.263 85.4594 219.174 84.3128 218.923C83.7199 218.791 83.4559 219.714 84.0493 219.845C85.521 220.165 87.0333 220.253 88.5323 220.109C89.4643 220.02 90.3889 219.865 91.2995 219.647C91.9601 219.582 91.6962 218.593 91.0368 218.725Z" fill="#4355E6"/>
<path d="M136.258 232.767C136.452 233.505 136.606 234.252 136.719 235.007C136.805 236.275 136.44 236.613 136.258 236.787C135.835 237.051 135.365 237.23 134.874 237.314C134.181 237.481 133.476 237.591 132.765 237.643C132.626 237.643 132.492 237.699 132.393 237.798C132.294 237.897 132.238 238.031 132.238 238.17C132.238 238.31 132.294 238.444 132.393 238.543C132.492 238.642 132.626 238.697 132.765 238.697C134.018 238.566 135.336 238.434 136.457 237.907C137.446 237.38 137.775 236.457 137.775 235.403C137.733 234.417 137.556 233.442 137.248 232.504C137.115 231.91 136.126 232.174 136.258 232.767Z" fill="#4355E6"/>
<path d="M127.489 238.369C125.563 238.58 123.649 238.888 121.754 239.292C121.635 239.331 121.534 239.414 121.473 239.524C121.412 239.634 121.395 239.763 121.424 239.885C121.44 239.947 121.469 240.004 121.508 240.054C121.547 240.104 121.595 240.145 121.651 240.176C121.706 240.207 121.767 240.226 121.83 240.233C121.893 240.239 121.957 240.233 122.017 240.215C123.825 239.833 125.651 239.547 127.489 239.358C127.559 239.359 127.628 239.346 127.692 239.32C127.757 239.294 127.815 239.255 127.864 239.206C127.913 239.157 127.952 239.098 127.978 239.034C128.004 238.969 128.017 238.9 128.016 238.831C128.004 238.701 127.942 238.581 127.844 238.495C127.746 238.41 127.619 238.365 127.489 238.369Z" fill="#4355E6"/>
<path d="M116.613 240.546C114.9 241.007 113.119 241.534 111.405 242.062C110.812 242.26 111.075 243.182 111.668 242.984C113.381 242.457 115.094 241.93 116.876 241.468C117.47 241.337 117.206 240.348 116.613 240.546Z" fill="#4355E6"/>
<path d="M106.131 243.71C104.118 244.368 102.071 244.918 99.9996 245.358C99.8804 245.398 99.7803 245.481 99.7193 245.59C99.6583 245.7 99.6408 245.829 99.6702 245.951C99.6865 246.012 99.715 246.07 99.7539 246.12C99.7928 246.17 99.8415 246.211 99.8968 246.242C99.9522 246.273 100.013 246.292 100.076 246.299C100.139 246.306 100.203 246.299 100.264 246.281C102.338 245.855 104.386 245.305 106.394 244.633C106.462 244.622 106.526 244.597 106.583 244.559C106.64 244.522 106.688 244.473 106.724 244.415C106.761 244.357 106.785 244.293 106.795 244.225C106.805 244.158 106.8 244.089 106.781 244.023C106.762 243.958 106.73 243.897 106.686 243.845C106.642 243.793 106.588 243.75 106.526 243.721C106.465 243.691 106.398 243.675 106.33 243.673C106.261 243.671 106.194 243.684 106.131 243.71Z" fill="#4355E6"/>
<path d="M94.6612 245.886C93.7505 246.087 92.8055 246.072 91.9015 245.843C90.9974 245.614 90.1592 245.178 89.4535 244.568C89.3573 244.472 89.2269 244.418 89.0909 244.418C88.9549 244.418 88.8245 244.472 88.7283 244.568C88.6321 244.664 88.5781 244.795 88.5781 244.931C88.5781 245.067 88.6321 245.197 88.7283 245.293C89.5576 246.026 90.5524 246.547 91.6274 246.81C92.7134 247.04 93.8357 247.04 94.9217 246.81C95.041 246.77 95.1411 246.687 95.2022 246.577C95.2633 246.467 95.2809 246.338 95.2516 246.216C95.2547 245.952 94.9248 245.82 94.6612 245.886Z" fill="#4355E6"/>
</svg>
