<svg width="22" height="22" viewBox="0 0 22 22" fill="none" xmlns="http://www.w3.org/2000/svg">
<g clip-path="url(#clip0_3536_8448)">
<path d="M10.9994 21.2142C16.6406 21.2142 21.2137 16.6411 21.2137 10.9999C21.2137 5.35874 16.6406 0.785645 10.9994 0.785645C5.35825 0.785645 0.785156 5.35874 0.785156 10.9999C0.785156 16.6411 5.35825 21.2142 10.9994 21.2142Z" stroke="#4355E6" stroke-width="1.71429" stroke-linecap="round" stroke-linejoin="round"/>
<path d="M10.9989 14.9284C13.1686 14.9284 14.9275 13.1696 14.9275 10.9999C14.9275 8.83017 13.1686 7.07129 10.9989 7.07129C8.82919 7.07129 7.07031 8.83017 7.07031 10.9999C7.07031 13.1696 8.82919 14.9284 10.9989 14.9284Z" stroke="#4355E6" stroke-width="1.71429" stroke-linecap="round" stroke-linejoin="round"/>
<path d="M7.07031 10.9999V1.57129" stroke="#4355E6" stroke-width="1.71429" stroke-linecap="round" stroke-linejoin="round"/>
<path d="M11 7.07129H20.4286" stroke="#4355E6" stroke-width="1.71429" stroke-linecap="round" stroke-linejoin="round"/>
<path d="M14.9297 11V20.4286" stroke="#4355E6" stroke-width="1.71429" stroke-linecap="round" stroke-linejoin="round"/>
<path d="M10.9989 14.9287H1.57031" stroke="#4355E6" stroke-width="1.71429" stroke-linecap="round" stroke-linejoin="round"/>
</g>
<defs>
<clipPath id="clip0_3536_8448">
<rect width="22" height="22" fill="white"/>
</clipPath>
</defs>
</svg>
