<svg width="1200" height="1628" viewBox="0 0 1200 1628" fill="none" xmlns="http://www.w3.org/2000/svg">
<path d="M303.233 1043.46C299.563 1036.88 295.407 1030.56 290.798 1024.56C290.574 1024.23 290.224 1024 289.821 1023.91C289.418 1023.83 288.991 1023.89 288.629 1024.1C285.195 1025.86 257.98 1041.27 258.002 1042.95C257.443 1043.94 267.447 1055.5 272.892 1069.57C271.495 1069.22 270.002 1069.33 268.654 1069.89C267.307 1070.45 266.184 1071.43 265.469 1072.66C264.946 1073.61 264.67 1074.66 264.665 1075.73C264.661 1076.79 264.927 1077.83 265.442 1078.76C265.956 1079.69 266.704 1080.48 267.618 1081.05C268.533 1081.63 269.588 1081.98 270.692 1082.08C271.848 1082.29 273.047 1082.2 274.178 1081.84C275.309 1081.48 276.333 1080.86 277.153 1080.02C277.757 1079.15 278.133 1078.16 278.249 1077.13C278.365 1076.1 278.217 1075.06 277.819 1074.12C275.167 1065.83 271.374 1057.95 266.537 1050.67L294.354 1035.02C298.314 1041.03 305.147 1051.62 306.107 1058.73C304.24 1057.89 302.101 1057.71 300.071 1058.24C298.041 1058.76 296.252 1059.96 295.024 1061.61C294.26 1062.56 293.787 1063.69 293.656 1064.87C293.526 1066.05 293.744 1067.23 294.286 1068.28C294.829 1069.32 295.672 1070.2 296.722 1070.79C297.771 1071.39 298.983 1071.69 300.219 1071.65C312.756 1071.62 310.729 1057.01 303.233 1043.46ZM268.112 1077.23C267.735 1076.51 267.645 1075.68 267.856 1074.89C268.068 1074.09 268.568 1073.39 269.266 1072.91C271.323 1071.45 274.816 1072.52 275.081 1076.67C275.301 1080.26 269.434 1079.46 268.112 1077.23ZM264.917 1048.14L262 1043.67C270.632 1037.7 279.638 1032.25 288.963 1027.35C290.25 1029.05 291.542 1030.76 292.727 1032.53C283.456 1037.7 274.186 1042.91 264.917 1048.14ZM300.066 1068.65C293.705 1068.4 297.533 1057.59 306.223 1062.05C305.749 1066.54 302.899 1068.76 300.066 1068.65ZM258.815 1192.24C255.144 1185.65 250.987 1179.34 246.375 1173.33C246.15 1173 245.801 1172.77 245.398 1172.69C244.995 1172.6 244.569 1172.67 244.206 1172.87C240.699 1174.69 213.558 1190.05 213.576 1191.73C213.06 1192.66 223.02 1204.33 228.487 1218.34C227.091 1217.99 225.599 1218.1 224.252 1218.66C222.905 1219.22 221.783 1220.2 221.068 1221.43C220.544 1222.38 220.267 1223.43 220.262 1224.5C220.257 1225.56 220.523 1226.6 221.038 1227.53C221.553 1228.46 222.3 1229.25 223.216 1229.82C224.131 1230.4 225.187 1230.75 226.291 1230.85C227.446 1231.06 228.645 1230.98 229.775 1230.62C230.905 1230.26 231.929 1229.63 232.75 1228.79C233.352 1227.92 233.728 1226.93 233.845 1225.9C233.961 1224.87 233.815 1223.83 233.418 1222.89C230.764 1214.6 226.969 1206.72 222.132 1199.44L249.953 1183.79C253.936 1189.85 260.745 1200.39 261.702 1207.5C248.715 1203.07 244.68 1220.44 255.812 1220.43C268.315 1220.4 266.269 1205.69 258.815 1192.24ZM223.726 1226.02C223.348 1225.3 223.257 1224.47 223.469 1223.68C223.681 1222.88 224.182 1222.18 224.88 1221.7C226.952 1220.23 230.44 1221.33 230.691 1225.47C230.898 1229.04 225.032 1228.24 223.726 1226.02ZM220.522 1196.91L217.608 1192.44C226.241 1186.47 235.247 1181.02 244.571 1176.13C245.858 1177.82 247.132 1179.54 248.336 1181.3C239.043 1186.5 229.777 1191.71 220.522 1196.91ZM255.674 1217.42C249.374 1217.16 253.138 1206.36 261.831 1210.82C261.345 1215.33 258.493 1217.54 255.674 1217.42ZM325.262 1146.7C324.098 1146.77 321.094 1161.72 313.176 1175.35C312.519 1174.05 311.401 1173.02 310.016 1172.44C308.631 1171.86 307.065 1171.77 305.585 1172.17C304.039 1172.77 302.737 1173.85 301.895 1175.23C301.054 1176.61 300.724 1178.21 300.96 1179.77C301.197 1181.33 301.985 1182.74 303.195 1183.79C304.405 1184.83 305.962 1185.43 307.61 1185.5C310.458 1185.36 312.174 1182.74 313.539 1180.67C318.021 1173.56 321.615 1165.99 324.242 1158.11C334.196 1161.41 344.16 1164.7 354.132 1167.99C351.751 1175.06 347.671 1186.79 342.591 1192.43C338.139 1180.23 322.536 1188.4 328.124 1196.19C333.581 1203.78 344.743 1199.65 352.961 1180.07C355.925 1172.96 358.376 1165.68 360.298 1158.29C360.384 1157.96 360.358 1157.63 360.224 1157.33C360.09 1157.03 359.855 1156.78 359.555 1156.63C353.444 1154.37 326.667 1145.76 325.262 1146.7ZM304.06 1177.1C304.391 1176.31 305.018 1175.65 305.817 1175.27C306.615 1174.88 307.527 1174.8 308.372 1175.02C310.597 1175.63 311.978 1178.5 309.107 1181.57C306.382 1184.37 303.098 1179.74 304.06 1177.1ZM331.911 1189.92C335.961 1187.57 339.177 1191.2 339.966 1194.75C332.768 1199.58 327.1 1192.68 331.911 1189.92ZM325.258 1155.26C325.853 1153.56 326.422 1151.85 326.99 1150.14C337.146 1152.44 347.12 1155.37 356.852 1158.9C356.303 1160.97 355.713 1163.04 355.08 1165.13C345.171 1161.83 335.225 1158.55 325.258 1155.26ZM39.7429 1029.57C39.4736 1031.91 40.1554 1034.23 41.6466 1036.06C41.7621 1036.25 41.9238 1036.41 42.1188 1036.53C42.3139 1036.65 42.5369 1036.73 42.7701 1036.75C43.0033 1036.77 43.2403 1036.74 43.4621 1036.66C43.6839 1036.58 43.8845 1036.45 44.0478 1036.29C45.1306 1036.64 46.2992 1036.7 47.4346 1036.48C48.57 1036.26 49.6316 1035.75 50.5116 1035.01C51.3915 1034.28 52.0582 1033.34 52.4439 1032.29C52.8295 1031.24 52.9204 1030.11 52.7071 1029.04C52.3991 1027.6 51.5752 1026.33 50.3776 1025.45C49.1801 1024.56 47.684 1024.1 46.1475 1024.17C44.611 1024.23 43.1304 1024.8 41.9611 1025.79C40.7919 1026.77 40.0074 1028.11 39.7429 1029.57ZM49.5569 1029.59C49.6637 1030.04 49.6717 1030.5 49.5803 1030.95C49.4889 1031.41 49.3001 1031.84 49.0261 1032.22C48.7521 1032.61 48.3989 1032.93 47.9891 1033.18C47.5793 1033.43 47.1219 1033.6 46.6462 1033.67C46.1705 1033.75 45.6869 1033.72 45.2266 1033.61C44.7662 1033.49 44.3391 1033.28 43.9726 1033C43.6061 1032.71 43.3083 1032.35 43.0983 1031.94C42.8883 1031.54 42.7707 1031.09 42.753 1030.63C42.716 1029.81 43.0028 1028.99 43.557 1028.35C44.1111 1027.7 44.8924 1027.27 45.7468 1027.14C46.6011 1027.01 47.4665 1027.19 48.1725 1027.64C48.8784 1028.1 49.37 1028.79 49.5569 1029.59ZM84.8695 1030.35C85.6135 1031.06 86.5184 1031.59 87.5173 1031.91C88.5163 1032.23 89.5837 1032.33 90.6408 1032.2C91.6979 1032.07 92.7176 1031.71 93.6247 1031.16C94.5318 1030.61 95.3031 1029.87 95.8815 1029C96.79 1027.79 97.1911 1026.3 97.003 1024.85C96.8149 1023.39 96.0518 1022.08 94.8693 1021.17C94.0072 1020.55 93.0113 1020.12 91.9487 1019.91C90.886 1019.69 89.7812 1019.7 88.7084 1019.92C87.6357 1020.15 86.6199 1020.6 85.7293 1021.23C84.8388 1021.86 84.0941 1022.66 83.5454 1023.58C83.3026 1023.58 83.0623 1023.64 82.8439 1023.74C82.6256 1023.85 82.4353 1024.01 82.2885 1024.2C82.1417 1024.38 82.0425 1024.6 81.9988 1024.83C81.9552 1025.06 81.9684 1025.3 82.0374 1025.52C82.0956 1025.84 82.1738 1026.15 82.2716 1026.46C81.9413 1027.61 81.7898 1028.79 81.8224 1029.97C81.8411 1030.31 81.983 1030.64 82.2243 1030.89C82.4657 1031.14 82.7919 1031.3 83.1486 1031.35C83.5052 1031.39 83.8706 1031.32 84.1838 1031.14C84.497 1030.96 84.739 1030.68 84.8695 1030.35ZM88.3356 1023.2L88.4106 1023.16C91.4786 1021.85 95.1285 1023.98 93.5731 1026.89C91.7062 1030.44 87.3199 1029.71 85.6078 1026.3C86.0803 1024.98 87.0561 1023.87 88.3356 1023.2Z" fill="url(#paint0_linear_3536_6759)"/>
<path d="M1039.06 956.394C971.361 1113.02 817.396 1385.2 743.101 1220.92C650.232 1015.57 673.804 751.073 424.97 918.905C176.137 1086.74 46.5223 977.639 40.405 849.585C35.5111 747.141 80.4932 563.017 110.417 488.942C137.755 341.622 112.904 228.644 -95.8689 365.376" stroke="url(#paint1_linear_3536_6759)" stroke-width="2" stroke-dasharray="14 14"/>
<path d="M107.026 710.542C106.65 710.486 106.318 710.288 106.102 709.993C105.886 709.698 105.804 709.33 105.874 708.969L108.597 694.853C108.667 694.493 108.882 694.169 109.197 693.954C109.511 693.739 109.899 693.65 110.274 693.706C110.649 693.763 110.981 693.96 111.197 694.255C111.413 694.55 111.495 694.918 111.425 695.279L108.692 709.449C108.609 709.798 108.39 710.107 108.079 710.311C107.769 710.514 107.391 710.597 107.026 710.542Z" fill="url(#paint2_linear_3536_6759)"/>
<path d="M111.025 689.505C109.349 689.249 107.876 688.367 106.922 687.064C105.97 685.763 105.612 684.151 105.912 682.581L110.458 659.017C110.764 657.449 111.705 656.034 113.092 655.088C114.48 654.139 116.201 653.74 117.876 653.992C119.549 654.244 121.021 655.124 121.974 656.424C122.925 657.722 123.28 659.332 122.977 660.899L118.424 684.502C118.112 686.062 117.172 687.469 115.79 688.411C114.406 689.354 112.693 689.752 111.025 689.505Z" stroke="url(#paint3_linear_3536_6759)" stroke-width="3"/>
<path d="M109.749 696.426C106.12 695.876 102.908 693.965 100.818 691.111C98.7276 688.257 97.9297 684.693 98.5993 681.203L100.745 670.078C100.815 669.718 101.031 669.394 101.345 669.179C101.66 668.964 102.047 668.875 102.422 668.931C102.797 668.988 103.129 669.185 103.345 669.48C103.561 669.775 103.643 670.143 103.574 670.504L101.438 681.574C101.115 682.968 101.087 684.403 101.356 685.792C101.625 687.181 102.185 688.496 103.003 689.658C103.822 690.82 104.881 691.806 106.118 692.557C107.356 693.308 108.745 693.808 110.205 694.028C111.664 694.247 113.163 694.182 114.612 693.835C116.061 693.488 117.43 692.868 118.638 692.01C119.846 691.153 120.868 690.076 121.643 688.844C122.417 687.612 122.929 686.25 123.147 684.84L125.282 673.77C125.352 673.409 125.567 673.086 125.882 672.871C126.196 672.656 126.584 672.566 126.959 672.623C127.334 672.679 127.666 672.877 127.882 673.172C128.098 673.467 128.18 673.835 128.111 674.196L125.975 685.265C125.646 686.998 124.966 688.661 123.973 690.16C122.979 691.658 121.692 692.963 120.185 694C118.678 695.036 116.981 695.784 115.19 696.201C113.4 696.617 111.551 696.693 109.749 696.426Z" fill="url(#paint4_linear_3536_6759)"/>
<path d="M116.332 712.684L97.452 709.844C97.0769 709.788 96.7448 709.59 96.5288 709.295C96.3128 709 96.2306 708.632 96.3001 708.271C96.3697 707.911 96.5854 707.587 96.8999 707.372C97.2143 707.157 97.6016 707.068 97.9767 707.124L116.857 709.965C117.232 710.021 117.564 710.218 117.78 710.513C117.996 710.808 118.078 711.177 118.008 711.537C117.939 711.898 117.723 712.221 117.409 712.437C117.094 712.652 116.707 712.741 116.332 712.684Z" fill="url(#paint5_linear_3536_6759)"/>
<defs>
<linearGradient id="paint0_linear_3536_6759" x1="176.698" y1="1246.4" x2="359.5" y2="1161.95" gradientUnits="userSpaceOnUse">
<stop stop-color="#4C60E9"/>
<stop offset="1" stop-color="#7485FF"/>
</linearGradient>
<linearGradient id="paint1_linear_3536_6759" x1="-100.971" y1="373.091" x2="-291.828" y2="745.808" gradientUnits="userSpaceOnUse">
<stop stop-color="#4C60E9"/>
<stop offset="1" stop-color="#7485FF"/>
</linearGradient>
<linearGradient id="paint2_linear_3536_6759" x1="106.35" y1="710.44" x2="108.458" y2="710.797" gradientUnits="userSpaceOnUse">
<stop stop-color="#4C60E9"/>
<stop offset="1" stop-color="#7485FF"/>
</linearGradient>
<linearGradient id="paint3_linear_3536_6759" x1="107.034" y1="690.42" x2="118.633" y2="692.007" gradientUnits="userSpaceOnUse">
<stop stop-color="#4C60E9"/>
<stop offset="1" stop-color="#7485FF"/>
</linearGradient>
<linearGradient id="paint4_linear_3536_6759" x1="103.205" y1="695.442" x2="123.764" y2="696.391" gradientUnits="userSpaceOnUse">
<stop stop-color="#4C60E9"/>
<stop offset="1" stop-color="#7485FF"/>
</linearGradient>
<linearGradient id="paint5_linear_3536_6759" x1="101.706" y1="710.484" x2="110.708" y2="703.546" gradientUnits="userSpaceOnUse">
<stop stop-color="#4C60E9"/>
<stop offset="1" stop-color="#7485FF"/>
</linearGradient>
</defs>
</svg>
