<svg width="343" height="202" viewBox="0 0 343 202" fill="none" xmlns="http://www.w3.org/2000/svg">
<g clip-path="url(#clip0_3536_5205)">
<path d="M0 20.6238C0 9.57809 8.9543 0.623779 20 0.623779H323C334.046 0.623779 343 9.57808 343 20.6238V201.624H0V20.6238Z" fill="url(#paint0_linear_3536_5205)"/>
<path d="M70.6438 90.6439C72.3288 90.3004 71.9938 88.9551 71.9493 87.8368L67.9542 47.5853C67.709 45.3609 67.0114 44.9103 64.5117 45.255C57.8493 46.1859 60.434 48.1235 57.9894 35.1123C57.6468 33.4101 55.8599 32.7003 54.7141 33.8283C54.4648 34.018 45.9004 41.6238 43.7134 44.0135C41.8065 44.8246 42.6083 46.0067 42.9614 46.9968C44.4804 51.0683 48.4519 61.4026 49.8469 64.8217C51.457 68.7385 53.7134 66.1465 56.8542 62.9029C58.097 61.7011 58.1325 61.738 58.6869 63.2365C61.8973 71.6749 65.0946 80.1162 68.2787 88.5605C68.6218 89.6649 68.8243 91.047 70.6438 90.6439Z" fill="white"/>
<path d="M85.0365 51.2032C92.8525 49.3518 93.8244 48.1428 93.6127 50.5655C93.3351 53.7426 91.7176 74.4751 91.7726 74.8813C91.8609 75.6462 92.0699 76.3619 93.1533 76.5403C93.3716 76.5906 93.599 76.6018 93.8221 76.5731C94.0453 76.5443 94.2598 76.4763 94.4531 76.373C94.6463 76.2696 94.8144 76.133 94.9476 75.9712C95.0807 75.8093 95.1762 75.6255 95.2285 75.4304C97.2093 71.4053 108.058 49.9424 111.338 43.1788C112.388 41.0784 111.949 40.3238 109.478 39.6012C106.438 38.7358 103.457 37.7825 100.347 36.9698C98.8548 36.5908 98.8434 35.9807 99.5066 35.0492C100.827 32.8066 102.085 30.548 103.406 28.3054C103.612 27.9916 103.711 27.631 103.69 27.268C103.669 26.905 103.529 26.5554 103.287 26.2622C102.718 25.671 101.957 25.6529 101.091 25.8C93.5279 27.416 90.862 27.8872 89.7644 28.1677C88.6667 28.4483 88.8545 28.5188 88.3794 29.2217C85.5819 33.2709 84.6268 37.9877 82.4935 49.0845C82.1697 50.8672 83.043 51.6748 85.0365 51.2032Z" fill="white"/>
<path d="M22.8806 185.688C27.9396 184.912 32.9204 183.776 37.7747 182.291C38.1674 182.218 38.5288 182.048 38.8169 181.8C39.105 181.552 39.3078 181.237 39.4018 180.89C39.4958 180.543 39.477 180.18 39.3477 179.843C39.2184 179.505 38.9838 179.207 38.6713 178.984C36.9289 177.173 34.8117 176.544 36.616 175.427C40.0564 173.342 43.4138 171.172 46.8877 169.147C47.95 168.53 48.6901 167.903 48.2916 166.841C47.8931 165.778 46.7877 165.852 45.6763 165.993C24.4089 169.824 21.0386 166.372 24.4259 173.033C25.2964 174.76 23.9068 174.239 19.1566 175.037C17.096 175.389 16.0331 176.604 16.7693 178.092C17.853 180.339 19.2313 182.47 20.487 184.672C21.2121 185.251 21.8147 185.902 22.8806 185.688Z" fill="#FEB186"/>
<path d="M58.4778 150.276C59.2103 149.91 59.9154 149.501 60.5887 149.054C61.3366 148.485 61.9004 148.248 62.6668 149.094C63.4333 149.94 62.9802 150.242 62.3865 150.822C61.7928 151.402 60.3921 152.34 61.5301 153.373C62.6682 154.406 63.4443 153.218 64.2792 152.689C65.1141 152.16 65.4153 151.376 66.7734 151.815C71.9803 153.336 78.4957 150.831 81.7006 146.707C82.2984 145.932 82.9695 145.059 81.8173 144.335C79.191 142.579 78.9426 148.528 70.2595 149.354C69.8166 149.393 69.1955 149.545 68.9943 149.037C68.793 148.529 69.4101 148.422 69.7148 148.19L73.579 145.249C74.3823 144.638 74.9189 143.824 74.2018 143.004C73.4848 142.184 72.3594 142.486 71.6016 143.02C69.995 144.243 68.3884 145.465 66.7817 146.688C66.3385 147.025 66.1004 147.975 65.3041 147.322C63.182 145.566 67.6833 144.508 70.3092 142.126L72.2483 140.65C73.0793 140.018 73.596 139.283 72.7781 138.433C71.9603 137.584 71.0327 137.841 70.1108 138.33C68.8783 139.118 67.707 139.946 66.4507 140.71C65.1945 141.474 64.1629 143.069 63.4436 142.571C62.4694 141.883 63.2123 140.187 63.5278 138.944C65.3608 132.023 69.9519 132.306 68.5595 130.485C67.9906 129.744 67.1976 129.942 66.4381 130.2C65.5675 130.442 64.7894 130.894 64.1907 131.505C61.3732 134.165 59.8311 137.695 59.8914 141.349C60.1202 144.354 59.7681 146.755 56.5536 148.327C55.1668 149.105 56.5233 151.337 58.4778 150.276Z" fill="#FEB186"/>
<path d="M212.973 82.9901C212.919 83.8756 212.568 84.7272 211.964 85.4372C211.359 86.1472 210.529 86.6838 209.578 86.979C208.627 87.2742 207.598 87.3148 206.621 87.0958C205.644 86.8767 204.762 86.4078 204.088 85.7483C203.414 85.0887 202.977 84.2682 202.833 83.3905C202.69 82.5128 202.845 81.6172 203.28 80.8171C203.714 80.017 204.409 79.3482 205.276 78.8953C206.143 78.4424 207.144 78.2257 208.151 78.2726C208.821 78.3011 209.478 78.446 210.084 78.699C210.69 78.9521 211.232 79.3083 211.681 79.7469C212.129 80.1856 212.474 80.6981 212.696 81.2547C212.918 81.8114 213.012 82.4012 212.973 82.9901Z" fill="#FEB186"/>
<path d="M212.334 81.475C212.069 81.6234 208.983 77.7647 206.234 72.5172C203.486 67.2697 201.352 63.0506 201.593 62.9764C201.834 62.9021 204.534 66.9093 207.247 72.1356C209.959 77.3618 212.587 81.3266 212.334 81.475Z" fill="#FEB186"/>
<path d="M211.275 58.4279C211.552 58.5233 210.322 60.8131 207.369 62.2866C204.415 63.7602 201.558 63.5587 201.606 63.3467C201.654 63.1347 204.15 62.8379 206.802 61.4704C209.454 60.1028 210.997 58.2689 211.275 58.4279Z" fill="#FEB186"/>
<path d="M213.225 62.753C213.514 62.8166 212.405 65.1488 209.403 66.3997C206.401 67.6506 203.653 67.0146 203.773 66.7707C203.894 66.5269 206.293 66.6647 208.909 65.5092C211.525 64.3537 212.948 62.594 213.225 62.753Z" fill="#FEB186"/>
<path d="M111.173 146.342C110.949 147.302 110.407 148.182 109.615 148.87C108.823 149.559 107.816 150.025 106.722 150.211C105.628 150.396 104.497 150.292 103.47 149.911C102.444 149.531 101.569 148.891 100.956 148.073C100.343 147.255 100.02 146.295 100.027 145.316C100.035 144.336 100.373 143.381 100.998 142.57C101.623 141.76 102.508 141.13 103.54 140.762C104.573 140.394 105.706 140.303 106.797 140.501C107.521 140.631 108.208 140.886 108.82 141.25C109.432 141.614 109.956 142.081 110.363 142.623C110.769 143.166 111.05 143.774 111.189 144.412C111.328 145.05 111.323 145.706 111.173 146.342Z" fill="#FE6B21"/>
<path d="M110.717 144.581C110.222 144.793 107.425 140.15 105.412 133.98C103.399 127.81 102.012 122.923 102.483 122.764C102.953 122.605 105.292 127.408 107.305 133.492C109.318 139.577 111.175 144.411 110.717 144.581Z" fill="#FE6B21"/>
<path d="M120.626 121.328C120.927 121.625 117.491 124.445 111.898 125.335C109.518 125.77 107.047 125.616 104.761 124.89C102.989 124.275 102.265 123.363 102.434 123.215C102.603 123.066 103.531 123.48 105.159 123.724C107.276 124.037 109.441 124.012 111.548 123.65C116.575 122.865 120.3 120.872 120.626 121.328Z" fill="#FE6B21"/>
<path d="M129.255 144.869C129.03 145.825 128.487 146.702 127.695 147.387C126.903 148.072 125.898 148.535 124.807 148.718C123.715 148.901 122.587 148.795 121.564 148.415C120.541 148.034 119.669 147.395 119.059 146.578C118.449 145.762 118.128 144.804 118.137 143.828C118.145 142.851 118.483 141.898 119.107 141.09C119.732 140.282 120.614 139.655 121.644 139.288C122.673 138.92 123.803 138.83 124.891 139.028C125.614 139.159 126.3 139.414 126.911 139.779C127.522 140.144 128.045 140.611 128.45 141.153C128.855 141.696 129.135 142.303 129.273 142.94C129.411 143.578 129.405 144.233 129.255 144.869Z" fill="#FE6B21"/>
<path d="M128.846 143.108C128.364 143.32 125.567 138.677 123.542 132.507C121.516 126.337 120.154 121.45 120.624 121.291C121.095 121.132 123.433 125.934 125.447 132.019C127.46 138.104 129.341 142.907 128.846 143.108Z" fill="#FE6B21"/>
<path d="M121.868 124.524C122.242 124.821 119.155 127.705 113.947 128.701C108.739 129.698 104.556 128.298 104.761 127.885C104.966 127.472 108.848 127.98 113.526 127.026C118.203 126.072 121.506 124.122 121.868 124.524Z" fill="#FE6B21"/>
<path d="M242.597 50.4558C242.114 50.7192 241.553 50.8507 240.985 50.8337C240.417 50.8166 239.868 50.6518 239.406 50.36C238.945 50.0682 238.592 49.6625 238.393 49.1944C238.194 48.7263 238.157 48.2167 238.287 47.7302C238.418 47.2437 238.709 46.8022 239.125 46.4614C239.541 46.1207 240.062 45.8961 240.623 45.816C241.184 45.736 241.76 45.8042 242.277 46.0118C242.794 46.2195 243.229 46.5574 243.528 46.9827C243.927 47.552 244.054 48.2373 243.879 48.8884C243.705 49.5395 243.244 50.1032 242.597 50.4558Z" fill="white"/>
<path d="M243.186 49.7089C242.925 49.6228 243.904 47.0826 245.797 44.2554C246.8 42.4971 248.045 40.8536 249.502 39.3616C249.763 39.4764 248.523 41.9161 246.662 44.7003C245.677 46.4584 244.514 48.1348 243.186 49.7089Z" fill="white"/>
<path d="M256.501 44.7718C255.023 44.7547 253.579 44.3783 252.329 43.6843C251.079 42.9903 250.072 42.0057 249.418 40.8395C249.059 40.0502 249.19 39.4905 249.304 39.4905C249.418 39.4905 249.581 39.9497 250.055 40.5668C250.664 41.3656 251.433 42.0608 252.323 42.6191C254.429 43.9825 256.583 44.4991 256.501 44.7718Z" fill="white"/>
<path d="M249.597 55.8659C249.114 56.1294 248.553 56.2609 247.985 56.2438C247.417 56.2268 246.868 56.0619 246.406 55.7701C245.945 55.4783 245.592 55.0727 245.393 54.6045C245.194 54.1364 245.157 53.6269 245.287 53.1404C245.418 52.6539 245.709 52.2123 246.125 51.8716C246.541 51.5308 247.062 51.3062 247.623 51.2262C248.184 51.1462 248.76 51.2143 249.277 51.422C249.794 51.6297 250.229 51.9675 250.528 52.3929C250.923 52.9631 251.047 53.6472 250.873 54.2972C250.699 54.9472 250.241 55.5107 249.597 55.8659Z" fill="white"/>
<path d="M250.186 55.1191C249.925 55.033 250.904 52.4784 252.781 49.6656C253.786 47.905 255.036 46.2611 256.502 44.7717C256.763 44.8865 255.523 47.3263 253.646 50.1105C252.658 51.8641 251.501 53.5399 250.186 55.1191Z" fill="white"/>
<path d="M255.588 46.2933C254.783 46.4053 253.96 46.3646 253.175 46.1741C252.39 45.9835 251.66 45.6473 251.034 45.1882C248.766 43.8536 247.901 41.9735 248.146 41.9018C248.39 41.83 249.549 43.2651 251.589 44.4563C253.629 45.6475 255.62 46.0493 255.588 46.2933Z" fill="white"/>
<path d="M329.388 152.756C331.687 152.088 333.815 150.954 335.634 149.427C336.538 148.703 337.171 147.706 337.432 146.593C337.693 145.48 337.568 144.314 337.077 143.278C336.543 142.569 335.869 141.972 335.094 141.523C334.319 141.073 333.459 140.781 332.565 140.663C332.592 140.59 332.611 140.515 332.62 140.438L332.921 135.634L332.965 134.943C332.963 134.706 332.866 134.479 332.694 134.311C332.522 134.143 332.289 134.048 332.045 134.047C331.804 134.053 331.574 134.149 331.403 134.316C331.232 134.483 331.134 134.708 331.128 134.943L330.825 139.747L330.789 140.341L330.687 140.326C329.853 140.207 329.014 140.117 328.173 140.056L328.467 135.368L328.51 134.677C328.509 134.44 328.412 134.212 328.24 134.044C328.069 133.877 327.836 133.781 327.593 133.78C327.351 133.786 327.12 133.882 326.949 134.049C326.778 134.216 326.679 134.441 326.673 134.677L326.372 139.481V139.58L321.942 139.316L321.234 139.273C320.99 139.274 320.757 139.369 320.585 139.537C320.414 139.705 320.317 139.933 320.316 140.17C320.323 140.406 320.421 140.63 320.592 140.796C320.763 140.963 320.992 141.059 321.234 141.065L323.754 141.216L322.377 163.119L322.226 165.508L320.303 165.392L319.595 165.35C319.352 165.352 319.119 165.447 318.947 165.615C318.775 165.783 318.678 166.01 318.676 166.247C318.682 166.483 318.78 166.708 318.951 166.875C319.123 167.042 319.353 167.138 319.595 167.144L324.519 167.438H324.622L324.349 171.761L324.306 172.453C324.307 172.691 324.405 172.918 324.577 173.085C324.749 173.253 324.982 173.347 325.225 173.348C325.467 173.343 325.697 173.247 325.868 173.08C326.039 172.914 326.138 172.689 326.144 172.453L326.446 167.649V167.602C327.127 167.666 327.813 167.721 328.495 167.754L329.06 167.778L329.035 168.158L329.245 167.791C329.517 167.301 329.789 166.816 330.06 166.337L330.249 166.014C329.881 166.014 329.523 166.003 329.19 165.993C327.47 165.952 325.755 165.785 324.061 165.494C324.312 161.589 324.558 157.685 324.797 153.781C324.902 153.829 325.014 153.857 325.129 153.864C325.237 153.871 325.344 153.88 325.451 153.891C325.558 153.902 325.683 153.915 325.828 153.93C326.054 153.954 326.163 153.969 326.159 153.969C327.156 154.105 328.144 154.297 329.118 154.546C331.335 155.017 333.401 156.003 335.142 157.422C335.457 156.87 335.764 156.341 336.061 155.828C334.55 154.649 332.825 153.757 330.976 153.2C330.45 153.04 329.921 152.891 329.388 152.756ZM328.941 151.015C327.623 151.473 326.272 151.835 324.899 152.098L325.41 143.978L325.549 141.753C326.679 141.753 327.828 141.808 328.958 141.912C331.137 141.897 333.271 142.522 335.082 143.704C336.4 144.877 335.647 146.897 334.473 148.029C332.877 149.409 330.988 150.429 328.941 151.015Z" fill="#29175F"/>
<path d="M69.111 267.198L55.374 262.159L36.2179 255.129C33.66 254.19 31.1097 253.165 28.5273 252.27L45.1141 242.004L61.8893 231.624L61.5126 229.738L52.882 235.079L27.2087 250.967L26.1747 251.604C26.0758 251.632 25.9837 251.679 25.9037 251.742C25.8238 251.805 25.7577 251.883 25.7094 251.972C25.6258 252.099 25.5743 252.243 25.5593 252.393C25.5443 252.543 25.5661 252.694 25.623 252.835C25.6799 252.975 25.7702 253.1 25.8865 253.199C26.0027 253.298 26.1415 253.369 26.2914 253.405L26.7642 253.578L32.4508 255.664L49.4859 261.913L69.531 269.264L69.3219 268.235L69.111 267.198ZM377.286 60.0938C371.796 59.1271 366.305 58.1629 360.814 57.2011C353.345 55.8901 345.877 54.5822 338.409 53.2773L311.941 48.6497L282.918 43.5791L253.207 38.3891L224.535 33.3847L198.651 28.871L177.398 25.1641L162.329 22.536C159.983 22.1262 157.637 21.698 155.287 21.3083L154.987 21.255C154.752 21.1949 154.503 21.2268 154.291 21.3439C154.08 21.461 153.924 21.654 153.857 21.8817C152.65 29.4628 152.277 37.2129 151.727 44.8546C150.8 57.7193 150.032 70.5841 149.278 83.4397C148.456 97.7196 147.677 112.005 146.943 126.296C146.447 135.845 145.966 145.395 145.5 154.946L145.861 155.045C146.349 155.181 146.831 155.334 147.31 155.497C147.709 147.432 148.113 139.364 148.521 131.295C149.248 117.179 150.009 103.065 150.804 88.9513C151.557 75.6896 152.341 62.426 153.253 49.1734C153.836 40.7195 154.324 32.2011 155.417 23.7821C155.449 23.5248 155.473 23.3447 155.5 23.159H155.543L159.31 23.8151L172.58 26.129L192.459 29.6043L217.385 33.9526L245.533 38.8651L275.16 44.0386L304.514 49.1661C313.589 50.7503 322.663 52.3363 331.737 53.9242C339.6 55.2989 347.464 56.6754 355.327 58.0538L373.41 61.2259L376.018 61.6854L375.907 62.4628L375.483 65.4621L373.66 78.3636L370.961 97.4476L367.668 120.733L364.063 146.236L360.422 171.981L357.032 195.983L354.165 216.261L352.104 230.839L351.217 237.108L337.678 233.224L329.825 230.973L305.073 223.873L301.24 222.771L282.952 217.526L254.714 209.432C254.36 209.961 253.987 210.477 253.6 210.981L290.212 221.481L330.155 232.938L350.322 238.721L342.184 247.574L320.225 271.455L293.666 300.343L270.705 325.305L263.195 333.472L260.83 336.045C260.547 336.354 260.042 336.747 259.748 337.137L254.058 335.049L237.023 328.8L211.96 319.611L181.258 308.345L147.609 295.993L142.2 294.008L141.301 294.635L140.406 295.258L172.708 307.108L204.377 318.727L231.135 328.543L250.3 335.575C253.082 336.595 255.853 337.719 258.669 338.664L254.196 345.324L253.463 346.418C253.358 346.556 253.304 346.725 253.31 346.898C253.316 347.07 253.382 347.235 253.497 347.366C253.61 347.498 253.756 347.6 253.921 347.662C254.085 347.724 254.264 347.745 254.439 347.721C254.52 347.706 254.598 347.681 254.672 347.645C254.826 347.574 254.956 347.462 255.049 347.322L255.224 347.061C256.857 344.624 258.493 342.187 260.133 339.75L260.803 338.75L269.867 328.894L291.826 305.002L318.384 276.114L341.338 251.152L348.848 242.983C349.558 242.211 350.307 241.45 351.033 240.675C351.524 240.149 352.006 239.618 352.451 239.065C352.564 239.011 352.661 238.93 352.733 238.828C352.804 238.727 352.846 238.609 352.856 238.486L353.526 233.744L355.352 220.841L358.049 201.757L361.341 178.472L364.948 152.968L368.588 127.224L371.978 103.222L374.845 82.9435L376.905 68.3677C377.232 66.0729 377.557 63.7786 377.879 61.485L377.923 61.1836C377.978 60.9571 377.943 60.7185 377.825 60.5162C377.706 60.3139 377.514 60.1629 377.286 60.0938Z" fill="#29175F"/>
<path d="M264.017 213.59L258.703 217.75L244.245 229.071L242.312 230.584C242.206 230.493 242.081 230.426 241.945 230.389C229.854 226.989 218.003 222.821 206.469 217.912L204.799 217.177L217.658 208.22L225.593 202.69L225.936 202.451C226.889 201.787 225.974 200.231 225.009 200.903L219.57 204.693L204.768 215.003L182.876 230.257L156.163 248.861L126.901 269.246L97.3627 289.83L69.8171 309.013L46.536 325.232L29.791 336.897L21.8536 342.425L21.5126 342.664C20.5577 343.327 21.475 344.884 22.4394 344.211L27.8773 340.423L36.069 334.717C38.6231 336.248 41.2488 337.676 43.8764 339.08C51.1596 342.975 58.5922 346.584 66.1743 349.908C71.3064 352.169 76.4957 354.301 81.7421 356.306L73.6239 362.663L65.9332 368.684L65.5998 368.947C64.6768 369.667 65.9765 370.93 66.8976 370.213L72.2112 366.054L83.8743 356.922C84.0172 356.867 84.1394 356.771 84.2247 356.646L86.6733 354.733L108.056 337.99L134.142 317.566L162.554 295.329L191.384 272.755L218.262 251.702L240.973 233.922L257.29 221.145L264.981 215.122L265.316 214.861C266.237 214.135 264.93 212.875 264.017 213.59ZM89.9414 349.886L83.3827 355.021C73.9648 351.456 64.7246 347.47 55.662 343.063C50.0815 340.37 44.5935 337.498 39.207 334.452C38.7047 334.164 38.2024 333.875 37.7001 333.583L42.6822 330.111L64.5751 314.857L76.4285 306.598C78.7246 308.013 81.0866 309.331 83.4505 310.63C89.9803 314.215 96.6557 317.544 103.477 320.615C108.581 322.927 113.749 325.095 118.981 327.119H119.007L112.655 332.093L89.9414 349.886ZM209.988 255.893C209.879 255.701 209.701 255.556 209.489 255.485C205.327 254.073 201.301 252.304 197.46 250.197C197.25 250.084 197.003 250.055 196.772 250.117C196.54 250.179 196.343 250.327 196.222 250.529C196.101 250.731 196.065 250.971 196.123 251.198C196.181 251.425 196.327 251.622 196.531 251.745C200.363 253.846 204.374 255.618 208.52 257.041L196.776 266.23L171.301 286.184C171.191 286.077 171.056 285.999 170.907 285.958C167 284.881 163.183 283.514 159.491 281.867C158.428 281.374 157.494 282.92 158.564 283.414C162.156 285.029 165.866 286.38 169.664 287.457L168.364 288.476L139.534 311.064L120.077 326.298C120.082 326.105 120.027 325.916 119.917 325.755C119.807 325.595 119.649 325.472 119.465 325.403C110.832 322.061 102.376 318.319 94.0984 314.179C89.0919 311.697 84.1717 309.052 79.3462 306.249C78.913 305.997 78.4835 305.735 78.0522 305.477L91.2843 296.259L120.546 275.866L150.086 255.283L177.632 236.099L200.913 219.882L203.126 218.339C203.196 218.404 203.277 218.459 203.365 218.5C211.311 222.058 219.452 225.187 227.75 227.873C232.019 229.303 236.32 230.642 240.653 231.889L222.862 245.821L209.988 255.893Z" fill="#1D1D1B"/>
<path d="M208.001 211.874L207.752 211.544C206.846 210.321 206.04 209.031 205.343 207.684L205.271 208.114C205.269 208.193 205.256 208.271 205.232 208.346L205.16 208.768L201.918 227.928L199.332 243.215L199.283 243.507L199.234 243.801C199.713 243.861 200.195 243.894 200.677 243.9H200.92C201.512 243.878 202.743 243.832 206.533 222.411C207.157 218.893 207.746 215.363 208.255 212.22L208.234 212.194L208.001 211.874ZM257.863 194.505C257.133 190.305 255.354 186.345 252.681 182.976C252.085 182.243 251.447 181.542 250.771 180.878C250.517 180.626 250.27 180.365 250.006 180.122C249.89 180.017 249.748 179.942 249.595 179.905C249.441 179.868 249.28 179.869 249.127 179.908C248.973 179.947 248.833 180.024 248.718 180.13C248.603 180.237 248.518 180.37 248.469 180.517C247.564 182.732 246.516 184.887 245.331 186.972C244.075 189.333 242.472 191.504 240.575 193.415C239.916 194.211 239.057 194.827 238.082 195.204C237.107 195.581 236.048 195.705 235.009 195.565C233.852 195.192 232.827 194.505 232.054 193.584C230.707 192.096 229.677 190.361 229.025 188.481C228.823 187.915 228.655 187.339 228.52 186.755C228.465 186.511 228.416 186.266 228.372 186.02V186.007C228.317 185.514 228.27 185.02 228.23 184.526C228.17 183.821 228.136 183.115 228.129 182.408C228.129 182.14 228.129 181.868 228.151 181.602L227.209 182.153C226.894 182.337 226.587 182.507 226.288 182.664C222.572 184.658 218.677 186.319 214.653 187.626C212.26 188.445 209.815 189.113 207.334 189.626C206.805 190.575 206.134 191.442 205.343 192.199C205.009 192.528 204.663 192.847 204.309 193.163L204.034 193.41C203.994 193.652 203.953 193.895 203.906 194.145L204.282 193.945L206.332 192.842C206.491 192.762 206.669 192.728 206.847 192.744C207.025 192.76 207.194 192.825 207.336 192.931C207.477 193.037 207.585 193.18 207.646 193.344C207.708 193.507 207.72 193.684 207.682 193.854L207.364 195.729L207.343 195.852L207.042 197.633C206.88 198.6 206.717 199.566 206.552 200.531L206.503 200.825L206.452 201.121L205.906 204.35L205.861 204.622C205.994 204.729 206.094 204.87 206.151 205.028L206.215 205.194L206.296 205.394L206.32 205.457L206.335 205.488C206.592 206.059 206.865 206.624 207.16 207.177C207.475 207.765 207.818 208.34 208.172 208.91C208.251 209.037 208.334 209.162 208.415 209.277C208.496 209.393 208.577 209.537 208.664 209.663C210.47 212.407 212.767 214.812 215.445 216.765C216.103 217.237 216.786 217.677 217.49 218.083C222.737 220.996 228.803 222.194 234.798 221.501C234.899 221.486 235.001 221.49 235.099 221.514C235.198 221.539 235.29 221.582 235.371 221.642C235.451 221.702 235.519 221.777 235.569 221.863C235.619 221.949 235.651 222.044 235.663 222.142C237.643 221.891 239.58 221.386 241.425 220.641C245.81 218.725 249.662 215.814 252.66 212.15C252.981 211.768 253.295 211.377 253.602 210.977C253.988 210.474 254.356 209.957 254.715 209.428C256.619 206.749 257.828 203.659 258.238 200.423C258.256 200.226 258.27 200.028 258.281 199.829C258.344 198.045 258.204 196.259 257.863 194.505Z" fill="#FEB186"/>
<path d="M203.68 118.681C204.033 120.007 204.616 121.265 205.404 122.4C205.907 123.281 206.652 124.008 207.554 124.499C208.457 124.99 209.481 125.227 210.514 125.183C212.694 124.699 214.615 123.446 215.905 121.663C218.213 118.984 220.105 115.987 221.52 112.77C221.569 112.657 221.643 112.555 221.736 112.472C220.644 112.064 219.53 111.703 218.395 111.388C216.152 111.014 213.912 110.62 211.676 110.208C211.645 111.027 211.394 111.823 210.947 112.517C208.953 115.226 206.058 117.177 202.755 118.039C202.96 118.034 203.161 118.093 203.328 118.209C203.495 118.325 203.618 118.49 203.68 118.681ZM189.312 114.233C189.375 115.172 189.536 116.102 189.793 117.008C190.587 120.053 192.759 123.931 196.611 123.286C197.827 122.935 198.945 122.318 199.88 121.481C200.814 120.645 201.54 119.611 202.002 118.458C202.067 118.325 202.173 118.214 202.305 118.142C200.927 118.565 199.447 118.55 198.078 118.098C195.952 117.118 195.598 113.285 195.579 111.032C194.522 111.283 193.475 111.561 192.454 111.888C191.143 112.313 189.861 112.821 188.617 113.408C188.81 113.452 188.983 113.556 189.108 113.705C189.234 113.855 189.306 114.04 189.312 114.233Z" fill="#FE6B21"/>
<path d="M243.788 137.244C242.856 133.58 241.368 130.074 239.371 126.84C239.265 126.697 239.212 126.523 239.221 126.346C239.231 126.17 239.302 126.001 239.423 125.87C236.05 121.473 231.838 117.754 227.018 114.917C225.767 114.207 224.472 113.573 223.142 113.018C223.212 113.235 223.197 113.469 223.1 113.676C222.434 115.113 221.685 116.511 220.855 117.864C219.517 120.209 217.851 122.36 215.905 124.256C215.084 125.266 214.001 126.043 212.769 126.508C211.536 126.973 210.199 127.108 208.896 126.9C207.592 126.692 206.368 126.149 205.352 125.325C204.336 124.502 203.563 123.429 203.114 122.216C202.737 127.52 202.323 132.828 202.083 138.141C202.032 139.292 200.2 139.293 200.247 138.141C200.307 136.777 200.392 135.414 200.478 134.052C200.716 130.24 200.973 126.43 201.251 122.621C200.582 123.364 199.767 123.97 198.855 124.403C197.943 124.835 196.952 125.085 195.939 125.139C194.853 125.125 193.784 124.869 192.814 124.392C191.844 123.914 190.999 123.226 190.343 122.382C188.574 120.006 187.573 117.168 187.469 114.233C187.464 114.137 187.475 114.041 187.501 113.948C187.116 114.144 186.736 114.348 186.359 114.56C180.453 118.063 175.446 122.837 171.72 128.516C168.489 133.307 165.933 138.499 164.12 143.954C162.979 147.34 162.064 150.794 161.381 154.296C161.193 155.238 159.874 161.248 159.637 164.319C159.77 164.492 159.904 164.663 160.032 164.837C160.522 165.506 160.977 166.197 161.396 166.91L162.903 167.666C163.821 167.076 164.774 166.541 165.758 166.063C171.165 163.482 177.327 162.831 183.174 164.222C186.801 165.058 190.222 166.589 193.238 168.726C193.497 168.456 193.81 168.239 194.158 168.091C194.506 167.942 194.881 167.865 195.261 167.862C197.74 167.89 200.13 168.767 202.014 170.34L201.499 168.985C201.436 168.756 201.468 168.512 201.588 168.306C201.708 168.099 201.906 167.947 202.14 167.883C203.393 167.552 204.624 167.147 205.826 166.668C208.287 165.714 210.658 164.552 212.912 163.196C215.817 161.468 218.446 159.333 220.714 156.859C223.279 154.046 225.163 150.706 226.225 147.086C227.435 142.542 227.502 137.781 226.423 133.207C226.18 132.078 227.952 131.6 228.194 132.729C229.471 138.042 229.268 143.592 227.606 148.802C224.938 155.765 219.805 161.567 213.134 165.159C210.143 166.936 206.937 168.342 203.59 169.346L205.193 173.573C206.301 175.093 207.133 176.787 207.653 178.582C208.036 179.903 208.281 181.257 208.386 182.626C208.408 182.922 208.422 183.219 208.431 183.517C208.44 183.815 208.431 184.116 208.431 184.416C208.421 185.291 208.348 186.165 208.212 187.031C208.182 187.215 208.139 187.399 208.099 187.582C210.603 186.939 213.091 186.296 215.545 185.439C218.118 184.54 220.634 183.492 223.08 182.302C223.901 181.9 224.716 181.488 225.517 181.051C225.877 180.854 226.227 180.646 226.583 180.442C226.819 180.306 227.058 180.176 227.291 180.036L227.527 179.897C228.733 179.172 229.91 178.401 231.057 177.583C236.535 173.851 240.722 168.583 243.063 162.478C245.9 154.329 246.153 145.535 243.788 137.244ZM182.72 125.184C182.511 125.92 182.321 126.655 182.134 127.39C179.463 137.795 177.867 148.434 177.369 159.149C177.32 160.3 175.485 160.302 175.53 159.149C175.694 155.314 176.026 151.489 176.497 147.678C177.388 139.922 178.876 132.243 180.948 124.705C181.013 124.475 181.169 124.281 181.381 124.164C181.593 124.046 181.845 124.016 182.08 124.08C182.315 124.144 182.514 124.296 182.634 124.503C182.754 124.71 182.785 124.955 182.72 125.184ZM198.94 137.441C198.934 137.678 198.838 137.904 198.67 138.075C198.542 138.2 198.378 138.285 198.2 138.319C198.022 138.353 197.838 138.335 197.67 138.267C197.503 138.2 197.359 138.085 197.258 137.938C197.158 137.791 197.104 137.618 197.103 137.441C197.12 136.89 197.15 136.338 197.178 135.787C197.187 135.551 197.282 135.326 197.448 135.155C197.576 135.029 197.74 134.944 197.918 134.909C198.096 134.875 198.281 134.892 198.448 134.96C198.616 135.028 198.76 135.142 198.861 135.289C198.962 135.437 199.016 135.61 199.017 135.787C198.989 136.344 198.958 136.893 198.94 137.441ZM198.94 130.273C198.933 130.51 198.837 130.736 198.67 130.907C198.497 131.075 198.264 131.169 198.02 131.17C197.777 131.17 197.544 131.075 197.372 130.907C197.2 130.739 197.103 130.511 197.103 130.273C197.12 129.722 197.15 129.171 197.178 128.619C197.187 128.383 197.282 128.158 197.448 127.985C197.576 127.86 197.74 127.775 197.918 127.74C198.097 127.705 198.281 127.723 198.449 127.791C198.617 127.859 198.761 127.974 198.862 128.121C198.963 128.269 199.017 128.442 199.017 128.619C198.989 129.173 198.958 129.724 198.94 130.273Z" fill="#FE6B21"/>
<path d="M203.638 69.4891C190.845 71.0899 189.432 80.8414 189.348 81.5305C192.15 81.3097 194.964 81.2588 197.773 81.378C203.338 81.5436 208.83 82.6563 214.002 84.6659C215.961 85.3919 217.801 86.3931 219.464 87.6376C219.548 87.697 219.618 87.7725 219.671 87.8594C219.723 87.9464 219.757 88.043 219.769 88.1431C219.782 88.2433 219.773 88.3449 219.744 88.4417C219.714 88.5384 219.665 88.6282 219.598 88.7054C220.214 89.0583 220.805 89.4258 221.367 89.8081C223.908 79.2461 216.601 67.8681 203.638 69.4891Z" fill="white"/>
<path d="M203.364 193.97C203.136 194.153 202.904 194.331 202.669 194.503L202.417 194.687C201.855 195.089 201.271 195.461 200.667 195.801C200.313 196.003 199.95 196.191 199.58 196.363C198.084 197.056 195.683 197.784 194.668 195.972C194.336 195.361 194.213 194.663 194.315 193.98C194.401 193.385 194.578 192.806 194.843 192.263C195.218 191.495 195.672 190.766 196.197 190.087C196.397 189.819 196.608 189.556 196.821 189.295C194.816 189.903 188.783 191.559 189.392 187.626C189.876 185.888 191.012 184.39 192.575 183.431L192.453 183.445C191.372 183.59 190.274 183.547 189.209 183.317C189.189 184.426 188.817 185.502 188.145 186.397C187.473 187.293 186.533 187.963 185.455 188.316C184.784 188.589 184.091 188.809 183.383 188.973C181.9 189.303 180.383 189.463 178.862 189.451L179.1 189.611C179.458 189.846 179.812 190.087 180.155 190.346C182.692 191.971 184.516 194.462 185.269 197.33C185.773 200.138 184.784 203.728 181.69 204.61C179.554 205.066 177.327 204.903 175.286 204.139L175.259 204.202L173.402 208.657C173.332 208.883 173.176 209.074 172.965 209.191C172.755 209.307 172.507 209.34 172.272 209.283C172.037 209.219 171.838 209.067 171.718 208.861C171.598 208.654 171.566 208.41 171.63 208.181L171.899 207.537L173.562 203.546L173.087 203.362C172.43 203.108 171.769 202.836 171.127 202.553L169.269 207.01C169.199 207.236 169.043 207.426 168.832 207.543C168.622 207.659 168.374 207.692 168.139 207.635C168.023 207.603 167.914 207.55 167.819 207.478C167.724 207.405 167.644 207.315 167.585 207.213C167.525 207.111 167.487 206.998 167.472 206.881C167.457 206.764 167.466 206.645 167.499 206.532L167.766 205.887L169.462 201.827L169.39 201.798L164.822 199.986C164.59 199.918 164.394 199.765 164.275 199.56C164.155 199.354 164.121 199.112 164.18 198.883C164.245 198.654 164.401 198.459 164.612 198.342C164.824 198.224 165.075 198.194 165.31 198.256L165.969 198.517L167.804 199.252L168.71 197.08L172.592 187.746L173.289 186.077L174.937 182.122L177.197 176.697L174.903 175.787C174.671 175.719 174.475 175.566 174.356 175.361C174.236 175.156 174.202 174.913 174.261 174.684C174.326 174.456 174.482 174.261 174.694 174.144C174.905 174.027 175.156 173.996 175.391 174.058L176.05 174.319L176.229 174.39L180.211 175.971L180.234 175.918L182.091 171.463C182.149 171.322 182.233 171.193 182.34 171.082C182.45 170.967 182.59 170.884 182.745 170.84C182.901 170.797 183.065 170.795 183.221 170.836C183.456 170.899 183.655 171.051 183.775 171.258C183.895 171.465 183.926 171.71 183.862 171.939L183.594 172.582L181.765 176.972C182.579 177.307 183.379 177.669 184.157 178.062L184.366 177.559L186.224 173.102C186.293 172.876 186.45 172.685 186.66 172.568C186.87 172.451 187.119 172.418 187.354 172.475C187.588 172.539 187.787 172.691 187.908 172.898C188.028 173.104 188.06 173.349 187.996 173.578L187.729 174.221L185.869 178.678C185.833 178.765 185.787 178.849 185.732 178.926C186.203 179.208 186.655 179.519 187.084 179.858C187.293 180.023 187.493 180.198 187.681 180.378C187.71 180.319 187.744 180.262 187.776 180.205C188.346 179.359 189.11 178.654 190.008 178.145C192.234 176.851 194.627 175.85 197.124 175.17C197.007 175.091 196.894 175.01 196.783 174.931C195.687 174.145 194.723 173.198 193.925 172.124C193.569 171.739 193.299 171.285 193.134 170.791C192.969 170.298 192.912 169.776 192.967 169.259C193.022 169.066 193.115 168.886 193.242 168.728C190.226 166.591 186.805 165.059 183.178 164.222C177.328 162.837 171.166 163.497 165.762 166.085C164.778 166.563 163.824 167.098 162.907 167.688L161.4 166.932C160.979 166.221 160.525 165.53 160.036 164.859C159.908 164.685 159.774 164.514 159.64 164.341C156.505 160.282 152.218 157.209 147.311 155.505C146.832 155.341 146.348 155.19 145.86 155.053L145.499 154.953C141.295 153.825 136.859 153.813 132.649 154.917C127.165 156.356 122.348 159.578 118.997 164.051C116.373 167.665 114.743 171.875 114.261 176.279C113.779 180.683 114.461 185.133 116.243 189.207C114.918 189.888 113.648 190.666 112.444 191.534C110.744 188.666 108.519 186.127 105.879 184.044C102.694 181.574 99.0198 179.773 95.0875 178.754C91.1551 177.734 87.0494 177.518 83.0275 178.12C79.0057 178.721 75.1546 180.127 71.7156 182.248C68.2766 184.37 65.324 187.162 63.0428 190.449C60.163 194.77 58.5945 199.797 58.5185 204.95C58.4425 210.103 59.8621 215.172 62.6133 219.571C63.5413 219.857 64.4668 220.151 65.3897 220.452C63.7695 218.242 62.5037 215.805 61.6357 213.224C59.8288 207.728 59.9702 201.8 62.037 196.393C64.1039 190.985 67.9759 186.414 73.0295 183.416C77.3106 180.931 82.1923 179.603 87.1734 179.567C91.9735 179.503 96.7057 180.679 100.89 182.975C105.074 185.271 108.562 188.606 110.999 192.642C109.366 193.978 107.891 195.489 106.603 197.146C104.933 199.311 103.606 201.709 102.666 204.259C102.346 205.124 102.078 206.001 101.848 206.887C100.187 213.48 100.865 220.429 103.773 226.597C103.159 227.068 102.526 227.516 101.867 227.934C100.373 228.879 98.7839 229.674 97.1243 230.304L98.4805 230.723L99.784 231.126C101.49 230.327 103.106 229.356 104.606 228.229C105.713 230.256 107.063 232.146 108.629 233.86L116.393 236.264L122.172 238.051C123.152 237.439 124.244 236.948 125.265 236.397L132.191 232.675L153.33 221.315L158.951 218.296C159.401 215.09 159.266 211.833 158.552 208.673C158.436 208.162 158.306 207.654 158.162 207.15C160.729 209.985 163.932 212.205 167.521 213.635L167.582 213.657L177.663 208.241L197.902 197.365L200.767 195.827L202.407 194.945L203.035 194.608L203.345 194.441L203.91 194.138C203.957 193.895 203.999 193.653 204.038 193.403C203.816 193.597 203.591 193.787 203.364 193.97ZM138.51 213.108C136.111 214.017 133.548 214.442 130.976 214.357C131.541 214.716 132.106 215.093 132.637 215.48C135.391 217.241 137.376 219.937 138.207 223.045C138.772 226.079 137.71 229.992 134.363 230.948C132.008 231.449 129.553 231.261 127.307 230.409L127.245 230.56L125.21 235.441C125.141 235.667 124.984 235.858 124.774 235.975C124.564 236.092 124.315 236.125 124.08 236.068C123.846 236.004 123.647 235.852 123.526 235.645C123.406 235.439 123.374 235.194 123.438 234.965L123.732 234.259L125.583 229.815L124.934 229.571C124.2 229.287 123.473 228.987 122.754 228.67L122.717 228.762L120.68 233.645C120.61 233.871 120.454 234.062 120.243 234.178C120.033 234.295 119.785 234.328 119.55 234.27C119.316 234.207 119.116 234.055 118.996 233.848C118.876 233.641 118.845 233.397 118.91 233.168L119.204 232.464L121.087 227.946L120.938 227.886L115.936 225.901C115.704 225.833 115.508 225.68 115.388 225.475C115.269 225.27 115.235 225.027 115.293 224.798C115.358 224.569 115.514 224.375 115.726 224.258C115.938 224.14 116.189 224.11 116.424 224.173L117.147 224.46L119.219 225.285L120.259 222.793C122.191 218.152 124.125 213.512 126.06 208.873C127.044 206.506 128.031 204.14 129.019 201.774L129.364 200.947L129.582 200.421L126.977 199.388C126.752 199.321 126.561 199.174 126.441 198.976C126.321 198.778 126.282 198.544 126.331 198.319V198.286C126.397 198.057 126.552 197.863 126.764 197.745C126.976 197.628 127.226 197.597 127.461 197.659L128.185 197.946L132.814 199.784L132.875 199.638L134.909 194.755C134.979 194.529 135.136 194.339 135.346 194.222C135.556 194.106 135.805 194.073 136.039 194.13C136.165 194.16 136.281 194.22 136.376 194.305C136.517 194.412 136.622 194.557 136.676 194.723C136.731 194.889 136.733 195.066 136.681 195.233L136.388 195.937L135.823 197.275L134.346 200.815C135.134 201.138 135.909 201.487 136.668 201.86C136.802 201.926 136.941 201.987 137.073 202.055L137.126 202.083L137.201 201.899L137.39 201.432L139.426 196.549C139.496 196.323 139.652 196.132 139.862 196.015C140.073 195.898 140.321 195.865 140.556 195.922C140.791 195.986 140.99 196.138 141.111 196.344C141.231 196.551 141.262 196.796 141.198 197.025L140.904 197.731L139.143 201.958L138.87 202.614C138.832 202.705 138.783 202.791 138.725 202.871L138.68 202.934C139.079 203.172 139.479 203.432 139.861 203.713C140.785 204.209 141.533 204.968 142.004 205.889C142.476 206.81 142.649 207.848 142.501 208.868C142.353 209.887 141.89 210.838 141.175 211.594C140.459 212.35 139.525 212.876 138.495 213.102L138.51 213.108ZM144.777 190.273C141.686 188.459 138.29 187.191 134.747 186.529C134.465 186.476 134.182 186.435 133.894 186.391L134.404 184.62C134.948 182.728 135.493 180.837 136.039 178.948C136.096 178.977 136.155 178.999 136.216 179.016C137.744 179.434 139.216 180.028 140.601 180.784C141.187 181.106 141.75 181.467 142.285 181.865C143.309 182.601 144.178 183.523 144.845 184.579C145.453 185.563 145.737 186.705 145.659 187.851C145.656 188.733 145.345 189.586 144.777 190.273ZM136.525 177.255C137.203 174.907 137.88 172.557 138.556 170.207L139.132 168.208C140.155 168.425 141.166 168.699 142.159 169.009C143.045 169.271 143.914 169.584 144.762 169.945C145.409 170.22 146.011 170.586 146.55 171.031C146.842 171.272 147.096 171.553 147.303 171.867C147.547 172.417 147.586 173.033 147.414 173.609C147.242 174.184 146.87 174.683 146.361 175.019C146.158 175.198 145.938 175.358 145.704 175.497C145.3 175.733 144.877 175.938 144.44 176.109C143.095 176.602 141.689 176.92 140.258 177.057C139.021 177.211 137.773 177.276 136.525 177.255ZM162.673 183.023C162.575 183.616 162.45 184.206 162.296 184.792C161.815 186.686 161.073 188.508 160.089 190.207C159.426 191.349 158.661 192.432 157.802 193.443C156.455 194.996 154.908 196.372 153.199 197.538C152.871 197.122 152.531 196.717 152.18 196.323C150.462 194.389 148.495 192.68 146.327 191.238C146.944 190.361 147.339 189.354 147.48 188.3C147.62 187.246 147.502 186.174 147.135 185.173C146.484 183.472 145.353 181.986 143.875 180.883C143.363 180.476 142.825 180.099 142.266 179.755C142.067 179.632 141.869 179.509 141.667 179.387C141.341 179.204 141.008 179.02 140.671 178.856C141.925 178.712 143.16 178.443 144.357 178.051C145.011 177.831 145.644 177.559 146.252 177.237C146.339 177.189 146.44 177.153 146.518 177.105C147.498 176.639 148.298 175.875 148.797 174.929C149.296 173.982 149.467 172.904 149.285 171.854C149.066 171.221 148.72 170.637 148.267 170.135C147.814 169.634 147.264 169.226 146.648 168.934C146.341 168.759 146.027 168.597 145.706 168.45C145.726 168.417 145.744 168.383 145.758 168.348L146.851 164.562L146.99 164.073L147.167 163.463C147.206 163.314 147.207 163.158 147.168 163.01C147.13 162.861 147.054 162.724 146.947 162.612C146.837 162.487 146.689 162.399 146.525 162.36C146.29 162.303 146.042 162.336 145.831 162.453C145.621 162.569 145.465 162.76 145.395 162.987L145.018 164.26L144.154 167.26L144.012 167.756C143.303 167.489 142.583 167.251 141.854 167.041L143.022 162.987L143.208 162.384C143.246 162.269 143.26 162.147 143.249 162.026C143.238 161.906 143.202 161.788 143.143 161.682C143.084 161.575 143.004 161.481 142.906 161.406C142.809 161.33 142.698 161.275 142.578 161.243C142.458 161.21 142.333 161.202 142.21 161.219C142.087 161.235 141.969 161.275 141.862 161.337C141.755 161.4 141.663 161.482 141.59 161.58C141.517 161.678 141.465 161.79 141.438 161.908L140.206 166.181L140.194 166.243L136.369 165.194L135.742 165.023C135.623 164.986 135.499 164.972 135.375 164.983C135.252 164.994 135.131 165.029 135.022 165.087C134.913 165.144 134.817 165.222 134.739 165.317C134.662 165.412 134.605 165.521 134.572 165.638C134.539 165.755 134.531 165.877 134.547 165.997C134.564 166.117 134.605 166.232 134.669 166.336C134.733 166.44 134.818 166.531 134.918 166.602C135.018 166.673 135.133 166.724 135.254 166.75L137.469 167.359L132.08 186.062L132.05 186.167L131.931 186.154C127.13 185.713 122.293 186.493 117.893 188.418C115.513 182.991 115.3 176.892 117.295 171.32C119.289 165.747 123.348 161.104 128.672 158.302C133.435 155.943 138.888 155.266 144.105 156.387C144.544 156.484 144.977 156.606 145.41 156.729C145.521 156.76 145.634 156.784 145.743 156.817C146.243 156.966 146.734 157.135 147.22 157.317C150.577 158.571 153.613 160.527 156.114 163.045C158.559 165.516 160.43 168.47 161.599 171.709C162.92 175.334 163.289 179.222 162.673 183.023Z" fill="white"/>
<path d="M203.364 193.97C203.136 194.153 202.904 194.331 202.669 194.503L202.417 194.687C201.855 195.089 201.271 195.461 200.667 195.801C200.313 196.003 199.95 196.191 199.58 196.363C198.084 197.056 195.683 197.784 194.668 195.972C194.336 195.361 194.213 194.663 194.315 193.98C194.401 193.385 194.578 192.806 194.843 192.263C195.218 191.495 195.672 190.766 196.197 190.087C196.397 189.819 196.608 189.556 196.821 189.295C194.816 189.903 188.783 191.559 189.392 187.626C189.876 185.888 191.012 184.39 192.575 183.431L192.453 183.445C191.372 183.59 190.274 183.547 189.209 183.317C189.189 184.426 188.817 185.502 188.145 186.397C187.473 187.293 186.533 187.963 185.455 188.316C184.784 188.589 184.091 188.809 183.383 188.973C181.9 189.303 180.383 189.463 178.862 189.451L179.1 189.611C179.458 189.846 179.812 190.087 180.155 190.346C182.692 191.971 184.516 194.462 185.269 197.33C185.773 200.138 184.784 203.728 181.69 204.61C179.554 205.066 177.327 204.903 175.286 204.139L175.259 204.202L173.402 208.657C173.332 208.883 173.176 209.074 172.965 209.191C172.755 209.307 172.507 209.34 172.272 209.283C172.037 209.219 171.838 209.067 171.718 208.861C171.598 208.654 171.566 208.41 171.63 208.181L171.899 207.537L173.562 203.546L173.087 203.362C172.43 203.108 171.769 202.836 171.127 202.553L169.269 207.01C169.199 207.236 169.043 207.426 168.832 207.543C168.622 207.659 168.374 207.692 168.139 207.635C168.023 207.603 167.914 207.55 167.819 207.478C167.724 207.405 167.644 207.315 167.585 207.213C167.525 207.111 167.487 206.998 167.472 206.881C167.457 206.764 167.466 206.645 167.499 206.532L167.766 205.887L169.461 201.827L169.39 201.798L164.822 199.986C164.59 199.918 164.394 199.765 164.275 199.56C164.155 199.354 164.121 199.112 164.18 198.883C164.245 198.654 164.401 198.459 164.612 198.342C164.824 198.224 165.075 198.194 165.31 198.256L165.969 198.517L167.804 199.252L168.71 197.08L172.592 187.746L173.289 186.077L174.937 182.122L177.197 176.697L174.903 175.787C174.671 175.719 174.475 175.566 174.356 175.361C174.236 175.156 174.202 174.913 174.261 174.684C174.326 174.456 174.482 174.261 174.694 174.144C174.905 174.027 175.156 173.996 175.391 174.058L176.05 174.319L176.229 174.39L180.211 175.971L180.234 175.918L182.091 171.463C182.149 171.322 182.233 171.193 182.34 171.082C182.45 170.967 182.59 170.884 182.745 170.84C182.901 170.797 183.065 170.795 183.221 170.836C183.456 170.899 183.655 171.051 183.775 171.258C183.895 171.465 183.926 171.71 183.861 171.939L183.594 172.582L181.765 176.972C182.579 177.307 183.379 177.669 184.157 178.062L184.366 177.559L186.224 173.102C186.293 172.876 186.45 172.685 186.66 172.568C186.87 172.451 187.119 172.418 187.354 172.475C187.588 172.539 187.787 172.691 187.908 172.898C188.028 173.104 188.06 173.349 187.996 173.578L187.729 174.221L185.869 178.678C185.833 178.765 185.787 178.849 185.732 178.926C186.203 179.208 186.655 179.519 187.084 179.858C187.293 180.023 187.493 180.198 187.681 180.378C187.71 180.319 187.744 180.262 187.776 180.205C188.346 179.359 189.11 178.654 190.008 178.145C192.234 176.851 194.627 175.85 197.124 175.17C197.007 175.091 196.894 175.01 196.783 174.931C195.687 174.145 194.723 173.198 193.925 172.124C193.569 171.739 193.299 171.285 193.134 170.791C192.969 170.298 192.912 169.776 192.967 169.259C193.022 169.066 193.115 168.886 193.242 168.728C190.226 166.591 186.805 165.059 183.178 164.222C177.328 162.837 171.166 163.497 165.762 166.085C164.778 166.563 163.824 167.098 162.907 167.688L161.4 166.932C160.979 166.221 160.525 165.53 160.036 164.859C159.908 164.685 159.774 164.514 159.64 164.341C156.505 160.282 152.218 157.209 147.311 155.505C146.832 155.341 146.348 155.19 145.86 155.053L145.499 154.953C141.295 153.825 136.859 153.813 132.649 154.917C127.165 156.356 122.348 159.578 118.997 164.051C116.373 167.665 114.743 171.875 114.261 176.279C113.779 180.683 114.461 185.133 116.243 189.207C114.918 189.888 113.648 190.666 112.444 191.534C110.744 188.666 108.519 186.127 105.879 184.044C102.694 181.574 99.0198 179.773 95.0875 178.754C91.1551 177.734 87.0494 177.518 83.0275 178.12C79.0057 178.721 75.1546 180.127 71.7156 182.248C68.2766 184.37 65.324 187.162 63.0428 190.449C60.163 194.77 58.5945 199.797 58.5185 204.95C58.4425 210.103 59.8621 215.172 62.6133 219.571C63.5413 219.857 64.4668 220.151 65.3897 220.452C63.7695 218.242 62.5037 215.805 61.6357 213.224C59.8288 207.728 59.9702 201.8 62.037 196.393C64.1039 190.985 67.9759 186.414 73.0295 183.416C77.3106 180.931 82.1923 179.603 87.1734 179.567C91.9735 179.503 96.7057 180.679 100.89 182.975C105.074 185.271 108.562 188.606 110.999 192.642C109.366 193.978 107.891 195.489 106.603 197.146C104.933 199.311 103.606 201.709 102.666 204.259C102.346 205.124 102.078 206.001 101.848 206.887C100.187 213.48 100.865 220.429 103.773 226.597C103.159 227.068 102.526 227.516 101.867 227.934C100.373 228.879 98.7839 229.674 97.1243 230.304L98.4805 230.723L99.784 231.126C101.49 230.327 103.106 229.356 104.606 228.229C105.713 230.256 107.063 232.146 108.629 233.86L116.393 236.264L122.172 238.051C123.152 237.439 124.244 236.948 125.265 236.397L132.191 232.675L153.33 221.315L158.951 218.296C159.401 215.09 159.266 211.833 158.552 208.673C158.436 208.162 158.306 207.654 158.162 207.15C160.729 209.985 163.932 212.205 167.521 213.635L167.582 213.657L177.663 208.241L197.902 197.365L200.767 195.827L202.407 194.945L203.035 194.608L203.345 194.441L203.91 194.138C203.957 193.895 203.999 193.653 204.038 193.403C203.816 193.597 203.591 193.787 203.364 193.97Z" fill="white"/>
<path d="M138.294 204.849C137.593 204.383 136.863 203.962 136.107 203.588C135.662 203.362 135.212 203.148 134.756 202.945C133.56 202.411 132.335 201.942 131.085 201.541L131.061 201.596L130.716 202.421L130.117 203.86L126.608 212.283C126.712 212.268 126.818 212.268 126.923 212.283C126.516 212.226 126.923 212.283 127.088 212.299C128.497 212.452 129.915 212.522 131.332 212.507C133.626 212.592 135.913 212.202 138.041 211.362C139.62 210.627 141.313 208.87 140.543 207.135C140.018 206.189 139.241 205.399 138.294 204.849ZM127.537 214.521C127.226 214.368 126.912 214.222 126.595 214.082L126.32 213.964C126.239 213.929 126.344 213.964 126.414 214.001C126.259 213.938 126.12 213.841 126.009 213.718L124.314 217.78L120.965 225.818C122.597 226.69 124.292 227.447 126.035 228.082C128.416 228.948 131.686 230.093 134.199 229.115C134.75 228.847 135.226 228.453 135.587 227.967C135.947 227.48 136.182 226.916 136.271 226.322C136.651 224.922 136.562 223.441 136.017 222.095C134.815 219.609 132.869 217.537 130.436 216.151C129.504 215.551 128.536 215.007 127.537 214.521Z" fill="white"/>
<path d="M204.2 196.027L203.33 196.494L203.262 196.531H203.247L202.324 197.027L198.227 199.232L181.488 208.227L169.91 214.448L161.121 219.171L158.52 220.569L141.646 229.648L127.42 237.294L123.653 239.315C123.402 239.449 123.157 239.604 122.899 239.719C122.918 240.547 122.899 241.374 122.878 242.208C122.839 243.452 122.775 244.698 122.747 245.933L122.44 259.419L122.087 274.94L121.822 286.54L121.801 287.488V287.762L121.786 288.431L121.679 293.099C121.668 293.33 121.566 293.547 121.395 293.707C121.224 293.866 120.997 293.955 120.76 293.955C120.524 293.955 120.296 293.866 120.125 293.707C119.954 293.547 119.853 293.33 119.842 293.099V293.009C119.784 291.269 119.882 289.506 119.948 287.758C119.961 287.444 119.97 287.132 119.98 286.819L119.991 286.49L120.004 285.871L120.298 273.006L120.65 257.484L120.942 244.663L121.01 241.693L121.059 239.609C120.164 239.343 119.279 239.036 118.392 238.76L111.562 236.645L110.978 236.461L97.1769 232.195L95.6983 231.738L94.1198 231.251L89.9514 229.964L73.0237 224.73L70.737 224.024L69.4185 223.618L67.5161 223.03L65.8566 222.517L64.3046 222.038L61.6562 221.218C61.7429 221.681 61.822 222.137 61.9143 222.602L63.1273 228.568L63.1575 228.711L63.5342 230.597L64.0107 232.945L68.6764 234.518C76.5573 237.175 84.4413 239.819 92.3285 242.452C98.5971 244.542 104.849 246.751 111.193 248.613C111.427 248.677 111.626 248.828 111.745 249.035C111.865 249.241 111.896 249.486 111.832 249.715C111.767 249.943 111.612 250.138 111.401 250.255C111.19 250.373 110.939 250.404 110.705 250.342C107.894 249.517 105.116 248.572 102.336 247.659C94.0307 244.93 85.7385 242.166 77.4595 239.367C73.1122 237.907 68.7674 236.444 64.4251 234.976L66.789 246.609L71.0308 267.478L71.125 267.939L71.336 268.972L71.5451 270.001L73.5605 279.926L74.54 284.744C74.9883 286.942 75.4353 289.141 75.8811 291.34L75.9244 291.552L80.8217 293.41L85.9074 295.338L104.572 302.419L119.075 307.921C119.923 307.186 120.997 306.603 121.901 305.971L128.269 301.533L129.298 300.816L138.339 294.509L139.234 293.888L140.132 293.259L147.478 288.143L169.827 272.567L188.209 259.755L195.523 254.657C195.605 253.895 195.738 253.139 195.922 252.393L196.777 247.337L197.421 243.527L197.472 243.232L197.521 242.941L199.38 231.947C200.385 226.038 201.384 220.129 202.379 214.222L203.132 209.791C201.462 210.709 199.742 211.571 198.069 212.477L196.66 213.246L196.329 213.429L195.997 213.613C192.067 215.749 188.14 217.889 184.215 220.035C178.702 223.051 173.196 226.082 167.7 229.128C162.802 231.834 157.928 234.578 153.076 237.362C150.255 238.872 147.52 240.533 144.884 242.335C143.942 243.028 143.023 241.471 143.958 240.787C144.123 240.666 144.293 240.548 144.464 240.433C147.44 238.422 150.625 236.682 153.745 234.899C158.761 232.032 163.809 229.22 168.862 226.421C174.328 223.393 179.805 220.383 185.291 217.39C188.949 215.393 192.61 213.4 196.274 211.411L196.606 211.228L196.937 211.044L198.482 210.202L203.524 207.473L203.997 204.68L204.268 203.073L204.549 201.419L204.635 200.916L204.684 200.62L204.735 200.324L204.873 199.512L205.276 197.122L205.577 195.34L205.587 195.283L205.515 195.321L204.2 196.027Z" fill="#FE6B21"/>
<path d="M194.745 169.691C194.745 169.691 194.736 169.691 194.734 169.72C194.753 169.704 194.762 169.691 194.745 169.691ZM205.725 178.525C204.867 175.82 203.17 173.44 200.869 171.714C199.309 170.401 197.323 169.669 195.263 169.649C195.084 169.676 194.909 169.722 194.74 169.786V169.845C194.74 169.807 194.74 169.834 194.762 169.886C194.792 169.976 194.847 170.143 194.864 170.182C194.935 170.334 195.016 170.482 195.107 170.624C195.321 170.979 195.566 171.315 195.838 171.63C196.682 172.708 197.761 173.59 198.997 174.212C199.33 174.347 199.689 174.41 200.049 174.396C200.161 174.385 200.274 174.397 200.381 174.432C200.487 174.466 200.585 174.522 200.668 174.596C200.751 174.67 200.817 174.76 200.862 174.86C200.907 174.961 200.93 175.069 200.929 175.179C200.974 175.377 200.94 175.585 200.836 175.761C200.731 175.938 200.563 176.069 200.364 176.131C200.341 176.141 200.317 176.15 200.292 176.156C199.077 176.468 197.874 176.823 196.685 177.22C194.816 177.793 193.011 178.548 191.298 179.475C190.632 179.812 190.035 180.266 189.539 180.815C189.49 180.883 189.446 180.953 189.407 181.027C189.369 181.094 189.339 181.166 189.317 181.24C189.309 181.279 189.309 181.32 189.317 181.359C189.325 181.378 189.338 181.393 189.354 181.405C189.558 181.529 189.788 181.607 190.027 181.633C190.266 181.671 190.508 181.693 190.75 181.699H190.969C191.802 181.704 192.635 181.646 193.459 181.526C194.55 181.38 195.632 181.175 196.7 180.913C197.686 180.67 198.362 182.089 197.407 182.55C196.604 182.944 195.827 183.385 195.079 183.87C194.713 184.105 194.352 184.347 194.001 184.605C192.839 185.447 191.3 186.636 191.189 188.152C191.189 188.135 191.253 188.251 191.189 188.185C191.291 188.286 191.093 188.11 191.274 188.277C191.131 188.146 191.451 188.31 191.274 188.277C191.374 188.301 191.462 188.336 191.573 188.358C192.116 188.418 192.664 188.404 193.203 188.314C195.482 187.921 197.704 187.257 199.818 186.336C199.846 186.327 199.874 186.319 199.903 186.312C200.094 186.265 200.296 186.287 200.471 186.375C200.646 186.463 200.783 186.611 200.854 186.79C200.949 186.956 200.987 187.147 200.961 187.336C200.936 187.524 200.849 187.7 200.713 187.836C199.633 188.79 198.653 189.846 197.785 190.988C197.349 191.548 196.966 192.146 196.64 192.774C196.486 193.074 196.36 193.386 196.263 193.708C196.183 193.963 196.141 194.229 196.137 194.496C196.136 194.573 196.142 194.65 196.154 194.726C196.178 194.872 196.229 195.013 196.305 195.141C196.337 195.186 196.377 195.224 196.424 195.253C196.477 195.271 196.529 195.293 196.58 195.317C196.711 195.324 196.842 195.324 196.974 195.317C197.275 195.284 197.572 195.218 197.859 195.121C197.929 195.097 197.996 195.068 198.066 195.042C198.826 194.751 199.551 194.381 200.23 193.939C200.285 193.906 200.336 193.867 200.39 193.833C201.13 193.367 201.84 192.857 202.515 192.305C202.843 192.039 203.156 191.754 203.457 191.473C203.758 191.192 204.039 190.921 204.316 190.626L204.412 190.526C204.549 190.381 204.696 190.241 204.828 190.093C205.2 189.676 205.517 189.216 205.77 188.722C206.206 187.819 206.462 186.843 206.523 185.847C206.563 185.45 206.582 185.053 206.593 184.654C206.593 184.353 206.604 184.053 206.593 183.754C206.582 183.454 206.574 183.158 206.554 182.861C206.454 181.389 206.176 179.933 205.725 178.525ZM222.021 95.7239C221.766 94.8992 221.211 94.1936 220.461 93.739C219.711 93.2844 218.816 93.112 217.945 93.2539C217.452 93.5229 216.912 93.6993 216.352 93.774C211.571 94.5606 210.324 90.2104 210.021 87.393C209.992 87.1198 209.969 86.8459 209.953 86.5715C209.765 86.7553 209.548 86.9722 209.309 87.1927C207.164 89.1856 204.488 90.5508 201.586 91.133C195.463 92.3276 195.576 89.1114 195.576 89.1114C193.618 89.4528 191.626 89.5761 189.639 89.479C189.204 90.1717 188.84 90.9049 188.554 91.6678C187.88 93.412 187.516 95.2553 187.477 97.1188C187.517 99.0166 187.951 100.887 188.754 102.616C189.375 104.047 190.246 105.362 191.329 106.503C192.545 107.793 193.996 108.852 195.608 109.627C195.597 109.826 195.584 110.12 195.578 110.487V111.038C195.597 113.292 195.955 117.125 198.077 118.105C199.446 118.557 200.926 118.572 202.304 118.149C202.441 118.072 202.597 118.034 202.754 118.039C206.057 117.177 208.952 115.225 210.946 112.516C211.393 111.823 211.644 111.026 211.675 110.208V110.092C211.675 110.053 211.686 109.996 211.686 109.947V107.626C213.743 105.885 215.257 103.615 216.054 101.076C216.831 101.462 217.708 101.611 218.573 101.504C219.438 101.397 220.249 101.039 220.903 100.477C221.544 99.8771 221.991 99.1078 222.19 98.2634C222.389 97.419 222.33 96.5362 222.021 95.7239ZM191.745 96.5252C191.631 96.4902 191.529 96.4268 191.449 96.3414C191.279 96.1719 191.182 95.9447 191.18 95.7074V94.4209C191.183 94.1842 191.279 93.9577 191.449 93.7887C191.621 93.6205 191.855 93.5259 192.099 93.5259C192.34 93.536 192.569 93.6291 192.747 93.7887C192.917 93.9577 193.013 94.1842 193.016 94.4209V95.7074C193.014 95.9447 192.917 96.1719 192.747 96.3414C192.575 96.5085 192.342 96.6029 192.099 96.6042C191.976 96.6084 191.854 96.5811 191.745 96.5252ZM201.244 111.114C201.183 111.295 201.066 111.454 200.909 111.568C200.751 111.681 200.562 111.744 200.366 111.748C199.617 111.725 198.873 111.616 198.151 111.423C197.782 111.336 197.418 111.235 197.058 111.118C196.873 111.059 196.709 110.948 196.587 110.8C196.512 110.703 196.457 110.592 196.425 110.474C196.387 110.324 196.387 110.167 196.425 110.017V110.004C196.495 109.778 196.652 109.587 196.863 109.473C197.074 109.358 197.322 109.328 197.556 109.39C198.282 109.628 199.028 109.803 199.786 109.914C199.981 109.938 200.177 109.952 200.373 109.956C200.547 109.956 200.716 110.006 200.861 110.099C200.931 110.148 200.994 110.205 201.05 110.268C201.192 110.432 201.274 110.637 201.283 110.851C201.286 110.938 201.272 111.026 201.244 111.108V111.114ZM206.678 102.425C204.794 105.975 199.601 108.135 195.941 105.755C194.9 104.978 194.044 103.99 193.434 102.857C192.825 101.725 192.476 100.477 192.412 99.1992C192.405 99.0591 192.433 98.9195 192.494 98.7924C192.554 98.6653 192.646 98.5545 192.76 98.4695C192.874 98.3845 193.008 98.3279 193.15 98.3046C193.292 98.2812 193.437 98.2918 193.574 98.3355C194.634 98.6819 195.736 98.8968 196.851 98.975C200.102 99.2491 203.376 99.0334 206.559 98.3355C207.085 98.227 207.787 98.5836 207.721 99.1992C207.585 100.328 207.233 101.422 206.683 102.425H206.678ZM209.552 95.1762V96.3028C209.548 96.5398 209.452 96.7663 209.283 96.9369C209.11 97.1041 208.876 97.1984 208.633 97.1997C208.51 97.2041 208.388 97.1775 208.279 97.1225C208.166 97.087 208.064 97.0237 207.983 96.9387C207.813 96.7692 207.716 96.542 207.714 96.3047V95.0182C207.716 94.7808 207.813 94.5536 207.983 94.3841C208.156 94.2169 208.389 94.1226 208.633 94.1213C208.756 94.1151 208.878 94.1418 208.987 94.1985C209.1 94.234 209.202 94.2972 209.283 94.3823C209.453 94.5518 209.55 94.779 209.552 95.0163V95.1762Z" fill="#FFCEB6"/>
<path d="M259.558 185.077C258.805 183.432 256.733 177.773 254.254 177.773C252.781 177.773 251.532 179.499 250.77 180.878C251.446 181.542 252.083 182.243 252.68 182.976C255.352 186.345 257.132 190.305 257.861 194.505C258.201 196.261 258.338 198.049 258.272 199.835C259.593 201.515 261.252 202.915 263.147 203.948C266.151 204.617 263.983 196.841 263.676 195.731C262.583 192.082 261.207 188.521 259.558 185.077ZM129.096 304.049C127.758 304.467 126.581 305.268 125.717 306.348C122.684 309.829 120.631 317.996 126.764 319.676C129.857 320.521 133.356 317.731 134.6 313.442C135.594 309.983 134.323 302.67 129.096 304.049ZM190.721 261.334C189.869 261.603 189.12 262.115 188.57 262.804C186.641 265.02 185.332 270.216 189.237 271.286C191.205 271.824 193.437 270.049 194.223 267.32C194.855 265.118 194.047 260.457 190.721 261.334ZM180.851 97.4531C181.719 97.7277 182.614 97.9125 183.522 98.0045C182.936 98.7334 182.416 99.51 181.966 100.326C180.766 102.487 179.61 105.736 181.555 108.239C182.508 109.135 183.734 109.701 185.048 109.853C188.525 110.43 192.055 110.645 195.579 110.494C195.579 110.127 195.598 109.833 195.609 109.634C193.997 108.859 192.546 107.8 191.329 106.51C190.247 105.369 189.376 104.054 188.754 102.623C187.952 100.894 187.517 99.0238 187.477 97.126C187.517 95.2625 187.881 93.4192 188.555 91.675C188.841 90.9121 189.205 90.1789 189.64 89.4862C191.627 89.5833 193.618 89.46 195.577 89.1186C195.577 89.1186 195.464 92.3274 201.587 91.1402C204.489 90.558 207.165 89.1928 209.31 87.1999C209.53 86.9983 209.745 86.7912 209.954 86.5787C209.969 86.8305 209.99 87.1062 210.022 87.4002C210.331 90.2176 211.572 94.5677 216.353 93.7812C216.913 93.7065 217.453 93.5301 217.946 93.2611C218.817 93.1192 219.711 93.2916 220.462 93.7462C221.212 94.2008 221.767 94.9064 222.022 95.7311C222.332 96.5426 222.393 97.4247 222.195 98.2691C221.998 99.1135 221.553 99.8833 220.913 100.484C220.26 101.046 219.448 101.404 218.583 101.511C217.719 101.618 216.841 101.469 216.065 101.083C215.267 103.623 213.753 105.892 211.697 107.633V109.954C211.697 110.004 211.697 110.051 211.685 110.099C211.674 110.147 211.685 110.176 211.685 110.215C213.546 110.557 216.017 111 218.404 111.395C220.844 111.853 223.31 112.173 225.788 112.352C228.739 112.352 227.261 106.288 224.9 102.886C225.381 103.378 226.596 104.012 229.319 102.518C231.333 101.406 228.707 94.7387 221.382 89.817C220.817 89.4402 220.229 89.0727 219.613 88.7143C219.68 88.637 219.729 88.5473 219.759 88.4505C219.788 88.3538 219.797 88.2522 219.784 88.152C219.772 88.0518 219.738 87.9553 219.686 87.8683C219.633 87.7813 219.563 87.7058 219.48 87.6465C217.817 86.4019 215.976 85.4008 214.017 84.6747C208.845 82.6651 203.353 81.5524 197.788 81.3869C194.979 81.2677 192.165 81.3186 189.363 81.5394C187.335 81.6938 185.313 81.918 183.296 82.212C182.13 82.3811 182.625 84.1087 183.784 83.9396C185.577 83.6799 187.383 83.4771 189.201 83.3313C187.953 83.9515 186.984 84.9983 186.477 86.2718C186.257 86.636 186.169 87.062 186.228 87.4809C186.287 87.8998 186.489 88.2871 186.801 88.5801C184.308 90.373 181.939 92.3241 179.71 94.4207C179.661 94.4722 179.621 94.52 179.578 94.5696C178.203 96.0913 179.418 96.968 180.851 97.4531Z" fill="#29175F"/>
<path d="M195.933 105.755C199.6 108.135 204.786 105.975 206.669 102.425C207.218 101.422 207.569 100.328 207.705 99.1994C207.771 98.5837 207.069 98.2272 206.543 98.3356C203.36 99.0335 200.086 99.2492 196.835 98.9752C195.719 98.8978 194.618 98.6829 193.558 98.3356C193.421 98.292 193.276 98.2814 193.134 98.3047C192.992 98.3281 192.858 98.3847 192.744 98.4697C192.63 98.5546 192.538 98.6655 192.478 98.7926C192.417 98.9197 192.389 99.0593 192.395 99.1994C192.46 100.477 192.811 101.726 193.422 102.859C194.033 103.991 194.89 104.979 195.933 105.755ZM194.498 100.449C195.273 100.597 196.056 100.706 196.843 100.776C199.765 101.024 202.708 100.879 205.59 100.344C205.517 100.574 205.433 100.8 205.339 101.022C204.776 102.365 203.763 103.482 202.465 104.191C201.682 104.624 200.807 104.873 199.909 104.92C199.01 104.968 198.113 104.811 197.287 104.463C196.124 103.784 195.247 102.721 194.816 101.467C194.692 101.133 194.586 100.794 194.498 100.449ZM208.632 97.1998C208.875 97.1986 209.109 97.1042 209.282 96.937C209.451 96.7665 209.547 96.5399 209.551 96.303V95.0165C209.549 94.7791 209.452 94.5519 209.282 94.3824C209.201 94.2974 209.099 94.2341 208.986 94.1987C208.877 94.1419 208.755 94.1152 208.632 94.1215C208.388 94.1227 208.155 94.2171 207.982 94.3843C207.812 94.5537 207.715 94.781 207.713 95.0183V96.3048C207.715 96.5422 207.812 96.7694 207.982 96.9388C208.063 97.0239 208.165 97.0872 208.278 97.1226C208.386 97.1794 208.509 97.206 208.632 97.1998ZM193.015 95.7057V94.4192C193.012 94.1825 192.916 93.956 192.746 93.787C192.568 93.6274 192.339 93.5343 192.098 93.5242C191.854 93.5242 191.62 93.6188 191.448 93.787C191.278 93.956 191.182 94.1825 191.179 94.4192V95.7057C191.181 95.943 191.278 96.1702 191.448 96.3397C191.528 96.4251 191.63 96.4885 191.744 96.5235C191.853 96.5788 191.975 96.6054 192.098 96.6007C192.341 96.5993 192.573 96.505 192.746 96.3379C192.916 96.1689 193.012 95.9424 193.015 95.7057ZM200.365 109.956C200.168 109.952 199.972 109.938 199.777 109.914C199.02 109.803 198.273 109.628 197.547 109.39C197.314 109.328 197.065 109.358 196.854 109.473C196.643 109.588 196.486 109.778 196.417 110.004V110.017C196.378 110.167 196.378 110.324 196.417 110.474C196.448 110.592 196.503 110.703 196.579 110.8C196.7 110.949 196.864 111.059 197.05 111.118C197.41 111.235 197.775 111.333 198.142 111.423C198.865 111.616 199.608 111.725 200.357 111.748C200.553 111.744 200.743 111.681 200.9 111.568C201.057 111.454 201.174 111.296 201.235 111.114C201.265 111.029 201.278 110.94 201.275 110.851C201.265 110.637 201.183 110.432 201.041 110.269C200.986 110.205 200.923 110.148 200.853 110.1C200.708 110.006 200.538 109.957 200.365 109.956ZM200.254 138.141C200.201 139.293 202.039 139.292 202.09 138.141C202.329 132.828 202.74 127.52 203.121 122.216C203.57 123.428 204.343 124.502 205.359 125.325C206.375 126.149 207.599 126.692 208.903 126.9C210.206 127.108 211.543 126.973 212.776 126.508C214.008 126.043 215.091 125.266 215.912 124.256C217.858 122.36 219.524 120.209 220.862 117.864C221.691 116.513 222.441 115.116 223.107 113.681C223.204 113.475 223.219 113.24 223.149 113.023C223.112 112.883 223.042 112.754 222.944 112.645C222.846 112.536 222.724 112.451 222.586 112.398C222.448 112.344 222.3 112.323 222.152 112.336C222.004 112.349 221.862 112.395 221.736 112.472C221.644 112.556 221.57 112.657 221.519 112.77C220.105 115.987 218.213 118.983 215.904 121.663C214.614 123.445 212.694 124.699 210.514 125.183C209.481 125.227 208.456 124.99 207.554 124.499C206.652 124.007 205.907 123.281 205.403 122.4C204.616 121.265 204.033 120.007 203.68 118.68C203.618 118.49 203.495 118.324 203.328 118.208C203.161 118.093 202.96 118.033 202.755 118.039C202.598 118.034 202.442 118.072 202.305 118.149C202.173 118.221 202.066 118.332 202.002 118.465C201.54 119.618 200.814 120.652 199.879 121.488C198.945 122.325 197.827 122.943 196.611 123.293C192.759 123.938 190.583 120.061 189.792 117.015C189.535 116.109 189.374 115.179 189.312 114.24C189.306 114.047 189.234 113.862 189.108 113.712C188.982 113.563 188.81 113.459 188.617 113.415C188.508 113.378 188.392 113.363 188.277 113.37C188.161 113.378 188.049 113.407 187.945 113.458C187.842 113.508 187.75 113.578 187.674 113.663C187.599 113.749 187.541 113.848 187.506 113.955C187.48 114.048 187.469 114.144 187.474 114.24C187.582 117.17 188.583 120.001 190.35 122.373C191.006 123.217 191.851 123.905 192.821 124.382C193.791 124.86 194.86 125.115 195.946 125.129C196.959 125.076 197.95 124.826 198.862 124.393C199.774 123.961 200.589 123.355 201.258 122.611C200.986 126.421 200.729 130.231 200.485 134.043C200.395 135.408 200.318 136.774 200.254 138.141Z" fill="#29175F"/>
<path d="M198.75 127.991C198.577 127.823 198.343 127.728 198.1 127.728C197.856 127.728 197.622 127.823 197.45 127.991C197.284 128.163 197.189 128.389 197.181 128.625C197.152 129.176 197.122 129.728 197.105 130.279C197.105 130.516 197.202 130.744 197.374 130.912C197.546 131.081 197.779 131.175 198.023 131.176C198.266 131.175 198.5 131.081 198.672 130.913C198.839 130.741 198.935 130.516 198.942 130.279C198.959 129.728 198.991 129.176 199.019 128.625C199.016 128.388 198.92 128.16 198.75 127.991ZM198.1 134.899C197.856 134.9 197.622 134.994 197.45 135.162C197.284 135.334 197.189 135.559 197.181 135.794C197.152 136.346 197.122 136.897 197.105 137.448C197.105 137.626 197.158 137.799 197.259 137.947C197.36 138.094 197.503 138.209 197.671 138.277C197.839 138.345 198.024 138.363 198.202 138.328C198.38 138.294 198.544 138.208 198.672 138.082C198.84 137.911 198.936 137.685 198.942 137.448C198.959 136.897 198.991 136.346 199.019 135.794C199.018 135.557 198.921 135.329 198.749 135.161C198.577 134.993 198.343 134.899 198.1 134.899ZM243.3 130.444C242.679 128.953 241.939 127.511 241.089 126.131L240.964 125.934C240.883 125.811 240.772 125.709 240.642 125.637C240.511 125.564 240.365 125.523 240.215 125.516C240.065 125.51 239.915 125.539 239.779 125.6C239.643 125.662 239.523 125.754 239.431 125.87C239.31 126.002 239.239 126.17 239.229 126.346C239.22 126.523 239.272 126.697 239.378 126.84C241.375 130.074 242.864 133.58 243.795 137.244C246.157 145.533 245.902 154.323 243.065 162.468C240.724 168.574 236.537 173.842 231.059 177.574C229.916 178.393 228.739 179.164 227.529 179.887L227.293 180.027C227.06 180.167 226.821 180.297 226.585 180.433C226.229 180.637 225.879 180.845 225.519 181.042C224.719 181.479 223.903 181.891 223.082 182.293C220.636 183.483 218.12 184.53 215.547 185.43C213.099 186.292 210.605 186.93 208.102 187.573C208.141 187.389 208.184 187.206 208.215 187.022C208.35 186.156 208.423 185.282 208.433 184.407V183.508C208.433 183.206 208.41 182.912 208.388 182.617C208.283 181.248 208.038 179.894 207.655 178.573C207.135 176.778 206.303 175.084 205.195 173.563C204.66 172.157 204.126 170.748 203.592 169.336C206.939 168.333 210.146 166.927 213.136 165.15C219.807 161.558 224.94 155.756 227.608 148.793C229.27 143.582 229.473 138.033 228.196 132.72C227.955 131.591 226.182 132.069 226.425 133.197C227.504 137.772 227.437 142.533 226.227 147.077C225.165 150.697 223.282 154.037 220.716 156.85C218.448 159.324 215.819 161.459 212.914 163.187C210.66 164.543 208.289 165.705 205.828 166.659C204.626 167.138 203.395 167.543 202.142 167.873C201.908 167.938 201.71 168.09 201.59 168.297C201.47 168.503 201.438 168.747 201.501 168.976L202.016 170.331C200.132 168.758 197.742 167.881 195.263 167.853C194.883 167.855 194.508 167.933 194.16 168.082C193.812 168.23 193.499 168.446 193.24 168.717C193.114 168.875 193.02 169.055 192.965 169.248C192.91 169.765 192.967 170.287 193.132 170.78C193.297 171.274 193.567 171.728 193.924 172.113C194.721 173.191 195.685 174.141 196.781 174.929C196.892 175.008 197.005 175.089 197.122 175.168C194.626 175.848 192.233 176.849 190.006 178.143C189.108 178.654 188.345 179.362 187.776 180.211C187.742 180.268 187.708 180.325 187.68 180.384C187.491 180.2 187.292 180.029 187.083 179.863C186.653 179.525 186.201 179.213 185.73 178.932C185.785 178.854 185.831 178.771 185.868 178.684L187.727 174.227L187.994 173.584C188.058 173.354 188.026 173.11 187.906 172.903C187.786 172.697 187.586 172.545 187.352 172.481C187.117 172.424 186.869 172.457 186.658 172.574C186.448 172.69 186.292 172.881 186.222 173.108L184.365 177.564L184.156 178.068C183.373 177.674 182.575 177.31 181.763 176.978L183.592 172.588L183.86 171.944C183.925 171.715 183.894 171.47 183.773 171.264C183.653 171.057 183.454 170.905 183.219 170.842C183.063 170.801 182.899 170.802 182.744 170.846C182.589 170.889 182.448 170.973 182.338 171.088C182.231 171.198 182.147 171.327 182.089 171.468L180.232 175.923L180.209 175.976L176.228 174.396L176.049 174.324L175.389 174.063C175.154 174.001 174.904 174.032 174.692 174.15C174.48 174.267 174.325 174.461 174.259 174.69C174.201 174.919 174.235 175.161 174.354 175.367C174.474 175.572 174.67 175.725 174.902 175.793L177.196 176.702L174.935 182.128L173.287 186.083L172.59 187.751L168.703 197.08L167.797 199.253L165.962 198.517L165.303 198.256C165.068 198.194 164.817 198.225 164.605 198.342C164.393 198.46 164.238 198.654 164.173 198.883C164.114 199.112 164.148 199.355 164.268 199.56C164.387 199.765 164.583 199.918 164.815 199.986L169.383 201.798L169.435 201.82C168.872 203.175 168.306 204.528 167.74 205.88L167.473 206.525C167.44 206.638 167.431 206.757 167.446 206.874C167.461 206.99 167.499 207.103 167.558 207.206C167.618 207.308 167.697 207.398 167.793 207.471C167.888 207.543 167.997 207.596 168.113 207.627C168.348 207.685 168.596 207.652 168.806 207.536C169.017 207.419 169.173 207.228 169.243 207.003L171.1 202.546C171.748 202.829 172.404 203.097 173.061 203.355L173.536 203.538C172.98 204.869 172.425 206.2 171.873 207.53L171.603 208.173C171.54 208.403 171.571 208.647 171.692 208.854C171.812 209.06 172.011 209.212 172.246 209.276C172.48 209.333 172.729 209.3 172.939 209.183C173.15 209.067 173.306 208.875 173.376 208.649L175.233 204.194L175.259 204.132C177.301 204.895 179.528 205.059 181.664 204.602C184.756 203.72 185.745 200.131 185.242 197.323C184.49 194.454 182.666 191.964 180.128 190.339C179.783 190.086 179.431 189.841 179.074 189.604L178.836 189.444C180.357 189.456 181.874 189.295 183.357 188.966C184.065 188.802 184.758 188.582 185.429 188.308C186.507 187.955 187.447 187.285 188.119 186.39C188.791 185.495 189.163 184.419 189.183 183.309C190.248 183.539 191.346 183.583 192.426 183.438L192.549 183.423C190.986 184.383 189.85 185.881 189.366 187.619C188.757 191.552 194.79 189.896 196.794 189.288C196.582 189.549 196.371 189.812 196.171 190.08C195.646 190.759 195.192 191.488 194.817 192.256C194.552 192.799 194.374 193.377 194.289 193.972C194.187 194.656 194.31 195.354 194.641 195.965C195.657 197.777 198.058 197.049 199.554 196.356C199.931 196.187 200.285 195.989 200.641 195.794C201.244 195.454 201.829 195.082 202.391 194.68L202.643 194.496C202.879 194.323 203.111 194.146 203.338 193.963C203.565 193.781 203.79 193.597 204.012 193.412L204.287 193.166C204.641 192.85 204.988 192.53 205.321 192.201C206.112 191.444 206.783 190.577 207.312 189.628C209.794 189.115 212.238 188.447 214.632 187.628C218.656 186.321 222.55 184.66 226.267 182.666C226.576 182.498 226.883 182.328 227.188 182.155C227.493 181.982 227.807 181.799 228.13 181.604C228.93 181.13 229.721 180.643 230.495 180.134C236.253 176.541 240.865 171.448 243.811 165.431C247.34 157.231 248.18 148.166 246.216 139.481C245.551 136.383 244.574 133.356 243.3 130.444ZM174.715 187.378L174.903 187.404C174.841 187.396 174.778 187.392 174.715 187.393V187.378ZM183.091 196.437C183.879 198.383 183.783 201.899 181.468 202.779C179.153 203.66 176.205 202.596 174.041 201.807C172.494 201.242 170.989 200.57 169.539 199.798C171.046 196.175 172.556 192.552 174.069 188.929C174.165 189.011 174.274 189.076 174.391 189.124C174.329 189.097 174.237 189.06 174.291 189.084C174.346 189.108 174.455 189.152 174.536 189.189C174.821 189.315 175.101 189.448 175.386 189.584C176.285 190.024 177.157 190.515 177.998 191.054C180.21 192.308 181.985 194.182 183.091 196.433V196.437ZM184.871 186.623C182.939 187.348 180.875 187.682 178.806 187.603H178.595C177.716 187.603 176.832 187.569 175.941 187.501C175.643 187.479 175.344 187.452 175.047 187.419C174.956 187.419 174.753 187.382 174.715 187.378L175.039 186.581L176.414 183.282L177.872 179.79C178.153 179.117 178.433 178.443 178.712 177.768C179.62 178.061 180.515 178.399 181.392 178.77L182.029 179.044C183.775 179.827 186.412 180.962 187.22 182.789C187.947 184.412 186.32 185.987 184.871 186.619V186.623ZM194.745 169.695C194.762 169.695 194.745 169.708 194.734 169.724C194.736 169.695 194.741 169.691 194.745 169.691V169.695ZM206.6 184.673C206.591 185.071 206.568 185.469 206.531 185.866C206.469 186.862 206.213 187.837 205.777 188.74C205.524 189.234 205.208 189.695 204.835 190.111C204.704 190.26 204.557 190.4 204.419 190.545L204.323 190.644C204.047 190.935 203.761 191.217 203.464 191.491C203.155 191.778 202.841 192.057 202.522 192.324C201.847 192.875 201.138 193.385 200.398 193.851C200.343 193.886 200.292 193.925 200.238 193.958C199.559 194.4 198.833 194.77 198.073 195.06C198.004 195.086 197.936 195.116 197.866 195.139C197.579 195.236 197.282 195.302 196.981 195.336C196.85 195.343 196.718 195.343 196.587 195.336C196.537 195.312 196.484 195.29 196.431 195.272C196.384 195.242 196.344 195.204 196.312 195.16C196.236 195.031 196.185 194.891 196.162 194.744C196.149 194.668 196.144 194.592 196.145 194.515C196.148 194.247 196.191 193.982 196.271 193.726C196.368 193.405 196.494 193.092 196.647 192.793C196.973 192.165 197.357 191.567 197.793 191.006C198.66 189.865 199.641 188.809 200.72 187.854C200.856 187.718 200.943 187.543 200.969 187.354C200.994 187.166 200.956 186.974 200.861 186.809C200.79 186.629 200.654 186.482 200.478 186.394C200.303 186.306 200.101 186.283 199.91 186.331C199.881 186.337 199.853 186.345 199.825 186.355C197.711 187.276 195.49 187.94 193.21 188.332C192.672 188.422 192.123 188.437 191.581 188.376C191.479 188.354 191.381 188.319 191.281 188.295C191.132 188.172 191.453 188.336 191.281 188.295C191.093 188.128 191.298 188.295 191.196 188.204C191.262 188.27 191.196 188.154 191.196 188.17C191.308 186.654 192.846 185.465 194.009 184.623C194.359 184.37 194.721 184.127 195.086 183.888C195.834 183.403 196.612 182.963 197.414 182.569C198.369 182.107 197.691 180.689 196.708 180.931C195.64 181.194 194.557 181.398 193.466 181.545C192.642 181.665 191.809 181.723 190.976 181.718H190.758C190.515 181.712 190.274 181.69 190.034 181.652C189.795 181.626 189.566 181.548 189.362 181.424C189.345 181.412 189.332 181.396 189.324 181.378C189.316 181.338 189.316 181.298 189.324 181.258C189.346 181.184 189.377 181.113 189.415 181.045C189.453 180.972 189.497 180.901 189.546 180.834C190.043 180.285 190.639 179.831 191.306 179.494C193.021 178.563 194.828 177.805 196.7 177.23C197.889 176.833 199.092 176.478 200.307 176.166C200.332 176.159 200.356 176.151 200.379 176.14C200.578 176.079 200.746 175.947 200.851 175.771C200.955 175.595 200.988 175.387 200.944 175.188C200.945 175.078 200.922 174.97 200.877 174.87C200.832 174.769 200.766 174.679 200.683 174.605C200.6 174.531 200.502 174.476 200.395 174.441C200.289 174.407 200.176 174.394 200.064 174.405C199.704 174.419 199.344 174.357 199.011 174.221C197.776 173.599 196.697 172.717 195.853 171.639C195.581 171.325 195.336 170.988 195.122 170.634C195.031 170.492 194.949 170.344 194.879 170.191C194.862 170.152 194.807 169.985 194.777 169.895C194.758 169.844 194.747 169.816 194.754 169.855V169.796C194.923 169.732 195.099 169.685 195.278 169.658C197.338 169.678 199.324 170.41 200.884 171.724C203.185 173.449 204.882 175.829 205.74 178.535C206.196 179.947 206.478 181.407 206.58 182.885C206.601 183.183 206.614 183.48 206.619 183.778C206.612 184.07 206.61 184.368 206.6 184.669V184.673ZM177.371 159.157C177.869 148.442 179.465 137.802 182.136 127.397C182.325 126.662 182.513 125.927 182.722 125.192C182.786 124.963 182.754 124.719 182.633 124.513C182.513 124.306 182.313 124.155 182.079 124.092C181.844 124.029 181.594 124.06 181.382 124.177C181.171 124.293 181.015 124.487 180.95 124.716C178.878 132.254 177.39 139.933 176.499 147.689C176.023 151.499 175.701 155.326 175.533 159.16C175.485 160.311 177.322 160.307 177.371 159.157Z" fill="#29175F"/>
<path d="M234.796 221.503C228.8 222.196 222.735 220.998 217.487 218.085C216.783 217.679 216.101 217.239 215.442 216.767C212.764 214.815 210.468 212.409 208.661 209.666C208.574 209.539 208.495 209.408 208.412 209.28L208.169 208.912C207.815 208.342 207.472 207.767 207.158 207.179C206.862 206.628 206.593 206.062 206.333 205.49L206.318 205.459L206.293 205.396L206.212 205.196C206.189 205.141 206.168 205.086 206.148 205.031C206.091 204.872 205.991 204.731 205.858 204.624L205.903 204.352L206.45 201.123L206.5 200.827L206.549 200.533L207.039 197.635L207.34 195.854L207.361 195.731L207.68 193.857C207.717 193.686 207.705 193.509 207.644 193.346C207.582 193.182 207.475 193.039 207.333 192.933C207.192 192.827 207.022 192.762 206.844 192.746C206.666 192.73 206.488 192.764 206.329 192.844L204.28 193.947L203.903 194.147L203.338 194.45L203.027 194.617L202.4 194.954L200.759 195.836L197.894 197.374L177.655 208.25L167.58 213.659L158.949 218.298L153.329 221.317L132.189 232.677L125.263 236.399C124.25 236.95 123.15 237.435 122.17 238.053L116.392 236.264L108.633 233.866L101.579 231.681L99.7878 231.129L98.4844 230.727L97.1282 230.308L83.7303 226.156L75.0432 223.471L72.7584 222.766L68.2981 221.385C67.3299 221.088 66.3599 220.766 65.3879 220.446C64.9152 220.29 64.4461 220.139 63.9677 219.989C63.4893 219.838 63.0636 219.702 62.6115 219.566C62.0465 219.4 61.4814 219.244 60.9163 219.101C60.8133 219.049 60.7004 219.019 60.5848 219.013C60.3822 218.963 60.1679 218.992 59.9863 219.093C59.8046 219.193 59.6696 219.358 59.6091 219.553C59.5221 219.734 59.4976 219.937 59.5394 220.132L60.8353 226.502L61.4927 229.733L61.8694 231.618L63.9941 242.07L67.9364 261.463L69.1005 267.193L69.3114 268.226L69.5205 269.255L71.5341 279.157L71.6094 279.525L73.9225 290.901C74.0581 291.572 74.0618 292.656 74.7644 293.005C74.8153 293.033 74.8718 293.053 74.9245 293.079C73.1747 296.979 72.9844 302.222 77.7631 303.529C80.8559 304.376 84.3556 301.586 85.5988 297.297L85.6402 297.137L92.7376 299.829L110.997 306.763L117.058 309.064C117.74 309.322 118.961 310.075 119.695 309.698C120.176 309.408 120.637 309.087 121.074 308.737L124.5 306.348L131.343 301.579L136.145 298.234L140.407 295.262L141.302 294.639L142.2 294.012L151.699 287.396L168.367 275.781L183.362 265.33L193.76 258.083L196.335 256.289C196.762 255.992 197.184 255.738 197.301 255.212C197.973 252.152 198.352 249.002 198.874 245.917L199.232 243.803L199.281 243.509L199.33 243.217L201.916 227.93L205.157 208.771L205.229 208.348L205.269 208.116L205.34 207.686C206.037 209.033 206.843 210.323 207.749 211.546L207.998 211.876L208.231 212.191L208.252 212.216C211.651 216.739 216.373 220.153 221.797 222.008C225.987 223.328 230.417 223.767 234.794 223.295C234.931 223.28 235.063 223.238 235.182 223.171C235.302 223.104 235.405 223.013 235.487 222.905C235.568 222.796 235.625 222.673 235.655 222.541C235.684 222.41 235.686 222.274 235.658 222.143C235.646 222.045 235.614 221.95 235.564 221.864C235.514 221.779 235.446 221.704 235.366 221.644C235.285 221.585 235.193 221.541 235.095 221.517C234.997 221.493 234.895 221.488 234.796 221.503ZM205.577 195.338L205.276 197.121L204.873 199.51L204.735 200.322L204.685 200.618L204.636 200.914L204.549 201.417L204.268 203.071L203.997 204.678L203.524 207.471C201.842 208.379 200.161 209.289 198.482 210.2L196.937 211.042L196.606 211.226L196.274 211.41C192.61 213.399 188.949 215.392 185.291 217.388C179.806 220.386 174.33 223.397 168.863 226.419C163.804 229.212 158.764 232.038 153.745 234.897C150.626 236.68 147.441 238.42 144.465 240.431C144.293 240.546 144.124 240.664 143.958 240.785C143.016 241.469 143.939 243.026 144.885 242.333C147.52 240.531 150.255 238.871 153.076 237.36C157.923 234.57 162.809 231.846 167.7 229.126C173.195 226.075 178.701 223.044 184.216 220.033C188.139 217.886 192.066 215.746 195.998 213.611L196.329 213.428L196.661 213.244L198.069 212.476C199.74 211.57 201.46 210.715 203.133 209.789L202.379 214.22C201.375 220.128 200.375 226.036 199.38 231.945L197.521 242.939L197.472 243.23L197.422 243.526L196.777 247.335L195.922 252.391C195.739 253.137 195.605 253.893 195.523 254.655L188.209 259.754L169.827 272.565L147.482 288.139L140.136 293.255L139.238 293.884L138.343 294.505L129.302 300.812L128.273 301.529L121.905 305.968C120.999 306.6 119.925 307.19 119.079 307.918L104.576 302.415L85.9115 295.334L80.8258 293.406L75.9285 291.548L75.8852 291.337C75.4381 289.131 74.9911 286.933 74.544 284.741L73.5646 279.922L71.5491 269.998L71.3401 268.968L71.1291 267.936L71.0349 267.474L66.7931 246.606L64.4292 234.972C68.7727 236.443 73.1175 237.906 77.4636 239.363C85.7514 242.145 94.0435 244.91 102.34 247.655C105.12 248.574 107.899 249.513 110.709 250.338C110.944 250.401 111.194 250.369 111.405 250.252C111.616 250.134 111.771 249.94 111.836 249.711C111.9 249.482 111.869 249.238 111.749 249.031C111.63 248.825 111.431 248.673 111.197 248.609C104.853 246.747 98.6012 244.538 92.3326 242.449C84.4442 239.819 76.5601 237.175 68.6804 234.515L64.0148 232.942L63.5383 230.593L63.1615 228.707L63.1314 228.564L61.9184 222.598C61.8261 222.143 61.747 221.679 61.6603 221.214L64.3086 222.034L65.8607 222.514L67.5202 223.027L69.4226 223.615L70.7411 224.021L73.0278 224.727L89.9555 229.961L94.1239 231.247L95.7023 231.734L97.181 232.192L110.982 236.457L111.566 236.641L118.396 238.751C119.283 239.027 120.168 239.334 121.063 239.6L121.014 241.684L120.946 244.654L120.654 257.475L120.302 272.997L120.008 285.862L119.995 286.481L119.984 286.81C119.984 287.123 119.965 287.435 119.952 287.749C119.886 289.497 119.788 291.259 119.846 293V293.09C119.857 293.321 119.958 293.538 120.129 293.698C120.3 293.857 120.528 293.946 120.764 293.946C121.001 293.946 121.228 293.857 121.399 293.698C121.57 293.538 121.672 293.321 121.683 293.09L121.79 288.422L121.805 287.753V287.479L121.826 286.531L122.091 274.93L122.444 259.41L122.751 245.924C122.779 244.689 122.843 243.443 122.882 242.199C122.909 241.368 122.922 240.545 122.903 239.71C123.157 239.595 123.402 239.44 123.657 239.306L127.424 237.284L141.65 229.639L158.524 220.573L161.125 219.174L169.914 214.451L181.492 208.23L198.231 199.236L202.328 197.03L203.251 196.534H203.266L203.334 196.498L204.204 196.031L205.523 195.323L205.594 195.285L205.577 195.338Z" fill="#29175F"/>
<path d="M261.834 101.57C262.925 101.063 264.019 100.559 265.119 100.07C265.524 99.8904 265.931 99.7139 266.34 99.5412L266.528 99.464L266.677 99.4033C266.816 99.3482 266.956 99.2931 267.095 99.2416C268.19 98.8336 267.715 97.1005 266.607 97.5122C262.524 99.0284 258.606 101.09 254.69 102.965C249.834 105.293 244.991 107.643 240.16 110.015L236.992 111.572C235.937 112.092 236.866 113.639 237.92 113.119C240.809 111.697 243.697 110.281 246.585 108.874C251.654 106.407 256.722 103.941 261.834 101.57ZM257.274 118.092C257.416 118.028 257.557 117.967 257.698 117.908L257.719 117.899L257.868 117.842C258.099 117.774 258.295 117.621 258.414 117.416C258.533 117.211 258.567 116.968 258.508 116.74C258.442 116.511 258.287 116.317 258.075 116.199C257.864 116.082 257.613 116.051 257.378 116.113C255.903 116.664 254.487 117.399 253.07 118.077C251.35 118.899 249.634 119.732 247.924 120.573L246.794 121.125C245.739 121.645 246.668 123.192 247.723 122.672C250.516 121.296 253.313 119.915 256.138 118.609C256.511 118.44 256.892 118.263 257.274 118.092ZM274.89 158.545C271.998 159.985 269.275 161.821 266.534 163.507C263.155 165.59 259.787 167.694 256.43 169.82L254.17 171.249C253.183 171.876 254.102 173.429 255.099 172.799C260.695 169.252 266.302 165.714 271.983 162.296C273.245 161.537 274.502 160.744 275.822 160.09C276.869 159.566 275.941 158.019 274.89 158.545Z" fill="#F5F8FF"/>
<path d="M203.27 72.1352C202.621 72.6082 202.036 73.1604 201.53 73.7782C200.384 75.1151 199.577 76.6967 199.174 78.3948C199.135 78.5101 199.121 78.6317 199.133 78.7523C199.144 78.873 199.18 78.9902 199.239 79.0968C199.298 79.2035 199.378 79.2974 199.475 79.3729C199.572 79.4483 199.684 79.5039 199.804 79.536C199.924 79.5682 200.049 79.5764 200.172 79.5601C200.295 79.5438 200.413 79.5033 200.52 79.4412C200.626 79.379 200.719 79.2964 200.792 79.1984C200.865 79.1004 200.917 78.9889 200.944 78.8708C201.04 78.4342 201.166 78.0043 201.321 77.5844C201.355 77.4949 201.391 77.4049 201.428 77.3142C201.428 77.3013 201.513 77.1304 201.524 77.0992C201.605 76.9301 201.69 76.761 201.781 76.5956C201.96 76.2644 202.159 75.943 202.374 75.6326C202.466 75.4984 202.562 75.3679 202.66 75.2393L202.713 75.1713V75.1603L202.854 74.9912C203.175 74.612 203.522 74.2552 203.894 73.9234C204.003 73.826 204.116 73.7396 204.231 73.6385C204.346 73.5375 204.293 73.5871 204.25 73.6202C204.439 73.4857 204.567 73.2857 204.61 73.0614C204.652 72.8372 204.604 72.6056 204.477 72.4145C204.35 72.2233 204.152 72.0871 203.925 72.0337C203.698 71.9804 203.458 72.0141 203.255 72.1278L203.27 72.1352ZM214.109 74.3388C213.985 74.1348 213.783 73.9867 213.548 73.9265C213.313 73.8664 213.063 73.8989 212.852 74.0171C212.647 74.1411 212.498 74.3375 212.436 74.5657C212.375 74.7939 212.406 75.0364 212.523 75.243C212.566 75.3514 212.609 75.4598 212.649 75.5701C212.817 76.0354 212.95 76.512 213.046 76.9963C213.174 77.6218 213.233 78.2588 213.221 78.8966C213.215 79.7097 213.094 80.5181 212.86 81.2986C212.796 81.5276 212.828 81.7719 212.949 81.9779C213.069 82.184 213.269 82.335 213.503 82.398C213.738 82.4609 213.988 82.4307 214.2 82.3139C214.411 82.197 214.567 82.0031 214.632 81.7746C215.362 79.3133 215.176 76.6796 214.109 74.3388Z" fill="#29175F"/>
<path d="M116.246 188.784C124.193 186.092 142.47 184.714 152.006 200.738" stroke="#4355E6" stroke-width="2" stroke-linecap="round"/>
<path d="M188.279 171.443C187.195 168.798 175.286 172.546 169.467 174.751C166.833 178.05 161.277 185.332 160.13 188.061C158.695 191.472 160.847 196.195 160.847 198.644C160.847 201.093 169.467 211.327 170.708 211.852C171.948 212.376 179.045 207.303 182.182 206.429C184.692 205.729 185.977 203.28 186.306 202.143L186.844 193.221L189.971 184.497C188.178 183.657 187.663 182.889 187.932 182.276C188.384 179.939 189.364 174.089 188.279 171.443Z" fill="white"/>
<path d="M142.919 168.493C143.031 168.993 143.074 169.506 143.048 170.017C143.042 170.107 143.018 170.194 142.975 170.274C142.933 170.353 142.874 170.423 142.802 170.479C142.73 170.535 142.647 170.575 142.558 170.598C142.469 170.62 142.376 170.624 142.285 170.609L139.904 170.226C139.759 170.203 139.625 170.132 139.526 170.025C139.426 169.919 139.367 169.782 139.358 169.638C139.349 169.256 139.207 168.888 138.957 168.594C138.854 168.478 138.74 168.373 138.614 168.281L137.929 172.331L138.908 172.909C140.254 173.683 141.119 174.581 141.502 175.604C141.886 176.625 141.988 177.726 141.797 178.798C141.677 179.552 141.402 180.276 140.99 180.925C140.597 181.543 140.091 182.085 139.496 182.524C138.894 182.964 138.205 183.279 137.474 183.449C136.999 183.563 136.511 183.615 136.022 183.605L135.694 185.545C135.676 185.652 135.636 185.755 135.577 185.848C135.518 185.94 135.441 186.02 135.35 186.084C135.259 186.147 135.157 186.193 135.048 186.217C134.939 186.242 134.827 186.246 134.716 186.228C134.606 186.21 134.501 186.171 134.406 186.114C134.311 186.056 134.229 185.981 134.164 185.893C134.099 185.804 134.053 185.704 134.027 185.598C134.002 185.492 133.999 185.382 134.017 185.274L134.341 183.359C133.171 183.055 132.137 182.383 131.4 181.447C131.041 181.005 130.76 180.507 130.568 179.975C130.509 179.817 130.456 179.655 130.41 179.486C130.29 179.047 130.226 178.595 130.219 178.141C130.216 177.993 130.245 177.847 130.307 177.712C130.368 177.577 130.459 177.456 130.573 177.36C130.687 177.263 130.821 177.191 130.967 177.151C131.113 177.111 131.266 177.102 131.415 177.126L132.421 177.289L133.134 177.404C133.346 177.438 133.541 177.537 133.692 177.685C133.844 177.833 133.944 178.023 133.98 178.229C134.03 178.515 134.115 178.794 134.233 179.059C134.373 179.373 134.628 179.625 134.949 179.765L135.722 175.196L134.868 174.722C133.808 174.159 132.934 173.315 132.345 172.287C131.791 171.255 131.615 170.069 131.845 168.926C131.966 168.17 132.247 167.447 132.671 166.802C133.074 166.189 133.599 165.661 134.216 165.25C134.805 164.839 135.476 164.552 136.185 164.41C136.639 164.317 137.102 164.278 137.565 164.292L137.853 162.586C137.89 162.369 138.013 162.175 138.197 162.047C138.287 161.983 138.39 161.938 138.499 161.913C138.608 161.889 138.72 161.885 138.83 161.903C138.941 161.92 139.046 161.959 139.141 162.017C139.236 162.074 139.318 162.149 139.383 162.238C139.448 162.326 139.495 162.427 139.52 162.533C139.545 162.639 139.549 162.749 139.531 162.856L139.243 164.558C139.703 164.692 140.143 164.886 140.552 165.132C141.158 165.496 141.679 165.98 142.08 166.555C142.484 167.142 142.769 167.8 142.919 168.493ZM138.151 178.286C138.245 177.813 138.177 177.323 137.959 176.891C137.792 176.595 137.562 176.336 137.284 176.133L136.643 179.922C136.851 179.865 137.05 179.782 137.236 179.675C137.488 179.528 137.702 179.326 137.861 179.085C138.019 178.845 138.119 178.571 138.151 178.286ZM136.363 171.393L136.955 167.895C136.675 167.942 136.413 168.062 136.198 168.244C135.814 168.556 135.56 168.994 135.484 169.475C135.426 169.83 135.458 170.193 135.577 170.533C135.741 170.893 136.016 171.193 136.363 171.393Z" fill="#FE6B21"/>
<path d="M183.174 180.35C183.299 180.911 183.348 181.486 183.318 182.059C183.312 182.16 183.284 182.258 183.237 182.347C183.189 182.436 183.123 182.515 183.042 182.578C182.962 182.64 182.869 182.686 182.769 182.711C182.669 182.736 182.565 182.74 182.463 182.723L179.793 182.293C179.629 182.268 179.479 182.189 179.368 182.069C179.257 181.949 179.19 181.796 179.18 181.634C179.169 181.206 179.011 180.793 178.73 180.463C178.615 180.333 178.486 180.215 178.346 180.112L177.577 184.655L178.675 185.303C180.184 186.171 181.154 187.179 181.585 188.325C182.015 189.47 182.129 190.706 181.916 191.907C181.78 192.754 181.473 193.565 181.01 194.293C180.57 194.987 180.002 195.595 179.334 196.087C178.659 196.58 177.887 196.933 177.066 197.124C176.534 197.252 175.986 197.311 175.438 197.299L175.07 199.475C175.05 199.595 175.005 199.711 174.939 199.814C174.873 199.918 174.787 200.008 174.685 200.079C174.583 200.15 174.468 200.201 174.346 200.229C174.224 200.257 174.098 200.261 173.974 200.241C173.851 200.221 173.732 200.177 173.626 200.113C173.52 200.048 173.427 199.964 173.355 199.865C173.282 199.765 173.23 199.653 173.201 199.534C173.173 199.415 173.169 199.292 173.189 199.171L173.553 197.023C172.241 196.682 171.081 195.929 170.254 194.879C169.852 194.383 169.536 193.825 169.321 193.228C169.255 193.051 169.196 192.868 169.144 192.679C169.01 192.187 168.938 191.68 168.93 191.171C168.926 191.005 168.96 190.841 169.028 190.689C169.097 190.538 169.199 190.403 169.327 190.294C169.455 190.186 169.606 190.106 169.769 190.061C169.932 190.015 170.104 190.006 170.271 190.032L171.399 190.215L172.2 190.344C172.437 190.383 172.656 190.493 172.826 190.659C172.996 190.825 173.108 191.038 173.148 191.27C173.204 191.59 173.299 191.903 173.431 192.201C173.589 192.553 173.875 192.835 174.235 192.992L175.101 187.867L174.144 187.337C172.955 186.705 171.975 185.758 171.315 184.606C170.694 183.448 170.496 182.118 170.754 180.835C170.889 179.987 171.205 179.176 171.679 178.454C172.132 177.766 172.721 177.174 173.413 176.713C174.073 176.251 174.826 175.93 175.621 175.77C176.13 175.667 176.65 175.623 177.169 175.638L177.492 173.725C177.533 173.482 177.672 173.264 177.877 173.12C177.979 173.049 178.094 172.998 178.216 172.971C178.338 172.943 178.465 172.939 178.588 172.959C178.712 172.979 178.83 173.022 178.937 173.087C179.043 173.151 179.135 173.235 179.208 173.335C179.281 173.434 179.333 173.546 179.362 173.665C179.39 173.784 179.394 173.908 179.374 174.028L179.051 175.937C179.567 176.088 180.06 176.304 180.519 176.581C181.199 176.988 181.783 177.532 182.232 178.176C182.685 178.835 183.005 179.573 183.174 180.35ZM177.826 191.334C177.931 190.803 177.855 190.254 177.611 189.769C177.424 189.436 177.165 189.146 176.854 188.918L176.135 193.168C176.368 193.104 176.591 193.011 176.8 192.891C177.082 192.727 177.322 192.5 177.5 192.23C177.678 191.96 177.79 191.653 177.826 191.334ZM175.821 183.603L176.485 179.679C176.171 179.732 175.877 179.867 175.636 180.07C175.205 180.42 174.92 180.912 174.835 181.452C174.77 181.85 174.806 182.257 174.939 182.638C175.123 183.041 175.431 183.379 175.821 183.603Z" fill="#29175F"/>
<path d="M127.883 204.848C128.302 205.117 128.682 205.439 129.013 205.805C129.071 205.87 129.114 205.945 129.139 206.027C129.165 206.109 129.172 206.195 129.162 206.28C129.151 206.365 129.122 206.447 129.076 206.52C129.031 206.594 128.97 206.657 128.898 206.705L127.01 207.994C126.895 208.073 126.756 208.112 126.615 208.104C126.474 208.095 126.34 208.041 126.236 207.948C125.968 207.693 125.62 207.534 125.248 207.497C125.098 207.484 124.948 207.487 124.8 207.506L127.102 210.717L128.165 210.475C129.613 210.127 130.818 210.177 131.779 210.625C132.739 211.072 133.562 211.757 134.165 212.613C134.598 213.207 134.906 213.879 135.068 214.59C135.223 215.268 135.248 215.968 135.142 216.655C135.032 217.347 134.777 218.01 134.394 218.603C134.148 218.99 133.851 219.344 133.51 219.655L134.613 221.192C134.674 221.278 134.717 221.374 134.74 221.475C134.763 221.577 134.765 221.682 134.747 221.784C134.728 221.887 134.689 221.984 134.632 222.072C134.574 222.16 134.5 222.235 134.412 222.295C134.325 222.355 134.227 222.397 134.123 222.419C134.019 222.442 133.911 222.444 133.806 222.426C133.701 222.407 133.601 222.369 133.511 222.314C133.421 222.257 133.344 222.185 133.283 222.1L132.194 220.581C131.188 221.135 130.022 221.35 128.879 221.191C128.331 221.123 127.799 220.966 127.304 220.728C127.156 220.658 127.009 220.582 126.862 220.496C126.48 220.275 126.127 220.008 125.812 219.703C125.709 219.604 125.629 219.485 125.578 219.353C125.528 219.221 125.507 219.079 125.519 218.939C125.531 218.798 125.574 218.662 125.646 218.54C125.717 218.417 125.816 218.312 125.934 218.231L126.732 217.688L127.298 217.301C127.466 217.187 127.666 217.127 127.871 217.13C128.076 217.132 128.274 217.197 128.44 217.315C128.669 217.477 128.917 217.612 129.18 217.716C129.49 217.839 129.837 217.845 130.151 217.732L127.554 214.11L126.647 214.343C125.539 214.648 124.365 214.641 123.26 214.322C122.176 213.978 121.245 213.284 120.62 212.353C120.185 211.759 119.883 211.082 119.731 210.367C119.587 209.685 119.584 208.983 119.724 208.301C119.845 207.636 120.107 207.004 120.494 206.445C120.741 206.087 121.03 205.758 121.355 205.466L120.386 204.114C120.262 203.942 120.214 203.729 120.251 203.522C120.27 203.42 120.309 203.322 120.366 203.235C120.424 203.147 120.498 203.071 120.585 203.012C120.673 202.952 120.771 202.91 120.875 202.887C120.979 202.865 121.087 202.862 121.192 202.881C121.297 202.899 121.397 202.937 121.487 202.993C121.577 203.049 121.654 203.121 121.715 203.206L122.683 204.555C123.089 204.347 123.521 204.193 123.969 204.095C124.632 203.948 125.319 203.94 125.985 204.072C126.662 204.21 127.307 204.473 127.883 204.848ZM131.326 214.638C131.066 214.254 130.685 213.964 130.241 213.81C129.924 213.717 129.59 213.69 129.261 213.732L131.415 216.736C131.518 216.562 131.597 216.375 131.651 216.181C131.723 215.917 131.731 215.64 131.674 215.372C131.618 215.105 131.499 214.853 131.326 214.638ZM125.392 211.096L123.403 208.323C123.244 208.537 123.148 208.79 123.125 209.054C123.076 209.517 123.202 209.981 123.48 210.359C123.683 210.639 123.953 210.867 124.267 211.021C124.625 211.16 125.018 211.186 125.392 211.096Z" fill="#4355E6"/>
<path d="M85.5431 195.133C85.9618 195.401 86.3419 195.723 86.6736 196.09C86.7312 196.154 86.774 196.23 86.7995 196.312C86.8251 196.394 86.8326 196.48 86.8217 196.565C86.8108 196.65 86.7818 196.732 86.7364 196.805C86.6908 196.878 86.6302 196.941 86.5581 196.99L84.6705 198.278C84.5554 198.358 84.4158 198.397 84.2752 198.388C84.1343 198.38 84.0005 198.325 83.8959 198.233C83.6281 197.978 83.2798 197.819 82.9077 197.781C82.7584 197.769 82.6084 197.772 82.4598 197.791L84.7623 201.002L85.8252 200.759C87.2735 200.411 88.4782 200.461 89.4392 200.909C90.3994 201.356 91.2224 202.042 91.825 202.898C92.2586 203.491 92.566 204.164 92.7286 204.875C92.8835 205.553 92.9084 206.253 92.8021 206.94C92.6919 207.632 92.4373 208.295 92.0546 208.888C91.8081 209.275 91.5108 209.628 91.17 209.94L92.2727 211.477C92.3339 211.562 92.3771 211.658 92.4001 211.76C92.423 211.862 92.4253 211.966 92.4068 212.069C92.3881 212.171 92.349 212.269 92.2917 212.357C92.2344 212.444 92.1601 212.52 92.0726 212.58C91.9853 212.639 91.8869 212.681 91.7829 212.704C91.6787 212.726 91.5711 212.729 91.4663 212.71C91.3614 212.692 91.2612 212.654 91.1713 212.598C91.0816 212.542 91.004 212.469 90.9428 212.384L89.8539 210.866C88.8483 211.42 87.6826 211.635 86.5391 211.475C85.9917 211.407 85.4595 211.251 84.9646 211.013C84.8161 210.943 84.6689 210.866 84.5222 210.781C84.14 210.56 83.7875 210.293 83.472 209.987C83.3688 209.889 83.289 209.769 83.2384 209.637C83.1878 209.505 83.1675 209.364 83.1793 209.224C83.1909 209.083 83.234 208.947 83.306 208.824C83.3777 208.702 83.4761 208.597 83.5942 208.516L84.3924 207.972L84.958 207.586C85.1261 207.472 85.3264 207.412 85.5311 207.414C85.7357 207.417 85.9344 207.481 86.0997 207.599C86.329 207.762 86.5776 207.897 86.8399 208.001C87.1505 208.124 87.4968 208.13 87.8114 208.016L85.214 204.394L84.3075 204.627C83.199 204.932 82.0251 204.925 80.9205 204.607C79.8364 204.263 78.9051 203.568 78.2802 202.638C77.8456 202.043 77.5431 201.366 77.3914 200.651C77.247 199.97 77.2446 199.267 77.3845 198.585C77.5054 197.921 77.7675 197.289 78.1542 196.73C78.4007 196.371 78.6899 196.043 79.0156 195.751L78.0457 194.399C77.9224 194.227 77.874 194.014 77.9116 193.807C77.93 193.705 77.9691 193.607 78.0264 193.519C78.0837 193.432 78.1582 193.356 78.2454 193.296C78.3329 193.236 78.4314 193.194 78.5355 193.172C78.6395 193.149 78.7471 193.147 78.8519 193.165C78.957 193.183 79.0572 193.221 79.1472 193.277C79.2368 193.333 79.3145 193.406 79.3757 193.491L80.3433 194.84C80.7492 194.632 81.1816 194.478 81.6291 194.38C82.2918 194.233 82.9789 194.225 83.6449 194.356C84.3226 194.494 84.9671 194.758 85.5431 195.133ZM88.9864 204.922C88.7266 204.539 88.3454 204.248 87.9011 204.095C87.5841 204.001 87.2502 203.975 86.9216 204.017L89.0753 207.021C89.1781 206.847 89.2575 206.66 89.3114 206.466C89.3828 206.202 89.3907 205.925 89.3344 205.657C89.2779 205.389 89.1589 205.138 88.9864 204.922ZM83.052 201.381L81.0634 198.607C80.9044 198.822 80.808 199.075 80.7848 199.339C80.7364 199.801 80.8626 200.266 81.1399 200.644C81.343 200.924 81.6131 201.151 81.9268 201.306C82.2848 201.444 82.6779 201.471 83.052 201.381Z" fill="#FEB186"/>
</g>
<defs>
<linearGradient id="paint0_linear_3536_5205" x1="89.5611" y1="201.624" x2="332.804" y2="144.937" gradientUnits="userSpaceOnUse">
<stop stop-color="#4C60E9"/>
<stop offset="1" stop-color="#7485FF"/>
</linearGradient>
<clipPath id="clip0_3536_5205">
<path d="M0 20.6238C0 9.57809 8.9543 0.623779 20 0.623779H323C334.046 0.623779 343 9.57808 343 20.6238V201.624H0V20.6238Z" fill="white"/>
</clipPath>
</defs>
</svg>
