<svg width="22" height="22" viewBox="0 0 22 22" fill="none" xmlns="http://www.w3.org/2000/svg">
<g clip-path="url(#clip0_3536_8429)">
<path d="M10.7941 14.9285C14.6995 14.9285 17.8655 11.7625 17.8655 7.85707C17.8655 3.95163 14.6995 0.785645 10.7941 0.785645C6.88864 0.785645 3.72266 3.95163 3.72266 7.85707C3.72266 11.7625 6.88864 14.9285 10.7941 14.9285Z" stroke="#4355E6" stroke-width="1.71429" stroke-linecap="round" stroke-linejoin="round"/>
<path d="M10.7952 10.9996C12.531 10.9996 13.9381 9.59248 13.9381 7.85672C13.9381 6.12097 12.531 4.71387 10.7952 4.71387C9.05945 4.71387 7.65234 6.12097 7.65234 7.85672C7.65234 9.59248 9.05945 10.9996 10.7952 10.9996Z" stroke="#4355E6" stroke-width="1.71429" stroke-linecap="round" stroke-linejoin="round"/>
<path d="M9.42834 14.8027L8.04548 20.617C8.01811 20.7275 7.96752 20.8309 7.89707 20.9203C7.82662 21.0097 7.73793 21.0831 7.63691 21.1356C7.53028 21.1819 7.41529 21.2057 7.29905 21.2057C7.18282 21.2057 7.06782 21.1819 6.96119 21.1356L1.74405 18.857C1.63462 18.8053 1.53833 18.7294 1.4624 18.6351C1.38648 18.5409 1.3329 18.4306 1.30568 18.3127C1.27846 18.1947 1.27831 18.0721 1.30525 17.9541C1.33218 17.8361 1.3855 17.7257 1.46119 17.6313L5.49977 12.5713" stroke="#4355E6" stroke-width="1.71429" stroke-linecap="round" stroke-linejoin="round"/>
<path d="M12.5703 14.7239L13.9846 20.6167C14.0127 20.7291 14.0653 20.8339 14.1387 20.9235C14.212 21.0132 14.3043 21.0855 14.4089 21.1353C14.5126 21.1822 14.6251 21.2064 14.7389 21.2064C14.8527 21.2064 14.9652 21.1822 15.0689 21.1353L20.2546 18.8567C20.3657 18.8056 20.4633 18.7293 20.5397 18.6338C20.6161 18.5383 20.6691 18.4263 20.6946 18.3067C20.7244 18.1898 20.7257 18.0673 20.6983 17.9498C20.671 17.8322 20.6158 17.7229 20.5375 17.631L16.326 12.2725" stroke="#4355E6" stroke-width="1.71429" stroke-linecap="round" stroke-linejoin="round"/>
</g>
<defs>
<clipPath id="clip0_3536_8429">
<rect width="22" height="22" fill="white"/>
</clipPath>
</defs>
</svg>
