<svg width="22" height="22" viewBox="0 0 22 22" fill="none" xmlns="http://www.w3.org/2000/svg">
<g clip-path="url(#clip0_3536_8442)">
<path d="M11 9.14572H21.2143V2.07429C21.2154 1.96321 21.1925 1.8532 21.1471 1.75181C21.1018 1.65042 21.035 1.56005 20.9514 1.4869C20.8678 1.41375 20.7693 1.35956 20.6628 1.32804C20.5563 1.29652 20.4442 1.28842 20.3343 1.30429L11 2.42V9.14572Z" stroke="#4355E6" stroke-width="1.71429" stroke-linecap="round" stroke-linejoin="round"/>
<path d="M7.8566 9.14583V2.68726L1.47661 3.47297C1.28496 3.49613 1.10855 3.58903 0.981024 3.73394C0.853498 3.87886 0.783782 4.06565 0.785177 4.25868V9.14583H7.8566Z" stroke="#4355E6" stroke-width="1.71429" stroke-linecap="round" stroke-linejoin="round"/>
<path d="M7.85659 12.2886H0.785156V17.0029C0.78589 17.1903 0.852332 17.3716 0.972921 17.5152C1.09351 17.6588 1.26061 17.7555 1.44516 17.7886L7.85659 18.8571V12.2886Z" stroke="#4355E6" stroke-width="1.71429" stroke-linecap="round" stroke-linejoin="round"/>
<path d="M11 12.2886V19.2029L20.3029 20.6957C20.4147 20.7139 20.5292 20.7076 20.6385 20.6773C20.7477 20.647 20.8491 20.5935 20.9357 20.5203C21.0222 20.4472 21.092 20.3562 21.1401 20.2535C21.1882 20.1509 21.2135 20.0391 21.2143 19.9257V12.2886H11Z" stroke="#4355E6" stroke-width="1.71429" stroke-linecap="round" stroke-linejoin="round"/>
</g>
<defs>
<clipPath id="clip0_3536_8442">
<rect width="22" height="22" fill="white"/>
</clipPath>
</defs>
</svg>
