<svg width="56" height="181" viewBox="0 0 56 181" fill="none" xmlns="http://www.w3.org/2000/svg">
<path d="M55.0641 0L7.56229 0.000175344C5.69254 -0.000577318 3.89259 0.710315 2.52795 1.98849C1.16331 3.26667 0.336298 5.01631 0.214844 6.88212C2.88425 6.88212 5.44431 7.94252 7.33187 9.83007C9.21942 11.7176 10.2798 14.2777 10.2798 16.9471C10.2798 19.6165 9.21942 22.1766 7.33187 24.0641C5.44431 25.9517 2.88425 27.0121 0.214844 27.0121V36.3159C2.88425 36.3159 5.44431 37.3763 7.33187 39.2639C9.21942 41.1514 10.2798 43.7115 10.2798 46.3809C10.2798 49.0503 9.21942 51.6104 7.33187 53.4979C5.44431 55.3855 2.88425 56.4459 0.214844 56.4459V65.7435C2.88425 65.7435 5.44431 66.8039 7.33187 68.6914C9.21942 70.579 10.2798 73.139 10.2798 75.8084C10.2798 78.4778 9.21942 81.0379 7.33187 82.9255C5.44431 84.813 2.88425 85.8734 0.214844 85.8734V95.1772C2.88425 95.1772 5.44431 96.2377 7.33187 98.1252C9.21942 100.013 10.2798 102.573 10.2798 105.242C10.2798 107.912 9.21942 110.472 7.33187 112.359C5.44431 114.247 2.88425 115.307 0.214844 115.307V124.605C2.88425 124.605 5.44431 125.665 7.33187 127.553C9.21942 129.44 10.2798 132 10.2798 134.67C10.2798 137.339 9.21942 139.899 7.33187 141.787C5.44431 143.674 2.88425 144.735 0.214844 144.735V154.039C2.88425 154.039 5.44431 155.099 7.33187 156.987C9.21942 158.874 10.2798 161.434 10.2798 164.104C10.2798 166.773 9.21942 169.333 7.33187 171.221C5.44431 173.108 2.88425 174.169 0.214844 174.169C0.328621 176.042 1.15295 177.801 2.51957 179.087C3.88619 180.373 5.69206 181.088 7.56858 181.088L55.0641 181.088V0Z" fill="#F5F8FF"/>
</svg>
