<svg width="22" height="22" viewBox="0 0 22 22" fill="none" xmlns="http://www.w3.org/2000/svg">
<g clip-path="url(#clip0_3536_8438)">
<path d="M15.9967 11.7857C15.9981 10.955 16.2639 10.1464 16.7555 9.47686C17.247 8.80731 17.9389 8.31156 18.731 8.06137C18.4241 7.49612 18.0015 7.00195 17.4907 6.61115C16.9798 6.22035 16.3923 5.94169 15.7665 5.79339C15.1407 5.64509 14.4906 5.63047 13.8587 5.7505C13.2268 5.87052 12.6274 6.12249 12.0995 6.48994C11.8606 6.62786 11.5897 6.70047 11.3138 6.70047C11.038 6.70047 10.767 6.62786 10.5281 6.48994C9.95675 6.12755 9.31596 5.88856 8.64683 5.78831C7.9777 5.68805 7.295 5.72874 6.64252 5.90777C5.99004 6.08679 5.38217 6.4002 4.8579 6.8279C4.33363 7.25559 3.90453 7.78813 3.59811 8.39137C2.72272 10.0035 2.42338 11.8661 2.74954 13.6714C3.01436 16.1508 4.08532 18.4749 5.79811 20.2871C6.36273 20.8227 7.09921 21.1404 7.87628 21.1836C8.65334 21.2268 9.42049 20.9926 10.041 20.5228C10.398 20.2587 10.8304 20.1161 11.2745 20.1161C11.7187 20.1161 12.1511 20.2587 12.5081 20.5228C13.1035 21.0038 13.8501 21.2583 14.6154 21.241C15.3806 21.2237 16.115 20.9359 16.6881 20.4285C17.9818 19.1225 18.904 17.4952 19.3595 15.7142C18.4156 15.5837 17.5523 15.112 16.9326 14.3881C16.313 13.6642 15.98 12.7384 15.9967 11.7857Z" stroke="#4355E6" stroke-width="1.71429" stroke-linecap="round" stroke-linejoin="round"/>
<path d="M12.8555 3.14279L15.2126 0.785645" stroke="#4355E6" stroke-width="1.71429" stroke-linecap="round" stroke-linejoin="round"/>
</g>
<defs>
<clipPath id="clip0_3536_8438">
<rect width="22" height="22" fill="white"/>
</clipPath>
</defs>
</svg>
