<svg width="1413" height="2557" viewBox="0 0 1413 2557" fill="none" xmlns="http://www.w3.org/2000/svg">
<path d="M1663.66 715.624C1820.38 829.797 1806.16 1049.63 1605.49 1090.95C1354.64 1142.6 1067.32 1050.39 1191.21 1368.17C1315.1 1685.94 1161.78 1802.37 1018.3 1777.16C903.508 1756.99 725.531 1648.6 650.891 1596.92" stroke="url(#paint0_linear_3536_6779)" stroke-width="2" stroke-dasharray="14 14"/>
<g clip-path="url(#clip0_3536_6779)">
<path d="M1136.43 1712.81L1123.03 1714.23L1124.97 1708.07C1125.31 1706.98 1125.2 1705.8 1124.66 1704.78C1124.11 1703.77 1123.19 1703 1122.08 1702.65L1090.72 1692.78C1089.61 1692.43 1088.42 1692.53 1087.39 1693.05C1086.36 1693.57 1085.59 1694.48 1085.25 1695.56L1076.21 1724.29C1075.86 1725.38 1075.97 1726.56 1076.52 1727.57C1077.06 1728.59 1077.98 1729.36 1079.09 1729.71L1110.45 1739.58C1111.56 1739.93 1112.76 1739.83 1113.78 1739.31C1114.81 1738.79 1115.58 1737.88 1115.92 1736.79L1117.86 1730.64L1128.03 1739.48C1128.31 1739.7 1128.64 1739.85 1128.99 1739.92C1129.35 1739.99 1129.71 1739.97 1130.05 1739.87C1130.39 1739.76 1130.7 1739.58 1130.95 1739.34C1131.2 1739.09 1131.38 1738.78 1131.48 1738.45L1138.67 1715.63C1138.78 1715.3 1138.8 1714.95 1138.74 1714.6C1138.67 1714.25 1138.52 1713.93 1138.3 1713.65C1138.08 1713.37 1137.8 1713.15 1137.47 1713C1137.15 1712.86 1136.79 1712.79 1136.43 1712.81Z" stroke="url(#paint1_linear_3536_6779)" stroke-width="1.71429" stroke-linecap="round" stroke-linejoin="round"/>
</g>
<g clip-path="url(#clip1_3536_6779)">
<path d="M1131.11 1867.69L1150.74 1882.99" stroke="url(#paint2_linear_3536_6779)" stroke-width="1.71429" stroke-linecap="round" stroke-linejoin="round"/>
<path d="M1127.07 1824.38C1125.35 1818.52 1124.97 1815.46 1127.68 1810.93C1130.25 1806.64 1135.55 1804.29 1140.4 1804.76C1147.15 1805.42 1150.42 1812.29 1150.45 1818.43C1150.49 1825.08 1144.02 1839.18 1140.25 1844.46C1135.97 1850.45 1130.75 1854.84 1123.93 1857.63C1119.25 1859.55 1113.15 1861.34 1108.18 1859.69C1103.67 1858.19 1100.2 1854.73 1102.79 1849.94C1105.96 1844.08 1112.3 1840.89 1118.26 1838.65C1126.17 1835.68 1134.23 1834.39 1142.46 1836.38C1146.79 1837.42 1155.12 1840.28 1156.11 1847.01C1157.06 1853.43 1146.76 1859.61 1147.23 1861.23C1147.71 1862.84 1160.22 1855.73 1164.56 1860.88C1165.77 1862.31 1166.79 1865.14 1166.79 1865.14" stroke="url(#paint3_linear_3536_6779)" stroke-width="1.71429" stroke-linecap="round"/>
</g>
<g clip-path="url(#clip2_3536_6779)">
<path d="M1130.4 1914.11L1119.64 1905.72C1117.1 1903.74 1113.43 1904.2 1111.44 1906.74L1103.06 1917.5C1101.08 1920.04 1101.53 1923.72 1104.08 1925.7L1114.83 1934.08C1117.38 1936.07 1121.05 1935.61 1123.03 1933.06L1131.42 1922.31C1133.4 1919.76 1132.95 1916.09 1130.4 1914.11Z" stroke="url(#paint4_linear_3536_6779)" stroke-width="1.71429" stroke-linecap="round" stroke-linejoin="round"/>
<path d="M1112.63 1916.31L1121.43 1914.53L1121.85 1923.5" stroke="url(#paint5_linear_3536_6779)" stroke-width="1.71429" stroke-linecap="round" stroke-linejoin="round"/>
<path d="M1121.43 1914.53L1113.05 1925.28" stroke="url(#paint6_linear_3536_6779)" stroke-width="1.71429" stroke-linecap="round" stroke-linejoin="round"/>
</g>
<g clip-path="url(#clip3_3536_6779)">
<path d="M1063.1 1835.1L1054.04 1861.07" stroke="url(#paint7_linear_3536_6779)" stroke-width="1.71429" stroke-linecap="round" stroke-linejoin="round"/>
<path d="M1049.05 1859.33L1059.04 1862.82" stroke="url(#paint8_linear_3536_6779)" stroke-width="1.71429" stroke-linecap="round" stroke-linejoin="round"/>
<path d="M1050.37 1836.27L1051.42 1833.27C1051.6 1832.74 1051.99 1832.3 1052.49 1832.06C1053 1831.82 1053.58 1831.78 1054.11 1831.97L1072.09 1838.24C1072.62 1838.43 1073.05 1838.81 1073.3 1839.32C1073.54 1839.82 1073.58 1840.41 1073.39 1840.94L1072.35 1843.93" stroke="url(#paint9_linear_3536_6779)" stroke-width="1.71429" stroke-linecap="round" stroke-linejoin="round"/>
</g>
<defs>
<linearGradient id="paint0_linear_3536_6779" x1="737.568" y1="1687.22" x2="1009.03" y2="1918.48" gradientUnits="userSpaceOnUse">
<stop stop-color="#4C60E9"/>
<stop offset="1" stop-color="#7485FF"/>
</linearGradient>
<linearGradient id="paint1_linear_3536_6779" x1="1089.1" y1="1732.86" x2="1130.63" y2="1737.31" gradientUnits="userSpaceOnUse">
<stop stop-color="#4C60E9"/>
<stop offset="1" stop-color="#7485FF"/>
</linearGradient>
<linearGradient id="paint2_linear_3536_6779" x1="1135.62" y1="1872.47" x2="1139.88" y2="1869.41" gradientUnits="userSpaceOnUse">
<stop stop-color="#4C60E9"/>
<stop offset="1" stop-color="#7485FF"/>
</linearGradient>
<linearGradient id="paint3_linear_3536_6779" x1="1109.37" y1="1861.59" x2="1150.48" y2="1885.61" gradientUnits="userSpaceOnUse">
<stop stop-color="#4C60E9"/>
<stop offset="1" stop-color="#7485FF"/>
</linearGradient>
<linearGradient id="paint4_linear_3536_6779" x1="1104.68" y1="1926.17" x2="1120.9" y2="1935.6" gradientUnits="userSpaceOnUse">
<stop stop-color="#4C60E9"/>
<stop offset="1" stop-color="#7485FF"/>
</linearGradient>
<linearGradient id="paint5_linear_3536_6779" x1="1115.04" y1="1918.19" x2="1122.76" y2="1921.75" gradientUnits="userSpaceOnUse">
<stop stop-color="#4C60E9"/>
<stop offset="1" stop-color="#7485FF"/>
</linearGradient>
<linearGradient id="paint6_linear_3536_6779" x1="1113.25" y1="1925.44" x2="1113.85" y2="1925.9" gradientUnits="userSpaceOnUse">
<stop stop-color="#4C60E9"/>
<stop offset="1" stop-color="#7485FF"/>
</linearGradient>
<linearGradient id="paint7_linear_3536_6779" x1="1054.29" y1="1861.16" x2="1054.99" y2="1861.4" gradientUnits="userSpaceOnUse">
<stop stop-color="#4C60E9"/>
<stop offset="1" stop-color="#7485FF"/>
</linearGradient>
<linearGradient id="paint8_linear_3536_6779" x1="1051.33" y1="1861.19" x2="1054.96" y2="1858.54" gradientUnits="userSpaceOnUse">
<stop stop-color="#4C60E9"/>
<stop offset="1" stop-color="#7485FF"/>
</linearGradient>
<linearGradient id="paint9_linear_3536_6779" x1="1056.11" y1="1838.27" x2="1070.71" y2="1835.22" gradientUnits="userSpaceOnUse">
<stop stop-color="#4C60E9"/>
<stop offset="1" stop-color="#7485FF"/>
</linearGradient>
<clipPath id="clip0_3536_6779">
<rect width="61.3633" height="60.2269" fill="white" transform="translate(1087.68 1680.54) rotate(17.4804)"/>
</clipPath>
<clipPath id="clip1_3536_6779">
<rect width="69.3178" height="70.4541" fill="white" transform="translate(1135.9 1796.13) rotate(37.932)"/>
</clipPath>
<clipPath id="clip2_3536_6779">
<rect width="27.2726" height="27.2726" fill="white" transform="translate(1114.87 1900.77) rotate(37.932)"/>
</clipPath>
<clipPath id="clip3_3536_6779">
<rect width="29.6212" height="29.6212" fill="white" transform="translate(1049.46 1829.23) rotate(19.2329)"/>
</clipPath>
</defs>
</svg>
