<svg width="383" height="384" viewBox="0 0 383 384" fill="none" xmlns="http://www.w3.org/2000/svg">
<g clip-path="url(#clip0_3536_7908)">
<path d="M99.296 160.705C89.4453 168.447 89.7574 149.552 94.3706 151.206C95.4181 151.589 99.2443 155.419 100.001 152.964C100.33 151.901 97.538 139.942 96.4829 137.483C104.055 131.661 109.695 123.69 112.667 114.613C112.667 113.557 109.853 114.965 109.853 114.965C110.428 113.512 110.668 111.948 110.556 110.39C110.495 110.308 110.415 110.242 110.323 110.196C110.232 110.151 110.131 110.127 110.029 110.127C109.926 110.127 109.825 110.151 109.734 110.196C109.642 110.242 109.563 110.308 109.501 110.39C107.741 113.91 103.521 114.603 100.001 114.965C95.7877 114.965 81.0001 112.858 75.7224 115.317C73.2597 116.372 70.4446 119.89 71.5094 126.233C71.5094 126.937 72.5645 131.16 73.2673 131.51C75.9904 131.5 78.6654 132.228 81.0078 133.617C81.3601 133.967 81.0078 134.32 80.6573 134.32C79.2498 134.32 78.1927 133.967 77.1375 133.967C72.2122 133.617 65.1745 133.617 64.4717 139.95C63.767 144.875 65.5269 149.803 67.2868 154.025C69.3933 159.301 81.0078 176.544 82.4153 177.246C82.9081 177.256 83.3994 177.188 83.8707 177.043C84.2365 180.747 84.9086 184.435 85.5827 187.802C85.9331 189.908 88.0454 190.265 87.6892 187.802C86.6877 184.129 86.0021 180.456 85.0331 176.783C90.0446 175.611 100.663 172.612 102.82 171.266C103.521 170.91 100.345 159.649 99.296 160.705ZM103.168 120.243C103.35 120.257 103.52 120.336 103.649 120.465C103.778 120.593 103.856 120.764 103.871 120.945C103.871 123.115 97.1033 124.392 96.8333 124.465C96.4829 124.465 96.1305 123.76 96.4829 123.76C96.8735 123.368 102.203 119.921 103.168 120.243ZM85.2169 163.872C85.218 163.919 85.2096 163.965 85.1922 164.008C85.1749 164.051 85.149 164.091 85.1161 164.124C85.0831 164.156 85.0439 164.182 85.0006 164.2C84.9574 164.217 84.9111 164.225 84.8646 164.224C83.8094 164.577 82.7581 163.52 82.4019 162.817C81.6482 161.918 80.9449 160.978 80.2954 160.002C80.4536 162.812 81.1697 165.564 82.4019 168.095C82.4995 168.329 82.5181 168.589 82.4551 168.836C82.392 169.082 82.2506 169.301 82.0522 169.46C81.8539 169.618 81.6092 169.708 81.3552 169.716C81.1012 169.724 80.8515 169.649 80.6439 169.502C78.2526 166.991 76.2375 164.146 74.6614 161.057C72.9724 157.853 71.1436 154.724 71.496 150.854C71.496 150.502 72.1988 150.149 72.1988 150.854C73.0215 154.139 74.4503 157.241 76.4118 160.002C77.1125 161.37 77.945 162.666 78.8974 163.872C78.245 161.584 78.1244 159.177 78.5451 156.834C78.5535 156.628 78.6312 156.429 78.7658 156.272C78.9004 156.115 79.084 156.007 79.2871 155.967C79.4902 155.926 79.701 155.955 79.8856 156.049C80.0703 156.143 80.2179 156.296 80.305 156.484C81.8982 159.688 85.6823 162.034 85.2169 163.872ZM77.8346 119.538C77.4708 119.71 77.1682 119.486 77.4822 119.187C78.788 118.105 80.3161 117.323 81.958 116.897C83.5999 116.472 85.3153 116.413 86.9826 116.725C89.7767 117.159 92.5983 117.394 95.4258 117.428C95.6173 117.428 100.627 116.801 98.5932 118.835C96.2071 120.624 90.8624 119.752 88.0377 119.187C84.6867 118.21 81.1107 118.333 77.8346 119.538Z" fill="#29175F"/>
<path d="M117.945 152.965C118.839 152.248 119.557 151.337 120.045 150.3C120.532 149.264 120.776 148.13 120.759 146.984C120.759 142.254 116.929 139.299 113.723 135.372C111.984 133.244 109.853 131.502 107.74 129.391C107.388 129.039 106.685 129.391 107.038 130.094C108.445 131.854 109.853 133.966 111.251 135.724C115.391 140.895 117.762 143.384 118.286 146.28C118.308 148.134 117.821 149.959 116.879 151.557C116.791 151.028 116.546 150.538 116.176 150.15C115.824 149.799 115.354 149.824 115.471 150.502C116.392 155.805 117.578 161.762 115.824 167.391C115.311 169.346 114.347 171.153 113.009 172.668C111.601 174.428 109.491 175.133 107.731 176.54C107.378 176.891 107.378 177.596 108.083 177.596C110.546 177.946 112.656 176.188 114.416 174.781C116.157 172.978 117.482 170.816 118.296 168.446C119.768 163.371 119.645 157.967 117.945 152.965Z" fill="#29175F"/>
<path d="M176.355 189.558C182.247 187.873 185.88 185.499 197.466 179.706C201.889 178.231 203.994 177.356 205.909 173.373C222.14 139.594 224.186 117.489 225.97 112.144C226.376 110.061 226.61 107.947 226.669 105.825C226.669 104.768 225.262 104.768 224.909 105.473C224.005 109.185 223.302 112.944 222.803 116.733C219.481 133.135 214.53 149.165 208.025 164.585C206.301 168.472 205.21 174.083 201.34 176.195C197.475 178.323 193.479 180.203 189.377 181.826C185.116 183.857 180.932 186.399 176.355 188.511C175.298 188.854 175.65 189.558 176.355 189.558Z" fill="#29175F"/>
<path d="M224.207 100.187C222.1 98.4273 219.963 97.0485 217.522 95.2618C216.113 94.5013 214.906 93.4154 214.002 92.0944C213.568 91.2825 213.341 90.3761 213.341 89.4555C213.341 88.535 213.568 87.6286 214.002 86.8167C214.674 84.8785 215.498 82.996 216.464 81.1866C217.169 79.4286 218.224 77.6687 218.929 75.9088C219.28 75.206 218.224 74.5013 217.522 75.206C216.262 76.8347 215.199 78.6062 214.354 80.4838C212.947 83.6492 210.762 87.529 211.187 91.0392C211.443 92.2252 211.953 93.342 212.68 94.3135C213.407 95.2851 214.334 96.0886 215.4 96.6693C217.889 98.3928 220.677 100.187 223.14 101.595C224.207 101.595 224.91 100.89 224.207 100.187Z" fill="#29175F"/>
<path d="M221.038 82.5945C222.197 76.2233 222.482 69.0095 223.145 65.0014C223.497 62.8949 223.497 60.7884 223.85 58.6685C224.202 57.2609 224.552 59.0208 224.905 59.3732C225.257 60.7807 225.948 62.1901 226.312 63.9462C227.335 68.8792 227.72 74.1512 228.419 79.0747C228.442 79.2922 228.544 79.4937 228.707 79.6401C228.869 79.7865 229.08 79.8675 229.299 79.8675C229.517 79.8675 229.728 79.7865 229.891 79.6401C230.053 79.4937 230.156 79.2922 230.179 79.0747C230.426 71.7587 229.231 64.4656 226.661 57.6114C226.544 57.0361 226.238 56.5164 225.792 56.1348C225.345 55.7532 224.785 55.5315 224.198 55.5049C221.735 55.5049 222.092 59.7179 221.735 61.1331C221.023 68.0302 220.67 74.9598 220.678 81.8936C219.983 82.9468 220.686 82.9468 221.038 82.5945Z" fill="#29175F"/>
<path d="M239.689 71.6861C241.067 72.8919 242.049 74.4868 242.504 76.261C242.856 78.0026 242.856 79.7971 242.504 81.5387C242.328 81.7985 242.234 82.105 242.234 82.4187C242.234 82.7323 242.328 83.0388 242.504 83.2986C242.856 83.6491 243.206 83.2986 243.559 82.9463C244.938 81.5675 244.746 77.8466 244.264 75.9086C243.975 74.7796 243.449 73.725 242.721 72.815C241.993 71.905 241.079 71.1605 240.041 70.6309C239.539 70.4528 239.336 71.3356 239.689 71.6861Z" fill="#29175F"/>
<path d="M247.78 98.4278C248.949 95.9716 249.777 93.3675 250.243 90.6874C250.882 86.1048 250.947 80.1319 247.78 76.2617C247.428 75.557 246.372 76.2617 246.725 76.9645C248.479 81.1981 248.849 85.8785 247.78 90.335C247.075 94.548 244.524 98.0371 242.855 101.948C242.11 103.69 244.626 123.057 245.317 132.909C246.033 143.112 246.02 153.317 246.02 163.521C246.02 173.373 245.329 183.226 244.612 193.429C244.332 198.314 243.506 203.153 242.15 207.855C240.961 211.36 238.903 214.507 236.169 217.003C232.713 220.544 228.809 223.619 224.557 226.151C222.102 227.57 219.984 228.966 217.521 230.364C215.047 231.681 212.692 233.212 210.483 234.939C209.779 235.289 210.483 236.346 211.186 235.994C215.925 234.381 220.423 232.132 224.557 229.308C228.419 226.927 232.071 224.22 235.472 221.216C238.381 218.689 240.874 215.721 242.862 212.42C244.889 208.233 246.084 203.692 246.38 199.05C250.227 171.152 248.615 131.515 244.274 103.696C246.02 103.003 247.428 99.483 247.78 98.4278Z" fill="#29175F"/>
<path d="M17.667 290.892C17.1691 298.361 13.1055 317.015 11.3341 324.317C9.75231 330.837 9.57422 330.454 9.57422 332.059C9.57422 332.762 10.277 333.114 10.9817 332.41C12.2667 330.51 13.1083 328.346 13.4444 326.077C14.469 321.412 19.0745 298.248 19.0745 290.892C18.7222 289.835 17.667 289.835 17.667 290.892Z" fill="#29175F"/>
<path d="M230.892 69.2233C231.595 70.2784 232.65 70.9831 232.999 72.0383C234.003 74.2448 234.484 76.653 234.406 79.0759C234.406 81.5214 237.158 79.2674 236.166 74.8629C235.812 73.093 235.095 71.4158 234.059 69.9376C233.279 69.0456 232.32 68.3279 231.244 67.8311C230.892 68.1681 230.54 68.8652 230.892 69.2233Z" fill="#29175F"/>
<path d="M138.707 269.077C138.003 269.429 137.646 268.364 138.355 268.021C143.6 265.486 209.078 241.633 209.784 241.28C206.971 233.89 185.858 179.003 185.156 176.188C185.093 176.021 184.995 175.869 184.871 175.742C184.746 175.615 184.596 175.515 184.43 175.449C184.265 175.382 184.088 175.351 183.91 175.357C183.731 175.363 183.556 175.406 183.396 175.483C175.655 180.761 128.858 197.299 127.803 197.651C116.189 185.336 81.0064 183.574 66.2246 190.261C65.9978 190.329 65.799 190.468 65.6576 190.658C65.5162 190.847 65.4399 191.078 65.4399 191.314C65.4399 191.551 65.5162 191.781 65.6576 191.971C65.799 192.161 65.9978 192.3 66.2246 192.367C69.7175 193.448 72.0845 198.225 72.5594 198.7C59.8917 202.913 48.168 209.874 40.1959 220.514C29.9277 234.21 28.8974 243.061 12.752 295.107C12.7284 295.298 12.7475 295.492 12.8081 295.675C12.8688 295.858 12.9693 296.025 13.1025 296.164C20.8448 297.572 28.9357 297.922 36.678 299.33C36.0652 282.2 36.3716 262.805 40.891 246.2C42.7196 238.584 45.5599 231.248 49.3362 224.386C49.6885 224.034 50.3913 224.386 50.0409 224.737C47.9958 228.877 46.4596 233.249 45.466 237.759C37.0304 263.064 39.9833 299.027 40.5406 325.72C40.621 329.591 40.891 333.463 41.2434 337.333C45.1149 338.54 49.1514 339.133 53.2064 339.091C56.7262 339.091 79.5874 337.586 87.6879 336.984C104.563 335.724 154.541 333.467 162.986 334.169C163.26 334.152 163.518 334.035 163.712 333.841C163.906 333.647 164.023 333.388 164.041 333.114C164.217 323.961 167.911 265.559 167.911 261.685C158.029 263.527 148.275 265.995 138.707 269.077ZM113.37 234.243C114.689 241.57 117.312 248.602 121.114 255.003C121.252 255.123 121.356 255.276 121.415 255.449C121.474 255.621 121.486 255.806 121.45 255.985C121.415 256.164 121.332 256.33 121.211 256.466C121.09 256.603 120.935 256.704 120.762 256.761C120.059 256.761 119.354 255.354 119.004 255.003C117.596 252.897 116.189 250.428 114.781 247.966C112.663 242.904 111.246 237.577 110.568 232.132C109.274 221.809 112.866 211.55 116.901 206.799C117.223 206.416 121.828 202.224 121.476 203.632C121.124 204.687 119.684 205.711 119.013 206.447C117.315 208.544 116.005 210.927 115.143 213.484C112.742 220.129 112.131 227.287 113.37 234.243ZM102.454 197.299C104.72 197.495 106.841 198.493 108.437 200.114C108.503 200.201 108.547 200.303 108.565 200.411C108.582 200.519 108.574 200.63 108.539 200.734C108.504 200.838 108.445 200.932 108.366 201.008C108.286 201.083 108.19 201.139 108.085 201.169C102.74 201.169 103.326 198.354 80.9911 198.354C80.2883 198.354 80.6407 197.651 80.9911 197.651C85.8974 197.274 97.4218 196.458 102.466 197.299H102.454Z" fill="#4355E6"/>
<path d="M255.166 45.2973C247.332 45.2973 204.317 44.5581 197.463 45.2973C193.599 45.7147 189.371 46.3524 186.548 49.5103C184.989 51.1489 184.002 53.2473 183.733 55.4927C183.365 60.059 183.365 64.6474 183.733 69.2137C184.058 73.0878 184.039 77.0001 187.251 80.1292C193.499 86.1998 204.135 83.1204 211.881 83.2966C212.022 83.2966 212.156 83.2409 212.255 83.1418C212.354 83.0427 212.41 82.9083 212.41 82.7681C212.41 82.6279 212.354 82.4935 212.255 82.3944C212.156 82.2952 212.022 82.2395 211.881 82.2395C208.714 82.2395 205.196 81.8891 202.029 81.8891C195.82 81.8891 189.987 81.7302 187.251 76.259C185.493 72.7411 185.843 68.1662 185.843 64.296C185.843 60.7781 185.493 55.8508 187.251 52.6853C189.009 49.5199 192.888 48.1851 196.401 47.7581C201.191 47.2337 206.008 46.999 210.826 47.0553C264.172 47.0553 267.495 46.9001 268.881 47.0553C270.647 47.3643 272.334 48.0212 273.844 48.9877C275.354 49.9542 276.657 51.2111 277.677 52.6853C279.73 56.1848 280.476 60.2985 279.783 64.296C279.697 64.8169 279.297 72.9403 277.321 76.259C274.266 81.3855 262.797 81.5482 260.086 81.8891H253.751C253.4 81.8891 251.993 81.8891 252.343 82.5919H252.696C257.962 83.0755 263.262 83.0755 268.529 82.5919C272.049 82.2395 275.567 81.5367 277.677 78.7217C279.783 76.259 280.092 73.0858 280.492 69.9261C280.882 67.48 281.117 65.0118 281.197 62.5361C281.373 60.3112 281.373 58.0758 281.197 55.8508C280.74 53.9141 279.876 52.0968 278.662 50.5196C277.449 48.9424 275.914 47.6414 274.159 46.7029C272.478 45.8603 266.911 45.2973 255.166 45.2973Z" fill="#29175F"/>
<path d="M314.983 156.484C322.702 157.217 330.468 157.334 338.206 156.835C341.081 156.851 343.937 156.375 346.651 155.427C348.073 154.843 349.365 153.983 350.452 152.896C351.539 151.809 352.4 150.517 352.984 149.094C353.553 147.275 353.791 145.368 353.687 143.464C353.687 139.23 353.786 138.485 353.336 137.131C353.336 136.779 352.631 136.779 352.631 137.131C352.153 138.727 352.032 140.409 352.279 142.057C352.239 143.837 352.003 145.606 351.576 147.335C351.237 148.723 350.585 150.015 349.671 151.113C348.756 152.211 347.603 153.085 346.299 153.669C343.671 154.478 340.952 154.951 338.206 155.077C335.391 155.077 332.223 155.427 329.41 155.427C324.835 155.427 319.91 155.427 315.335 155.78C314.634 156.132 314.634 156.484 314.983 156.484Z" fill="#29175F"/>
<path d="M233.002 230.373C246.093 230.658 282.901 231.549 291.057 230.725C294.925 230.342 298.841 230.086 301.972 227.91C305.9 225.176 306.547 220.873 306.547 216.65C307.4 203.002 307.568 193.337 293.88 192.374C286.852 191.878 279.806 192.374 272.416 192.374C253.791 192.374 254.99 192.724 251.658 192.724C251.518 192.724 251.383 192.78 251.284 192.879C251.185 192.978 251.129 193.113 251.129 193.253C251.129 193.393 251.185 193.527 251.284 193.626C251.383 193.726 251.518 193.781 251.658 193.781C253.065 193.781 255.528 194.103 257.288 194.132C267.847 194.308 278.397 193.45 288.954 194.132C294.582 194.496 302.039 194.463 304.083 201.169C305.9 207.133 305.483 215.243 304.433 221.225C303.016 229.316 290.71 228.9 284.377 228.966C267.142 229.142 250.248 228.613 233.008 229.318C232.649 229.67 232.649 230.365 233.002 230.373Z" fill="#29175F"/>
<path d="M361.427 201.872C353.615 201.093 310.679 201.732 309.704 202.225C309.001 202.577 310.057 223.336 310.761 223.336C319.57 222.706 361.892 222.344 365.299 221.578C369.544 220.62 371.982 215.948 371.982 211.725C372.334 206.095 366.706 202.577 361.427 201.872Z" fill="#FEB186"/>
<path d="M215.408 128.688C205.59 127.689 195.717 127.336 185.852 127.631C180.927 127.631 176.001 127.631 171.076 127.983C168.607 127.925 166.138 128.042 163.686 128.335C161.334 128.262 158.981 128.379 156.648 128.686C154.691 129.134 152.883 130.083 151.403 131.441C149.923 132.798 148.821 134.517 148.205 136.428C146.797 139.946 148.567 143.805 151.371 146.279C154.543 148.836 158.567 150.094 162.631 149.799C180.54 149.799 192.242 149.919 210.483 148.742C211.186 148.742 211.186 147.334 210.483 147.687C196.541 148.512 182.565 148.63 168.611 148.039C164.741 148.039 160.185 148.338 156.298 146.984C153.146 145.885 149.613 142.771 149.613 138.891C149.776 137.068 150.513 135.343 151.719 133.966C152.836 132.191 154.605 130.927 156.646 130.446C160.928 129.733 165.36 130.457 170.369 129.743C179.035 129.743 163.835 129.391 215.755 129.391C215.76 129.199 215.76 129.038 215.408 128.688Z" fill="#29175F"/>
<path d="M367.763 55.503C364.262 53.3544 360.021 53.7374 355.808 53.7374C287.411 53.7374 284.03 54.0036 284.03 55.4973C284.029 61.6111 283.676 67.7199 282.972 73.7932C282.838 73.8799 282.734 74.0066 282.675 74.1554C282.616 74.3043 282.605 74.4679 282.644 74.6233C282.683 74.7786 282.769 74.9178 282.892 75.0214C283.014 75.125 283.165 75.1877 283.325 75.2007C303.067 76.3286 327.912 75.2754 358.623 74.8484C361.788 74.8043 365.308 74.8484 368.121 72.7418C375.059 68.885 375.444 60.2063 367.763 55.503Z" fill="#FE6B21"/>
<path d="M369.872 131.854C366.706 128.688 355.094 127.984 355.094 129.391C355.094 135.021 355.094 148.04 355.798 148.742C356.737 149.344 357.859 149.593 358.964 149.447C361.215 149.545 363.468 149.308 365.649 148.742C367.416 148.257 369.025 147.32 370.321 146.025C371.616 144.73 372.553 143.12 373.039 141.354C373.248 139.635 373.071 137.891 372.524 136.248C371.976 134.605 371.07 133.104 369.872 131.854Z" fill="#4355E6"/>
<path d="M352.28 125.873C346.535 117.255 334.589 119.187 326.596 119.187C322.021 119.187 317.095 119.187 312.52 118.835C283.278 118.835 269.433 117.33 263.613 120.243C262.397 120.653 261.274 121.3 260.308 122.145C259.342 122.99 258.552 124.017 257.983 125.168C257.456 126.151 257.087 127.212 256.892 128.311C252.073 128.301 249.68 128.194 249.188 128.694V129.749C249.67 130.188 250.295 130.438 250.947 130.451C254.383 130.451 255.848 130.555 256.612 130.566C256.493 132.374 256.576 134.178 256.576 135.737C256.297 140.104 256.638 144.488 257.587 148.759C251.633 148.759 251.152 148.655 250.243 149.111L250.291 150.519C250.482 150.71 249.406 150.519 258.24 150.519C258.743 151.709 259.477 152.789 260.399 153.694C261.322 154.6 262.414 155.315 263.613 155.797C267.413 157.062 269.843 156.852 286.132 156.852C300.004 156.852 309.112 156.469 311.113 156.501C311.253 156.501 311.387 156.446 311.487 156.346C311.586 156.247 311.641 156.113 311.641 155.973C311.641 155.833 311.586 155.698 311.487 155.599C311.387 155.5 311.253 155.444 311.113 155.444C309.006 155.444 306.54 155.094 304.428 155.094H282.614C276.631 155.094 268.539 156.501 263.261 153.686C261.78 152.764 260.574 151.461 259.77 149.914C258.965 148.366 258.592 146.63 258.688 144.889C258.335 139.611 257.633 132.575 259.038 127.296C259.526 125.921 260.378 124.705 261.503 123.778C266.246 119.034 276.505 120.26 335.039 120.26C339.614 120.26 344.187 120.26 347.707 122.723C349.388 123.87 350.71 125.471 351.52 127.339C352.329 129.207 352.593 131.266 352.28 133.278C352.632 133.63 352.632 133.63 352.984 133.278C353.488 132.082 353.688 130.779 353.565 129.487C353.442 128.194 353 126.953 352.28 125.873Z" fill="#29175F"/>
<path d="M276.281 131.151C273.408 139.744 276.984 148.109 276.984 144.872C277.415 143.58 277.834 128.039 276.281 131.151Z" fill="#29175F"/>
<path d="M289.649 130.094C288.98 132.436 289.298 133.985 289.298 141.707C289.298 143.87 289.459 144.872 291.056 144.872C292.042 144.215 291.761 143.679 291.761 137.836C291.761 126.478 289.227 130.094 289.649 130.094Z" fill="#29175F"/>
<path d="M305.834 144.872C306.454 143.943 305.671 125.496 303.371 130.094C303.563 130.094 302.76 147.955 305.834 144.872Z" fill="#29175F"/>
<path d="M317.097 130.446C316.71 134.303 316.592 138.183 316.744 142.056C316.744 143.113 316.744 144.871 317.449 145.576C317.799 145.928 318.406 145.913 318.504 145.576C318.811 144.31 318.93 143.006 318.855 141.706C319.002 137.821 318.767 133.932 318.152 130.093C318.152 129.743 317.097 129.743 317.097 130.446Z" fill="#29175F"/>
<path d="M332.224 130.799C332.224 130.99 331.108 143.438 333.281 145.225C335.84 147.322 334.601 135.699 334.367 134.261C333.369 128.11 332.253 130.033 332.224 130.799Z" fill="#29175F"/>
<path d="M202.389 57.6129C201.1 61.4812 202.144 61.4104 201.334 64.6506C201.334 66.7571 200.981 69.5759 202.037 71.3358C202.389 72.0386 203.094 71.6863 203.094 71.3358C203.536 70.0068 203.444 69.4208 203.444 61.1308C203.444 60.0756 203.094 59.0243 203.094 57.6129C203.444 57.2606 202.741 56.9082 202.389 57.6129Z" fill="#29175F"/>
<path d="M215.761 56.5582C215.029 60.3822 214.793 64.2845 215.058 68.1689C215.058 69.224 215.058 70.9839 216.114 71.3363H216.816C217.872 70.6316 217.521 69.2298 217.521 68.1689C217.779 64.2844 217.542 60.383 216.816 56.5582C216.464 56.2059 215.761 55.8535 215.761 56.5582Z" fill="#29175F"/>
<path d="M243.204 56.9082C242.818 60.7662 242.701 64.6465 242.854 68.5208C242.854 69.5759 242.854 71.3358 243.557 72.0386C243.909 72.391 244.587 72.4216 244.69 72.0788C244.971 70.7956 245.063 69.4783 244.964 68.1684C245.112 64.2845 244.877 60.3955 244.261 56.5578C244.261 56.2054 243.204 56.2054 243.204 56.9082Z" fill="#29175F"/>
<path d="M258.335 57.2609C258.335 57.4524 257.105 75.0283 260.441 71.6866C261.621 69.921 259.993 59.2564 259.386 56.9086C259.225 56.2651 258.335 56.5581 258.335 57.2609Z" fill="#29175F"/>
<path d="M260.095 204.336C259.819 206.266 259.978 218.097 261.503 219.114C261.564 219.196 261.644 219.262 261.736 219.308C261.827 219.353 261.928 219.377 262.03 219.377C262.133 219.377 262.233 219.353 262.325 219.308C262.417 219.262 262.496 219.196 262.558 219.114C263.674 217.439 261.845 205.539 261.503 204.336C261.503 203.631 260.44 203.631 260.095 204.336Z" fill="#29175F"/>
<path d="M273.818 205.039C273.432 208.896 273.314 212.776 273.467 216.649C273.467 217.707 273.467 219.465 274.17 220.169C274.522 220.52 275.225 220.52 275.225 220.169C275.93 219.114 275.578 217.707 275.578 216.299C275.725 212.415 275.49 208.525 274.875 204.686C274.875 203.984 273.818 204.336 273.818 205.039Z" fill="#29175F"/>
<path d="M291.409 215.595C291.307 211.918 290.836 208.261 290.001 204.679C289.779 203.959 289.126 204.266 288.946 205.032C288.667 206.302 288.549 207.602 288.594 208.902C288.594 212.646 288.356 214.771 288.594 216.179C288.603 216.791 288.733 217.395 288.977 217.957C289.22 218.519 289.571 219.027 290.011 219.453C290.072 219.535 290.152 219.602 290.243 219.648C290.335 219.694 290.436 219.718 290.539 219.718C290.641 219.718 290.742 219.694 290.834 219.648C290.925 219.602 291.005 219.535 291.066 219.453C291.761 218.41 291.409 217.002 291.409 215.595Z" fill="#29175F"/>
<path d="M247.427 209.262C247.427 211.022 247.074 212.78 247.074 214.54V218.41C247.074 219.115 247.779 219.465 248.482 219.465C251.008 219.465 249.068 213.22 248.482 209.614C248.304 208.515 247.427 208.909 247.427 209.262Z" fill="#29175F"/>
<path d="M182.693 54.7979C181.191 54.4708 179.652 54.3523 178.118 54.4455C170.724 54.6217 162.989 53.7427 155.599 54.7979C153.163 55.2532 150.94 56.4878 149.266 58.3157C147.825 60.1801 147.043 62.4701 147.043 64.8267C147.043 67.1833 147.825 69.4733 149.266 71.3377C153.617 76.9544 163.15 74.8556 173.192 74.8556C176.005 74.6794 178.825 74.6794 181.637 74.8556C181.855 74.8329 182.056 74.7304 182.203 74.5679C182.349 74.4053 182.43 74.1944 182.43 73.9756C182.43 73.7569 182.349 73.5459 182.203 73.3834C182.056 73.2209 181.855 73.1184 181.637 73.0957C179.529 72.932 177.411 72.932 175.303 73.0957C172.844 73.4787 170.025 73.4481 167.562 73.8004C160.134 73.8004 156.248 74.1738 153.136 72.3929C151.258 71.1965 149.915 69.3192 149.39 67.1546C148.866 64.99 149.199 62.7062 150.321 60.7822C152.428 57.2625 156.654 56.5597 160.526 56.5597C166.507 56.2073 172.489 56.9101 178.47 56.5597C180.003 56.6177 181.538 56.4995 183.045 56.2073C183.041 55.5026 183.041 55.1502 182.693 54.7979Z" fill="#29175F"/>
<path d="M230.339 56.8243C230.258 57.318 230.207 57.8162 230.187 58.3161C230.187 61.541 230.076 62.0753 230.54 62.5387C231.187 63.186 231.947 61.5812 231.947 61.1312C232.072 59.7027 231.994 58.2638 231.718 56.8569C231.591 56.4337 230.433 56.2996 230.339 56.8243Z" fill="#29175F"/>
<path d="M109.852 157.892C110.207 158.411 110.678 158.84 111.227 159.145C111.777 159.45 112.39 159.623 113.018 159.65C114.778 159.65 115.124 160.705 114.073 161.41C113.276 161.81 112.356 161.886 111.504 161.624C110.652 161.362 109.934 160.781 109.5 160.002C108.286 158.104 108.445 156.484 109.852 157.892Z" fill="#29175F"/>
<path d="M105.633 136.082C105.077 136.009 104.511 136.104 104.01 136.355C103.508 136.606 103.093 137.001 102.818 137.49C101.762 138.897 100.882 138.578 101.058 137.137C101.107 136.252 101.505 135.422 102.165 134.829C102.824 134.236 103.692 133.928 104.577 133.972C107.05 133.966 107.391 135.724 105.633 136.082Z" fill="#29175F"/>
<path d="M107.038 143.114C108.592 143.114 109.853 142.326 109.853 141.354C109.853 140.382 108.592 139.594 107.038 139.594C105.483 139.594 104.223 140.382 104.223 141.354C104.223 142.326 105.483 143.114 107.038 143.114Z" fill="#29175F"/>
<path d="M306.483 263.741C304.98 266.26 303.927 269.022 303.372 271.902C302.251 271.753 301.122 271.676 299.991 271.674C295.57 271.674 291.225 272.825 287.384 275.014C283.543 277.203 280.338 280.354 278.085 284.158C275.832 287.962 274.608 292.287 274.535 296.708C274.461 301.128 275.54 305.492 277.665 309.369" stroke="#29175F" stroke-width="2" stroke-linecap="round" stroke-linejoin="round"/>
<path d="M364.536 286.451C361.225 284.017 357.239 282.669 353.129 282.594C354.446 276.979 353.816 271.084 351.344 265.874C348.872 260.664 344.703 256.449 339.521 253.918C334.339 251.388 328.452 250.692 322.823 251.945C317.194 253.199 312.157 256.327 308.539 260.817" stroke="#29175F" stroke-width="2" stroke-linecap="round" stroke-linejoin="round"/>
<path d="M280.008 312.904C283.489 317.314 288.331 320.45 293.779 321.822H358.186C361.3 320.936 364.152 319.307 366.497 317.075C368.843 314.844 370.611 312.077 371.652 309.011C372.692 305.945 372.972 302.673 372.469 299.475C371.966 296.277 370.695 293.249 368.763 290.65" stroke="#29175F" stroke-width="2" stroke-linecap="round" stroke-linejoin="round"/>
<path d="M341.699 307.056L323.624 332.794L305.539 307.056H314.426V288.67H332.812V307.056H341.699Z" fill="#FE6B21"/>
<path fill-rule="evenodd" clip-rule="evenodd" d="M63.1525 60.9361C62.5523 57.3434 61.9175 52.2511 61.3178 48.6714C60.361 46.5097 46.2407 49.3386 27.3381 49.9095C25.1361 49.9769 29.7908 91.4204 30.1491 95.7915C33.1867 98.6922 60.9589 96.3754 60.8204 92.7667L57.5618 65.768C59.9808 64.0474 62.3296 62.6602 63.1525 60.9361ZM55.7671 65.5703C56.7221 74.5221 57.6775 83.4683 58.6334 92.4089C49.7864 94.2411 40.7623 95.0783 31.7292 94.9048C31.0577 80.7859 28.815 66.5017 28.8391 51.6953C39.0393 51.3046 49.0724 50.7712 59.5574 49.7206C59.7966 51.0549 61.3985 60.4191 60.9354 60.9385C60.9485 61.3665 57.2678 62.9461 55.7671 65.5703Z" fill="#FEB186"/>
<path fill-rule="evenodd" clip-rule="evenodd" d="M127.72 29.5737C128.972 27.133 129.611 26.0376 129.508 25.0715C129.384 23.9078 122.115 14.3558 121.06 14.9869C116.365 17.7855 105.284 29.2387 102.535 33.2782C102.505 35.7751 119.771 63.7017 121.727 64.2911C122.768 67.7394 139.175 49.6962 139.069 48.6648C138.925 47.38 128.936 31.5722 127.72 29.5737ZM122.675 62.5501C115.918 53.2974 109.85 43.5603 104.521 33.4176C110.304 27.5433 115.061 22.8979 121.175 17.4531L127.317 25.4829L125.851 29.2698C125.482 30.2372 135.639 45.3551 137.263 48.5329C133.03 53.8201 128.126 58.5334 122.675 62.5538L122.675 62.5501Z" fill="#FEB186"/>
<path fill-rule="evenodd" clip-rule="evenodd" d="M136.103 29.8399C135.979 29.9915 135.911 30.1811 135.91 30.377C135.91 30.5728 135.977 30.7628 136.1 30.9149C136.224 31.0669 136.396 31.1718 136.587 31.2118C136.779 31.2518 136.979 31.2244 137.153 31.1344C141.658 27.8363 149.662 19.5066 151.149 13.8666C151.376 13.0102 150.209 12.1964 149.797 13.0716C149.152 13.357 146.4 21.7506 136.103 29.8399Z" fill="#FEB186"/>
<path fill-rule="evenodd" clip-rule="evenodd" d="M143.696 5.85225C142.915 9.43115 136.872 15.2161 134.127 17.2067C133.268 17.828 132.468 16.509 133.251 15.9051C139.536 11.1043 140.468 7.17282 142.336 5.19034C142.433 4.7402 143.851 4.81655 143.696 5.85225Z" fill="#FEB186"/>
<path fill-rule="evenodd" clip-rule="evenodd" d="M88.5018 74.9311C88.2866 75.0079 88.1099 75.1655 88.0092 75.3705C87.9085 75.5755 87.8917 75.8117 87.9624 76.0289C88.0332 76.2461 88.1859 76.4271 88.388 76.5335C88.5901 76.6398 88.8258 76.6631 89.0449 76.5984C93.1092 75.2654 104.62 70.5592 107.73 67.1972C108.273 66.6193 107.571 65.4901 106.867 65.897C106.384 65.6686 97.3225 71.9557 88.5018 74.9311Z" fill="#FEB186"/>
<path fill-rule="evenodd" clip-rule="evenodd" d="M81.485 65.1816C75.6579 67.7306 73.8307 70.1421 66.4604 70.1319C66.2555 70.1528 66.0651 70.2473 65.9246 70.3978C65.7841 70.5484 65.703 70.7448 65.6962 70.9506C65.6895 71.1565 65.7577 71.3578 65.8881 71.5172C66.0184 71.6766 66.2022 71.7833 66.4053 71.8175C70.7969 72.0002 75.1564 70.9949 79.0244 68.9073C84.6193 65.866 82.2993 64.8293 81.485 65.1816Z" fill="#FEB186"/>
<path fill-rule="evenodd" clip-rule="evenodd" d="M94.1292 44.388C86.4168 47.7687 78.1765 49.7864 69.7747 50.3516C68.781 50.4063 68.9455 51.9299 69.9414 51.8863C76.4812 51.5964 89.1368 49.3886 94.8631 45.8118C95.6599 45.314 94.8913 44.1644 94.1328 44.5076L94.1292 44.388Z" fill="#FEB186"/>
</g>
<defs>
<clipPath id="clip0_3536_7908">
<rect width="383" height="383" fill="white" transform="translate(0 0.5)"/>
</clipPath>
</defs>
</svg>
