<svg width="383" height="355" viewBox="0 0 383 355" fill="none" xmlns="http://www.w3.org/2000/svg">
<path fill-rule="evenodd" clip-rule="evenodd" d="M238.28 57.6474C199.881 58.2521 41.6757 58.5811 2.10436 58.0781C-0.245313 58.0486 -0.423788 54.044 2.00849 54.044C42.7996 54.0941 183.811 53.3168 238.203 54.4865C240.821 54.5396 240.11 57.6179 238.28 57.6474Z" fill="#29175F"/>
<path fill-rule="evenodd" clip-rule="evenodd" d="M56.0631 218.259C58.8863 218.141 57.4349 216.162 56.2313 216.138C40.1538 215.823 22.9228 215.43 10.8013 215.619C11.7379 145.576 11.1774 101.38 11.5609 61.9138C11.5712 60.868 10.0033 61.0288 9.95609 62.0244C8.42504 94.1101 9.36609 180.516 8.18609 215.38C8.14479 216.575 8.22739 217.337 10.8116 217.452C18.0494 217.777 25.1029 217.79 32.382 217.916C39.0711 218.032 49.5805 218.531 56.0631 218.259Z" fill="#FE6B21"/>
<path fill-rule="evenodd" clip-rule="evenodd" d="M232.206 148.738C232.916 134.357 232.695 119.785 232.76 105.373C232.798 96.8535 233.184 73.9792 233.088 62.7529C233.072 60.8089 231.068 61.9166 231.047 62.9004C230.659 81.9619 229.655 129.557 230.383 148.759C230.445 150.375 232.134 150.352 232.206 148.738Z" fill="#FE6B21"/>
<g clip-path="url(#clip0_3536_7961)">
<path d="M97.9716 95.2874L94.9245 95.2956C93.9251 95.2974 92.9659 94.9004 92.2573 94.1919C91.5487 93.4834 91.1487 92.5213 91.145 91.5166L91.128 85.1988C91.1359 84.8862 91.0813 84.5752 90.9675 84.2841C90.8538 83.993 90.6831 83.7279 90.4657 83.5042C90.2482 83.2806 89.9883 83.1031 89.7015 82.9822C89.4146 82.8613 89.1065 82.7994 88.7954 82.8002C88.4844 82.8011 88.1766 82.8646 87.8904 82.9871C87.6042 83.1095 87.3453 83.2884 87.129 83.5132C86.9128 83.738 86.7436 84.0041 86.6314 84.2958C86.5192 84.5875 86.4663 84.8988 86.4759 85.2114L86.4929 91.5292C86.5053 92.0336 86.4174 92.5355 86.2342 93.0053C86.0511 93.4752 85.7764 93.9035 85.4264 94.2652C85.0764 94.6269 84.658 94.9146 84.1958 95.1115C83.7337 95.3085 83.237 95.4106 82.7351 95.412C82.2331 95.4133 81.7359 95.3139 81.2727 95.1194C80.8095 94.925 80.3895 94.6395 80.0376 94.2797C79.6856 93.9199 79.4086 93.4931 79.2229 93.0243C79.0373 92.5554 78.9466 92.054 78.9563 91.5495L78.9218 78.7522C78.9297 78.4396 78.8751 78.1285 78.7613 77.8375C78.6476 77.5464 78.4769 77.2812 78.2595 77.0576C78.042 76.834 77.7821 76.6565 77.4953 76.5356C77.2084 76.4146 76.9003 76.3528 76.5892 76.3536C76.2782 76.3545 75.9704 76.418 75.6842 76.5405C75.398 76.6629 75.1391 76.8418 74.9228 77.0666C74.7066 77.2914 74.5374 77.5575 74.4252 77.8492C74.313 78.1409 74.2601 78.4522 74.2697 78.7648L74.3042 91.562C74.3166 92.0665 74.2287 92.5684 74.0455 93.0382C73.8624 93.5081 73.5877 93.9364 73.2377 94.2981C72.8876 94.6598 72.4693 94.9475 72.0071 95.1444C71.5449 95.3413 71.0483 95.4435 70.5463 95.4448C70.0444 95.4462 69.5472 95.3467 69.084 95.1523C68.6207 94.9579 68.2008 94.6724 67.8488 94.3126C67.4968 93.9528 67.2199 93.526 67.0342 93.0571C66.8485 92.5883 66.7579 92.0869 66.7676 91.5824L66.7114 70.7712C66.6928 70.1624 66.4387 69.5849 66.0032 69.1615C65.5677 68.738 64.9851 68.5021 64.3792 68.5037C63.7734 68.5053 63.1921 68.7444 62.7588 69.1702C62.3256 69.596 62.0747 70.1748 62.0593 70.7837L62.1155 91.5949C62.1279 92.0994 62.0399 92.6013 61.8568 93.0711C61.6736 93.5409 61.399 93.9693 61.049 94.331C60.6989 94.6926 60.2805 94.9804 59.8184 95.1773C59.3562 95.3742 58.8596 95.4764 58.3576 95.4777C57.8556 95.4791 57.3585 95.3796 56.8952 95.1852C56.432 94.9908 56.0121 94.7053 55.6601 94.3455C55.3081 93.9857 55.0312 93.5589 54.8455 93.09C54.6598 92.6212 54.5692 92.1198 54.5789 91.6152L54.5443 78.818C54.5427 78.1975 54.2959 77.6032 53.8583 77.1657C53.4207 76.7281 52.8282 76.4833 52.211 76.4849C51.5939 76.4866 51.0027 76.7347 50.5675 77.1745C50.1323 77.6144 49.8887 78.2101 49.8904 78.8305L49.9249 91.6278C49.9262 92.1252 49.8301 92.6179 49.642 93.0779C49.454 93.5379 49.1776 93.9562 48.8287 94.3088C48.4798 94.6615 48.0652 94.9416 47.6087 95.1331C47.1521 95.3247 46.6625 95.424 46.1677 95.4253C45.673 95.4267 45.1828 95.33 44.7252 95.1409C44.2676 94.9518 43.8516 94.674 43.5008 94.3232C43.15 93.9725 42.8714 93.5557 42.6808 93.0967C42.4902 92.6377 42.3915 92.1455 42.3901 91.6481L42.3731 85.3303C42.3714 84.7099 42.1246 84.1156 41.6871 83.678C41.2495 83.2405 40.6569 82.9956 40.0398 82.9973C39.4226 82.999 38.8314 83.247 38.3962 83.6869C37.961 84.1268 37.7175 84.7225 37.7191 85.3429L37.7362 91.6607C37.7384 92.6652 37.344 93.6295 36.6395 94.3418C35.9351 95.0542 34.9782 95.4564 33.979 95.46L30.9318 95.4683L30.9279 94.0184L33.9751 94.0102C34.5921 94.008 35.183 93.7598 35.6181 93.32C36.0532 92.8802 36.297 92.2848 36.2958 91.6646L36.2787 85.3468C36.276 84.3423 36.6703 83.3779 37.3749 82.6657C38.0795 81.9536 39.0367 81.552 40.0359 81.5493C41.0351 81.5466 41.9944 81.943 42.7028 82.6514C43.4113 83.3597 43.8108 84.322 43.8135 85.3265L43.8305 91.6442C43.8322 92.2647 44.079 92.859 44.5166 93.2965C44.9541 93.7341 45.5467 93.9789 46.1638 93.9773C46.781 93.9756 47.3722 93.7275 47.8074 93.2877C48.2426 92.8478 48.4862 92.2521 48.4845 91.6317L48.45 78.8344C48.469 77.8441 48.873 76.9006 49.5755 76.2061C50.2779 75.5115 51.223 75.1211 52.2083 75.1185C53.1936 75.1158 54.1407 75.5011 54.8469 76.1919C55.5531 76.8826 55.9622 77.8239 55.9866 78.8141L56.0211 91.6114C56.0132 91.924 56.0678 92.235 56.1815 92.5261C56.2953 92.8171 56.466 93.0823 56.6834 93.3059C56.9009 93.5296 57.1607 93.7071 57.4476 93.828C57.7345 93.9489 58.0426 94.0108 58.3536 94.0099C58.6647 94.0091 58.9725 93.9456 59.2587 93.8231C59.5449 93.7006 59.8038 93.5217 60.02 93.2969C60.2363 93.0721 60.4055 92.806 60.5177 92.5144C60.6299 92.2227 60.6828 91.9114 60.6732 91.5988L60.6171 70.7876C60.6361 69.7973 61.0401 68.8538 61.7426 68.1593C62.445 67.4647 63.3901 67.0743 64.3754 67.0717C65.3607 67.069 66.3078 67.4543 67.014 68.1451C67.7202 68.8358 68.1293 69.7771 68.1537 70.7673L68.2098 91.5785C68.2019 91.8911 68.2565 92.2021 68.3703 92.4932C68.484 92.7843 68.6547 93.0494 68.8721 93.2731C69.0896 93.4967 69.3495 93.6742 69.6363 93.7951C69.9232 93.916 70.2313 93.9779 70.5424 93.9771C70.8534 93.9762 71.1612 93.9127 71.4474 93.7902C71.7336 93.6678 71.9925 93.4888 72.2088 93.2641C72.425 93.0393 72.5942 92.7732 72.7064 92.4815C72.8186 92.1898 72.8715 91.8785 72.8619 91.5659L72.8274 78.7686C72.8464 77.7783 73.2504 76.8349 73.9529 76.1403C74.6554 75.4458 75.6004 75.0554 76.5857 75.0527C77.571 75.0501 78.5182 75.4354 79.2244 76.1261C79.9306 76.8168 80.3397 77.7581 80.364 78.7483L80.3986 91.5456C80.3907 91.8582 80.4452 92.1692 80.559 92.4603C80.6727 92.7514 80.8434 93.0166 81.0609 93.2402C81.2783 93.4638 81.5382 93.6413 81.8251 93.7622C82.1119 93.8832 82.42 93.945 82.7311 93.9442C83.0422 93.9433 83.3499 93.8798 83.6361 93.7573C83.9224 93.6349 84.1812 93.456 84.3975 93.2312C84.6137 93.0064 84.783 92.7403 84.8952 92.4486C85.0073 92.1569 85.0602 91.8456 85.0507 91.533L85.0336 85.2153C85.0212 84.7108 85.1092 84.2089 85.2923 83.7391C85.4754 83.2692 85.7501 82.8409 86.1001 82.4792C86.4502 82.1175 86.8686 81.8298 87.3307 81.6329C87.7929 81.4359 88.2895 81.3338 88.7915 81.3325C89.2934 81.3311 89.7906 81.4306 90.2538 81.625C90.7171 81.8194 91.137 82.1049 91.489 82.4647C91.841 82.8245 92.1179 83.2513 92.3036 83.7201C92.4893 84.189 92.5799 84.6904 92.5702 85.1949L92.5873 91.5127C92.5894 92.133 92.8364 92.727 93.2738 93.1645C93.7113 93.6019 94.3035 93.8469 94.9206 93.8457L97.9677 93.8375L97.9716 95.2874Z" fill="url(#paint0_linear_3536_7961)"/>
<path d="M36.3096 107.064C36.3061 106.94 36.2873 106.816 36.2538 106.697C36.1586 106.383 36.0134 106.088 35.8237 105.821C35.8083 105.804 35.7998 105.782 35.7998 105.759C35.7997 105.736 35.8081 105.714 35.8233 105.696C35.9089 105.569 35.9926 105.442 36.0691 105.31C36.275 104.974 36.3458 104.573 36.2671 104.186C36.1865 103.784 35.9681 103.424 35.6501 103.167C35.3321 102.91 34.9345 102.774 34.5268 102.782L30.9531 102.791L30.9557 103.743C31.7764 103.741 33.6976 103.736 34.5147 103.734C34.5889 103.732 34.6632 103.738 34.7359 103.753C34.8864 103.786 35.0241 103.861 35.1322 103.972C35.2403 104.082 35.3141 104.221 35.3445 104.373C35.3801 104.514 35.3717 104.662 35.3204 104.798C35.2691 104.934 35.1774 105.051 35.0577 105.132C34.9025 105.257 34.7085 105.323 34.5098 105.318L30.96 105.327L30.9625 106.268L31.743 106.266C32.657 106.263 33.5874 106.261 34.5087 106.258C34.7356 106.265 34.9515 106.358 35.1128 106.519C35.274 106.679 35.3687 106.895 35.3775 107.124C35.3607 107.66 35.3804 108.197 35.3818 108.735L35.3821 108.829L36.3162 108.826C36.3161 108.802 36.3161 108.786 36.316 108.768C36.3145 108.19 36.3166 107.628 36.3096 107.064Z" fill="#2F3A5C"/>
<path d="M74.7587 108.713L73.8539 108.716L73.8535 108.6C73.8501 107.308 73.8466 106.015 73.8431 104.723C73.8546 104.521 73.8088 104.321 73.7113 104.145C73.6137 103.969 73.4683 103.824 73.292 103.728C73.1267 103.633 72.9395 103.582 72.7489 103.582C72.5583 103.581 72.3709 103.631 72.2051 103.725C72.0393 103.82 71.9008 103.956 71.8034 104.121C71.7059 104.285 71.6528 104.473 71.6494 104.664C71.6419 105.975 71.6564 107.285 71.66 108.595L71.6603 108.718L70.7591 108.721C70.759 108.687 70.759 108.658 70.7589 108.629C70.7554 107.33 70.7519 106.032 70.7484 104.733C70.7362 104.302 70.8625 103.879 71.1086 103.527C71.3546 103.174 71.7072 102.911 72.1141 102.776C72.3818 102.684 72.6671 102.655 72.9476 102.693C73.2281 102.73 73.4961 102.833 73.7306 102.992C73.9137 103.111 74.0968 103.245 74.2672 103.369C74.4496 103.244 74.6321 103.109 74.8145 102.989C75.1681 102.75 75.592 102.639 76.0167 102.674C76.4413 102.709 76.8414 102.889 77.1512 103.183C77.3569 103.359 77.5223 103.578 77.6359 103.825C77.7496 104.071 77.8088 104.339 77.8094 104.611C77.824 105.96 77.8167 107.309 77.8203 108.654C77.8204 108.665 77.8204 108.676 77.8205 108.694L76.9065 108.697L76.9062 108.579C76.9027 107.298 76.8993 106.017 76.8958 104.737C76.911 104.478 76.8464 104.222 76.711 104.002C76.5862 103.83 76.4138 103.699 76.2154 103.624C76.0169 103.55 75.8011 103.536 75.5948 103.584C75.3896 103.623 75.2012 103.725 75.0549 103.874C74.9086 104.024 74.8114 104.216 74.7764 104.423C74.7595 104.529 74.7519 104.636 74.7535 104.744C74.7569 106.022 74.7604 107.299 74.7638 108.576L74.7587 108.713Z" fill="#2F3A5C"/>
<path d="M87.9012 107.763L87.9036 108.681L84.0357 108.692C83.5291 108.704 83.036 108.527 82.6523 108.194C82.2687 107.861 82.0218 107.397 81.9598 106.891C81.9461 106.793 81.9397 106.694 81.9407 106.595C81.939 105.983 81.9374 105.365 81.9357 104.743C81.9257 104.281 82.0719 103.829 82.3504 103.461C82.629 103.093 83.0235 102.831 83.4694 102.717C83.6281 102.675 83.7913 102.653 83.9554 102.652C85.235 102.648 86.531 102.645 87.8197 102.641L87.8873 102.641L87.8898 103.56L87.7783 103.56C86.5134 103.564 85.2484 103.567 83.9835 103.571C83.7126 103.567 83.4494 103.661 83.2421 103.837C83.0349 104.012 82.8973 104.257 82.8546 104.525C82.8396 104.746 82.8402 104.968 82.8564 105.189L85.3552 105.182L85.3577 106.119L82.8424 106.126C82.8429 106.288 82.8433 106.442 82.8437 106.597C82.8371 106.823 82.8974 107.047 83.0169 107.239C83.1365 107.431 83.31 107.584 83.5156 107.677C83.6687 107.754 83.8385 107.791 84.0095 107.784L87.903 107.774L87.9012 107.763Z" fill="#2F3A5C"/>
<path d="M97.084 102.611L97.987 102.609L97.9873 102.715C97.9883 103.099 97.9802 103.484 97.9904 103.868C97.9993 104.29 97.8854 104.705 97.6628 105.063C97.5536 105.247 97.4298 105.431 97.2987 105.615L97.3922 105.74C97.6531 106.071 97.841 106.454 97.9436 106.863C97.9671 106.975 97.9797 107.089 97.9811 107.203C97.9824 107.664 97.9836 108.122 97.9849 108.587C97.9849 108.605 97.985 108.623 97.985 108.647L97.0857 108.65L97.0817 107.191C97.0843 107.04 97.0565 106.89 96.9999 106.75C96.9433 106.61 96.8592 106.482 96.7525 106.376C96.6459 106.27 96.5189 106.186 96.3792 106.13C96.2396 106.074 96.0901 106.047 95.9398 106.051C95.2988 106.053 94.6578 106.054 94.0168 106.056C93.8673 106.053 93.7187 106.081 93.5801 106.137C93.4414 106.194 93.3157 106.278 93.2104 106.385C93.105 106.492 93.0224 106.619 92.9673 106.759C92.9123 106.898 92.8861 107.048 92.8902 107.198L92.8942 108.668L92.0351 108.671C92.0309 108.662 92.0278 108.653 92.0259 108.643C92.0245 108.132 92.0231 107.623 92.0217 107.112C92.0517 106.704 92.1929 106.311 92.43 105.978C92.5064 105.856 92.592 105.742 92.663 105.642C92.5125 105.391 92.3583 105.153 92.226 104.909C92.074 104.618 91.9977 104.293 92.0041 103.965C92.003 103.557 92.0019 103.149 92.0008 102.741L92.0005 102.642L92.8706 102.639L92.8709 102.737C92.8721 103.185 92.8733 103.632 92.8745 104.078C92.8739 104.333 92.9629 104.579 93.1257 104.774C93.2884 104.969 93.5145 105.1 93.7639 105.143C93.8467 105.157 93.9305 105.164 94.0144 105.163C94.6487 105.161 95.294 105.159 95.9191 105.158C96.1544 105.168 96.3866 105.101 96.5815 104.969C96.7764 104.836 96.9235 104.643 97.0011 104.42C97.041 104.288 97.0609 104.151 97.0604 104.013C97.0592 103.587 97.0581 103.161 97.0569 102.736L97.084 102.611Z" fill="#2F3A5C"/>
<path d="M46.3851 102.753C46.3861 102.767 46.3862 102.781 46.3852 102.795C46.3866 103.314 46.399 103.834 46.3894 104.352C46.3611 104.804 46.1796 105.232 45.8751 105.566C45.5707 105.899 45.1616 106.118 44.7163 106.185C44.5043 106.213 44.2886 106.206 44.0747 106.214C44.0181 106.214 43.9614 106.215 43.892 106.215L43.8989 108.787L42.9995 108.79L42.9926 106.217L42.8281 106.218C42.5301 106.235 42.2312 106.212 41.9395 106.148C41.5147 106.042 41.1367 105.798 40.8647 105.453C40.5926 105.109 40.4416 104.683 40.4355 104.243C40.4214 103.767 40.4329 103.289 40.4316 102.813C40.4316 102.799 40.4315 102.784 40.4315 102.766L41.3308 102.763L41.3311 102.859C41.3324 103.335 41.3336 103.812 41.3349 104.288C41.3351 104.437 41.3682 104.584 41.4318 104.719C41.4954 104.854 41.5879 104.972 41.7026 105.067C41.8929 105.225 42.1327 105.31 42.3796 105.307C43.0742 105.305 43.7707 105.304 44.4653 105.302C44.7416 105.299 45.0059 105.187 45.2019 104.992C45.398 104.796 45.5104 104.531 45.5154 104.253C45.5141 103.79 45.5129 103.334 45.5116 102.868L45.5113 102.754L46.3851 102.753Z" fill="#2F3A5C"/>
<path d="M56.5267 102.724L56.5291 103.624L53.9882 103.631L54.0021 108.764L53.1027 108.766L53.0889 103.637L50.5298 103.644L50.5273 102.74L56.5267 102.724Z" fill="#2F3A5C"/>
<path d="M61.5641 108.751L60.6647 108.753L60.6484 102.713L61.5405 102.71L61.5473 105.23L65.7058 105.219L65.699 102.701L66.5947 102.699L66.611 108.733L65.7171 108.736L65.7102 106.174L61.5572 106.185L61.5641 108.751Z" fill="#2F3A5C"/>
</g>
<path fill-rule="evenodd" clip-rule="evenodd" d="M32.8791 138.498C54.8743 137.639 77.52 137.539 99.381 136.033C99.541 136.037 99.6998 136.005 99.846 135.939C99.9921 135.874 100.122 135.777 100.226 135.655C100.33 135.533 100.405 135.39 100.447 135.235C100.489 135.081 100.495 134.919 100.467 134.761C100.08 131.643 99.6922 128.525 99.2866 125.41C99.1169 124.116 97.1758 124.559 97.3174 125.829C97.6124 128.535 97.9399 131.241 98.2614 133.941C76.9064 134.843 55.3625 135.452 34.0989 136.133C34.0989 131.904 34.0768 127.67 34.1963 123.448C55.6944 123.225 76.8238 122.877 98.5579 123.054C98.7675 123.058 98.9704 122.98 99.1235 122.837C99.2766 122.693 99.3681 122.496 99.3786 122.287C99.3892 122.077 99.3179 121.872 99.1799 121.714C99.0419 121.556 98.848 121.458 98.639 121.441C76.8208 120.436 54.9112 120.879 33.0015 120.923C32.8317 120.914 32.6618 120.938 32.5015 120.995C32.3412 121.052 32.1937 121.14 32.0676 121.254C31.9415 121.368 31.8391 121.506 31.7665 121.66C31.6939 121.814 31.6525 121.98 31.6445 122.15C31.826 127.184 31.7581 132.236 31.7758 137.276C31.7644 137.584 31.8733 137.883 32.0794 138.111C32.2854 138.339 32.5724 138.478 32.8791 138.498Z" fill="#4355E6"/>
<path fill-rule="evenodd" clip-rule="evenodd" d="M97.5714 168.036C87.0104 168.176 73.5747 167.966 62.7408 168.478C61.8337 168.521 61.875 170.371 62.7644 170.385C72.5186 170.552 87.2803 170.07 98.5567 170.307C99.8031 170.334 99.8606 169.127 99.7146 168.23C98.9864 163.828 98.9471 159.34 99.5981 154.926C99.6281 154.767 99.6221 154.603 99.5805 154.446C99.5389 154.29 99.4627 154.144 99.3576 154.021C99.2524 153.898 99.121 153.8 98.973 153.734C98.825 153.668 98.6641 153.636 98.5021 153.641C77.0438 154.148 55.5797 154.942 34.1228 155.286C33.8344 155.305 33.5647 155.436 33.3706 155.65C33.1764 155.865 33.0728 156.146 33.0815 156.435C33.0431 161.078 33.052 165.727 33.0195 170.365C33.0397 170.67 33.1777 170.956 33.4044 171.161C33.6312 171.367 33.929 171.476 34.2349 171.466C40.4299 171.239 45.3078 171.273 51.5042 170.891C52.5367 170.828 52.4497 168.965 51.4261 168.962C45.6175 168.946 41.1379 169.009 35.3309 169.13C35.3087 165.235 35.3043 161.339 35.2778 157.444C55.9602 156.706 76.6589 156.382 97.3457 155.803C96.8618 159.872 96.9377 163.988 97.5714 168.036Z" fill="#4355E6"/>
<path fill-rule="evenodd" clip-rule="evenodd" d="M147.714 181.789C148.69 182.02 148.956 180.452 148.009 180.175C137.679 176.884 129.016 169.74 123.819 160.226C111.825 138.806 119.246 110.735 138.731 96.4955C155.988 83.8828 193.061 84.1394 205.014 104.756C205.737 106.002 207.615 105.32 207.013 103.994C197.667 83.396 159.736 80.446 141.135 91.8035C119.233 105.182 109.074 134.115 119.925 157.829C125.382 169.759 135.518 178.901 147.714 181.789Z" fill="#4355E6"/>
<path d="M193.501 105.403H163.527V135.294H193.501V105.403Z" fill="#4355E6"/>
<path d="M161.116 160.847L169.375 129.522L138.05 121.264L129.791 152.588L161.116 160.847Z" fill="#FEB186"/>
<path fill-rule="evenodd" clip-rule="evenodd" d="M148.004 135.769L155.909 134.102L155.449 135.712L147.552 137.378L148.004 135.769ZM147.039 139.201L145.034 146.328C145.077 146.392 145.117 146.458 145.154 146.525C145.334 146.849 145.448 147.205 145.49 147.573C145.532 147.942 145.501 148.314 145.398 148.67C145.245 149.208 144.936 149.687 144.51 150.049C144.084 150.41 143.56 150.637 143.005 150.701C142.45 150.765 141.889 150.662 141.392 150.407C140.895 150.151 140.485 149.754 140.214 149.266C139.943 148.777 139.823 148.219 139.869 147.662C139.915 147.106 140.126 146.575 140.473 146.138C140.821 145.701 141.291 145.377 141.823 145.206C142.252 145.069 142.706 145.037 143.147 145.111L146.512 133.146L148.579 133.727L148.517 133.947L158.805 131.776L158.301 133.553L158.305 133.554L154.411 147.186L154.4 147.183C154.395 147.198 154.391 147.214 154.387 147.23C154.234 147.766 153.925 148.244 153.5 148.605C153.076 148.966 152.553 149.192 151.999 149.256C151.446 149.32 150.886 149.218 150.39 148.963C149.894 148.708 149.485 148.313 149.214 147.825C148.943 147.338 148.823 146.782 148.869 146.226C148.914 145.671 149.124 145.141 149.47 144.705C149.817 144.268 150.285 143.944 150.816 143.774C151.346 143.603 151.916 143.594 152.451 143.747C152.672 143.811 152.882 143.901 153.078 144.013L154.928 137.536L147.039 139.201Z" fill="white"/>
<path d="M187.265 120.352L172.84 112.019V128.678L187.265 120.352Z" fill="white" stroke="#29175F" stroke-width="0.484959" stroke-linecap="round" stroke-linejoin="round"/>
<path fill-rule="evenodd" clip-rule="evenodd" d="M226.584 193.432C223.935 194.575 221.12 195.289 218.246 195.545C218.522 198.923 218.485 202.319 218.137 205.69C218.099 205.872 217.998 206.035 217.851 206.15C217.705 206.264 217.523 206.323 217.337 206.317C217.151 206.31 216.974 206.238 216.836 206.113C216.699 205.988 216.61 205.819 216.585 205.634C216.309 203.329 216.954 200.832 216.489 195.659C213.039 195.752 211.422 194.683 208.391 194.271C200.854 193.242 193.609 190.671 187.109 186.719C186.915 186.571 186.788 186.353 186.755 186.112C186.721 185.871 186.784 185.626 186.93 185.431C193.6 177.287 198.728 167.994 202.065 158.01C202.459 156.881 203.764 155.365 203.77 157.308C203.786 162.287 203.205 167.264 203.205 172.251C203.205 181.301 203.446 190.983 212.263 193.258C217.671 194.649 222.703 192.885 226.05 191.991C226.845 191.771 227.435 193.02 226.584 193.432Z" fill="#29175F"/>
<path fill-rule="evenodd" clip-rule="evenodd" d="M213.822 174.067C213.05 175.564 215.684 175.387 217.264 175.462C217.463 175.479 217.65 175.566 217.792 175.707C217.933 175.848 218.02 176.036 218.037 176.235C218.054 176.434 217.999 176.633 217.883 176.796C217.768 176.96 217.598 177.076 217.404 177.126C216.359 177.267 215.297 177.207 214.275 176.949C212.449 176.57 211.055 175.897 212.05 173.852C212.692 172.471 213.422 171.132 214.235 169.844C214.335 169.688 214.488 169.574 214.666 169.522C214.844 169.471 215.035 169.486 215.202 169.565C215.37 169.643 215.503 169.78 215.577 169.95C215.651 170.12 215.661 170.311 215.604 170.487C215.102 171.724 214.506 172.92 213.822 174.067Z" fill="#29175F"/>
<path fill-rule="evenodd" clip-rule="evenodd" d="M223.827 168.301C223.844 169.248 223.915 170.683 222.52 170.72C221.396 170.751 221.08 169.757 221.086 168.428C221.092 166.034 223.769 165.367 223.827 168.301Z" fill="#29175F"/>
<path fill-rule="evenodd" clip-rule="evenodd" d="M210.669 168.241C210.645 169.146 210.26 170 209.214 169.958C208.341 169.922 208.027 168.742 208.052 167.965C208.089 166.817 208.45 166.232 209.176 166.072C210.29 165.828 210.7 167.105 210.669 168.241Z" fill="#29175F"/>
<path fill-rule="evenodd" clip-rule="evenodd" d="M209.66 161.485C209.076 161.418 208.484 161.515 207.952 161.765C207.42 162.016 206.968 162.411 206.648 162.904C205.84 164.099 204.975 163.118 205.282 162.41C205.676 161.549 206.336 160.837 207.164 160.379C207.992 159.921 208.946 159.74 209.884 159.864C210.094 159.9 210.281 160.016 210.407 160.187C210.533 160.359 210.587 160.573 210.558 160.783C210.529 160.994 210.419 161.185 210.251 161.316C210.083 161.447 209.871 161.508 209.66 161.485Z" fill="#29175F"/>
<path fill-rule="evenodd" clip-rule="evenodd" d="M221.673 161.281C221.489 161.28 221.311 161.214 221.172 161.093C221.032 160.973 220.94 160.807 220.912 160.625C220.883 160.443 220.921 160.257 221.017 160.1C221.113 159.943 221.262 159.825 221.437 159.768C222.563 159.527 223.738 159.701 224.746 160.258C225.753 160.816 226.525 161.719 226.918 162.801C227.162 163.646 226.033 164.339 225.606 163.391C225.266 162.661 224.7 162.061 223.991 161.681C223.282 161.301 222.469 161.16 221.673 161.281Z" fill="#29175F"/>
<path fill-rule="evenodd" clip-rule="evenodd" d="M214.648 182.001C215.282 183.429 216.407 184.583 217.82 185.252C219.232 185.92 220.837 186.06 222.344 185.646C223.898 185.144 225.204 184.072 225.998 182.645C226.792 181.218 227.015 179.543 226.622 177.958C226.442 177.221 225.781 176.964 224.987 177.589C221.667 180.206 219.21 180.615 215.286 180.679C214.649 180.69 214.276 181.261 214.648 182.001Z" fill="#29175F"/>
<path fill-rule="evenodd" clip-rule="evenodd" d="M107.354 210.408C107.705 211.073 106.723 211.787 106.174 211.293C102.999 208.418 97.1843 204.36 95.5441 200.525C93.3316 195.363 94.5396 188.898 90.1618 184.72C90.004 184.585 89.9042 184.395 89.8831 184.188C89.862 183.982 89.9212 183.775 90.0485 183.611C90.1758 183.447 90.3614 183.338 90.5668 183.307C90.7721 183.276 90.9815 183.325 91.1515 183.445C95.9895 186.847 95.0721 193.51 97.3126 198.342C99.5841 203.235 104.865 205.701 107.354 210.408Z" fill="#29175F"/>
<path fill-rule="evenodd" clip-rule="evenodd" d="M74.9955 202.873C70.4825 201.978 66.2613 199.98 62.7088 197.056C61.5686 196.051 62.9345 195.242 63.7664 195.804C67.2994 198.3 71.343 199.98 75.6047 200.723C79.7643 201.338 83.999 201.229 88.1216 200.401C89.1378 200.265 89.1157 201.752 88.4166 202.171C85.2365 204.081 78.565 203.659 74.9955 202.873Z" fill="#29175F"/>
<path fill-rule="evenodd" clip-rule="evenodd" d="M56.2436 200.574C55.6123 199.882 56.6743 198.963 57.3676 199.465C62.1013 203.097 67.5364 205.709 73.33 207.135C77.8553 208.167 76.6001 210.286 72.538 209.448C66.3139 208.262 60.6166 205.159 56.2436 200.574Z" fill="#29175F"/>
<path fill-rule="evenodd" clip-rule="evenodd" d="M73.8237 216.737C68.4473 216.425 61.0015 213.947 56.9659 210.41C56.824 210.281 56.733 210.105 56.7093 209.915C56.6856 209.724 56.7308 209.531 56.8367 209.371C56.9426 209.211 57.1022 209.094 57.2869 209.041C57.4715 208.988 57.6689 209.003 57.8435 209.083C63.9781 212.089 67.2496 213.615 74.1054 214.467C78.085 214.962 77.9684 216.977 73.8237 216.737Z" fill="#29175F"/>
<path fill-rule="evenodd" clip-rule="evenodd" d="M97.5855 223.619C98.6667 224.357 97.438 226.173 96.3362 225.521C90.5218 222.097 83.9005 224.193 77.5845 224.183C71.4261 224.287 65.3931 222.437 60.3521 218.898C59.6249 218.354 60.4259 217.265 61.1943 217.618C66.9661 220.533 73.377 221.953 79.8398 221.748C85.8091 221.386 92.2785 220.006 97.5855 223.619Z" fill="#29175F"/>
<path fill-rule="evenodd" clip-rule="evenodd" d="M321.356 310.833C262.319 311.552 94.2262 310.072 58.3218 309.653C56.009 309.627 54.1741 307.016 58.2554 306.998C104.423 306.761 252.603 306.817 321.27 307.45C323.974 307.468 323.981 310.801 321.356 310.833Z" fill="#FE6B21"/>
<path fill-rule="evenodd" clip-rule="evenodd" d="M207.596 204.114C194.616 206.179 169.754 220.058 156.215 237.963C169.047 236.02 206.896 235.688 217.772 236.964C213.68 231.981 209.148 227.375 204.232 223.202C206.12 221.038 207.896 219.355 209.449 217.875C206.341 215.957 201.232 212.898 198.977 211.845C201.531 208.933 204.425 206.338 207.596 204.114Z" fill="#FEB186"/>
<path fill-rule="evenodd" clip-rule="evenodd" d="M235.978 218.54C237.642 220.199 239.062 222.086 240.194 224.145C235.643 226.753 226.818 231.636 221.492 237.296C226.578 237.963 229.9 240.43 231.67 247.916C232.431 251.127 233.481 256.279 234.522 262.063C244.159 259.957 253.954 258.662 263.807 258.191C262.078 253.764 259.767 249.587 256.935 245.771C256.327 244.967 257.454 243.947 258.125 244.727C261.546 248.653 264.193 253.192 265.927 258.102C270.34 257.842 274.766 257.904 279.171 258.29C280.174 258.403 280.185 259.903 279.147 259.878C264.273 259.394 249.398 260.795 234.876 264.05C236.359 272.504 237.754 281.952 238.192 288.567C261.055 288.344 298.145 299.641 303.893 286.014C316.767 255.495 277.668 207.325 249.848 203.108C252.196 206.359 253.84 210.063 254.675 213.985C251.628 215.043 239.975 217.817 235.978 218.54Z" fill="#FEB186"/>
<path fill-rule="evenodd" clip-rule="evenodd" d="M218.86 227.197C214.185 215.529 214.311 209.317 212.978 203.597C212.947 203.4 212.842 203.222 212.684 203.1C212.526 202.978 212.327 202.922 212.128 202.942C211.929 202.963 211.746 203.059 211.616 203.211C211.487 203.363 211.42 203.559 211.431 203.758C211.384 210.663 214.901 222.163 217.759 228.776C217.849 228.936 217.976 229.072 218.129 229.174C218.282 229.276 218.457 229.34 218.64 229.362C218.822 229.383 219.008 229.362 219.18 229.298C219.353 229.235 219.508 229.132 219.633 228.997C228.886 216.148 233.509 211.506 244.118 203.266C244.283 203.149 244.397 202.972 244.435 202.774C244.472 202.575 244.432 202.369 244.321 202.2C244.211 202.031 244.039 201.911 243.842 201.866C243.645 201.82 243.438 201.853 243.264 201.957C233.418 208.528 225.096 217.135 218.86 227.197Z" fill="#4355E6"/>
<path fill-rule="evenodd" clip-rule="evenodd" d="M143.636 239.294C134.535 233.745 119.108 220.094 112.784 211.458C106.428 217.941 100.773 225.077 95.9141 232.747C107.428 249.727 125.662 268.045 137.089 273.367C135.761 267.706 135.423 252.057 135.761 247.063C136.099 242.069 139.863 240.072 143.636 239.294Z" fill="#FEB186"/>
<path fill-rule="evenodd" clip-rule="evenodd" d="M272.745 294.12C263.94 293.087 245.683 291.956 233.827 291.76C233.827 284.953 227.316 246.035 223.173 242.78C219.205 239.662 143.933 239.08 140.825 244.992C136.739 252.774 143.492 300.986 147.221 302.259C153.287 304.324 268.597 303.98 273.628 303.587C276.258 303.387 276.633 294.573 272.745 294.12ZM164.061 247.423C159.689 247.88 155.506 248.485 151.146 249.124C147.371 249.677 147.104 250.467 146.694 254.09C146.174 258.391 145.925 262.721 145.948 267.054C145.948 267.976 144.607 268.218 144.485 267.247C143.92 262.275 143.958 257.253 144.597 252.29C145.019 249.034 146.219 247.57 149.464 246.908C154.262 245.939 159.16 245.555 164.051 245.764C164.249 245.793 164.431 245.892 164.562 246.043C164.694 246.195 164.767 246.388 164.769 246.589C164.77 246.79 164.699 246.984 164.569 247.137C164.439 247.29 164.259 247.392 164.061 247.423ZM183.333 280.358C180.214 280.948 176.834 279.261 175.617 274.502C174.56 270.372 176.502 267.256 179.933 266.378C188.149 264.278 191.151 278.864 183.333 280.358Z" fill="#4355E6"/>
<path fill-rule="evenodd" clip-rule="evenodd" d="M268.618 181.884C254.591 167.985 262.953 148.499 253.982 139.069C252.285 137.241 249.994 136.074 247.517 135.776C245.04 135.479 242.539 136.071 240.457 137.447C233.547 126.209 219.452 123.489 207.451 127.228C194.373 131.303 189.686 147.27 200.186 152.409C205.687 155.103 225.002 155.331 231.041 154.162C231.524 159.162 233.395 163.927 236.441 167.922C236.754 168.298 237.19 168.819 237.71 168.364C238.271 167.858 238.931 167.475 239.649 167.237C240.366 167 241.125 166.914 241.878 166.985C242.63 167.057 243.36 167.283 244.02 167.651C244.68 168.019 245.256 168.52 245.713 169.122C246.133 169.743 246.426 170.44 246.575 171.174C246.725 171.907 246.728 172.664 246.584 173.399C246.441 174.134 246.154 174.833 245.739 175.457C245.324 176.08 244.791 176.616 244.169 177.033C242.365 178.226 241.078 178.052 239.058 177.95C238.425 177.919 238.307 178.449 238.264 178.933C237.64 185.96 236.948 193.978 238.021 200.966C238.048 201.16 238.151 201.336 238.306 201.456C238.461 201.575 238.656 201.63 238.851 201.608C239.046 201.585 239.224 201.488 239.348 201.336C239.472 201.184 239.532 200.99 239.515 200.795C239.53 198.901 239.459 197.007 239.397 195.112C249.272 196.217 261.776 190.441 268.648 183.837C269.736 182.803 268.957 182.22 268.618 181.884ZM215.489 133.805C213.081 133.762 210.699 134.303 208.546 135.382C206.155 136.529 202.096 139.382 202.369 142.373C202.45 143.27 201.161 143.819 200.826 142.894C199.211 138.437 203.706 134.954 206.704 133.318C209.373 131.861 212.365 131.093 215.406 131.084C219.297 131.088 217.691 133.898 215.489 133.805Z" fill="#29175F"/>
<path d="M284.898 34.7832C282.782 38.3294 281.3 42.2171 280.518 46.272C278.941 46.0613 277.351 45.954 275.759 45.9509C269.536 45.9504 263.419 47.5708 258.012 50.6524C252.604 53.734 248.093 58.1707 244.921 63.5257C241.749 68.8807 240.027 74.9693 239.923 81.1922C239.819 87.4152 241.338 93.5578 244.329 99.0156" stroke="#29175F" stroke-width="2" stroke-linecap="round" stroke-linejoin="round"/>
<path d="M366.62 66.7541C361.958 63.3264 356.347 61.429 350.562 61.3235C352.415 53.4197 351.529 45.1207 348.048 37.7865C344.568 30.4522 338.699 24.5176 331.404 20.9551C324.11 17.3925 315.821 16.4133 307.897 18.1778C299.973 19.9423 292.883 24.3459 287.789 30.6671" stroke="#29175F" stroke-width="2" stroke-linecap="round" stroke-linejoin="round"/>
<path d="M247.629 103.994C252.529 110.203 259.345 114.617 267.015 116.548H357.685C362.068 115.301 366.083 113.007 369.385 109.866C372.687 106.725 375.177 102.829 376.641 98.5131C378.106 94.1974 378.501 89.5907 377.793 85.0887C377.084 80.5866 375.294 76.3237 372.575 72.666" stroke="#29175F" stroke-width="2" stroke-linecap="round" stroke-linejoin="round"/>
<path d="M334.474 106.111L309.03 69.8779L283.57 106.111H296.081V131.994H321.964V106.111H334.474Z" fill="#FE6B21"/>
<defs>
<linearGradient id="paint0_linear_3536_7961" x1="48.4369" y1="95.5045" x2="93.7997" y2="80.7403" gradientUnits="userSpaceOnUse">
<stop stop-color="#4C60E9"/>
<stop offset="1" stop-color="#7485FF"/>
</linearGradient>
<clipPath id="clip0_3536_7961">
<rect width="67.0401" height="41.753" fill="white" transform="translate(30.8555 67.0801) rotate(-0.154568)"/>
</clipPath>
</defs>
</svg>
