<svg width="383" height="383" viewBox="0 0 383 383" fill="none" xmlns="http://www.w3.org/2000/svg">
<path d="M191.918 358.757C292.159 358.757 373.421 354.768 373.421 349.848C373.421 344.928 292.159 340.939 191.918 340.939C91.676 340.939 10.4141 344.928 10.4141 349.848C10.4141 354.768 91.676 358.757 191.918 358.757Z" fill="#FEB186"/>
<path d="M81.6753 349.212C82.3395 349.212 82.8779 348.673 82.8779 348.009C82.8779 347.345 82.3395 346.807 81.6753 346.807C81.0111 346.807 80.4727 347.345 80.4727 348.009C80.4727 348.673 81.0111 349.212 81.6753 349.212Z" fill="#29175F"/>
<path d="M54.3667 348.088C54.605 348.088 54.8381 348.158 55.0364 348.29C55.2347 348.422 55.3894 348.61 55.4809 348.83C55.5724 349.05 55.5965 349.292 55.5502 349.526C55.504 349.76 55.3894 349.975 55.221 350.144C55.0526 350.312 54.838 350.427 54.6043 350.474C54.3706 350.52 54.1283 350.497 53.9081 350.405C53.6879 350.314 53.4996 350.16 53.3672 349.962C53.2348 349.764 53.1641 349.531 53.1641 349.292C53.1638 349.134 53.1947 348.978 53.2551 348.832C53.3154 348.685 53.4039 348.553 53.5156 348.441C53.6273 348.329 53.76 348.24 53.906 348.18C54.0521 348.119 54.2086 348.088 54.3667 348.088Z" fill="#29175F"/>
<path d="M73.1557 354.433C73.8199 354.433 74.3584 353.894 74.3584 353.23C74.3584 352.566 73.8199 352.027 73.1557 352.027C72.4916 352.027 71.9531 352.566 71.9531 353.23C71.9531 353.894 72.4916 354.433 73.1557 354.433Z" fill="#29175F"/>
<path d="M137.718 349.212C138.382 349.212 138.921 348.673 138.921 348.009C138.921 347.345 138.382 346.807 137.718 346.807C137.054 346.807 136.516 347.345 136.516 348.009C136.516 348.673 137.054 349.212 137.718 349.212Z" fill="#29175F"/>
<path d="M100.874 349.212C101.539 349.212 102.077 348.673 102.077 348.009C102.077 347.345 101.539 346.807 100.874 346.807C100.21 346.807 99.6719 347.345 99.6719 348.009C99.6719 348.673 100.21 349.212 100.874 349.212Z" fill="#29175F"/>
<path d="M122.488 354.242C123.152 354.242 123.69 353.704 123.69 353.04C123.69 352.375 123.152 351.837 122.488 351.837C121.824 351.837 121.285 352.375 121.285 353.04C121.285 353.704 121.824 354.242 122.488 354.242Z" fill="#29175F"/>
<path d="M211.039 347.869C211.703 347.869 212.241 347.331 212.241 346.666C212.241 346.002 211.703 345.464 211.039 345.464C210.374 345.464 209.836 346.002 209.836 346.666C209.836 347.331 210.374 347.869 211.039 347.869Z" fill="#29175F"/>
<path d="M194.196 350.828C194.435 350.828 194.668 350.899 194.866 351.031C195.064 351.164 195.218 351.352 195.31 351.572C195.401 351.792 195.424 352.035 195.378 352.268C195.331 352.502 195.216 352.717 195.048 352.885C194.879 353.053 194.664 353.168 194.43 353.214C194.197 353.26 193.954 353.236 193.734 353.145C193.514 353.053 193.326 352.899 193.194 352.7C193.062 352.502 192.992 352.269 192.992 352.031C192.992 351.873 193.023 351.716 193.084 351.57C193.144 351.424 193.233 351.291 193.345 351.18C193.457 351.068 193.59 350.979 193.736 350.919C193.882 350.859 194.038 350.828 194.196 350.828ZM227.669 30.3528C224.369 28.93 225.882 29.3302 169.669 29.3302L170.127 26C170.157 25.7621 170.132 25.5205 170.054 25.2937C169.976 25.0668 169.848 24.8608 169.678 24.6913C169.508 24.5219 169.302 24.3934 169.075 24.3159C168.848 24.2384 168.607 24.2138 168.369 24.244H76.3685C76.0969 24.2739 75.8344 24.3598 75.5977 24.4963C75.3609 24.6328 75.1551 24.8169 74.9931 25.037C74.8311 25.2571 74.7166 25.5084 74.6567 25.775C74.5967 26.0416 74.5928 26.3178 74.645 26.586L75.1697 29.3302C56.3816 29.3091 37.5706 29.1387 18.7806 29.3302C17.5088 29.2817 16.2415 29.5073 15.0646 29.9916C13.8877 30.476 12.8287 31.2077 11.9594 32.1373C11.0901 33.0669 10.4309 34.1725 10.0265 35.3792C9.62206 36.5859 9.48186 37.8655 9.61541 39.1312C9.6403 39.405 27.0802 173.049 27.1626 173.413C27.7204 177.095 29.5905 180.451 32.428 182.863C35.2656 185.275 38.8794 186.579 42.6032 186.536C44.9012 186.557 68.1014 186.536 68.1014 186.536C64.3633 209.708 57.8811 232.318 51.8565 254.975C46.3489 275.724 29.6272 339.013 26.724 349.897C26.6858 350.087 26.7209 350.285 26.8223 350.45C26.9237 350.615 27.0838 350.735 27.2705 350.787C27.4571 350.838 27.6564 350.818 27.8283 350.728C28.0001 350.639 28.1317 350.488 28.1967 350.305C59.8937 231.715 65.8743 210.125 69.6468 186.536H75.3631L76.0085 189.937C76.0846 190.339 76.2983 190.702 76.6129 190.963C76.9275 191.224 77.3232 191.367 77.732 191.368H167.335C167.761 191.368 168.172 191.214 168.493 190.935C168.815 190.655 169.024 190.269 169.083 189.847L169.529 186.536H188.434C194.256 222.969 211.273 276.434 229.712 345.215C229.779 345.395 229.911 345.543 230.082 345.63C230.253 345.717 230.45 345.737 230.634 345.685C230.819 345.634 230.978 345.516 231.079 345.353C231.181 345.19 231.218 344.996 231.183 344.807C215.072 284.598 196.023 224.034 189.976 186.527C215.233 186.527 213.712 186.592 215.286 186.377C218.866 185.84 222.144 184.062 224.547 181.355C226.951 178.648 228.328 175.183 228.439 171.565C229.9 146.681 234.94 47.4327 235.13 43.7751C235.434 38.1277 233.197 32.7466 227.669 30.3528ZM233.674 42.4422C233.674 42.7448 226.972 170.747 226.953 171.057C226.556 178.702 221.187 184.836 213.243 185.006C208.245 185.112 213.052 185.006 169.75 185.006L170.133 182.182C170.162 181.944 170.137 181.702 170.059 181.475C169.981 181.249 169.852 181.043 169.682 180.873C169.513 180.704 169.306 180.576 169.079 180.499C168.852 180.421 168.611 180.397 168.373 180.428H76.3685C76.0969 180.457 75.8344 180.543 75.5977 180.68C75.3609 180.816 75.1551 181.001 74.9931 181.221C74.8311 181.441 74.7166 181.692 74.6567 181.959C74.5967 182.225 74.5928 182.501 74.645 182.77L75.0701 185.035C50.1062 185.343 43.3194 185.006 43.08 185.006C39.6156 185.142 36.2236 183.991 33.5565 181.776C30.8895 179.561 29.1359 176.437 28.6333 173.007C25.8508 151.641 13.8648 62.6206 11.1704 39.4203C11.0036 38.3173 11.0861 37.191 11.4117 36.124C11.7373 35.0571 12.2977 34.0766 13.0519 33.2546C13.8061 32.4326 14.7349 31.7901 15.7699 31.3741C16.805 30.9581 17.9201 30.7793 19.0334 30.8507C21.3793 30.8316 75.4531 30.8507 75.4531 30.8507L75.9989 33.7443C76.0754 34.1458 76.2892 34.5081 76.6037 34.7691C76.9182 35.0301 77.3137 35.1736 77.7224 35.1748H167.323C167.749 35.1748 168.161 35.021 168.483 34.7416C168.804 34.4622 169.014 34.0761 169.074 33.6543L169.457 30.8507C169.457 30.8507 221.432 30.8105 222.703 30.8507C224.19 30.8751 225.656 31.1962 227.017 31.7952C228.378 32.3941 229.605 33.2589 230.627 34.3386C231.649 35.4184 232.445 36.6914 232.968 38.083C233.492 39.4745 233.732 40.9566 233.674 42.4422Z" fill="#29175F"/>
<path d="M130.232 66.9793H166.956C167.159 66.9793 167.354 66.8986 167.498 66.7549C167.641 66.6113 167.722 66.4164 167.722 66.2133C167.722 66.0101 167.641 65.8153 167.498 65.6716C167.354 65.528 167.159 65.4473 166.956 65.4473H130.232C130.029 65.4473 129.834 65.528 129.691 65.6716C129.547 65.8153 129.466 66.0101 129.466 66.2133C129.466 66.4164 129.547 66.6113 129.691 66.7549C129.834 66.8986 130.029 66.9793 130.232 66.9793ZM131.559 73.3026C131.356 73.3026 131.161 73.3833 131.018 73.527C130.874 73.6706 130.793 73.8654 130.793 74.0686C130.793 74.2718 130.874 74.4666 131.018 74.6102C131.161 74.7539 131.356 74.8346 131.559 74.8346C143.528 74.804 155.537 75.0127 167.487 74.2084C168.461 74.1395 168.471 72.617 167.487 72.6764C155.543 73.4807 143.534 73.2873 131.559 73.3026ZM167.632 79.2812C155.706 79.9496 143.312 81.5084 131.425 79.9974C130.451 79.8768 130.468 81.3992 131.425 81.5294C143.325 83.0308 155.711 81.4203 167.632 80.8132C168.607 80.7577 168.616 79.2314 167.632 79.2812ZM130.232 100.561H166.956C167.159 100.561 167.354 100.48 167.498 100.336C167.641 100.193 167.722 99.9979 167.722 99.7947C167.722 99.5915 167.641 99.3967 167.498 99.2531C167.354 99.1094 167.159 99.0287 166.956 99.0287H130.232C130.029 99.0287 129.834 99.1094 129.691 99.2531C129.547 99.3967 129.466 99.5915 129.466 99.7947C129.466 99.9979 129.547 100.193 129.691 100.336C129.834 100.48 130.029 100.561 130.232 100.561ZM131.559 108.406C143.528 108.391 155.537 108.585 167.487 107.78C168.461 107.709 168.471 106.189 167.487 106.248C155.537 107.054 143.528 106.846 131.559 106.874C131.356 106.874 131.161 106.955 131.018 107.099C130.874 107.242 130.793 107.437 130.793 107.64C130.793 107.844 130.874 108.038 131.018 108.182C131.161 108.326 131.356 108.406 131.559 108.406ZM167.632 112.859C155.702 113.47 143.312 115.086 131.425 113.575C130.451 113.456 130.468 114.977 131.425 115.107C143.325 116.608 155.711 114.998 167.632 114.391C168.607 114.341 168.616 112.809 167.632 112.859ZM188.998 159.416C95.3792 162.153 71.2828 163.116 42.8948 161.017C41.9105 160.946 41.9201 162.469 42.8948 162.549C80.065 165.292 109.537 163.204 188.998 160.948C189.982 160.908 189.982 159.388 188.998 159.416ZM188.998 165.519C95.3792 168.256 71.2828 169.219 42.8948 167.12C41.9105 167.051 41.9201 168.572 42.8948 168.652C80.065 171.395 109.537 169.307 188.998 167.051C189.982 167.021 189.982 165.491 188.998 165.519ZM130.232 133.627H166.956C167.159 133.627 167.354 133.546 167.498 133.403C167.641 133.259 167.722 133.064 167.722 132.861C167.722 132.658 167.641 132.463 167.498 132.319C167.354 132.176 167.159 132.095 166.956 132.095H130.232C130.029 132.095 129.834 132.176 129.691 132.319C129.547 132.463 129.466 132.658 129.466 132.861C129.466 133.064 129.547 133.259 129.691 133.403C129.834 133.546 130.029 133.627 130.232 133.627ZM131.559 141.482C143.528 141.467 155.537 141.66 167.487 140.856C168.461 140.785 168.471 139.265 167.487 139.324C155.537 140.13 143.528 139.922 131.559 139.95C131.356 139.95 131.161 140.031 131.018 140.175C130.874 140.318 130.793 140.513 130.793 140.716C130.793 140.92 130.874 141.114 131.018 141.258C131.161 141.402 131.356 141.482 131.559 141.482ZM131.416 148.171C143.317 149.659 155.702 148.062 167.623 147.457C168.597 147.407 168.607 145.875 167.623 145.925C155.692 146.542 143.302 148.152 131.416 146.641C130.451 146.523 130.451 148.053 131.416 148.171Z" fill="#29175F"/>
<path d="M174.609 113.693C174.992 116.16 175.366 118.615 175.743 121.082C182.652 118.904 189.559 116.723 196.461 114.54C195.994 112.671 195.536 110.811 195.069 108.942C188.251 110.522 181.431 112.105 174.609 113.693ZM267.14 113.048C266.241 112.762 265.337 112.49 264.429 112.232C260.715 113.165 257.143 114.593 253.81 116.478C257.475 120.173 261.609 123.372 266.106 125.992C267.239 123.832 268.649 121.831 270.302 120.038C268.541 118.097 267.435 115.652 267.14 113.048ZM327.88 211.083C334.032 209.477 339.676 206.337 344.284 201.956C343.2 199.541 342.107 197.134 341.029 194.719L320.559 209.401C321.496 210.344 322.681 211.003 323.977 211.3C325.272 211.598 326.626 211.523 327.88 211.083Z" fill="#FE6B21"/>
<path d="M319.002 208.647C344.679 190.263 340.562 193.08 341.004 192.881C308.008 126.239 310.615 131.047 308.386 128.041C304.819 123.25 300.279 119.269 295.063 116.359C295.077 116.474 295.065 116.591 295.029 116.7C294.993 116.81 294.934 116.911 294.854 116.995C290.776 121.204 286.115 124.806 281.015 127.692C280.839 127.793 280.631 127.82 280.435 127.768C280.239 127.716 280.073 127.588 279.971 127.413C278.804 125.109 277.352 122.961 275.649 121.02C275.557 121.118 275.46 121.211 275.36 121.3C278.173 124.621 277.924 131.067 278.512 136.281C279.236 142.694 279.802 149.205 281.145 155.529C281.802 158.641 283.5 162.279 283.242 165.5C282.696 168.197 281.72 170.789 280.35 173.176C279.546 174.985 275.051 185.77 272.824 185.474C270.766 185.194 267.634 177.927 266.819 176.485C263.335 170.33 262.052 170.24 263.657 158.999C264.75 151.655 266.273 144.381 268.22 137.216C269.544 132.265 270.239 126.428 271.93 121.438C271.742 121.314 271.559 121.181 271.382 121.042C269.683 122.974 268.237 125.115 267.079 127.413C266.974 127.585 266.807 127.71 266.612 127.762C266.418 127.814 266.21 127.789 266.034 127.692C261.043 124.871 256.475 121.36 252.464 117.263C248.287 119.827 244.584 123.093 241.518 126.917C233.335 137.183 219.721 138.091 211.404 131.917C205.494 127.808 200.762 122.225 197.676 115.722C197.568 115.76 175.23 122.807 175.297 122.807C177.245 132.321 181.459 146.553 190.043 154.818C201.276 165.634 223.038 167.942 233.389 165.646C234.112 173.559 235.336 181.502 236.453 189.296C237.209 194.52 238.653 211.523 239.275 215.621C239.467 215.574 308.047 215.612 307.853 215.612C307.922 213.544 309.096 176.58 309.613 160.157C309.644 159.173 311.174 159.173 311.145 160.157C311.076 162.474 310.291 187.237 309.973 197.308C312.139 201.762 315.085 205.793 318.671 209.208C318.673 209.094 318.705 208.982 318.763 208.884C318.821 208.786 318.903 208.704 319.002 208.647Z" fill="#FE6B21"/>
<path d="M276.551 119.828C278.285 121.663 279.755 123.731 280.917 125.973C285.465 123.327 289.641 120.087 293.334 116.339C293.065 115.898 292.787 115.464 292.499 115.036C289.627 113.678 286.612 112.644 283.51 111.955C282.15 112.338 280.799 112.739 279.456 113.158C278.682 115.461 277.71 117.692 276.551 119.828Z" fill="#FE6B21"/>
<path d="M254.31 81.8316C254.31 81.8316 247.033 63.4782 251.356 53.0013C251.653 52.2914 252.161 51.6901 252.812 51.2792C253.463 50.8683 254.225 50.6677 254.993 50.7045C255.762 50.7413 256.501 51.0138 257.11 51.485C257.718 51.9562 258.167 52.6032 258.395 53.3383L260.502 60.1289C260.502 60.1289 264.489 51.2701 267.143 52.603C269.797 53.9358 269.36 59.2442 269.36 59.2442C269.36 59.2442 285.743 52.603 291.063 59.6904C296.383 66.7778 289.294 82.7163 289.294 82.7163C289.294 82.7163 287.306 69.206 274.014 68.3213C260.722 67.4365 254.31 81.8316 254.31 81.8316Z" fill="#4355E6"/>
<path d="M290.34 78.4209C288.688 74.9189 286.069 71.9625 282.792 69.9004C279.515 67.8383 275.716 66.7565 271.844 66.7827C267.972 66.8089 264.189 67.9419 260.94 70.0481C257.691 72.1543 255.112 75.1459 253.507 78.6698C252.792 78.3644 252.014 78.2347 251.238 78.2917C250.462 78.3487 249.711 78.5906 249.048 78.9973C248.384 79.404 247.828 79.9636 247.426 80.6294C247.023 81.2951 246.786 82.0475 246.734 82.8237C246.681 83.6 246.816 84.3774 247.126 85.091C247.436 85.8046 247.912 86.4336 248.515 86.9253C249.118 87.4171 249.83 87.7574 250.591 87.9176C251.352 88.0779 252.141 88.0535 252.891 87.8465C253.824 91.3055 255.736 94.4214 258.397 96.8198C261.058 99.2182 264.356 100.797 267.893 101.366V113.266H278.519V100.74C281.514 99.8596 284.234 98.2271 286.42 95.998C288.606 93.7689 290.185 91.0174 291.007 88.0055C291.71 88.071 292.418 87.9829 293.084 87.7473C293.749 87.5118 294.355 87.1343 294.86 86.6411C295.365 86.1479 295.757 85.5508 296.008 84.8911C296.259 84.2315 296.364 83.5251 296.315 82.8209C296.266 82.1167 296.065 81.4317 295.725 80.8131C295.384 80.1946 294.914 79.6574 294.346 79.2389C293.777 78.8203 293.125 78.5303 292.433 78.3891C291.741 78.2478 291.027 78.2587 290.34 78.4209Z" fill="#FEB186"/>
<path d="M283.802 92.2399C276.577 92.2399 277.171 87.3682 271.385 87.3682C265.568 87.3682 266.249 92.2399 258.968 92.2399C257.247 92.2428 255.542 91.9084 253.949 91.2556C260.828 105.436 283.49 105.203 289.917 90.729C288.035 91.7299 285.934 92.249 283.802 92.2399Z" fill="#4355E6"/>
<path d="M262.127 80.9475C262.392 80.9475 262.651 81.0261 262.871 81.1734C263.092 81.3207 263.264 81.53 263.365 81.775C263.466 82.0199 263.493 82.2895 263.441 82.5495C263.39 82.8095 263.262 83.0484 263.074 83.2358C262.887 83.4233 262.648 83.551 262.388 83.6027C262.128 83.6544 261.858 83.6279 261.614 83.5264C261.369 83.425 261.159 83.2532 261.012 83.0327C260.865 82.8123 260.786 82.5531 260.786 82.288C260.785 82.1116 260.819 81.9367 260.885 81.7735C260.952 81.6103 261.051 81.462 261.176 81.3373C261.301 81.2125 261.449 81.1138 261.612 81.0469C261.775 80.98 261.95 80.9462 262.127 80.9475ZM282.06 80.9475C282.325 80.9475 282.584 81.0261 282.804 81.1734C283.025 81.3207 283.197 81.53 283.298 81.775C283.4 82.0199 283.426 82.2895 283.375 82.5495C283.323 82.8095 283.195 83.0484 283.008 83.2358C282.82 83.4233 282.581 83.551 282.321 83.6027C282.061 83.6544 281.792 83.6279 281.547 83.5264C281.302 83.425 281.092 83.2532 280.945 83.0327C280.798 82.8123 280.719 82.5531 280.719 82.288C280.719 81.9325 280.86 81.5915 281.112 81.3401C281.363 81.0887 281.704 80.9475 282.06 80.9475ZM266.32 75.3403C264.624 74.9454 262.845 75.1118 261.251 75.8145C259.658 76.5173 258.335 77.7184 257.483 79.2374C257.396 79.4118 257.379 79.6127 257.435 79.7993C257.491 79.9859 257.616 80.1441 257.785 80.2417C257.953 80.3393 258.153 80.369 258.342 80.3247C258.532 80.2805 258.698 80.1655 258.806 80.0034C259.485 78.7731 260.545 77.7968 261.828 77.2214C263.11 76.646 264.544 76.5027 265.914 76.813C266.868 77.039 267.276 75.5682 266.32 75.3403ZM278.272 76.8111C279.642 76.4998 281.077 76.6427 282.359 77.2182C283.642 77.7937 284.702 78.7706 285.38 80.0015C285.49 80.1602 285.655 80.2719 285.843 80.3141C286.031 80.3564 286.228 80.3261 286.395 80.2294C286.562 80.1327 286.686 79.9767 286.743 79.7924C286.8 79.6082 286.785 79.4093 286.702 79.2355C285.849 77.7165 284.527 76.5154 282.933 75.8126C281.339 75.1099 279.56 74.9435 277.864 75.3384C276.92 75.5682 277.316 77.039 278.272 76.8111ZM267.345 78.0731C267.37 80.9858 268.538 86.1965 272.366 85.9878C275.556 85.8077 276.253 80.957 276.403 78.5192C276.462 77.5349 274.942 77.5445 274.871 78.5192C274.771 80.08 274.375 84.1857 272.366 84.4558C269.582 84.8388 268.886 79.9421 268.877 78.0635C268.876 77.9629 268.856 77.8634 268.817 77.7707C268.778 77.678 268.721 77.5939 268.649 77.5232C268.578 77.4526 268.493 77.3967 268.4 77.3587C268.306 77.3208 268.207 77.3016 268.106 77.3023C268.006 77.3029 267.906 77.3233 267.813 77.3624C267.721 77.4015 267.637 77.4584 267.566 77.53C267.495 77.6016 267.439 77.6864 267.401 77.7796C267.363 77.8727 267.344 77.9725 267.345 78.0731ZM267.883 91.3153L276.481 91.4551C276.481 91.4551 276.123 95.0055 271.61 94.8848C267.096 94.7642 267.883 91.3153 267.883 91.3153Z" fill="#29175F"/>
<path d="M308.554 216.56H239.359C240.271 237.749 242.732 273.808 244.878 293.071C246.724 309.648 246.52 333.016 256.679 334.397C265.779 335.64 266.893 316.12 268.778 307.367C272.631 289.356 275.972 267.619 278.46 249.367C278.78 247 280.001 243.362 279.553 240.978C279.553 240.978 296.346 332.042 312.62 332.042C328.893 332.042 308.554 216.56 308.554 216.56Z" fill="#4355E6"/>
<path d="M253.497 337.173C255.725 337.498 257.996 337.356 260.167 336.755C260.629 336.61 261.116 336.564 261.598 336.618C262.079 336.673 262.544 336.827 262.962 337.071C263.38 337.315 263.743 337.644 264.027 338.036C264.311 338.429 264.51 338.876 264.611 339.35C265.247 342.381 265.695 346.15 264.362 347.303C262.185 349.218 244.937 354.402 235.193 352.801C234.663 352.716 234.182 352.441 233.842 352.026C233.501 351.611 233.325 351.085 233.345 350.549C233.366 350.012 233.583 349.502 233.954 349.115C234.326 348.727 234.826 348.489 235.362 348.446C239.121 348.169 247.382 346.723 249.678 339.509C249.942 338.735 250.468 338.077 251.165 337.651C251.863 337.224 252.687 337.055 253.497 337.173ZM319.35 335.771C317.186 336.405 314.915 336.581 312.68 336.288C312.202 336.208 311.713 336.229 311.245 336.349C310.776 336.469 310.337 336.685 309.957 336.985C309.576 337.284 309.263 337.66 309.036 338.088C308.81 338.516 308.675 338.986 308.641 339.469C308.434 342.561 308.522 346.349 309.995 347.32C312.419 348.902 330.215 351.646 339.639 348.703C340.162 348.542 340.607 348.193 340.887 347.722C341.167 347.252 341.261 346.694 341.152 346.158C341.044 345.644 340.754 345.187 340.335 344.871C339.917 344.554 339.398 344.399 338.875 344.434C335.116 344.681 326.726 344.404 323.446 337.573C323.081 336.841 322.472 336.26 321.724 335.931C320.975 335.602 320.135 335.545 319.35 335.771Z" fill="#29175F"/>
<path d="M188.57 105.622C190.002 103.881 189.933 100.869 190.002 98.7626C190.008 96.2543 189.646 93.7586 188.928 91.3554C188.128 87.6672 186.681 84.1498 184.653 80.9665C183.928 79.9535 180.632 74.9515 179.056 76.6712C178.121 77.6957 179.604 80.6295 179.9 81.723C180.249 83.0156 180.816 84.3274 181.049 85.5989C180.462 83.8601 176.764 82.9352 175.272 83.7605C173.727 84.5873 172.511 85.9169 171.825 87.5293C168.862 86.7537 169.399 94.0498 169.837 95.4727C170.551 97.7707 172.65 100.224 175.304 98.7626C174.609 99.1456 176.109 104.23 176.517 104.977C178.514 109.079 186.212 108.489 188.57 105.622ZM344.186 211.033C340.579 209.381 336.729 209.283 334.295 213.14C332.486 216.003 332.536 220.248 332.572 223.519C332.604 225.746 332.38 229.672 333.568 231.66C335.247 234.465 336.249 230.36 336.632 228.808C336.929 227.625 337.377 224.086 338.968 224.036C341.473 223.967 342.298 233.182 342.647 234.992C342.875 236.173 343.114 242.077 345.272 240.251C347.43 238.424 345.261 233.849 346.057 231.622C347.488 227.6 349.585 235.609 350.918 236.394C354.497 238.521 351.774 229.992 351.982 228.232C354.734 227.516 354.933 234.088 358.334 233.163C359.03 230.817 357.377 228.033 356.584 225.815C355.552 222.99 354.14 220.317 352.388 217.872C350.257 214.954 347.44 212.605 344.186 211.033Z" fill="#FEB186"/>
<circle cx="105.816" cy="139" r="13" fill="#29175F"/>
<g clip-path="url(#clip0_3536_7837)">
<path d="M105.817 150.267C112.04 150.267 117.084 145.222 117.084 139C117.084 132.778 112.04 127.733 105.817 127.733C99.595 127.733 94.5508 132.778 94.5508 139C94.5508 145.222 99.595 150.267 105.817 150.267Z" fill="#F0F0F0"/>
<path d="M117.086 139C117.086 134.156 114.029 130.026 109.738 128.435V149.566C114.029 147.974 117.086 143.845 117.086 139Z" fill="#D80027"/>
<path d="M94.5508 139C94.5508 143.845 97.6083 147.974 101.899 149.566V128.435C97.6083 130.026 94.5508 134.156 94.5508 139Z" fill="#0052B4"/>
</g>
<path d="M72.9596 77.5366C74.9282 74.4152 78.0803 72.1574 79.6909 68.7774C80.4521 66.9449 80.7558 64.9545 80.5756 62.9784C80.3955 61.0022 79.7369 59.0996 78.6568 57.4349C77.0918 54.5789 74.8489 52.1513 72.1254 50.3658C69.4018 48.5802 66.2812 47.4915 63.038 47.1954C48.101 45.8032 37.2372 55.1675 43.482 69.3845C45.3817 73.7086 49.0796 77.259 52.0517 81.0468C53.649 83.6833 55.0064 86.4577 56.1076 89.3369H68.7045C68.7026 89.6222 70.4012 81.6041 72.9596 77.5366Z" fill="#FEB186"/>
<path d="M70.5897 72.1188C70.4815 71.7361 70.2734 71.3891 69.9868 71.1135C69.7001 70.8379 69.3453 70.6435 68.9587 70.5503C68.5721 70.4571 68.1677 70.4685 67.787 70.5832C67.4062 70.698 67.0629 70.9121 66.7922 71.2034C66.2212 71.7998 65.805 72.527 65.58 73.3214C65.2622 74.2463 64.9826 75.1809 64.7547 76.1345C64.0082 76.0979 63.2832 75.8718 62.6482 75.4777C63.1621 74.9011 63.5475 74.2218 63.7786 73.4848C64.0097 72.7479 64.0813 71.9702 63.9887 71.2034C63.9946 70.6996 63.8226 70.2098 63.5031 69.8203C63.1835 69.4308 62.7368 69.1664 62.2415 69.0738C61.7463 68.9811 61.2342 69.0661 60.7954 69.3138C60.3567 69.5614 60.0193 69.9559 59.8427 70.4278C59.6142 71.25 59.5546 72.11 59.6675 72.9558C59.7804 73.8017 60.0634 74.6159 60.4995 75.3494C59.6971 75.8974 58.7127 76.111 57.7554 75.9449C57.1215 73.6354 56.6064 71.1747 54.7335 70.1099C54.4153 69.9123 54.0422 69.8217 53.6687 69.8514C51.1792 70.1118 52.221 75.6711 56.5125 77.1878C57.4487 80.7372 58.208 84.331 58.7875 87.9558C58.8394 88.1364 58.9558 88.2917 59.1147 88.3921C59.2735 88.4925 59.4637 88.531 59.6491 88.5002C59.8345 88.4695 60.0021 88.3717 60.1201 88.2254C60.2381 88.0791 60.2981 87.8946 60.2889 87.7069C59.7297 84.28 59.0166 80.8799 58.1518 77.5172C59.3464 77.5668 60.5229 77.2127 61.4915 76.5118C62.3488 77.1502 63.3692 77.5333 64.4349 77.6167C63.8251 80.9434 63.8018 84.3511 64.3659 87.6858C64.4002 87.8862 64.5127 88.0647 64.6786 88.1821C64.8445 88.2996 65.0503 88.3463 65.2507 88.312C65.451 88.2777 65.6296 88.1653 65.747 87.9993C65.8644 87.8334 65.9112 87.6276 65.8769 87.4273C65.3308 84.1829 65.3677 80.8672 65.986 77.6359C69.5824 77.3276 71.3748 74.4934 70.5897 72.1188ZM53.8794 71.4121C55.0935 72.0192 55.6029 73.9016 55.9457 75.2306C55.2963 74.8317 54.7634 74.2687 54.4006 73.5984C54.0379 72.9281 53.8581 72.174 53.8794 71.4121ZM61.6428 74.2846C61.1476 73.2954 60.9973 72.1691 61.2158 71.0847C61.2823 70.9463 61.383 70.8271 61.5083 70.7384C61.6336 70.6496 61.7794 70.5941 61.932 70.5772C62.2728 70.5772 62.4184 71.0923 62.4682 71.4313C62.5252 71.9378 62.4816 72.4506 62.34 72.9402C62.1983 73.4299 61.9614 73.8868 61.6428 74.2846ZM66.3346 76.0847C66.5261 75.3187 66.752 74.5738 67.0105 73.8289C67.2901 73.0495 67.6865 72.0288 68.5234 72.0288C69.6015 72.0288 69.8409 75.4758 66.3346 76.0847ZM56.5432 92.4388H67.788C67.9404 92.4388 68.0865 92.3783 68.1943 92.2706C68.302 92.1628 68.3625 92.0167 68.3625 91.8643C68.3625 91.712 68.302 91.5658 68.1943 91.4581C68.0865 91.3504 67.9404 91.2898 67.788 91.2898H56.5432C56.3908 91.2898 56.2447 91.3504 56.1369 91.4581C56.0292 91.5658 55.9687 91.712 55.9687 91.8643C55.9687 92.0167 56.0292 92.1628 56.1369 92.2706C56.2447 92.3783 56.3908 92.4388 56.5432 92.4388ZM56.5432 95.4913H67.788C67.9404 95.4913 68.0865 95.4308 68.1943 95.3231C68.302 95.2153 68.3625 95.0692 68.3625 94.9168C68.3625 94.7645 68.302 94.6183 68.1943 94.5106C68.0865 94.4029 67.9404 94.3423 67.788 94.3423H56.5432C56.3908 94.3423 56.2447 94.4029 56.1369 94.5106C56.0292 94.6183 55.9687 94.7645 55.9687 94.9168C55.9687 95.0692 56.0292 95.2153 56.1369 95.3231C56.2447 95.4308 56.3908 95.4913 56.5432 95.4913ZM199.425 41.4175C199.446 41.7963 199.372 42.1742 199.211 42.5177C199.05 42.8611 198.806 43.1594 198.502 43.3858C198.198 43.6122 197.842 43.7598 197.467 43.8153C197.092 43.8708 196.708 43.8326 196.352 43.704C196.01 43.5573 195.704 43.3372 195.456 43.0593C195.209 42.7814 195.025 42.4525 194.919 42.0959C194.813 41.7392 194.786 41.3636 194.841 40.9955C194.896 40.6275 195.031 40.276 195.237 39.9659C195.543 39.5919 195.957 39.3208 196.422 39.1892C196.887 39.0577 197.381 39.072 197.838 39.2303C198.294 39.3886 198.691 39.6832 198.975 40.0743C199.259 40.4654 199.416 40.9343 199.425 41.4175C199.463 42.3922 200.994 42.4075 200.957 41.4175C200.96 40.5221 200.65 39.654 200.081 38.9628C199.512 38.2716 198.719 37.8008 197.84 37.6317C196.961 37.4626 196.05 37.6057 195.265 38.0364C194.48 38.4671 193.87 39.1584 193.54 39.9908C193.339 40.5393 193.26 41.1254 193.309 41.7077C193.358 42.29 193.534 42.8545 193.825 43.3614C194.116 43.8683 194.514 44.3053 194.992 44.6418C195.47 44.9782 196.016 45.2059 196.591 45.3088C197.143 45.39 197.706 45.3492 198.24 45.1892C198.774 45.0293 199.267 44.7541 199.683 44.383C200.099 44.012 200.429 43.5541 200.649 43.0417C200.87 42.5293 200.975 41.9749 200.957 41.4175C200.957 41.2143 200.876 41.0195 200.733 40.8758C200.589 40.7322 200.394 40.6515 200.191 40.6515C199.988 40.6515 199.793 40.7322 199.649 40.8758C199.506 41.0195 199.425 41.2143 199.425 41.4175Z" fill="#29175F"/>
<path d="M214.945 41.4178C214.974 41.8327 214.916 42.2491 214.773 42.6399C214.631 43.0307 214.409 43.3873 214.12 43.6864C213.831 43.9855 213.482 44.2204 213.096 44.3759C212.71 44.5315 212.296 44.6041 211.881 44.5891C211.43 44.5834 210.986 44.4803 210.58 44.287C210.173 44.0936 209.813 43.8146 209.524 43.469C209.235 43.1233 209.024 42.7193 208.906 42.2846C208.788 41.8499 208.765 41.3948 208.84 40.9506C208.932 40.1651 209.325 39.4458 209.936 38.9432C210.546 38.4406 211.328 38.1937 212.116 38.2541C212.905 38.3144 213.64 38.6774 214.167 39.2671C214.694 39.8567 214.973 40.6274 214.945 41.4178Z" fill="#4355E6"/>
<path d="M212.48 37.6106C211.613 37.4496 210.717 37.6008 209.95 38.0376C209.184 38.4744 208.597 39.1685 208.294 39.9967C208.092 40.5453 208.013 41.1315 208.063 41.7139C208.112 42.2964 208.288 42.8609 208.579 43.3679C208.87 43.8748 209.269 44.3118 209.747 44.6482C210.225 44.9845 210.771 45.212 211.346 45.3146C211.886 45.3898 212.435 45.3491 212.958 45.1951C213.48 45.0411 213.964 44.7774 214.377 44.4216C214.789 44.0658 215.121 43.6261 215.35 43.1319C215.579 42.6377 215.7 42.1002 215.705 41.5555C215.728 40.6209 215.416 39.7088 214.824 38.9849C214.232 38.2611 213.401 37.7735 212.48 37.6106ZM211.107 43.7041C210.765 43.5575 210.459 43.3374 210.212 43.0595C209.964 42.7815 209.781 42.4525 209.675 42.0958C209.569 41.7391 209.542 41.3634 209.597 40.9953C209.653 40.6273 209.788 40.2759 209.994 39.9661C210.3 39.5917 210.714 39.3203 211.179 39.1885C211.644 39.0568 212.138 39.071 212.595 39.2294C213.051 39.3878 213.448 39.6826 213.732 40.0739C214.016 40.4653 214.172 40.9343 214.181 41.4176C214.201 41.7964 214.128 42.1744 213.967 42.5178C213.806 42.8613 213.562 43.1595 213.258 43.3859C212.953 43.6124 212.598 43.7599 212.222 43.8154C211.847 43.871 211.464 43.8327 211.107 43.7041ZM69.7782 103.852C67.3812 102.676 64.7343 102.101 62.0655 102.175C59.3966 102.25 56.7859 102.972 54.4582 104.279C51.5981 106.198 49.4253 108.98 48.2565 112.22C47.0877 115.46 46.9838 118.988 47.96 122.291C48.9363 125.594 50.9416 128.499 53.6839 130.583C56.4262 132.666 59.7622 133.82 63.2059 133.876C79.9679 133.543 83.5968 110.566 69.7782 103.852ZM65.6016 132.135C61.9205 132.811 58.1215 132.002 55.0353 129.885C51.9491 127.767 49.8268 124.514 49.1326 120.837C48.4955 118.049 48.6995 115.134 49.7187 112.462C50.7379 109.79 52.5265 107.48 54.8584 105.825C57.016 104.461 59.4997 103.7 62.0512 103.621C64.6026 103.543 67.1284 104.15 69.3656 105.379C71.6029 106.608 73.4698 108.414 74.772 110.61C76.0742 112.805 76.7641 115.31 76.7698 117.863C76.7258 124.749 72.6794 130.93 65.6016 132.135Z" fill="#29175F"/>
<path d="M54.1775 116.587C55.16 116.587 55.9565 115.791 55.9565 114.808C55.9565 113.826 55.16 113.029 54.1775 113.029C53.1949 113.029 52.3984 113.826 52.3984 114.808C52.3984 115.791 53.1949 116.587 54.1775 116.587Z" fill="#29175F"/>
<path d="M71.2165 116.836C72.1991 116.836 72.9956 116.04 72.9956 115.057C72.9956 114.075 72.1991 113.278 71.2165 113.278C70.234 113.278 69.4375 114.075 69.4375 115.057C69.4375 116.04 70.234 116.836 71.2165 116.836Z" fill="#29175F"/>
<path d="M68.1739 120.911C68.1284 122.298 67.5455 123.613 66.5483 124.578C65.5511 125.543 64.2178 126.083 62.8301 126.083C61.4424 126.083 60.1091 125.543 59.1119 124.578C58.1147 123.613 57.5318 122.298 57.4863 120.911C57.4365 119.936 55.9045 119.927 55.9543 120.911C55.9391 121.823 56.1055 122.729 56.444 123.576C56.7824 124.422 57.286 125.193 57.9254 125.844C58.5649 126.494 59.3274 127.01 60.1685 127.363C61.0096 127.715 61.9124 127.897 62.8244 127.897C63.7363 127.897 64.6392 127.715 65.4803 127.363C66.3214 127.01 67.0839 126.494 67.7233 125.844C68.3628 125.193 68.8664 124.422 69.2048 123.576C69.5432 122.729 69.7097 121.823 69.6944 120.911C69.7481 119.927 68.218 119.927 68.1739 120.911Z" fill="#29175F"/>
<circle cx="105.816" cy="68.7314" r="13" fill="#29175F"/>
<g clip-path="url(#clip1_3536_7837)">
<path d="M105.817 79.9982C112.04 79.9982 117.084 74.9539 117.084 68.7315C117.084 62.5091 112.04 57.4648 105.817 57.4648C99.595 57.4648 94.5508 62.5091 94.5508 68.7315C94.5508 74.9539 99.595 79.9982 105.817 79.9982Z" fill="#F0F0F0"/>
<path d="M105.324 68.7311H117.081C117.081 67.7142 116.945 66.7291 116.693 65.792H105.324V68.7311Z" fill="#D80027"/>
<path d="M105.324 62.8532H115.427C114.737 61.7278 113.856 60.733 112.827 59.9141H105.324V62.8532Z" fill="#D80027"/>
<path d="M105.818 79.9981C108.47 79.9981 110.907 79.0816 112.831 77.5488H98.8047C100.729 79.0816 103.166 79.9981 105.818 79.9981Z" fill="#D80027"/>
<path d="M96.203 74.61H115.429C115.983 73.7066 116.412 72.719 116.695 71.6709H94.9375C95.2199 72.719 95.6493 73.7066 96.203 74.61Z" fill="#D80027"/>
<path d="M99.7697 59.2243H100.796L99.8414 59.9181L100.206 61.0408L99.2512 60.347L98.2962 61.0408L98.6114 60.0709C97.7705 60.7713 97.0335 61.592 96.4262 62.5063H96.7551L96.1472 62.948C96.0525 63.106 95.9617 63.2665 95.8746 63.4294L96.1649 64.3228L95.6233 63.9293C95.4887 64.2145 95.3655 64.5062 95.2549 64.8039L95.5747 65.7884H96.7551L95.8001 66.4822L96.1649 67.6048L95.2099 66.911L94.6379 67.3267C94.5806 67.7869 94.5508 68.2557 94.5508 68.7315H105.817C105.817 62.5091 105.817 61.7756 105.817 57.4648C103.592 57.4648 101.517 58.1105 99.7697 59.2243ZM100.206 67.6048L99.2512 66.911L98.2962 67.6048L98.661 66.4822L97.706 65.7884H98.8865L99.2512 64.6657L99.616 65.7884H100.796L99.8414 66.4822L100.206 67.6048ZM99.8414 63.2001L100.206 64.3228L99.2512 63.629L98.2962 64.3228L98.661 63.2001L97.706 62.5063H98.8865L99.2512 61.3837L99.616 62.5063H100.796L99.8414 63.2001ZM104.248 67.6048L103.293 66.911L102.338 67.6048L102.702 66.4822L101.747 65.7884H102.928L103.293 64.6657L103.657 65.7884H104.838L103.883 66.4822L104.248 67.6048ZM103.883 63.2001L104.248 64.3228L103.293 63.629L102.338 64.3228L102.702 63.2001L101.747 62.5063H102.928L103.293 61.3837L103.657 62.5063H104.838L103.883 63.2001ZM103.883 59.9181L104.248 61.0408L103.293 60.347L102.338 61.0408L102.702 59.9181L101.747 59.2243H102.928L103.293 58.1016L103.657 59.2243H104.838L103.883 59.9181Z" fill="#0052B4"/>
<g clip-path="url(#clip2_3536_7837)">
<path d="M105.817 79.9982C112.04 79.9982 117.084 74.9539 117.084 68.7315C117.084 62.5091 112.04 57.4648 105.817 57.4648C99.595 57.4648 94.5508 62.5091 94.5508 68.7315C94.5508 74.9539 99.595 79.9982 105.817 79.9982Z" fill="#F0F0F0"/>
<path d="M116.693 65.7923C116.305 64.3506 115.637 63.0235 114.752 61.8721L110.832 65.7923H116.693Z" fill="#0052B4"/>
<path d="M112.674 59.7935C111.523 58.9085 110.196 58.2412 108.754 57.8525V63.7137L112.674 59.7935Z" fill="#0052B4"/>
<path d="M108.754 79.6092C110.196 79.2206 111.523 78.5532 112.674 77.6683L108.754 73.748V79.6092Z" fill="#0052B4"/>
<path d="M110.832 71.6699L114.752 75.5902C115.637 74.4388 116.305 73.1116 116.693 71.6699H110.832Z" fill="#0052B4"/>
<path d="M116.989 67.262H107.287H107.287V57.5602C106.806 57.4976 106.316 57.4648 105.817 57.4648C105.319 57.4648 104.829 57.4976 104.348 57.5602V67.2619V67.2619H94.6462C94.5835 67.743 94.5508 68.2334 94.5508 68.7315C94.5508 69.2297 94.5835 69.72 94.6462 70.2011H104.348H104.348V79.9028C104.829 79.9654 105.319 79.9982 105.817 79.9982C106.316 79.9982 106.806 79.9655 107.287 79.9028V70.2011V70.2011H116.989C117.051 69.72 117.084 69.2297 117.084 68.7315C117.084 68.2334 117.051 67.743 116.989 67.262Z" fill="#D80027"/>
<path d="M108.758 71.6709L113.785 76.6985C114.017 76.4674 114.237 76.2257 114.448 75.9752L110.143 71.6709H108.758V71.6709Z" fill="#D80027"/>
<path d="M108.758 65.7924L113.785 60.7648C113.554 60.5335 113.313 60.313 113.062 60.1025L108.758 64.4069V65.7924Z" fill="#D80027"/>
</g>
</g>
<circle cx="105.816" cy="104" r="13" fill="#29175F"/>
<g clip-path="url(#clip3_3536_7837)">
<path d="M95.25 107.919C96.8419 112.209 100.972 115.267 105.816 115.267C110.66 115.267 114.79 112.209 116.382 107.919L105.816 106.939L95.25 107.919Z" fill="#FFDA44"/>
<path d="M105.816 92.7334C100.972 92.7334 96.8419 95.7909 95.25 100.081L105.816 101.061L116.382 100.081C114.79 95.7909 110.66 92.7334 105.816 92.7334Z" fill="black"/>
<path d="M95.2516 100.081C94.7987 101.302 94.5508 102.622 94.5508 104C94.5508 105.378 94.7987 106.698 95.2516 107.919H116.383C116.836 106.698 117.084 105.378 117.084 104C117.084 102.622 116.836 101.302 116.383 100.081H95.2516Z" fill="#D80027"/>
</g>
<path d="M203.083 76.0351C203.328 76.2507 203.637 76.3793 203.963 76.4008C204.288 76.4223 204.612 76.3354 204.883 76.1538C210.18 72.5785 219.054 68.8117 219.268 60.9544C219.335 59.0855 218.793 57.2455 217.724 55.7109C216.655 54.1763 215.117 53.03 213.341 52.4442C212.005 52.1073 210.603 52.1243 209.275 52.4937C207.947 52.8631 206.738 53.572 205.768 54.5507C205.627 54.7156 205.451 54.8471 205.252 54.9357C205.054 55.0244 204.839 55.0679 204.622 55.0631C204.405 55.0583 204.192 55.0054 203.998 54.9082C203.804 54.811 203.634 54.6718 203.5 54.5009C202.515 53.0266 201.067 51.9215 199.386 51.3592C197.704 50.7969 195.883 50.8092 194.209 51.3943C192.535 51.9793 191.103 53.1039 190.137 54.5913C189.172 56.0788 188.728 57.8449 188.875 59.612C188.927 61.5156 189.4 63.3839 190.261 65.0824C191.122 66.7809 192.35 68.2672 193.854 69.434C196.491 71.6018 200.404 73.7141 203.083 76.0351Z" fill="#FE6B21"/>
<path d="M265.991 127.782C266.166 127.883 266.375 127.91 266.57 127.857C266.766 127.805 266.933 127.677 267.035 127.502C268.195 125.205 269.641 123.063 271.339 121.129C271.512 121.274 271.694 121.408 271.885 121.527C270.196 126.518 269.499 132.355 268.176 137.305C266.395 143.962 262.172 161.792 263.076 168.631C263.475 171.664 265.294 173.939 266.774 176.574C267.59 178.016 270.723 185.284 272.78 185.561C275.016 185.86 279.501 175.073 280.305 173.263C281.669 170.874 282.646 168.284 283.199 165.59C283.448 162.369 281.757 158.73 281.092 155.618C279.752 149.299 279.177 142.788 278.459 136.371C277.86 131.06 278.134 124.718 275.307 121.388C275.408 121.3 275.505 121.207 275.596 121.11C277.305 123.047 278.759 125.195 279.921 127.502C280.025 127.674 280.192 127.799 280.386 127.852C280.581 127.904 280.788 127.879 280.964 127.782C286.066 124.899 290.727 121.296 294.802 117.085C294.919 116.964 294.994 116.809 295.015 116.642C295.036 116.475 295.003 116.306 294.921 116.16C293.389 113.684 290.825 109.289 287.406 109.538C284.399 109.887 281.453 110.639 278.647 111.774C275.212 111.373 271.741 111.373 268.306 111.774C265.506 110.63 262.562 109.878 259.556 109.538C256.127 109.289 253.584 113.674 252.042 116.16C251.959 116.306 251.926 116.475 251.948 116.642C251.969 116.809 252.044 116.964 252.161 117.085C256.234 121.295 260.892 124.898 265.991 127.782ZM293.299 116.428C289.6 120.169 285.425 123.407 280.882 126.06C279.713 123.825 278.247 121.758 276.523 119.917C277.685 117.789 278.66 115.563 279.436 113.266C280.925 112.789 282.423 112.342 283.931 111.926C288.888 110.556 290.512 111.937 293.303 116.432L293.299 116.428ZM267.102 113.126C267.385 115.733 268.497 118.18 270.275 120.107C268.622 121.899 267.211 123.901 266.079 126.06C261.533 123.416 257.357 120.18 253.662 116.437C257.756 109.888 259.671 110.775 267.105 113.126H267.102ZM196.333 107.898C196.308 107.801 196.263 107.709 196.202 107.629C196.141 107.549 196.065 107.482 195.978 107.432C195.891 107.382 195.794 107.35 195.694 107.337C195.594 107.325 195.493 107.333 195.396 107.36C188.1 109.067 180.807 110.764 173.517 112.45C173.325 112.507 173.161 112.636 173.061 112.81C172.961 112.984 172.932 113.19 172.979 113.385C173.438 116.368 173.898 119.355 174.362 122.343C174.416 122.538 174.544 122.703 174.719 122.803C174.894 122.904 175.101 122.931 175.296 122.879C182.713 120.533 190.126 118.19 197.535 115.851C197.727 115.793 197.889 115.664 197.989 115.491C198.089 115.317 198.118 115.112 198.072 114.917C197.495 112.581 196.898 110.246 196.333 107.898ZM195.04 109.011C195.507 110.88 195.965 112.74 196.43 114.609C189.521 116.787 182.616 118.967 175.714 121.15C175.331 118.684 174.957 116.229 174.58 113.764C181.4 112.192 188.22 110.608 195.04 109.011ZM345.825 201.841C341.674 192.785 342.018 192.957 341.49 192.873C341.042 192.714 342.428 191.915 318.962 208.719C318.863 208.781 318.78 208.863 318.717 208.961C318.655 209.058 318.614 209.168 318.599 209.283C318.584 209.398 318.594 209.515 318.63 209.625C318.665 209.736 318.724 209.837 318.803 209.922C319.552 210.874 320.499 211.653 321.579 212.204C322.658 212.755 323.844 213.066 325.055 213.114C332.056 212.731 340.632 207.781 345.695 202.773C345.817 202.655 345.897 202.498 345.92 202.329C345.944 202.16 345.911 201.988 345.825 201.841ZM327.851 211.165C326.596 211.604 325.242 211.679 323.945 211.382C322.649 211.085 321.463 210.427 320.524 209.485L340.994 194.801C342.078 197.218 343.171 199.623 344.249 202.04C339.641 206.42 333.997 209.558 327.845 211.161L327.851 211.165ZM309.557 160.251C309.05 176.674 307.868 213.647 307.797 215.705H239.34C239.137 215.705 238.942 215.786 238.798 215.93C238.654 216.073 238.574 216.268 238.574 216.471C238.574 216.674 238.654 216.869 238.798 217.013C238.942 217.157 239.137 217.237 239.34 217.237H308.534C308.736 217.233 308.929 217.151 309.071 217.008C309.214 216.865 309.296 216.673 309.3 216.471C309.818 200.046 311.011 162.568 311.08 160.251C311.118 159.266 309.588 159.266 309.557 160.251ZM184.352 86.9005C183.476 87.6102 182.886 88.6137 182.692 89.7251C182.514 88.7312 182.275 87.8101 182.106 87.1303C181.876 86.1728 180.406 86.5826 180.634 87.5381C180.904 88.6699 182.125 94.5853 179.979 94.526C177.512 92.0614 177.095 87.8656 177.298 84.5354C177.357 83.5511 175.827 83.5607 175.766 84.5354C175.362 88.0972 176.189 91.6899 178.111 94.7156C178.079 94.7946 178.062 94.8791 178.062 94.9645C177.981 96.6631 177.068 97.9864 175.268 97.7566C174.293 97.6379 174.31 99.1699 175.268 99.2886C175.763 99.3496 176.265 99.3115 176.744 99.1766C177.224 99.0416 177.673 98.8125 178.063 98.5025C178.454 98.1926 178.779 97.808 179.019 97.3712C179.259 96.9344 179.411 96.4542 179.463 95.9584C180.804 95.9584 181.005 95.9182 181.522 95.5601C182.499 94.8917 181.714 94.1487 181.89 100.292C181.918 101.276 183.45 101.276 183.422 100.292C183.236 97.0114 183.497 93.7206 184.197 90.5102C184.427 89.5853 185.073 86.8411 186.624 88.8901C186.874 89.5683 187.008 90.2836 187.022 91.0062C187.468 93.7408 187.748 96.5042 188.004 99.2675C188.094 100.242 189.626 100.242 189.536 99.2675C189.333 97.4483 189.263 83.6641 184.352 86.9005ZM283.3 349.43C283.539 349.429 283.772 349.5 283.97 349.632C284.169 349.764 284.324 349.952 284.415 350.172C284.506 350.393 284.53 350.635 284.484 350.869C284.437 351.103 284.323 351.317 284.154 351.486C283.986 351.655 283.771 351.769 283.537 351.816C283.303 351.862 283.061 351.838 282.841 351.747C282.62 351.655 282.432 351.501 282.3 351.302C282.168 351.104 282.098 350.871 282.098 350.632C282.098 350.314 282.225 350.008 282.451 349.783C282.676 349.557 282.982 349.43 283.3 349.43Z" fill="#29175F"/>
<path d="M286.434 140.078C286.339 140.088 286.249 140.121 286.169 140.173C286.09 140.225 286.023 140.295 285.976 140.377C285.185 140.76 285.442 141.143 286.464 155.559C286.467 155.725 286.522 155.885 286.622 156.018C286.722 156.15 286.861 156.247 287.02 156.294C294.756 157.964 294.249 158.183 295.739 158.192C296.65 158.192 296.585 158.026 302.539 155.071C302.655 155.005 302.752 154.91 302.819 154.795C302.886 154.68 302.922 154.549 302.922 154.416C302.962 151.214 303.012 148.022 303.052 144.822C303.257 143.818 303.175 142.777 302.815 141.818C302.454 140.859 301.83 140.022 301.014 139.402C299.245 138.617 296.392 139.165 294.504 139.243C291.798 139.346 289.103 139.625 286.434 140.078ZM295.957 156.702C295.35 156.639 297.908 157.135 287.945 154.952L287.37 146.7C289.804 148.248 293.667 146.107 298.477 146.472C299.483 146.644 300.511 146.648 301.518 146.482C301.499 147.853 301.48 149.226 301.468 150.588C301.286 151.702 301.253 152.835 301.369 153.958C300.902 154.167 300.447 154.402 300.007 154.663C298.605 155.234 297.251 155.916 295.957 156.702ZM300.888 141.262C301.524 141.93 301.922 144.444 300.988 145.009C300.312 145.427 298.751 144.931 298.006 144.891C291.461 144.582 286.685 148.412 287.056 141.518C290.108 141.026 293.192 140.758 296.283 140.714C297.439 140.695 299.963 140.289 300.888 141.262Z" fill="#29175F"/>
<defs>
<clipPath id="clip0_3536_7837">
<rect width="22.5333" height="22.5333" fill="white" transform="translate(94.5508 127.733)"/>
</clipPath>
<clipPath id="clip1_3536_7837">
<rect width="22.5333" height="22.5333" fill="white" transform="translate(94.5508 57.4648)"/>
</clipPath>
<clipPath id="clip2_3536_7837">
<rect width="11.2667" height="22.5333" fill="white" transform="translate(105.816 57.4648)"/>
</clipPath>
<clipPath id="clip3_3536_7837">
<rect width="22.5333" height="22.5333" fill="white" transform="translate(94.5508 92.7334)"/>
</clipPath>
</defs>
</svg>
