<svg width="1043" height="2555" viewBox="0 0 1043 2555" fill="none" xmlns="http://www.w3.org/2000/svg">
<path d="M-683.631 763.325C-533.961 640.057 -324.631 708.679 -334.698 913.319C-347.281 1169.12 -508.268 1424.34 -169.632 1383.67C169.004 1343 243.489 1520.52 183.272 1653.18C135.098 1759.3 -14.2834 1904.59 -82.9525 1963.98" stroke="url(#paint0_linear_3536_8936)" stroke-width="2" stroke-dasharray="14 14"/>
<g clip-path="url(#clip0_3536_8936)">
<path d="M150.429 1522.71L148.455 1536.05L142.979 1532.64C142.01 1532.03 140.838 1531.85 139.718 1532.12C138.599 1532.39 137.624 1533.09 137.01 1534.08L119.623 1561.98C119.008 1562.97 118.803 1564.15 119.053 1565.28C119.303 1566.4 119.987 1567.37 120.956 1567.97L146.512 1583.9C147.481 1584.5 148.654 1584.69 149.773 1584.42C150.892 1584.15 151.867 1583.44 152.482 1582.46L169.868 1554.56C170.483 1553.57 170.688 1552.39 170.438 1551.26C170.188 1550.14 169.504 1549.17 168.536 1548.56L163.059 1545.15L174.16 1537.5C174.443 1537.29 174.672 1537.01 174.824 1536.68C174.976 1536.36 175.049 1536.01 175.035 1535.65C175.021 1535.3 174.922 1534.95 174.745 1534.65C174.568 1534.34 174.32 1534.09 174.021 1533.91L153.721 1521.25C153.425 1521.07 153.087 1520.96 152.735 1520.93C152.384 1520.91 152.031 1520.97 151.707 1521.11C151.382 1521.26 151.096 1521.48 150.873 1521.76C150.651 1522.04 150.498 1522.37 150.429 1522.71Z" stroke="url(#paint1_linear_3536_8936)" stroke-width="1.71429" stroke-linecap="round" stroke-linejoin="round"/>
</g>
<g clip-path="url(#clip1_3536_8936)">
<path d="M299.074 1566.52L318.793 1551.33" stroke="url(#paint2_linear_3536_8936)" stroke-width="1.71429" stroke-linecap="round" stroke-linejoin="round"/>
<path d="M256.135 1559.62C250.025 1559.83 246.969 1559.43 243.261 1555.68C239.747 1552.12 238.794 1546.4 240.46 1541.82C242.777 1535.44 250.25 1534 256.203 1535.5C262.655 1537.12 274.694 1546.91 278.863 1551.87C283.597 1557.51 286.547 1563.67 287.547 1570.97C288.233 1575.97 288.448 1582.33 285.604 1586.73C283.026 1590.72 278.812 1593.22 274.823 1589.52C269.933 1584.98 268.432 1578.05 267.749 1571.72C266.843 1563.31 267.613 1555.19 271.59 1547.71C273.68 1543.79 278.524 1536.43 285.295 1537.15C291.748 1537.84 295.163 1549.35 296.844 1549.3C298.524 1549.24 294.763 1535.35 300.828 1532.43C302.519 1531.61 305.516 1531.33 305.516 1531.33" stroke="url(#paint3_linear_3536_8936)" stroke-width="1.71429" stroke-linecap="round"/>
</g>
<g clip-path="url(#clip2_3536_8936)">
<path d="M343.852 1578.79L333.051 1587.11C330.494 1589.08 330.019 1592.75 331.989 1595.31L340.312 1606.11C342.283 1608.67 345.952 1609.14 348.509 1607.17L359.31 1598.85C361.867 1596.88 362.342 1593.21 360.372 1590.65L352.049 1579.85C350.079 1577.29 346.409 1576.82 343.852 1578.79Z" stroke="url(#paint4_linear_3536_8936)" stroke-width="1.71429" stroke-linecap="round" stroke-linejoin="round"/>
<path d="M341.548 1596.55L342.016 1587.58L350.807 1589.41" stroke="url(#paint5_linear_3536_8936)" stroke-width="1.71429" stroke-linecap="round" stroke-linejoin="round"/>
<path d="M342.02 1587.58L350.343 1598.38" stroke="url(#paint6_linear_3536_8936)" stroke-width="1.71429" stroke-linecap="round" stroke-linejoin="round"/>
</g>
<g clip-path="url(#clip3_3536_8936)">
<path d="M250.555 1624.25L273.442 1639.5" stroke="url(#paint7_linear_3536_8936)" stroke-width="1.71429" stroke-linecap="round" stroke-linejoin="round"/>
<path d="M270.508 1643.9L276.375 1635.1" stroke="url(#paint8_linear_3536_8936)" stroke-width="1.71429" stroke-linecap="round" stroke-linejoin="round"/>
<path d="M248.503 1636.86L245.862 1635.1C245.395 1634.79 245.071 1634.31 244.961 1633.76C244.851 1633.21 244.964 1632.64 245.275 1632.17L255.836 1616.32C256.147 1615.86 256.631 1615.53 257.181 1615.42C257.732 1615.31 258.303 1615.43 258.77 1615.74L261.411 1617.5" stroke="url(#paint9_linear_3536_8936)" stroke-width="1.71429" stroke-linecap="round" stroke-linejoin="round"/>
</g>
<defs>
<linearGradient id="paint0_linear_3536_8936" x1="26.1206" y1="1902.58" x2="317.806" y2="1697.41" gradientUnits="userSpaceOnUse">
<stop stop-color="#4C60E9"/>
<stop offset="1" stop-color="#7485FF"/>
</linearGradient>
<linearGradient id="paint1_linear_3536_8936" x1="158.033" y1="1573.55" x2="172.706" y2="1534.44" gradientUnits="userSpaceOnUse">
<stop stop-color="#4C60E9"/>
<stop offset="1" stop-color="#7485FF"/>
</linearGradient>
<linearGradient id="paint2_linear_3536_8936" x1="304.833" y1="1563.35" x2="302.932" y2="1558.45" gradientUnits="userSpaceOnUse">
<stop stop-color="#4C60E9"/>
<stop offset="1" stop-color="#7485FF"/>
</linearGradient>
<linearGradient id="paint3_linear_3536_8936" x1="287.742" y1="1586.06" x2="321.262" y2="1552.23" gradientUnits="userSpaceOnUse">
<stop stop-color="#4C60E9"/>
<stop offset="1" stop-color="#7485FF"/>
</linearGradient>
<linearGradient id="paint4_linear_3536_8936" x1="349.117" y1="1606.7" x2="362.292" y2="1593.35" gradientUnits="userSpaceOnUse">
<stop stop-color="#4C60E9"/>
<stop offset="1" stop-color="#7485FF"/>
</linearGradient>
<linearGradient id="paint5_linear_3536_8936" x1="343.966" y1="1594.68" x2="349.345" y2="1588.09" gradientUnits="userSpaceOnUse">
<stop stop-color="#4C60E9"/>
<stop offset="1" stop-color="#7485FF"/>
</linearGradient>
<linearGradient id="paint6_linear_3536_8936" x1="350.55" y1="1598.22" x2="351.137" y2="1597.76" gradientUnits="userSpaceOnUse">
<stop stop-color="#4C60E9"/>
<stop offset="1" stop-color="#7485FF"/>
</linearGradient>
<linearGradient id="paint7_linear_3536_8936" x1="273.587" y1="1639.28" x2="273.999" y2="1638.66" gradientUnits="userSpaceOnUse">
<stop stop-color="#4C60E9"/>
<stop offset="1" stop-color="#7485FF"/>
</linearGradient>
<linearGradient id="paint8_linear_3536_8936" x1="272.872" y1="1642.16" x2="271.213" y2="1637.97" gradientUnits="userSpaceOnUse">
<stop stop-color="#4C60E9"/>
<stop offset="1" stop-color="#7485FF"/>
</linearGradient>
<linearGradient id="paint9_linear_3536_8936" x1="251.873" y1="1631.81" x2="252.571" y2="1616.91" gradientUnits="userSpaceOnUse">
<stop stop-color="#4C60E9"/>
<stop offset="1" stop-color="#7485FF"/>
</linearGradient>
<clipPath id="clip0_3536_8936">
<rect width="61.3633" height="60.2269" fill="white" transform="translate(107.02 1561.87) rotate(-58.0688)"/>
</clipPath>
<clipPath id="clip1_3536_8936">
<rect width="69.3178" height="70.4541" fill="white" transform="translate(230.98 1544.03) rotate(-37.6172)"/>
</clipPath>
<clipPath id="clip2_3536_8936">
<rect width="27.2726" height="27.2726" fill="white" transform="translate(327.055 1590.5) rotate(-37.6172)"/>
</clipPath>
<clipPath id="clip3_3536_8936">
<rect width="29.6212" height="29.6212" fill="white" transform="translate(241.461 1635.98) rotate(-56.3163)"/>
</clipPath>
</defs>
</svg>
