<svg width="976" height="1720" viewBox="0 0 976 1720" fill="none" xmlns="http://www.w3.org/2000/svg">
<g filter="url(#filter0_d_3536_6769)">
<path d="M871.554 870.676C878.587 867.961 885.422 864.728 892.011 861.001C892.368 860.826 892.645 860.512 892.786 860.124C892.926 859.737 892.92 859.305 892.768 858.918C891.508 855.273 880.041 826.171 878.375 825.959C877.474 825.268 864.634 833.56 849.941 836.987C850.484 835.653 850.58 834.159 850.212 832.746C849.845 831.334 849.036 830.086 847.916 829.206C847.047 828.555 846.042 828.135 844.99 827.982C843.938 827.829 842.87 827.947 841.879 828.327C840.888 828.707 840.004 829.337 839.304 830.162C838.603 830.987 838.107 831.983 837.859 833.062C837.494 834.178 837.407 835.378 837.606 836.547C837.805 837.717 838.283 838.819 838.996 839.748C839.775 840.467 840.706 840.978 841.708 841.237C842.711 841.495 843.755 841.494 844.749 841.232C853.324 839.762 861.659 837.106 869.54 833.333L881.157 863.063C874.647 866.145 863.21 871.432 856.032 871.39C857.131 869.66 857.604 867.566 857.366 865.482C857.128 863.398 856.195 861.46 854.732 860.014C853.898 859.125 852.845 858.498 851.696 858.205C850.547 857.911 849.347 857.962 848.233 858.353C847.12 858.743 846.139 859.457 845.402 860.413C844.665 861.369 844.202 862.527 844.066 863.756C842.348 876.175 857.089 876.207 871.554 870.676ZM843.022 831.185C843.786 830.912 844.623 830.938 845.379 831.259C846.135 831.579 846.76 832.173 847.141 832.931C848.298 835.171 846.75 838.48 842.603 838.164C839.014 837.88 840.627 832.183 843.022 831.185ZM872.276 832.083L877.107 829.818C881.816 839.199 885.955 848.878 889.5 858.795C887.642 859.832 885.766 860.873 883.851 861.8C880.019 851.897 876.16 841.991 872.276 832.083ZM847.056 864.024C848.194 857.76 858.365 863.06 852.732 871.042C848.355 869.946 846.548 866.813 847.056 864.024ZM730.434 805.923C737.468 803.208 744.305 799.974 750.894 796.244C751.25 796.068 751.527 795.754 751.667 795.367C751.808 794.98 751.802 794.548 751.651 794.161C750.342 790.434 738.921 761.415 737.257 761.198C736.403 760.557 723.464 768.791 708.826 772.249C709.369 770.916 709.464 769.422 709.097 768.01C708.729 766.598 707.921 765.351 706.802 764.471C705.933 763.82 704.928 763.399 703.876 763.245C702.824 763.091 701.756 763.21 700.764 763.59C699.773 763.97 698.889 764.6 698.188 765.426C697.488 766.252 696.992 767.248 696.745 768.328C696.379 769.443 696.291 770.641 696.49 771.811C696.688 772.98 697.166 774.081 697.878 775.01C698.658 775.729 699.59 776.24 700.593 776.499C701.596 776.758 702.64 776.757 703.635 776.497C712.21 775.026 720.545 772.368 728.426 768.594L740.043 798.329C733.48 801.425 722.1 806.697 714.918 806.652C721.125 794.411 704.483 787.989 702.944 799.015C701.228 811.399 716.077 811.427 730.434 805.923ZM701.885 766.462C702.648 766.188 703.484 766.214 704.24 766.535C704.995 766.855 705.62 767.449 706 768.208C707.17 770.465 705.587 773.764 701.461 773.437C697.896 773.142 699.506 767.445 701.885 766.462ZM731.156 767.353L735.987 765.091C740.695 774.473 744.834 784.152 748.38 794.069C746.522 795.106 744.643 796.128 742.731 797.074C738.876 787.146 735.018 777.244 731.156 767.353ZM705.936 799.297C707.072 793.095 717.241 798.33 711.612 806.315C707.214 805.204 705.426 802.072 705.936 799.297ZM766.257 878.077C766.349 876.915 751.959 871.853 739.568 862.11C740.949 861.64 742.124 860.678 742.892 859.387C743.66 858.097 743.972 856.559 743.776 855.037C743.403 853.422 742.517 851.983 741.266 850.956C740.015 849.93 738.475 849.38 736.9 849.397C735.325 849.414 733.812 849.997 732.61 851.049C731.409 852.101 730.593 853.559 730.297 855.181C730.043 858.021 732.395 860.087 734.253 861.726C740.666 867.158 747.664 871.773 755.095 875.473C750.442 884.871 745.79 894.277 741.137 903.692C734.469 900.347 723.424 894.669 718.55 888.852C731.258 886.147 725.339 869.556 716.851 874.002C708.57 878.346 711.103 889.975 729.347 900.847C735.967 904.773 742.831 908.217 749.89 911.152C750.196 911.283 750.533 911.304 750.848 911.213C751.163 911.122 751.439 910.923 751.634 910.648C754.721 904.912 766.985 879.599 766.257 878.077ZM739.111 852.839C739.85 853.278 740.409 853.99 740.679 854.834C740.948 855.678 740.908 856.593 740.566 857.398C739.651 859.516 736.619 860.484 733.978 857.213C731.585 854.123 736.627 851.517 739.111 852.839ZM722.526 878.627C724.287 882.965 720.244 885.644 716.618 885.929C712.842 878.127 720.464 873.478 722.526 878.627ZM757.776 876.878C759.376 877.705 760.991 878.506 762.606 879.308C758.906 889.043 754.616 898.511 749.764 907.655C747.791 906.822 745.818 905.948 743.845 905.031C748.497 895.68 753.132 886.289 757.776 876.878ZM922.1 611.706C919.819 611.113 917.421 611.463 915.406 612.685C915.199 612.772 915.015 612.91 914.868 613.086C914.722 613.262 914.617 613.473 914.563 613.701C914.508 613.928 914.505 614.167 914.554 614.398C914.603 614.629 914.702 614.846 914.844 615.031C914.346 616.054 914.116 617.202 914.179 618.357C914.242 619.513 914.595 620.635 915.202 621.609C915.808 622.583 916.647 623.374 917.633 623.903C918.619 624.431 919.717 624.678 920.814 624.617C922.275 624.512 923.648 623.874 924.695 622.812C925.742 621.75 926.399 620.332 926.551 618.802C926.703 617.271 926.342 615.725 925.529 614.43C924.717 613.134 923.504 612.171 922.1 611.706ZM920.703 621.42C920.248 621.464 919.788 621.407 919.352 621.253C918.916 621.1 918.514 620.852 918.172 620.527C917.83 620.202 917.555 619.807 917.365 619.366C917.175 618.926 917.074 618.449 917.068 617.968C917.063 617.487 917.153 617.011 917.333 616.572C917.513 616.132 917.778 615.738 918.113 615.416C918.448 615.093 918.844 614.848 919.276 614.697C919.709 614.545 920.168 614.491 920.624 614.538C921.443 614.616 922.21 615.014 922.773 615.653C923.335 616.292 923.653 617.125 923.663 617.99C923.673 618.854 923.374 619.686 922.827 620.321C922.279 620.957 921.521 621.347 920.703 621.42ZM915.019 656.281C914.216 656.919 913.563 657.741 913.108 658.685C912.653 659.63 912.407 660.673 912.388 661.738C912.369 662.803 912.578 663.862 913 664.838C913.421 665.813 914.044 666.68 914.823 667.374C915.896 668.443 917.31 669.047 918.776 669.064C920.243 669.081 921.652 668.509 922.717 667.465C923.45 666.697 924.016 665.771 924.377 664.749C924.738 663.727 924.886 662.632 924.81 661.538C924.734 660.444 924.436 659.376 923.937 658.406C923.438 657.437 922.748 656.587 921.915 655.916C921.946 655.675 921.923 655.429 921.847 655.198C921.771 654.966 921.644 654.756 921.478 654.585C921.311 654.413 921.109 654.284 920.887 654.209C920.666 654.134 920.432 654.114 920.203 654.151C919.878 654.164 919.554 654.198 919.233 654.251C918.145 653.764 916.996 653.449 915.825 653.317C915.481 653.287 915.14 653.383 914.858 653.587C914.576 653.791 914.371 654.091 914.277 654.438C914.183 654.785 914.205 655.157 914.34 655.492C914.475 655.828 914.714 656.106 915.019 656.281ZM921.621 660.712L921.65 660.792C922.517 664.012 919.898 667.329 917.233 665.382C913.982 663.039 915.31 658.796 918.93 657.578C920.169 658.23 921.132 659.351 921.621 660.712Z" fill="url(#paint0_linear_3536_6769)"/>
<path d="M855.05 1611.45C709.408 1522.55 461.385 1332.1 634.431 1281.47C850.738 1218.17 1109.35 1278.44 977.9 1008.61C846.449 738.785 984.029 693.018 1100.23 637.489C1238.91 571.213 1299.5 452.634 1153.86 403.797C885.684 383.874 882.9 375.612 776.652 149.796" stroke="url(#paint1_linear_3536_6769)" stroke-width="2" stroke-dasharray="14 14"/>
<path d="M745.226 1221.24C745.101 1220.88 745.122 1220.49 745.282 1220.16C745.443 1219.84 745.731 1219.59 746.082 1219.49L759.846 1215.33C760.198 1215.23 760.584 1215.27 760.921 1215.45C761.258 1215.62 761.517 1215.93 761.641 1216.28C761.766 1216.64 761.745 1217.03 761.584 1217.36C761.424 1217.69 761.136 1217.93 760.784 1218.04L746.968 1222.2C746.621 1222.29 746.245 1222.24 745.92 1222.06C745.596 1221.88 745.347 1221.59 745.226 1221.24Z" fill="url(#paint2_linear_3536_6769)"/>
<path d="M765.712 1215C765.16 1213.4 765.256 1211.68 765.966 1210.23C766.674 1208.78 767.935 1207.72 769.465 1207.25L792.441 1200.32C793.971 1199.86 795.661 1200.04 797.144 1200.82C798.629 1201.61 799.783 1202.95 800.338 1204.55C800.893 1206.15 800.799 1207.86 800.091 1209.31C799.384 1210.75 798.123 1211.82 796.596 1212.28L773.581 1219.22C772.056 1219.67 770.373 1219.49 768.897 1218.71C767.419 1217.92 766.269 1216.59 765.712 1215Z" stroke="url(#paint3_linear_3536_6769)" stroke-width="3"/>
<path d="M758.991 1217.09C757.791 1213.62 757.99 1209.88 759.544 1206.71C761.099 1203.53 763.883 1201.17 767.285 1200.14L778.131 1196.86C778.483 1196.76 778.869 1196.8 779.206 1196.98C779.543 1197.15 779.802 1197.46 779.926 1197.81C780.051 1198.17 780.03 1198.56 779.87 1198.89C779.709 1199.21 779.421 1199.46 779.069 1199.56L768.276 1202.82C766.891 1203.18 765.608 1203.83 764.504 1204.71C763.399 1205.59 762.495 1206.7 761.847 1207.97C761.198 1209.23 760.818 1210.63 760.728 1212.07C760.639 1213.52 760.842 1214.98 761.327 1216.37C761.811 1217.77 762.566 1219.06 763.546 1220.19C764.527 1221.31 765.713 1222.23 767.034 1222.9C768.355 1223.57 769.783 1223.98 771.234 1224.09C772.685 1224.2 774.129 1224.02 775.479 1223.56L786.272 1220.3C786.623 1220.2 787.01 1220.24 787.347 1220.42C787.683 1220.59 787.943 1220.89 788.067 1221.25C788.191 1221.61 788.171 1222 788.01 1222.33C787.85 1222.65 787.562 1222.9 787.21 1223L776.417 1226.26C774.73 1226.78 772.942 1226.95 771.153 1226.76C769.364 1226.58 767.61 1226.05 765.992 1225.2C764.374 1224.34 762.922 1223.19 761.721 1221.8C760.52 1220.41 759.592 1218.8 758.991 1217.09Z" fill="url(#paint4_linear_3536_6769)"/>
<path d="M747.655 1230.47L741.392 1212.44C741.267 1212.08 741.287 1211.69 741.448 1211.37C741.609 1211.04 741.897 1210.79 742.248 1210.69C742.6 1210.58 742.987 1210.62 743.323 1210.8C743.66 1210.98 743.919 1211.28 744.043 1211.64L750.307 1229.67C750.432 1230.03 750.411 1230.42 750.251 1230.75C750.09 1231.07 749.802 1231.32 749.451 1231.42C749.099 1231.53 748.712 1231.49 748.376 1231.31C748.039 1231.13 747.78 1230.83 747.655 1230.47Z" fill="url(#paint5_linear_3536_6769)"/>
</g>
<defs>
<filter id="filter0_d_3536_6769" x="570.387" y="149.347" width="672.086" height="1470.99" filterUnits="userSpaceOnUse" color-interpolation-filters="sRGB">
<feFlood flood-opacity="0" result="BackgroundImageFix"/>
<feColorMatrix in="SourceAlpha" type="matrix" values="0 0 0 0 0 0 0 0 0 0 0 0 0 0 0 0 0 0 127 0" result="hardAlpha"/>
<feOffset dy="4"/>
<feGaussianBlur stdDeviation="2"/>
<feComposite in2="hardAlpha" operator="out"/>
<feColorMatrix type="matrix" values="0 0 0 0 0 0 0 0 0 0 0 0 0 0 0 0 0 0 0.25 0"/>
<feBlend mode="normal" in2="BackgroundImageFix" result="effect1_dropShadow_3536_6769"/>
<feBlend mode="normal" in="SourceGraphic" in2="effect1_dropShadow_3536_6769" result="shape"/>
</filter>
<linearGradient id="paint0_linear_3536_6769" x1="688.271" y1="717.05" x2="746.377" y2="909.852" gradientUnits="userSpaceOnUse">
<stop stop-color="#4C60E9"/>
<stop offset="1" stop-color="#7485FF"/>
</linearGradient>
<linearGradient id="paint1_linear_3536_6769" x1="1361.76" y1="567.618" x2="752.896" y2="188.237" gradientUnits="userSpaceOnUse">
<stop stop-color="#4C60E9"/>
<stop offset="1" stop-color="#7485FF"/>
</linearGradient>
<linearGradient id="paint2_linear_3536_6769" x1="745.002" y1="1220.59" x2="745.666" y2="1222.62" gradientUnits="userSpaceOnUse">
<stop stop-color="#4C60E9"/>
<stop offset="1" stop-color="#7485FF"/>
</linearGradient>
<linearGradient id="paint3_linear_3536_6769" x1="763.047" y1="1211.89" x2="767.035" y2="1222.9" gradientUnits="userSpaceOnUse">
<stop stop-color="#4C60E9"/>
<stop offset="1" stop-color="#7485FF"/>
</linearGradient>
<linearGradient id="paint4_linear_3536_6769" x1="756.82" y1="1210.83" x2="765.538" y2="1229.48" gradientUnits="userSpaceOnUse">
<stop stop-color="#4C60E9"/>
<stop offset="1" stop-color="#7485FF"/>
</linearGradient>
<linearGradient id="paint5_linear_3536_6769" x1="742.803" y1="1216.5" x2="753.131" y2="1221.25" gradientUnits="userSpaceOnUse">
<stop stop-color="#4C60E9"/>
<stop offset="1" stop-color="#7485FF"/>
</linearGradient>
</defs>
</svg>
