<svg width="346" height="225" viewBox="0 0 346 225" fill="none" xmlns="http://www.w3.org/2000/svg">
<g clip-path="url(#clip0_3536_8298)">
<path d="M110.276 135.374C110.197 135.245 103.181 122.613 98.2237 114.11C98.1098 113.819 97.8867 113.584 97.602 113.455C97.3173 113.327 96.9936 113.315 96.7002 113.422C87.4831 115.14 79.5522 116.583 67.6094 118.894C71.3091 127.68 68.2544 121.141 77.5837 141.197C77.7217 141.544 77.8597 141.82 78.3448 141.682C81.8781 140.989 85.4114 140.446 88.9421 139.747C94.7639 138.577 108.959 135.72 110.276 135.374Z" fill="#FE6B21"/>
<path d="M157.858 81.8341C157.582 81.8341 157.164 81.349 157.097 81.002C156.667 78.7884 148.981 36.9537 148.785 36.2584C148.491 35.2264 148.922 34.5814 150.031 34.4524C153.901 34.0021 209.597 28.0023 212.785 27.6644C213.476 27.5921 213.903 27.7302 214.1 28.4951C214.687 30.7733 224.064 70.1944 224.836 73.5858C224.887 73.7883 224.892 73.9999 224.851 74.2047C224.809 74.4095 224.722 74.6023 224.595 74.7687C224.469 74.9351 224.307 75.0708 224.12 75.1657C223.934 75.2607 223.729 75.3124 223.52 75.317C220.749 75.5298 158.828 81.9024 157.858 81.8341Z" fill="#4355E6"/>
<path d="M111.453 147.009C111.146 144.863 110.374 143.235 112.285 142.646C113.752 142.194 113.739 142.23 113.739 139.738C113.6 137.009 114.462 134.325 116.163 132.187C117.279 130.566 118.703 129.18 120.355 128.111C122.007 127.041 123.854 126.308 125.79 125.954C128.948 125.288 129.745 124.87 138.189 125.884C141.156 126.24 149.368 127.902 153.153 127.962C157.809 128.037 161.91 126.399 160.491 121.936C158.549 115.791 152.843 113.207 146.708 109.33C143.628 107.383 141.086 105.638 143.314 102.334C144.368 100.877 145.774 99.7092 147.4 98.94C151.923 96.569 151.73 96.8618 153.979 96.5148C153.979 96.3768 153.979 96.0994 154.117 96.031C155.02 95.3383 154.73 94.5088 154.533 93.6755C154.202 91.8119 154.273 89.8993 154.741 88.0653C154.879 87.5599 155.176 87.1122 155.587 86.7873C155.998 86.4624 156.503 86.2774 157.026 86.2593C160.01 86.0271 225.12 79.2004 227.886 78.8495C228.913 78.6781 229.965 78.7451 230.962 79.0453C231.959 79.3454 232.873 79.8708 233.634 80.5807C239.855 86.0568 251.623 95.2029 257.738 100.252C258.331 100.633 258.777 101.203 259.003 101.87C259.23 102.536 259.223 103.26 258.985 103.923C258.693 104.779 258.433 107.72 254.759 108.148C243.607 109.448 197.906 114.015 182.519 115.836C174.425 116.794 165.949 111.232 160.702 105.1C158.987 103.226 157.499 101.157 156.268 98.9361C156.13 98.5207 155.223 98.5826 155.022 98.3814C154.537 97.619 153.914 97.8964 153.291 98.1041C149.956 98.9079 146.939 100.694 144.631 103.231C142.069 106.351 147.354 107.757 154.328 112.442C158.146 115.007 162.312 119.603 162.224 124.009C162.166 124.99 161.847 125.939 161.299 126.756C160.751 127.572 159.994 128.227 159.107 128.653C151.784 131.89 138.948 126.551 130.016 127.129C124.469 127.486 119.865 129.639 116.995 134.611C115.801 136.591 115.222 138.881 115.332 141.19C115.332 141.745 115.47 142.16 116.163 142.298C117.48 142.437 117.701 143.542 117.969 144.584C118.335 146.034 118.319 146.003 119.775 145.831C140.224 143.442 132.03 144.046 138.684 143.406C139.647 143.39 140.596 143.648 141.418 144.151C142.24 144.653 142.903 145.379 143.328 146.244C146.388 152.928 157.509 174.958 157.804 178.59C157.941 179.387 157.765 180.206 157.313 180.877C156.862 181.547 156.169 182.018 155.379 182.191C152.77 183.297 150.055 184.133 147.275 184.685C147.123 184.721 120.143 190.375 115.968 190.78C114.72 190.902 110.358 191.127 108.557 190.157C104.254 188.812 101.027 181.156 99.2073 176.999C91.2351 158.793 91.3641 158.294 91.0339 154.628C90.937 153.78 91.1603 152.926 91.6599 152.234C92.1596 151.542 92.8997 151.062 93.7351 150.887C97.9534 149.821 102.179 148.924 106.411 147.978C109.116 147.372 111.202 147.262 111.453 147.009ZM94.7607 159.962C94.6341 159.984 94.5142 160.035 94.4103 160.111C94.3063 160.187 94.221 160.285 94.1609 160.399C94.1008 160.512 94.0675 160.638 94.0634 160.767C94.0594 160.895 94.0847 161.023 94.1376 161.14C96.2958 166.014 105.705 185.659 106.12 186.212C106.636 186.728 154.606 177.238 154.743 177.208C154.888 177.177 155.025 177.114 155.143 177.023C155.26 176.932 155.356 176.816 155.422 176.683C155.489 176.55 155.525 176.403 155.527 176.255C155.529 176.106 155.498 175.959 155.436 175.824C153.15 171.077 144.769 153.174 144.084 151.789C144 151.667 143.885 151.571 143.751 151.51C143.616 151.449 143.468 151.426 143.321 151.443C137.916 152.343 101.964 158.646 94.7607 159.962ZM158.137 98.802C159.572 101.499 161.392 103.972 163.54 106.145C170.201 112.466 177.748 114.71 180.163 114.53C182.377 114.361 249.083 107.144 253.929 106.565C254.723 106.527 255.479 106.217 256.072 105.688C256.665 105.158 257.057 104.441 257.185 103.656C257.296 103.238 257.29 102.797 257.167 102.382C257.045 101.966 256.812 101.592 256.492 101.301C248.422 94.6249 240.333 87.8176 232.319 81.0761C231.921 80.6892 231.438 80.4003 230.909 80.2319C230.381 80.0635 229.82 80.0204 229.272 80.106C224.435 80.8194 164.444 87.2087 157.584 87.9337C155.219 88.1827 155.834 88.8174 156.406 94.5824C156.468 95.2067 156.821 95.4131 157.438 95.4131C158.103 95.4033 158.756 95.5968 159.308 95.9678C159.825 96.5167 160.204 97.1797 160.417 97.9028C160.694 98.4575 160.417 98.8058 159.793 98.8058C159.243 98.8737 158.687 98.8724 158.137 98.802Z" fill="#29175F"/>
<path d="M248.596 50.8029C247.973 48.7247 247.419 46.7162 246.726 44.7773C246.487 41.7158 246.696 38.6358 247.349 35.6351C248.381 35.1191 249.746 38.0719 251.575 39.9979C253.025 41.5252 253.237 43.4615 253.791 45.2623C254.069 46.1653 254.345 46.9935 254.622 47.8939C254.66 47.8983 254.698 47.8943 254.734 47.8823C254.77 47.8702 254.802 47.8504 254.83 47.8243C254.692 46.9213 254.137 37.9893 254.137 34.6663C254.137 32.6023 255.697 30.4699 257.67 31.4103C259.563 32.3133 259.721 34.2058 260.025 36.3278C261.48 36.1898 261.662 36.3278 261.96 37.7829C262.257 39.2923 262.257 40.8453 261.96 42.3547C261.816 42.9249 261.631 43.1596 261.267 42.9778C261.127 41.1718 260.712 37.5056 260.642 37.5056C260.518 37.9838 260.425 38.47 260.366 38.9607C260.575 42.2158 260.851 45.4709 261.197 48.726C261.197 48.9195 261.385 49.9141 261.96 49.629C262.847 44.44 264.028 39.3053 265.495 34.2496C265.844 32.8938 266.811 31.6245 268.197 32.1018C268.567 32.3437 268.857 32.6902 269.029 33.0972C269.202 33.5042 269.25 33.9534 269.167 34.3876C269.167 34.5257 269.097 34.5953 269.097 34.7347C269.444 34.8647 269.74 35.1037 269.939 35.4158C270.139 35.7279 270.232 36.0963 270.205 36.4658C270.24 38.0603 270.24 39.5812 270.205 41.1756C270.192 41.3453 270.118 41.5044 269.996 41.6232C269.874 41.742 269.713 41.8122 269.543 41.8207C269.373 41.8293 269.206 41.7756 269.073 41.6696C268.94 41.5637 268.85 41.4128 268.82 41.2453C268.789 40.7325 268.719 40.2228 268.612 39.7205C264.973 57.9172 267.567 49.0872 271.936 39.9282C272.322 39.252 272.787 38.6245 273.322 38.059C273.854 37.266 274.459 36.5241 275.128 35.8428C275.229 35.6699 275.37 35.5233 275.538 35.4148C275.707 35.3063 275.899 35.2391 276.098 35.2184C276.721 35.2184 276.8 35.6338 276.859 36.2581C277.025 37.9867 277.276 39.6521 277.483 41.3833C277.598 41.9612 277.402 42.2102 273.604 50.5952C273.323 51.217 273.604 51.555 274.089 51.8426C274.651 52.178 275.267 52.5354 275.821 52.8114C276.25 53.0329 276.593 53.3925 276.794 53.8323C276.995 54.2721 277.043 54.7667 276.929 55.2366C276.384 58.7119 271.819 83.9017 271.318 87.0274C270.097 94.6474 258.963 93.2091 251.44 91.5991C247.661 90.7916 247.927 88.5031 247.007 84.5351C246.509 82.3898 240.828 58.1998 239.873 54.7516C238.985 51.5679 245.337 50.6275 248.596 50.8029ZM274.783 55.9977C263.701 58.3533 252.757 58.561 241.952 54.7516C244.952 69.7504 246.363 73.8346 249.987 87.6466C250.436 89.361 251.522 89.1417 252.134 89.4526C260.479 90.3556 263.724 91.3876 267.441 89.6603C267.962 89.4727 268.423 89.149 268.776 88.7226C269.129 88.2963 269.362 87.7831 269.449 87.2364C274.536 60.0161 272.977 66.4403 274.776 55.9977H274.783ZM248.255 44.4303C248.802 47.8266 249.729 51.1507 251.018 54.3401C251.094 54.5072 251.214 54.6507 251.365 54.7555C252.611 54.9631 253.857 55.1012 255.174 55.2405C254.965 54.4033 251.752 44.1465 251.71 44.0175C251.087 42.4218 247.971 44.0846 248.247 44.4303H248.255ZM274.229 42.4218C273.883 42.4914 273.535 42.7765 273.19 42.6991C272.912 42.6372 272.705 42.2141 272.428 41.8684C270.557 46.2311 268.273 50.3824 266.61 54.9593C267.856 54.82 268.896 54.6819 269.934 54.5439C270.439 54.5439 270.501 54.2395 274.852 44.0846C275.081 43.6111 274.607 43.0655 274.221 42.4218H274.229ZM264.186 41.453C263.216 46.226 262.38 50.6649 261.415 55.305C262.385 55.2366 263.008 55.167 263.701 55.167C264.849 55.167 264.196 55.1966 267.163 42.2141C266.117 41.938 265.147 41.729 264.178 41.453H264.186ZM260.03 55.305C259.592 49.1878 259.292 46.3537 259.127 43.5299C259.039 42.0077 258.849 41.7239 257.256 41.8684C256.835 41.9607 256.419 42.0761 256.01 42.2141C256.425 46.5781 256.841 50.9422 257.188 55.305H260.03ZM258.784 40.212C258.506 38.0654 258.242 35.777 257.813 33.5633C257.545 32.1766 256.151 32.8706 255.943 33.2163C255.667 33.5993 255.522 34.0604 255.528 34.5321C255.639 39.1839 255.943 39.6225 255.943 40.8351C256.905 40.6209 257.736 40.4081 258.776 40.2055L258.784 40.212ZM250.263 41.3898C248.947 39.3812 248.947 39.3812 248.047 39.6586C247.632 42.7752 247.354 42.2902 248.255 42.2902C248.987 42.1592 249.674 41.8475 250.255 41.3833L250.263 41.3898ZM273.813 40.697C274.783 40.1436 274.783 40.1436 275.748 41.5278H275.956C275.888 40.6274 275.819 39.727 275.748 38.8265C275.386 38.6899 275.016 38.5745 274.64 38.4808C273.321 39.9282 273.321 39.9282 273.806 40.6906L273.813 40.697Z" fill="#29175F"/>
<path d="M75.7527 213.85C75.0865 213.944 74.4103 213.944 73.7441 213.85C73.6189 213.821 73.5027 213.762 73.4061 213.677C73.3095 213.593 73.2355 213.485 73.1907 213.365C73.1211 213.227 73.3984 212.95 73.5364 212.742C73.7781 212.496 74.0711 212.306 74.3944 212.187C74.7177 212.067 75.0634 212.02 75.4069 212.049C87.5536 209.771 284.831 173.736 306.816 169.452C308.852 169.055 310.09 171.028 308.479 171.387C307.048 171.713 75.8817 213.827 75.7527 213.85Z" fill="#FEB186"/>
<path d="M311.316 177.14C311.557 177.047 311.823 177.045 312.066 177.134C312.308 177.223 312.509 177.398 312.632 177.625C312.494 178.386 311.871 178.528 311.248 178.733C232.687 197.553 84.7238 224.724 77.6211 224.724C77.6211 221.761 124.452 218.041 311.316 177.14Z" fill="#FEB186"/>
<path d="M108.959 104.274C107.024 105.937 101.554 105.095 99.6088 103.859C98.2748 103.011 97.184 101.831 96.4433 100.434C95.7027 99.038 95.3377 97.4731 95.384 95.8931C95.1841 89.198 100.868 86.9766 104.457 90.0055C104.734 90.2132 105.011 90.4905 105.219 90.0055C105.77 88.9459 106.579 88.0417 107.571 87.3761C108.562 86.7105 109.706 86.3047 110.895 86.1961C117.874 84.9913 121.414 84.2676 131.882 86.2658C135.004 86.8618 136.655 89.5205 136.384 92.9145C135.944 97.8116 134.007 102.455 130.837 106.213C129.708 107.629 128.072 108.549 126.276 108.778C123.091 109.268 119.859 109.384 116.647 109.123C112.713 108.796 110.273 105.4 108.959 104.274ZM106.189 91.9457C105.97 94.4365 106.399 96.9417 107.435 99.2174C108.806 101.988 110.769 104.424 113.185 106.352C114.061 107.151 115.189 107.616 116.372 107.668C120.147 107.961 123.943 107.751 127.662 107.045C128.039 106.935 128.376 106.718 128.632 106.421C132.348 102.588 135.355 96.738 135.143 91.2529C135.023 88.1466 131.778 87.2036 128.702 86.7508C121.845 85.7395 106.857 85.0596 106.189 91.9457ZM117.617 87.0269C128.916 85.8659 136.158 89.3799 133.202 90.6982C127.933 93.0473 119.141 94.4018 109.098 91.8063C108.057 91.538 106.322 90.1293 108.613 88.8277C110.202 87.9222 115.677 87.2256 117.617 87.0269ZM104.596 92.4991C104.681 92.0723 104.607 91.629 104.388 91.2529C103.945 90.7092 103.365 90.2932 102.708 90.0477C102.051 89.8021 101.341 89.7359 100.65 89.8558C99.9586 89.9757 99.3119 90.2774 98.776 90.73C98.2401 91.1825 97.8343 91.7695 97.6003 92.4307C97.1572 93.4614 96.936 94.5738 96.951 95.6956C96.9659 96.8174 97.2167 97.9235 97.6871 98.942C98.1574 99.9606 98.8368 100.869 99.681 101.608C100.525 102.346 101.516 102.899 102.587 103.231C104.42 103.959 106.442 104.056 108.336 103.507C107.99 103.022 107.643 102.604 107.366 102.191C103.327 103.628 95.5208 96.1098 100.579 92.5636C101.146 92.1089 101.849 91.8558 102.576 91.8441C103.304 91.8324 104.014 92.0628 104.596 92.4991ZM107.02 101.711C105.598 99.4434 104.809 96.8371 104.734 94.1619C104.623 93.8847 104.45 93.6361 104.23 93.4343C104.01 93.2325 103.747 93.0828 103.461 92.9961C103.175 92.9095 102.874 92.8881 102.578 92.9335C102.283 92.979 102.002 93.0902 101.755 93.2589C97.9253 95.3848 102.679 101.711 107.02 101.711ZM116.855 89.2444C114.92 88.2743 111.452 88.62 110.344 90.3525C112.56 89.9436 114.566 89.5901 116.855 89.2444Z" fill="#29175F"/>
<path d="M153.496 85.1576C153.773 88.0666 152.259 85.5717 152.18 85.088C151.748 82.4473 143.571 39.7922 143.244 37.5037C142.93 36.0429 143.074 34.5207 143.657 33.1448C144.24 31.7688 145.233 30.6062 146.5 29.8153C147.235 29.4388 148.033 29.2038 148.855 29.1226C150.652 28.822 208.7 23.4015 211.193 23.3047C218.966 23.0029 218.245 24.0349 229.547 76.7765C229.547 78.2316 228.454 77.7427 228.301 77.1222C228.111 76.356 227.798 75.6039 227.608 74.8376C217.564 34.2284 217.696 29.0349 216.803 27.3914C216.453 26.5778 215.858 25.8935 215.1 25.4341C214.343 24.9746 213.461 24.7628 212.578 24.8282C210.5 24.9701 148.642 30.6332 147.609 31.2705C145.191 32.7501 145.158 34.8644 144.838 36.811C144.907 36.8807 152.803 81.1406 153.496 85.1576Z" fill="#29175F"/>
<path d="M104.043 138.006C102.456 138.317 96.5607 139.588 95.1779 139.876C93.0223 140.327 87.7913 141.096 78.831 143.063C78.4811 143.168 78.1135 143.201 77.7505 143.159C77.3875 143.118 77.0367 143.004 76.7193 142.823C76.4019 142.642 76.1246 142.398 75.9042 142.107C75.6838 141.815 75.5248 141.482 75.437 141.128C66.0045 118.723 66.3218 119.39 66.5024 118.127C66.5024 117.699 66.1348 117.894 91.6445 113.002C93.4505 112.657 95.2501 112.326 97.0471 111.894C97.8804 111.694 98.2945 112.171 98.6402 112.797C107.232 128.261 103.715 122.601 110.138 133.021C110.693 133.924 111.12 134.815 111.661 135.654C112.016 136.203 111.73 136.618 111.178 136.762C110.698 136.885 106.054 137.613 104.043 138.006ZM110.277 135.374C110.199 135.245 103.182 122.614 98.2248 114.11C98.111 113.819 97.8879 113.584 97.6032 113.456C97.3185 113.327 96.9948 113.315 96.7013 113.422C87.4843 115.141 79.5534 116.583 67.6106 118.895C71.3103 127.681 68.2556 121.142 77.5848 141.197C77.7229 141.544 77.8609 141.821 78.3459 141.682C81.8792 140.99 85.4126 140.447 88.9433 139.747C94.7651 138.577 108.96 135.72 110.277 135.374Z" fill="#29175F"/>
<path d="M71.6668 78.8503C70.1768 79.1482 69.466 77.1487 70.9741 76.7721C72.9091 76.5399 144.78 70.2447 147.094 70.0537C148.063 69.9738 148.41 70.1221 148.48 70.8148C148.549 71.5076 148.341 71.8546 147.577 71.8546C144.983 71.8597 72.0757 78.8503 71.6668 78.8503Z" fill="#FEB186"/>
<path d="M286.415 115.218C282.471 114.143 284.683 115.209 274.502 111.409C271.817 110.279 269.3 108.788 267.02 106.976C266.538 106.645 265.997 106.409 265.427 106.283C265.006 106.225 264.609 106.053 264.28 105.785C263.95 105.517 263.7 105.164 263.557 104.764C263.414 104.364 263.384 103.933 263.469 103.517C263.555 103.101 263.752 102.716 264.041 102.404C265.647 100.495 267.725 99.0383 270.068 98.1796C274.099 96.4807 278.102 97.0728 282.05 98.457C287.944 100.521 295.235 102.668 297.014 108.431C297.29 109.49 297.225 110.609 296.827 111.629C296.429 112.648 295.718 113.516 294.797 114.107C289.888 116.812 288.572 115.806 286.415 115.218ZM268.822 107.253C273.166 109.967 277.911 111.977 282.883 113.209C282.074 112.402 283.794 113.424 269.307 107.114C268.742 106.739 268.483 107.083 268.822 107.253ZM273.254 98.2493C270.472 98.8943 266.546 100.628 264.943 102.959C264.233 103.991 264.525 104.701 265.775 105.037C272.229 106.709 278.41 109.298 284.129 112.724C287.308 114.328 289.819 115.684 293.965 112.241C295.9 110.636 295.975 109.261 294.657 107.114C293.598 105.308 291.999 103.879 290.086 103.029C286.833 101.638 283.507 100.396 280.112 99.2181C277.906 98.4706 275.581 98.1421 273.254 98.2493Z" fill="#29175F"/>
<path d="M262.102 132.326C262.24 129.694 264.24 128.668 266.534 129.971C266.663 130.047 284.361 139.802 298.188 147.773C299.414 149.117 300.504 150.579 301.443 152.137C301.761 152.619 301.605 153.169 300.82 153.169C294.679 152.487 300.127 154.65 263.902 134.335C263.279 133.78 262.379 133.227 262.102 132.326ZM297.288 148.464L271.173 133.642C270.964 133.465 270.718 133.335 270.453 133.263C270.189 133.191 269.911 133.177 269.641 133.223C269.37 133.269 269.113 133.374 268.888 133.531C268.662 133.687 268.473 133.89 268.335 134.127C267.767 134.808 267.784 135.159 268.543 135.581C280.491 142.2 295.384 150.888 295.694 150.888C296.179 150.127 296.665 149.295 297.288 148.464ZM299.504 150.819L298.465 149.157C297.148 149.711 296.595 150.403 296.659 151.511C297.633 151.373 298.741 152.066 299.504 150.819ZM263.9 132.95C264.453 132.117 264.938 131.356 265.493 130.524C265.326 130.432 265.142 130.375 264.953 130.356C264.763 130.338 264.572 130.359 264.39 130.417C264.209 130.476 264.041 130.571 263.898 130.697C263.755 130.822 263.639 130.976 263.558 131.149C263.072 131.979 263.279 132.672 263.902 132.95H263.9ZM266.531 134.611C267.224 133.708 267.847 133.018 268.466 132.257C267.978 132.224 267.493 132.367 267.1 132.659C266.706 132.95 266.429 133.373 266.319 133.85C266.326 134.062 266.529 134.403 266.529 134.611H266.531ZM265.146 133.918C265.77 132.886 266.254 132.112 266.671 131.287C265.631 131.494 264.938 132.049 264.865 132.95C264.903 133.286 264.999 133.614 265.149 133.918H265.146Z" fill="#29175F"/>
<path d="M133.825 105.313C138.033 106.046 136.834 114.796 122.119 115.703C116.408 116.055 103.884 113.815 106.05 109.332C106.231 108.801 106.564 108.335 107.007 107.991C107.45 107.647 107.984 107.441 108.543 107.397C108.438 107.606 108.268 107.776 108.058 107.882C107.706 108.068 107.413 108.349 107.214 108.694C107.015 109.038 106.917 109.432 106.931 109.83C106.946 110.228 107.072 110.614 107.296 110.943C107.52 111.272 107.833 111.532 108.198 111.691C114.433 115.481 127.25 115.891 133.687 110.659C134.039 110.399 134.334 110.069 134.554 109.69C134.775 109.312 134.915 108.892 134.967 108.457C135.019 108.022 134.981 107.581 134.856 107.161C134.731 106.741 134.521 106.351 134.24 106.015C134.032 105.868 133.963 105.591 133.825 105.313Z" fill="#29175F"/>
<path d="M279.002 59.2532C277.996 59.2532 277.804 58.4018 278.517 57.8678C279.692 56.601 294.734 55.6516 294.864 55.6516C295.213 55.624 295.559 55.7362 295.825 55.9635C296.091 56.1908 296.256 56.5145 296.284 56.8635C296.311 57.2125 296.199 57.5581 295.972 57.8243C295.744 58.0906 295.421 58.2556 295.072 58.2832C289.738 58.9135 284.373 59.2374 279.002 59.2532Z" fill="#FEB186"/>
<path d="M232.94 61.6077C238.358 60.9897 239.253 60.8969 240.005 61.3303C240.147 61.3958 240.267 61.5023 240.348 61.6361C240.429 61.77 240.468 61.925 240.461 62.0814C240.454 62.2377 240.399 62.3883 240.306 62.5137C240.212 62.6392 240.083 62.7338 239.935 62.7854C238.97 63.1367 237.972 63.3921 236.957 63.5478C234.536 63.8471 232.039 64.0329 229.546 64.1709C228.507 64.3089 226.632 62.3275 232.94 61.6077Z" fill="#FEB186"/>
<path d="M253.857 124.984C253.373 124.361 252.825 123.598 251.78 124.014C251.573 124.083 249.474 124.234 248.942 123.321C247.945 121.618 244.132 120.612 242.639 120.483C228.48 118.966 222.086 121.853 215.073 125.816C213.723 126.395 214.703 126.101 210.362 124.57C201.993 121.431 187.844 122.134 174.345 130.735C172.602 131.809 171.113 133.251 169.983 134.959C169.108 136.269 168.446 136.042 166.519 136.894C166.312 136.942 166.119 137.039 165.959 137.179C165.798 137.319 165.675 137.496 165.6 137.694C165.524 137.893 165.499 138.108 165.526 138.318C165.554 138.529 165.633 138.73 165.757 138.903C166.865 140.774 186.951 174.436 188.752 177.553C189.307 178.523 189.722 178.73 190.761 178.523C194.571 177.691 226.668 171.459 233.774 169.934C234.902 169.629 236.071 169.511 237.237 169.587C239.647 169.877 242.077 169.23 244.025 167.781C244.571 167.38 245.219 167.14 245.895 167.088C249.15 166.673 274.086 163.002 276.648 162.656C284.251 161.862 286.872 167.813 253.857 124.984ZM192.491 175.269C191.975 174.753 170.205 138.827 170.118 138.698C170.723 138.093 168.828 135.537 192.144 174.023C192.888 175.263 192.894 174.866 192.491 175.269ZM203.434 171.806C211.985 168.022 221.173 165.884 230.516 165.503L203.434 171.806ZM206.205 169.312C212.23 166.265 218.533 164.326 224.975 164.602C218.564 165.476 212.269 167.056 206.205 169.312ZM194.222 174.577C186.325 161.694 178.429 148.834 170.533 135.997C182.352 125.935 198.132 122.105 211.469 126.854C213.116 127.424 214.512 128.551 215.416 130.041C226.828 147.531 236.952 162.56 238.342 164.88C221.789 159.755 207.382 164.257 194.222 174.577ZM240.005 164.602C231.901 152.412 223.728 140.083 215.486 127.755C223.251 121.328 239.567 120.604 247.694 123.598C248.309 123.753 273.677 156.86 274.221 157.676C268.372 156.423 262.304 156.637 256.558 158.299C250.776 159.626 245.206 161.747 240.005 164.602ZM268.957 158.646C264.184 159.339 259.122 159.962 254.135 160.655C260.784 158.854 267.018 158.092 268.957 158.646ZM247.486 163.772C247.431 163.69 247.406 163.592 247.416 163.494C249.009 163.079 250.672 162.591 252.403 162.317C255.894 161.786 269.666 159.709 273.251 159.547C273.72 159.553 274.186 159.622 274.636 159.755C265.496 161.14 256.49 162.456 247.486 163.772Z" fill="#4355E6"/>
<path d="M263.902 132.95C262.483 132.317 263.673 129.648 265.425 130.524C264.94 131.353 264.387 132.118 263.902 132.95Z" fill="#FE6B21"/>
<path d="M142 177.348C141.861 178.109 141.444 178.47 140.753 178.386C137.488 177.99 141.757 179.87 127.801 171.598C124.162 169.441 109.238 161.398 109.238 158.647C109.578 158.307 113.477 158.905 114.087 159.27C144.957 177.915 139.784 174.578 142 177.348ZM127.524 170.282C127.874 170.632 134.313 174.466 138.952 177.208C139.433 177.493 139.645 177.278 139.922 176.932C140.2 176.516 139.922 176.311 139.577 176.1C138.274 175.309 130.501 170.553 128.009 169.105C127.872 169.507 127.71 169.9 127.524 170.282Z" fill="#29175F"/>
<path d="M229.339 82.7345C230.606 82.9292 229.726 82.43 248.803 98.8724C249.522 99.3522 248.995 99.8424 248.525 99.8424C245.894 100.118 183.21 107.259 180.371 107.669C179.927 107.742 179.471 107.689 179.055 107.518C178.639 107.347 178.279 107.063 178.015 106.699C164.47 90.2732 164.037 90.3158 164.232 89.7288C164.777 88.6375 229.187 82.7099 229.339 82.7345ZM176.977 94.6476C176.145 94.7856 175.522 94.9237 174.829 94.9933C174.206 95.1326 174.759 95.3403 175.176 95.3403C177.641 94.6553 178.696 96.2782 181.547 99.8424C180.578 99.9805 179.816 100.05 179.054 100.188C178.361 100.465 178.985 100.396 179.054 100.465C179.721 100.539 180.395 100.539 181.062 100.465C181.407 100.385 181.769 100.407 182.102 100.53C182.434 100.653 182.723 100.872 182.933 101.158C183.592 101.817 184.286 102.441 185.011 103.027C185.219 103.167 185.426 103.305 185.219 102.82C184.526 102.059 183.903 101.296 183.14 100.535C183.126 100.518 183.116 100.498 183.112 100.476C183.108 100.455 183.109 100.432 183.116 100.411C183.123 100.39 183.136 100.371 183.152 100.356C183.169 100.342 183.188 100.331 183.21 100.326C184.318 100.188 189.028 99.5651 191.452 99.3574C191.802 99.4044 192.122 99.5768 192.355 99.8424C194.139 101.627 196.55 104.422 195.818 102.959C194.848 101.781 193.883 100.535 192.84 99.3574C193.117 99.2181 195.06 99.0388 200.39 98.4544C202.815 98.1964 203.592 97.8855 204.338 98.7317C205.112 99.6167 205.931 100.463 206.693 101.363C207.039 101.917 207.316 101.641 206.901 101.156C206.208 100.116 205.446 99.1471 204.685 98.039C207.662 97.692 210.572 97.3463 213.549 96.9993C214.581 96.9993 215.784 99.2735 217.151 100.186L217.359 99.9779C216.598 99.0078 215.905 98.0429 215.143 97.0689C214.948 96.6819 214.898 96.9244 223.246 95.8215C224.218 95.6925 224.84 95.5454 225.532 96.5142C226.78 98.7317 227.338 99.0775 226.848 97.8313C226.64 97.4843 226.155 96.5142 225.879 95.9608C225.859 95.925 225.849 95.8846 225.85 95.8436C225.851 95.8026 225.862 95.7625 225.883 95.7274C225.904 95.6922 225.934 95.6632 225.97 95.6432C226.006 95.6233 226.046 95.6132 226.087 95.6138C227.195 95.4758 229.967 94.934 232.458 94.645C234.745 94.3793 235.443 93.9471 236.268 94.8527C236.896 95.5416 237.585 96.1685 238.278 96.8612C238.761 97.4146 238.969 97.2766 238.554 96.6536L236.619 94.298C236.585 94.2723 236.561 94.2364 236.55 94.1958C236.539 94.1552 236.541 94.1121 236.557 94.073C236.573 94.0339 236.601 94.001 236.637 93.9792C236.673 93.9574 236.715 93.948 236.757 93.9523L239.112 93.3292C239.666 93.1899 239.389 93.0519 239.042 93.0519C235.803 93.346 236.061 93.9316 234.333 91.8741C233.574 90.9711 230.869 88.6878 230.454 88.2724C230.677 88.1427 230.909 88.0268 231.146 87.9254C231.631 87.7874 231.631 87.5797 230.939 87.7177C230.547 87.8009 230.14 87.7773 229.761 87.6493C229.623 87.5797 228.584 86.3335 228.237 85.9169C227.822 85.5712 227.822 85.7788 228.03 86.0562L228.933 87.51C228.953 87.5458 228.963 87.5863 228.962 87.6273C228.962 87.6682 228.95 87.7083 228.929 87.7435C228.908 87.7787 228.878 87.8077 228.842 87.8276C228.806 87.8475 228.766 87.8577 228.725 87.857C225.816 88.2028 222.976 88.5498 220.136 88.8258C219.211 88.8258 218.846 88.2002 217.85 87.372C217.573 86.887 217.365 87.0946 217.712 87.51C218.058 87.9951 218.335 88.4801 218.682 88.9652C218.82 89.2425 218.751 89.3109 218.613 89.3109C217.297 89.5882 214.664 89.6514 213.066 89.8656C209.047 90.4048 208.831 90.4977 207.248 88.6181C206.888 88.215 206.494 87.8442 206.07 87.51C205.862 87.234 205.724 87.4417 205.862 87.7177C206.487 88.4801 207.248 89.4502 207.941 90.2809C207.955 90.2978 207.964 90.318 207.968 90.3396C207.972 90.3611 207.97 90.3834 207.963 90.4041C207.956 90.4249 207.944 90.4436 207.928 90.4584C207.912 90.4732 207.892 90.4836 207.871 90.4886C206.832 90.5583 202.539 90.7686 200.668 91.1117C199.145 91.3916 198.862 91.3194 197.69 89.9352C197.382 89.4889 197.034 89.0713 196.651 88.6878C196.165 88.0647 196.305 88.5498 196.443 88.8955C196.928 89.5882 197.413 90.3506 197.898 91.1117C197.912 91.1435 197.92 91.1779 197.921 91.2129C197.922 91.2479 197.916 91.2826 197.903 91.3151C197.89 91.3476 197.87 91.377 197.845 91.4017C197.821 91.4264 197.791 91.4458 197.759 91.4587C194.572 91.9438 191.47 92.4391 188.342 92.9125C187.197 93.0867 187.595 92.6545 185.778 90.8356L185.571 91.0433C185.987 91.7361 186.474 92.3591 187.026 93.1202C184.325 93.6053 181.692 93.9471 179.06 94.5057C178.673 94.619 178.257 94.5903 177.889 94.4248C177.521 94.2593 177.224 93.9677 177.052 93.6027C175.32 91.4561 175.043 91.5942 175.32 91.9412C175.782 92.8959 176.336 93.8025 176.977 94.6476Z" fill="#FE6B21"/>
<path d="M177.808 111.963C177.679 111.834 176.575 110.989 177.946 110.647C180.784 110.3 251.712 102.196 254.759 101.851C255.356 101.851 255.773 102.585 254.829 102.819C247.529 103.762 179.275 111.669 177.808 111.963Z" fill="#29175F"/>
<path d="M157.445 89.4521C176.396 110.737 176.844 110.137 176.008 110.854C175.523 111.27 175.181 110.781 174.9 110.439C171.279 106.027 156.406 90.0081 156.406 89.7281C156.406 89.5204 156.401 88.2782 157.445 89.4521Z" fill="#29175F"/>
<path d="M187.366 137.382C186.564 137.794 185.79 138.256 185.56 137.66C185.284 136.554 191.128 134.012 191.725 133.781C197.164 131.648 203.002 130.726 208.833 131.079C209.839 131.189 210.834 131.375 211.812 131.634C214.801 133.124 200.528 130.638 187.366 137.382Z" fill="#FE6B21"/>
<path d="M212.369 136.274C214.031 136.967 212.438 137.177 212.16 137.177C208.794 137.197 205.444 137.639 202.188 138.493C201.98 138.563 200.317 138.355 201.91 137.59C208.091 135.61 209.455 135.602 212.369 136.274Z" fill="#FE6B21"/>
<path d="M240.7 150.751C239.869 149.435 239.037 148.187 238.206 146.941C238.085 146.862 237.948 146.808 237.805 146.784C237.662 146.761 237.516 146.766 237.375 146.802C236.677 146.994 235.92 147.217 235.158 147.357C235.574 146.387 236.543 146.179 237.375 145.624C236.751 144.586 236.197 143.547 235.569 142.439C233.072 143.342 233.221 143.296 232.521 143.062C232.941 142.431 232.202 142.675 235.084 141.469C234.252 140.014 233.491 138.631 232.659 137.175C232.106 137.382 231.551 137.59 230.928 137.798C230.928 136.829 231.759 136.766 232.175 136.344C231.551 135.028 230.928 133.711 230.305 132.326C230.374 132.257 230.338 131.193 231.413 132.673C233.219 135.157 233.384 135.859 233.906 135.859C236.192 135.374 238.408 134.819 240.694 134.266C238.339 129.971 237.993 128.516 241.525 133.573C241.605 133.807 241.771 134.002 241.99 134.118C242.209 134.234 242.464 134.262 242.703 134.196C244.363 134.035 246.027 133.988 247.828 133.919C247.597 133.501 247.411 133.06 247.275 132.603C245.469 126.993 248.243 132.187 248.243 132.257C249.518 136.081 252.605 132.856 253.919 135.304C252.811 135.236 251.634 135.166 250.248 135.096C251.01 136.274 251.634 137.313 252.326 138.352C252.489 138.676 255.884 138.377 256.898 139.384C255.72 140.007 254.542 139.384 253.227 139.8C253.781 140.703 254.335 141.606 254.959 142.501C255.028 142.64 255.375 142.64 255.651 142.64C256.69 142.709 257.66 142.709 258.699 142.778C258.985 142.839 259.264 142.932 259.53 143.056C259.53 143.559 259.94 143.162 255.789 143.817C256.412 144.857 256.966 145.895 257.659 146.865C258.019 147.226 259.207 146.976 262.022 147.142C262.294 147.142 263.57 147.597 263.2 147.973C261.676 148.111 260.151 148.251 258.556 148.389C258.675 148.909 258.837 149.418 259.039 149.912C260.845 154.899 260.772 155.107 258.136 150.536C257.62 149.846 257.169 148.666 256.475 148.666C254.669 148.943 252.942 149.221 251.072 149.497C251.557 150.674 252.458 153.03 252.734 153.93C253.358 155.592 252.319 154.068 252.25 153.999C250.493 151.512 249.981 149.982 249.202 149.982C247.124 150.397 245.115 150.885 243.037 151.298C243.661 152.406 244.215 153.445 244.769 154.484C245.254 155.246 244.7 155.107 244.422 154.692C244.007 154.207 243.519 153.789 243.107 153.306C242.624 152.75 242.204 151.852 241.653 151.713C240.921 151.47 240.127 152.161 237.774 152.683C238.206 151.651 239.522 151.443 240.7 150.751ZM236.335 140.984C238.552 140.431 240.7 139.806 242.846 139.253C242.293 138.005 241.67 136.829 241.04 135.443C238.754 135.859 236.396 136.346 233.906 136.829C234.812 138.283 235.569 139.668 236.335 140.984ZM239.244 146.179C240.147 147.564 240.977 148.88 241.808 150.128C241.863 150.199 241.941 150.251 242.028 150.275C242.115 150.3 242.208 150.297 242.293 150.266C244.301 149.711 246.379 149.157 248.456 148.534C247.765 147.357 247.072 146.248 246.379 145.14C246.329 145.061 246.256 144.998 246.169 144.961C246.083 144.924 245.987 144.914 245.894 144.933C243.746 145.348 241.6 145.763 239.244 146.179ZM245.479 143.755C244.924 142.785 244.301 141.82 243.746 140.846C243.499 140.349 242.502 140.901 236.89 141.954C237.513 143.062 237.998 143.889 238.552 144.792C238.691 144.931 238.968 145.139 239.176 145.069C241.253 144.655 243.331 144.24 245.479 143.755ZM247.626 144.586C249.397 147.484 249.76 148.327 250.189 148.327C251.995 148.049 253.79 147.702 255.66 147.357C255.037 146.317 254.483 145.348 253.854 144.378C253.659 143.978 253.144 144.016 247.626 144.586ZM242.293 135.304C244.345 139.067 243.728 139.097 246.172 138.837C247.487 138.697 248.803 138.56 250.189 138.421C249.634 137.382 249.096 136.402 248.526 135.512C248.458 135.402 248.368 135.307 248.26 135.236C248.152 135.164 248.031 135.116 247.903 135.096C246.101 135.131 244.301 135.236 242.293 135.304ZM244.994 140.291C245.617 141.399 246.172 142.3 246.8 143.2C246.866 143.285 246.949 143.354 247.045 143.402C247.141 143.45 247.246 143.476 247.353 143.478C249.224 143.27 251.025 142.993 252.964 142.785C250.464 139.043 252.431 139.76 244.994 140.291Z" fill="#FE6B21"/>
<path d="M228.51 128.793C228.303 128.17 228.788 127.823 229.273 127.685C236.312 125.092 243.518 125.585 244.856 126.923C245.458 127.525 244.794 127.889 244.372 127.755C239.34 126.153 233.513 127.543 228.51 128.793Z" fill="#FE6B21"/>
<path d="M270.758 100.118C271.798 100.118 272.768 100.05 273.736 100.118C274.291 100.188 275.671 101.781 276.092 102.127C275.189 101.989 273.183 101.643 273.044 101.573C272.351 101.158 271.658 100.673 270.758 100.118Z" fill="#29175F"/>
<path d="M203.228 97.3489C201.982 97.487 200.944 97.634 199.904 97.7643C197.551 98.0597 195.194 98.2494 192.839 98.5254C192.561 98.5254 192.146 98.5254 192.008 98.3177C190.761 96.8639 189.514 95.3404 188.129 93.6737C189.584 93.466 195.893 92.6056 197.688 92.2883C198.005 92.2032 198.342 92.2173 198.651 92.3287C198.96 92.44 199.228 92.6434 199.419 92.9114C200.518 94.3084 201.843 95.7558 203.228 97.3489Z" fill="#FE6B21"/>
<path d="M234.326 93.2616C234.359 93.2873 234.383 93.3231 234.394 93.3637C234.405 93.4044 234.403 93.4475 234.387 93.4866C234.372 93.5257 234.344 93.5586 234.308 93.5804C234.272 93.6022 234.23 93.6116 234.188 93.6073C233.247 93.7182 229.352 94.3245 225.322 94.647C224.183 94.647 224.989 94.7425 220.474 90.003C220.44 89.9773 220.416 89.9415 220.405 89.9009C220.394 89.8603 220.397 89.8171 220.412 89.778C220.428 89.7389 220.456 89.706 220.492 89.6842C220.528 89.6624 220.57 89.653 220.612 89.6573C229.384 88.4473 229.384 88.1828 229.686 88.4795C231.279 90.0727 232.784 91.6852 234.326 93.2616Z" fill="#FE6B21"/>
<path d="M209.602 90.9065C212.799 90.5066 216.926 90.1222 218.536 89.8681C218.854 89.8073 219.182 89.833 219.487 89.9426C219.792 90.0523 220.061 90.2417 220.267 90.4912C221.473 91.9231 222.761 93.3292 224.078 94.8552C222.104 95.1365 222.394 95.0436 214.727 95.9633C214.436 95.9686 214.15 95.8969 213.896 95.7557C212.441 94.3005 211.058 92.777 209.602 91.2536V90.9065Z" fill="#FE6B21"/>
<path d="M213.272 96.1704C210.916 96.4477 208.628 96.5832 206.345 97.0734C205.55 97.2893 204.705 97.2281 203.95 96.8998C203.195 96.5715 202.574 95.9958 202.19 95.2674C201.431 94.2571 200.622 93.2862 199.764 92.3584C199.738 92.324 199.721 92.2837 199.714 92.2411C199.707 92.1986 199.711 92.155 199.725 92.1141C199.738 92.0732 199.762 92.0362 199.793 92.0064C199.824 91.9766 199.862 91.9549 199.904 91.943C208.348 91.04 207.139 91.12 208.077 91.04C208.493 91.04 208.702 91.3148 208.98 91.5935C210.514 93.0184 211.948 94.5477 213.272 96.1704Z" fill="#FE6B21"/>
<path d="M178.568 95.1324C180.923 94.7854 182.242 94.5378 185.079 94.1624C186.743 93.9418 187.431 93.2929 188.264 94.7158C189.615 97.0223 190.346 97.1113 191.382 98.6645C187.36 99.1108 185.507 99.4217 183.071 99.6345C182.013 99.6345 181.91 99.1985 178.499 95.4085C178.471 95.3922 178.45 95.3674 178.437 95.3379C178.425 95.3083 178.422 95.2755 178.43 95.2444C178.438 95.2133 178.456 95.1856 178.481 95.1654C178.506 95.1452 178.536 95.1337 178.568 95.1324Z" fill="#FE6B21"/>
<path d="M176.732 64.5192C175.61 60.6057 174.72 56.6304 174.065 52.6137C173.761 49.9066 174.098 49.1797 176.613 48.134C179.88 46.6888 187.617 46.344 192.182 44.9481C195.765 43.873 193.884 48.7642 196.235 46.8234L198.925 44.516C200.471 43.1868 201.988 43.6277 202.326 45.6458C202.888 48.9564 203.355 52.2883 203.752 55.6258C203.9 56.7647 203.318 57.3864 202.047 57.231C201.579 57.1157 201.068 56.9899 200.6 56.8746C197.627 56.4802 197.4 56.6716 197.481 59.5489C197.548 60.0529 197.436 60.5639 197.165 60.9941C196.895 61.4244 196.482 61.7468 195.998 61.9059C190.549 63.8877 184.907 65.2959 179.162 66.1075C178.633 66.1838 178.094 66.0645 177.646 65.7719C177.198 65.4793 176.873 65.0338 176.732 64.5192ZM194.684 59.085C194.148 55.5832 193.371 52.122 192.358 48.726C192.104 47.7411 191.521 48.0924 190.931 48.1948C177.516 50.6063 176.203 50.5304 176.631 52.278C177.458 55.609 178.244 58.9295 179.023 62.2712C179.027 62.454 179.073 62.6336 179.159 62.7952C179.245 62.9568 179.369 63.0958 179.519 63.2008C179.669 63.3058 179.842 63.3739 180.024 63.3995C180.206 63.4251 180.391 63.4074 180.564 63.3479C185.011 62.6635 189.392 61.6126 193.663 60.206C193.943 60.1822 194.205 60.0534 194.394 59.8455C194.583 59.6377 194.687 59.366 194.684 59.085ZM196.89 55.6237C197.927 54.5292 199.119 54.8226 200.203 54.7295C200.665 54.6858 201.246 54.9863 201.146 54.0168C200.129 47.6021 200.492 46.679 199.204 47.5994C197.976 48.372 196.709 49.0813 195.408 49.7244C195.408 49.7244 196.143 52.5151 196.89 55.6237Z" fill="white"/>
<path d="M318.548 36.5824C318.832 35.1317 319.076 33.6654 319.453 32.2743C319.807 31.3634 319.452 30.8991 318.578 30.6295C317.249 30.1064 316.03 29.3403 314.982 28.3704C312.751 26.618 314.664 24.752 317.295 24.9356C321.824 25.2739 322.851 21.5494 324.634 18.7006C325.126 17.9133 325.504 16.9417 326.635 17.1482C327.766 17.3548 327.906 18.4342 328.077 19.4327C329.022 25.6945 334.91 25.2329 336.629 25.7845C338.349 26.3361 338.3 27.9013 337.181 28.5617C335.937 29.3712 334.652 30.1162 333.332 30.7938C332.866 30.9511 332.468 31.2614 332.202 31.6743C331.936 32.0871 331.817 32.578 331.866 33.0667C331.894 34.6169 331.761 36.1658 331.468 37.6884C331.066 39.8621 329.654 40.6181 328.076 38.4439C327.444 37.5925 326.847 36.7313 326.284 35.8604C325.772 35.0791 325.299 34.9184 324.528 35.6439C323.353 36.7485 322.088 37.7249 320.809 38.8587C319.34 39.942 318.091 38.8978 318.548 36.5824ZM321.626 34.6564C323.499 34.0329 324.008 32.0638 325.74 32.2241C327.472 32.3844 327.884 34.0822 329.501 35.3164C328.915 31.5473 329.922 28.9563 333.559 27.6902C329.735 27.1595 326.985 25.6018 326.138 21.545C325.361 23.1712 324.18 24.5708 322.707 25.61C321.235 26.6491 319.52 27.2931 317.728 27.4801C322.375 28.0511 323.155 30.6607 321.545 34.6249L321.626 34.6564Z" fill="#FE6B21"/>
<path d="M333.433 140.232C340.37 143.486 343.638 149.346 341.108 156.937C340.581 158.335 339.78 159.613 338.753 160.698C337.726 161.783 336.494 162.652 335.127 163.256C333.76 163.859 332.287 164.184 330.794 164.212C329.3 164.24 327.816 163.97 326.428 163.418C323.3 162.124 320.798 159.664 319.453 156.558C318.107 153.452 318.022 149.944 319.218 146.777C319.697 145.397 320.451 144.128 321.433 143.046C322.415 141.964 323.605 141.091 324.933 140.48C326.26 139.869 327.697 139.532 329.158 139.489C330.618 139.447 332.073 139.699 333.433 140.232ZM327.966 146.868C327.278 146.601 326.713 146.614 326.601 147.503C326.326 149.889 326.023 152.287 325.858 154.693C325.814 154.925 325.84 155.165 325.931 155.383C326.022 155.602 326.174 155.789 326.37 155.921C326.565 156.054 326.795 156.127 327.032 156.131C327.268 156.136 327.501 156.071 327.701 155.945C330.141 154.703 332.49 153.332 334.783 151.87C335.989 151.104 335.843 150.161 334.537 149.444C333.877 149.165 328.707 147.179 327.966 146.868Z" fill="#4355E6"/>
<path d="M271.137 25.6634C269.29 19.9832 266.059 6.05328 266.033 5.88012C265.729 4.08446 266.226 3.34554 268.519 2.83885C270.173 2.43837 271.847 2.13227 273.535 1.92205C275.445 1.68535 276.173 2.38792 276.535 4.27577C277.734 10.5431 278.675 16.7566 279.428 23.1534C279.727 26.0421 278.483 27.4457 275.032 27.5727C273.064 27.6003 271.593 27.3084 271.137 25.6634Z" fill="#4355E6"/>
<path d="M293.403 6.68117C293.883 5.44637 294.285 4.95037 295.141 5.02658C297.978 5.63969 301.114 3.08398 301.182 7.04767C301.369 18.1404 300.21 25.7983 300.397 30.4141C300.46 32.2324 299.632 32.9826 297.804 32.8313C297.31 32.7912 296.814 32.7853 296.32 32.8138C296 32.8573 295.674 32.8289 295.366 32.7306C295.059 32.6324 294.777 32.4667 294.541 32.2457C294.306 32.0248 294.122 31.754 294.005 31.4533C293.887 31.1525 293.838 30.8293 293.861 30.5071C293.861 30.5071 293.166 18.1451 293.403 6.68117Z" fill="#FEB186"/>
<path d="M81.7495 47.2438C81.2059 44.7211 80.4862 42.2396 79.5958 39.8175C79.5559 39.6876 79.4678 39.5779 79.3496 39.5109C79.2314 39.4439 79.0921 39.4246 78.9601 39.4571C77.7259 39.7039 67.8077 42.1526 67.6608 42.708C67.3955 42.9796 69.4628 47.7511 69.875 52.9101C69.4708 52.6595 68.9936 52.5528 68.5211 52.6075C68.0486 52.6621 67.6084 52.8749 67.2721 53.2113C67.0214 53.4742 66.8386 53.7944 66.7397 54.144C66.6408 54.4936 66.6287 54.8621 66.7044 55.2175C66.7802 55.5728 66.9415 55.9043 67.1745 56.1831C67.4074 56.462 67.7048 56.6798 68.041 56.8177C68.3833 56.997 68.7657 57.0862 69.152 57.0767C69.5384 57.0672 69.9159 56.9593 70.249 56.7634C70.5175 56.5347 70.726 56.2439 70.8566 55.9164C70.9871 55.5888 71.0357 55.2343 70.9982 54.8836C70.9286 51.8992 70.4655 48.937 69.6208 46.0738L79.7488 43.6053C80.4351 45.9689 81.6002 50.1146 81.2484 52.5497C80.7426 52.0905 80.0901 51.8261 79.4074 51.8034C78.7246 51.7808 78.0561 52.0016 77.521 52.4263C77.1954 52.6656 76.9438 52.9918 76.795 53.3675C76.6462 53.7432 76.6063 54.1532 76.6797 54.5505C76.7531 54.9479 76.9369 55.3165 77.2102 55.6143C77.4834 55.912 77.8349 56.1267 78.2245 56.2339C82.1457 57.4335 82.8504 52.43 81.7495 47.2438ZM67.6794 54.9713C67.6274 54.6982 67.6752 54.4156 67.814 54.1748C67.9529 53.934 68.1736 53.7511 68.4359 53.6593C69.2123 53.3779 70.2058 54.0678 69.9084 55.46C69.6479 56.6646 67.8879 55.834 67.6794 54.9713ZM69.3468 45.0827L68.8445 43.3301C72.0895 42.197 75.4036 41.2719 78.7664 40.5605C79.0132 41.243 79.2601 41.9317 79.4687 42.6278C76.0968 43.4375 72.7228 44.2558 69.3468 45.0827ZM78.4516 55.2317C76.4868 54.5344 78.6738 51.3439 80.9806 53.6531C80.4215 55.0848 79.3267 55.5427 78.4516 55.2317ZM54.2338 91.9461C53.6903 89.4228 52.9702 86.9409 52.0788 84.5185C52.0387 84.3888 51.9506 84.2793 51.8324 84.2123C51.7143 84.1454 51.5751 84.126 51.4432 84.1581C50.1806 84.4173 40.2908 86.8549 40.1427 87.4091C39.8958 87.667 41.9397 92.4694 42.3642 97.6112C41.9601 97.3608 41.4832 97.2543 41.011 97.309C40.5387 97.3637 40.0988 97.5762 39.7625 97.9123C39.5115 98.1751 39.3285 98.4953 39.2294 98.845C39.1303 99.1947 39.1182 99.5632 39.194 99.9187C39.2697 100.274 39.4312 100.606 39.6643 100.885C39.8974 101.163 40.195 101.381 40.5314 101.519C40.8734 101.698 41.2556 101.788 41.6417 101.778C42.0279 101.769 42.4053 101.661 42.7382 101.466C43.0066 101.237 43.2151 100.946 43.3459 100.618C43.4766 100.29 43.5256 99.9356 43.4886 99.5847C43.4184 96.6002 42.9549 93.638 42.11 90.7748L52.2393 88.3064C52.9279 90.6884 54.0906 94.8144 53.7376 97.2508C50.0855 94.5355 47.232 99.8673 50.7125 100.937C54.6225 102.135 55.331 97.094 54.2338 91.9461ZM40.1723 99.6809C40.1201 99.408 40.1678 99.1255 40.3067 98.8848C40.4456 98.6442 40.6664 98.4615 40.9288 98.3702C41.7113 98.0851 42.7 98.7861 42.4 100.171C42.1371 101.367 40.3771 100.537 40.1723 99.6809ZM41.8385 89.7862L41.3374 88.0336C44.5826 86.9009 47.8966 85.9758 51.2593 85.264C51.5061 85.9465 51.7468 86.6352 51.9616 87.3313C48.5806 88.1476 45.2079 88.9659 41.8385 89.7862ZM50.9446 99.9352C48.9994 99.2416 51.1655 96.0486 53.4735 98.3566C52.9082 99.7945 51.8147 100.246 50.9446 99.9352ZM79.1737 83.3645C78.8034 83.2757 76.4942 87.9102 72.7705 91.6338C72.6843 91.1417 72.4295 90.6949 72.0498 90.3701C71.6701 90.0454 71.1892 89.8629 70.6896 89.8541C70.1517 89.9006 69.646 90.1299 69.2564 90.5037C68.8668 90.8774 68.6169 91.3733 68.5481 91.9088C68.4793 92.4443 68.5959 92.9872 68.8783 93.4473C69.1608 93.9074 69.5922 94.257 70.1009 94.438C71.0044 94.6651 71.7807 93.969 72.3966 93.4197C74.449 91.5116 76.2659 89.3648 77.8086 87.0252C80.6177 89.0716 83.4297 91.1183 86.2445 93.1655C84.8523 95.2637 82.5024 98.7318 80.398 100.098C80.1253 95.6487 74.4997 96.8348 75.5327 99.9377C76.5423 102.965 80.4091 102.683 84.7721 97.0274C86.3493 94.9745 87.7824 92.8148 89.061 90.5638C89.1175 90.4664 89.1402 90.3532 89.1257 90.2416C89.1112 90.13 89.0602 90.0263 88.9808 89.9466C87.2776 88.6137 79.6982 83.193 79.1737 83.3645ZM69.7615 91.329C69.9377 91.0998 70.1935 90.9452 70.4783 90.8956C70.763 90.846 71.056 90.9051 71.2993 91.0611C71.9387 91.4771 72.1077 92.5545 70.9291 93.2889C69.8207 93.948 69.2184 92.1065 69.7615 91.329ZM77.2902 98.2406C78.7713 97.858 79.444 99.3637 79.365 100.609C76.6731 101.504 75.5339 98.6849 77.2902 98.2406ZM78.3875 86.1847C78.7293 85.6824 79.0638 85.1739 79.3983 84.6654C82.361 86.405 85.21 88.3314 87.928 90.4329C87.5668 91.0616 87.192 91.6881 86.8036 92.3126C84.0093 90.2688 81.2015 88.2286 78.3875 86.1847ZM0.677184 17.2251C0.378439 17.9701 0.378439 18.8016 0.677184 19.5466C0.695607 19.6213 0.731207 19.6906 0.781141 19.749C0.831074 19.8075 0.893966 19.8534 0.964807 19.8833C1.03565 19.9131 1.11248 19.926 1.18918 19.9209C1.26588 19.9158 1.34034 19.8929 1.40661 19.854C1.71291 20.0739 2.07199 20.2086 2.44732 20.2447C2.82264 20.2807 3.20081 20.2166 3.54332 20.0589C3.88583 19.9013 4.18045 19.6557 4.3972 19.3472C4.61395 19.0387 4.7451 18.6782 4.77727 18.3025C4.81221 17.8013 4.6711 17.3036 4.37829 16.8953C4.08549 16.487 3.65936 16.1937 3.17341 16.066C2.68747 15.9383 2.17218 15.9842 1.71647 16.1958C1.26075 16.4074 0.893185 16.7714 0.677184 17.2251ZM3.74176 18.1816C3.7344 18.3383 3.6944 18.4917 3.62433 18.6321C3.55425 18.7725 3.45563 18.8966 3.33479 18.9967C3.21396 19.0967 3.07357 19.1704 2.9226 19.2131C2.77163 19.2558 2.61343 19.2664 2.4581 19.2444C2.30277 19.2224 2.15375 19.1682 2.02058 19.0853C1.8874 19.0024 1.77301 18.8926 1.68472 18.7629C1.59642 18.6332 1.53618 18.4866 1.50785 18.3323C1.47951 18.178 1.48371 18.0194 1.52016 17.8669C1.58398 17.5924 1.74828 17.3519 1.98068 17.1926C2.21309 17.0333 2.49673 16.9669 2.7757 17.0064C3.05466 17.0459 3.30871 17.1884 3.48776 17.406C3.66681 17.6235 3.75664 17.9002 3.74176 18.1816ZM14.7078 21.8423C14.8757 22.1464 15.1098 22.4089 15.3927 22.6104C15.6757 22.8119 16.0003 22.9473 16.3426 23.0065C16.6848 23.0658 17.0361 23.0474 17.3703 22.9527C17.7045 22.858 18.0132 22.6894 18.2735 22.4594C18.6684 22.1483 18.9298 21.6982 19.0043 21.201C19.0788 20.7038 18.9609 20.1969 18.6746 19.7836C18.4619 19.4965 18.1902 19.2583 17.8778 19.085C17.5654 18.9117 17.2195 18.8072 16.8633 18.7787C16.5072 18.7501 16.1491 18.7982 15.813 18.9196C15.477 19.041 15.1708 19.2329 14.9152 19.4825C14.839 19.46 14.7586 19.4557 14.6805 19.4701C14.6024 19.4844 14.5288 19.5169 14.4656 19.565C14.4024 19.6131 14.3514 19.6753 14.3167 19.7468C14.282 19.8182 14.2647 19.8968 14.266 19.9762C14.2548 20.0873 14.2503 20.199 14.2524 20.3106C14.0442 20.6559 13.8886 21.0303 13.7908 21.4214C13.7651 21.5367 13.7797 21.6573 13.8321 21.7631C13.8846 21.8689 13.9718 21.9534 14.0791 22.0027C14.1864 22.0519 14.3074 22.0629 14.4218 22.0337C14.5363 22.0045 14.6372 21.9369 14.7078 21.8423ZM16.4468 19.8206L16.474 19.8145C17.5527 19.6799 18.4981 20.734 17.7452 21.5424C16.8368 22.5298 15.5323 21.8682 15.3101 20.5784C15.5786 20.1902 15.9852 19.9191 16.4468 19.8206Z" fill="#4355E6"/>
</g>
<defs>
<clipPath id="clip0_3536_8298">
<rect width="346" height="225" fill="white"/>
</clipPath>
</defs>
</svg>
