<svg width="346" height="226" viewBox="0 0 346 226" fill="none" xmlns="http://www.w3.org/2000/svg">
<path d="M166.897 117.423C166.897 182.358 167.176 179.488 166.246 182.082C165.64 183.956 164.52 185.622 163.013 186.891C161.334 188.401 159.329 189.501 157.154 190.107C156.657 190.222 130.196 194.924 103.335 198.682C93.2293 200.097 86.5417 199.595 87.3275 186.262C87.3331 186.169 84.7933 63.5849 84.7886 63.4909C84.5107 54.3982 84.7463 45.297 85.4945 36.2308C85.9967 30.6387 90.6002 28.4067 96.1067 27.5892C100.68 26.9122 151.245 35.855 157.171 38.3381C159.282 39.3368 161.054 40.9317 162.268 42.9258C167.082 49.8953 165.695 59.5059 165.771 65.563C165.895 75.328 165.914 64.1559 167.053 117.411C167.002 117.422 166.949 117.426 166.897 117.423ZM88.9318 180.471C88.9755 190.587 87.056 198.477 98.5796 197.538C112.872 196.375 142.452 190.588 152.782 189.652C160.111 188.988 166.148 185.089 166.081 177.848C165.556 119.571 166.267 132.244 165.236 81.7254C165.11 75.5037 164.938 69.2811 164.823 63.0594C164.678 55.1544 165.731 49.4749 161.416 43.123C158.459 38.7715 153.982 37.6406 146.947 36.5721C118.101 32.1899 102.734 28.5787 97.3892 29.0502C93.5762 29.3869 87.1936 31.7547 86.8802 35.3082C85.0202 56.2183 88.9262 179.008 88.9318 180.471Z" fill="#29175F"/>
<path d="M178.895 117.141C180.672 53.5904 180.131 76.0471 180.092 57.8247C180.077 50.805 181.662 42.8759 187.554 39.074C192.789 35.6972 245.407 26.984 249.864 27.5885C254.285 28.1912 259.667 30.3478 260.254 34.7495C260.588 37.2605 260.919 39.7799 261.008 42.3076C261.862 66.5034 260.884 63.1992 260.775 70.5796C260.682 76.6246 260.956 99.0088 260.496 118.919C260.068 137.333 258.874 168.36 258.561 180.661C258.468 184.433 259.287 187.881 258.028 193.297C257.069 197.422 253.866 199.402 249.801 199.255C243.632 198.904 237.491 198.18 231.41 197.088C207.221 193.265 227.498 196.65 200.79 192.118C188.874 190.095 188.636 190.385 185.735 188.799C184.026 187.969 182.544 186.736 181.418 185.205C180.293 183.675 179.556 181.893 179.273 180.015C179.119 178.992 179.165 183.518 179.165 117.152C179.068 117.148 178.984 117.148 178.895 117.141ZM259.177 114.033C259.141 114.034 259.105 114.032 259.069 114.027C259.153 108.207 259.315 102.391 259.302 96.5703C259.199 48.2475 260.527 72.3903 259.279 36.5593C259.268 35.5795 259.003 34.6193 258.511 33.7719C258.019 32.9246 257.316 32.2189 256.47 31.7233C252.894 29.4072 248.592 28.4845 244.38 29.1305C237.167 29.9675 227.615 31.8321 217.33 33.5945C198.275 36.8662 196.145 36.6997 191.915 38.1877C187.079 39.8878 185.662 40.5127 183.033 45.9728C180.662 50.9018 181.26 55.323 181.057 67.9691C179.866 142.369 180.29 89.2438 179.967 177.883C179.897 179.491 180.219 181.091 180.905 182.547C181.592 184.002 182.622 185.269 183.907 186.237C186.196 188.073 188.957 189.223 191.873 189.555C205.568 191.008 196.17 190.27 234.746 195.98C239.796 196.847 244.897 197.395 250.016 197.621C253.715 197.699 256.491 195.162 256.754 192.668C257.514 185.465 257.039 181.628 257.083 174.967C257.108 171.837 256.657 187.835 259.177 114.033Z" fill="#29175F"/>
<path d="M95.158 181.932C94.7507 176.595 94.1871 164.242 93.4152 152.528C92.2341 134.601 92.6024 126.243 91.9272 69.7963C91.7979 59.1059 92.661 50.8596 92.8488 47.627C104.369 50.138 124.307 51.2977 159.158 55.346C160.488 55.5003 160.452 55.5375 160.53 56.8972C161.756 78.503 161.46 100.135 161.703 121.759C161.871 136.566 162.104 170.811 162.104 172.902C150.553 174.425 152.649 173.989 139.319 175.477C100.328 179.828 98.9794 182.145 95.158 181.932ZM156.91 130.344L156.766 128.385C158.084 128.81 159.395 129.227 160.772 129.67C160.772 129.577 160.42 75.4144 159.67 57.2562C159.647 56.6759 159.473 56.4889 158.91 56.4359C135.195 54.2039 107.61 51.8157 94.0839 48.968C93.9909 49.3512 93.5342 61.8783 93.5389 66.8742C93.5463 75.0722 94.1555 88.0196 94.1555 138.112C94.5842 138.235 94.1555 138.267 96.0778 137.112C97.8997 136.017 99.728 134.935 101.549 133.845C102.789 134.133 104.025 134.411 105.269 134.698C101.645 136.113 98.1842 137.914 94.946 140.07C94.7569 140.166 94.6035 140.32 94.5078 140.509C94.4121 140.699 94.3793 140.913 94.414 141.123C94.6344 144.805 94.8037 148.489 95.0074 152.165C96.7344 183.336 96.4386 176.711 96.4386 180.324C135.045 173.512 133.526 174.978 161.055 171.874C161.055 154.898 161.166 168.309 160.81 132.218C160.805 131.739 160.744 131.438 160.186 131.302C159.084 131.031 157.999 130.673 156.91 130.344Z" fill="#29175F"/>
<path d="M122.153 187.627C120.386 186.642 120.758 182.428 124.902 182.081C127.998 181.823 131.1 181.609 134.202 181.374C137.392 181.134 137.901 184.53 135.64 186.016C133.379 187.502 123.922 188.611 122.153 187.627ZM126.974 186.926C129.678 186.562 132.888 186.307 135.358 185.285C135.612 185.202 135.84 185.056 136.022 184.86C136.204 184.665 136.333 184.427 136.398 184.168C136.463 183.909 136.461 183.638 136.393 183.38C136.325 183.122 136.193 182.885 136.009 182.692C135.124 181.79 134.754 182.085 124.849 182.848C121.946 183.072 120.835 186.736 123.724 186.92C124.681 186.981 125.639 186.926 126.974 186.926Z" fill="#29175F"/>
<path d="M125.254 42.4222C125.254 42.2362 125.267 39.4629 128.036 39.4629C132.003 39.4629 133.138 46.7281 129.001 46.7281C128.174 46.7271 125.254 46.4928 125.254 42.4222ZM128.367 40.365C127.759 40.4244 127.195 40.7065 126.783 41.1568C126.371 41.6071 126.14 42.194 126.135 42.8044C126.135 42.8713 126.192 45.931 128.882 45.931C132.16 45.931 131.098 40.365 128.367 40.365Z" fill="#29175F"/>
<path d="M250.86 181.919C250.421 181.951 249.98 181.947 249.542 181.908C241.451 180.506 233.397 178.896 225.269 177.745C213.852 176.129 207.408 175.885 185.54 173.104C183.942 172.901 183.949 172.847 183.954 171.224C184.039 139.109 184.772 56.5903 185.714 55.532C185.993 55.2205 186.745 55.3348 187.29 55.2744C217.403 51.9171 219.332 52.0696 243.408 49.2796C246.091 48.969 248.75 48.4426 251.415 48.0036C251.99 47.9106 252.552 47.7525 253.2 47.6084C253.247 48.2799 253.277 48.8174 253.331 49.3512C254.72 63.0771 253.849 76.8206 253.738 90.5586C253.459 125.062 254.179 129.079 252.235 158.84C251.567 169.115 251.159 179.671 250.86 181.919ZM185.574 139.325C185.302 139.643 185.146 140.044 185.13 140.462C185.125 141.837 184.922 168.746 184.992 170.141C188.16 167.016 191.13 163.878 195.005 161.799C193.729 159.436 192.293 157.506 193.502 152.17C196.407 139.349 203.071 127.99 202.767 127.839C202.766 128.028 194.569 129.318 185.573 139.323L185.574 139.325ZM217.355 91.337C217.156 91.2158 216.925 91.1596 216.693 91.1763C216.461 91.193 216.24 91.2817 216.061 91.43C214.806 92.2605 213.523 92.346 212.702 91.4784C212.424 91.2152 212.087 91.0224 211.719 90.9161C211.351 90.8098 210.963 90.7931 210.588 90.8673C211.053 92.2623 210.673 92.8157 209.186 92.9636C209.07 92.9992 208.963 93.0602 208.873 93.142C208.783 93.2238 208.712 93.3245 208.666 93.4369C208.3 94.3669 207.821 95.376 206.754 95.2969C205.991 95.2754 205.25 95.5577 204.695 96.0819C204.467 96.2427 204.162 96.2976 203.928 96.4538C203.766 96.5617 203.556 96.7775 203.563 96.9328C203.954 105.137 203.334 111.162 208.485 114.456C209.934 115.284 211.434 116.018 212.977 116.653C213.503 116.9 213.955 117.18 213.947 117.839C213.924 119.749 213.903 121.666 213.827 123.576C213.769 125.043 209.796 126.003 208.695 126.349C209.997 127.122 210.871 128.457 215.234 128.581C217.828 128.643 220.407 128.179 222.816 127.215C224.068 126.724 225.26 126.084 226.475 125.508C226.391 125.201 222.599 124.193 222.505 124.167C222.258 124.114 222.04 123.97 221.895 123.763C221.751 123.555 221.691 123.301 221.727 123.051C221.794 116.827 221.74 118.907 221.84 117.099C218.899 118.088 218.399 118.141 217.726 117.471C218.098 117.268 218.432 117.059 218.791 116.903C219.628 116.539 220.48 116.237 221.295 115.837C226.244 113.408 227.692 110.315 228.921 104.895C229.915 105.374 230.831 105.836 231.844 105.188C231.797 105.128 231.759 105.062 231.73 104.991C231.167 103.992 231.823 103.896 232.454 104.171C232.768 104.213 232.898 104.753 233.514 104.255C236.238 102.052 233.479 98.1864 230.831 99.8056C230.665 99.9157 230.478 99.99 230.281 100.024C230.084 100.058 229.883 100.051 229.689 100.003C229.496 99.9549 229.314 99.8674 229.156 99.7457C228.998 99.624 228.867 99.4709 228.771 99.2959C228.594 98.8853 228.465 98.4552 228.388 98.0144C226.61 98.206 226.215 97.7986 225.877 95.296C224.826 95.296 223.751 95.3509 222.841 94.4032C221.799 93.3179 222.004 92.1712 222.128 90.8525C220.695 91.8531 219.375 92.3963 217.354 91.3361L217.355 91.337ZM251.967 48.9132C250.8 49.1922 249.721 49.5474 248.619 49.6981C228.632 52.4295 239.393 51.2019 187.308 56.4053C186.657 56.4704 186.386 56.6266 186.368 57.3753C186.23 63.0706 185.96 68.7659 185.882 74.4668C185.882 74.5598 185.076 136.736 185.194 137.562C185.676 137.83 189.443 131.286 199.908 127.292C207.486 124.398 208.763 125.556 212.298 123.375C212.399 123.292 212.48 123.188 212.537 123.07C212.594 122.952 212.625 122.824 212.627 122.693C212.627 121.327 212.502 119.961 212.568 118.601C212.604 117.857 212.31 117.625 211.706 117.384C209.692 116.753 207.823 115.729 206.208 114.372C206.107 114.306 205.994 114.261 205.876 114.24C205.758 114.218 205.637 114.22 205.519 114.247C204.602 114.364 203.67 114.235 202.819 113.874C201.968 113.513 201.228 112.933 200.674 112.192C199.866 110.994 199.545 109.533 199.777 108.107C200.009 106.68 200.777 105.396 201.924 104.517C202.141 104.302 202.269 104.014 202.284 103.709C202.332 101.439 202.341 99.1629 202.338 96.8937C202.336 96.7781 202.31 96.6642 202.262 96.559C202.214 96.4539 202.145 96.3598 202.059 96.2827C200.186 94.9677 201.303 93.8564 201.222 92.8938C201.105 92.1437 201.029 91.3877 200.994 90.6293C200.973 88.6284 201.385 86.6467 202.203 84.8205C201.683 84.8224 201.179 84.6447 200.775 84.3174C200.371 83.9902 200.093 83.5335 199.987 83.0247C199.77 81.8026 200.742 81.2335 201.556 80.6411C199.999 77.6586 200.988 75.5865 202.874 74.8862C202.633 74.0293 202.617 73.1246 202.829 72.26C203.041 71.3954 203.473 70.6002 204.083 69.9516C204.583 69.2137 205.299 68.6487 206.134 68.3345C206.968 68.0202 207.879 67.9721 208.742 68.1967C209.393 65.7229 211.263 64.8246 213.443 64.5372C214.506 64.4443 215.576 64.5787 216.583 64.9315C217.589 65.2842 218.509 65.8473 219.282 66.5832C220.706 64.9092 221.957 64.7102 223.791 65.8159C225.1 66.5276 226.144 67.6433 226.767 68.9965C228.432 67.9605 229.836 68.1726 231.312 69.6606C232.204 70.5787 232.766 71.7665 232.912 73.0383C233.098 74.3794 232.337 75.3503 231.439 76.3621C232.019 76.171 232.645 76.1645 233.229 76.3435C233.813 76.5226 234.328 76.8784 234.702 77.3619C235.108 77.8084 235.334 78.3889 235.339 78.9922C235.343 79.5955 235.125 80.1793 234.726 80.6318C235.179 80.833 235.583 81.1316 235.908 81.5064C236.233 81.8812 236.471 82.323 236.606 82.8003C236.741 83.2777 236.769 83.7789 236.689 84.2684C236.608 84.7579 236.421 85.2236 236.14 85.6324C236.576 85.9739 236.902 86.4372 237.076 86.9637C237.249 87.4902 237.263 88.0564 237.115 88.5907C236.981 89.1063 236.661 89.5541 236.217 89.8482C235.773 90.1422 235.235 90.2617 234.708 90.1838C234.708 93.5141 233.023 93.7727 233.127 94.2758C233.4 95.7111 233.25 97.1946 232.696 98.5464C236.163 99.4029 236.708 102.499 233.936 105.421C234.457 106.172 234.784 107.042 234.885 107.951C234.987 108.861 234.86 109.781 234.516 110.629C234.237 111.556 233.627 112.349 232.803 112.858C231.979 113.367 230.997 113.556 230.043 113.389C229.155 113.117 228.293 112.767 227.467 112.341C226.321 113.912 224.879 115.245 223.222 116.264C222.757 116.543 222.95 117.237 223.001 121.78C223.013 122.911 222.989 122.948 224.117 123.211C235.1 125.775 238.946 125.848 251.946 133.499C251.946 127.031 252.181 92.9515 252.359 78.3328C252.551 62.8539 252.722 64.4553 251.967 48.9132ZM239.31 129.032C237.992 128.464 240.496 129.287 229.818 126.169C227.253 125.42 228.981 126.437 224.435 128.391C220.94 130.02 217.049 130.604 213.23 130.073C207.72 129.197 207.729 126.473 206.894 126.606C205.555 126.819 204.356 127.151 203.744 128.63C201.772 133.399 197.42 141.617 194.942 152.686C194.588 153.97 194.498 155.311 194.676 156.631C194.854 157.95 195.297 159.22 195.978 160.363C198.732 164.866 198.891 166.917 199.714 172.879C199.935 174.481 199.599 172.058 240.023 178.533C242.029 172.86 243.263 167.041 244.868 161.37C243.002 160.534 241.306 159.36 239.867 157.908C235.284 153.122 234.761 145.868 235.424 139.308C235.677 135.574 237.029 131.999 239.31 129.032ZM244.587 159.639C243.687 158.03 243.324 157.593 242.921 156.776C242.819 156.567 242.975 156.231 243.014 155.951C243.272 156.01 243.595 155.992 243.781 156.142C244.138 156.425 244.444 156.767 244.685 157.154C249.521 165.233 248.64 163.906 250.039 166.849C250.23 165.681 249.833 169.837 251.853 136.134C251.877 135.935 251.839 135.734 251.745 135.557C251.651 135.38 251.505 135.237 251.327 135.146C248.158 133.135 244.841 131.37 241.403 129.864C241.214 129.746 240.987 129.706 240.769 129.753C240.551 129.8 240.359 129.93 240.235 130.115C236.931 133.763 236.548 140.727 236.804 145.662C236.863 149.272 237.977 152.785 240.008 155.77C241.067 157.528 242.675 158.888 244.584 159.642L244.587 159.639ZM249.503 180.324C249.885 171.071 249.953 171.266 249.713 170.616C248.755 167.736 247.544 164.947 246.095 162.28C244.742 167.981 243.584 173.509 241.46 178.803C244.128 179.314 246.775 179.81 249.5 180.327L249.503 180.324ZM198.421 173.377C197.834 169.729 197.677 166.101 195.624 162.961C191.936 165.588 188.541 168.603 185.497 171.956C189.89 172.439 194.124 172.906 198.418 173.38L198.421 173.377ZM228.237 83.4106C228.024 83.7186 227.768 83.9948 227.477 84.2309C227.261 84.3525 227.09 84.5407 226.989 84.7674C226.888 84.9942 226.864 85.2473 226.919 85.4892C227.006 86.5753 226.673 87.6536 225.989 88.5014C225.675 88.8343 225.333 89.1386 224.966 89.411C228.056 91.6513 230.422 94.2739 231.569 98.0051C231.7 97.7019 231.814 97.3914 231.91 97.0751C232.132 96.2281 232.175 95.3443 232.037 94.4797C231.899 93.6151 231.582 92.7887 231.107 92.0531C230.956 91.7837 230.824 91.504 230.712 91.2161C231.904 91.2821 232.138 92.3005 232.73 92.9468C233.749 91.2403 233.867 90.0638 233.009 88.6828C231.975 87.0348 230.835 84.6708 228.235 83.4134L228.237 83.4106ZM217.827 90.5642C218.299 90.606 218.743 90.6832 219.18 90.6832C219.606 90.7165 220.034 90.6505 220.431 90.4906C220.827 90.3307 221.181 90.0811 221.465 89.7614C221.748 89.4417 221.954 89.0607 222.066 88.6481C222.178 88.2356 222.192 87.8027 222.109 87.3836C221.815 85.1516 220.821 83.0665 218.683 82.3058C216.545 81.545 215.346 82.0119 215.456 84.5936C215.466 85.0498 215.588 85.4965 215.809 85.8956C217.647 88.9376 218.801 88.8492 217.827 90.5642ZM224.582 77.3107L224.726 77.1136C221.047 74.079 213.875 73.2355 213.161 77.3926C213.091 77.9606 213.079 78.5343 213.126 79.1047C213.152 79.7641 214.437 80.3918 214.934 79.9677C217.33 77.9217 220.194 78.5541 220.683 78.2249C221.843 77.49 223.216 77.1679 224.582 77.3107ZM215.647 80.5388C216.096 81.1795 216.102 81.2223 216.845 81.0782C219.84 80.496 223.709 84.1834 223.15 88.9171C223.637 88.7236 224.078 88.4308 224.446 88.0573C224.813 87.6838 225.099 87.2378 225.284 86.7477C225.47 86.2577 225.551 85.7344 225.523 85.2112C225.495 84.6881 225.358 84.1765 225.121 83.7091C223.452 79.8999 219.749 78.5569 215.647 80.5388ZM206.55 85.0242C206.433 85.5817 206.444 86.1584 206.582 86.711C206.721 87.2636 206.982 87.7777 207.348 88.2146C207.713 88.6515 208.173 88.9998 208.692 89.2335C209.212 89.4671 209.778 89.5799 210.347 89.5635C212.366 89.6565 213.759 89.6928 215.072 88.1685C215.198 88.0217 215.289 87.8482 215.338 87.6611C215.388 87.4741 215.394 87.2783 215.356 87.0885C215.319 86.8988 215.239 86.72 215.122 86.5657C215.005 86.4114 214.855 86.2856 214.683 86.1978C213.977 85.8686 213.213 85.6847 212.435 85.657C211.658 85.6294 210.882 85.7586 210.155 86.0369C209.853 86.2108 209.495 86.2624 209.155 86.1809C208.816 86.0995 208.52 85.8912 208.329 85.5989C207.957 85.1748 207.618 85.2288 206.55 85.0242ZM229.614 106.745C229.343 108.361 228.859 109.933 228.176 111.422C230.512 112.643 232.427 112.008 233.255 109.748C233.437 109.227 233.504 108.671 233.45 108.121C233.397 107.571 233.223 107.039 232.943 106.563C232.859 106.472 232.754 106.402 232.638 106.358C232.521 106.315 232.396 106.298 232.273 106.311C231.42 106.411 230.576 106.583 229.619 106.745H229.614ZM212.294 79.7185C212.01 78.9583 211.907 78.1426 211.992 77.3358C212.077 76.5289 212.349 75.7528 212.785 75.0685C211.076 75.649 209.544 76.6572 208.335 77.9971C207.761 78.5599 207.326 79.2483 207.064 80.0081C206.803 80.7678 206.721 81.5779 206.826 82.3746C206.83 82.712 206.909 83.0443 207.058 83.3469C207.207 83.6495 207.423 83.9147 207.688 84.123C207.862 81.6771 208.76 79.9817 212.294 79.7185ZM214.533 84.8084C214.436 84.2194 214.474 83.616 214.646 83.0442C214.817 82.4724 215.116 81.9472 215.522 81.5088C214.382 80.9782 213.111 80.7951 211.869 80.9824C211.168 81.0638 210.494 81.2967 209.892 81.665C208.792 82.5104 208.67 83.8384 209.353 85.372C210.904 83.7724 212.694 84.2523 214.533 84.8084ZM206.07 88.4735C206.04 88.4084 205.95 88.2401 205.872 88.0662C205.588 87.564 205.43 87.0006 205.411 86.424C205.393 85.8475 205.514 85.275 205.764 84.7554C205.892 84.5555 205.949 84.3179 205.926 84.0815C205.902 83.8451 205.799 83.6237 205.633 83.4534C205.426 83.6523 205.192 83.8216 204.938 83.9565C204.215 84.2191 203.591 84.6979 203.149 85.3278C202.708 85.9577 202.471 86.7083 202.471 87.4775C202.342 88.7646 202.219 90.0462 202.076 91.4421C203.514 90.3726 204.766 89.4379 206.065 88.4735H206.07ZM202.453 105.445C200.944 107.26 200.64 109.086 201.566 110.997C202.217 112.332 203.459 112.751 204.998 112.92C203.179 110.698 202.947 108.069 202.449 105.445H202.453ZM226.587 83.4915C227.02 83.0158 227.27 82.4016 227.292 81.7587C227.314 81.1157 227.106 80.4859 226.707 79.9817C226.194 79.3234 225.478 78.8535 224.671 78.6455C223.863 78.4375 223.009 78.5032 222.243 78.8322C223.239 79.2822 224.136 79.9259 224.881 80.7258C225.626 81.5258 226.204 82.4659 226.582 83.4915H226.587ZM213.195 90.7557C213.933 90.8989 214.698 90.8072 215.382 90.4935C216.066 90.1797 216.634 89.6597 217.008 89.0064C216.745 88.7274 216.481 88.4382 216.194 88.1322C215.629 89.4863 215.264 89.8034 213.192 90.7557H213.195Z" fill="#29175F"/>
<path d="M222.124 188.117C216.998 187.36 210.628 187.851 209.213 184.578C209.042 184.245 208.96 183.874 208.974 183.5C208.989 183.126 209.1 182.762 209.296 182.443C209.493 182.125 209.768 181.862 210.095 181.681C210.423 181.5 210.792 181.407 211.166 181.41C212.586 181.396 211.2 181.436 220.969 182.061C225.24 182.336 225.712 186.533 223.922 187.595C223.349 187.85 222.744 188.026 222.124 188.117ZM212.039 182.087C209.221 181.911 209.042 184.375 210.519 185.207C210.981 185.452 211.472 185.639 211.98 185.765C215.362 186.635 218.849 187.028 222.34 186.934C224.118 186.916 224.097 185.713 223.777 184.562C223.625 184.016 222.847 182.965 220.884 182.807C212.92 182.165 212.493 182.171 212.039 182.087Z" fill="#29175F"/>
<path d="M217.995 39.4346C219.512 39.4346 220.963 40.6538 220.803 42.0386C220.71 46.9322 217.39 46.7565 217.269 46.7565C216.635 46.7565 214.457 46.7323 214.457 43.7033C214.456 41.1365 216.4 39.4346 217.995 39.4346ZM217.18 45.9381C219.373 45.9381 219.888 43.8921 219.888 42.7947C219.913 42.1834 219.697 41.5868 219.286 41.1335C218.875 40.6802 218.302 40.4064 217.692 40.3711C214.889 40.3711 213.956 45.9381 217.176 45.9381H217.18Z" fill="#29175F"/>
<path d="M109.702 53.6448C108.358 53.2951 98.3303 52.4191 98.228 52.4116C97.683 52.3698 97.8234 54.8854 97.815 69.5683C97.815 70.7243 97.8085 70.7596 98.9403 70.7364C102.504 70.6629 106.067 70.568 109.635 70.4788C110.593 70.4546 110.736 70.3532 110.743 69.413C110.78 64.6284 110.807 59.8436 110.827 55.0584C110.827 54.0047 110.727 53.9117 109.702 53.6448ZM99.1803 69.9338C99.1803 66.0789 98.7292 65.9599 100.971 64.4189C101.172 64.2973 101.387 64.1988 101.611 64.125C101.649 64.1091 101.692 64.107 101.731 64.1191C101.77 64.1311 101.804 64.1566 101.827 64.191C102.102 64.6753 102.243 65.2243 102.235 65.7813C102.226 66.3382 102.069 66.8828 101.78 67.3586C101.607 67.5706 101.057 67.6646 101.169 67.6646C101.204 67.473 101.247 67.2814 101.282 67.0898C101.096 67.1428 100.817 67.1428 100.744 67.2693C100.35 67.9678 99.3542 69.7487 99.1803 69.9338ZM101.289 69.7906C100.815 69.8422 100.339 69.8702 99.8629 69.8743C100.065 69.4197 100.308 68.9839 100.587 68.5723C100.587 68.5723 101.306 69.7534 101.289 69.7906ZM106.732 69.2512C106.671 69.426 106.961 69.2688 101.665 69.6046C101.628 69.6071 101.591 69.5974 101.56 69.5769C101.528 69.5564 101.505 69.5263 101.492 69.4911C101.306 68.9461 101.229 68.8689 101.36 68.7666C103.16 67.3577 103.432 66.2389 102.588 63.5586C102.96 63.4656 103.146 63.3103 103.462 63.4656C104.502 63.966 105.618 64.1957 106.552 63.3577C106.69 63.6814 106.811 63.9157 106.894 64.178C107.08 64.7462 107.19 65.3349 107.409 65.8911C107.592 66.2814 107.661 66.7154 107.608 67.1432C107.555 67.571 107.382 67.9751 107.109 68.3091C106.937 68.6023 106.81 68.9199 106.732 69.2512ZM102.528 59.1541C102.611 59.1145 102.704 59.1008 102.795 59.1147C102.885 59.1286 102.97 59.1696 103.037 59.2323C103.119 59.3237 103.22 59.3954 103.334 59.4417C103.447 59.4881 103.57 59.508 103.692 59.5C103.814 59.4919 103.933 59.4561 104.04 59.3952C104.146 59.3343 104.237 59.2499 104.306 59.1486C104.524 58.7766 105.05 58.5906 105.422 58.3283C105.621 58.5376 105.746 58.7933 105.932 58.8435C106.146 58.8675 106.343 58.9715 106.484 59.1346C106.625 59.2977 106.699 59.5079 106.692 59.7233C106.73 60.4059 106.896 61.0699 106.227 61.4485C105.646 61.7767 105.483 62.0353 105.688 62.9365C105.967 64.1761 104.16 63.3559 104.16 63.3559C104.012 63.368 104.077 62.2715 104.077 62.2715C104.095 62.2132 104.101 62.1519 104.095 62.0912C104.089 62.0305 104.071 61.9717 104.041 61.9181C103.788 61.6019 103.884 61.7154 103.592 61.3555C103.402 60.9981 103.259 60.6177 103.167 60.2236C103.124 60.1306 102.579 60.0683 102.454 59.8702C102.275 59.5866 102.36 59.1727 102.528 59.1541ZM102.283 58.7291C102.259 58.4284 102.251 58.1267 102.259 57.8252C102.632 57.9414 103.029 57.9634 103.414 57.8892C103.798 57.8151 104.158 57.6471 104.462 57.4002C104.617 57.2591 104.816 57.1756 105.025 57.1636C105.235 57.1516 105.442 57.2118 105.612 57.3341C106.062 57.6131 106.63 57.2876 106.965 57.3341C107.366 57.3899 107.121 58.3404 107.097 58.3218C106.734 58.1043 106.299 58.0397 105.888 58.1423C105.693 58.2308 105.481 58.2771 105.266 58.2783C105.052 58.2794 104.839 58.2353 104.643 58.1488C104.588 58.1181 102.348 58.7654 102.283 58.7291ZM108.83 69.545L107.714 69.4427C107.687 69.4399 107.662 69.4312 107.639 69.4173C107.617 69.4033 107.597 69.3844 107.583 69.362C107.569 69.3396 107.559 69.3142 107.556 69.2878C107.553 69.2614 107.556 69.2345 107.564 69.2093L107.864 68.377C107.874 68.3487 107.891 68.3235 107.914 68.3039C107.937 68.2843 107.964 68.2708 107.994 68.2648C108.023 68.2589 108.054 68.2606 108.083 68.2698C108.111 68.279 108.137 68.2954 108.158 68.3174L108.972 69.2474C108.997 69.2734 109.013 69.3062 109.018 69.3414C109.024 69.3767 109.019 69.4129 109.003 69.4451C108.988 69.4773 108.963 69.5041 108.932 69.522C108.901 69.5398 108.866 69.5479 108.83 69.545ZM109.453 68.5685C108.926 68.0533 108.313 67.8143 108.387 66.8862C108.311 66.1784 108.113 65.4892 107.8 64.8495C107.717 64.5798 107.639 64.311 107.521 63.9195C109.745 64.8699 109.457 66.0919 109.457 68.5685H109.453ZM109.699 55.8964C109.679 56.8329 109.537 63.0834 109.441 64.3826C107.534 62.4054 105.807 62.8435 105.835 62.4008C105.852 62.2514 105.925 62.114 106.04 62.0167C106.202 61.8895 106.372 61.7736 106.55 61.6698C106.669 61.6005 106.773 61.5082 106.856 61.3981C106.94 61.2881 107 61.1626 107.034 61.029C107.092 60.5476 107.07 60.06 106.97 59.5857C106.884 59.1607 107.082 59.3067 107.198 58.903C107.356 58.334 107.372 57.7347 107.244 57.1582C107.115 56.5817 106.846 56.0457 106.461 55.5978C106.167 55.2621 105.796 55.7838 105.647 55.5048C105.594 55.3814 105.509 55.2748 105.401 55.1965C105.292 55.1183 105.164 55.0715 105.03 55.0612C104.179 55.13 104.359 55.3653 103.952 55.4509C103.616 55.5216 103.28 55.2277 103.012 55.4267C102.693 55.6639 102.726 56.2423 102.539 56.5585C101.872 57.6838 102.09 57.8373 102.084 58.2325C102.088 58.5183 102.153 58.8 102.275 59.0584C102.338 59.1969 101.818 59.7968 102.772 60.3046C103.023 60.4375 103.002 60.9974 103.144 61.2346C103.339 61.4902 103.552 61.7325 103.779 61.96C103.975 62.2241 103.761 62.57 103.713 62.7384C102.131 62.9862 100.643 63.6496 99.4016 64.6607C99.2872 64.762 99.2221 53.7908 99.2221 53.7908C99.2214 53.7658 99.2262 53.7409 99.2362 53.7179C99.2462 53.695 99.2612 53.6745 99.28 53.6579C99.2988 53.6414 99.3211 53.6293 99.3452 53.6223C99.3692 53.6154 99.3946 53.6139 99.4193 53.6179C109.667 55.1905 109.746 53.7797 109.702 55.8964H109.699Z" fill="#29175F"/>
<path d="M151.933 75.0239C151.298 75.7958 150.592 76.5026 149.897 77.2271C149.339 77.8083 148.781 77.3294 149.22 76.7063C149.937 75.7523 150.717 74.8482 151.556 74C151.855 73.5806 153.598 72.5808 151.933 75.0239Z" fill="#29175F"/>
<path d="M153.113 83.9704C152.397 83.9374 151.686 83.8413 150.987 83.6831C150.574 83.5687 150.077 82.7363 151.101 82.7363C151.867 82.7494 152.631 82.8316 153.382 82.9818C155.479 83.1018 154.945 84.1397 153.113 83.9704Z" fill="#29175F"/>
<path d="M153.025 79.6111C152.14 79.7609 151.271 79.9977 150.432 80.3179C150.079 80.5039 149.656 80.0807 150.037 79.6669C150.141 79.5372 150.277 79.4377 150.432 79.3786C151.301 79.1665 152.194 79.0466 153.055 78.7917C154.583 78.3472 154.199 79.5032 153.025 79.6111Z" fill="#29175F"/>
<path d="M148.308 165.518C148.137 170.134 144.707 171.895 142.314 169.982C141.116 168.882 140.402 167.353 140.327 165.728C140.252 164.104 140.822 162.516 141.913 161.31C144.435 158.893 148.136 161.078 148.308 165.518ZM143.296 165.524C143.248 165.505 143.194 165.488 143.146 165.47C143.2 165.225 143.224 164.774 143.302 164.763C143.9 164.664 144.507 164.64 145.111 164.691C145.65 164.751 145.531 165.249 145.488 165.621C145.362 166.717 146.378 166.355 146.919 166.327C147.41 166.302 147.55 166.039 147.417 165.602C147.104 164.579 146.567 163.731 145.422 163.591C144.621 163.492 143.811 163.488 143.008 163.578C142.576 163.638 142.176 163.844 141.877 164.162C141.577 164.48 141.396 164.891 141.362 165.327C141.303 165.633 141.41 166.231 141.559 166.273C142.018 166.388 142.498 166.384 142.954 166.262C143.116 166.233 143.182 165.787 143.296 165.524Z" fill="#FE6B21"/>
<path d="M116.168 174.399C114.452 174.32 112.832 173.581 111.648 172.336C110.464 171.091 109.808 169.436 109.816 167.717C109.825 165.999 110.498 164.351 111.694 163.117C112.89 161.884 114.517 161.161 116.234 161.1C117.096 161.129 117.944 161.328 118.729 161.686C119.514 162.045 120.22 162.555 120.806 163.187C121.393 163.819 121.849 164.562 122.147 165.371C122.446 166.18 122.581 167.041 122.546 167.903C122.559 169.609 121.894 171.251 120.699 172.468C119.504 173.686 117.874 174.38 116.168 174.399ZM121.562 167.847C121.531 166.802 121.193 165.789 120.59 164.935C119.987 164.08 119.147 163.422 118.172 163.042C117.198 162.662 116.134 162.577 115.112 162.798C114.09 163.019 113.156 163.535 112.425 164.283C111.694 165.031 111.2 165.977 111.003 167.004C110.807 168.031 110.917 169.093 111.32 170.058C111.722 171.023 112.4 171.848 113.268 172.43C114.136 173.013 115.157 173.327 116.202 173.334C116.915 173.326 117.618 173.177 118.273 172.897C118.928 172.617 119.521 172.21 120.018 171.701C120.516 171.191 120.908 170.588 121.172 169.927C121.436 169.266 121.568 168.559 121.558 167.847H121.562Z" fill="#4355E6"/>
<path d="M137.125 166.516C136.95 171.498 132.185 173.801 129.082 170.918C127.919 169.762 127.223 168.217 127.128 166.579C127.033 164.941 127.546 163.326 128.568 162.043C129.034 161.467 129.632 161.012 130.313 160.72C130.993 160.427 131.735 160.304 132.473 160.363C133.212 160.421 133.925 160.659 134.551 161.055C135.177 161.451 135.697 161.994 136.066 162.637C136.8 163.794 137.169 165.146 137.125 166.516ZM136.371 166.565C136.391 161.822 132.107 159.869 129.454 162.504C128.563 163.483 128.051 164.749 128.011 166.073C127.971 167.397 128.407 168.691 129.239 169.721C129.595 170.189 130.056 170.567 130.585 170.824C131.115 171.081 131.697 171.21 132.285 171.201C132.873 171.192 133.451 171.045 133.971 170.772C134.492 170.499 134.942 170.107 135.284 169.628C135.967 168.751 136.348 167.676 136.371 166.565Z" fill="#4355E6"/>
<path d="M249.554 65.6065C249.534 66.5821 249.408 67.5595 249.308 68.5342C249.271 68.8997 249.146 69.1973 248.674 69.2596C240.017 70.3886 240.786 70.5495 238.595 70.157C238.451 70.1083 238.321 70.0251 238.216 69.9145C238.112 69.8039 238.036 69.6694 237.996 69.5228C237 59.7578 237.233 62.6659 237.684 53.7909C237.673 53.5487 237.755 53.3115 237.914 53.1278C238.072 52.9441 238.294 52.8277 238.535 52.8023C241.518 52.2304 244.487 51.5933 247.482 51.1078C249.356 50.8065 249.633 51.0837 249.679 52.9678C249.735 55.1961 249.593 63.6219 249.554 65.6065ZM247.773 61.376C247.91 58.3944 248.042 55.4416 248.18 52.448C245.111 52.9037 242.114 53.3464 239.012 53.8021V62.8444C239.293 62.5974 239.6 62.3824 239.928 62.2037C240.871 61.8131 240.773 62.5878 240.365 62.8742C239.449 63.5187 238.791 64.1502 239.035 65.4782C239.153 66.6505 239.167 67.8309 239.077 69.0057L247.863 67.7297C247.863 66.0948 247.84 64.5975 247.875 63.1011C247.898 62.8779 247.849 62.6531 247.735 62.46C247.62 62.2668 247.447 62.1157 247.24 62.0288C246.351 61.548 246.31 61.203 247.773 61.376Z" fill="#29175F"/>
<path d="M226.893 167.966C226.94 166.793 227.332 165.659 228.02 164.707C228.708 163.755 229.661 163.026 230.76 162.613C231.86 162.2 233.057 162.119 234.201 162.382C235.346 162.645 236.388 163.239 237.197 164.091C238.006 164.942 238.546 166.014 238.75 167.17C238.953 168.327 238.812 169.518 238.342 170.595C237.873 171.672 237.097 172.586 236.11 173.224C235.124 173.862 233.972 174.196 232.797 174.182C232.001 174.163 231.217 173.986 230.489 173.663C229.761 173.34 229.104 172.876 228.556 172.299C228.008 171.721 227.578 171.042 227.293 170.298C227.008 169.555 226.872 168.762 226.893 167.966ZM237.229 168.134C237.041 167.523 236.684 166.977 236.2 166.56C235.716 166.142 235.124 165.87 234.492 165.774C233.314 165.6 232.125 165.502 230.935 165.48C230.402 165.461 229.876 165.604 229.426 165.889C228.976 166.175 228.623 166.59 228.413 167.08C227.797 168.382 228.295 168.51 229.552 168.679C230.749 168.84 230.824 168.792 230.809 167.577C230.802 166.972 231.067 166.703 231.606 166.756C232.402 166.835 233.193 166.976 233.983 167.134C234.397 167.217 234.456 167.517 234.361 167.912C234.082 169.063 234.162 169.182 235.331 169.283C236.818 169.413 237.752 169.432 237.229 168.134Z" fill="#FE6B21"/>
<path d="M214.526 161.984C215.034 161.644 215.604 161.408 216.204 161.29C216.803 161.172 217.42 161.174 218.019 161.296C218.617 161.418 219.186 161.658 219.691 162.001C220.197 162.344 220.629 162.784 220.964 163.295C221.802 164.517 222.186 165.994 222.049 167.47C221.912 168.945 221.264 170.326 220.215 171.374C219.699 171.904 219.062 172.303 218.36 172.536C217.657 172.769 216.909 172.83 216.177 172.714C215.446 172.598 214.754 172.308 214.158 171.868C213.562 171.429 213.081 170.852 212.754 170.188C211.979 168.844 211.731 167.26 212.059 165.744C212.387 164.228 213.266 162.888 214.526 161.984ZM217.7 162.211C216.978 162.061 216.228 162.125 215.543 162.397C214.857 162.668 214.267 163.135 213.844 163.739C213.105 164.646 212.694 165.777 212.677 166.947C212.66 168.118 213.038 169.259 213.751 170.188C214.058 170.618 214.45 170.979 214.904 171.25C215.357 171.521 215.861 171.695 216.385 171.762C216.909 171.829 217.441 171.787 217.948 171.639C218.455 171.491 218.926 171.239 219.331 170.9C222.348 168.43 221.546 163.018 217.7 162.211Z" fill="#4355E6"/>
<path d="M207.358 162.984C207.998 164.141 208.258 165.47 208.1 166.782C207.942 168.095 207.376 169.324 206.48 170.297C204.341 172.417 201.043 171.572 200.006 168.601C197.843 162.414 204.355 158.098 207.358 162.984ZM206.872 163.804C206.69 163.313 206.388 162.875 205.993 162.531C205.599 162.186 205.124 161.946 204.613 161.832C204.102 161.717 203.57 161.733 203.066 161.877C202.562 162.02 202.103 162.288 201.729 162.655C200.914 163.487 200.404 164.57 200.279 165.727C200.154 166.885 200.422 168.051 201.039 169.038C203.806 172.986 209.089 168.818 206.872 163.804Z" fill="#4355E6"/>
<path d="M215.237 98.4874C215.297 99.9713 215.195 101.457 214.932 102.919C214.538 105.67 212.623 106.912 214.92 107.8C215.765 108.126 216.112 108.935 215.088 109.081C214.712 109.105 214.336 109.045 213.987 108.904C213.637 108.764 213.324 108.547 213.07 108.269C212.815 107.992 212.626 107.661 212.516 107.301C212.406 106.941 212.378 106.561 212.434 106.189C212.487 105.832 212.602 105.487 212.776 105.17C213.799 103.496 213.634 101.611 214.255 97.2533C214.299 96.9473 214.934 94.5889 215.237 98.4874Z" fill="#29175F"/>
<path d="M220.664 110.279C218.984 113.323 214.008 112.374 214.712 111.057C214.955 110.603 217.906 112.786 220.385 108.931C220.664 108.578 221.833 107.399 220.664 110.279Z" fill="#29175F"/>
<path d="M223.028 95.9296C223.063 96.034 223.058 96.1482 223.011 96.2484C222.965 96.3486 222.882 96.4271 222.779 96.4673C222.676 96.5075 222.562 96.5065 222.46 96.4643C222.358 96.4222 222.276 96.3422 222.231 96.2411C221.331 95.4358 220.403 94.0752 219.141 94.6899C218.376 95.0619 218.016 94.2946 218.794 93.918C220.707 92.9889 222.627 94.5718 223.028 95.9296Z" fill="#29175F"/>
<path d="M220.069 98.1875C220.4 98.2338 220.706 98.3912 220.935 98.6338C221.165 98.8765 221.305 99.19 221.333 99.523C221.337 99.8608 221.208 100.187 220.974 100.43C220.74 100.674 220.419 100.815 220.081 100.825C218.618 100.809 218.562 98.2163 220.069 98.1875Z" fill="#29175F"/>
<path d="M212.22 94.3905C211.356 94.4612 210.552 94.8607 209.975 95.5065C209.519 96.4885 209.143 95.884 209.31 95.0814C209.568 93.8362 211.687 93.0568 212.867 93.5544C213.641 93.6362 214.208 94.6602 212.22 94.3905Z" fill="#29175F"/>
<path d="M211.969 99.7147C211.991 99.8612 211.981 100.011 211.94 100.153C211.9 100.296 211.829 100.428 211.733 100.54C211.637 100.653 211.518 100.744 211.384 100.807C211.25 100.87 211.104 100.903 210.955 100.905C210.807 100.907 210.661 100.877 210.525 100.817C210.389 100.757 210.268 100.669 210.17 100.559C210.071 100.448 209.997 100.318 209.953 100.177C209.909 100.035 209.896 99.8859 209.914 99.7389C209.916 97.8966 211.977 98.063 211.969 99.7147Z" fill="#29175F"/>
<path d="M132.232 109.194C131.454 109.332 130.653 109.233 129.931 108.911C129.209 108.589 128.601 108.058 128.184 107.386C127.445 106.409 126.95 105.269 126.741 104.062C126.378 101.644 128.694 103.031 131.406 103.667C132.59 103.946 133.789 104.157 134.993 104.35C136.041 104.517 136.414 104.995 136.035 105.985C135.66 106.756 135.129 107.439 134.474 107.992C133.819 108.545 133.055 108.954 132.232 109.194ZM128.202 104.332C128.307 105.062 128.622 105.745 129.108 106.299C129.593 106.854 130.229 107.256 130.939 107.456C131.51 107.52 132.087 107.421 132.604 107.171C133.121 106.921 133.557 106.53 133.861 106.042C131.988 105.476 130.082 104.9 128.202 104.332Z" fill="#29175F"/>
<path d="M135.739 101.493C134.703 102.162 133.832 101.803 134.716 100.613C135.064 100.104 135.283 99.5187 135.355 98.9064C135.427 98.2942 135.35 97.6736 135.129 97.0979C133.835 92.7269 132.246 88.0769 132.165 87.5338C132.135 87.3422 132.242 87.0009 132.374 86.947C132.484 86.9235 132.598 86.9289 132.705 86.9624C132.812 86.996 132.909 87.0567 132.985 87.1385C134.371 90.2385 135.582 93.4135 136.612 96.6487C136.987 97.4471 137.104 98.3422 136.948 99.2101C136.791 100.078 136.369 100.876 135.739 101.493Z" fill="#29175F"/>
<path d="M139.962 87.9533C140.088 89.0795 139.419 88.7624 139.148 88.4025C138.996 88.2016 137.142 86.8456 136.183 87.2409C135.519 87.5822 134.847 86.9182 135.512 86.163C137.032 84.4379 139.806 86.5583 139.962 87.9533Z" fill="#29175F"/>
<path d="M128.112 94.552C127.188 94.552 126.723 93.5615 126.723 92.878C126.723 92.1126 126.979 91.0068 127.763 91.0068C129.888 91.0106 130.126 94.552 128.112 94.552Z" fill="#29175F"/>
<path d="M137.915 93.9954C136.272 93.9647 136.201 90.9487 137.772 90.7795C139.469 90.5972 139.639 94.0289 137.915 93.9954Z" fill="#29175F"/>
<path d="M128.247 87.0732C127.682 87.0862 127.129 87.2438 126.641 87.531C126.154 87.8182 125.748 88.2253 125.463 88.7137C124.954 89.6837 124.626 88.5938 124.672 88.4682C124.731 87.8991 124.982 87.3669 125.383 86.9588C125.808 86.5331 126.341 86.232 126.925 86.0883C127.509 85.9447 128.121 85.964 128.695 86.1441C129.745 86.372 129.72 87.0667 128.247 87.0732Z" fill="#29175F"/>
<path d="M117.319 169.774C116.068 169.774 114.808 169.783 113.54 169.774C113.378 169.79 113.214 169.77 113.059 169.718C112.905 169.666 112.763 169.582 112.643 169.471C112.524 169.36 112.429 169.225 112.364 169.076C112.3 168.926 112.268 168.764 112.27 168.601C112.216 167.937 112.211 167.26 112.211 166.595C112.198 166.45 112.216 166.303 112.264 166.166C112.311 166.028 112.387 165.901 112.486 165.795C112.586 165.688 112.706 165.603 112.84 165.546C112.974 165.489 113.119 165.461 113.265 165.463C114.577 165.412 115.888 165.445 117.319 165.445V169.774Z" fill="#4355E6"/>
<path d="M120.026 169.344C119.583 169.104 119.157 168.835 118.703 168.643C118.497 168.529 118.323 168.366 118.197 168.169C118.071 167.971 117.996 167.744 117.98 167.51C117.964 167.276 118.007 167.042 118.105 166.829C118.203 166.615 118.353 166.43 118.541 166.29C119.006 166.017 119.439 165.691 120.029 165.289L120.026 169.344Z" fill="#4355E6"/>
<path d="M132.987 168.517H133.742V169.487C132.909 169.523 132.083 169.559 131.215 169.601V168.685L132.227 168.571C132.005 168.236 131.861 168.002 131.706 167.768C130.364 165.756 130.59 166.373 130.962 165.559C131.136 165.708 131.411 165.823 131.472 166.008C131.631 166.5 131.848 166.93 132.412 166.938C133.011 166.95 133.156 166.464 133.304 165.986C133.363 165.8 133.583 165.668 133.735 165.521C134.092 166.178 134.361 165.741 133.298 167.616C133.155 167.868 132.962 168.095 132.795 168.335C132.855 168.397 132.919 168.457 132.987 168.517Z" fill="#4355E6"/>
<path d="M133.058 164.433C133.095 164.884 133.087 165.337 133.034 165.787C132.98 166.05 132.675 166.265 132.489 166.499C132.244 166.29 131.809 166.097 131.783 165.865C131.671 164.871 131.629 163.87 131.657 162.87C131.663 162.654 132.122 162.259 132.297 162.295C132.454 162.342 132.597 162.425 132.716 162.537C132.834 162.649 132.925 162.788 132.98 162.942C133.045 163.435 133.055 163.934 133.011 164.43L133.058 164.433Z" fill="#4355E6"/>
<path d="M241.336 62.1781C240.705 61.7884 241.289 59.9033 241.39 58.1484C241.542 55.5323 244.708 55.0794 245.277 56.9022C245.689 58.2181 246.086 59.5387 246.433 60.8733C246.462 61.0438 246.458 61.2186 246.419 61.3873C246.38 61.556 246.307 61.7152 246.206 61.8553C245.93 62.281 245.538 62.6192 245.077 62.8302C244.616 63.0413 244.104 63.1163 243.602 63.0467C242.811 62.8608 242.049 62.5686 241.336 62.1781ZM243.587 57.236C242.579 57.1654 242.421 58.1558 242.581 59.176C242.674 59.7573 242.953 60.2427 243.599 60.3022C244.064 60.3441 244.52 59.7089 244.581 59.056C244.663 58.1335 244.517 57.303 243.587 57.236ZM243.324 62.0088C242.766 61.4815 242.323 61.0565 241.809 60.5654C241.714 61.4899 242.247 62.0107 243.319 62.0107L243.324 62.0088ZM245.676 61.6015C245.583 61.5001 245.477 61.3922 245.381 61.2899C245.102 61.5689 244.829 61.8414 244.561 62.1167C244.638 62.2004 244.716 62.2906 244.8 62.3743C245.082 62.1185 245.379 61.8609 245.672 61.607L245.676 61.6015Z" fill="#FEB186"/>
<path d="M218.048 170.302C217.137 170.224 216.293 170.152 215.444 170.074V169.164H216.497C216.294 168.804 216.163 168.564 216.032 168.32C214.956 166.335 215.168 166.909 215.541 166.164C215.697 166.331 215.942 166.476 216.006 166.673C216.28 167.571 216.816 167.903 217.413 167.446C217.599 167.302 217.664 167.001 217.826 166.81C217.995 166.647 218.18 166.5 218.378 166.373C218.662 167.186 219.071 166.625 217.012 169.187C217.504 169.266 217.76 169.307 218.108 169.361C218.084 169.649 218.065 169.943 218.048 170.302Z" fill="#4355E6"/>
<path d="M217.656 166.433C217.621 166.883 217.357 167.282 216.896 167.164C216.738 167.092 216.6 166.982 216.495 166.845C216.389 166.707 216.319 166.545 216.291 166.374C216.258 165.494 216.312 164.614 216.453 163.745C216.513 163.582 216.613 163.438 216.742 163.323C216.872 163.208 217.028 163.127 217.197 163.086C217.645 163.031 217.821 163.428 217.789 163.87C217.621 166.225 217.694 165.959 217.656 166.433Z" fill="#4355E6"/>
<path d="M204.502 164.279C204.419 165.507 204.347 166.591 204.274 167.72C203.4 167.655 202.592 167.6 201.79 167.534C201.681 167.534 201.573 167.511 201.474 167.467C201.374 167.423 201.285 167.359 201.213 167.278C201.14 167.197 201.085 167.102 201.051 166.999C201.017 166.895 201.005 166.786 201.017 166.678C200.967 163.891 201.003 164.279 204.502 164.279Z" fill="#4355E6"/>
<path d="M206.203 167.643C205.651 167.206 204.743 167.158 204.783 166.218C204.821 165.332 204.927 165.2 206.388 164.505C206.324 165.581 206.258 166.613 206.203 167.643Z" fill="#4355E6"/>
<path d="M243.318 62.0107C242.245 62.0107 241.713 61.4899 241.803 60.5674C242.317 61.0584 242.761 61.4779 243.318 62.0107Z" fill="#29175F"/>
<path d="M245.671 61.6074C245.378 61.8651 245.088 62.1227 244.794 62.3803C244.716 62.2966 244.638 62.2064 244.555 62.1227C244.834 61.8437 245.105 61.5721 245.375 61.2959C245.476 61.3945 245.569 61.4958 245.671 61.6074Z" fill="#29175F"/>
<path d="M138.43 71.9816C138.082 71.6681 137.712 71.38 137.322 71.1195C135.139 69.8192 132.557 69.3565 130.058 69.8175C116.741 72.1425 109.681 87.7116 111.11 100.401C111.403 103.005 112.286 99.6045 112.548 96.1374C112.744 92.1396 113.68 88.2128 115.308 84.5561C117.523 79.8726 120.344 75.6914 125.141 73.2492C129.384 71.0879 133.729 70.024 138.43 71.9816ZM148.778 108.985C148.61 106.725 147.755 107.153 147.542 107.713C147.221 108.564 146.977 109.437 146.691 110.299C144.986 115.438 140.732 123.103 136.217 126.846C133.376 129.202 130.478 130.731 129.837 131.658C130.109 131.808 130.249 132.152 131.418 131.775C134.703 130.679 137.634 128.719 139.903 126.102C142.96 122.601 145.442 118.637 147.257 114.358C148.151 112.7 148.67 110.866 148.778 108.985ZM133.848 135.335C133.865 135.389 133.875 135.44 133.892 135.5C135.547 135.539 137.176 135.089 138.576 134.206C143.104 131.522 146.871 127.728 149.523 123.181C149.697 122.794 149.741 122.362 149.648 121.948C149.609 121.807 149.538 121.678 149.439 121.571C149.34 121.464 149.217 121.381 149.08 121.331C147.46 120.959 147.844 125.299 137.336 132.956C136.201 133.789 135.01 134.545 133.848 135.335ZM147.078 87.9413C146.382 88.1152 147.171 87.1536 145.823 97.883C145.544 100.063 145.013 102.207 144.655 104.38C144.448 105.638 143.877 106.842 144.097 108.177C144.199 108.794 144.426 108.776 144.846 108.519C145.187 108.273 145.475 107.963 145.694 107.605C145.914 107.247 146.06 106.848 146.124 106.433C147.993 99.0948 147.806 96.5094 147.524 89.5158C147.439 88.9749 147.29 88.4462 147.078 87.9413ZM130.483 123.568C130.483 123.484 130.483 123.394 130.489 123.31C128.681 122.738 126.91 122.051 125.188 121.256C122.151 119.73 119.699 117.25 118.209 114.195C117.827 113.381 117.628 112.478 117.259 111.65C116.863 110.764 116.31 110.667 115.99 111.743C115.811 112.542 115.924 113.379 116.307 114.102C117.691 117.388 120.098 120.139 123.17 121.947C126.18 123.789 128.414 123.982 130.483 123.568ZM117.742 134.125C117.353 133.642 116.913 133.203 116.431 132.814C114.202 131.5 111.695 130.73 109.112 130.568C108.305 130.505 107.5 130.718 106.83 131.173C105.714 131.852 106.551 132.516 107.22 132.467C112.214 132.093 117 135.392 117.746 134.125H117.742Z" fill="#29175F"/>
<path d="M147.059 80.1919C148.633 84.4308 148.274 86.9865 148.58 87.7491C150.046 91.4049 150.274 97.5494 150.122 101.132C149.929 105.617 151.796 104.034 152.337 110.935C152.547 113.633 152.279 116.348 151.547 118.953C151.369 120.08 151.338 121.226 151.454 122.361C151.454 122.814 152.188 123.23 154.311 125.517C155.083 126.354 155.496 126.912 156.772 128.383L156.916 130.341C156.734 130.618 156.568 130.905 156.418 131.201C155.65 133.138 154.518 134.911 153.083 136.422C151.258 138.183 149.208 139.696 146.987 140.92C141.001 144.317 135.959 142.853 134.381 143.166C131.47 143.742 127.275 145.763 121.727 144.052C115.857 142.241 113.886 138.131 111.912 136.566C109.994 135.046 107.66 134.728 105.282 134.697C104.042 134.418 102.794 134.132 101.555 133.845C103.409 131.163 105.218 132.455 106.582 128.667C108.628 122.994 106.13 121.194 105.055 98.0358C104.742 94.454 104.931 90.8459 105.618 87.3166C107.266 80.3277 110.804 74.6082 117.062 70.8175C127.347 64.5874 142.739 68.5613 147.059 80.1919ZM142.46 96.3069C142.035 91.9053 141.926 88.6419 139.956 86.2462C138.072 83.8344 135.933 81.6319 133.578 79.6767C132.759 79.0257 131.16 79.6841 130.237 80.1677C126.493 81.9807 123.296 84.754 120.973 88.2048C119.873 89.6619 119.134 91.359 118.816 93.157C118.595 94.9123 118.517 96.6827 118.583 98.4506C119.071 106.129 123.014 110.234 129.291 114.212C129.741 114.486 130.277 114.582 130.794 114.482C131.802 114.269 132.768 113.888 133.651 113.357C139.828 109.163 142.403 103.817 142.46 96.3069ZM138.429 71.9809C138.081 71.6674 137.711 71.3793 137.322 71.1188C135.138 69.8185 132.557 69.3558 130.057 69.8168C116.741 72.1418 109.68 87.711 111.11 100.401C111.402 103.005 112.285 99.6038 112.547 96.1368C112.744 92.1389 113.68 88.2122 115.308 84.5555C117.523 79.872 120.343 75.6907 125.14 73.2485C129.383 71.0872 133.728 70.0233 138.429 71.9809ZM148.777 108.985C148.61 106.724 147.754 107.153 147.541 107.712C147.22 108.563 146.977 109.437 146.69 110.299C144.986 115.437 140.731 123.102 136.217 126.845C133.376 129.201 130.478 130.73 129.836 131.657C130.108 131.808 130.249 132.151 131.417 131.774C134.703 130.678 137.634 128.719 139.902 126.101C142.959 122.6 145.441 118.636 147.257 114.357C148.151 112.699 148.67 110.865 148.777 108.985ZM133.847 135.334C133.865 135.388 133.874 135.439 133.892 135.499C135.546 135.538 137.175 135.088 138.575 134.205C143.103 131.522 146.871 127.727 149.522 123.18C149.696 122.794 149.74 122.361 149.648 121.947C149.609 121.807 149.537 121.677 149.438 121.57C149.339 121.463 149.216 121.381 149.08 121.33C147.459 120.958 147.844 125.299 137.336 132.955C136.2 133.789 135.01 134.544 133.847 135.334ZM147.077 87.9407C146.382 88.1146 147.17 87.153 145.823 97.8824C145.544 100.062 145.013 102.206 144.655 104.379C144.447 105.638 143.876 106.841 144.097 108.177C144.199 108.793 144.426 108.775 144.845 108.518C145.186 108.273 145.474 107.962 145.694 107.604C145.913 107.246 146.059 106.848 146.123 106.433C147.992 99.0942 147.805 96.5087 147.524 89.5152C147.439 88.9742 147.289 88.4456 147.077 87.9407ZM130.482 123.567C130.482 123.483 130.482 123.393 130.489 123.309C128.68 122.737 126.91 122.051 125.188 121.255C122.151 119.73 119.698 117.249 118.208 114.195C117.826 113.38 117.628 112.477 117.259 111.649C116.862 110.763 116.309 110.666 115.989 111.742C115.811 112.541 115.923 113.378 116.306 114.102C117.69 117.387 120.097 120.138 123.17 121.946C126.179 123.788 128.413 123.981 130.482 123.567ZM117.741 134.124C117.352 133.642 116.913 133.202 116.43 132.813C114.201 131.499 111.694 130.73 109.112 130.567C108.304 130.504 107.5 130.718 106.83 131.173C105.714 131.852 106.551 132.516 107.219 132.466C112.213 132.092 116.999 135.391 117.745 134.124H117.741Z" fill="#FEB186"/>
<path d="M316.096 135.959L240.801 130.958L235.888 204.924L311.183 209.925L316.096 135.959Z" fill="white"/>
<path d="M311.181 210.273L235.883 205.27C235.836 205.267 235.791 205.255 235.749 205.235C235.708 205.215 235.67 205.187 235.64 205.152C235.609 205.117 235.585 205.077 235.57 205.033C235.555 204.989 235.549 204.943 235.551 204.896L240.484 130.908C240.486 130.862 240.498 130.817 240.519 130.776C240.539 130.735 240.568 130.698 240.604 130.669C240.638 130.638 240.678 130.615 240.722 130.6C240.766 130.586 240.812 130.58 240.857 130.584L316.121 135.637C316.167 135.639 316.212 135.651 316.253 135.671C316.295 135.692 316.332 135.72 316.362 135.755C316.392 135.79 316.415 135.83 316.429 135.874C316.444 135.918 316.449 135.964 316.445 136.01L311.513 209.998C311.507 210.093 311.464 210.182 311.393 210.245C311.327 210.276 311.253 210.286 311.181 210.273ZM236.256 204.586L310.85 209.519L315.719 136.235L241.125 131.303L236.256 204.586Z" fill="#4355E6"/>
<path d="M249.874 152.806L249.824 153.509L301.15 157.125L301.2 156.422L249.874 152.806Z" fill="#4355E6"/>
<path d="M249.401 161.216L249.352 161.921L303.511 165.712L303.56 165.007L249.401 161.216Z" fill="#4355E6"/>
<path d="M248.755 172.242L248.68 172.942L301.36 178.591L301.435 177.89L248.755 172.242Z" fill="#4355E6"/>
<path d="M288.061 183.327H248.27V184.032H288.061V183.327Z" fill="#4355E6"/>
<path d="M257.832 141.598C257.725 141.599 257.62 141.575 257.523 141.529C257.427 141.482 257.342 141.415 257.276 141.331L255.578 139.16C255.462 139.014 255.409 138.827 255.431 138.641C255.452 138.456 255.547 138.286 255.694 138.17C255.84 138.054 256.027 138.002 256.213 138.023C256.399 138.045 256.568 138.14 256.684 138.287L258.382 140.45C258.44 140.522 258.483 140.606 258.509 140.695C258.535 140.784 258.543 140.878 258.532 140.97C258.522 141.062 258.493 141.152 258.448 141.233C258.403 141.314 258.342 141.386 258.269 141.443C258.145 141.543 257.991 141.597 257.832 141.598Z" fill="#29175F"/>
<path d="M257.42 139.115C259.682 136.853 259.682 133.186 257.42 130.924C255.158 128.662 251.491 128.662 249.229 130.924C246.967 133.186 246.967 136.853 249.229 139.115C251.491 141.377 255.158 141.377 257.42 139.115Z" fill="#FE6B21"/>
<path d="M253.324 141.161C252.109 141.161 250.921 140.801 249.911 140.126C248.9 139.45 248.112 138.491 247.647 137.368C247.182 136.245 247.061 135.01 247.298 133.818C247.535 132.626 248.12 131.531 248.979 130.672C249.839 129.812 250.934 129.227 252.125 128.99C253.317 128.753 254.553 128.875 255.676 129.34C256.798 129.805 257.758 130.592 258.433 131.603C259.108 132.613 259.469 133.801 259.469 135.017C259.465 136.645 258.816 138.206 257.665 139.357C256.513 140.509 254.953 141.157 253.324 141.161ZM253.324 129.577C252.248 129.577 251.197 129.896 250.302 130.494C249.407 131.091 248.71 131.941 248.298 132.935C247.887 133.929 247.779 135.023 247.989 136.078C248.199 137.133 248.717 138.102 249.478 138.863C250.238 139.624 251.208 140.142 252.263 140.352C253.318 140.562 254.412 140.454 255.406 140.042C256.4 139.631 257.25 138.933 257.847 138.039C258.445 137.144 258.764 136.093 258.764 135.017C258.762 133.574 258.189 132.192 257.169 131.172C256.149 130.152 254.766 129.579 253.324 129.577Z" fill="#29175F"/>
<path d="M255.837 133.48C255.837 134.19 255.627 134.884 255.232 135.474C254.838 136.064 254.277 136.523 253.622 136.795C252.966 137.066 252.244 137.136 251.548 136.997C250.852 136.858 250.213 136.516 249.712 136.014C249.211 135.512 248.87 134.872 248.732 134.176C248.595 133.479 248.667 132.758 248.939 132.103C249.212 131.448 249.672 130.888 250.263 130.495C250.854 130.101 251.548 129.892 252.258 129.894C252.728 129.894 253.194 129.986 253.629 130.167C254.064 130.347 254.459 130.611 254.791 130.944C255.124 131.278 255.387 131.673 255.567 132.108C255.746 132.543 255.838 133.01 255.837 133.48Z" fill="#FE6B21"/>
<path d="M252.274 137.412C251.494 137.414 250.732 137.184 250.083 136.751C249.434 136.319 248.928 135.704 248.629 134.984C248.33 134.264 248.252 133.471 248.403 132.706C248.555 131.942 248.931 131.239 249.482 130.688C250.033 130.137 250.736 129.761 251.5 129.61C252.265 129.458 253.058 129.536 253.778 129.835C254.498 130.134 255.113 130.64 255.545 131.289C255.977 131.938 256.207 132.701 256.206 133.48C256.204 134.522 255.789 135.521 255.052 136.258C254.315 136.995 253.316 137.41 252.274 137.412ZM252.274 130.246C251.634 130.244 251.008 130.433 250.475 130.788C249.943 131.142 249.527 131.647 249.281 132.238C249.035 132.828 248.97 133.479 249.094 134.107C249.218 134.735 249.526 135.312 249.978 135.765C250.43 136.218 251.006 136.527 251.634 136.652C252.261 136.777 252.912 136.714 253.503 136.469C254.095 136.224 254.6 135.81 254.956 135.278C255.312 134.746 255.501 134.12 255.501 133.48C255.5 132.624 255.159 131.804 254.555 131.198C253.95 130.592 253.13 130.25 252.274 130.246Z" fill="#29175F"/>
<path d="M255.435 131.007C255.436 132.001 255.143 132.973 254.592 133.801C254.041 134.628 253.256 135.273 252.338 135.654C251.42 136.035 250.41 136.136 249.435 135.943C248.46 135.75 247.564 135.272 246.861 134.569C246.157 133.867 245.678 132.972 245.484 131.997C245.289 131.022 245.388 130.012 245.768 129.093C246.149 128.175 246.792 127.39 247.619 126.837C248.445 126.285 249.417 125.99 250.411 125.99C251.742 125.99 253.019 126.519 253.961 127.459C254.903 128.4 255.433 129.676 255.435 131.007Z" fill="#FE6B21"/>
<path d="M250.413 136.377C249.351 136.375 248.314 136.059 247.432 135.468C246.55 134.877 245.863 134.038 245.457 133.057C245.052 132.076 244.947 130.996 245.155 129.955C245.363 128.914 245.875 127.958 246.626 127.208C247.377 126.458 248.334 125.947 249.375 125.74C250.417 125.534 251.496 125.64 252.477 126.047C253.457 126.454 254.296 127.142 254.885 128.025C255.475 128.908 255.79 129.945 255.79 131.007C255.788 132.432 255.22 133.798 254.212 134.804C253.204 135.811 251.838 136.377 250.413 136.377ZM250.413 126.342C249.491 126.344 248.59 126.618 247.823 127.132C247.057 127.645 246.46 128.374 246.108 129.227C245.757 130.079 245.665 131.017 245.846 131.921C246.027 132.826 246.472 133.656 247.124 134.308C247.777 134.96 248.608 135.403 249.513 135.583C250.417 135.762 251.355 135.669 252.207 135.316C253.059 134.963 253.787 134.365 254.299 133.598C254.812 132.831 255.085 131.929 255.085 131.007C255.083 129.769 254.59 128.583 253.714 127.708C252.838 126.834 251.651 126.342 250.413 126.342Z" fill="#29175F"/>
<path d="M62.2788 44.3256C62.252 44.8267 62.0772 45.3087 61.7765 45.7105C61.4758 46.1123 61.0628 46.4159 60.5895 46.583C60.1163 46.7501 59.6041 46.7731 59.1178 46.6491C58.6315 46.5251 58.1929 46.2597 57.8574 45.8865C57.5219 45.5133 57.3046 45.0489 57.233 44.5522C57.1614 44.0555 57.2387 43.5487 57.455 43.0959C57.6714 42.6431 58.0172 42.2646 58.4487 42.0083C58.8802 41.752 59.3779 41.6293 59.8791 41.6559C60.5508 41.6931 61.1804 41.9949 61.6302 42.4952C62.0799 42.9956 62.3131 43.6537 62.2788 44.3256Z" fill="#4355E6"/>
<path d="M61.9563 43.4617C61.8303 43.5516 60.2885 41.3619 58.9207 38.3923C57.5528 35.4226 56.5209 33.0409 56.6109 32.9929C56.7009 32.9449 58.0748 35.2247 59.4246 38.1763C60.7744 41.1279 62.0823 43.3957 61.9563 43.4617Z" fill="#4355E6"/>
<path d="M61.4289 30.4251C61.5669 30.4791 60.955 31.769 59.4851 32.6029C58.0153 33.4368 56.5935 33.3288 56.6175 33.2028C56.6415 33.0768 57.8833 32.9088 59.2032 32.1409C60.523 31.373 61.2909 30.3291 61.4289 30.4251Z" fill="#4355E6"/>
<path d="M62.4006 32.8663C62.5506 32.9083 61.9927 34.2221 60.4989 34.936C59.0051 35.6499 57.6372 35.278 57.6972 35.14C57.7572 35.002 58.9511 35.08 60.2589 34.4321C61.5667 33.7842 62.2627 32.7823 62.4006 32.8663Z" fill="#4355E6"/>
<path d="M307.602 141.354C307.568 141.999 307.343 142.619 306.956 143.136C306.569 143.654 306.037 144.044 305.428 144.259C304.819 144.474 304.16 144.504 303.534 144.344C302.908 144.185 302.343 143.843 301.911 143.363C301.48 142.883 301.2 142.285 301.108 141.646C301.015 141.006 301.115 140.354 301.393 139.771C301.672 139.188 302.117 138.701 302.672 138.371C303.228 138.041 303.868 137.883 304.513 137.918C304.943 137.938 305.363 138.044 305.751 138.228C306.14 138.413 306.487 138.672 306.774 138.992C307.062 139.311 307.283 139.684 307.425 140.09C307.567 140.495 307.627 140.925 307.602 141.354Z" fill="#FEB186"/>
<path d="M307.193 140.25C307.023 140.358 305.046 137.547 303.286 133.725C301.525 129.902 300.158 126.829 300.313 126.775C300.467 126.721 302.197 129.64 303.934 133.447C305.672 137.254 307.355 140.141 307.193 140.25Z" fill="#FEB186"/>
<path d="M306.514 123.462C306.691 123.532 305.904 125.2 304.012 126.273C302.12 127.346 300.29 127.199 300.321 127.045C300.352 126.891 301.95 126.674 303.649 125.678C305.348 124.682 306.336 123.346 306.514 123.462Z" fill="#FEB186"/>
<path d="M307.767 126.613C307.953 126.659 307.242 128.358 305.319 129.269C303.397 130.18 301.636 129.717 301.713 129.539C301.791 129.362 303.327 129.462 305.003 128.62C306.678 127.779 307.59 126.497 307.767 126.613Z" fill="#FEB186"/>
<path d="M276.924 104.151C276.781 104.85 276.434 105.49 275.926 105.992C275.419 106.494 274.774 106.833 274.073 106.968C273.373 107.103 272.648 107.027 271.99 106.75C271.333 106.473 270.772 106.007 270.38 105.411C269.987 104.815 269.78 104.117 269.785 103.403C269.79 102.69 270.006 101.994 270.407 101.403C270.807 100.813 271.374 100.354 272.035 100.086C272.696 99.8176 273.422 99.7515 274.121 99.8959C274.585 99.9907 275.025 100.176 275.417 100.441C275.809 100.707 276.145 101.047 276.405 101.442C276.666 101.837 276.845 102.28 276.934 102.744C277.023 103.209 277.02 103.687 276.924 104.151Z" fill="#4355E6"/>
<path d="M276.63 102.869C276.313 103.023 274.522 99.641 273.232 95.147C271.943 90.6529 271.055 87.0932 271.356 86.9774C271.657 86.8616 273.155 90.3595 274.444 94.7918C275.734 99.2241 276.923 102.745 276.63 102.869Z" fill="#4355E6"/>
<path d="M282.98 85.9267C283.173 86.1429 280.972 88.1969 277.389 88.8455C275.865 89.1623 274.282 89.05 272.818 88.5212C271.683 88.0733 271.22 87.4093 271.328 87.3012C271.436 87.1931 272.03 87.4942 273.073 87.6718C274.429 87.8999 275.816 87.8816 277.165 87.6178C280.385 87.0463 282.771 85.5947 282.98 85.9267Z" fill="#4355E6"/>
<path d="M288.508 103.077C288.364 103.774 288.016 104.412 287.509 104.911C287.002 105.41 286.358 105.748 285.659 105.881C284.96 106.014 284.237 105.937 283.582 105.66C282.927 105.382 282.368 104.917 281.978 104.322C281.587 103.727 281.381 103.03 281.387 102.319C281.392 101.607 281.609 100.913 282.008 100.325C282.408 99.736 282.974 99.2791 283.633 99.0117C284.292 98.7444 285.016 98.6785 285.713 98.8225C286.176 98.9181 286.616 99.1041 287.007 99.3697C287.398 99.6354 287.733 99.9755 287.992 100.371C288.252 100.766 288.431 101.208 288.52 101.673C288.608 102.137 288.604 102.614 288.508 103.077Z" fill="#4355E6"/>
<path d="M288.244 101.795C287.935 101.95 286.144 98.5678 284.846 94.0737C283.549 89.5797 282.676 86.02 282.978 85.9042C283.279 85.7883 284.777 89.2863 286.066 93.7185C287.356 98.1508 288.56 101.649 288.244 101.795Z" fill="#4355E6"/>
<path d="M283.774 88.2591C284.014 88.4753 282.037 90.5756 278.701 91.3014C275.365 92.0273 272.686 91.008 272.817 90.7069C272.948 90.4057 275.435 90.7764 278.431 90.0814C281.427 89.3865 283.543 87.9657 283.774 88.2591Z" fill="#4355E6"/>
<path d="M315.806 105.293C315.577 105.435 315.312 105.506 315.043 105.497C314.774 105.487 314.514 105.399 314.296 105.242C314.078 105.085 313.911 104.866 313.817 104.615C313.722 104.363 313.705 104.089 313.767 103.827C313.828 103.565 313.966 103.327 314.163 103.144C314.36 102.961 314.606 102.84 314.872 102.797C315.137 102.754 315.41 102.79 315.654 102.902C315.899 103.014 316.105 103.196 316.246 103.425C316.435 103.731 316.495 104.1 316.412 104.45C316.33 104.8 316.112 105.104 315.806 105.293Z" fill="#4355E6"/>
<path d="M316.082 104.892C315.959 104.845 316.422 103.478 317.318 101.957C317.792 101.011 318.381 100.127 319.07 99.3242C319.194 99.386 318.607 100.699 317.727 102.197C317.261 103.143 316.71 104.045 316.082 104.892Z" fill="#4355E6"/>
<path d="M322.384 102.235C321.685 102.226 321.002 102.023 320.41 101.65C319.819 101.277 319.342 100.747 319.033 100.119C318.863 99.6947 318.925 99.3936 318.979 99.3936C319.033 99.3936 319.11 99.6406 319.334 99.9727C319.622 100.402 319.986 100.777 320.407 101.077C321.403 101.81 322.423 102.088 322.384 102.235Z" fill="#4355E6"/>
<path d="M319.118 108.204C318.89 108.346 318.624 108.417 318.356 108.408C318.087 108.399 317.827 108.31 317.609 108.153C317.39 107.996 317.223 107.778 317.129 107.526C317.035 107.274 317.018 107 317.079 106.738C317.141 106.476 317.279 106.239 317.475 106.055C317.672 105.872 317.919 105.751 318.184 105.708C318.45 105.665 318.722 105.702 318.967 105.813C319.211 105.925 319.417 106.107 319.558 106.336C319.745 106.642 319.804 107.011 319.722 107.36C319.639 107.71 319.423 108.013 319.118 108.204Z" fill="#4355E6"/>
<path d="M319.395 107.803C319.271 107.756 319.734 106.382 320.622 104.868C321.098 103.921 321.689 103.037 322.383 102.235C322.507 102.297 321.92 103.61 321.032 105.108C320.564 106.051 320.017 106.953 319.395 107.803Z" fill="#4355E6"/>
<path d="M321.95 103.054C321.57 103.114 321.18 103.092 320.809 102.99C320.437 102.887 320.092 102.706 319.796 102.459C318.723 101.741 318.313 100.729 318.429 100.691C318.545 100.652 319.093 101.424 320.058 102.065C321.024 102.706 321.966 102.922 321.95 103.054Z" fill="#4355E6"/>
<path d="M67.3358 63.0224C67.0845 63.4856 66.7011 63.8636 66.2345 64.1083C65.7679 64.353 65.239 64.4535 64.7151 64.3969C64.1912 64.3402 63.696 64.1291 63.2924 63.7903C62.8888 63.4516 62.5951 63.0004 62.4486 62.4943C62.302 61.9882 62.3093 61.4499 62.4695 60.9479C62.6296 60.4459 62.9354 60.0028 63.348 59.6751C63.7606 59.3474 64.2614 59.1497 64.7866 59.1073C65.3118 59.0648 65.8378 59.1795 66.2976 59.4368C66.9074 59.7779 67.3582 60.3454 67.5525 61.0166C67.7468 61.6877 67.669 62.4083 67.3358 63.0224Z" fill="#29175F"/>
<path d="M67.4193 62.0593C67.1666 62.1003 66.627 59.3274 66.6749 55.9125C66.7227 52.4976 66.8729 49.7656 67.1051 49.7656C67.3373 49.7656 67.6515 52.5385 67.5969 55.9125C67.5422 59.2864 67.6652 62.0252 67.4193 62.0593Z" fill="#29175F"/>
<path d="M75.5379 51.4662C75.6267 51.6643 73.6324 52.6341 70.962 52.3268C69.8179 52.2265 68.7248 51.8077 67.8066 51.1179C67.1236 50.5579 66.9187 49.991 67.0143 49.9364C67.11 49.8817 67.4719 50.23 68.1686 50.5715C69.0766 51.0267 70.0605 51.3114 71.0712 51.4116C73.4685 51.7053 75.4628 51.1862 75.5379 51.4662Z" fill="#29175F"/>
<path d="M75.7645 64.7576C75.5134 65.2196 75.1309 65.5967 74.6653 65.8411C74.1998 66.0855 73.6722 66.1863 73.1494 66.1307C72.6265 66.0752 72.1319 65.8657 71.7282 65.5288C71.3245 65.192 71.0298 64.7429 70.8814 64.2385C70.733 63.7341 70.7377 63.1969 70.8948 62.6952C71.0518 62.1934 71.3543 61.7495 71.7638 61.4197C72.1733 61.0899 72.6714 60.889 73.1951 60.8425C73.7189 60.7959 74.2446 60.9059 74.7059 61.1583C75.3228 61.496 75.7806 62.0645 75.9791 62.7392C76.1775 63.4139 76.1004 64.1397 75.7645 64.7576Z" fill="#29175F"/>
<path d="M75.8607 63.8015C75.608 63.8425 75.0685 61.0696 75.1163 57.6547C75.1641 54.2397 75.3143 51.5078 75.5534 51.5078C75.7924 51.5078 76.0929 54.2807 76.0383 57.6547C75.9836 61.0286 76.0998 63.7605 75.8607 63.8015Z" fill="#29175F"/>
<path d="M75.6016 53.2898C75.7245 53.4947 73.8805 54.5465 71.3671 54.3484C68.8537 54.1504 67.1873 52.8527 67.3375 52.6683C67.4878 52.4839 69.1747 53.2761 71.4354 53.4264C73.6961 53.5767 75.4992 53.0303 75.6016 53.2898Z" fill="#29175F"/>
<path d="M57.4423 109.184C65.2379 105.931 68.9205 96.9745 65.6675 89.1789C62.4145 81.3832 53.4578 77.7007 45.6621 80.9537C37.8665 84.2067 34.184 93.1634 37.437 100.959C40.6899 108.755 49.6466 112.437 57.4423 109.184Z" stroke="#FE6B21" stroke-width="0.724166" stroke-linecap="round" stroke-linejoin="round"/>
<path d="M60.9866 90.5884L56.5179 93.1683V91.0537C56.5179 90.565 56.3238 90.0963 55.9782 89.7507C55.6326 89.4051 55.1639 89.2109 54.6751 89.2109H44.6045C44.1157 89.2109 43.647 89.4051 43.3014 89.7507C42.9559 90.0963 42.7617 90.565 42.7617 91.0537V99.1803C42.7617 99.669 42.9559 100.138 43.3014 100.483C43.647 100.829 44.1157 101.023 44.6045 101.023H54.6936C55.1823 101.023 55.651 100.829 55.9966 100.483C56.3422 100.138 56.5363 99.669 56.5363 99.1803V97.0657L61.005 99.6456L60.9866 90.5884Z" stroke="#FE6B21" stroke-miterlimit="10"/>
<path d="M48.4258 190.791V206.166C48.4246 206.697 48.5281 207.222 48.7304 207.713C48.9326 208.203 49.2296 208.649 49.6044 209.025C49.9792 209.4 50.4243 209.698 50.9144 209.902C51.4045 210.105 51.9299 210.21 52.4605 210.21H137.364L140.872 217.893L144.547 210.21H148.819C149.349 210.21 149.875 210.105 150.365 209.902C150.855 209.698 151.3 209.4 151.675 209.025C152.05 208.649 152.347 208.203 152.549 207.713C152.751 207.222 152.855 206.697 152.854 206.166V190.791C152.855 190.26 152.751 189.735 152.549 189.245C152.346 188.755 152.049 188.31 151.674 187.935C151.3 187.56 150.854 187.263 150.364 187.061C149.874 186.858 149.349 186.755 148.819 186.756H52.4605C51.9303 186.755 51.4051 186.858 50.9151 187.061C50.4251 187.263 49.9798 187.56 49.6049 187.935C49.23 188.31 48.9329 188.755 48.7305 189.245C48.5282 189.735 48.4246 190.26 48.4258 190.791Z" fill="#8B80AB"/>
<path d="M67.1178 198.088C67.1196 199.372 66.7404 200.628 66.0282 201.697C65.3161 202.765 64.303 203.598 63.1172 204.091C61.9313 204.584 60.626 204.713 59.3664 204.464C58.1068 204.214 56.9495 203.597 56.0409 202.69C55.1323 201.782 54.5132 200.626 54.2621 199.366C54.0109 198.107 54.1389 196.802 54.6299 195.615C55.1209 194.429 55.9528 193.414 57.0204 192.701C58.088 191.987 59.3432 191.606 60.6273 191.606C62.3471 191.606 63.9967 192.289 65.2137 193.504C66.4307 194.72 67.1155 196.368 67.1178 198.088Z" fill="white"/>
<path d="M58.8438 195.027V201.15L64.2642 197.711L58.8438 195.027Z" fill="#4355E6"/>
<path d="M72.1171 193.957H71.1172V202.877H72.1171V193.957Z" fill="#29175F"/>
<path d="M75.8983 195.58H74.8984V201.255H75.8983V195.58Z" fill="#29175F"/>
<path d="M79.6757 193.957H78.6758V202.877H79.6757V193.957Z" fill="#29175F"/>
<path d="M83.4491 195.58H82.4492V201.255H83.4491V195.58Z" fill="#29175F"/>
<path d="M91.0077 195.58H90.0078V201.255H91.0077V195.58Z" fill="#29175F"/>
<path d="M98.5624 195.58H97.5625V201.255H98.5624V195.58Z" fill="#FE6B21"/>
<path d="M106.121 195.58H105.121V201.255H106.121V195.58Z" fill="#FE6B21"/>
<path d="M113.672 195.58H112.672V201.255H113.672V195.58Z" fill="#FE6B21"/>
<path d="M121.226 195.58H120.227V201.255H121.226V195.58Z" fill="#FE6B21"/>
<path d="M128.785 195.58H127.785V201.255H128.785V195.58Z" fill="#FE6B21"/>
<path d="M143.926 195.58H142.926V201.255H143.926V195.58Z" fill="#FE6B21"/>
<path d="M136.539 195.58H135.539V201.255H136.539V195.58Z" fill="#FE6B21"/>
<path d="M87.2304 193.957H86.2305V202.877H87.2304V193.957Z" fill="#29175F"/>
<path d="M94.7889 193.957H93.7891V202.877H94.7889V193.957Z" fill="#29175F"/>
<path d="M102.34 193.957H101.34V202.877H102.34V193.957Z" fill="#FE6B21"/>
<path d="M109.894 193.957H108.895V202.877H109.894V193.957Z" fill="#FE6B21"/>
<path d="M117.453 193.957H116.453V202.877H117.453V193.957Z" fill="#FE6B21"/>
<path d="M125.004 193.957H124.004V202.877H125.004V193.957Z" fill="#FE6B21"/>
<path d="M132.566 193.957H131.566V202.877H132.566V193.957Z" fill="#FE6B21"/>
<path d="M140.117 193.957H139.117V202.877H140.117V193.957Z" fill="#FE6B21"/>
<path d="M98.5624 195.58H97.5625V201.255H98.5624V195.58Z" fill="white"/>
<path d="M106.121 195.58H105.121V201.255H106.121V195.58Z" fill="white"/>
<path d="M113.672 195.58H112.672V201.255H113.672V195.58Z" fill="white"/>
<path d="M121.226 195.58H120.227V201.255H121.226V195.58Z" fill="white"/>
<path d="M128.785 195.58H127.785V201.255H128.785V195.58Z" fill="white"/>
<path d="M143.926 195.58H142.926V201.255H143.926V195.58Z" fill="white"/>
<path d="M136.539 195.58H135.539V201.255H136.539V195.58Z" fill="white"/>
<path d="M102.34 193.957H101.34V202.877H102.34V193.957Z" fill="white"/>
<path d="M109.894 193.957H108.895V202.877H109.894V193.957Z" fill="white"/>
<path d="M117.453 193.957H116.453V202.877H117.453V193.957Z" fill="white"/>
<path d="M125.004 193.957H124.004V202.877H125.004V193.957Z" fill="white"/>
<path d="M132.566 193.957H131.566V202.877H132.566V193.957Z" fill="white"/>
<path d="M140.117 193.957H139.117V202.877H140.117V193.957Z" fill="white"/>
<path d="M123.639 162.292V177.677C123.64 178.207 123.536 178.732 123.334 179.222C123.132 179.712 122.834 180.157 122.46 180.532C122.085 180.907 121.639 181.204 121.149 181.407C120.659 181.609 120.134 181.713 119.604 181.712H34.7006L31.1922 189.404L27.5171 181.712H23.2456C22.7155 181.713 22.1903 181.609 21.7003 181.407C21.2102 181.204 20.765 180.907 20.3901 180.532C20.0152 180.157 19.7181 179.712 19.5157 179.222C19.3134 178.732 19.2098 178.207 19.2109 177.677V162.292C19.2109 161.222 19.636 160.196 20.3927 159.44C21.1493 158.683 22.1756 158.258 23.2456 158.258H119.639C120.703 158.267 121.72 158.696 122.469 159.452C123.218 160.208 123.639 161.228 123.639 162.292Z" fill="#4355E6"/>
<path d="M31.3153 163.977H31.175C29.9155 163.977 28.8945 164.998 28.8945 166.257V170.616C28.8945 171.876 29.9155 172.897 31.175 172.897H31.3153C32.5748 172.897 33.5958 171.876 33.5958 170.616V166.257C33.5958 164.998 32.5748 163.977 31.3153 163.977Z" fill="#FEB186"/>
<path d="M36.1663 169.704C36.1539 171.158 35.6184 172.559 34.6576 173.651C33.8604 174.438 32.7954 174.896 31.6755 174.932V177.563H30.7984V174.932C29.6816 174.894 28.62 174.436 27.825 173.651C26.8643 172.559 26.3287 171.158 26.3164 169.704H27.1935C27.214 170.928 27.6607 172.107 28.4565 173.037C28.8247 173.393 29.2625 173.67 29.7424 173.85C30.2223 174.029 30.734 174.108 31.2457 174.081C31.7584 174.105 32.2707 174.025 32.7516 173.846C33.2325 173.666 33.672 173.391 34.0437 173.037C34.8364 172.106 35.2799 170.927 35.2979 169.704H36.1663Z" fill="#FEB186"/>
<path d="M44.496 165.59H43.4961V174.51H44.496V165.59Z" fill="#FEB186"/>
<path d="M48.2694 167.213H47.2695V172.888H48.2694V167.213Z" fill="#FEB186"/>
<path d="M52.0507 165.59H51.0508V174.51H52.0507V165.59Z" fill="#FEB186"/>
<path d="M55.828 167.213H54.8281V172.888H55.828V167.213Z" fill="#FEB186"/>
<path d="M63.3827 167.213H62.3828V172.888H63.3827V167.213Z" fill="#FEB186"/>
<path d="M70.9335 167.213H69.9336V172.888H70.9335V167.213Z" fill="#FEB186"/>
<path d="M78.496 167.213H77.4961V172.888H78.496V167.213Z" fill="#FEB186"/>
<path d="M86.0468 167.213H85.0469V172.888H86.0468V167.213Z" fill="#FEB186"/>
<path d="M93.6054 167.213H92.6055V172.888H93.6054V167.213Z" fill="#FEB186"/>
<path d="M101.16 167.213H100.16V172.888H101.16V167.213Z" fill="#FEB186"/>
<path d="M116.297 167.213H115.297V172.888H116.297V167.213Z" fill="#FEB186"/>
<path d="M108.914 167.213H107.914V172.888H108.914V167.213Z" fill="#FEB186"/>
<path d="M59.6015 165.59H58.6016V174.51H59.6015V165.59Z" fill="#FEB186"/>
<path d="M67.164 165.59H66.1641V174.51H67.164V165.59Z" fill="#FEB186"/>
<path d="M74.7148 165.59H73.7148V174.51H74.7148V165.59Z" fill="#FEB186"/>
<path d="M82.2733 165.59H81.2734V174.51H82.2733V165.59Z" fill="#FEB186"/>
<path d="M89.828 165.59H88.8281V174.51H89.828V165.59Z" fill="#FEB186"/>
<path d="M97.3788 165.59H96.3789V174.51H97.3788V165.59Z" fill="#FEB186"/>
<path d="M104.937 165.59H103.938V174.51H104.937V165.59Z" fill="#FEB186"/>
<path d="M112.492 165.59H111.492V174.51H112.492V165.59Z" fill="#FEB186"/>
<path d="M70.9335 167.213H69.9336V172.888H70.9335V167.213Z" fill="white"/>
<path d="M78.496 167.213H77.4961V172.888H78.496V167.213Z" fill="white"/>
<path d="M86.0468 167.213H85.0469V172.888H86.0468V167.213Z" fill="white"/>
<path d="M93.6054 167.213H92.6055V172.888H93.6054V167.213Z" fill="white"/>
<path d="M101.16 167.213H100.16V172.888H101.16V167.213Z" fill="white"/>
<path d="M116.297 167.213H115.297V172.888H116.297V167.213Z" fill="white"/>
<path d="M108.914 167.213H107.914V172.888H108.914V167.213Z" fill="white"/>
<path d="M74.7148 165.59H73.7148V174.51H74.7148V165.59Z" fill="white"/>
<path d="M82.2733 165.59H81.2734V174.51H82.2733V165.59Z" fill="white"/>
<path d="M89.828 165.59H88.8281V174.51H89.828V165.59Z" fill="white"/>
<path d="M97.3788 165.59H96.3789V174.51H97.3788V165.59Z" fill="white"/>
<path d="M104.937 165.59H103.938V174.51H104.937V165.59Z" fill="white"/>
<path d="M112.492 165.59H111.492V174.51H112.492V165.59Z" fill="white"/>
</svg>
