<svg width="346" height="226" viewBox="0 0 346 226" fill="none" xmlns="http://www.w3.org/2000/svg">
<g clip-path="url(#clip0_3536_8026)">
<g clip-path="url(#clip1_3536_8026)">
<path d="M296.986 98.8723C298.253 104.27 297.736 109.933 295.511 115.012C295.401 115.296 295.228 115.553 295.006 115.761C294.783 115.97 294.516 116.126 294.225 116.219C294.225 117.324 292.12 128.358 291.403 133.441C293.275 135.313 295.313 141.272 294.617 146.176C292.35 162.192 268.356 164.086 252.144 164.339C251.313 167.363 247.43 184.323 246.24 189.971C242.571 207.484 240.751 220.271 239.826 224.335C239.217 226.158 239.184 228.124 239.731 229.966C239.875 230.402 240.11 230.802 240.422 231.139C240.733 231.476 241.113 231.743 241.536 231.922C241.958 232.1 242.415 232.186 242.873 232.173C243.332 232.16 243.783 232.049 244.195 231.848C246.474 230.521 248.737 219.202 248.884 218.456C252.408 200.559 254.52 187.039 257.092 170.504C255.999 170.646 254.888 170.51 253.861 170.111C253.786 170.063 253.727 169.996 253.69 169.916C253.653 169.836 253.639 169.747 253.651 169.66C253.662 169.573 253.698 169.491 253.755 169.423C253.812 169.356 253.886 169.306 253.97 169.28C254.699 169.145 255.449 169.172 256.166 169.357C260.188 169.802 274.358 170.087 282.328 169.923C287.894 169.808 294.299 168.483 295.785 163.147C296.283 161.358 309.792 120.955 309.792 112.094C309.802 102.875 303.503 97.5288 296.986 98.8723ZM301.378 127.731C298.177 140.182 297.827 142.752 296.751 144.499C296.716 144.552 296.665 144.594 296.606 144.616C296.546 144.639 296.48 144.641 296.419 144.624C296.357 144.606 296.303 144.569 296.264 144.519C296.225 144.468 296.203 144.406 296.202 144.342C296.269 142.7 296.56 141.074 297.066 139.511C297.422 138.144 299.514 129.659 300.266 126.79C302.811 117.119 304.917 111.533 302.007 101.79C301.989 101.727 301.994 101.66 302.022 101.601C302.05 101.542 302.098 101.496 302.158 101.471C302.218 101.445 302.286 101.443 302.347 101.464C302.409 101.485 302.461 101.528 302.492 101.585C307.21 108.86 302.924 121.721 301.379 127.731H301.378Z" fill="#FE6B21"/>
<path d="M293.081 168.495C291.305 169.558 289.33 170.244 287.277 170.511C288.778 178.541 295.245 212.484 297.817 221.297C299.091 225.659 300.39 232.922 304.53 231.006C308.466 229.184 306.084 223.539 305.472 220.512C302.024 203.442 298.165 185.211 293.081 168.495Z" fill="#FE6B21"/>
<path d="M233.4 232.457C228.294 232.076 233.207 232.37 156.86 231.5C155.597 218.45 156.259 213.908 155.564 144.092C174.635 143.999 223.604 143.721 229.004 143.623C229.151 143.623 229.293 143.564 229.398 143.46C229.502 143.355 229.561 143.213 229.561 143.066C229.561 142.918 229.502 142.776 229.398 142.672C229.293 142.567 229.151 142.508 229.004 142.508C209.634 142.173 160.087 142.364 154.691 142.351C154.459 142.356 154.239 142.45 154.075 142.614C153.911 142.778 153.817 142.998 153.812 143.23C153.813 143.444 153.956 219.54 155.381 232.287C155.385 232.493 155.469 232.691 155.615 232.837C155.761 232.983 155.959 233.067 156.165 233.071C176.163 233.174 227.687 234.032 233.411 233.714C233.578 233.712 233.737 233.644 233.854 233.525C233.971 233.407 234.036 233.246 234.034 233.079C234.033 232.913 233.965 232.753 233.846 232.637C233.727 232.52 233.567 232.455 233.4 232.457Z" fill="#FEB186"/>
<path d="M230.39 144.358C230.294 143.871 229.554 143.996 229.541 144.467C229.458 147.839 230.23 153.147 231.252 177.372C231.716 188.367 232.74 226.332 233.071 229.587C233.071 229.722 233.124 229.852 233.22 229.947C233.316 230.043 233.445 230.097 233.581 230.097C233.716 230.097 233.845 230.043 233.941 229.947C234.037 229.852 234.09 229.722 234.09 229.587C234.167 226.74 232.616 155.896 230.39 144.358Z" fill="#FEB186"/>
<path d="M155.434 141.305C158.341 139.687 161.132 137.868 163.786 135.861C166.53 133.963 182.965 122.605 184.333 121.651C187.265 119.605 186.28 120.004 196.409 120.004C197.323 120.072 198.243 120.023 199.145 119.86C199.257 119.825 199.355 119.756 199.425 119.661C199.495 119.566 199.533 119.452 199.533 119.334C199.533 119.217 199.495 119.102 199.425 119.008C199.355 118.913 199.257 118.844 199.145 118.809C198.396 118.625 198.508 118.665 189.264 118.665C185.561 118.665 185.249 119.385 181.092 122.288C157.349 138.913 156.84 139.109 155.009 140.812C154.76 141.047 155.121 141.449 155.434 141.305Z" fill="#FEB186"/>
<path d="M202.222 121.566C203.049 124.255 202.897 123.175 209.719 123.355C210.252 123.418 210.792 123.397 211.319 123.293C212.327 122.987 212.615 121.88 212.98 121.017C214.566 117.261 215.667 113.319 216.259 109.286C216.285 109.182 216.288 109.073 216.266 108.968C216.245 108.863 216.2 108.763 216.136 108.678C216.071 108.592 215.988 108.522 215.893 108.472C215.798 108.423 215.693 108.395 215.585 108.392C213.435 108.392 211.265 108.376 209.105 108.36C209.466 104.911 209.639 101.445 209.624 97.9774C209.616 97.8463 209.568 97.7207 209.487 97.6176C209.406 97.5146 209.294 97.4391 209.169 97.4014C209.013 97.36 208.847 97.381 208.706 97.4601C208.565 97.5391 208.461 97.67 208.415 97.8248C208.221 99.5899 208.147 101.366 208.195 103.141C208.112 104.887 208.138 106.637 208.274 108.38H206.392C204.964 100.522 205.308 99.4347 204.62 94.5459C204.561 94.1226 203.915 94.2493 203.9 94.641C203.804 99.2615 204.246 103.877 205.217 108.396C204.929 108.396 204.669 108.396 204.386 108.412C204.386 108.276 202.925 103.372 202.787 102.907C202.345 101.156 201.757 99.4456 201.03 97.7931C200.993 97.7333 200.937 97.6869 200.872 97.6606C200.806 97.6344 200.734 97.6296 200.666 97.6471C200.598 97.6647 200.537 97.7035 200.492 97.7579C200.448 97.8124 200.422 97.8797 200.418 97.9501C201.006 101.514 201.903 105.019 203.099 108.428C202.457 108.443 201.813 108.455 201.187 108.475C201.007 108.483 200.838 108.56 200.713 108.69C200.589 108.82 200.52 108.993 200.52 109.173C200.52 109.352 200.589 109.525 200.713 109.655C200.838 109.785 201.007 109.862 201.187 109.87C205.704 109.964 210.22 109.87 214.737 109.807C214.154 113.745 213.057 117.589 211.475 121.242C211.319 121.602 211.226 122.002 210.786 122.106C210.467 122.18 210.882 122.059 207.68 122.059C202.874 122.059 203.825 122.724 203.367 121.244C202.992 120.035 200.242 111.086 199.623 109.715C199.403 109.23 198.74 109.605 198.824 110.06C199.021 111.164 201.894 120.499 202.222 121.566Z" fill="#FE6B21"/>
<path d="M235.785 118.713C234.139 118.545 232.483 118.503 230.83 118.588C217.27 118.769 216.331 118.792 214.784 119.074C214.439 119.136 214.424 119.728 214.784 119.78C218.206 120.274 232.282 119.67 234.97 119.924C231.533 134.468 229.498 139.118 229.449 141.082C229.452 141.171 229.484 141.256 229.54 141.326C229.596 141.395 229.672 141.445 229.758 141.468C229.844 141.491 229.935 141.486 230.018 141.453C230.101 141.42 230.171 141.362 230.218 141.286C231.577 139.246 235.739 122.71 236.429 119.542C236.45 119.445 236.45 119.343 236.428 119.246C236.406 119.148 236.362 119.056 236.301 118.977C236.24 118.898 236.161 118.833 236.072 118.788C235.983 118.742 235.885 118.716 235.785 118.713Z" fill="#FEB186"/>
<path d="M180.15 128.657C180.478 128.342 180.069 127.851 179.68 128.045C176.614 129.569 170.97 134.754 168.448 137.08C168.366 137.166 168.312 137.275 168.291 137.392C168.27 137.51 168.284 137.63 168.33 137.74C168.377 137.85 168.454 137.943 168.553 138.01C168.652 138.076 168.768 138.112 168.887 138.114C171.321 138.213 191.249 138.795 195.393 138.616C195.536 138.609 195.671 138.547 195.769 138.444C195.867 138.34 195.922 138.203 195.922 138.06C195.922 137.917 195.867 137.779 195.769 137.676C195.671 137.572 195.536 137.51 195.393 137.503C191.003 137.215 186.547 137.289 182.145 137.189C178.224 137.1 174.319 136.939 170.398 136.891C174.93 132.614 177.75 130.971 180.15 128.657Z" fill="#4355E6"/>
<path d="M196.714 138.256C198.482 136.929 200.149 135.471 201.702 133.896C203.374 132.367 205.042 130.835 206.706 129.3C206.789 129.211 206.845 129.101 206.867 128.982C206.889 128.863 206.877 128.74 206.832 128.628C206.786 128.515 206.709 128.419 206.611 128.349C206.512 128.278 206.395 128.238 206.274 128.233C202.884 127.945 182.779 126.526 180.362 127.356C180.283 127.379 180.213 127.427 180.163 127.493C180.113 127.56 180.086 127.641 180.086 127.724C180.086 127.807 180.113 127.887 180.163 127.954C180.213 128.02 180.283 128.068 180.362 128.091C181.369 128.291 182.398 128.355 183.421 128.28C191.721 128.407 196.644 128.767 204.783 129.363C197.922 135.722 197.507 135.664 196.079 137.44C195.734 137.858 196.197 138.602 196.714 138.256Z" fill="#4355E6"/>
<path d="M186.988 129.661C185.783 130.486 184.784 131.356 182.22 133.471C181.765 133.847 181.264 134.131 181.107 134.727C181.092 134.783 181.09 134.842 181.1 134.899C181.111 134.956 181.135 135.01 181.169 135.057C181.204 135.104 181.249 135.142 181.3 135.169C181.352 135.196 181.409 135.211 181.467 135.212C182.135 135.176 182.465 134.792 184.432 133.159C185.534 132.293 186.557 131.332 187.491 130.287C187.764 129.965 187.399 129.38 186.988 129.661Z" fill="#4355E6"/>
<path d="M187.303 134.789C188.098 134.614 188.491 134.153 191.569 131.045C191.787 130.824 191.505 130.414 191.224 130.589C190.378 131.132 189.56 131.718 188.776 132.346C187.967 132.833 187.314 133.54 186.894 134.385C186.802 134.617 187.068 134.84 187.303 134.789Z" fill="#4355E6"/>
<path d="M195.615 130.444C194.579 131.257 193.587 132.069 192.635 132.969C191.915 133.655 190.583 134.553 190.393 135.573C190.379 135.627 190.38 135.684 190.394 135.738C190.409 135.791 190.438 135.841 190.477 135.88C190.517 135.919 190.566 135.948 190.62 135.963C190.673 135.978 190.73 135.978 190.784 135.965C191.817 135.79 192.773 134.503 193.483 133.805C194.419 132.876 195.268 131.921 196.118 130.935C196.15 130.902 196.176 130.863 196.193 130.82C196.21 130.777 196.219 130.731 196.218 130.685C196.218 130.639 196.208 130.593 196.19 130.551C196.172 130.509 196.145 130.47 196.112 130.438C196.079 130.406 196.04 130.38 195.997 130.363C195.955 130.346 195.909 130.337 195.863 130.338C195.817 130.338 195.771 130.348 195.729 130.366C195.686 130.384 195.648 130.411 195.615 130.444Z" fill="#29175F"/>
<path d="M98.0758 77.6566C98.1699 77.5503 98.2397 77.4246 98.2802 77.2884C98.3206 77.1522 98.3307 77.0089 98.3099 76.8683C98.289 76.7278 98.2377 76.5936 98.1594 76.475C98.0812 76.3565 97.9779 76.2565 97.8569 76.1821C97.7243 76.0893 97.5677 76.0368 97.406 76.0308C97.2443 76.0249 97.0843 76.0657 96.9452 76.1484C96.8061 76.2311 96.6938 76.3521 96.6218 76.4971C96.5498 76.642 96.5212 76.8046 96.5393 76.9654C96.5137 77.1532 96.5495 77.3443 96.6415 77.51C96.7334 77.6758 96.8764 77.8073 97.0493 77.8851C97.2221 77.9629 97.4155 77.9826 97.6005 77.9414C97.7855 77.9003 97.9522 77.8004 98.0758 77.6566Z" fill="#29175F"/>
<path d="M112.377 96.895C111.788 96.5092 111.088 96.3276 110.386 96.378C107.911 96.227 105.429 96.4651 103.029 97.0836C102.651 97.2046 102.7 97.8353 103.124 97.8036C109.906 97.3155 111.346 98.0758 112.298 97.5833C112.354 97.5476 112.401 97.4999 112.436 97.4436C112.471 97.3873 112.494 97.3239 112.501 97.258C112.509 97.1921 112.502 97.1253 112.48 97.0625C112.459 96.9997 112.423 96.9425 112.377 96.895Z" fill="#29175F"/>
<path d="M108.775 99.0435C107.264 98.9518 105.751 99.2039 104.352 99.7807C104.276 99.8265 104.218 99.8954 104.185 99.9772C104.153 100.059 104.147 100.149 104.17 100.234C104.194 100.319 104.244 100.394 104.313 100.448C104.383 100.503 104.468 100.532 104.556 100.534C106.093 100.489 107.63 100.39 109.151 100.345C111.448 100.28 111.942 100.365 112.398 99.7692C112.443 99.6982 112.46 99.6138 112.449 99.5309C112.437 99.448 112.397 99.3718 112.335 99.3156C111.956 98.862 111.592 98.8678 108.775 99.0435Z" fill="#29175F"/>
<path d="M236.459 141.44C238.099 139.761 240.123 138.507 242.356 137.785C246.47 136.287 256.574 133.479 258.104 132.735C258.978 132.216 259.627 131.391 259.926 130.419C260.225 129.448 260.151 128.4 259.719 127.48C259.698 127.412 259.653 127.353 259.592 127.315C259.532 127.276 259.46 127.26 259.389 127.269C259.317 127.278 259.252 127.312 259.203 127.365C259.155 127.418 259.126 127.486 259.123 127.558C259.266 128.675 259.142 129.81 258.762 130.87C258.121 131.986 256.504 132.173 255.375 132.517C252.692 133.335 250.022 134.139 247.344 134.948C243.408 136.138 237.044 137.552 235.769 141.065C235.627 141.448 236.18 141.661 236.459 141.44Z" fill="#29175F"/>
<path d="M268.031 75.2824C268.124 75.1813 268.187 75.0556 268.211 74.9201C268.235 74.7846 268.22 74.645 268.167 74.5178C268.115 74.3907 268.026 74.2813 267.913 74.2027C267.801 74.1241 267.667 74.0795 267.53 74.0742C267.437 74.0738 267.345 74.0918 267.259 74.1272C267.174 74.1625 267.096 74.2144 267.03 74.28C266.964 74.3456 266.912 74.4236 266.877 74.5093C266.842 74.5951 266.824 74.6871 266.824 74.7798C266.826 74.9189 266.868 75.0545 266.946 75.1698C267.024 75.2851 267.134 75.3751 267.262 75.4286C267.39 75.4821 267.532 75.4967 267.668 75.4707C267.805 75.4447 267.931 75.3793 268.031 75.2824Z" fill="#29175F"/>
<path d="M272.877 74.749C272.709 74.749 272.547 74.8159 272.428 74.935C272.309 75.0541 272.242 75.2156 272.242 75.3841C272.242 75.5525 272.309 75.714 272.428 75.8331C272.547 75.9522 272.709 76.0191 272.877 76.0191C273.046 76.0191 273.207 75.9522 273.326 75.8331C273.445 75.714 273.512 75.5525 273.512 75.3841C273.512 75.2156 273.445 75.0541 273.326 74.935C273.207 74.8159 273.046 74.749 272.877 74.749Z" fill="#29175F"/>
<path d="M269.648 80.1445C269.74 80.1427 269.829 80.114 269.905 80.0621C269.981 80.0101 270.04 79.9372 270.075 79.8522C270.11 79.7672 270.12 79.6738 270.102 79.5835C270.085 79.4933 270.042 79.41 269.978 79.3439C269.68 79.0458 268.69 78.8255 268.77 78.3359C269.82 77.0261 270.429 75.4178 270.511 73.7409C270.507 73.6542 270.473 73.5716 270.414 73.5076C270.356 73.4435 270.277 73.4022 270.191 73.3909C270.105 73.3795 270.017 73.3989 269.944 73.4455C269.871 73.4921 269.817 73.5631 269.791 73.6458C269.385 75.2228 268.649 76.6954 267.631 77.9658C266.97 79.0487 268.646 80.2583 269.648 80.1445Z" fill="#29175F"/>
<path d="M271.796 80.1909C270.49 81.8353 268.81 81.6309 267.671 82.0888C267.39 82.2025 267.311 82.6533 267.671 82.7325C268.392 82.8424 269.128 82.8015 269.833 82.6124C270.538 82.4233 271.196 82.0901 271.765 81.6337C271.88 82.6022 271.75 83.5839 271.388 84.4893C271.1 85.1488 270.568 85.8889 269.835 85.2726C269.449 84.867 269.15 84.3868 268.957 83.8614C268.725 83.3891 268.044 83.6569 268.016 84.112C268.049 84.554 268.182 84.9828 268.405 85.366C268.628 85.7492 268.934 86.0767 269.302 86.3238C269.64 86.5825 270.06 86.7093 270.484 86.6804C270.908 86.6515 271.307 86.4689 271.606 86.1669C273.094 84.7528 272.911 82.2659 272.642 80.4069C272.618 80.3215 272.572 80.2439 272.509 80.1819C272.446 80.1199 272.368 80.0757 272.282 80.0537C272.196 80.0318 272.106 80.0329 272.021 80.057C271.935 80.0811 271.858 80.1273 271.796 80.1909Z" fill="#29175F"/>
<path d="M257.162 109.481C258.647 109.946 260.207 110.122 261.759 109.998C261.866 109.967 261.96 109.902 262.027 109.813C262.094 109.724 262.13 109.615 262.13 109.504C262.13 109.392 262.094 109.284 262.027 109.195C261.96 109.106 261.866 109.041 261.759 109.01C260.489 108.921 259.227 108.753 257.979 108.507C259.372 102.459 261.651 93.5025 267.749 92.1648C268.174 92.0712 268.063 91.4448 267.655 91.4275C264.111 91.3123 261.678 94.9238 260.252 97.7318C258.625 101.256 257.45 104.971 256.754 108.79C256.719 108.935 256.742 109.089 256.818 109.218C256.894 109.347 257.018 109.441 257.162 109.481Z" fill="#29175F"/>
<path d="M263.985 104.266C263.959 104.183 263.905 104.112 263.831 104.066C263.758 104.019 263.671 104 263.585 104.011C263.499 104.022 263.42 104.064 263.361 104.128C263.303 104.192 263.269 104.274 263.265 104.361C263.265 106.509 262.316 108.469 261.995 110.572C261.737 112.265 261.707 114.823 262.842 116.234C262.907 116.296 262.989 116.339 263.078 116.355C263.167 116.372 263.259 116.362 263.342 116.327C263.426 116.292 263.497 116.233 263.548 116.158C263.598 116.083 263.625 115.995 263.626 115.904C263.505 114.242 262.541 113.115 263.297 109.787C263.939 108.022 264.174 106.135 263.985 104.266Z" fill="#29175F"/>
<path d="M240.158 113.225C240.798 113.856 241.822 114.936 242.732 115.059C242.806 115.076 242.884 115.071 242.955 115.045C243.027 115.019 243.089 114.972 243.135 114.912C243.182 114.851 243.21 114.779 243.216 114.703C243.222 114.627 243.206 114.551 243.171 114.483C242.779 113.667 241.666 113.133 241.011 112.539C240.259 111.863 239.744 110.997 239.05 110.296C238.785 110.028 238.423 110.312 238.473 110.641C238.755 111.656 239.343 112.558 240.158 113.225Z" fill="#29175F"/>
<path d="M242.874 111.999C243.252 112.456 243.688 112.862 244.17 113.207C244.209 113.227 244.252 113.237 244.295 113.237C244.339 113.236 244.382 113.223 244.419 113.201C244.457 113.179 244.488 113.148 244.51 113.11C244.533 113.073 244.545 113.03 244.546 112.987C244.546 111.424 243.047 111.436 240.265 107.577C240.047 107.276 239.444 107.453 239.605 107.865C240.37 109.471 241.487 110.884 242.874 111.999Z" fill="#29175F"/>
<path d="M244.349 109.726C245.006 110.433 246.105 111.906 247.203 111.812C247.285 111.808 247.363 111.781 247.43 111.733C247.496 111.686 247.548 111.621 247.579 111.546C247.61 111.471 247.62 111.388 247.606 111.308C247.592 111.228 247.556 111.153 247.501 111.092C247.146 110.679 246.594 110.444 246.184 110.057C244.545 108.507 243.461 107.158 242.31 105.931C242.252 105.875 242.175 105.841 242.094 105.837C242.013 105.832 241.933 105.856 241.868 105.906C241.803 105.955 241.759 106.026 241.742 106.105C241.725 106.185 241.737 106.268 241.776 106.339C242.514 107.554 243.376 108.689 244.349 109.726Z" fill="#29175F"/>
<path d="M252.317 115.654C252.351 115.77 252.421 115.872 252.516 115.945C252.612 116.018 252.729 116.059 252.85 116.061C255.217 115.956 257.585 116.237 259.861 116.894C271.023 119.644 275.599 124.192 277.913 124.923C278.151 124.998 278.415 124.704 278.259 124.484C277.576 123.656 276.74 122.969 275.796 122.461C267.683 117.254 257.844 114.699 253.241 114.948C252.052 111.853 250.188 109.061 247.784 106.776C247.52 106.507 247.019 106.867 247.251 107.184C249.396 109.707 251.108 112.57 252.317 115.654Z" fill="#29175F"/>
<path d="M259.783 110.681C259.583 111.751 259.6 112.849 259.831 113.912C259.853 113.98 259.896 114.04 259.954 114.082C260.012 114.124 260.081 114.146 260.153 114.146C260.224 114.146 260.294 114.124 260.352 114.082C260.409 114.04 260.452 113.98 260.475 113.912C260.623 112.841 260.639 111.756 260.521 110.681C260.521 110.583 260.482 110.49 260.413 110.42C260.344 110.351 260.25 110.312 260.152 110.312C260.054 110.312 259.96 110.351 259.891 110.42C259.822 110.49 259.783 110.583 259.783 110.681Z" fill="#29175F"/>
<path d="M298.136 92.2841C296.766 91.4619 296.386 89.7411 296.035 88.2996C294.359 81.415 296.121 77.0676 296.772 71.4703C297.469 65.4641 295.596 56.4699 288.132 56.0839C286.93 56.0299 285.732 56.2585 284.635 56.7514C283.537 57.2443 282.57 57.9878 281.812 58.9222C282.671 59.1754 283.403 59.7404 283.867 60.5062C284.744 62.1175 283.925 63.258 283.255 63.0305C282.837 62.8865 282.976 62.3926 282.156 61.4465C276.13 54.4884 262.804 61.1383 266.362 69.6185C266.442 69.7397 266.531 69.8548 266.629 69.9627C264.995 74.2015 264.315 78.7483 264.637 83.2798C265.069 86.2793 266.567 89.5049 269.499 89.5697C269.931 91.0025 269.28 91.3755 269.643 91.9687C269.913 92.4137 270.845 92.2812 270.773 90.6987C270.754 90.2836 270.664 89.8749 270.507 89.4905C271.506 89.2795 272.441 88.8354 273.235 88.1945C274.721 86.9185 276.039 85.4586 277.157 83.85C277.015 85.2433 277.42 86.637 278.285 87.738C278.349 87.8421 278.444 87.9228 278.558 87.968C278.671 88.0132 278.796 88.0204 278.913 87.9886C278.996 87.9664 279.072 87.9255 279.135 87.869C279.199 87.8125 279.249 87.7419 279.281 87.6629C279.313 87.5839 279.326 87.4986 279.319 87.4136C279.312 87.3287 279.286 87.2465 279.242 87.1735C278.436 86.1553 277.994 84.8965 277.987 83.598C277.989 83.5401 277.977 83.4825 277.952 83.4301C277.927 83.3777 277.891 83.332 277.845 83.2967C277.799 83.2614 277.745 83.2375 277.688 83.2271C277.631 83.2166 277.572 83.2199 277.517 83.2366C277.615 83.0587 277.704 82.8756 277.783 82.6879C279.291 83.5303 281.246 81.9982 281.078 79.6294C282.898 79.1497 284.502 78.0656 285.625 76.555C285.893 80.6316 286.525 85.8012 288.779 89.1809C286.123 87.8301 283.159 87.1977 280.183 87.3463C280.073 87.3472 279.964 87.3765 279.868 87.4315C279.772 87.4865 279.692 87.5653 279.635 87.6603C278.781 89.8298 277.287 91.6881 275.352 92.9883C274.432 93.5601 273.344 93.8005 272.269 93.6696C271.194 93.5386 270.195 93.0442 269.44 92.2683C269.062 91.8607 268.355 92.395 268.671 92.8644C269.422 93.8467 270.491 94.5382 271.695 94.8212C272.899 95.1042 274.164 94.9613 275.274 94.4167C277.68 93.1915 279.567 91.1436 280.591 88.6452C283.35 88.5336 286.084 89.2019 288.481 90.5734C293.832 94.1489 297.386 102.998 293.264 113.585C288.376 112.532 283.376 112.094 278.379 112.281C279.733 108.802 280.27 108.236 280.811 106.605C281.013 105.991 280.185 105.758 279.854 106.196C278.608 108.304 277.559 110.521 276.717 112.82C276.69 112.921 276.687 113.027 276.707 113.13C276.727 113.233 276.771 113.33 276.835 113.413C276.898 113.497 276.98 113.564 277.074 113.611C277.167 113.658 277.271 113.683 277.375 113.684C277.894 113.667 278.395 113.654 278.913 113.638C278.49 114.814 278.193 116.056 277.689 117.213C276.625 119.647 275.907 120.039 275.917 120.995C275.918 121.041 275.929 121.086 275.949 121.127C275.97 121.168 275.999 121.204 276.035 121.232C276.071 121.26 276.113 121.28 276.158 121.291C276.203 121.301 276.249 121.301 276.294 121.291C276.881 120.995 277.339 120.492 277.58 119.88C278.707 117.945 279.502 115.835 279.933 113.638C283.633 113.618 287.328 113.923 290.975 114.548C289.516 119.012 287.31 123.196 284.45 126.922C282.29 129.564 279.42 132.28 270.678 130.217C263.498 128.522 257.933 124.007 252.453 119.129C251.556 118.331 246.549 120.409 242.995 118.675C241.891 118.096 240.903 117.319 240.078 116.384C238.652 114.863 238.526 114.25 237.693 113.936C237.629 113.92 237.561 113.918 237.496 113.932C237.43 113.945 237.369 113.974 237.316 114.014C237.263 114.055 237.22 114.107 237.191 114.167C237.161 114.227 237.145 114.293 237.145 114.359C237.234 114.946 237.516 115.487 237.945 115.897C239.137 117.582 240.718 118.954 242.553 119.896C245.368 120.978 248.48 120.995 251.306 119.942C255.245 123.731 259.702 126.943 264.544 129.479C263.834 129.538 264.274 130.562 264.371 132.161C262.566 131.785 261.491 134.321 261.059 136.129C256.275 136.954 245.297 139.127 240.611 140.835C235.795 142.588 233.624 144.65 232.031 147.078C232.967 155.07 233.784 173.762 234.07 182.07C236.341 188.982 239.156 195.69 242.278 204.358C242.47 204.889 243.358 205.016 243.486 204.358C243.878 202.333 244.299 199.629 244.926 197.581C247.874 202.961 250.931 208.288 253.96 213.627C254.03 213.746 254.136 213.84 254.264 213.893C254.391 213.947 254.532 213.958 254.667 213.925L256.097 213.358C256.298 214.342 256.587 215.306 256.961 216.238C256.598 216.346 256.265 216.535 255.987 216.79C255.708 217.045 255.491 217.361 255.352 217.712C254.666 219.237 253.808 220.679 252.795 222.009C249.294 226.406 246.552 226.617 244.137 228.502C241.722 230.387 242.203 233.372 243.181 233.349C245.127 233.302 247.086 233.171 249.03 233.083C255.726 232.778 255.64 233.263 257.892 229.726C258.742 228.394 259.587 227.075 260.37 225.712C260.402 227.749 260.45 229.772 260.465 231.811C260.469 231.963 260.531 232.107 260.638 232.215C260.745 232.322 260.89 232.384 261.041 232.387C262.481 232.304 263.921 232.138 265.361 231.955C265.485 231.922 265.593 231.848 265.67 231.745C265.747 231.643 265.787 231.517 265.785 231.39C265.844 227.207 265.671 223.025 265.268 218.862C265.154 217.748 265.281 215.368 263.871 214.94C262.356 214.48 264.076 216.445 261.656 211.165C261.786 211.093 261.89 210.984 261.955 210.851C262.021 210.719 262.043 210.569 262.021 210.423C258.943 193.019 256.415 179.218 250.335 163.495C250.445 163.437 250.537 163.351 250.601 163.244C266.488 163.046 291.136 161.529 293.28 146.131C293.806 142.35 292.272 135.563 289.968 134.086C290.767 128.173 292.04 122.353 292.87 116.457C292.888 116.37 292.873 116.279 292.826 116.203C292.78 116.127 292.706 116.071 292.62 116.047C292.535 116.023 292.443 116.032 292.364 116.074C292.284 116.115 292.224 116.185 292.194 116.269C290.508 121.985 289.351 127.844 288.738 133.772C288.377 133.804 288.018 133.886 287.656 133.929C283.023 134.48 267.998 134.24 265.336 132.595C265.336 128.258 262.633 129.692 269.696 131.498C273.078 132.449 276.647 132.519 280.064 131.703C283.402 130.785 285.487 127.858 287.294 125.079C289.471 122.004 290.919 118.475 291.529 114.758C292.156 114.868 292.783 114.991 293.411 115.135C293.588 115.179 293.774 115.152 293.932 115.062C294.09 114.971 294.207 114.823 294.258 114.649C297.257 107.204 297.317 99.0521 292.53 92.7377C294.199 93.5677 296.089 93.8427 297.926 93.5225C298.054 93.4887 298.169 93.4187 298.259 93.3209C298.348 93.2231 298.407 93.1016 298.43 92.971C298.452 92.8404 298.436 92.7062 298.384 92.5843C298.332 92.4625 298.246 92.3583 298.136 92.2841ZM278.133 81.4006C277.737 80.7598 276.737 81.2911 277.02 81.9175C276.077 82.9255 274.377 85.8559 272.079 87.4385C269.702 89.0758 267.504 88.507 266.319 85.1345C265.596 82.6549 265.473 80.0391 265.959 77.5025C266.269 75.0616 266.701 72.6379 267.255 70.2406C267.473 70.2132 271.591 66.9804 275.411 70.2406C277.62 72.1255 277.802 75.1769 277.45 77.8726C277.383 78.3895 277.747 78.8806 278.314 78.7366C279.425 78.4385 280.005 78.8993 279.944 79.9131C279.914 80.5668 278.88 82.6102 278.133 81.4006ZM286.351 75.8321C286.295 75.9307 286.205 76.0057 286.098 76.0432C285.991 76.0807 285.874 76.0783 285.769 76.0364C285.664 75.9944 285.577 75.9158 285.525 75.815C285.473 75.7142 285.46 75.598 285.487 75.4879C286.179 73.5502 286.483 71.4951 286.381 69.4399C286.23 67.3255 285.632 65.2673 284.624 63.402C284.581 63.3211 284.571 63.2266 284.595 63.1381C284.62 63.0497 284.678 62.9743 284.757 62.9276C284.836 62.8809 284.93 62.8666 285.019 62.8877C285.109 62.9087 285.186 62.9635 285.236 63.0406C288.013 67.1446 288.026 72.9766 286.351 75.8321ZM262.303 215.55C261.692 216.444 261.543 216.763 261.168 217.024C260.913 217.24 260.595 217.367 260.261 217.387C259.928 217.407 259.597 217.318 259.318 217.135C258.922 216.715 258.432 216.395 257.888 216.2C257.733 215.097 257.421 214.022 256.962 213.006C261.563 211.183 259.949 211.83 260.759 211.503C261.723 213.987 261.75 214.914 262.297 215.548L262.303 215.55ZM272.085 141.205C272.226 141.212 272.358 141.273 272.455 141.376C272.553 141.478 272.607 141.614 272.607 141.755C272.607 141.896 272.553 142.031 272.455 142.133C272.358 142.236 272.226 142.297 272.085 142.304C260.765 142.785 242.516 144.176 236.904 154.02C232.872 161.09 236.15 171.536 238.488 179.069C241.394 188.429 243.256 191.597 244.794 196.071C244.918 196.431 244.384 196.621 244.198 196.321C241.332 191.713 237.947 181.777 236.433 176.574C234.792 170.941 233.048 165.031 233.893 159.102C235.395 148.555 246.267 144.032 256.729 141.966C261.785 140.995 266.952 140.738 272.079 141.204L272.085 141.205Z" fill="#29175F"/>
<path d="M85.433 72.7722C85.8103 72.693 85.7628 72.1617 85.433 72.0522C83.3465 71.351 82.7503 74.5161 83.2226 75.9114C83.5099 76.7164 84.062 77.4 84.7885 77.8502C85.515 78.3004 86.3728 78.4906 87.2215 78.3897C87.3309 79.2047 87.4375 80.0054 87.5196 80.8204C87.5504 81.7414 87.6501 82.6589 87.8177 83.565C87.9962 84.2534 88.9193 84.0359 88.9941 83.4081C88.9252 81.4203 88.7208 79.4395 88.3821 77.4796C88.3366 77.3166 88.2292 77.1779 88.0829 77.0929C87.9366 77.0079 87.7629 76.9834 87.5988 77.0246C84.2393 77.9577 83.0873 73.2647 85.433 72.7722Z" fill="#29175F"/>
<path d="M100.096 64.5064C99.893 63.9851 98.7857 61.1483 98.4818 60.6645C99.7866 59.1683 100.817 57.4533 101.525 55.5986C101.844 54.7328 101.877 53.7875 101.62 52.9013C101.363 52.0151 100.829 51.2345 100.096 50.6738C98.4314 49.6111 96.283 50.2605 94.7018 51.1749C92.8946 52.2203 91.3754 53.7136 89.5092 54.6568C87.3132 55.7671 84.9775 55.3163 82.6404 55.6447C81.6637 55.7242 80.7263 56.0646 79.9261 56.6302C79.1259 57.1959 78.4923 57.966 78.0914 58.8602C76.0538 63.5819 79.1887 68.8192 82.217 72.3026C82.5151 72.7101 83.153 72.1946 82.891 71.7683C80.8591 68.4563 78.139 65.0003 78.859 60.8243C78.9515 59.9233 79.328 59.075 79.9342 58.402C80.5405 57.729 81.3449 57.2662 82.2314 57.0803C84.1754 56.6483 86.2145 57.0487 88.1599 56.5951C91.8046 55.7426 94.2367 52.2578 97.2319 51.6069C97.6395 51.483 98.0724 51.4675 98.4878 51.5622C98.9032 51.6568 99.2868 51.8582 99.6005 52.1464C99.9142 52.4347 100.147 52.7998 100.277 53.2058C100.406 53.6117 100.427 54.0444 100.338 54.461C100.183 55.3953 99.836 56.2872 99.3185 57.0803C97.913 59.4851 97.3874 60.2771 95.0518 60.9856C91.6077 62.0275 88.0652 62.7108 84.4807 63.0247C84.089 63.0592 83.6081 63.4567 83.8068 63.9189C84.8148 66.2229 85.6111 68.6032 84.5124 71.0555C84.2734 71.5883 84.9343 72.2306 85.3764 71.7295C87.2354 69.6213 86.4434 66.7427 85.4858 64.3437C88.6898 64.0053 95.6926 62.7395 97.7978 61.2535C98.3652 63.9664 101.503 69.8935 102.033 74.8989C102.272 76.0146 102.18 77.1761 101.766 78.2397C100.777 80.0354 97.8166 80.3248 94.6457 81.0146C93.9853 81.0676 93.3437 81.2605 92.7636 81.5805C92.6909 81.6271 92.6329 81.6934 92.5966 81.7718C92.5603 81.8502 92.5471 81.9373 92.5586 82.0229C92.5701 82.1085 92.6058 82.189 92.6615 82.2551C92.7172 82.3211 92.7906 82.3698 92.873 82.3955C94.8843 82.1676 96.8762 81.7936 98.8332 81.2767C99.4999 82.6677 99.7073 84.2387 100.433 83.8226C101.129 83.4237 100.1 81.8714 99.5186 81.0779C103.754 79.769 105.022 77.1223 100.096 64.5064Z" fill="#29175F"/>
<path d="M89.5904 71.2515C89.8032 71.4433 90.0573 71.5837 90.333 71.6618C90.6087 71.7399 90.8986 71.7537 91.1805 71.7021C91.4623 71.6504 91.7286 71.5348 91.9587 71.3641C92.1888 71.1934 92.3767 70.9721 92.5078 70.7173C92.7281 70.232 92.8332 69.3579 92.3825 68.9763C92.3353 68.9306 92.2782 68.8961 92.2157 68.8758C92.1531 68.8554 92.0867 68.8495 92.0216 68.8587C91.9564 68.8679 91.8943 68.8918 91.8398 68.9287C91.7853 68.9655 91.7399 69.0143 91.7072 69.0714C91.3428 69.6272 91.9433 70.6914 90.8763 70.7173C90.0915 70.7375 89.8596 69.9109 89.2289 69.6675C88.8891 69.5351 88.5046 70.3429 89.5904 71.2515Z" fill="#29175F"/>
<path d="M97.4939 68.5227C97.1339 68.5011 96.8488 68.0706 96.5694 67.8949C96.5072 67.8591 96.4358 67.8425 96.3642 67.8471C96.2925 67.8518 96.2239 67.8775 96.1668 67.921C96.1097 67.9645 96.0668 68.024 96.0434 68.0918C96.02 68.1597 96.0171 68.2329 96.0352 68.3024C96.1489 68.6779 96.3854 69.0042 96.7069 69.2291C97.0284 69.454 97.4161 69.5642 97.8078 69.5422C98.202 69.4471 98.5437 69.2023 98.7603 68.8595C98.977 68.5168 99.0516 68.1031 98.9685 67.7062C98.8965 67.0179 97.8165 67.0165 97.887 67.7062C97.9187 68.0086 97.9345 68.5472 97.4939 68.5227Z" fill="#29175F"/>
<path d="M93.3518 65.7618C93.0998 65.5746 92.8506 65.9174 92.9601 66.1535C93.621 67.5791 94.6262 68.865 95.4225 70.2158C97.0943 73.0554 96.6969 72.7012 95.83 72.7559C95.375 72.7847 94.9199 72.7775 94.4649 72.8034C94.3152 72.8034 94.1716 72.8629 94.0657 72.9688C93.9599 73.0746 93.9004 73.2182 93.9004 73.3679C93.9004 73.5176 93.9599 73.6612 94.0657 73.7671C94.1716 73.8729 94.3152 73.9324 94.4649 73.9324C95.1193 73.9602 95.7748 73.9395 96.4262 73.8705C96.8104 73.8945 97.193 73.8016 97.5234 73.6041C98.2434 72.9719 97.5882 71.7666 97.257 71.0942C96.3756 69.0441 95.0403 67.2208 93.3518 65.7618Z" fill="#29175F"/>
<path d="M104.661 91.092C103.124 90.4642 101.555 89.8997 99.9547 89.4144C99.9547 89.3986 99.9705 89.3986 99.9705 89.3828C100.225 88.9004 102.274 83.6933 102.433 83.2498C102.639 82.6551 101.667 82.2317 101.399 82.8178C100.634 84.4666 100.009 86.1874 99.3441 87.8837C99.1526 88.369 99.0561 89.0357 98.4023 88.9507C97.9999 88.8422 97.6107 88.6896 97.2417 88.4957C93.2783 87.0496 89.4945 85.1522 85.9651 82.8408C85.3675 82.4981 83.5459 85.7612 82.9065 86.762C82.3564 87.626 83.6769 87.361 95.9083 95.5762C96.1481 95.2792 96.4163 95.0063 96.7089 94.7612C92.5991 91.969 88.3958 89.3021 84.0671 86.8412C84.6316 85.885 85.1932 84.9418 85.6828 83.9611C85.9175 83.4859 84.8707 83.8171 90.3095 86.6899C92.9156 88.0001 95.5912 89.1668 98.3246 90.1848C98.4686 90.1848 98.4283 90.025 97.3051 94.3263C97.7375 94.0192 98.1997 93.7563 98.6846 93.5415C98.951 92.5335 99.2188 91.5183 99.4852 90.5175C105.14 92.1936 103.365 92.2743 105.853 92.2743C105.605 89.5796 105.22 86.8992 104.701 84.2434C104.58 83.6472 103.549 83.7725 103.618 84.3874C103.9 86.5848 104.301 88.8341 104.661 91.092Z" fill="#29175F"/>
<path d="M138.196 222.685C137.444 221.704 136.406 220.981 135.226 220.613C135.378 219.242 135.802 215.334 135.956 213.882C139.458 214.087 143.379 214.314 146.227 214.467C146.389 214.464 146.543 214.399 146.657 214.285C146.771 214.171 146.837 214.016 146.839 213.855C146.839 186.956 146.386 173.957 148.58 161.751C149.991 163.775 151.387 165.798 152.799 167.799C152.704 159.691 152.619 151.394 152.611 143.207C152.612 142.732 152.772 142.27 153.065 141.895C153.357 141.521 153.766 141.254 154.227 141.136C151.647 136.572 147.363 129.143 142.228 128.698C141.323 128.638 140.413 128.744 139.546 129.012C140.076 128.394 140.529 127.715 140.895 126.988C143.38 122.118 142.224 116.594 140.957 111.304C138.018 99.0207 133.446 92.1519 125.186 84.1398C123.473 82.4506 121.669 80.8561 119.782 79.3633C117.252 77.4236 114.454 76.214 111.408 77.1587C109.67 77.6987 103.441 81.6227 104.961 82.5702C104.971 82.6163 106.43 89.0775 107.141 92.247C107.745 92.2876 108.333 92.4533 108.869 92.7337C109.284 92.9306 109.606 93.2811 109.767 93.711C109.929 94.1409 109.916 94.6166 109.733 95.0377C109.887 95.0377 110.94 95.0766 111.224 95.1154C112.806 94.7141 114.442 94.5683 116.071 94.6835C116.572 94.7123 117.004 94.6834 117.357 95.1154C117.417 95.1787 117.451 95.2627 117.451 95.3502C117.451 95.4376 117.417 95.5217 117.357 95.5849C116.691 96.1451 116.582 95.6151 113.169 95.8729C113.355 96.0247 113.507 96.2142 113.615 96.4288C113.722 96.6435 113.783 96.8785 113.794 97.1184C113.804 97.3583 113.764 97.5977 113.675 97.8209C113.586 98.044 113.451 98.2458 113.279 98.413C113.349 98.4747 113.408 98.5489 113.451 98.6319C113.715 98.3684 114.459 98.4303 114.91 98.413C116.298 98.3612 116.373 99.3044 114.91 99.277C114.5 99.3048 114.088 99.2733 113.686 99.1835C113.776 99.6454 113.691 100.124 113.447 100.527C113.204 100.929 112.819 101.227 112.369 101.362C112.453 101.51 112.517 101.669 112.557 101.834C113.186 101.66 113.825 101.523 114.471 101.426C114.55 101.405 114.633 101.403 114.714 101.42C114.794 101.436 114.869 101.471 114.934 101.521C114.999 101.571 115.052 101.635 115.088 101.708C115.125 101.781 115.144 101.862 115.145 101.944C115.001 104.297 119.065 105.614 118.47 106.601C120.022 105.613 121.638 104.72 123.254 103.81C122.248 102.854 121.639 101.555 121.544 100.171C121.219 97.215 122.329 95.5633 121.654 94.3523C120.731 92.7035 118.188 92.7783 116.572 92.7999C115.595 92.8055 114.622 92.921 113.67 93.1441C112.884 93.4636 112.041 93.6185 111.192 93.5991C111.13 93.5804 111.073 93.5479 111.025 93.504C110.977 93.4601 110.94 93.406 110.915 93.3456C110.891 93.2853 110.881 93.2203 110.886 93.1555C110.89 93.0907 110.909 93.0277 110.942 92.9713C111.662 91.7257 114.871 91.4175 116.306 91.3873C118.11 91.3499 120.366 91.3571 121.842 92.5638C123.55 93.9606 123.033 95.7951 122.814 97.7089C122.592 98.6808 122.599 99.6911 122.835 100.66C123.071 101.628 123.53 102.529 124.175 103.289C124.394 103.164 124.629 103.038 124.849 102.897C124.936 102.844 125.035 102.816 125.137 102.816C125.239 102.816 125.338 102.844 125.425 102.897C129.302 105.294 132.784 108.278 135.746 111.743C136.769 112.764 137.593 113.966 138.176 115.288C138.32 115.712 137.783 115.9 137.502 115.68C135.607 114.19 133.488 109.469 125.111 104.09C122.398 105.626 119.701 107.304 116.861 108.575C116.717 108.623 122.881 121.63 127.887 127.052C128.593 127.958 129.482 128.705 130.495 129.245C131.509 129.786 132.624 130.107 133.77 130.188C134.241 130.28 134.114 130.878 133.77 131.019C131.667 131.883 129.162 130.048 127.7 128.683C124.234 125.032 121.394 120.835 119.292 116.26C118.11 113.942 117.083 111.547 116.219 109.092C116.225 108.691 116.323 108.297 116.507 107.94C117.03 107.571 117.557 107.22 118.091 106.873C117.495 106.952 117.069 106.468 116.632 106.121C115.367 105.311 114.458 104.049 114.091 102.592C112.125 102.838 112.688 102.543 112.507 102.906C111.891 104.136 111.247 103.856 109.543 104.176C109.591 104.32 111.06 113.808 111.676 126.057C109.983 124.221 108.22 122.454 106.39 120.755C106.465 120.295 106.876 114.668 106.924 111.03C106.924 110.493 106.339 110.382 105.935 110.199C106.008 110.055 106.799 108.149 107.002 107.548C107.513 106.147 107.479 104.606 106.908 103.228C108.288 103.057 109.683 102.91 111.064 102.696C111.581 102.616 111.41 101.873 110.955 101.832C109.268 101.724 107.574 101.803 105.904 102.068C105.464 102.125 105.059 102.583 105.354 103.024C106.947 105.391 105.477 107.875 104.68 109.69C101.825 108.618 98.739 107.715 98.595 107.682C99.6145 103.407 96.4019 100.111 98.1241 97.5807C99.472 95.6036 103.373 95.1025 105.747 95.0406C106.632 95.1686 107.532 95.1197 108.397 94.8966C108.463 94.8579 108.519 94.8045 108.561 94.7405C108.603 94.6765 108.63 94.6037 108.639 94.5277C108.648 94.4518 108.64 94.3747 108.614 94.3025C108.589 94.2304 108.547 94.1651 108.492 94.1118C107.657 93.6313 106.69 93.4295 105.732 93.5358C102.977 93.4422 99.2185 94.0527 97.2457 96.0457C96.5962 96.8383 96.1684 97.789 96.006 98.8009C95.8436 99.8128 95.9524 100.85 96.3212 101.806C97.2299 105.269 97.2126 104.686 97.0888 107.702C96.9753 107.755 96.8696 107.824 96.7748 107.906C96.5473 107.618 85.5227 92.2484 83.0516 88.6455C78.9376 82.6451 80.5014 84.7907 79.8232 83.8489C79.4027 83.2657 78.3918 83.4947 77.7193 83.5609C70.9024 84.255 65.2446 89.6089 65.1078 100.923C64.9436 114.692 67.9792 135.217 78.8483 143.586C81.5609 145.742 84.6664 147.35 87.9923 148.322C88.1766 148.732 88.3667 149.146 88.5553 149.558C91.8673 148.92 96.4926 148.776 104.587 148.588C116.015 148.325 128.995 147.216 133.675 157.685C136.727 156.028 139.6 154.063 142.251 151.82C142.32 151.755 142.401 151.707 142.491 151.677C142.58 151.648 142.675 151.64 142.768 151.651C142.861 151.663 142.95 151.696 143.029 151.747C143.109 151.798 143.175 151.865 143.225 151.945C144.906 154.159 146.441 156.48 147.82 158.893C148.073 159.41 147.378 160.055 146.973 159.553C145.386 157.511 143.909 155.385 142.55 153.185C140.049 155.456 137.147 157.241 133.992 158.448C136.083 163.884 135.432 170.976 133.924 178.311C133.78 179.017 132.403 185.392 131.508 185.604C130.45 185.858 129.375 186.036 128.292 186.135C126.515 195.243 124.626 204.279 124.184 212.598C124.188 212.763 124.255 212.92 124.372 213.036C124.488 213.153 124.645 213.22 124.81 213.224C126.001 213.312 127.195 213.368 128.403 213.429C128.324 213.962 127.935 216.973 127.807 217.946C127.637 218.8 127.537 219.667 127.509 220.538C125.825 220.725 129.352 225.672 132.117 223.722C134.038 222.368 134.321 220.892 136.743 223.314C138.745 225.56 141.429 227.087 144.383 227.659C147.538 228.523 152.532 229.442 153.432 229.666C153.37 229.195 153.338 228.709 153.322 228.239C147.26 226.822 141.671 226.334 138.196 222.685ZM81.2156 106.353C84.0236 97.49 83.9286 98.1999 83.8494 98.0559C80.4483 97.1414 76.9898 96.4549 73.4972 96.0011C73.1675 95.9564 72.8248 95.6727 72.963 95.2954C74.1734 91.8417 75.658 88.4902 77.4025 85.2731C77.6228 84.8828 78.314 85.1492 78.1398 85.587C76.874 88.755 75.4729 91.8294 74.2648 94.9974C77.3392 95.4567 78.8728 95.7318 82.107 96.4244C83.6737 96.7614 85.3456 96.8132 84.9625 98.3699C84.8718 98.7371 82.5001 106.114 82.4526 106.26C85.4787 107.989 88.3866 109.917 91.1574 112.031C91.4267 112.344 91.1718 112.976 90.7254 112.8C89.1516 111.951 87.6418 110.989 86.2081 109.92C81.5108 106.913 81.0428 107.04 81.2156 106.353ZM87.8396 128.202C86.6574 131.709 86.5595 133.324 85.9576 134.538C85.7545 134.947 85.2044 134.711 85.1728 134.335C85.0288 132.692 86.5033 128.132 87.0707 126.617C86.0958 125.967 85.0446 123.407 84.64 122.431C83.9145 121.088 83.6085 119.558 83.7616 118.039C83.8451 117.663 84.3908 117.771 84.4052 118.132C84.506 120.747 87.1513 124.749 87.5257 125.458C89.7652 119.878 92.4669 114.494 95.6027 109.364C95.6714 109.248 95.7836 109.163 95.9146 109.13C96.0456 109.096 96.1846 109.116 96.3011 109.184C96.4176 109.253 96.502 109.365 96.5357 109.496C96.5695 109.627 96.5498 109.766 96.4811 109.883C95.1275 113.018 90.7052 119.683 87.8339 128.201L87.8396 128.202ZM105.657 127.747C104.679 133.065 102.611 139.735 99.2891 143.98C97.0787 146.804 93.434 149.186 89.7376 147.917C89.6577 147.893 89.5892 147.841 89.5442 147.77C89.4993 147.7 89.4808 147.616 89.492 147.533C89.5032 147.45 89.5435 147.374 89.6056 147.318C89.6677 147.262 89.7476 147.23 89.8312 147.228C94.0561 147.131 97.2112 146.041 100.309 140.059C102.188 136.224 103.534 132.15 104.309 127.95C104.905 124.782 104.716 124.53 105.124 123.63C105.176 123.545 105.253 123.476 105.343 123.432C105.434 123.389 105.535 123.373 105.635 123.386C105.735 123.4 105.828 123.442 105.904 123.507C105.981 123.573 106.036 123.659 106.064 123.756C106.176 125.1 106.036 126.454 105.651 127.747H105.657ZM134.203 132.342C129.737 134.214 125.407 136.394 121.243 138.867C114.017 143.427 111.739 146.571 109.826 147.776C109.74 147.823 109.642 147.841 109.545 147.827C109.448 147.814 109.359 147.769 109.29 147.7C109.221 147.631 109.176 147.541 109.162 147.445C109.149 147.348 109.167 147.25 109.214 147.164C110.901 144.447 122.728 134.584 133.901 131.637C134.307 131.529 134.607 132.158 134.198 132.342H134.203ZM133.927 220.614C132.886 220.853 132.382 221.447 131.081 222.663C130.17 223.118 129.019 221.972 128.337 221.203C128.666 220.314 128.841 219.375 128.855 218.427C128.989 217.344 129.372 214.067 129.431 213.502C130.719 213.571 132.629 213.681 134.774 213.806C134.624 216.093 134.34 218.369 133.921 220.622L133.927 220.614Z" fill="#29175F"/>
<path d="M124.064 149.706C118.644 148.056 112.328 148.429 104.583 148.607C96.4891 148.794 91.8682 148.938 88.5518 149.576C88.3632 149.165 88.1731 148.751 87.9888 148.341C84.6633 147.37 81.5578 145.763 78.8448 143.609C67.944 135.22 64.9402 114.63 65.1043 100.946C65.2411 89.6263 70.8989 84.2782 77.7158 83.5841C79.9723 83.3551 79.3186 83.1722 81.6571 86.6268C81.7927 86.194 81.9974 85.786 82.2634 85.4186C82.9139 84.3179 83.6264 83.2549 84.3974 82.2348C84.6035 81.9353 84.9023 81.7117 85.2478 81.5985C85.5933 81.4854 85.9664 81.4888 86.3098 81.6084C86.2766 81.1058 86.2766 80.8711 86.1067 79.5924C85.4199 79.515 84.7575 79.2919 84.1637 78.9382C83.5699 78.5845 83.0583 78.1083 82.6631 77.5413C82.2679 76.9742 81.9982 76.3294 81.8719 75.6499C81.7456 74.9704 81.7656 74.2717 81.9307 73.6006C81.6552 73.5063 81.4107 73.3385 81.2237 73.1153C76.7266 67.6994 75.0893 62.5428 76.895 58.3553C77.384 57.2664 78.1536 56.3269 79.1249 55.6331C80.0963 54.9394 81.2345 54.5161 82.4232 54.4068C84.707 54.0799 87.0701 54.4615 88.9032 53.5284C90.5923 52.6644 92.3074 51.0804 94.031 50.0724C99.791 46.6942 104.176 50.9076 102.69 55.9548C102.021 57.7113 101.099 59.3608 99.9538 60.8508C101.761 64.9562 104.392 71.6825 104.503 76.1436C104.609 77.1429 104.434 78.1519 104 79.0578C103.565 79.9636 102.886 80.7306 102.04 81.2729C102.411 81.3121 102.761 81.4593 103.048 81.6961C103.336 81.9329 103.547 82.249 103.656 82.6049C104.099 82.479 104.572 82.5174 104.989 82.7129L104.958 82.5689C103.437 81.6185 109.667 77.6974 111.405 77.1574C116.52 75.5734 121.053 80.1396 125.183 84.1385C124.761 80.9223 124.156 77.7328 123.371 74.5855C120.576 63.5047 113.867 48.6425 103.483 43.9999C85.5437 35.9834 46.3498 50.9494 38.2843 72.977C34.0176 84.6281 37.1021 102.761 40.3867 114.73C44.2955 128.528 49.7073 141.856 56.5248 154.474C65.4442 171.276 76.0901 185.89 95.2824 186.73C95.219 191.732 95.3602 208.86 95.4264 211.056C92.6702 209.809 90.3691 208.878 84.3053 206.335C82.949 205.693 81.5297 205.194 80.0702 204.845C77.844 204.42 75.1152 204.924 73.9229 207.073C73.6773 207.556 73.5337 208.084 73.5009 208.624C73.468 209.165 73.5467 209.707 73.7319 210.215C73.9172 210.724 74.2052 211.19 74.5779 211.583C74.9506 211.976 75.4001 212.288 75.8986 212.5C76.4096 212.681 76.9529 212.752 77.4932 212.709C78.0335 212.666 78.5587 212.51 79.0349 212.251C79.511 211.992 79.9274 211.636 80.2571 211.206C80.5868 210.776 80.8224 210.281 80.9486 209.754C85.3565 211.229 89.7802 212.687 94.2499 213.93C90.1356 215.924 86.1954 218.258 82.4707 220.91C80.6534 222.419 79.2653 224.85 80.2747 227.215C81.0854 229.115 83.82 230.959 85.7798 229.489C87.2314 228.396 88.0838 225.241 86.2349 223.937C89.8247 220.63 93.634 217.57 97.6368 214.778C104.644 216.417 111.556 217.256 117.415 219.818C115.588 222.946 116.779 225.228 118.89 225.81C121.482 226.53 123.616 224.304 123.894 221.873C124.213 219.066 122.022 216.662 119.659 215.505C116.509 214.238 113.191 213.44 109.809 213.137C107.111 212.718 104.382 212.383 101.669 212.129C104.789 210.137 108.021 208.317 111.33 206.639C111.451 206.931 111.635 207.191 111.87 207.401C112.106 207.611 112.385 207.765 112.688 207.853C112.991 207.94 113.31 207.958 113.62 207.905C113.931 207.852 114.226 207.73 114.483 207.548C114.824 207.236 115.082 206.845 115.234 206.41C115.385 205.974 115.427 205.507 115.354 205.052C115.281 204.596 115.095 204.166 114.815 203.799C114.534 203.433 114.167 203.142 113.746 202.953C111.567 201.801 109.138 202.908 107.206 204.036C104.555 205.551 102.041 207.293 99.6917 209.243C99.7075 205.777 99.6758 192.93 99.7392 186.939C104.961 187.198 126.06 186.913 131.5 185.621C132.396 185.409 133.769 179.034 133.916 178.329C136.546 165.573 136.557 153.509 124.064 149.706ZM87.7469 149.748C83.4439 150.698 78.9415 150.018 75.1109 147.84C65.1576 142.709 58.0152 128.323 53.9688 117.866C50.9918 110.177 48.9281 102.165 47.82 93.9938C46.7429 86.0263 46.1683 77.7895 49.4357 70.2482C52.4181 63.5794 57.2521 57.9068 63.3634 53.9042C63.4328 53.865 63.514 53.8519 63.5922 53.8673C63.6704 53.8827 63.7406 53.9256 63.79 53.9882C63.8394 54.0508 63.8647 54.129 63.8615 54.2087C63.8583 54.2884 63.8266 54.3643 63.7723 54.4226C60.8031 57.072 58.0363 59.9398 55.4952 63.0022C50.5658 69.0866 48.0992 76.7994 48.5832 84.6151C49.2874 105.661 58.5869 128.679 67.859 139.623C76.3262 149.614 83.5968 148.286 87.3091 148.783C87.4159 148.794 87.518 148.832 87.6053 148.895C87.6926 148.957 87.762 149.041 87.8067 149.139C87.8514 149.236 87.8698 149.344 87.8601 149.451C87.8503 149.557 87.8128 149.66 87.7512 149.748H87.7469Z" fill="#FEB186"/>
<path d="M237.905 22.209H132.965C131.625 22.209 130.539 23.295 130.539 24.6347V58.0555C130.539 59.3952 131.625 60.4812 132.965 60.4812H237.905C239.245 60.4812 240.331 59.3952 240.331 58.0555V24.6347C240.331 23.295 239.245 22.209 237.905 22.209Z" fill="#4355E6"/>
<path d="M239.64 20.7637H134.699C133.359 20.7637 132.273 21.8497 132.273 23.1894V56.6102C132.273 57.9499 133.359 59.0359 134.699 59.0359H239.64C240.979 59.0359 242.065 57.9499 242.065 56.6102V23.1894C242.065 21.8497 240.979 20.7637 239.64 20.7637Z" fill="white" stroke="#4355E6" stroke-miterlimit="10"/>
<path d="M168.902 35.6504C168.726 35.6504 168.558 35.7202 168.434 35.8444C168.309 35.9686 168.24 36.1371 168.24 36.3127V42.6118C168.234 42.7026 168.247 42.7936 168.277 42.8792C168.308 42.9649 168.356 43.0433 168.418 43.1097C168.48 43.1761 168.555 43.229 168.639 43.2651C168.722 43.3013 168.812 43.32 168.903 43.32C168.994 43.32 169.084 43.3013 169.168 43.2651C169.251 43.229 169.326 43.1761 169.389 43.1097C169.451 43.0433 169.499 42.9649 169.53 42.8792C169.56 42.7936 169.573 42.7026 169.567 42.6118V36.3127C169.566 36.1368 169.496 35.9683 169.371 35.8442C169.247 35.7201 169.078 35.6504 168.902 35.6504Z" fill="#FEB186"/>
<path d="M177.006 35.6504C176.83 35.6504 176.662 35.7201 176.537 35.8442C176.412 35.9683 176.342 36.1368 176.341 36.3127V42.6118C176.335 42.7026 176.348 42.7936 176.379 42.8792C176.41 42.9649 176.457 43.0433 176.52 43.1097C176.582 43.1761 176.657 43.229 176.741 43.2651C176.824 43.3013 176.914 43.32 177.005 43.32C177.096 43.32 177.186 43.3013 177.269 43.2651C177.353 43.229 177.428 43.1761 177.49 43.1097C177.552 43.0433 177.6 42.9649 177.631 42.8792C177.662 42.7936 177.675 42.7026 177.669 42.6118V36.3127C177.669 36.1371 177.599 35.9686 177.475 35.8444C177.35 35.7202 177.182 35.6504 177.006 35.6504Z" fill="#FEB186"/>
<path d="M183.065 35.6504C182.889 35.6504 182.721 35.7202 182.596 35.8444C182.472 35.9686 182.402 36.1371 182.402 36.3127V42.6118C182.402 42.7874 182.472 42.9559 182.596 43.0801C182.721 43.2043 182.889 43.2741 183.065 43.2741C183.24 43.2741 183.409 43.2043 183.533 43.0801C183.657 42.9559 183.727 42.7874 183.727 42.6118V36.3127C183.727 36.1371 183.657 35.9686 183.533 35.8444C183.409 35.7202 183.24 35.6504 183.065 35.6504Z" fill="#FEB186"/>
<path d="M187.112 35.6504C186.936 35.6504 186.767 35.7202 186.643 35.8444C186.519 35.9686 186.449 36.1371 186.449 36.3127V42.6118C186.449 42.7874 186.519 42.9559 186.643 43.0801C186.767 43.2043 186.936 43.2741 187.112 43.2741C187.287 43.2741 187.456 43.2043 187.58 43.0801C187.704 42.9559 187.774 42.7874 187.774 42.6118V36.3127C187.774 36.1371 187.704 35.9686 187.58 35.8444C187.456 35.7202 187.287 35.6504 187.112 35.6504Z" fill="#FEB186"/>
<path d="M189.136 35.6504C188.961 35.6504 188.792 35.7202 188.668 35.8444C188.544 35.9686 188.474 36.1371 188.474 36.3127V42.6118C188.468 42.7026 188.481 42.7936 188.512 42.8792C188.542 42.9649 188.59 43.0433 188.652 43.1097C188.715 43.1761 188.79 43.229 188.873 43.2651C188.957 43.3013 189.047 43.32 189.138 43.32C189.229 43.32 189.319 43.3013 189.402 43.2651C189.486 43.229 189.561 43.1761 189.623 43.1097C189.685 43.0433 189.733 42.9649 189.764 42.8792C189.795 42.7936 189.807 42.7026 189.801 42.6118V36.3127C189.801 36.1368 189.73 35.9683 189.606 35.8442C189.481 35.7201 189.312 35.6504 189.136 35.6504Z" fill="#FEB186"/>
<path d="M199.256 35.6504C199.08 35.6504 198.912 35.7201 198.787 35.8442C198.662 35.9683 198.592 36.1368 198.591 36.3127V42.6118C198.585 42.7026 198.598 42.7936 198.629 42.8792C198.66 42.9649 198.707 43.0433 198.77 43.1097C198.832 43.1761 198.907 43.229 198.991 43.2651C199.074 43.3013 199.164 43.32 199.255 43.32C199.346 43.32 199.436 43.3013 199.519 43.2651C199.603 43.229 199.678 43.1761 199.74 43.1097C199.802 43.0433 199.85 42.9649 199.881 42.8792C199.912 42.7936 199.925 42.7026 199.919 42.6118V36.3127C199.919 36.1371 199.849 35.9686 199.725 35.8444C199.6 35.7202 199.432 35.6504 199.256 35.6504Z" fill="#FEB186"/>
<path d="M211.397 35.6504C211.221 35.6504 211.053 35.7202 210.928 35.8444C210.804 35.9686 210.734 36.1371 210.734 36.3127V42.6118C210.734 42.7874 210.804 42.9559 210.928 43.0801C211.053 43.2043 211.221 43.2741 211.397 43.2741C211.572 43.2741 211.741 43.2043 211.865 43.0801C211.989 42.9559 212.059 42.7874 212.059 42.6118V36.3127C212.059 36.1371 211.989 35.9686 211.865 35.8444C211.741 35.7202 211.572 35.6504 211.397 35.6504Z" fill="#FEB186"/>
<path d="M217.465 35.6504C217.289 35.6504 217.12 35.7202 216.996 35.8444C216.872 35.9686 216.802 36.1371 216.802 36.3127V42.6118C216.796 42.7026 216.809 42.7936 216.84 42.8792C216.87 42.9649 216.918 43.0433 216.981 43.1097C217.043 43.1761 217.118 43.229 217.201 43.2651C217.285 43.3013 217.375 43.32 217.466 43.32C217.557 43.32 217.647 43.3013 217.73 43.2651C217.814 43.229 217.889 43.1761 217.951 43.1097C218.013 43.0433 218.061 42.9649 218.092 42.8792C218.123 42.7936 218.136 42.7026 218.13 42.6118V36.3127C218.129 36.1368 218.058 35.9683 217.934 35.8442C217.809 35.7201 217.64 35.6504 217.465 35.6504Z" fill="#FEB186"/>
<path d="M219.483 35.6504C219.396 35.65 219.309 35.6669 219.229 35.7C219.148 35.7331 219.075 35.7819 219.013 35.8434C218.951 35.9049 218.902 35.9781 218.868 36.0586C218.835 36.1392 218.818 36.2255 218.818 36.3127V42.6118C218.812 42.7026 218.825 42.7936 218.855 42.8792C218.886 42.9649 218.934 43.0433 218.996 43.1097C219.058 43.1761 219.134 43.229 219.217 43.2652C219.301 43.3013 219.391 43.32 219.482 43.32C219.572 43.32 219.663 43.3013 219.746 43.2652C219.829 43.229 219.905 43.1761 219.967 43.1097C220.029 43.0433 220.077 42.9649 220.108 42.8792C220.138 42.7936 220.151 42.7026 220.145 42.6118V36.3127C220.145 36.1371 220.075 35.9686 219.951 35.8444C219.827 35.7202 219.659 35.6504 219.483 35.6504Z" fill="#FEB186"/>
<path d="M227.588 35.6504C227.412 35.6504 227.244 35.7202 227.12 35.8444C226.996 35.9686 226.926 36.1371 226.926 36.3127V42.6118C226.926 42.7874 226.996 42.9559 227.12 43.0801C227.244 43.2043 227.412 43.2741 227.588 43.2741C227.764 43.2741 227.932 43.2043 228.056 43.0801C228.181 42.9559 228.25 42.7874 228.25 42.6118V36.3127C228.25 36.1371 228.181 35.9686 228.056 35.8444C227.932 35.7202 227.764 35.6504 227.588 35.6504Z" fill="#FEB186"/>
<path d="M229.608 35.6504C229.432 35.6504 229.264 35.7202 229.139 35.8444C229.015 35.9686 228.945 36.1371 228.945 36.3127V42.6118C228.945 42.7874 229.015 42.9559 229.139 43.0801C229.264 43.2043 229.432 43.2741 229.608 43.2741C229.783 43.2741 229.952 43.2043 230.076 43.0801C230.2 42.9559 230.27 42.7874 230.27 42.6118V36.3127C230.27 36.1371 230.2 35.9686 230.076 35.8444C229.952 35.7202 229.783 35.6504 229.608 35.6504Z" fill="#FEB186"/>
<path d="M231.631 35.6504C231.455 35.6504 231.287 35.7202 231.163 35.8444C231.039 35.9686 230.969 36.1371 230.969 36.3127V42.6118C230.969 42.7874 231.039 42.9559 231.163 43.0801C231.287 43.2043 231.455 43.2741 231.631 43.2741C231.807 43.2741 231.975 43.2043 232.099 43.0801C232.224 42.9559 232.293 42.7874 232.293 42.6118V36.3127C232.293 36.1371 232.224 35.9686 232.099 35.8444C231.975 35.7202 231.807 35.6504 231.631 35.6504Z" fill="#FEB186"/>
<path d="M233.655 35.6504C233.479 35.6504 233.31 35.7202 233.186 35.8444C233.062 35.9686 232.992 36.1371 232.992 36.3127V42.6118C232.992 42.7874 233.062 42.9559 233.186 43.0801C233.31 43.2043 233.479 43.2741 233.655 43.2741C233.83 43.2741 233.999 43.2043 234.123 43.0801C234.247 42.9559 234.317 42.7874 234.317 42.6118V36.3127C234.317 36.1371 234.247 35.9686 234.123 35.8444C233.999 35.7202 233.83 35.6504 233.655 35.6504Z" fill="#FEB186"/>
<path d="M162.889 35.6504C162.713 35.6504 162.545 35.7202 162.421 35.8444C162.296 35.9686 162.227 36.1371 162.227 36.3127V42.6118C162.227 42.7874 162.296 42.9559 162.421 43.0801C162.545 43.2043 162.713 43.2741 162.889 43.2741C163.065 43.2741 163.233 43.2043 163.357 43.0801C163.481 42.9559 163.551 42.7874 163.551 42.6118V36.3127C163.551 36.1371 163.481 35.9686 163.357 35.8444C163.233 35.7202 163.065 35.6504 162.889 35.6504Z" fill="#FEB186"/>
<path d="M164.914 35.6504C164.738 35.6504 164.57 35.7202 164.445 35.8444C164.321 35.9686 164.251 36.1371 164.251 36.3127V42.6118C164.246 42.7026 164.258 42.7936 164.289 42.8792C164.32 42.9649 164.368 43.0433 164.43 43.1097C164.492 43.1761 164.567 43.229 164.651 43.2651C164.734 43.3013 164.824 43.32 164.915 43.32C165.006 43.32 165.096 43.3013 165.18 43.2651C165.263 43.229 165.338 43.1761 165.4 43.1097C165.463 43.0433 165.511 42.9649 165.541 42.8792C165.572 42.7936 165.585 42.7026 165.579 42.6118V36.3127C165.578 36.1368 165.508 35.9683 165.383 35.8442C165.258 35.7201 165.09 35.6504 164.914 35.6504Z" fill="#FEB186"/>
<path d="M166.945 35.6504C166.769 35.6504 166.601 35.7202 166.477 35.8444C166.352 35.9686 166.283 36.1371 166.283 36.3127V42.6118C166.277 42.7026 166.29 42.7936 166.32 42.8792C166.351 42.9649 166.399 43.0433 166.461 43.1097C166.523 43.1761 166.598 43.229 166.682 43.2651C166.765 43.3013 166.855 43.32 166.946 43.32C167.037 43.32 167.127 43.3013 167.211 43.2651C167.294 43.229 167.369 43.1761 167.432 43.1097C167.494 43.0433 167.542 42.9649 167.573 42.8792C167.603 42.7936 167.616 42.7026 167.61 42.6118V36.3127C167.609 36.1368 167.539 35.9683 167.414 35.8442C167.29 35.7201 167.121 35.6504 166.945 35.6504Z" fill="#FEB186"/>
<path d="M201.28 35.6504C201.104 35.6504 200.935 35.7201 200.81 35.8442C200.686 35.9683 200.615 36.1368 200.615 36.3127V42.6118C200.609 42.7026 200.622 42.7936 200.652 42.8792C200.683 42.9649 200.731 43.0433 200.793 43.1097C200.855 43.1761 200.93 43.229 201.014 43.2651C201.097 43.3013 201.187 43.32 201.278 43.32C201.369 43.32 201.459 43.3013 201.543 43.2651C201.626 43.229 201.701 43.1761 201.764 43.1097C201.826 43.0433 201.874 42.9649 201.905 42.8792C201.935 42.7936 201.948 42.7026 201.942 42.6118V36.3127C201.942 36.1371 201.872 35.9686 201.748 35.8444C201.624 35.7202 201.455 35.6504 201.28 35.6504Z" fill="#FEB186"/>
<path d="M191.16 35.6504C190.984 35.6504 190.816 35.7202 190.691 35.8444C190.567 35.9686 190.497 36.1371 190.497 36.3127V42.6118C190.492 42.7026 190.504 42.7936 190.535 42.8792C190.566 42.9649 190.614 43.0433 190.676 43.1097C190.738 43.1761 190.813 43.229 190.897 43.2651C190.98 43.3013 191.07 43.32 191.161 43.32C191.252 43.32 191.342 43.3013 191.426 43.2651C191.509 43.229 191.584 43.1761 191.647 43.1097C191.709 43.0433 191.757 42.9649 191.787 42.8792C191.818 42.7936 191.831 42.7026 191.825 42.6118V36.3127C191.824 36.1368 191.754 35.9683 191.629 35.8442C191.504 35.7201 191.336 35.6504 191.16 35.6504Z" fill="#FEB186"/>
<path d="M170.927 32.8564H170.924C170.558 32.8564 170.262 33.153 170.262 33.5188V45.4099C170.262 45.7756 170.558 46.0722 170.924 46.0722H170.927C171.293 46.0722 171.589 45.7756 171.589 45.4099V33.5188C171.589 33.153 171.293 32.8564 170.927 32.8564Z" fill="#FEB186"/>
<path d="M174.975 32.8564C174.799 32.8564 174.63 32.9261 174.506 33.0503C174.381 33.1744 174.311 33.3429 174.31 33.5188V45.4071C174.304 45.4978 174.317 45.5889 174.348 45.6745C174.378 45.7602 174.426 45.8386 174.488 45.905C174.551 45.9713 174.626 46.0243 174.709 46.0604C174.793 46.0966 174.883 46.1153 174.974 46.1153C175.065 46.1153 175.155 46.0966 175.238 46.0604C175.322 46.0243 175.397 45.9713 175.459 45.905C175.521 45.8386 175.569 45.7602 175.6 45.6745C175.631 45.5889 175.643 45.4978 175.637 45.4071V33.5188C175.637 33.3431 175.568 33.1746 175.443 33.0504C175.319 32.9262 175.151 32.8564 174.975 32.8564Z" fill="#FEB186"/>
<path d="M181.045 32.8564C180.869 32.8564 180.701 32.9262 180.577 33.0504C180.453 33.1746 180.383 33.3431 180.383 33.5188V45.4071C180.383 45.5827 180.453 45.7512 180.577 45.8754C180.701 45.9996 180.869 46.0694 181.045 46.0694C181.221 46.0694 181.389 45.9996 181.513 45.8754C181.638 45.7512 181.707 45.5827 181.707 45.4071V33.5188C181.707 33.3431 181.638 33.1746 181.513 33.0504C181.389 32.9262 181.221 32.8564 181.045 32.8564Z" fill="#FEB186"/>
<path d="M185.088 32.8564C184.912 32.8564 184.744 32.9262 184.62 33.0504C184.496 33.1746 184.426 33.3431 184.426 33.5188V45.4071C184.426 45.5827 184.496 45.7512 184.62 45.8754C184.744 45.9996 184.912 46.0694 185.088 46.0694C185.264 46.0694 185.432 45.9996 185.556 45.8754C185.681 45.7512 185.75 45.5827 185.75 45.4071V33.5188C185.75 33.3431 185.681 33.1746 185.556 33.0504C185.432 32.9262 185.264 32.8564 185.088 32.8564Z" fill="#FEB186"/>
<path d="M193.183 32.8564C193.008 32.8564 192.839 32.9262 192.715 33.0504C192.591 33.1746 192.521 33.3431 192.521 33.5188V45.4071C192.515 45.4978 192.528 45.5889 192.559 45.6745C192.589 45.7602 192.637 45.8386 192.699 45.905C192.762 45.9713 192.837 46.0243 192.92 46.0604C193.004 46.0966 193.094 46.1153 193.185 46.1153C193.276 46.1153 193.366 46.0966 193.449 46.0604C193.533 46.0243 193.608 45.9713 193.67 45.905C193.732 45.8386 193.78 45.7602 193.811 45.6745C193.841 45.5889 193.854 45.4978 193.848 45.4071V33.5188C193.848 33.3429 193.777 33.1744 193.653 33.0503C193.528 32.9261 193.359 32.8564 193.183 32.8564Z" fill="#FEB186"/>
<path d="M203.303 32.8564C203.216 32.8564 203.13 32.8736 203.049 32.9069C202.969 32.9401 202.896 32.9889 202.835 33.0504C202.773 33.1119 202.724 33.1849 202.691 33.2653C202.658 33.3457 202.641 33.4318 202.641 33.5188V45.4071C202.641 45.5827 202.71 45.7512 202.835 45.8754C202.959 45.9996 203.127 46.0694 203.303 46.0694C203.479 46.0694 203.647 45.9996 203.771 45.8754C203.895 45.7512 203.965 45.5827 203.965 45.4071V33.5188C203.965 33.3431 203.895 33.1746 203.771 33.0504C203.647 32.9262 203.479 32.8564 203.303 32.8564Z" fill="#FEB186"/>
<path d="M205.329 32.8564H205.326C204.961 32.8564 204.664 33.153 204.664 33.5188V45.4099C204.664 45.7756 204.961 46.0722 205.326 46.0722H205.329C205.695 46.0722 205.992 45.7756 205.992 45.4099V33.5188C205.992 33.153 205.695 32.8564 205.329 32.8564Z" fill="#FEB186"/>
<path d="M207.35 32.8564C207.174 32.8564 207.006 32.9262 206.881 33.0504C206.757 33.1746 206.688 33.3431 206.688 33.5188V45.4071C206.688 45.5827 206.757 45.7512 206.881 45.8754C207.006 45.9996 207.174 46.0694 207.35 46.0694C207.525 46.0694 207.694 45.9996 207.818 45.8754C207.942 45.7512 208.012 45.5827 208.012 45.4071V33.5188C208.012 33.3431 207.942 33.1746 207.818 33.0504C207.694 32.9262 207.525 32.8564 207.35 32.8564Z" fill="#FEB186"/>
<path d="M209.373 32.8564C209.198 32.8564 209.029 32.9262 208.905 33.0504C208.781 33.1746 208.711 33.3431 208.711 33.5188V45.4071C208.711 45.5827 208.781 45.7512 208.905 45.8754C209.029 45.9996 209.198 46.0694 209.373 46.0694C209.549 46.0694 209.717 45.9996 209.842 45.8754C209.966 45.7512 210.036 45.5827 210.036 45.4071V33.5188C210.036 33.3431 209.966 33.1746 209.842 33.0504C209.717 32.9262 209.549 32.8564 209.373 32.8564Z" fill="#FEB186"/>
<path d="M221.517 32.8564H221.514C221.148 32.8564 220.852 33.153 220.852 33.5188V45.4099C220.852 45.7756 221.148 46.0722 221.514 46.0722H221.517C221.882 46.0722 222.179 45.7756 222.179 45.4099V33.5188C222.179 33.153 221.882 32.8564 221.517 32.8564Z" fill="#FEB186"/>
<path d="M225.561 32.8564C225.385 32.8564 225.216 32.9261 225.092 33.0503C224.967 33.1744 224.897 33.3429 224.896 33.5188V45.4071C224.89 45.4978 224.903 45.5889 224.934 45.6745C224.964 45.7602 225.012 45.8386 225.074 45.905C225.137 45.9713 225.212 46.0243 225.295 46.0604C225.379 46.0966 225.469 46.1153 225.56 46.1153C225.651 46.1153 225.741 46.0966 225.824 46.0604C225.908 46.0243 225.983 45.9713 226.045 45.905C226.107 45.8386 226.155 45.7602 226.186 45.6745C226.216 45.5889 226.229 45.4978 226.223 45.4071V33.5188C226.223 33.3431 226.154 33.1746 226.029 33.0504C225.905 32.9262 225.737 32.8564 225.561 32.8564Z" fill="#FEB186"/>
<path d="M172.952 30.0615C172.776 30.0615 172.607 30.1312 172.482 30.2553C172.358 30.3795 172.287 30.5479 172.287 30.7238V48.2014C172.281 48.2921 172.293 48.3832 172.324 48.4688C172.355 48.5545 172.403 48.6329 172.465 48.6993C172.527 48.7657 172.602 48.8186 172.686 48.8547C172.769 48.8909 172.859 48.9096 172.95 48.9096C173.041 48.9096 173.131 48.8909 173.215 48.8547C173.298 48.8186 173.373 48.7657 173.436 48.6993C173.498 48.6329 173.546 48.5545 173.576 48.4688C173.607 48.3832 173.62 48.2921 173.614 48.2014V30.7238C173.614 30.5482 173.544 30.3797 173.42 30.2555C173.296 30.1313 173.127 30.0615 172.952 30.0615Z" fill="#FEB186"/>
<path d="M179.022 30.0615C178.846 30.0615 178.678 30.1313 178.553 30.2555C178.429 30.3797 178.359 30.5482 178.359 30.7238V48.2014C178.359 48.377 178.429 48.5455 178.553 48.6697C178.678 48.7939 178.846 48.8637 179.022 48.8637C179.197 48.8637 179.366 48.7939 179.49 48.6697C179.614 48.5455 179.684 48.377 179.684 48.2014V30.7238C179.684 30.5482 179.614 30.3797 179.49 30.2555C179.366 30.1313 179.197 30.0615 179.022 30.0615Z" fill="#FEB186"/>
<path d="M195.207 30.0615C195.031 30.0615 194.863 30.1313 194.738 30.2555C194.614 30.3797 194.544 30.5482 194.544 30.7239V48.2014C194.538 48.2922 194.551 48.3832 194.582 48.4688C194.613 48.5545 194.661 48.6329 194.723 48.6993C194.785 48.7657 194.86 48.8186 194.944 48.8547C195.027 48.8909 195.117 48.9096 195.208 48.9096C195.299 48.9096 195.389 48.8909 195.473 48.8547C195.556 48.8186 195.631 48.7657 195.693 48.6993C195.756 48.6329 195.804 48.5545 195.834 48.4688C195.865 48.3832 195.878 48.2922 195.872 48.2014V30.7239C195.872 30.6366 195.855 30.5503 195.821 30.4697C195.788 30.3892 195.739 30.3161 195.677 30.2545C195.615 30.193 195.542 30.1443 195.461 30.1111C195.38 30.078 195.294 30.0612 195.207 30.0615Z" fill="#FEB186"/>
<path d="M197.233 30.0615C197.057 30.0615 196.888 30.1312 196.764 30.2553C196.639 30.3795 196.569 30.5479 196.568 30.7238V48.2014C196.562 48.2921 196.575 48.3832 196.605 48.4688C196.636 48.5545 196.684 48.6329 196.746 48.6993C196.808 48.7657 196.884 48.8186 196.967 48.8547C197.051 48.8909 197.141 48.9096 197.232 48.9096C197.322 48.9096 197.413 48.8909 197.496 48.8547C197.579 48.8186 197.655 48.7657 197.717 48.6993C197.779 48.6329 197.827 48.5545 197.858 48.4688C197.888 48.3832 197.901 48.2921 197.895 48.2014V30.7238C197.895 30.5482 197.825 30.3797 197.701 30.2555C197.577 30.1313 197.409 30.0615 197.233 30.0615Z" fill="#FEB186"/>
<path d="M213.418 30.0615C213.331 30.0615 213.245 30.0787 213.164 30.1119C213.084 30.1452 213.011 30.194 212.949 30.2555C212.888 30.317 212.839 30.39 212.806 30.4704C212.772 30.5507 212.755 30.6369 212.755 30.7238V48.2014C212.749 48.2921 212.762 48.3832 212.793 48.4688C212.824 48.5545 212.872 48.6329 212.934 48.6993C212.996 48.7657 213.071 48.8186 213.155 48.8547C213.238 48.8909 213.328 48.9096 213.419 48.9096C213.51 48.9096 213.6 48.8909 213.683 48.8547C213.767 48.8186 213.842 48.7657 213.904 48.6993C213.967 48.6329 214.014 48.5545 214.045 48.4688C214.076 48.3832 214.089 48.2921 214.083 48.2014V30.7238C214.082 30.5479 214.012 30.3795 213.887 30.2553C213.762 30.1312 213.594 30.0615 213.418 30.0615Z" fill="#FEB186"/>
<path d="M215.441 30.0615C215.265 30.0615 215.097 30.1313 214.973 30.2555C214.849 30.3797 214.779 30.5482 214.779 30.7238V48.2014C214.773 48.2921 214.786 48.3832 214.816 48.4688C214.847 48.5545 214.895 48.6329 214.957 48.6993C215.019 48.7657 215.095 48.8186 215.178 48.8547C215.261 48.8909 215.351 48.9096 215.442 48.9096C215.533 48.9096 215.623 48.8909 215.707 48.8547C215.79 48.8186 215.866 48.7657 215.928 48.6993C215.99 48.6329 216.038 48.5545 216.069 48.4688C216.099 48.3832 216.112 48.2921 216.106 48.2014V30.7238C216.105 30.5479 216.035 30.3795 215.91 30.2553C215.786 30.1312 215.617 30.0615 215.441 30.0615Z" fill="#FEB186"/>
<path d="M223.538 30.0615C223.362 30.0615 223.193 30.1312 223.068 30.2553C222.944 30.3795 222.873 30.5479 222.872 30.7238V48.2014C222.867 48.2921 222.879 48.3832 222.91 48.4688C222.941 48.5545 222.989 48.6329 223.051 48.6993C223.113 48.7657 223.188 48.8186 223.272 48.8547C223.355 48.8909 223.445 48.9096 223.536 48.9096C223.627 48.9096 223.717 48.8909 223.801 48.8547C223.884 48.8186 223.959 48.7657 224.022 48.6993C224.084 48.6329 224.132 48.5545 224.162 48.4688C224.193 48.3832 224.206 48.2921 224.2 48.2014V30.7238C224.2 30.5482 224.13 30.3797 224.006 30.2555C223.882 30.1313 223.713 30.0615 223.538 30.0615Z" fill="#FEB186"/>
<path d="M154.756 47.2622C158.633 43.3857 158.633 37.1006 154.756 33.2241C150.88 29.3476 144.595 29.3476 140.718 33.2241C136.842 37.1006 136.842 43.3857 140.718 47.2622C144.595 51.1388 150.88 51.1388 154.756 47.2622Z" fill="#4355E6"/>
<path d="M155.091 40.2421L143.223 33.3896V47.0944L155.091 40.2421Z" fill="white"/>
<path d="M188.643 71.9492L176.336 64.8467V79.0572L188.643 71.9492Z" stroke="#FE6B21" stroke-miterlimit="10"/>
<path d="M196.893 71.8018C196.825 72.0227 196.79 72.2525 196.79 72.4836C196.79 72.56 196.79 72.6364 196.79 72.7128H192.688V71.8018H196.893Z" stroke="#FEB186" stroke-miterlimit="10"/>
<path d="M246.374 71.8018V72.7128H201.326C201.326 72.6364 201.326 72.56 201.326 72.4836C201.326 72.2525 201.291 72.0227 201.223 71.8018H246.374Z" stroke="#FEB186" stroke-miterlimit="10"/>
<path d="M201.336 72.4837C201.336 72.5601 201.336 72.6364 201.336 72.7128C201.281 73.2749 201.019 73.7963 200.6 74.1756C200.182 74.5549 199.637 74.765 199.072 74.765C198.508 74.765 197.963 74.5549 197.545 74.1756C197.126 73.7963 196.864 73.2749 196.809 72.7128C196.809 72.6364 196.809 72.5601 196.809 72.4837C196.809 72.2525 196.844 72.0227 196.912 71.8018C197.051 71.3307 197.339 70.9172 197.732 70.623C198.125 70.3289 198.603 70.1699 199.094 70.1699C199.585 70.1699 200.063 70.3289 200.457 70.623C200.85 70.9172 201.138 71.3307 201.276 71.8018C201.33 72.0249 201.35 72.2547 201.336 72.4837Z" stroke="#FE6B21" stroke-miterlimit="10"/>
<path d="M116.828 20.8885C114.38 19.1024 108.91 14.3363 108.848 14.2728C108.189 13.625 108.174 13.1736 108.966 12.2833C109.527 11.6271 110.124 11.0034 110.756 10.4151C111.47 9.75014 111.979 9.82228 112.689 10.4909C115.045 12.7109 117.279 14.9857 119.491 17.3916C120.472 18.4903 120.378 19.4373 118.997 20.5155C118.196 21.1119 117.505 21.4292 116.828 20.8885Z" fill="#4355E6"/>
<path d="M120.338 6.46556C120.168 5.81527 120.186 5.49172 120.561 5.26863C121.909 4.67716 122.439 2.69397 123.645 4.30342C127.02 8.8083 128.821 12.3009 130.27 14.143C130.836 14.8719 130.719 15.4263 129.922 15.9078C129.707 16.038 129.502 16.1831 129.307 16.3418C129.188 16.4549 129.046 16.54 128.89 16.5911C128.734 16.6422 128.569 16.6579 128.407 16.637C128.244 16.6162 128.088 16.5594 127.951 16.4708C127.813 16.3821 127.696 16.2638 127.61 16.1246C127.61 16.1246 123.649 11.249 120.338 6.46556Z" fill="#FEB186"/>
</g>
<path d="M50.5854 187.597C53.0746 184.531 54.3065 180.634 54.0319 176.694C53.7573 172.754 51.9967 169.065 49.1062 166.374C46.2157 163.683 42.411 162.19 38.4616 162.197C34.5122 162.204 30.713 163.711 27.8323 166.413C24.9515 169.115 23.2043 172.809 22.9441 176.75C22.6838 180.691 23.9298 184.584 26.4302 187.641C28.9305 190.698 32.4986 192.691 36.4127 193.218C40.3268 193.744 44.2948 192.765 47.5142 190.477L54.4694 193.848L50.5854 187.597Z" fill="white" stroke="#FEB186" stroke-miterlimit="10"/>
<path d="M38.4986 189.289C38.354 189.289 38.2152 189.231 38.1129 189.129C38.0106 189.026 37.9531 188.888 37.9531 188.743V183.081C37.9531 182.936 38.0106 182.797 38.1129 182.695C38.2152 182.593 38.354 182.535 38.4986 182.535C38.6433 182.535 38.7821 182.593 38.8844 182.695C38.9867 182.797 39.0441 182.936 39.0441 183.081V188.765C39.0385 188.906 38.9785 189.039 38.8769 189.137C38.7752 189.234 38.6396 189.289 38.4986 189.289Z" fill="#4355E6"/>
<path d="M38.4777 181.444C37.6853 181.442 36.9258 181.127 36.3654 180.566C35.8051 180.006 35.4897 179.247 35.4883 178.454V169.001C35.4897 168.209 35.8053 167.45 36.3658 166.89C36.9262 166.331 37.6858 166.017 38.4777 166.017C39.2691 166.017 40.028 166.331 40.5876 166.891C41.1472 167.45 41.4616 168.209 41.4616 169.001V178.471C41.4573 179.26 41.1412 180.015 40.5822 180.572C40.0232 181.129 39.2667 181.442 38.4777 181.444Z" fill="#4355E6"/>
<path d="M38.4993 183.626C37.0992 183.625 35.7569 183.068 34.767 182.078C33.777 181.088 33.2202 179.746 33.2188 178.346V173.883C33.2188 173.739 33.2762 173.6 33.3785 173.498C33.4808 173.395 33.6196 173.338 33.7643 173.338C33.9089 173.338 34.0477 173.395 34.15 173.498C34.2523 173.6 34.3098 173.739 34.3098 173.883V178.324C34.2895 178.886 34.3827 179.447 34.584 179.973C34.7852 180.499 35.0904 180.978 35.4811 181.383C35.8719 181.789 36.3403 182.111 36.8584 182.331C37.3765 182.551 37.9336 182.664 38.4965 182.664C39.0594 182.664 39.6166 182.551 40.1346 182.331C40.6527 182.111 41.1212 181.789 41.5119 181.383C41.9027 180.978 42.2078 180.499 42.4091 179.973C42.6104 179.447 42.7036 178.886 42.6833 178.324V173.883C42.6833 173.739 42.7408 173.6 42.8431 173.498C42.9454 173.395 43.0841 173.338 43.2288 173.338C43.3735 173.338 43.5123 173.395 43.6146 173.498C43.7169 173.6 43.7743 173.739 43.7743 173.883V178.324C43.7765 179.018 43.6417 179.707 43.3777 180.349C43.1137 180.992 42.7257 181.576 42.2358 182.068C41.7458 182.561 41.1637 182.952 40.5226 183.219C39.8814 183.486 39.1939 183.625 38.4993 183.626Z" fill="#4355E6"/>
<path d="M42.1444 189.577H34.8619C34.7172 189.577 34.5785 189.52 34.4762 189.418C34.3739 189.315 34.3164 189.177 34.3164 189.032C34.3164 188.887 34.3739 188.748 34.4762 188.646C34.5785 188.544 34.7172 188.486 34.8619 188.486H42.1444C42.2891 188.486 42.4279 188.544 42.5302 188.646C42.6325 188.748 42.69 188.887 42.69 189.032C42.69 189.177 42.6325 189.315 42.5302 189.418C42.4279 189.52 42.2891 189.577 42.1444 189.577Z" fill="#4355E6"/>
<path d="M270.439 23.9805V39.462L263.778 34.6233H260.598V28.8191H263.778L270.439 23.9805Z" stroke="#FE6B21" stroke-miterlimit="10"/>
<path d="M276.264 25.4805C277.153 26.247 277.855 27.205 278.32 28.2824C278.784 29.3598 278.999 30.5286 278.946 31.7007C278.894 32.8728 278.576 34.0178 278.017 35.0493C277.458 36.0809 276.672 36.9722 275.719 37.6562" stroke="#FE6B21" stroke-linecap="round" stroke-linejoin="round"/>
<path d="M272.742 27.7178C273.456 28.0195 274.066 28.5251 274.494 29.1712C274.923 29.8174 275.151 30.5755 275.151 31.3508C275.151 32.1262 274.923 32.8843 274.494 33.5305C274.066 34.1767 273.456 34.6822 272.742 34.9839" stroke="#FE6B21" stroke-linecap="round" stroke-linejoin="round"/>
<path d="M57.6911 16.2471C57.3311 14.5765 56.8546 12.9332 56.2649 11.3292C56.2385 11.2432 56.1802 11.1706 56.1019 11.1262C56.0236 11.0818 55.9313 11.0691 55.844 11.0906C55.0266 11.254 48.4587 12.8756 48.3614 13.2434C48.1857 13.4232 49.5547 16.583 49.8277 19.9994C49.56 19.8334 49.244 19.7627 48.9311 19.7989C48.6182 19.8351 48.3267 19.9761 48.104 20.1988C47.9379 20.3729 47.8169 20.585 47.7514 20.8165C47.6859 21.048 47.6779 21.292 47.7281 21.5273C47.7782 21.7626 47.8851 21.9821 48.0393 22.1668C48.1935 22.3515 48.3905 22.4957 48.6131 22.587C48.8398 22.7058 49.0931 22.7648 49.3489 22.7585C49.6047 22.7522 49.8548 22.6808 50.0753 22.551C50.2531 22.3996 50.3912 22.2071 50.4777 21.9901C50.5641 21.7732 50.5963 21.5384 50.5714 21.3063C50.5253 19.3299 50.2187 17.3683 49.6593 15.4722L56.3662 13.8376C56.8207 15.4028 57.5922 18.1481 57.3593 19.7607C57.0244 19.4566 56.5923 19.2815 56.1401 19.2665C55.688 19.2515 55.2453 19.3977 54.891 19.679C54.6754 19.8375 54.5087 20.0535 54.4102 20.3022C54.3117 20.551 54.2852 20.8225 54.3338 21.0857C54.3824 21.3488 54.5042 21.5929 54.6851 21.7901C54.866 21.9872 55.0988 22.1294 55.3568 22.2004C57.9535 22.9948 58.4202 19.6814 57.6911 16.2471ZM48.3737 21.3643C48.3393 21.1835 48.3709 20.9963 48.4629 20.8369C48.5548 20.6774 48.701 20.5563 48.8747 20.4955C49.3888 20.3091 50.0467 20.766 49.8497 21.688C49.6773 22.4857 48.5118 21.9356 48.3737 21.3643ZM49.4779 14.8159L49.1452 13.6553C51.2942 12.9049 53.4888 12.2923 55.7156 11.8213C55.8791 12.2732 56.0426 12.7293 56.1807 13.1903C53.9478 13.7264 51.7135 14.2683 49.4779 14.8159ZM55.5072 21.5368C54.2061 21.075 55.6544 18.9622 57.1819 20.4914C56.8117 21.4395 56.0867 21.7427 55.5072 21.5368ZM39.4698 45.8495C39.1099 44.1786 38.633 42.535 38.0428 40.9309C38.0162 40.845 37.9578 40.7725 37.8796 40.7281C37.8014 40.6838 37.7092 40.671 37.6218 40.6923C36.7857 40.8639 30.2365 42.4781 30.1385 42.8451C29.975 43.0159 31.3285 46.1961 31.6096 49.601C31.342 49.4353 31.0262 49.3648 30.7135 49.401C30.4007 49.4372 30.1094 49.5779 29.8867 49.8005C29.7205 49.9745 29.5993 50.1866 29.5337 50.4181C29.4681 50.6497 29.46 50.8937 29.5102 51.1291C29.5604 51.3645 29.6673 51.5841 29.8217 51.7687C29.976 51.9534 30.1732 52.0975 30.3959 52.1887C30.6224 52.3076 30.8754 52.3668 31.1312 52.3606C31.3869 52.3545 31.6368 52.2832 31.8573 52.1535C32.035 52.0018 32.1731 51.8092 32.2597 51.5922C32.3463 51.3751 32.3787 51.1403 32.3542 50.9079C32.3077 48.9316 32.0007 46.97 31.4413 45.0739L38.149 43.4393C38.6051 45.0167 39.375 47.749 39.1412 49.3624C36.7228 47.5643 34.8331 51.0951 37.138 51.8037C39.7272 52.5965 40.1964 49.2586 39.4698 45.8495ZM30.1581 50.9717C30.1235 50.791 30.1551 50.6038 30.2471 50.4445C30.3391 50.2851 30.4853 50.1642 30.6591 50.1037C31.1773 49.9149 31.8319 50.3791 31.6333 51.2962C31.4592 52.0882 30.2937 51.5389 30.1581 50.9717ZM31.2615 44.4192L30.9296 43.2586C33.0786 42.5085 35.2732 41.8959 37.5 41.4246C37.6635 41.8766 37.8229 42.3326 37.9651 42.7936C35.7262 43.3341 33.4927 43.876 31.2615 44.4192ZM37.2916 51.1401C36.0035 50.6807 37.4379 48.5663 38.9663 50.0947C38.592 51.0469 37.8678 51.346 37.2916 51.1401ZM55.9854 40.1667C55.7402 40.1079 54.211 43.1769 51.7451 45.6428C51.688 45.3169 51.5193 45.021 51.2678 44.8059C51.0164 44.5909 50.6979 44.47 50.3671 44.4642C50.0109 44.495 49.676 44.6468 49.418 44.8944C49.16 45.1419 48.9945 45.4702 48.949 45.8248C48.9034 46.1795 48.9806 46.539 49.1677 46.8437C49.3547 47.1484 49.6404 47.3799 49.9773 47.4997C50.5755 47.6501 51.0896 47.1891 51.4975 46.8254C52.8566 45.5618 54.0598 44.1402 55.0814 42.5909C56.9416 43.946 58.8038 45.3014 60.6678 46.6571C59.7459 48.0465 58.1897 50.3432 56.7962 51.2479C56.6155 48.3015 52.8902 49.0869 53.5743 51.1417C54.2428 53.1466 56.8035 52.9594 59.6927 49.2145C60.7372 47.855 61.6862 46.4248 62.5329 44.9342C62.5703 44.8697 62.5853 44.7947 62.5757 44.7208C62.5661 44.6469 62.5324 44.5783 62.4798 44.5255C61.3519 43.6428 56.3327 40.0531 55.9854 40.1667ZM49.7525 45.4409C49.8692 45.2892 50.0386 45.1867 50.2271 45.1539C50.4157 45.1211 50.6097 45.1602 50.7709 45.2635C51.1942 45.539 51.3062 46.2525 50.5257 46.7388C49.7917 47.1752 49.3929 45.9558 49.7525 45.4409ZM54.7381 50.0179C55.7189 49.7645 56.1644 50.7616 56.112 51.5863C54.3295 52.1789 53.5751 50.3121 54.7381 50.0179ZM55.4647 42.0343C55.6911 41.7016 55.9126 41.3649 56.1341 41.0282C58.0961 42.1802 59.9827 43.4559 61.7826 44.8475C61.5434 45.2638 61.2952 45.6787 61.038 46.0923C59.1876 44.7388 57.3282 43.3878 55.4647 42.0343ZM4.00384 -3.6318C3.80601 -3.13843 3.80601 -2.58779 4.00384 -2.09442C4.01604 -2.045 4.03962 -1.99911 4.07269 -1.96041C4.10575 -1.9217 4.1474 -1.89125 4.19431 -1.87148C4.24122 -1.85172 4.2921 -1.84318 4.3429 -1.84655C4.39369 -1.84993 4.44299 -1.86511 4.48688 -1.8909C4.68972 -1.74529 4.92751 -1.65603 5.17605 -1.63218C5.4246 -1.60834 5.67502 -1.65078 5.90184 -1.75518C6.12865 -1.85957 6.32376 -2.0222 6.46729 -2.22651C6.61083 -2.43081 6.69768 -2.6695 6.71898 -2.91827C6.74212 -3.2502 6.64867 -3.57979 6.45477 -3.85018C6.26087 -4.12057 5.97869 -4.31481 5.65688 -4.39937C5.33508 -4.48394 4.99385 -4.45353 4.69207 -4.3134C4.39029 -4.17328 4.14688 -3.93221 4.00384 -3.6318ZM6.03325 -2.99837C6.02838 -2.8946 6.00189 -2.79299 5.95548 -2.70004C5.90908 -2.60709 5.84377 -2.52487 5.76375 -2.45862C5.68373 -2.39236 5.59076 -2.34354 5.49079 -2.31529C5.39082 -2.28703 5.28605 -2.27997 5.18319 -2.29454C5.08033 -2.30911 4.98165 -2.345 4.89346 -2.39991C4.80527 -2.45482 4.72951 -2.52754 4.67105 -2.61342C4.61258 -2.69929 4.57269 -2.79642 4.55392 -2.89859C4.53516 -3.00077 4.53794 -3.10575 4.56208 -3.20679C4.60434 -3.38852 4.71314 -3.54782 4.86704 -3.6533C5.02094 -3.75878 5.20877 -3.80278 5.39351 -3.77662C5.57824 -3.75046 5.74648 -3.65606 5.86505 -3.512C5.98362 -3.36794 6.0431 -3.18469 6.03325 -2.99837ZM13.2951 -0.574208C13.4063 -0.372828 13.5613 -0.198997 13.7487 -0.0655541C13.9361 0.0678892 14.151 0.157543 14.3777 0.196772C14.6043 0.236001 14.8369 0.223816 15.0582 0.161106C15.2796 0.0983944 15.484 -0.0132442 15.6564 -0.165545C15.9179 -0.371588 16.091 -0.669618 16.1403 -0.998876C16.1897 -1.32813 16.1116 -1.66383 15.922 -1.9375C15.7811 -2.1276 15.6012 -2.28534 15.3943 -2.40013C15.1875 -2.51492 14.9584 -2.58409 14.7225 -2.60298C14.4867 -2.62187 14.2495 -2.59005 14.027 -2.50966C13.8045 -2.42928 13.6018 -2.30217 13.4324 -2.13691C13.382 -2.1518 13.3288 -2.15461 13.2771 -2.14512C13.2254 -2.13562 13.1766 -2.11409 13.1347 -2.08226C13.0929 -2.05043 13.0591 -2.0092 13.0361 -1.9619C13.0132 -1.9146 13.0017 -1.86256 13.0025 -1.80998C12.9951 -1.7364 12.9921 -1.66244 12.9935 -1.5885C12.8557 -1.35985 12.7526 -1.11194 12.6879 -0.852916C12.6708 -0.776594 12.6805 -0.696727 12.7152 -0.626672C12.75 -0.556617 12.8077 -0.500606 12.8788 -0.467988C12.9499 -0.435369 13.03 -0.428118 13.1058 -0.447449C13.1815 -0.466779 13.2484 -0.511529 13.2951 -0.574208ZM14.4467 -1.91298L14.4647 -1.91706C15.1791 -2.00614 15.8051 -1.30816 15.3066 -0.772814C14.705 -0.118958 13.8411 -0.557045 13.694 -1.41114C13.8717 -1.66827 14.141 -1.84778 14.4467 -1.91298Z" fill="#4355E6"/>
</g>
<defs>
<clipPath id="clip0_3536_8026">
<rect width="346" height="225" fill="white" transform="translate(0 0.848633)"/>
</clipPath>
<clipPath id="clip1_3536_8026">
<rect width="288" height="200" fill="white" transform="translate(29 -6.15137)"/>
</clipPath>
</defs>
</svg>
