<svg width="1098" height="1196" viewBox="0 0 1098 1196" fill="none" xmlns="http://www.w3.org/2000/svg">
<path d="M928.211 505.938C921.656 505.729 915.113 505.038 908.632 503.87C908.288 503.828 907.97 503.65 907.744 503.373C907.517 503.095 907.398 502.739 907.412 502.377C907.399 499.021 908.455 471.827 909.763 471.174C910.304 470.347 923.232 473.469 936.283 472.062C935.454 471.123 934.946 469.923 934.842 468.657C934.738 467.392 935.044 466.135 935.71 465.09C936.238 464.306 936.942 463.672 937.762 463.244C938.582 462.816 939.493 462.607 940.416 462.634C941.339 462.661 942.246 462.925 943.058 463.401C943.871 463.878 944.564 464.553 945.078 465.368C945.698 466.179 946.114 467.139 946.287 468.157C946.46 469.175 946.383 470.217 946.065 471.185C945.632 472 945.014 472.687 944.265 473.187C943.516 473.688 942.658 473.986 941.766 474.056C934.302 475.313 926.693 475.527 919.137 474.692L918.138 502.446C924.37 503.106 935.282 504.162 941.164 502.066C939.764 500.961 938.774 499.377 938.371 497.597C937.968 495.817 938.178 493.957 938.963 492.349C939.394 491.38 940.078 490.563 940.937 489.991C941.797 489.42 942.797 489.117 943.824 489.118C944.85 489.119 945.861 489.424 946.741 489.997C947.621 490.57 948.334 491.388 948.799 492.359C953.777 502.064 941.68 506.325 928.211 505.938ZM940.298 465.31C939.592 465.305 938.913 465.567 938.384 466.047C937.855 466.527 937.512 467.194 937.417 467.927C937.111 470.099 939.333 472.372 942.647 470.92C945.513 469.656 942.552 465.441 940.298 465.31ZM916.531 474.451L911.913 473.979C910.741 483.036 910.122 492.174 910.06 501.337C911.884 501.655 913.724 501.971 915.563 502.182C915.865 492.948 916.188 483.704 916.531 474.451ZM946.419 493.437C943.685 488.62 936.855 495.895 943.775 500.831C947.054 498.675 947.638 495.582 946.419 493.437ZM1025.5 412.217C1018.95 412.008 1012.4 411.316 1005.92 410.146C1005.58 410.104 1005.26 409.925 1005.03 409.648C1004.81 409.37 1004.69 409.014 1004.7 408.653C1004.7 405.216 1005.75 378.102 1007.05 377.447C1007.57 376.675 1020.56 379.72 1033.58 378.354C1032.75 377.415 1032.24 376.216 1032.14 374.951C1032.03 373.686 1032.34 372.429 1033 371.385C1033.53 370.6 1034.23 369.966 1035.05 369.538C1035.87 369.109 1036.79 368.899 1037.71 368.927C1038.63 368.954 1039.54 369.218 1040.35 369.695C1041.16 370.172 1041.86 370.847 1042.37 371.663C1042.99 372.474 1043.41 373.433 1043.58 374.45C1043.75 375.467 1043.68 376.509 1043.36 377.477C1042.93 378.291 1042.31 378.978 1041.56 379.479C1040.81 379.98 1039.95 380.28 1039.06 380.352C1031.59 381.607 1023.99 381.819 1016.43 380.984L1015.43 408.741C1021.71 409.398 1032.57 410.458 1038.46 408.358C1029.84 400.088 1041.66 390.033 1046.1 398.646C1051.06 408.324 1038.88 412.612 1025.5 412.217ZM1037.61 371.607C1036.91 371.602 1036.23 371.863 1035.7 372.344C1035.17 372.824 1034.83 373.491 1034.74 374.224C1034.42 376.413 1036.67 378.668 1039.97 377.214C1042.81 375.948 1039.85 371.732 1037.61 371.607ZM1013.83 380.748L1009.21 380.279C1008.04 389.337 1007.42 398.475 1007.36 407.637C1009.18 407.956 1011.02 408.255 1012.86 408.482C1013.18 399.222 1013.5 389.981 1013.83 380.748ZM1043.72 399.738C1041 394.971 1034.16 402.191 1041.08 407.132C1044.37 404.956 1044.94 401.87 1043.72 399.738ZM1016.81 481.766C1016.4 480.838 1026.77 472.547 1034.14 460.985C1032.88 460.996 1031.63 460.543 1030.63 459.704C1029.63 458.865 1028.93 457.691 1028.66 456.385C1028.5 454.952 1028.81 453.515 1029.55 452.313C1030.28 451.111 1031.39 450.217 1032.68 449.778C1033.98 449.339 1035.39 449.383 1036.68 449.902C1037.97 450.421 1039.06 451.384 1039.77 452.631C1040.79 454.891 1039.45 457.263 1038.4 459.143C1034.69 465.446 1030.27 471.247 1025.23 476.421C1031.75 482.802 1038.28 489.19 1044.8 495.586C1049.32 490.922 1056.76 483.087 1059.09 476.909C1047.88 478.339 1047.97 463.012 1056.22 464.226C1064.27 465.414 1065.53 475.692 1053.67 489.862C1049.36 494.988 1044.71 499.788 1039.76 504.227C1039.54 504.422 1039.27 504.536 1038.99 504.552C1038.7 504.568 1038.42 504.484 1038.18 504.314C1034 500.49 1016.65 483.225 1016.81 481.766ZM1031.86 453.24C1031.38 453.813 1031.12 454.558 1031.14 455.329C1031.16 456.1 1031.46 456.84 1031.97 457.402C1033.33 458.879 1036.1 458.803 1037.33 455.357C1038.41 452.132 1033.52 451.441 1031.86 453.24ZM1052.89 469.653C1052.69 473.722 1056.78 474.761 1059.84 473.953C1060.7 466.461 1053.1 464.833 1052.89 469.653ZM1023.43 478.344C1022.36 479.483 1021.26 480.606 1020.17 481.728C1026 488.66 1032.24 495.203 1038.86 501.318C1040.24 500.068 1041.61 498.783 1042.96 497.463C1036.46 491.12 1029.95 484.739 1023.43 478.344ZM812.3 307.779C814.003 306.636 816.073 306.236 818.079 306.66C818.274 306.672 818.465 306.732 818.636 306.835C818.807 306.938 818.953 307.081 819.063 307.252C819.174 307.423 819.245 307.619 819.271 307.822C819.297 308.026 819.278 308.232 819.215 308.425C819.918 309.122 820.436 309.999 820.716 310.966C820.996 311.933 821.029 312.956 820.811 313.93C820.592 314.904 820.131 315.796 819.473 316.513C818.815 317.23 817.984 317.748 817.066 318.013C815.836 318.347 814.525 318.216 813.36 317.645C812.195 317.074 811.248 316.098 810.683 314.885C810.119 313.672 809.971 312.299 810.266 311.001C810.562 309.704 811.281 308.565 812.3 307.779ZM816.238 315.356C816.625 315.261 816.986 315.082 817.3 314.83C817.614 314.579 817.873 314.26 818.06 313.895C818.248 313.53 818.36 313.126 818.39 312.71C818.419 312.293 818.365 311.873 818.232 311.476C818.098 311.08 817.887 310.715 817.613 310.406C817.339 310.096 817.008 309.849 816.64 309.68C816.273 309.511 815.877 309.424 815.478 309.424C815.08 309.424 814.688 309.512 814.326 309.681C813.676 309.98 813.16 310.527 812.882 311.214C812.603 311.9 812.582 312.676 812.822 313.389C813.062 314.101 813.546 314.699 814.179 315.064C814.811 315.428 815.546 315.53 816.238 315.356ZM830.922 342.352C831.764 342.646 832.536 343.133 833.182 343.778C833.827 344.423 834.329 345.209 834.65 346.078C834.972 346.947 835.104 347.877 835.038 348.8C834.972 349.722 834.71 350.613 834.269 351.406C833.696 352.592 832.708 353.495 831.508 353.93C830.309 354.365 828.987 354.3 827.813 353.749C826.99 353.329 826.259 352.731 825.669 351.996C825.079 351.26 824.643 350.403 824.391 349.483C824.139 348.562 824.077 347.6 824.208 346.66C824.34 345.72 824.662 344.825 825.153 344.034C825.058 343.845 825.007 343.636 825.003 343.424C824.999 343.213 825.043 343.004 825.13 342.815C825.218 342.626 825.347 342.462 825.507 342.337C825.667 342.211 825.854 342.128 826.052 342.093C826.323 342.01 826.599 341.944 826.878 341.896C827.631 341.183 828.484 340.595 829.408 340.15C829.682 340.027 829.99 340.007 830.28 340.093C830.57 340.18 830.825 340.368 831.002 340.626C831.179 340.883 831.267 341.195 831.253 341.51C831.238 341.824 831.122 342.121 830.922 342.352ZM826.773 347.888L826.771 347.962C826.985 350.856 830.089 352.827 831.718 350.463C833.715 347.604 831.405 344.502 828.082 344.541C827.252 345.432 826.784 346.629 826.773 347.888Z" fill="url(#paint0_linear_3536_6748)"/>
<path d="M1148.65 837.612C1186.01 712.023 1229.22 475.874 1103.21 535.988C945.69 611.131 828.374 778.486 763.054 557.022C697.734 335.558 566.079 335.913 498.805 408.298C444.986 466.206 380.393 596.791 361.475 655.156C304.622 755.373 233.643 809.648 176.812 626.241" stroke="url(#paint1_linear_3536_6748)" stroke-width="2" stroke-dasharray="14 14"/>
<path d="M736.37 502.071C736.147 501.828 735.842 501.685 735.524 501.674C735.207 501.662 734.901 501.782 734.675 502.009L725.836 510.858C725.61 511.084 725.482 511.398 725.481 511.729C725.479 512.061 725.604 512.383 725.828 512.626C726.051 512.868 726.356 513.011 726.673 513.023C726.991 513.035 727.297 512.914 727.523 512.688L736.396 503.804C736.607 503.575 736.723 503.266 736.718 502.943C736.713 502.62 736.588 502.307 736.37 502.071Z" fill="url(#paint2_linear_3536_6748)"/>
<path d="M723.031 515.356C722.063 514.311 720.755 513.702 719.402 513.653L719.456 512.123L719.402 513.653C718.051 513.603 716.765 514.113 715.818 515.057L701.063 529.83C700.121 530.777 699.581 532.094 699.576 533.502C699.571 534.912 700.103 536.297 701.068 537.344C702.033 538.39 703.338 538.999 704.689 539.049C706.037 539.098 707.32 538.588 708.263 537.644L723.043 522.846C723.977 521.899 724.511 520.586 724.515 519.185C724.519 517.78 723.99 516.401 723.031 515.356Z" stroke="url(#paint3_linear_3536_6748)" stroke-width="3"/>
<path d="M727.533 510.921C725.366 508.575 722.422 507.194 719.346 507.081C716.27 506.968 713.314 508.132 711.126 510.318L704.16 517.292C703.934 517.518 703.807 517.831 703.805 518.163C703.803 518.494 703.928 518.817 704.152 519.059C704.376 519.302 704.68 519.445 704.998 519.457C705.316 519.468 705.621 519.348 705.847 519.122L712.779 512.182C713.625 511.268 714.645 510.548 715.777 510.064C716.909 509.58 718.129 509.342 719.366 509.364C720.603 509.386 721.83 509.668 722.974 510.193C724.119 510.718 725.157 511.475 726.028 512.419C726.898 513.363 727.582 514.475 728.039 515.688C728.497 516.901 728.718 518.19 728.69 519.479C728.661 520.767 728.384 522.029 727.875 523.188C727.365 524.347 726.634 525.38 725.724 526.225L718.792 533.165C718.567 533.391 718.439 533.705 718.437 534.036C718.436 534.368 718.561 534.69 718.784 534.933C719.008 535.175 719.312 535.318 719.63 535.33C719.948 535.342 720.253 535.221 720.479 534.995L727.411 528.055C728.499 526.973 729.365 525.671 729.96 524.224C730.554 522.777 730.866 521.214 730.878 519.622C730.889 518.031 730.599 516.444 730.026 514.95C729.452 513.457 728.605 512.088 727.533 510.921Z" fill="url(#paint4_linear_3536_6748)"/>
<path d="M742.458 507.73L731.199 495.516C730.975 495.274 730.671 495.131 730.353 495.119C730.035 495.107 729.73 495.228 729.504 495.454C729.278 495.68 729.15 495.993 729.149 496.325C729.147 496.656 729.272 496.979 729.496 497.222L740.755 509.435C740.978 509.678 741.282 509.821 741.6 509.833C741.918 509.844 742.224 509.724 742.449 509.498C742.675 509.272 742.803 508.958 742.805 508.627C742.806 508.295 742.681 507.973 742.458 507.73Z" fill="url(#paint5_linear_3536_6748)"/>
<defs>
<linearGradient id="paint0_linear_3536_6748" x1="1034.6" y1="327.116" x2="1042.27" y2="502.15" gradientUnits="userSpaceOnUse">
<stop stop-color="#4C60E9"/>
<stop offset="1" stop-color="#7485FF"/>
</linearGradient>
<linearGradient id="paint1_linear_3536_6748" x1="177.597" y1="619.184" x2="248.048" y2="305.507" gradientUnits="userSpaceOnUse">
<stop stop-color="#4C60E9"/>
<stop offset="1" stop-color="#7485FF"/>
</linearGradient>
<linearGradient id="paint2_linear_3536_6748" x1="735.967" y1="501.634" x2="737.253" y2="502.978" gradientUnits="userSpaceOnUse">
<stop stop-color="#4C60E9"/>
<stop offset="1" stop-color="#7485FF"/>
</linearGradient>
<linearGradient id="paint3_linear_3536_6748" x1="721.881" y1="511.897" x2="728.684" y2="519.478" gradientUnits="userSpaceOnUse">
<stop stop-color="#4C60E9"/>
<stop offset="1" stop-color="#7485FF"/>
</linearGradient>
<linearGradient id="paint4_linear_3536_6748" x1="723.63" y1="506.687" x2="734.347" y2="521.033" gradientUnits="userSpaceOnUse">
<stop stop-color="#4C60E9"/>
<stop offset="1" stop-color="#7485FF"/>
</linearGradient>
<linearGradient id="paint5_linear_3536_6748" x1="733.736" y1="498.268" x2="733.131" y2="508.138" gradientUnits="userSpaceOnUse">
<stop stop-color="#4C60E9"/>
<stop offset="1" stop-color="#7485FF"/>
</linearGradient>
</defs>
</svg>
