<svg width="1920" height="2593" viewBox="0 0 1920 2593" fill="none" xmlns="http://www.w3.org/2000/svg">
<g clip-path="url(#clip0_3536_6657)">
<path d="M946.307 1333.15C947.889 1337.35 948.22 1341.91 947.256 1346.26C946.293 1350.61 944.08 1354.55 940.896 1357.59C937.713 1360.62 933.702 1362.61 929.371 1363.31C925.04 1364 920.583 1363.37 916.564 1361.5C912.546 1359.62 909.146 1356.58 906.794 1352.77C904.442 1348.95 903.245 1344.53 903.353 1340.06C903.461 1335.59 904.869 1331.27 907.4 1327.65C909.931 1324.03 913.471 1321.28 917.573 1319.73C923.51 1317.49 930.105 1317.67 935.984 1320.26" stroke="url(#paint0_linear_3536_6657)" stroke-width="1.71429" stroke-linecap="round" stroke-linejoin="round"/>
<path d="M931.928 1314.32L935.985 1320.25L930.22 1324.29" stroke="url(#paint1_linear_3536_6657)" stroke-width="1.71429" stroke-linecap="round" stroke-linejoin="round"/>
<path d="M936.738 1336.75L923.978 1341.56L923.03 1351.62" stroke="url(#paint2_linear_3536_6657)" stroke-width="1.71429" stroke-linecap="round" stroke-linejoin="round"/>
</g>
<g clip-path="url(#clip1_3536_6657)">
<path d="M1050.44 1357.67L1065.12 1396.63" stroke="url(#paint3_linear_3536_6657)" stroke-width="1.71429" stroke-linecap="round" stroke-linejoin="round"/>
<path d="M1066.28 1373.95L1057.77 1377.15" stroke="url(#paint4_linear_3536_6657)" stroke-width="1.71429" stroke-linecap="round" stroke-linejoin="round"/>
<path d="M1062.67 1390.14L1023.11 1375.38" stroke="url(#paint5_linear_3536_6657)" stroke-width="1.71429" stroke-linecap="round" stroke-linejoin="round"/>
<path d="M1052.88 1364.16L1036.64 1394.39" stroke="url(#paint6_linear_3536_6657)" stroke-width="1.71429" stroke-linecap="round" stroke-linejoin="round"/>
<path d="M1014.56 1404.27L1048.01 1403.16C1049.72 1403.1 1051.29 1404.16 1051.91 1405.79C1052.52 1407.43 1052.04 1409.26 1050.72 1410.35L1024.85 1431.58M1026.67 1403.87L1034.21 1423.9" stroke="url(#paint7_linear_3536_6657)" stroke-width="1.71429" stroke-linecap="round" stroke-linejoin="round"/>
</g>
<g clip-path="url(#clip2_3536_6657)">
<path d="M1136.97 1413.56L1160.63 1390.39C1162.2 1388.85 1164.31 1388 1166.51 1388.03C1168.7 1388.05 1170.8 1388.94 1172.34 1390.51L1190.44 1409" stroke="url(#paint8_linear_3536_6657)" stroke-width="1.71429" stroke-linecap="round" stroke-linejoin="round"/>
<path d="M1176.5 1412.51L1152.84 1435.68C1151.27 1437.22 1149.15 1438.07 1146.96 1438.05C1144.76 1438.02 1142.66 1437.13 1141.13 1435.56" stroke="url(#paint9_linear_3536_6657)" stroke-width="1.71429" stroke-linecap="round" stroke-linejoin="round"/>
<path d="M1141.25 1423.85L1142.73 1422.4C1143.12 1422.02 1143.34 1421.5 1143.35 1420.95C1143.36 1420.4 1143.14 1419.87 1142.76 1419.48L1129.73 1406.17C1129.34 1405.78 1128.82 1405.55 1128.27 1405.55C1127.72 1405.54 1127.19 1405.75 1126.8 1406.14L1125.32 1407.59C1123.75 1409.12 1122.86 1411.22 1122.83 1413.41C1122.81 1415.61 1123.66 1417.73 1125.2 1419.29L1141.13 1435.56C1139.59 1433.99 1138.74 1431.88 1138.76 1429.68C1138.79 1427.49 1139.68 1425.39 1141.25 1423.85Z" stroke="url(#paint10_linear_3536_6657)" stroke-width="1.71429" stroke-linecap="round" stroke-linejoin="round"/>
<path d="M1190.44 1409C1191.78 1410.37 1192.52 1412.22 1192.5 1414.14C1192.48 1416.06 1191.7 1417.9 1190.33 1419.24L1188.11 1421.41C1187.72 1421.8 1187.19 1422.01 1186.64 1422C1186.09 1422 1185.57 1421.78 1185.18 1421.38L1176.49 1412.51L1180.19 1408.89C1181.56 1407.55 1183.41 1406.8 1185.34 1406.82C1187.26 1406.84 1189.09 1407.62 1190.44 1409Z" stroke="url(#paint11_linear_3536_6657)" stroke-width="1.71429" stroke-linecap="round" stroke-linejoin="round"/>
<path d="M1163.43 1402.13L1167.77 1406.57" stroke="url(#paint12_linear_3536_6657)" stroke-width="1.71429" stroke-linecap="round" stroke-linejoin="round"/>
<path d="M1154.56 1410.82L1158.9 1415.25" stroke="url(#paint13_linear_3536_6657)" stroke-width="1.71429" stroke-linecap="round" stroke-linejoin="round"/>
</g>
<path d="M1276.93 1390.09C1275.39 1392.7 1272.93 1394.66 1270.02 1395.61C1266.77 1396.79 1263.27 1397.1 1259.88 1396.51" stroke="url(#paint14_linear_3536_6657)" stroke-width="1.6" stroke-linecap="round" stroke-linejoin="round"/>
<path d="M1271.07 1386.47C1270.31 1387.77 1269.07 1388.75 1267.62 1389.23C1266.22 1389.83 1264.64 1389.91 1263.21 1389.43" stroke="url(#paint15_linear_3536_6657)" stroke-width="1.6" stroke-linecap="round" stroke-linejoin="round"/>
<path fill-rule="evenodd" clip-rule="evenodd" d="M1073.14 1414.16C1072.84 1414.15 1072.55 1414.25 1072.31 1414.43C1072.07 1414.61 1071.9 1414.87 1071.83 1415.16C1071.75 1415.45 1071.79 1415.76 1071.91 1416.03C1072.04 1416.3 1072.26 1416.52 1072.54 1416.65C1080.76 1419.1 1098.39 1421.14 1106.67 1417.72C1107.92 1417.2 1107.83 1415.01 1106.38 1415.32C1105.43 1414.8 1092.61 1419.24 1073.14 1414.16Z" fill="url(#paint16_linear_3536_6657)"/>
<path fill-rule="evenodd" clip-rule="evenodd" d="M1109.54 1401.15C1104.44 1403.52 1091.74 1401.51 1086.76 1400C1085.2 1399.53 1086.07 1397.32 1087.53 1397.72C1099.25 1400.94 1104.92 1398.43 1109.08 1398.87C1109.72 1398.57 1110.95 1400.38 1109.54 1401.15Z" fill="url(#paint17_linear_3536_6657)"/>
<path fill-rule="evenodd" clip-rule="evenodd" d="M961.099 1378.8C960.767 1378.69 960.404 1378.71 960.087 1378.86C959.77 1379.01 959.525 1379.28 959.403 1379.61C959.282 1379.94 959.294 1380.3 959.436 1380.62C959.578 1380.94 959.84 1381.19 960.166 1381.33C966.335 1383.59 984.692 1388.88 991.643 1387.79C992.848 1387.61 993.077 1385.58 991.841 1385.4C991.477 1384.66 974.566 1383.61 961.099 1378.8Z" fill="url(#paint18_linear_3536_6657)"/>
<path fill-rule="evenodd" clip-rule="evenodd" d="M976.046 1366.9C966.594 1364.43 962.095 1365.59 953.22 1358.56C952.953 1358.39 952.634 1358.33 952.321 1358.37C952.008 1358.42 951.724 1358.58 951.519 1358.82C951.315 1359.06 951.206 1359.37 951.211 1359.69C951.216 1360 951.336 1360.31 951.549 1360.54C956.669 1364.95 962.881 1367.88 969.532 1369.05C979.173 1370.71 977.363 1367.25 976.046 1366.9Z" fill="url(#paint19_linear_3536_6657)"/>
<path fill-rule="evenodd" clip-rule="evenodd" d="M1309.53 1352.18C1310.33 1351.29 1309.37 1349.25 1308.36 1350.21C1300.44 1357.05 1291.84 1363.04 1282.69 1368.11C1281.22 1368.93 1282.8 1370.85 1284.3 1370.11C1293.45 1365.22 1301.94 1359.18 1309.56 1352.15L1309.53 1352.18Z" fill="url(#paint20_linear_3536_6657)"/>
<path d="M1534.87 991.976C1613.72 1169.83 1464.78 1356.12 1248.29 1293.27C977.686 1214.71 760.977 991.626 683.162 1332.3C605.348 1672.97 387.676 1699.57 266.617 1606.49C169.77 1532.02 67.1197 1348.74 27.9006 1266.41" stroke="url(#paint21_linear_3536_6657)" stroke-width="2" stroke-dasharray="14 14"/>
<g clip-path="url(#clip3_3536_6657)">
<path d="M381.814 1618.44L369.637 1612.66L374.5 1608.42C375.36 1607.67 375.881 1606.6 375.948 1605.45C376.016 1604.3 375.625 1603.16 374.861 1602.29L353.252 1577.51C352.488 1576.64 351.414 1576.09 350.265 1576C349.117 1575.92 347.989 1576.29 347.129 1577.04L324.435 1596.83C323.576 1597.58 323.054 1598.65 322.987 1599.8C322.919 1600.95 323.31 1602.09 324.075 1602.96L345.683 1627.74C346.447 1628.61 347.522 1629.15 348.67 1629.24C349.818 1629.33 350.946 1628.96 351.806 1628.21L356.669 1623.97L360.741 1636.82C360.865 1637.15 361.068 1637.45 361.333 1637.69C361.597 1637.93 361.914 1638.11 362.258 1638.2C362.601 1638.29 362.96 1638.29 363.302 1638.21C363.645 1638.13 363.962 1637.97 364.224 1637.74L382.249 1622.01C382.515 1621.78 382.72 1621.49 382.846 1621.16C382.972 1620.84 383.016 1620.48 382.973 1620.13C382.93 1619.78 382.802 1619.44 382.6 1619.14C382.398 1618.85 382.128 1618.61 381.814 1618.44Z" stroke="url(#paint22_linear_3536_6657)" stroke-width="1.71429" stroke-linecap="round" stroke-linejoin="round"/>
</g>
<g clip-path="url(#clip4_3536_6657)">
<path d="M296.52 1747.82L305.297 1771.12" stroke="url(#paint23_linear_3536_6657)" stroke-width="1.71429" stroke-linecap="round" stroke-linejoin="round"/>
<path d="M315.656 1708.77C317.243 1702.86 318.515 1700.06 323.185 1697.61C327.612 1695.28 333.365 1696.04 337.262 1698.97C342.681 1703.05 341.879 1710.62 338.708 1715.88C335.273 1721.57 322.398 1730.23 316.434 1732.77C309.662 1735.65 302.909 1736.67 295.637 1735.5C290.65 1734.7 284.505 1733.05 281.126 1729.04C278.063 1725.41 276.902 1720.65 281.606 1717.91C287.372 1714.56 294.441 1715.15 300.701 1716.35C309 1717.93 316.547 1721.04 322.535 1727.03C325.681 1730.17 331.3 1736.95 328.635 1743.22C326.096 1749.19 314.087 1749.09 313.651 1750.72C313.215 1752.34 327.601 1752.8 328.62 1759.45C328.905 1761.31 328.297 1764.26 328.297 1764.26" stroke="url(#paint24_linear_3536_6657)" stroke-width="1.71429" stroke-linecap="round"/>
</g>
<g clip-path="url(#clip5_3536_6657)">
<path d="M271.72 1787.07L266.912 1774.31C265.774 1771.29 262.403 1769.76 259.383 1770.9L246.622 1775.71C243.602 1776.85 242.076 1780.22 243.214 1783.24L248.021 1796C249.159 1799.02 252.53 1800.54 255.551 1799.41L268.311 1794.6C271.332 1793.46 272.858 1790.09 271.72 1787.07Z" stroke="url(#paint25_linear_3536_6657)" stroke-width="1.71429" stroke-linecap="round" stroke-linejoin="round"/>
<path d="M255.405 1779.68L263.846 1782.75L259.526 1790.62" stroke="url(#paint26_linear_3536_6657)" stroke-width="1.71429" stroke-linecap="round" stroke-linejoin="round"/>
<path d="M263.844 1782.75L251.083 1787.56" stroke="url(#paint27_linear_3536_6657)" stroke-width="1.71429" stroke-linecap="round" stroke-linejoin="round"/>
</g>
<g clip-path="url(#clip6_3536_6657)">
<path d="M255.477 1684.56L234.205 1702" stroke="url(#paint28_linear_3536_6657)" stroke-width="1.71429" stroke-linecap="round" stroke-linejoin="round"/>
<path d="M230.852 1697.91L237.558 1706.09" stroke="url(#paint29_linear_3536_6657)" stroke-width="1.71429" stroke-linecap="round" stroke-linejoin="round"/>
<path d="M244.011 1678.92L246.465 1676.9C246.899 1676.55 247.457 1676.38 248.015 1676.44C248.574 1676.49 249.087 1676.77 249.443 1677.2L261.515 1691.93C261.871 1692.36 262.04 1692.92 261.984 1693.48C261.929 1694.03 261.654 1694.55 261.22 1694.9L258.766 1696.92" stroke="url(#paint30_linear_3536_6657)" stroke-width="1.71429" stroke-linecap="round" stroke-linejoin="round"/>
</g>
<defs>
<linearGradient id="paint0_linear_3536_6657" x1="901.014" y1="1338.63" x2="917.099" y2="1368.13" gradientUnits="userSpaceOnUse">
<stop stop-color="#4C60E9"/>
<stop offset="1" stop-color="#7485FF"/>
</linearGradient>
<linearGradient id="paint1_linear_3536_6657" x1="927.946" y1="1318.26" x2="931.214" y2="1323.79" gradientUnits="userSpaceOnUse">
<stop stop-color="#4C60E9"/>
<stop offset="1" stop-color="#7485FF"/>
</linearGradient>
<linearGradient id="paint2_linear_3536_6657" x1="920.666" y1="1345.34" x2="923.48" y2="1351.5" gradientUnits="userSpaceOnUse">
<stop stop-color="#4C60E9"/>
<stop offset="1" stop-color="#7485FF"/>
</linearGradient>
<linearGradient id="paint3_linear_3536_6657" x1="1053.34" y1="1368.2" x2="1058.63" y2="1367.2" gradientUnits="userSpaceOnUse">
<stop stop-color="#4C60E9"/>
<stop offset="1" stop-color="#7485FF"/>
</linearGradient>
<linearGradient id="paint4_linear_3536_6657" x1="1057.87" y1="1377.4" x2="1058.14" y2="1378.09" gradientUnits="userSpaceOnUse">
<stop stop-color="#4C60E9"/>
<stop offset="1" stop-color="#7485FF"/>
</linearGradient>
<linearGradient id="paint5_linear_3536_6657" x1="1025.66" y1="1382.16" x2="1035.16" y2="1400.45" gradientUnits="userSpaceOnUse">
<stop stop-color="#4C60E9"/>
<stop offset="1" stop-color="#7485FF"/>
</linearGradient>
<linearGradient id="paint6_linear_3536_6657" x1="1030.77" y1="1378.79" x2="1038.48" y2="1393.65" gradientUnits="userSpaceOnUse">
<stop stop-color="#4C60E9"/>
<stop offset="1" stop-color="#7485FF"/>
</linearGradient>
<linearGradient id="paint7_linear_3536_6657" x1="1017.25" y1="1411.4" x2="1027.18" y2="1430.67" gradientUnits="userSpaceOnUse">
<stop stop-color="#4C60E9"/>
<stop offset="1" stop-color="#7485FF"/>
</linearGradient>
<linearGradient id="paint8_linear_3536_6657" x1="1143.21" y1="1419.93" x2="1162.88" y2="1435.96" gradientUnits="userSpaceOnUse">
<stop stop-color="#4C60E9"/>
<stop offset="1" stop-color="#7485FF"/>
</linearGradient>
<linearGradient id="paint9_linear_3536_6657" x1="1142.64" y1="1437.1" x2="1147.09" y2="1441.41" gradientUnits="userSpaceOnUse">
<stop stop-color="#4C60E9"/>
<stop offset="1" stop-color="#7485FF"/>
</linearGradient>
<linearGradient id="paint10_linear_3536_6657" x1="1125.08" y1="1419.17" x2="1144.69" y2="1429.06" gradientUnits="userSpaceOnUse">
<stop stop-color="#4C60E9"/>
<stop offset="1" stop-color="#7485FF"/>
</linearGradient>
<linearGradient id="paint11_linear_3536_6657" x1="1179.14" y1="1415.21" x2="1187.74" y2="1421.58" gradientUnits="userSpaceOnUse">
<stop stop-color="#4C60E9"/>
<stop offset="1" stop-color="#7485FF"/>
</linearGradient>
<linearGradient id="paint12_linear_3536_6657" x1="1163.85" y1="1403.99" x2="1167.38" y2="1404.31" gradientUnits="userSpaceOnUse">
<stop stop-color="#4C60E9"/>
<stop offset="1" stop-color="#7485FF"/>
</linearGradient>
<linearGradient id="paint13_linear_3536_6657" x1="1154.98" y1="1412.68" x2="1158.5" y2="1413" gradientUnits="userSpaceOnUse">
<stop stop-color="#4C60E9"/>
<stop offset="1" stop-color="#7485FF"/>
</linearGradient>
<linearGradient id="paint14_linear_3536_6657" x1="1260.13" y1="1397.18" x2="1260.89" y2="1399.09" gradientUnits="userSpaceOnUse">
<stop stop-color="#4C60E9"/>
<stop offset="1" stop-color="#7485FF"/>
</linearGradient>
<linearGradient id="paint15_linear_3536_6657" x1="1263.33" y1="1389.77" x2="1263.71" y2="1390.72" gradientUnits="userSpaceOnUse">
<stop stop-color="#4C60E9"/>
<stop offset="1" stop-color="#7485FF"/>
</linearGradient>
<linearGradient id="paint16_linear_3536_6657" x1="1075.24" y1="1420.19" x2="1088.13" y2="1432.74" gradientUnits="userSpaceOnUse">
<stop stop-color="#4C60E9"/>
<stop offset="1" stop-color="#7485FF"/>
</linearGradient>
<linearGradient id="paint17_linear_3536_6657" x1="1088.25" y1="1402.2" x2="1097.36" y2="1410.98" gradientUnits="userSpaceOnUse">
<stop stop-color="#4C60E9"/>
<stop offset="1" stop-color="#7485FF"/>
</linearGradient>
<linearGradient id="paint18_linear_3536_6657" x1="965.315" y1="1385.2" x2="986.238" y2="1393.42" gradientUnits="userSpaceOnUse">
<stop stop-color="#4C60E9"/>
<stop offset="1" stop-color="#7485FF"/>
</linearGradient>
<linearGradient id="paint19_linear_3536_6657" x1="956.161" y1="1364.08" x2="973.86" y2="1369.22" gradientUnits="userSpaceOnUse">
<stop stop-color="#4C60E9"/>
<stop offset="1" stop-color="#7485FF"/>
</linearGradient>
<linearGradient id="paint20_linear_3536_6657" x1="1282.5" y1="1369.84" x2="1284.8" y2="1372.57" gradientUnits="userSpaceOnUse">
<stop stop-color="#4C60E9"/>
<stop offset="1" stop-color="#7485FF"/>
</linearGradient>
<linearGradient id="paint21_linear_3536_6657" x1="54.7874" y1="1388.65" x2="163.903" y2="1728.38" gradientUnits="userSpaceOnUse">
<stop stop-color="#4C60E9"/>
<stop offset="1" stop-color="#7485FF"/>
</linearGradient>
<linearGradient id="paint22_linear_3536_6657" x1="330.973" y1="1610.87" x2="364.092" y2="1636.32" gradientUnits="userSpaceOnUse">
<stop stop-color="#4C60E9"/>
<stop offset="1" stop-color="#7485FF"/>
</linearGradient>
<linearGradient id="paint23_linear_3536_6657" x1="297.876" y1="1754.26" x2="303.113" y2="1753.87" gradientUnits="userSpaceOnUse">
<stop stop-color="#4C60E9"/>
<stop offset="1" stop-color="#7485FF"/>
</linearGradient>
<linearGradient id="paint24_linear_3536_6657" x1="281.148" y1="1731.28" x2="303.712" y2="1773.22" gradientUnits="userSpaceOnUse">
<stop stop-color="#4C60E9"/>
<stop offset="1" stop-color="#7485FF"/>
</linearGradient>
<linearGradient id="paint25_linear_3536_6657" x1="243.485" y1="1783.96" x2="252.414" y2="1800.45" gradientUnits="userSpaceOnUse">
<stop stop-color="#4C60E9"/>
<stop offset="1" stop-color="#7485FF"/>
</linearGradient>
<linearGradient id="paint26_linear_3536_6657" x1="256.481" y1="1782.54" x2="261.217" y2="1789.61" gradientUnits="userSpaceOnUse">
<stop stop-color="#4C60E9"/>
<stop offset="1" stop-color="#7485FF"/>
</linearGradient>
<linearGradient id="paint27_linear_3536_6657" x1="251.175" y1="1787.8" x2="251.446" y2="1788.5" gradientUnits="userSpaceOnUse">
<stop stop-color="#4C60E9"/>
<stop offset="1" stop-color="#7485FF"/>
</linearGradient>
<linearGradient id="paint28_linear_3536_6657" x1="234.371" y1="1702.2" x2="234.848" y2="1702.78" gradientUnits="userSpaceOnUse">
<stop stop-color="#4C60E9"/>
<stop offset="1" stop-color="#7485FF"/>
</linearGradient>
<linearGradient id="paint29_linear_3536_6657" x1="231.829" y1="1700.68" x2="236.316" y2="1700.32" gradientUnits="userSpaceOnUse">
<stop stop-color="#4C60E9"/>
<stop offset="1" stop-color="#7485FF"/>
</linearGradient>
<linearGradient id="paint30_linear_3536_6657" x1="247.864" y1="1683.62" x2="261.91" y2="1688.63" gradientUnits="userSpaceOnUse">
<stop stop-color="#4C60E9"/>
<stop offset="1" stop-color="#7485FF"/>
</linearGradient>
<clipPath id="clip0_3536_6657">
<rect width="48.8634" height="47.727" fill="white" transform="translate(939.289 1309.69) rotate(69.3554)"/>
</clipPath>
<clipPath id="clip1_3536_6657">
<rect width="64.7724" height="63.636" fill="white" transform="translate(1060.25 1351.5) rotate(69.3554)"/>
</clipPath>
<clipPath id="clip2_3536_6657">
<rect width="57.9542" height="57.9542" fill="white" transform="translate(1157.88 1372.8) rotate(45.5979)"/>
</clipPath>
<clipPath id="clip3_3536_6657">
<rect width="61.3633" height="60.2269" fill="white" transform="translate(357.035 1565.49) rotate(48.9038)"/>
</clipPath>
<clipPath id="clip4_3536_6657">
<rect width="69.3178" height="70.4541" fill="white" transform="translate(337.914 1689.26) rotate(69.3554)"/>
</clipPath>
<clipPath id="clip5_3536_6657">
<rect width="27.2726" height="27.2726" fill="white" transform="translate(265.418 1767.58) rotate(69.3554)"/>
</clipPath>
<clipPath id="clip6_3536_6657">
<rect width="29.6212" height="29.6212" fill="white" transform="translate(246.906 1672.44) rotate(50.6563)"/>
</clipPath>
</defs>
</svg>
