<svg width="744" height="1224" viewBox="0 0 744 1224" fill="none" xmlns="http://www.w3.org/2000/svg">
<path d="M181.768 626.388C187.39 625.51 192.948 624.219 198.404 622.524C198.695 622.452 198.95 622.265 199.115 622.001C199.281 621.738 199.345 621.419 199.295 621.109C198.949 618.219 195.146 594.921 193.95 594.498C193.397 593.844 182.6 597.907 171.215 598.085C171.829 597.188 172.139 596.101 172.094 595C172.049 593.899 171.651 592.85 170.967 592.022C170.429 591.403 169.756 590.932 169.004 590.651C168.253 590.37 167.446 590.286 166.655 590.408C165.863 590.53 165.11 590.853 164.461 591.35C163.813 591.846 163.288 592.501 162.932 593.258C162.484 594.022 162.228 594.893 162.188 595.787C162.148 596.682 162.324 597.571 162.702 598.37C163.161 599.025 163.766 599.551 164.464 599.902C165.162 600.253 165.932 600.419 166.707 600.385C173.267 600.672 179.839 600.046 186.255 598.524L190.068 622.309C184.774 623.541 175.493 625.611 170.206 624.432C171.294 623.332 171.977 621.863 172.135 620.288C172.292 618.713 171.914 617.135 171.067 615.834C170.593 615.045 169.917 614.414 169.117 614.014C168.316 613.614 167.423 613.46 166.539 613.57C165.656 613.68 164.818 614.049 164.121 614.636C163.425 615.223 162.898 616.004 162.601 616.888C159.348 625.773 170.215 628.154 181.768 626.388ZM167.04 592.699C167.648 592.62 168.26 592.773 168.767 593.13C169.273 593.487 169.639 594.025 169.799 594.645C170.294 596.482 168.623 598.675 165.615 597.779C163.013 596.996 165.114 593.052 167.04 592.699ZM188.473 598.039L192.398 597.141C194.371 604.814 195.876 612.614 196.905 620.495C195.368 620.963 193.818 621.431 192.258 621.808C191.015 613.891 189.753 605.968 188.473 598.039ZM164.764 617.564C166.605 613.126 173.259 618.661 167.827 623.648C164.775 622.14 163.943 619.54 164.764 617.564ZM88.0413 556.06C93.6637 555.183 99.2234 553.891 104.679 552.194C104.97 552.121 105.225 551.934 105.39 551.671C105.556 551.407 105.62 551.089 105.571 550.779C105.202 547.821 101.419 524.591 100.226 524.165C99.6994 523.556 88.8389 527.559 77.4901 527.769C78.1033 526.872 78.4124 525.785 78.3672 524.685C78.322 523.585 77.9252 522.536 77.2411 521.709C76.7041 521.089 76.0306 520.618 75.279 520.336C74.5275 520.054 73.7207 519.971 72.9288 520.093C72.1369 520.215 71.3839 520.538 70.7352 521.035C70.0865 521.532 69.5617 522.187 69.2065 522.944C68.7585 523.708 68.5019 524.578 68.4612 525.472C68.4204 526.366 68.5968 527.255 68.9737 528.054C69.4338 528.709 70.0392 529.235 70.7375 529.586C71.4359 529.938 72.2062 530.104 72.982 530.072C79.5414 530.358 86.1141 529.731 92.5301 528.208L96.343 551.996C91.0075 553.23 81.7705 555.298 76.4807 554.116C83.0164 546.081 71.7693 538.683 68.8706 546.569C65.6249 555.429 76.5724 557.824 88.0413 556.06ZM73.2956 522.39C73.9027 522.311 74.5151 522.463 75.0211 522.821C75.5271 523.178 75.8929 523.716 76.0518 524.336C76.5535 526.188 74.8589 528.368 71.8679 527.467C69.2855 526.679 71.3838 522.735 73.2956 522.39ZM94.7422 527.729L98.667 526.833C100.639 534.506 102.144 542.306 103.173 550.187C101.637 550.656 100.088 551.109 98.5263 551.5C97.2705 543.562 96.0089 535.641 94.7422 527.729ZM71.0327 547.256C72.8625 542.863 79.5254 548.351 74.0961 553.34C71.0307 551.817 70.2126 549.221 71.0327 547.256ZM102.923 615.007C103.176 614.164 93.3733 608.13 85.7925 598.962C86.886 598.836 87.9066 598.314 88.6792 597.485C89.4519 596.656 89.9284 595.572 90.0268 594.418C90.0098 593.168 89.5869 591.964 88.8284 591.007C88.0699 590.051 87.0216 589.398 85.8575 589.159C84.6934 588.919 83.4838 589.107 82.4295 589.691C81.3753 590.275 80.54 591.22 80.0624 592.369C79.4211 594.423 80.8256 596.323 81.9332 597.829C85.7951 602.86 90.2177 607.383 95.1069 611.301C90.1723 617.488 85.2365 623.682 80.2992 629.882C75.9159 626.348 68.6783 620.394 66.0135 615.324C75.8192 615.362 74.1072 602.178 67.1357 604.1C60.3331 605.979 60.3411 614.961 72.0588 625.898C76.3134 629.852 80.8253 633.49 85.562 636.784C85.7666 636.929 86.0115 636.999 86.2586 636.982C86.5057 636.965 86.7413 636.863 86.9287 636.691C90.1229 632.954 103.216 616.246 102.923 615.007ZM86.9376 592.051C87.4125 592.493 87.7114 593.107 87.7751 593.773C87.8388 594.439 87.6628 595.108 87.2819 595.647C86.2681 597.062 83.8772 597.291 82.4525 594.456C81.1818 591.795 85.3175 590.679 86.9376 592.051ZM70.581 608.418C71.1861 611.9 67.7759 613.229 65.056 612.859C63.5187 606.501 69.8841 604.291 70.581 608.418ZM96.8594 612.766C97.9075 613.632 98.9703 614.481 100.033 615.331C95.7472 621.919 91.0695 628.216 86.0283 634.184C84.7062 633.255 83.3908 632.294 82.082 631.302C87.0087 625.149 91.9295 618.964 96.8594 612.766ZM260.465 443.469C258.878 442.666 257.053 442.541 255.371 443.12C255.205 443.152 255.047 443.224 254.911 443.33C254.775 443.437 254.664 443.575 254.587 443.735C254.51 443.894 254.47 444.07 254.469 444.248C254.468 444.426 254.507 444.601 254.582 444.76C254.051 445.436 253.698 446.245 253.56 447.108C253.421 447.97 253.502 448.854 253.794 449.669C254.085 450.485 254.578 451.203 255.22 451.75C255.863 452.298 256.633 452.655 257.452 452.786C258.546 452.942 259.661 452.691 260.603 452.075C261.545 451.459 262.256 450.518 262.613 449.414C262.97 448.31 262.951 447.112 262.559 446.026C262.167 444.941 261.426 444.036 260.465 443.469ZM257.881 450.41C257.539 450.37 257.208 450.254 256.911 450.071C256.615 449.888 256.358 449.641 256.157 449.347C255.957 449.053 255.817 448.717 255.748 448.361C255.678 448.006 255.68 447.639 255.752 447.283C255.825 446.927 255.968 446.591 256.171 446.295C256.374 446 256.633 445.752 256.931 445.567C257.23 445.383 257.561 445.265 257.904 445.223C258.247 445.181 258.594 445.214 258.923 445.321C259.516 445.51 260.017 445.926 260.33 446.487C260.643 447.049 260.744 447.714 260.613 448.353C260.482 448.992 260.129 449.558 259.623 449.939C259.118 450.321 258.496 450.487 257.881 450.41ZM248.114 475.212C247.42 475.555 246.807 476.056 246.32 476.68C245.833 477.304 245.485 478.034 245.3 478.817C245.116 479.599 245.101 480.414 245.256 481.201C245.411 481.988 245.732 482.727 246.195 483.363C246.815 484.323 247.762 484.995 248.841 485.242C249.92 485.489 251.051 485.292 252.003 484.692C252.666 484.244 253.232 483.651 253.662 482.955C254.092 482.259 254.375 481.475 254.494 480.656C254.613 479.837 254.565 479.002 254.351 478.206C254.138 477.411 253.766 476.675 253.259 476.046C253.32 475.873 253.342 475.688 253.323 475.506C253.304 475.323 253.244 475.148 253.149 474.994C253.053 474.841 252.925 474.714 252.773 474.623C252.622 474.532 252.452 474.48 252.278 474.471C252.036 474.429 251.792 474.401 251.546 474.39C250.822 473.856 250.025 473.44 249.182 473.156C248.933 473.079 248.666 473.094 248.426 473.2C248.186 473.305 247.986 473.494 247.861 473.735C247.736 473.975 247.693 474.254 247.739 474.522C247.785 474.791 247.917 475.035 248.114 475.212ZM252.274 479.536L252.283 479.6C252.408 482.114 249.946 484.141 248.291 482.279C246.268 480.031 247.926 477.114 250.791 476.795C251.601 477.474 252.131 478.454 252.274 479.536Z" fill="white"/>
<path d="M51.1259 1170.11C-42.0752 1081.25 -194.545 901.113 -58.8177 891.443C110.842 879.357 291.943 965.164 238.145 745.131C184.346 525.098 293.138 513.346 387.72 490.974C500.608 464.272 564.257 386.503 464.648 327.192C270.045 269.609 269.312 263.07 227.064 79.5273" stroke="white" stroke-width="2" stroke-dasharray="14 14"/>
<path d="M32.516 864.74C32.4815 864.455 32.5582 864.174 32.7292 863.958C32.9002 863.741 33.1516 863.607 33.4279 863.585L44.2432 862.724C44.5196 862.702 44.7983 862.793 45.0181 862.979C45.2378 863.164 45.3807 863.428 45.4152 863.712C45.4496 863.996 45.3729 864.278 45.2019 864.494C45.0309 864.711 44.7796 864.845 44.5032 864.867L33.6462 865.731C33.3758 865.742 33.1071 865.644 32.8964 865.459C32.6857 865.274 32.5493 865.016 32.516 864.74Z" fill="white"/>
<path d="M48.9878 863.384C48.8478 862.207 49.1682 861.052 49.8643 860.171C50.5594 859.291 51.5707 858.756 52.6721 858.665L70.7258 857.227C71.8264 857.142 72.9456 857.508 73.837 858.261C74.7306 859.016 75.3206 860.099 75.4632 861.275C75.6058 862.449 75.2871 863.603 74.5922 864.483C73.8987 865.361 72.8888 865.894 71.7895 865.981L53.7061 867.422C52.6098 867.502 51.4965 867.135 50.6096 866.384C49.7205 865.632 49.1326 864.554 48.9878 863.384Z" stroke="white" stroke-width="3"/>
<path d="M43.3301 863.878C42.9992 861.128 43.7428 858.407 45.3978 856.312C47.0528 854.217 49.4839 852.919 52.1577 852.703L60.6807 852.024C60.9571 852.002 61.2358 852.094 61.4556 852.28C61.6753 852.465 61.8182 852.729 61.8527 853.013C61.8871 853.297 61.8104 853.578 61.6394 853.795C61.4684 854.011 61.2171 854.145 60.9407 854.167L52.4593 854.843C51.3801 854.889 50.331 855.157 49.3749 855.632C48.4188 856.108 47.5752 856.78 46.8945 857.609C46.2138 858.438 45.7099 859.407 45.413 860.458C45.1161 861.51 45.0322 862.621 45.1663 863.727C45.3005 864.832 45.6499 865.909 46.1938 866.893C46.7376 867.877 47.4647 868.749 48.3317 869.454C49.1987 870.16 50.1877 870.687 51.2398 871.002C52.2918 871.317 53.3853 871.415 54.4549 871.29L62.9363 870.614C63.2126 870.592 63.4913 870.684 63.7111 870.869C63.9309 871.055 64.0737 871.318 64.1082 871.603C64.1427 871.887 64.066 872.168 63.895 872.384C63.7239 872.601 63.4726 872.735 63.1963 872.757L54.7149 873.433C53.3887 873.542 52.042 873.382 50.7519 872.962C49.4617 872.541 48.2535 871.868 47.1962 870.98C46.1388 870.093 45.2532 869.009 44.5898 867.79C43.9264 866.572 43.4984 865.242 43.3301 863.878Z" fill="white"/>
<path d="M32.8324 871.941L31.0969 857.637C31.0624 857.353 31.1391 857.071 31.3102 856.855C31.4812 856.638 31.7325 856.504 32.0088 856.482C32.2852 856.46 32.5639 856.552 32.7837 856.738C33.0035 856.923 33.1463 857.187 33.1808 857.471L34.9163 871.775C34.9508 872.059 34.8741 872.34 34.7031 872.557C34.5321 872.773 34.2807 872.907 34.0044 872.929C33.728 872.951 33.4493 872.859 33.2296 872.674C33.0098 872.489 32.8669 872.225 32.8324 871.941Z" fill="white"/>
</svg>
